<svg width="577" height="142" viewBox="0 0 577 142" fill="none" xmlns="http://www.w3.org/2000/svg">
<mask id="path-1-inside-1_5696_942" fill="white">
<path d="M343.534 28.6222C343.562 28.6178 343.588 28.6121 343.614 28.605C350.402 28.1864 354.066 26.1443 354.227 26.0534L353.178 25.0778C352.901 25.2205 352.614 25.3524 352.317 25.4728V25.1068C352.307 24.9474 352.213 24.797 352.054 24.6868C351.895 24.5767 351.684 24.5152 351.465 24.5152C351.245 24.5152 351.034 24.5767 350.875 24.6868C350.716 24.797 350.622 24.9474 350.612 25.1068V26.0929C350.286 26.1956 349.931 26.3009 349.547 26.4036V25.7848C349.552 25.7011 349.534 25.6174 349.493 25.5389C349.453 25.4604 349.391 25.3886 349.311 25.328C349.232 25.2673 349.136 25.2191 349.03 25.1861C348.924 25.1531 348.81 25.1361 348.694 25.1361C348.579 25.1361 348.465 25.1531 348.358 25.1861C348.252 25.2191 348.157 25.2673 348.077 25.328C347.997 25.3886 347.935 25.4604 347.895 25.5389C347.854 25.6174 347.836 25.7011 347.842 25.7848V26.8013C347.543 26.8618 347.233 26.9193 346.91 26.9737V26.3009C346.9 26.1416 346.806 25.9912 346.647 25.881C346.488 25.7709 346.277 25.7094 346.058 25.7094C345.838 25.7094 345.627 25.7709 345.468 25.881C345.31 25.9912 345.215 26.1416 345.205 26.3009V27.2134C344.888 27.2489 344.564 27.2818 344.228 27.3108V26.6169C344.228 26.4528 344.139 26.2954 343.979 26.1794C343.819 26.0633 343.603 25.9981 343.377 25.9981C343.151 25.9981 342.934 26.0633 342.775 26.1794C342.615 26.2954 342.525 26.4528 342.525 26.6169V27.4069H342.371C337.067 27.5741 333.822 24.2984 332.695 22.9198C332.595 22.7553 332.498 22.5867 332.403 22.4129H333.146V21.7033H331.211V20.8646H333.146V20.1549H323.45V18.3788H322.485C323.528 18.0424 324.54 17.6572 325.514 17.2254L329.397 15.5007V13.6942C329.397 13.6942 324.882 15.0741 319.904 14.7633C319.932 14.7599 319.958 14.7546 319.984 14.7475C326.772 14.3289 330.436 12.2868 330.597 12.1959L329.548 11.219C329.272 11.3653 328.984 11.4998 328.687 11.6219V11.2598C328.677 11.1004 328.583 10.9501 328.424 10.8399C328.265 10.7297 328.054 10.6682 327.834 10.6682C327.615 10.6682 327.404 10.7297 327.245 10.8399C327.086 10.9501 326.992 11.1004 326.982 11.2598V12.2459C326.656 12.3486 326.301 12.454 325.916 12.5567V11.9379C325.922 11.8541 325.904 11.7704 325.863 11.6919C325.823 11.6134 325.761 11.5416 325.681 11.481C325.601 11.4204 325.506 11.3721 325.4 11.3391C325.294 11.3062 325.179 11.2892 325.064 11.2892C324.949 11.2892 324.834 11.3062 324.728 11.3391C324.622 11.3721 324.526 11.4204 324.447 11.481C324.367 11.5416 324.305 11.6134 324.265 11.6919C324.224 11.7704 324.206 11.8541 324.211 11.9379V12.9543C323.912 13.0149 323.601 13.0724 323.28 13.1268V12.4448C323.285 12.361 323.267 12.2773 323.227 12.1988C323.186 12.1203 323.124 12.0485 323.045 11.9879C322.965 11.9273 322.869 11.879 322.763 11.846C322.657 11.8131 322.543 11.7961 322.427 11.7961C322.312 11.7961 322.198 11.8131 322.092 11.846C321.986 11.879 321.89 11.9273 321.81 11.9879C321.731 12.0485 321.669 12.1203 321.628 12.1988C321.588 12.2773 321.57 12.361 321.575 12.4448V13.3664C321.258 13.4033 320.934 13.4362 320.598 13.4651V12.7713C320.598 12.6072 320.509 12.4498 320.349 12.3337C320.189 12.2177 319.973 12.1525 319.747 12.1525C319.521 12.1525 319.304 12.2177 319.144 12.3337C318.985 12.4498 318.895 12.6072 318.895 12.7713V13.5613H318.741C313.443 13.7272 310.199 10.4619 309.069 9.08473C308.967 8.91751 308.867 8.74768 308.773 8.57256H309.516V7.8629H307.581V7.02421H309.516V6.31455H305.55V5.1862H301.444V2.83338H299.53V0.718881H294.701V3.28894H298.017V1.62077H295.937V2.08554H297.378V2.82417H295.339V1.18234H298.891V3.65101H294.083V0.718881H288.925V2.23827H288.546V0.463455H294.065V0H282.222V0.463455H287.908V2.23432H287.345V0.718881H282.186V3.65101H277.377V1.18234H280.928V2.82417H278.892V2.08554H280.33V1.62077H278.254V3.28894H281.57V0.718881H276.75V2.83338H274.827V5.18225H270.72V6.31059H266.797V7.02026H268.596V7.85895H266.804V8.56861H267.547C267.451 8.74372 267.353 8.91489 267.251 9.08078C266.121 10.4632 262.877 13.7298 257.577 13.5573H257.425V12.7673C257.425 12.6032 257.335 12.4458 257.176 12.3298C257.016 12.2137 256.799 12.1485 256.573 12.1485C256.347 12.1485 256.131 12.2137 255.971 12.3298C255.811 12.4458 255.722 12.6032 255.722 12.7673V13.4612C255.387 13.4322 255.062 13.3993 254.745 13.3624V12.4448C254.75 12.361 254.732 12.2773 254.692 12.1988C254.651 12.1203 254.589 12.0485 254.51 11.9879C254.43 11.9273 254.334 11.879 254.228 11.846C254.122 11.8131 254.008 11.7961 253.893 11.7961C253.777 11.7961 253.663 11.8131 253.557 11.846C253.451 11.879 253.355 11.9273 253.275 11.9879C253.196 12.0485 253.134 12.1203 253.093 12.1988C253.053 12.2773 253.035 12.361 253.04 12.4448V13.1176C252.717 13.064 252.406 13.0065 252.107 12.9451V11.9286C252.107 11.7645 252.017 11.6071 251.857 11.4911C251.698 11.375 251.481 11.3098 251.255 11.3098C251.029 11.3098 250.813 11.375 250.653 11.4911C250.493 11.6071 250.404 11.7645 250.404 11.9286V12.5475C250.018 12.4448 249.662 12.3394 249.338 12.2367V11.2598C249.328 11.1004 249.234 10.9501 249.075 10.8399C248.916 10.7297 248.705 10.6682 248.486 10.6682C248.266 10.6682 248.055 10.7297 247.896 10.8399C247.737 10.9501 247.643 11.1004 247.633 11.2598V11.6258C247.337 11.5057 247.05 11.3738 246.774 11.2308L245.723 12.2065C245.883 12.2973 249.546 14.3394 256.336 14.7581C256.362 14.7652 256.389 14.7705 256.416 14.7739C251.438 15.0846 246.923 13.7048 246.923 13.7048V15.5112L250.806 17.236C251.78 17.6677 252.792 18.053 253.835 18.3893H253.013V20.1826H243.319V20.8922H245.252V21.7309H243.31V22.4406H244.051C243.956 22.6144 243.859 22.7829 243.759 22.9475C242.632 24.326 239.387 27.6018 234.083 27.4346H233.931V26.6446C233.921 26.4852 233.826 26.3348 233.668 26.2247C233.509 26.1145 233.298 26.053 233.078 26.053C232.859 26.053 232.648 26.1145 232.489 26.2247C232.33 26.3348 232.236 26.4852 232.226 26.6446V27.3226C231.89 27.2937 231.566 27.2608 231.249 27.2252V26.3128C231.239 26.1534 231.145 26.003 230.986 25.8929C230.827 25.7827 230.616 25.7212 230.396 25.7212C230.177 25.7212 229.966 25.7827 229.807 25.8929C229.648 26.003 229.554 26.1534 229.544 26.3128V26.9856C229.221 26.932 228.911 26.8746 228.613 26.8131V25.7967C228.618 25.7129 228.6 25.6293 228.559 25.5507C228.519 25.4722 228.457 25.4005 228.377 25.3398C228.298 25.2792 228.202 25.2309 228.096 25.198C227.99 25.165 227.875 25.148 227.76 25.148C227.645 25.148 227.53 25.165 227.424 25.198C227.318 25.2309 227.222 25.2792 227.143 25.3398C227.063 25.4005 227.001 25.4722 226.961 25.5507C226.92 25.6293 226.902 25.7129 226.907 25.7967V26.4155C226.523 26.3128 226.168 26.2075 225.842 26.1048V25.1186C225.842 24.9545 225.752 24.7971 225.593 24.681C225.433 24.565 225.216 24.4998 224.99 24.4998C224.764 24.4998 224.548 24.565 224.388 24.681C224.228 24.7971 224.139 24.9545 224.139 25.1186V25.4794C223.842 25.3587 223.554 25.2269 223.276 25.0844L222.227 26.06C222.388 26.1508 226.052 28.1929 232.84 28.6116C232.866 28.6185 232.893 28.6242 232.92 28.6287C227.942 28.9381 223.428 27.5583 223.428 27.5583V29.3647L227.31 31.0895C231.459 32.9312 236.227 33.9057 241.09 33.9058H237.359V34.6141H239.03V55.48H238.39V56.8151H237.468V59.8842H245.064V56.8151H244.143V55.4708H243.503V36.3639H262.517V55.5867H261.877V56.931H260.957V59.9987H268.552V56.931H267.63V55.5867H266.992V31.4924H267.755V32.4575H271.767V28.9447H274.576V30.3246H272.959V29.7979H273.456V30.0046H274.095V29.3345H272.32V30.792H275.219V29.8703H301.107V30.792H304.006V29.3318H302.23V30.002H302.868V29.7953H303.366V30.3219H301.75V28.9447H304.555V32.4575H308.568V31.4937H309.331V55.588H308.692V56.9323H307.771V60H315.367V56.9323H314.439V55.588H313.8V36.3652H332.956V55.4761H332.316V56.8151H331.396V59.8842H338.992V56.8151H338.07V55.4708H337.432V34.6089H339.101V33.9058H335.37C340.229 33.9041 344.994 32.9292 349.141 31.0882L353.024 29.3634V27.5517C353.024 27.5517 348.505 28.9316 343.534 28.6222ZM305.845 26.6025V25.4399H307.318V25.8349H306.91V25.6439H306.271V26.3023H307.958V25.9797H309.324V26.6077L305.845 26.6025ZM266.996 26.6025V25.9744H268.446V26.297H270.131V25.6387H269.502V25.8296H269.094V25.4346H270.569V26.5972L266.996 26.6025ZM262.285 20.8817V21.7204H260.804V20.8817H262.285ZM272.847 7.02421V7.8629H271.356V7.02421H272.847ZM305.45 21.7928V20.7474H306.941V21.7928H305.45ZM307.954 24.0837V23.5992H309.32V25.5057H307.954V24.9725H306.889V24.0837H307.954ZM306.249 24.9725H305.198V25.5057H303.759V23.6032H305.198V24.0877H306.246L306.249 24.9725ZM270.152 24.9725V24.0837H271.2V23.5992H272.55V25.5057H271.2V24.9725H270.152ZM268.449 24.9725V25.5057H267V23.6032H268.449V24.0877H269.515V24.9764L268.449 24.9725ZM303.319 21.7928V20.7474H304.81V21.7928H303.319ZM302.679 21.7928H301.188V20.7474H302.679V21.7928ZM300.549 21.7928H299.057V20.7474H300.549V21.7928ZM298.42 21.7928H296.926V20.7474H298.42V21.7928ZM296.289 21.7928H294.797V20.7474H296.289V21.7928ZM294.158 21.7928H292.666V20.7474H294.158V21.7928ZM292.027 21.7928H290.536V20.7474H292.027V21.7928ZM289.896 21.7928H288.405V20.7474H289.896V21.7928ZM287.765 21.7928H286.274V20.7474H287.765V21.7928ZM285.629 21.7928H284.137V20.7474H285.629V21.7928ZM283.498 21.7928H282.005V20.7474H283.496L283.498 21.7928ZM281.369 21.7928H279.877V20.7474H281.369V21.7928ZM279.238 21.7928H277.746V20.7474H279.238V21.7928ZM277.112 21.7928H275.621V20.7474H277.112V21.7928ZM274.981 21.7928H273.488V20.7474H274.98L274.981 21.7928ZM272.85 21.7928H271.359V20.7474H272.85V21.7928ZM270.72 21.7928H269.228V20.7474H270.72V21.7928ZM268.596 21.7928H267V20.7474H268.596V21.7928ZM270.569 22.5025V23.6203H269.094V23.2253H269.502V23.4162H270.142V22.7579H268.456V23.1292H267.007V22.4972L270.569 22.5025ZM272.562 23.1345H271.212V22.5025H272.562V23.1345ZM305.214 23.1345H303.776V22.5025H305.198L305.214 23.1345ZM286.274 9.40336V17.5059C286.268 17.5645 286.231 17.6193 286.172 17.6592C286.113 17.6992 286.035 17.7214 285.954 17.7214C285.873 17.7214 285.795 17.6992 285.736 17.6592C285.676 17.6193 285.64 17.5645 285.634 17.5059V9.40336C285.64 9.34474 285.676 9.28997 285.736 9.25C285.795 9.21003 285.873 9.18781 285.954 9.18781C286.035 9.18781 286.113 9.21003 286.172 9.25C286.231 9.28997 286.268 9.34474 286.274 9.40336ZM284.143 9.40336V17.5059C284.137 17.5645 284.1 17.6193 284.041 17.6592C283.982 17.6992 283.904 17.7214 283.823 17.7214C283.742 17.7214 283.664 17.6992 283.605 17.6592C283.546 17.6193 283.509 17.5645 283.503 17.5059V9.40336C283.509 9.34474 283.546 9.28997 283.605 9.25C283.664 9.21003 283.742 9.18781 283.823 9.18781C283.904 9.18781 283.982 9.21003 284.041 9.25C284.1 9.28997 284.137 9.34474 284.143 9.40336ZM282.012 9.40336V17.5059C282.012 17.5673 281.978 17.6263 281.919 17.6697C281.859 17.7132 281.778 17.7376 281.693 17.7376C281.608 17.7376 281.527 17.7132 281.468 17.6697C281.408 17.6263 281.374 17.5673 281.374 17.5059V9.40336C281.374 9.3419 281.408 9.28296 281.468 9.2395C281.527 9.19604 281.608 9.17163 281.693 9.17163C281.778 9.17163 281.859 9.19604 281.919 9.2395C281.978 9.28296 282.012 9.3419 282.012 9.40336ZM279.883 9.40336V17.5059C279.877 17.5645 279.84 17.6193 279.781 17.6592C279.722 17.6992 279.644 17.7214 279.563 17.7214C279.482 17.7214 279.404 17.6992 279.345 17.6592C279.286 17.6193 279.249 17.5645 279.243 17.5059V9.40336C279.249 9.34474 279.286 9.28997 279.345 9.25C279.404 9.21003 279.482 9.18781 279.563 9.18781C279.644 9.18781 279.722 9.21003 279.781 9.25C279.84 9.28997 279.877 9.34474 279.883 9.40336ZM277.752 9.40336V17.5059C277.746 17.5645 277.71 17.6193 277.65 17.6592C277.591 17.6992 277.513 17.7214 277.432 17.7214C277.351 17.7214 277.273 17.6992 277.214 17.6592C277.155 17.6193 277.118 17.5645 277.112 17.5059V9.40336C277.118 9.34474 277.155 9.28997 277.214 9.25C277.273 9.21003 277.351 9.18781 277.432 9.18781C277.513 9.18781 277.591 9.21003 277.65 9.25C277.71 9.28997 277.746 9.34474 277.752 9.40336ZM275.621 9.40336V17.5059C275.615 17.5645 275.579 17.6193 275.519 17.6592C275.46 17.6992 275.382 17.7214 275.301 17.7214C275.22 17.7214 275.142 17.6992 275.083 17.6592C275.024 17.6193 274.987 17.5645 274.981 17.5059V9.40336C274.987 9.34474 275.024 9.28997 275.083 9.25C275.142 9.21003 275.22 9.18781 275.301 9.18781C275.382 9.18781 275.46 9.21003 275.519 9.25C275.579 9.28997 275.615 9.34474 275.621 9.40336ZM273.49 9.40336V17.5059C273.484 17.5645 273.448 17.6193 273.388 17.6592C273.329 17.6992 273.251 17.7214 273.17 17.7214C273.089 17.7214 273.012 17.6992 272.952 17.6592C272.893 17.6193 272.857 17.5645 272.85 17.5059V9.40336C272.857 9.34474 272.893 9.28997 272.952 9.25C273.012 9.21003 273.089 9.18781 273.17 9.18781C273.251 9.18781 273.329 9.21003 273.388 9.25C273.448 9.28997 273.484 9.34474 273.49 9.40336ZM271.359 9.40336V17.5059C271.353 17.5645 271.317 17.6193 271.258 17.6592C271.198 17.6992 271.12 17.7214 271.039 17.7214C270.959 17.7214 270.881 17.6992 270.821 17.6592C270.762 17.6193 270.726 17.5645 270.72 17.5059V9.40336C270.726 9.34474 270.762 9.28997 270.821 9.25C270.881 9.21003 270.959 9.18781 271.039 9.18781C271.12 9.18781 271.198 9.21003 271.258 9.25C271.317 9.28997 271.353 9.34474 271.359 9.40336ZM307.26 10.3658C307.345 10.3658 307.427 10.3904 307.487 10.4341C307.547 10.4778 307.581 10.537 307.581 10.5988V17.5059C307.575 17.5645 307.539 17.6193 307.479 17.6592C307.42 17.6992 307.342 17.7214 307.261 17.7214C307.18 17.7214 307.102 17.6992 307.043 17.6592C306.984 17.6193 306.947 17.5645 306.941 17.5059V10.6015C306.941 10.5707 306.948 10.5402 306.964 10.5116C306.98 10.483 307.003 10.457 307.033 10.4351C307.062 10.4131 307.098 10.3957 307.137 10.3838C307.176 10.3719 307.218 10.3658 307.26 10.3658ZM305.448 9.40336V17.5059C305.442 17.5645 305.406 17.6193 305.347 17.6592C305.287 17.6992 305.209 17.7214 305.128 17.7214C305.048 17.7214 304.97 17.6992 304.91 17.6592C304.851 17.6193 304.815 17.5645 304.809 17.5059V9.40336C304.815 9.34474 304.851 9.28997 304.91 9.25C304.97 9.21003 305.048 9.18781 305.128 9.18781C305.209 9.18781 305.287 9.21003 305.347 9.25C305.406 9.28997 305.442 9.34474 305.448 9.40336ZM303.317 9.40336V17.5059C303.311 17.5645 303.275 17.6193 303.216 17.6592C303.156 17.6992 303.078 17.7214 302.998 17.7214C302.917 17.7214 302.839 17.6992 302.779 17.6592C302.72 17.6193 302.684 17.5645 302.678 17.5059V9.40336C302.684 9.34474 302.72 9.28997 302.779 9.25C302.839 9.21003 302.917 9.18781 302.998 9.18781C303.078 9.18781 303.156 9.21003 303.216 9.25C303.275 9.28997 303.311 9.34474 303.317 9.40336ZM301.186 9.40336V17.5059C301.18 17.5645 301.144 17.6193 301.085 17.6592C301.025 17.6992 300.947 17.7214 300.867 17.7214C300.786 17.7214 300.708 17.6992 300.649 17.6592C300.589 17.6193 300.553 17.5645 300.547 17.5059V9.40336C300.553 9.34474 300.589 9.28997 300.649 9.25C300.708 9.21003 300.786 9.18781 300.867 9.18781C300.947 9.18781 301.025 9.21003 301.085 9.25C301.144 9.28997 301.18 9.34474 301.186 9.40336ZM299.056 9.40336V17.5059C299.056 17.5673 299.022 17.6263 298.962 17.6697C298.902 17.7132 298.821 17.7376 298.737 17.7376C298.652 17.7376 298.571 17.7132 298.511 17.6697C298.451 17.6263 298.418 17.5673 298.418 17.5059V9.40336C298.418 9.3419 298.451 9.28296 298.511 9.2395C298.571 9.19604 298.652 9.17163 298.737 9.17163C298.821 9.17163 298.902 9.19604 298.962 9.2395C299.022 9.28296 299.056 9.3419 299.056 9.40336ZM296.925 9.40336V17.5059C296.925 17.5673 296.891 17.6263 296.831 17.6697C296.771 17.7132 296.69 17.7376 296.606 17.7376C296.521 17.7376 296.44 17.7132 296.38 17.6697C296.32 17.6263 296.287 17.5673 296.287 17.5059V9.40336C296.287 9.3419 296.32 9.28296 296.38 9.2395C296.44 9.19604 296.521 9.17163 296.606 9.17163C296.69 9.17163 296.771 9.19604 296.831 9.2395C296.891 9.28296 296.925 9.3419 296.925 9.40336ZM294.796 9.40336V17.5059C294.789 17.5645 294.753 17.6193 294.694 17.6592C294.635 17.6992 294.557 17.7214 294.476 17.7214C294.395 17.7214 294.317 17.6992 294.258 17.6592C294.198 17.6193 294.162 17.5645 294.156 17.5059V9.40336C294.162 9.34474 294.198 9.28997 294.258 9.25C294.317 9.21003 294.395 9.18781 294.476 9.18781C294.557 9.18781 294.635 9.21003 294.694 9.25C294.753 9.28997 294.789 9.34474 294.796 9.40336ZM292.665 9.40336V17.5059C292.659 17.5645 292.622 17.6193 292.563 17.6592C292.504 17.6992 292.426 17.7214 292.345 17.7214C292.264 17.7214 292.186 17.6992 292.127 17.6592C292.067 17.6193 292.031 17.5645 292.025 17.5059V9.40336C292.031 9.34474 292.067 9.28997 292.127 9.25C292.186 9.21003 292.264 9.18781 292.345 9.18781C292.426 9.18781 292.504 9.21003 292.563 9.25C292.622 9.28997 292.659 9.34474 292.665 9.40336ZM290.534 9.40336V17.5059C290.528 17.5645 290.491 17.6193 290.432 17.6592C290.373 17.6992 290.295 17.7214 290.214 17.7214C290.133 17.7214 290.055 17.6992 289.996 17.6592C289.936 17.6193 289.9 17.5645 289.894 17.5059V9.40336C289.9 9.34474 289.936 9.28997 289.996 9.25C290.055 9.21003 290.133 9.18781 290.214 9.18781C290.295 9.18781 290.373 9.21003 290.432 9.25C290.491 9.28997 290.528 9.34474 290.534 9.40336ZM287.763 9.40336C287.769 9.34474 287.806 9.28997 287.865 9.25C287.924 9.21003 288.002 9.18781 288.083 9.18781C288.164 9.18781 288.242 9.21003 288.301 9.25C288.36 9.28997 288.397 9.34474 288.403 9.40336V17.5059C288.397 17.5645 288.36 17.6193 288.301 17.6592C288.242 17.6992 288.164 17.7214 288.083 17.7214C288.002 17.7214 287.924 17.6992 287.865 17.6592C287.806 17.6193 287.769 17.5645 287.763 17.5059V9.40336ZM309.07 17.5059V12.0498C309.076 11.9912 309.113 11.9364 309.172 11.8964C309.231 11.8564 309.309 11.8342 309.39 11.8342C309.471 11.8342 309.549 11.8564 309.608 11.8964C309.668 11.9364 309.704 11.9912 309.71 12.0498V17.5125C309.704 17.5711 309.668 17.6258 309.608 17.6658C309.549 17.7058 309.471 17.728 309.39 17.728C309.309 17.728 309.231 17.7058 309.172 17.6658C309.113 17.6258 309.076 17.5711 309.07 17.5125V17.5059ZM279.241 7.02421V7.8629H277.75V7.02421H279.241ZM279.881 7.02421H281.372V7.8629H279.881V7.02421ZM282.01 7.02421H283.501V7.8629H282.005L282.01 7.02421ZM284.141 7.02421H285.629V7.8629H284.137L284.141 7.02421ZM286.272 7.02421H287.763V7.8629H286.272V7.02421ZM296.925 7.8629V7.02421H298.418V7.8629H296.925ZM296.287 7.8629H294.796V7.02421H296.287V7.8629ZM294.156 7.8629H292.665V7.02421H294.156V7.8629ZM292.025 7.8629H290.534V7.02421H292.025V7.8629ZM289.894 7.8629H288.403V7.02421H289.894V7.8629ZM303.317 7.8629V7.02421H304.809V7.8629H303.317ZM302.678 7.8629H301.186V7.02421H302.678V7.8629ZM300.547 7.8629H299.056V7.02421H300.547V7.8629ZM277.11 7.8629H275.619V7.02421H277.112L277.11 7.8629ZM274.98 7.8629H273.488V7.02421H274.98V7.8629ZM269.228 10.6015V17.5085C269.222 17.5671 269.186 17.6219 269.127 17.6619C269.067 17.7018 268.989 17.724 268.908 17.724C268.828 17.724 268.75 17.7018 268.69 17.6619C268.631 17.6219 268.595 17.5671 268.589 17.5085V10.6015C268.585 10.5695 268.591 10.5374 268.606 10.5071C268.62 10.4768 268.643 10.449 268.673 10.4255C268.703 10.402 268.74 10.3832 268.78 10.3704C268.821 10.3576 268.864 10.3509 268.908 10.3509C268.953 10.3509 268.996 10.3576 269.037 10.3704C269.077 10.3832 269.114 10.402 269.144 10.4255C269.174 10.449 269.197 10.4768 269.211 10.5071C269.226 10.5374 269.232 10.5695 269.228 10.6015ZM267.097 12.0498V17.5125C267.097 17.5739 267.064 17.6329 267.004 17.6763C266.944 17.7198 266.863 17.7442 266.778 17.7442C266.694 17.7442 266.613 17.7198 266.553 17.6763C266.493 17.6329 266.46 17.5739 266.46 17.5125V12.0498C266.46 11.9883 266.493 11.9294 266.553 11.8859C266.613 11.8425 266.694 11.818 266.778 11.818C266.863 11.818 266.944 11.8425 267.004 11.8859C267.064 11.9294 267.097 11.9883 267.097 12.0498ZM271.2 25.981H272.55V26.609H271.2V25.981ZM303.763 25.981H305.198V26.609H303.759L303.763 25.981ZM309.32 23.145H307.954V22.7671H306.267V23.4254H306.907V23.2345H307.315V23.6295H305.841V22.5117H309.32V23.145ZM309.32 21.8033H307.581V20.7579H309.32V21.8033ZM306.941 7.8629H305.45V7.02421H306.941V7.8629ZM299.53 4.11578V3.30078H300.799V5.65097H304.906V6.30928H299.815V4.5213H296.95V4.11578H299.53ZM288.925 2.70172V4.11446H292.393V1.59575H289.939V2.93081H290.579V2.06052H291.755V3.65101H289.564V1.18234H293.444V4.11578H296.319V4.5213H288.546V2.70172H288.925ZM282.826 4.11446V1.18234H286.716V3.65101H284.525V2.06052H285.701V2.93081H286.339V1.59575H283.886V4.11578H287.354V2.70172H287.917V4.51998H279.964V4.11446H282.826ZM271.359 5.65097H275.467V3.30078H276.735V4.11578H279.31V4.5213H276.628V6.31455H271.359V5.65097ZM269.228 7.02421H270.72V7.8629H269.228V7.02421ZM260.157 20.8817V21.7204H258.666V20.8817H260.157ZM258.027 20.8817V21.7204H256.535V20.8817H258.027ZM255.897 20.8817V21.7204H254.406V20.8817H255.897ZM252.274 20.8817H253.765V21.7204H252.274V20.8817ZM250.143 20.8817H251.634V21.7204H250.143V20.8817ZM248.012 20.8817H249.503V21.7204H248.012V20.8817ZM245.881 20.8817H247.372V21.7204H245.881V20.8817ZM243.431 31.5951C243.389 31.5953 243.347 31.5894 243.308 31.5778C243.269 31.5663 243.234 31.5492 243.204 31.5277C243.175 31.5062 243.151 31.4806 243.135 31.4524C243.119 31.4242 243.11 31.3939 243.11 31.3634V25.9007C243.116 25.8421 243.153 25.7873 243.212 25.7473C243.271 25.7074 243.349 25.6851 243.43 25.6851C243.511 25.6851 243.589 25.7074 243.648 25.7473C243.707 25.7873 243.744 25.8421 243.75 25.9007V31.3634C243.75 31.4246 243.717 31.4833 243.657 31.5268C243.598 31.5702 243.517 31.5948 243.433 31.5951H243.431ZM245.243 35.6543H243.503V34.6089H245.243V35.6543ZM245.883 31.3634C245.877 31.422 245.84 31.4768 245.781 31.5167C245.722 31.5567 245.644 31.5789 245.563 31.5789C245.482 31.5789 245.404 31.5567 245.345 31.5167C245.285 31.4768 245.249 31.422 245.243 31.3634V24.4563C245.24 24.4244 245.245 24.3922 245.26 24.3619C245.275 24.3317 245.298 24.3039 245.328 24.2804C245.358 24.2568 245.394 24.2381 245.435 24.2253C245.475 24.2124 245.519 24.2058 245.563 24.2058C245.607 24.2058 245.651 24.2124 245.691 24.2253C245.732 24.2381 245.768 24.2568 245.798 24.2804C245.828 24.3039 245.851 24.3317 245.866 24.3619C245.88 24.3922 245.886 24.4244 245.883 24.4563V31.3634ZM247.374 35.6543H245.883V34.6089H247.374V35.6543ZM248.014 31.3634C248.007 31.422 247.971 31.4768 247.912 31.5167C247.852 31.5567 247.775 31.5789 247.694 31.5789C247.613 31.5789 247.535 31.5567 247.476 31.5167C247.416 31.4768 247.38 31.422 247.374 31.3634V23.2609C247.38 23.2022 247.416 23.1475 247.476 23.1075C247.535 23.0675 247.613 23.0453 247.694 23.0453C247.775 23.0453 247.852 23.0675 247.912 23.1075C247.971 23.1475 248.007 23.2022 248.014 23.2609V31.3634ZM249.505 35.6543H248.014V34.6089H249.505V35.6543ZM250.144 31.3634C250.138 31.422 250.102 31.4768 250.043 31.5167C249.983 31.5567 249.905 31.5789 249.825 31.5789C249.744 31.5789 249.666 31.5567 249.607 31.5167C249.547 31.4768 249.511 31.422 249.505 31.3634V23.2609C249.511 23.2022 249.547 23.1475 249.607 23.1075C249.666 23.0675 249.744 23.0453 249.825 23.0453C249.905 23.0453 249.983 23.0675 250.043 23.1075C250.102 23.1475 250.138 23.2022 250.144 23.2609V31.3634ZM251.636 35.6543H250.144V34.6089H251.636V35.6543ZM252.275 31.3634C252.269 31.422 252.233 31.4768 252.174 31.5167C252.114 31.5567 252.036 31.5789 251.955 31.5789C251.875 31.5789 251.797 31.5567 251.737 31.5167C251.678 31.4768 251.642 31.422 251.636 31.3634V23.2609C251.642 23.2022 251.678 23.1475 251.737 23.1075C251.797 23.0675 251.875 23.0453 251.955 23.0453C252.036 23.0453 252.114 23.0675 252.174 23.1075C252.233 23.1475 252.269 23.2022 252.275 23.2609V31.3634ZM253.767 35.6543H252.275V34.6089H253.767V35.6543ZM254.406 31.3634C254.4 31.422 254.364 31.4768 254.305 31.5167C254.245 31.5567 254.167 31.5789 254.086 31.5789C254.006 31.5789 253.928 31.5567 253.868 31.5167C253.809 31.4768 253.773 31.422 253.767 31.3634V23.2609C253.773 23.2022 253.809 23.1475 253.868 23.1075C253.928 23.0675 254.006 23.0453 254.086 23.0453C254.167 23.0453 254.245 23.0675 254.305 23.1075C254.364 23.1475 254.4 23.2022 254.406 23.2609V31.3634ZM255.897 35.6543H254.406V34.6089H255.897V35.6543ZM256.535 31.3634C256.535 31.4248 256.502 31.4838 256.442 31.5272C256.382 31.5707 256.301 31.5951 256.216 31.5951C256.132 31.5951 256.051 31.5707 255.991 31.5272C255.931 31.4838 255.897 31.4248 255.897 31.3634V23.2609C255.897 23.1994 255.931 23.1405 255.991 23.097C256.051 23.0535 256.132 23.0291 256.216 23.0291C256.301 23.0291 256.382 23.0535 256.442 23.097C256.502 23.1405 256.535 23.1994 256.535 23.2609V31.3634ZM258.027 35.6543H256.535V34.6089H258.027V35.6543ZM258.666 31.3634C258.66 31.422 258.624 31.4768 258.565 31.5167C258.505 31.5567 258.427 31.5789 258.346 31.5789C258.266 31.5789 258.188 31.5567 258.128 31.5167C258.069 31.4768 258.033 31.422 258.027 31.3634V23.2609C258.033 23.2022 258.069 23.1475 258.128 23.1075C258.188 23.0675 258.266 23.0453 258.346 23.0453C258.427 23.0453 258.505 23.0675 258.565 23.1075C258.624 23.1475 258.66 23.2022 258.666 23.2609V31.3634ZM260.157 35.6543H258.666V34.6089H260.157V35.6543ZM260.804 31.3634C260.798 31.422 260.762 31.4768 260.703 31.5167C260.643 31.5567 260.565 31.5789 260.485 31.5789C260.404 31.5789 260.326 31.5567 260.266 31.5167C260.207 31.4768 260.171 31.422 260.165 31.3634V23.2609C260.171 23.2022 260.207 23.1475 260.266 23.1075C260.326 23.0675 260.404 23.0453 260.485 23.0453C260.565 23.0453 260.643 23.0675 260.703 23.1075C260.762 23.1475 260.798 23.2022 260.804 23.2609V31.3634ZM262.296 35.6543H260.804V34.6089H262.296V35.6543ZM262.296 31.3634V23.2609C262.296 23.2111 262.318 23.1626 262.359 23.1228C262.401 23.083 262.458 23.0538 262.524 23.0397V31.5846C262.457 31.5714 262.398 31.5426 262.355 31.5027C262.313 31.4628 262.289 31.4139 262.288 31.3634H262.296ZM267.007 31.025V27.3121H269V30.0152H267.775V31.025H267.007ZM271.133 28.48V31.9888H268.395V30.4825H270.187V31.179H269.62V30.8183H268.98V31.6438H270.826V30.0152H269.62V27.3121H272.55V28.0547H272.912V28.48H271.133ZM275.215 28.9447H276.931V29.4003H275.208L275.215 28.9447ZM298.246 28.9447V29.4003H296.754V28.9447H298.246ZM296.115 29.4003H294.623V28.9447H296.115V29.4003ZM293.984 29.4003H292.492V28.9447H293.984V29.4003ZM291.853 29.4003H290.362V28.9447H291.853V29.4003ZM289.722 29.4003H288.231V28.9447H289.722V29.4003ZM287.591 29.4003H286.1V28.9447H287.591V29.4003ZM285.46 29.4003H283.969V28.9447H285.46V29.4003ZM283.331 29.4003H281.838V28.9447H283.331V29.4003ZM281.2 29.4003H279.709V28.9447H281.2V29.4003ZM279.069 29.4003H277.578V28.9447H279.069V29.4003ZM298.883 29.4003V28.9447H301.103V29.4003H298.883ZM301.42 28.4786H273.561V28.0534H302.752V28.4786H301.42ZM307.916 31.9888H305.182V28.48H303.386V28.0547H303.759V27.3121H306.689V30.0152H305.483V31.6412H307.329V30.8157H306.689V31.1764H306.12V30.4825H307.914L307.916 31.9888ZM308.556 31.025V30.0152H307.331V27.3121H309.324V31.025H308.556ZM313.845 31.5951C313.828 31.5964 313.81 31.5964 313.792 31.5951V23.037C313.81 23.0357 313.828 23.0357 313.845 23.037C313.93 23.037 314.011 23.0614 314.07 23.1049C314.13 23.1484 314.164 23.2073 314.164 23.2688V31.3713C314.161 31.4311 314.127 31.4879 314.067 31.5296C314.008 31.5713 313.929 31.5948 313.847 31.5951H313.845ZM315.657 35.6543H314.166V34.6089H315.657V35.6543ZM315.657 21.7204H314.166V20.8817H315.657V21.7204ZM315.976 31.5951C315.891 31.5951 315.81 31.5707 315.75 31.5272C315.691 31.4838 315.657 31.4248 315.657 31.3634V23.2609C315.663 23.2022 315.699 23.1475 315.759 23.1075C315.818 23.0675 315.896 23.0453 315.977 23.0453C316.058 23.0453 316.136 23.0675 316.195 23.1075C316.254 23.1475 316.291 23.2022 316.297 23.2609V31.3634C316.297 31.3939 316.288 31.4242 316.272 31.4524C316.256 31.4806 316.232 31.5062 316.203 31.5277C316.173 31.5492 316.137 31.5663 316.099 31.5778C316.06 31.5894 316.018 31.5953 315.976 31.5951ZM317.788 35.6543H316.297V34.6089H317.788V35.6543ZM317.788 21.7204H316.297V20.8817H317.788V21.7204ZM318.107 31.5951C318.022 31.5951 317.941 31.5707 317.881 31.5272C317.821 31.4838 317.788 31.4248 317.788 31.3634V23.2609C317.794 23.2022 317.83 23.1475 317.89 23.1075C317.949 23.0675 318.027 23.0453 318.108 23.0453C318.189 23.0453 318.266 23.0675 318.326 23.1075C318.385 23.1475 318.421 23.2022 318.428 23.2609V31.3634C318.428 31.3939 318.419 31.4242 318.403 31.4524C318.387 31.4806 318.363 31.5062 318.333 31.5277C318.304 31.5492 318.268 31.5663 318.229 31.5778C318.191 31.5894 318.149 31.5953 318.107 31.5951ZM319.919 35.6543H318.426V34.6089H319.917L319.919 35.6543ZM319.919 21.7204H318.426V20.8817H319.917L319.919 21.7204ZM320.238 31.5951C320.153 31.5951 320.072 31.5707 320.012 31.5272C319.952 31.4838 319.919 31.4248 319.919 31.3634V23.2609C319.925 23.2022 319.961 23.1475 320.021 23.1075C320.08 23.0675 320.158 23.0453 320.239 23.0453C320.32 23.0453 320.397 23.0675 320.457 23.1075C320.516 23.1475 320.552 23.2022 320.558 23.2609V31.3634C320.558 31.3939 320.55 31.4242 320.534 31.4524C320.518 31.4806 320.494 31.5062 320.464 31.5277C320.435 31.5492 320.399 31.5663 320.36 31.5778C320.321 31.5894 320.28 31.5953 320.238 31.5951ZM322.05 35.6543H320.558V34.6089H322.05V35.6543ZM322.05 21.7204H320.558V20.8817H322.05V21.7204ZM322.369 31.5951C322.284 31.5951 322.203 31.5707 322.143 31.5272C322.083 31.4838 322.05 31.4248 322.05 31.3634V23.2609C322.05 23.1994 322.083 23.1405 322.143 23.097C322.203 23.0535 322.284 23.0291 322.369 23.0291C322.453 23.0291 322.534 23.0535 322.594 23.097C322.654 23.1405 322.688 23.1994 322.688 23.2609V31.3634C322.688 31.4248 322.654 31.4838 322.594 31.5272C322.534 31.5707 322.453 31.5951 322.369 31.5951ZM324.181 35.6543H322.689V34.6089H324.181V35.6543ZM324.181 21.7204H322.689V20.8817H324.181V21.7204ZM324.501 31.5951C324.459 31.5953 324.418 31.5894 324.379 31.5778C324.34 31.5663 324.304 31.5492 324.275 31.5277C324.245 31.5062 324.221 31.4806 324.205 31.4524C324.189 31.4242 324.181 31.3939 324.181 31.3634V23.2609C324.187 23.2022 324.223 23.1475 324.282 23.1075C324.342 23.0675 324.42 23.0453 324.5 23.0453C324.581 23.0453 324.659 23.0675 324.719 23.1075C324.778 23.1475 324.814 23.2022 324.82 23.2609V31.3634C324.82 31.3939 324.812 31.4242 324.796 31.4524C324.78 31.4806 324.756 31.5062 324.726 31.5277C324.696 31.5492 324.661 31.5663 324.622 31.5778C324.583 31.5894 324.542 31.5953 324.5 31.5951H324.501ZM326.313 35.6543H324.822V34.6089H326.313V35.6543ZM326.313 21.7204H324.822V20.8817H326.313V21.7204ZM326.634 31.5951C326.592 31.5953 326.55 31.5894 326.511 31.5778C326.473 31.5663 326.437 31.5492 326.407 31.5277C326.378 31.5062 326.354 31.4806 326.338 31.4524C326.322 31.4242 326.313 31.3939 326.313 31.3634V23.2609C326.319 23.2022 326.356 23.1475 326.415 23.1075C326.474 23.0675 326.552 23.0453 326.633 23.0453C326.714 23.0453 326.792 23.0675 326.851 23.1075C326.911 23.1475 326.947 23.2022 326.953 23.2609V31.3634C326.953 31.394 326.945 31.4244 326.928 31.4527C326.912 31.4809 326.888 31.5066 326.858 31.5282C326.828 31.5497 326.793 31.5667 326.754 31.5782C326.714 31.5897 326.673 31.5954 326.63 31.5951H326.634ZM328.446 35.6543H326.942V34.6089H328.433L328.446 35.6543ZM328.446 21.7204H326.942V20.8817H328.433L328.446 21.7204ZM328.767 31.5951C328.725 31.5953 328.683 31.5894 328.644 31.5778C328.605 31.5663 328.57 31.5492 328.54 31.5277C328.51 31.5062 328.487 31.4806 328.47 31.4524C328.454 31.4242 328.446 31.3939 328.446 31.3634V23.2609C328.452 23.2022 328.488 23.1475 328.548 23.1075C328.607 23.0675 328.685 23.0453 328.766 23.0453C328.847 23.0453 328.925 23.0675 328.984 23.1075C329.043 23.1475 329.08 23.2022 329.086 23.2609V31.3634C329.086 31.3946 329.077 31.4255 329.06 31.4542C329.043 31.483 329.019 31.5089 328.988 31.5306C328.957 31.5522 328.92 31.5691 328.88 31.5802C328.84 31.5913 328.797 31.5963 328.754 31.5951H328.767ZM330.579 35.6543H329.087V34.6089H330.566L330.579 35.6543ZM330.579 21.7204H329.087V20.8817H330.566L330.579 21.7204ZM330.898 31.5951C330.813 31.5951 330.732 31.5707 330.672 31.5272C330.612 31.4838 330.579 31.4248 330.579 31.3634V24.4563C330.575 24.4244 330.581 24.3922 330.596 24.3619C330.61 24.3317 330.633 24.3039 330.663 24.2804C330.693 24.2568 330.73 24.2381 330.77 24.2253C330.811 24.2124 330.854 24.2058 330.899 24.2058C330.943 24.2058 330.986 24.2124 331.027 24.2253C331.067 24.2381 331.104 24.2568 331.134 24.2804C331.164 24.3039 331.187 24.3317 331.201 24.3619C331.216 24.3922 331.222 24.4244 331.218 24.4563V31.3634C331.218 31.3944 331.21 31.4251 331.193 31.4536C331.177 31.4822 331.152 31.508 331.122 31.5296C331.091 31.5512 331.055 31.5681 331.015 31.5794C330.975 31.5906 330.933 31.596 330.89 31.5951H330.898ZM332.958 35.6543H331.218V34.6089H332.958V35.6543ZM333.349 31.3634C333.343 31.422 333.307 31.4768 333.248 31.5167C333.188 31.5567 333.11 31.5789 333.029 31.5789C332.949 31.5789 332.871 31.5567 332.811 31.5167C332.752 31.4768 332.716 31.422 332.71 31.3634V25.9007C332.716 25.8421 332.752 25.7873 332.811 25.7473C332.871 25.7074 332.949 25.6851 333.029 25.6851C333.11 25.6851 333.188 25.7074 333.248 25.7473C333.307 25.7873 333.343 25.8421 333.349 25.9007V31.3634Z"/>
</mask>
<path d="M343.534 28.6222C343.562 28.6178 343.588 28.6121 343.614 28.605C350.402 28.1864 354.066 26.1443 354.227 26.0534L353.178 25.0778C352.901 25.2205 352.614 25.3524 352.317 25.4728V25.1068C352.307 24.9474 352.213 24.797 352.054 24.6868C351.895 24.5767 351.684 24.5152 351.465 24.5152C351.245 24.5152 351.034 24.5767 350.875 24.6868C350.716 24.797 350.622 24.9474 350.612 25.1068V26.0929C350.286 26.1956 349.931 26.3009 349.547 26.4036V25.7848C349.552 25.7011 349.534 25.6174 349.493 25.5389C349.453 25.4604 349.391 25.3886 349.311 25.328C349.232 25.2673 349.136 25.2191 349.03 25.1861C348.924 25.1531 348.81 25.1361 348.694 25.1361C348.579 25.1361 348.465 25.1531 348.358 25.1861C348.252 25.2191 348.157 25.2673 348.077 25.328C347.997 25.3886 347.935 25.4604 347.895 25.5389C347.854 25.6174 347.836 25.7011 347.842 25.7848V26.8013C347.543 26.8618 347.233 26.9193 346.91 26.9737V26.3009C346.9 26.1416 346.806 25.9912 346.647 25.881C346.488 25.7709 346.277 25.7094 346.058 25.7094C345.838 25.7094 345.627 25.7709 345.468 25.881C345.31 25.9912 345.215 26.1416 345.205 26.3009V27.2134C344.888 27.2489 344.564 27.2818 344.228 27.3108V26.6169C344.228 26.4528 344.139 26.2954 343.979 26.1794C343.819 26.0633 343.603 25.9981 343.377 25.9981C343.151 25.9981 342.934 26.0633 342.775 26.1794C342.615 26.2954 342.525 26.4528 342.525 26.6169V27.4069H342.371C337.067 27.5741 333.822 24.2984 332.695 22.9198C332.595 22.7553 332.498 22.5867 332.403 22.4129H333.146V21.7033H331.211V20.8646H333.146V20.1549H323.45V18.3788H322.485C323.528 18.0424 324.54 17.6572 325.514 17.2254L329.397 15.5007V13.6942C329.397 13.6942 324.882 15.0741 319.904 14.7633C319.932 14.7599 319.958 14.7546 319.984 14.7475C326.772 14.3289 330.436 12.2868 330.597 12.1959L329.548 11.219C329.272 11.3653 328.984 11.4998 328.687 11.6219V11.2598C328.677 11.1004 328.583 10.9501 328.424 10.8399C328.265 10.7297 328.054 10.6682 327.834 10.6682C327.615 10.6682 327.404 10.7297 327.245 10.8399C327.086 10.9501 326.992 11.1004 326.982 11.2598V12.2459C326.656 12.3486 326.301 12.454 325.916 12.5567V11.9379C325.922 11.8541 325.904 11.7704 325.863 11.6919C325.823 11.6134 325.761 11.5416 325.681 11.481C325.601 11.4204 325.506 11.3721 325.4 11.3391C325.294 11.3062 325.179 11.2892 325.064 11.2892C324.949 11.2892 324.834 11.3062 324.728 11.3391C324.622 11.3721 324.526 11.4204 324.447 11.481C324.367 11.5416 324.305 11.6134 324.265 11.6919C324.224 11.7704 324.206 11.8541 324.211 11.9379V12.9543C323.912 13.0149 323.601 13.0724 323.28 13.1268V12.4448C323.285 12.361 323.267 12.2773 323.227 12.1988C323.186 12.1203 323.124 12.0485 323.045 11.9879C322.965 11.9273 322.869 11.879 322.763 11.846C322.657 11.8131 322.543 11.7961 322.427 11.7961C322.312 11.7961 322.198 11.8131 322.092 11.846C321.986 11.879 321.89 11.9273 321.81 11.9879C321.731 12.0485 321.669 12.1203 321.628 12.1988C321.588 12.2773 321.57 12.361 321.575 12.4448V13.3664C321.258 13.4033 320.934 13.4362 320.598 13.4651V12.7713C320.598 12.6072 320.509 12.4498 320.349 12.3337C320.189 12.2177 319.973 12.1525 319.747 12.1525C319.521 12.1525 319.304 12.2177 319.144 12.3337C318.985 12.4498 318.895 12.6072 318.895 12.7713V13.5613H318.741C313.443 13.7272 310.199 10.4619 309.069 9.08473C308.967 8.91751 308.867 8.74768 308.773 8.57256H309.516V7.8629H307.581V7.02421H309.516V6.31455H305.55V5.1862H301.444V2.83338H299.53V0.718881H294.701V3.28894H298.017V1.62077H295.937V2.08554H297.378V2.82417H295.339V1.18234H298.891V3.65101H294.083V0.718881H288.925V2.23827H288.546V0.463455H294.065V0H282.222V0.463455H287.908V2.23432H287.345V0.718881H282.186V3.65101H277.377V1.18234H280.928V2.82417H278.892V2.08554H280.33V1.62077H278.254V3.28894H281.57V0.718881H276.75V2.83338H274.827V5.18225H270.72V6.31059H266.797V7.02026H268.596V7.85895H266.804V8.56861H267.547C267.451 8.74372 267.353 8.91489 267.251 9.08078C266.121 10.4632 262.877 13.7298 257.577 13.5573H257.425V12.7673C257.425 12.6032 257.335 12.4458 257.176 12.3298C257.016 12.2137 256.799 12.1485 256.573 12.1485C256.347 12.1485 256.131 12.2137 255.971 12.3298C255.811 12.4458 255.722 12.6032 255.722 12.7673V13.4612C255.387 13.4322 255.062 13.3993 254.745 13.3624V12.4448C254.75 12.361 254.732 12.2773 254.692 12.1988C254.651 12.1203 254.589 12.0485 254.51 11.9879C254.43 11.9273 254.334 11.879 254.228 11.846C254.122 11.8131 254.008 11.7961 253.893 11.7961C253.777 11.7961 253.663 11.8131 253.557 11.846C253.451 11.879 253.355 11.9273 253.275 11.9879C253.196 12.0485 253.134 12.1203 253.093 12.1988C253.053 12.2773 253.035 12.361 253.04 12.4448V13.1176C252.717 13.064 252.406 13.0065 252.107 12.9451V11.9286C252.107 11.7645 252.017 11.6071 251.857 11.4911C251.698 11.375 251.481 11.3098 251.255 11.3098C251.029 11.3098 250.813 11.375 250.653 11.4911C250.493 11.6071 250.404 11.7645 250.404 11.9286V12.5475C250.018 12.4448 249.662 12.3394 249.338 12.2367V11.2598C249.328 11.1004 249.234 10.9501 249.075 10.8399C248.916 10.7297 248.705 10.6682 248.486 10.6682C248.266 10.6682 248.055 10.7297 247.896 10.8399C247.737 10.9501 247.643 11.1004 247.633 11.2598V11.6258C247.337 11.5057 247.05 11.3738 246.774 11.2308L245.723 12.2065C245.883 12.2973 249.546 14.3394 256.336 14.7581C256.362 14.7652 256.389 14.7705 256.416 14.7739C251.438 15.0846 246.923 13.7048 246.923 13.7048V15.5112L250.806 17.236C251.78 17.6677 252.792 18.053 253.835 18.3893H253.013V20.1826H243.319V20.8922H245.252V21.7309H243.31V22.4406H244.051C243.956 22.6144 243.859 22.7829 243.759 22.9475C242.632 24.326 239.387 27.6018 234.083 27.4346H233.931V26.6446C233.921 26.4852 233.826 26.3348 233.668 26.2247C233.509 26.1145 233.298 26.053 233.078 26.053C232.859 26.053 232.648 26.1145 232.489 26.2247C232.33 26.3348 232.236 26.4852 232.226 26.6446V27.3226C231.89 27.2937 231.566 27.2608 231.249 27.2252V26.3128C231.239 26.1534 231.145 26.003 230.986 25.8929C230.827 25.7827 230.616 25.7212 230.396 25.7212C230.177 25.7212 229.966 25.7827 229.807 25.8929C229.648 26.003 229.554 26.1534 229.544 26.3128V26.9856C229.221 26.932 228.911 26.8746 228.613 26.8131V25.7967C228.618 25.7129 228.6 25.6293 228.559 25.5507C228.519 25.4722 228.457 25.4005 228.377 25.3398C228.298 25.2792 228.202 25.2309 228.096 25.198C227.99 25.165 227.875 25.148 227.76 25.148C227.645 25.148 227.53 25.165 227.424 25.198C227.318 25.2309 227.222 25.2792 227.143 25.3398C227.063 25.4005 227.001 25.4722 226.961 25.5507C226.92 25.6293 226.902 25.7129 226.907 25.7967V26.4155C226.523 26.3128 226.168 26.2075 225.842 26.1048V25.1186C225.842 24.9545 225.752 24.7971 225.593 24.681C225.433 24.565 225.216 24.4998 224.99 24.4998C224.764 24.4998 224.548 24.565 224.388 24.681C224.228 24.7971 224.139 24.9545 224.139 25.1186V25.4794C223.842 25.3587 223.554 25.2269 223.276 25.0844L222.227 26.06C222.388 26.1508 226.052 28.1929 232.84 28.6116C232.866 28.6185 232.893 28.6242 232.92 28.6287C227.942 28.9381 223.428 27.5583 223.428 27.5583V29.3647L227.31 31.0895C231.459 32.9312 236.227 33.9057 241.09 33.9058H237.359V34.6141H239.03V55.48H238.39V56.8151H237.468V59.8842H245.064V56.8151H244.143V55.4708H243.503V36.3639H262.517V55.5867H261.877V56.931H260.957V59.9987H268.552V56.931H267.63V55.5867H266.992V31.4924H267.755V32.4575H271.767V28.9447H274.576V30.3246H272.959V29.7979H273.456V30.0046H274.095V29.3345H272.32V30.792H275.219V29.8703H301.107V30.792H304.006V29.3318H302.23V30.002H302.868V29.7953H303.366V30.3219H301.75V28.9447H304.555V32.4575H308.568V31.4937H309.331V55.588H308.692V56.9323H307.771V60H315.367V56.9323H314.439V55.588H313.8V36.3652H332.956V55.4761H332.316V56.8151H331.396V59.8842H338.992V56.8151H338.07V55.4708H337.432V34.6089H339.101V33.9058H335.37C340.229 33.9041 344.994 32.9292 349.141 31.0882L353.024 29.3634V27.5517C353.024 27.5517 348.505 28.9316 343.534 28.6222ZM305.845 26.6025V25.4399H307.318V25.8349H306.91V25.6439H306.271V26.3023H307.958V25.9797H309.324V26.6077L305.845 26.6025ZM266.996 26.6025V25.9744H268.446V26.297H270.131V25.6387H269.502V25.8296H269.094V25.4346H270.569V26.5972L266.996 26.6025ZM262.285 20.8817V21.7204H260.804V20.8817H262.285ZM272.847 7.02421V7.8629H271.356V7.02421H272.847ZM305.45 21.7928V20.7474H306.941V21.7928H305.45ZM307.954 24.0837V23.5992H309.32V25.5057H307.954V24.9725H306.889V24.0837H307.954ZM306.249 24.9725H305.198V25.5057H303.759V23.6032H305.198V24.0877H306.246L306.249 24.9725ZM270.152 24.9725V24.0837H271.2V23.5992H272.55V25.5057H271.2V24.9725H270.152ZM268.449 24.9725V25.5057H267V23.6032H268.449V24.0877H269.515V24.9764L268.449 24.9725ZM303.319 21.7928V20.7474H304.81V21.7928H303.319ZM302.679 21.7928H301.188V20.7474H302.679V21.7928ZM300.549 21.7928H299.057V20.7474H300.549V21.7928ZM298.42 21.7928H296.926V20.7474H298.42V21.7928ZM296.289 21.7928H294.797V20.7474H296.289V21.7928ZM294.158 21.7928H292.666V20.7474H294.158V21.7928ZM292.027 21.7928H290.536V20.7474H292.027V21.7928ZM289.896 21.7928H288.405V20.7474H289.896V21.7928ZM287.765 21.7928H286.274V20.7474H287.765V21.7928ZM285.629 21.7928H284.137V20.7474H285.629V21.7928ZM283.498 21.7928H282.005V20.7474H283.496L283.498 21.7928ZM281.369 21.7928H279.877V20.7474H281.369V21.7928ZM279.238 21.7928H277.746V20.7474H279.238V21.7928ZM277.112 21.7928H275.621V20.7474H277.112V21.7928ZM274.981 21.7928H273.488V20.7474H274.98L274.981 21.7928ZM272.85 21.7928H271.359V20.7474H272.85V21.7928ZM270.72 21.7928H269.228V20.7474H270.72V21.7928ZM268.596 21.7928H267V20.7474H268.596V21.7928ZM270.569 22.5025V23.6203H269.094V23.2253H269.502V23.4162H270.142V22.7579H268.456V23.1292H267.007V22.4972L270.569 22.5025ZM272.562 23.1345H271.212V22.5025H272.562V23.1345ZM305.214 23.1345H303.776V22.5025H305.198L305.214 23.1345ZM286.274 9.40336V17.5059C286.268 17.5645 286.231 17.6193 286.172 17.6592C286.113 17.6992 286.035 17.7214 285.954 17.7214C285.873 17.7214 285.795 17.6992 285.736 17.6592C285.676 17.6193 285.64 17.5645 285.634 17.5059V9.40336C285.64 9.34474 285.676 9.28997 285.736 9.25C285.795 9.21003 285.873 9.18781 285.954 9.18781C286.035 9.18781 286.113 9.21003 286.172 9.25C286.231 9.28997 286.268 9.34474 286.274 9.40336ZM284.143 9.40336V17.5059C284.137 17.5645 284.1 17.6193 284.041 17.6592C283.982 17.6992 283.904 17.7214 283.823 17.7214C283.742 17.7214 283.664 17.6992 283.605 17.6592C283.546 17.6193 283.509 17.5645 283.503 17.5059V9.40336C283.509 9.34474 283.546 9.28997 283.605 9.25C283.664 9.21003 283.742 9.18781 283.823 9.18781C283.904 9.18781 283.982 9.21003 284.041 9.25C284.1 9.28997 284.137 9.34474 284.143 9.40336ZM282.012 9.40336V17.5059C282.012 17.5673 281.978 17.6263 281.919 17.6697C281.859 17.7132 281.778 17.7376 281.693 17.7376C281.608 17.7376 281.527 17.7132 281.468 17.6697C281.408 17.6263 281.374 17.5673 281.374 17.5059V9.40336C281.374 9.3419 281.408 9.28296 281.468 9.2395C281.527 9.19604 281.608 9.17163 281.693 9.17163C281.778 9.17163 281.859 9.19604 281.919 9.2395C281.978 9.28296 282.012 9.3419 282.012 9.40336ZM279.883 9.40336V17.5059C279.877 17.5645 279.84 17.6193 279.781 17.6592C279.722 17.6992 279.644 17.7214 279.563 17.7214C279.482 17.7214 279.404 17.6992 279.345 17.6592C279.286 17.6193 279.249 17.5645 279.243 17.5059V9.40336C279.249 9.34474 279.286 9.28997 279.345 9.25C279.404 9.21003 279.482 9.18781 279.563 9.18781C279.644 9.18781 279.722 9.21003 279.781 9.25C279.84 9.28997 279.877 9.34474 279.883 9.40336ZM277.752 9.40336V17.5059C277.746 17.5645 277.71 17.6193 277.65 17.6592C277.591 17.6992 277.513 17.7214 277.432 17.7214C277.351 17.7214 277.273 17.6992 277.214 17.6592C277.155 17.6193 277.118 17.5645 277.112 17.5059V9.40336C277.118 9.34474 277.155 9.28997 277.214 9.25C277.273 9.21003 277.351 9.18781 277.432 9.18781C277.513 9.18781 277.591 9.21003 277.65 9.25C277.71 9.28997 277.746 9.34474 277.752 9.40336ZM275.621 9.40336V17.5059C275.615 17.5645 275.579 17.6193 275.519 17.6592C275.46 17.6992 275.382 17.7214 275.301 17.7214C275.22 17.7214 275.142 17.6992 275.083 17.6592C275.024 17.6193 274.987 17.5645 274.981 17.5059V9.40336C274.987 9.34474 275.024 9.28997 275.083 9.25C275.142 9.21003 275.22 9.18781 275.301 9.18781C275.382 9.18781 275.46 9.21003 275.519 9.25C275.579 9.28997 275.615 9.34474 275.621 9.40336ZM273.49 9.40336V17.5059C273.484 17.5645 273.448 17.6193 273.388 17.6592C273.329 17.6992 273.251 17.7214 273.17 17.7214C273.089 17.7214 273.012 17.6992 272.952 17.6592C272.893 17.6193 272.857 17.5645 272.85 17.5059V9.40336C272.857 9.34474 272.893 9.28997 272.952 9.25C273.012 9.21003 273.089 9.18781 273.17 9.18781C273.251 9.18781 273.329 9.21003 273.388 9.25C273.448 9.28997 273.484 9.34474 273.49 9.40336ZM271.359 9.40336V17.5059C271.353 17.5645 271.317 17.6193 271.258 17.6592C271.198 17.6992 271.12 17.7214 271.039 17.7214C270.959 17.7214 270.881 17.6992 270.821 17.6592C270.762 17.6193 270.726 17.5645 270.72 17.5059V9.40336C270.726 9.34474 270.762 9.28997 270.821 9.25C270.881 9.21003 270.959 9.18781 271.039 9.18781C271.12 9.18781 271.198 9.21003 271.258 9.25C271.317 9.28997 271.353 9.34474 271.359 9.40336ZM307.26 10.3658C307.345 10.3658 307.427 10.3904 307.487 10.4341C307.547 10.4778 307.581 10.537 307.581 10.5988V17.5059C307.575 17.5645 307.539 17.6193 307.479 17.6592C307.42 17.6992 307.342 17.7214 307.261 17.7214C307.18 17.7214 307.102 17.6992 307.043 17.6592C306.984 17.6193 306.947 17.5645 306.941 17.5059V10.6015C306.941 10.5707 306.948 10.5402 306.964 10.5116C306.98 10.483 307.003 10.457 307.033 10.4351C307.062 10.4131 307.098 10.3957 307.137 10.3838C307.176 10.3719 307.218 10.3658 307.26 10.3658ZM305.448 9.40336V17.5059C305.442 17.5645 305.406 17.6193 305.347 17.6592C305.287 17.6992 305.209 17.7214 305.128 17.7214C305.048 17.7214 304.97 17.6992 304.91 17.6592C304.851 17.6193 304.815 17.5645 304.809 17.5059V9.40336C304.815 9.34474 304.851 9.28997 304.91 9.25C304.97 9.21003 305.048 9.18781 305.128 9.18781C305.209 9.18781 305.287 9.21003 305.347 9.25C305.406 9.28997 305.442 9.34474 305.448 9.40336ZM303.317 9.40336V17.5059C303.311 17.5645 303.275 17.6193 303.216 17.6592C303.156 17.6992 303.078 17.7214 302.998 17.7214C302.917 17.7214 302.839 17.6992 302.779 17.6592C302.72 17.6193 302.684 17.5645 302.678 17.5059V9.40336C302.684 9.34474 302.72 9.28997 302.779 9.25C302.839 9.21003 302.917 9.18781 302.998 9.18781C303.078 9.18781 303.156 9.21003 303.216 9.25C303.275 9.28997 303.311 9.34474 303.317 9.40336ZM301.186 9.40336V17.5059C301.18 17.5645 301.144 17.6193 301.085 17.6592C301.025 17.6992 300.947 17.7214 300.867 17.7214C300.786 17.7214 300.708 17.6992 300.649 17.6592C300.589 17.6193 300.553 17.5645 300.547 17.5059V9.40336C300.553 9.34474 300.589 9.28997 300.649 9.25C300.708 9.21003 300.786 9.18781 300.867 9.18781C300.947 9.18781 301.025 9.21003 301.085 9.25C301.144 9.28997 301.18 9.34474 301.186 9.40336ZM299.056 9.40336V17.5059C299.056 17.5673 299.022 17.6263 298.962 17.6697C298.902 17.7132 298.821 17.7376 298.737 17.7376C298.652 17.7376 298.571 17.7132 298.511 17.6697C298.451 17.6263 298.418 17.5673 298.418 17.5059V9.40336C298.418 9.3419 298.451 9.28296 298.511 9.2395C298.571 9.19604 298.652 9.17163 298.737 9.17163C298.821 9.17163 298.902 9.19604 298.962 9.2395C299.022 9.28296 299.056 9.3419 299.056 9.40336ZM296.925 9.40336V17.5059C296.925 17.5673 296.891 17.6263 296.831 17.6697C296.771 17.7132 296.69 17.7376 296.606 17.7376C296.521 17.7376 296.44 17.7132 296.38 17.6697C296.32 17.6263 296.287 17.5673 296.287 17.5059V9.40336C296.287 9.3419 296.32 9.28296 296.38 9.2395C296.44 9.19604 296.521 9.17163 296.606 9.17163C296.69 9.17163 296.771 9.19604 296.831 9.2395C296.891 9.28296 296.925 9.3419 296.925 9.40336ZM294.796 9.40336V17.5059C294.789 17.5645 294.753 17.6193 294.694 17.6592C294.635 17.6992 294.557 17.7214 294.476 17.7214C294.395 17.7214 294.317 17.6992 294.258 17.6592C294.198 17.6193 294.162 17.5645 294.156 17.5059V9.40336C294.162 9.34474 294.198 9.28997 294.258 9.25C294.317 9.21003 294.395 9.18781 294.476 9.18781C294.557 9.18781 294.635 9.21003 294.694 9.25C294.753 9.28997 294.789 9.34474 294.796 9.40336ZM292.665 9.40336V17.5059C292.659 17.5645 292.622 17.6193 292.563 17.6592C292.504 17.6992 292.426 17.7214 292.345 17.7214C292.264 17.7214 292.186 17.6992 292.127 17.6592C292.067 17.6193 292.031 17.5645 292.025 17.5059V9.40336C292.031 9.34474 292.067 9.28997 292.127 9.25C292.186 9.21003 292.264 9.18781 292.345 9.18781C292.426 9.18781 292.504 9.21003 292.563 9.25C292.622 9.28997 292.659 9.34474 292.665 9.40336ZM290.534 9.40336V17.5059C290.528 17.5645 290.491 17.6193 290.432 17.6592C290.373 17.6992 290.295 17.7214 290.214 17.7214C290.133 17.7214 290.055 17.6992 289.996 17.6592C289.936 17.6193 289.9 17.5645 289.894 17.5059V9.40336C289.9 9.34474 289.936 9.28997 289.996 9.25C290.055 9.21003 290.133 9.18781 290.214 9.18781C290.295 9.18781 290.373 9.21003 290.432 9.25C290.491 9.28997 290.528 9.34474 290.534 9.40336ZM287.763 9.40336C287.769 9.34474 287.806 9.28997 287.865 9.25C287.924 9.21003 288.002 9.18781 288.083 9.18781C288.164 9.18781 288.242 9.21003 288.301 9.25C288.36 9.28997 288.397 9.34474 288.403 9.40336V17.5059C288.397 17.5645 288.36 17.6193 288.301 17.6592C288.242 17.6992 288.164 17.7214 288.083 17.7214C288.002 17.7214 287.924 17.6992 287.865 17.6592C287.806 17.6193 287.769 17.5645 287.763 17.5059V9.40336ZM309.07 17.5059V12.0498C309.076 11.9912 309.113 11.9364 309.172 11.8964C309.231 11.8564 309.309 11.8342 309.39 11.8342C309.471 11.8342 309.549 11.8564 309.608 11.8964C309.668 11.9364 309.704 11.9912 309.71 12.0498V17.5125C309.704 17.5711 309.668 17.6258 309.608 17.6658C309.549 17.7058 309.471 17.728 309.39 17.728C309.309 17.728 309.231 17.7058 309.172 17.6658C309.113 17.6258 309.076 17.5711 309.07 17.5125V17.5059ZM279.241 7.02421V7.8629H277.75V7.02421H279.241ZM279.881 7.02421H281.372V7.8629H279.881V7.02421ZM282.01 7.02421H283.501V7.8629H282.005L282.01 7.02421ZM284.141 7.02421H285.629V7.8629H284.137L284.141 7.02421ZM286.272 7.02421H287.763V7.8629H286.272V7.02421ZM296.925 7.8629V7.02421H298.418V7.8629H296.925ZM296.287 7.8629H294.796V7.02421H296.287V7.8629ZM294.156 7.8629H292.665V7.02421H294.156V7.8629ZM292.025 7.8629H290.534V7.02421H292.025V7.8629ZM289.894 7.8629H288.403V7.02421H289.894V7.8629ZM303.317 7.8629V7.02421H304.809V7.8629H303.317ZM302.678 7.8629H301.186V7.02421H302.678V7.8629ZM300.547 7.8629H299.056V7.02421H300.547V7.8629ZM277.11 7.8629H275.619V7.02421H277.112L277.11 7.8629ZM274.98 7.8629H273.488V7.02421H274.98V7.8629ZM269.228 10.6015V17.5085C269.222 17.5671 269.186 17.6219 269.127 17.6619C269.067 17.7018 268.989 17.724 268.908 17.724C268.828 17.724 268.75 17.7018 268.69 17.6619C268.631 17.6219 268.595 17.5671 268.589 17.5085V10.6015C268.585 10.5695 268.591 10.5374 268.606 10.5071C268.62 10.4768 268.643 10.449 268.673 10.4255C268.703 10.402 268.74 10.3832 268.78 10.3704C268.821 10.3576 268.864 10.3509 268.908 10.3509C268.953 10.3509 268.996 10.3576 269.037 10.3704C269.077 10.3832 269.114 10.402 269.144 10.4255C269.174 10.449 269.197 10.4768 269.211 10.5071C269.226 10.5374 269.232 10.5695 269.228 10.6015ZM267.097 12.0498V17.5125C267.097 17.5739 267.064 17.6329 267.004 17.6763C266.944 17.7198 266.863 17.7442 266.778 17.7442C266.694 17.7442 266.613 17.7198 266.553 17.6763C266.493 17.6329 266.46 17.5739 266.46 17.5125V12.0498C266.46 11.9883 266.493 11.9294 266.553 11.8859C266.613 11.8425 266.694 11.818 266.778 11.818C266.863 11.818 266.944 11.8425 267.004 11.8859C267.064 11.9294 267.097 11.9883 267.097 12.0498ZM271.2 25.981H272.55V26.609H271.2V25.981ZM303.763 25.981H305.198V26.609H303.759L303.763 25.981ZM309.32 23.145H307.954V22.7671H306.267V23.4254H306.907V23.2345H307.315V23.6295H305.841V22.5117H309.32V23.145ZM309.32 21.8033H307.581V20.7579H309.32V21.8033ZM306.941 7.8629H305.45V7.02421H306.941V7.8629ZM299.53 4.11578V3.30078H300.799V5.65097H304.906V6.30928H299.815V4.5213H296.95V4.11578H299.53ZM288.925 2.70172V4.11446H292.393V1.59575H289.939V2.93081H290.579V2.06052H291.755V3.65101H289.564V1.18234H293.444V4.11578H296.319V4.5213H288.546V2.70172H288.925ZM282.826 4.11446V1.18234H286.716V3.65101H284.525V2.06052H285.701V2.93081H286.339V1.59575H283.886V4.11578H287.354V2.70172H287.917V4.51998H279.964V4.11446H282.826ZM271.359 5.65097H275.467V3.30078H276.735V4.11578H279.31V4.5213H276.628V6.31455H271.359V5.65097ZM269.228 7.02421H270.72V7.8629H269.228V7.02421ZM260.157 20.8817V21.7204H258.666V20.8817H260.157ZM258.027 20.8817V21.7204H256.535V20.8817H258.027ZM255.897 20.8817V21.7204H254.406V20.8817H255.897ZM252.274 20.8817H253.765V21.7204H252.274V20.8817ZM250.143 20.8817H251.634V21.7204H250.143V20.8817ZM248.012 20.8817H249.503V21.7204H248.012V20.8817ZM245.881 20.8817H247.372V21.7204H245.881V20.8817ZM243.431 31.5951C243.389 31.5953 243.347 31.5894 243.308 31.5778C243.269 31.5663 243.234 31.5492 243.204 31.5277C243.175 31.5062 243.151 31.4806 243.135 31.4524C243.119 31.4242 243.11 31.3939 243.11 31.3634V25.9007C243.116 25.8421 243.153 25.7873 243.212 25.7473C243.271 25.7074 243.349 25.6851 243.43 25.6851C243.511 25.6851 243.589 25.7074 243.648 25.7473C243.707 25.7873 243.744 25.8421 243.75 25.9007V31.3634C243.75 31.4246 243.717 31.4833 243.657 31.5268C243.598 31.5702 243.517 31.5948 243.433 31.5951H243.431ZM245.243 35.6543H243.503V34.6089H245.243V35.6543ZM245.883 31.3634C245.877 31.422 245.84 31.4768 245.781 31.5167C245.722 31.5567 245.644 31.5789 245.563 31.5789C245.482 31.5789 245.404 31.5567 245.345 31.5167C245.285 31.4768 245.249 31.422 245.243 31.3634V24.4563C245.24 24.4244 245.245 24.3922 245.26 24.3619C245.275 24.3317 245.298 24.3039 245.328 24.2804C245.358 24.2568 245.394 24.2381 245.435 24.2253C245.475 24.2124 245.519 24.2058 245.563 24.2058C245.607 24.2058 245.651 24.2124 245.691 24.2253C245.732 24.2381 245.768 24.2568 245.798 24.2804C245.828 24.3039 245.851 24.3317 245.866 24.3619C245.88 24.3922 245.886 24.4244 245.883 24.4563V31.3634ZM247.374 35.6543H245.883V34.6089H247.374V35.6543ZM248.014 31.3634C248.007 31.422 247.971 31.4768 247.912 31.5167C247.852 31.5567 247.775 31.5789 247.694 31.5789C247.613 31.5789 247.535 31.5567 247.476 31.5167C247.416 31.4768 247.38 31.422 247.374 31.3634V23.2609C247.38 23.2022 247.416 23.1475 247.476 23.1075C247.535 23.0675 247.613 23.0453 247.694 23.0453C247.775 23.0453 247.852 23.0675 247.912 23.1075C247.971 23.1475 248.007 23.2022 248.014 23.2609V31.3634ZM249.505 35.6543H248.014V34.6089H249.505V35.6543ZM250.144 31.3634C250.138 31.422 250.102 31.4768 250.043 31.5167C249.983 31.5567 249.905 31.5789 249.825 31.5789C249.744 31.5789 249.666 31.5567 249.607 31.5167C249.547 31.4768 249.511 31.422 249.505 31.3634V23.2609C249.511 23.2022 249.547 23.1475 249.607 23.1075C249.666 23.0675 249.744 23.0453 249.825 23.0453C249.905 23.0453 249.983 23.0675 250.043 23.1075C250.102 23.1475 250.138 23.2022 250.144 23.2609V31.3634ZM251.636 35.6543H250.144V34.6089H251.636V35.6543ZM252.275 31.3634C252.269 31.422 252.233 31.4768 252.174 31.5167C252.114 31.5567 252.036 31.5789 251.955 31.5789C251.875 31.5789 251.797 31.5567 251.737 31.5167C251.678 31.4768 251.642 31.422 251.636 31.3634V23.2609C251.642 23.2022 251.678 23.1475 251.737 23.1075C251.797 23.0675 251.875 23.0453 251.955 23.0453C252.036 23.0453 252.114 23.0675 252.174 23.1075C252.233 23.1475 252.269 23.2022 252.275 23.2609V31.3634ZM253.767 35.6543H252.275V34.6089H253.767V35.6543ZM254.406 31.3634C254.4 31.422 254.364 31.4768 254.305 31.5167C254.245 31.5567 254.167 31.5789 254.086 31.5789C254.006 31.5789 253.928 31.5567 253.868 31.5167C253.809 31.4768 253.773 31.422 253.767 31.3634V23.2609C253.773 23.2022 253.809 23.1475 253.868 23.1075C253.928 23.0675 254.006 23.0453 254.086 23.0453C254.167 23.0453 254.245 23.0675 254.305 23.1075C254.364 23.1475 254.4 23.2022 254.406 23.2609V31.3634ZM255.897 35.6543H254.406V34.6089H255.897V35.6543ZM256.535 31.3634C256.535 31.4248 256.502 31.4838 256.442 31.5272C256.382 31.5707 256.301 31.5951 256.216 31.5951C256.132 31.5951 256.051 31.5707 255.991 31.5272C255.931 31.4838 255.897 31.4248 255.897 31.3634V23.2609C255.897 23.1994 255.931 23.1405 255.991 23.097C256.051 23.0535 256.132 23.0291 256.216 23.0291C256.301 23.0291 256.382 23.0535 256.442 23.097C256.502 23.1405 256.535 23.1994 256.535 23.2609V31.3634ZM258.027 35.6543H256.535V34.6089H258.027V35.6543ZM258.666 31.3634C258.66 31.422 258.624 31.4768 258.565 31.5167C258.505 31.5567 258.427 31.5789 258.346 31.5789C258.266 31.5789 258.188 31.5567 258.128 31.5167C258.069 31.4768 258.033 31.422 258.027 31.3634V23.2609C258.033 23.2022 258.069 23.1475 258.128 23.1075C258.188 23.0675 258.266 23.0453 258.346 23.0453C258.427 23.0453 258.505 23.0675 258.565 23.1075C258.624 23.1475 258.66 23.2022 258.666 23.2609V31.3634ZM260.157 35.6543H258.666V34.6089H260.157V35.6543ZM260.804 31.3634C260.798 31.422 260.762 31.4768 260.703 31.5167C260.643 31.5567 260.565 31.5789 260.485 31.5789C260.404 31.5789 260.326 31.5567 260.266 31.5167C260.207 31.4768 260.171 31.422 260.165 31.3634V23.2609C260.171 23.2022 260.207 23.1475 260.266 23.1075C260.326 23.0675 260.404 23.0453 260.485 23.0453C260.565 23.0453 260.643 23.0675 260.703 23.1075C260.762 23.1475 260.798 23.2022 260.804 23.2609V31.3634ZM262.296 35.6543H260.804V34.6089H262.296V35.6543ZM262.296 31.3634V23.2609C262.296 23.2111 262.318 23.1626 262.359 23.1228C262.401 23.083 262.458 23.0538 262.524 23.0397V31.5846C262.457 31.5714 262.398 31.5426 262.355 31.5027C262.313 31.4628 262.289 31.4139 262.288 31.3634H262.296ZM267.007 31.025V27.3121H269V30.0152H267.775V31.025H267.007ZM271.133 28.48V31.9888H268.395V30.4825H270.187V31.179H269.62V30.8183H268.98V31.6438H270.826V30.0152H269.62V27.3121H272.55V28.0547H272.912V28.48H271.133ZM275.215 28.9447H276.931V29.4003H275.208L275.215 28.9447ZM298.246 28.9447V29.4003H296.754V28.9447H298.246ZM296.115 29.4003H294.623V28.9447H296.115V29.4003ZM293.984 29.4003H292.492V28.9447H293.984V29.4003ZM291.853 29.4003H290.362V28.9447H291.853V29.4003ZM289.722 29.4003H288.231V28.9447H289.722V29.4003ZM287.591 29.4003H286.1V28.9447H287.591V29.4003ZM285.46 29.4003H283.969V28.9447H285.46V29.4003ZM283.331 29.4003H281.838V28.9447H283.331V29.4003ZM281.2 29.4003H279.709V28.9447H281.2V29.4003ZM279.069 29.4003H277.578V28.9447H279.069V29.4003ZM298.883 29.4003V28.9447H301.103V29.4003H298.883ZM301.42 28.4786H273.561V28.0534H302.752V28.4786H301.42ZM307.916 31.9888H305.182V28.48H303.386V28.0547H303.759V27.3121H306.689V30.0152H305.483V31.6412H307.329V30.8157H306.689V31.1764H306.12V30.4825H307.914L307.916 31.9888ZM308.556 31.025V30.0152H307.331V27.3121H309.324V31.025H308.556ZM313.845 31.5951C313.828 31.5964 313.81 31.5964 313.792 31.5951V23.037C313.81 23.0357 313.828 23.0357 313.845 23.037C313.93 23.037 314.011 23.0614 314.07 23.1049C314.13 23.1484 314.164 23.2073 314.164 23.2688V31.3713C314.161 31.4311 314.127 31.4879 314.067 31.5296C314.008 31.5713 313.929 31.5948 313.847 31.5951H313.845ZM315.657 35.6543H314.166V34.6089H315.657V35.6543ZM315.657 21.7204H314.166V20.8817H315.657V21.7204ZM315.976 31.5951C315.891 31.5951 315.81 31.5707 315.75 31.5272C315.691 31.4838 315.657 31.4248 315.657 31.3634V23.2609C315.663 23.2022 315.699 23.1475 315.759 23.1075C315.818 23.0675 315.896 23.0453 315.977 23.0453C316.058 23.0453 316.136 23.0675 316.195 23.1075C316.254 23.1475 316.291 23.2022 316.297 23.2609V31.3634C316.297 31.3939 316.288 31.4242 316.272 31.4524C316.256 31.4806 316.232 31.5062 316.203 31.5277C316.173 31.5492 316.137 31.5663 316.099 31.5778C316.06 31.5894 316.018 31.5953 315.976 31.5951ZM317.788 35.6543H316.297V34.6089H317.788V35.6543ZM317.788 21.7204H316.297V20.8817H317.788V21.7204ZM318.107 31.5951C318.022 31.5951 317.941 31.5707 317.881 31.5272C317.821 31.4838 317.788 31.4248 317.788 31.3634V23.2609C317.794 23.2022 317.83 23.1475 317.89 23.1075C317.949 23.0675 318.027 23.0453 318.108 23.0453C318.189 23.0453 318.266 23.0675 318.326 23.1075C318.385 23.1475 318.421 23.2022 318.428 23.2609V31.3634C318.428 31.3939 318.419 31.4242 318.403 31.4524C318.387 31.4806 318.363 31.5062 318.333 31.5277C318.304 31.5492 318.268 31.5663 318.229 31.5778C318.191 31.5894 318.149 31.5953 318.107 31.5951ZM319.919 35.6543H318.426V34.6089H319.917L319.919 35.6543ZM319.919 21.7204H318.426V20.8817H319.917L319.919 21.7204ZM320.238 31.5951C320.153 31.5951 320.072 31.5707 320.012 31.5272C319.952 31.4838 319.919 31.4248 319.919 31.3634V23.2609C319.925 23.2022 319.961 23.1475 320.021 23.1075C320.08 23.0675 320.158 23.0453 320.239 23.0453C320.32 23.0453 320.397 23.0675 320.457 23.1075C320.516 23.1475 320.552 23.2022 320.558 23.2609V31.3634C320.558 31.3939 320.55 31.4242 320.534 31.4524C320.518 31.4806 320.494 31.5062 320.464 31.5277C320.435 31.5492 320.399 31.5663 320.36 31.5778C320.321 31.5894 320.28 31.5953 320.238 31.5951ZM322.05 35.6543H320.558V34.6089H322.05V35.6543ZM322.05 21.7204H320.558V20.8817H322.05V21.7204ZM322.369 31.5951C322.284 31.5951 322.203 31.5707 322.143 31.5272C322.083 31.4838 322.05 31.4248 322.05 31.3634V23.2609C322.05 23.1994 322.083 23.1405 322.143 23.097C322.203 23.0535 322.284 23.0291 322.369 23.0291C322.453 23.0291 322.534 23.0535 322.594 23.097C322.654 23.1405 322.688 23.1994 322.688 23.2609V31.3634C322.688 31.4248 322.654 31.4838 322.594 31.5272C322.534 31.5707 322.453 31.5951 322.369 31.5951ZM324.181 35.6543H322.689V34.6089H324.181V35.6543ZM324.181 21.7204H322.689V20.8817H324.181V21.7204ZM324.501 31.5951C324.459 31.5953 324.418 31.5894 324.379 31.5778C324.34 31.5663 324.304 31.5492 324.275 31.5277C324.245 31.5062 324.221 31.4806 324.205 31.4524C324.189 31.4242 324.181 31.3939 324.181 31.3634V23.2609C324.187 23.2022 324.223 23.1475 324.282 23.1075C324.342 23.0675 324.42 23.0453 324.5 23.0453C324.581 23.0453 324.659 23.0675 324.719 23.1075C324.778 23.1475 324.814 23.2022 324.82 23.2609V31.3634C324.82 31.3939 324.812 31.4242 324.796 31.4524C324.78 31.4806 324.756 31.5062 324.726 31.5277C324.696 31.5492 324.661 31.5663 324.622 31.5778C324.583 31.5894 324.542 31.5953 324.5 31.5951H324.501ZM326.313 35.6543H324.822V34.6089H326.313V35.6543ZM326.313 21.7204H324.822V20.8817H326.313V21.7204ZM326.634 31.5951C326.592 31.5953 326.55 31.5894 326.511 31.5778C326.473 31.5663 326.437 31.5492 326.407 31.5277C326.378 31.5062 326.354 31.4806 326.338 31.4524C326.322 31.4242 326.313 31.3939 326.313 31.3634V23.2609C326.319 23.2022 326.356 23.1475 326.415 23.1075C326.474 23.0675 326.552 23.0453 326.633 23.0453C326.714 23.0453 326.792 23.0675 326.851 23.1075C326.911 23.1475 326.947 23.2022 326.953 23.2609V31.3634C326.953 31.394 326.945 31.4244 326.928 31.4527C326.912 31.4809 326.888 31.5066 326.858 31.5282C326.828 31.5497 326.793 31.5667 326.754 31.5782C326.714 31.5897 326.673 31.5954 326.63 31.5951H326.634ZM328.446 35.6543H326.942V34.6089H328.433L328.446 35.6543ZM328.446 21.7204H326.942V20.8817H328.433L328.446 21.7204ZM328.767 31.5951C328.725 31.5953 328.683 31.5894 328.644 31.5778C328.605 31.5663 328.57 31.5492 328.54 31.5277C328.51 31.5062 328.487 31.4806 328.47 31.4524C328.454 31.4242 328.446 31.3939 328.446 31.3634V23.2609C328.452 23.2022 328.488 23.1475 328.548 23.1075C328.607 23.0675 328.685 23.0453 328.766 23.0453C328.847 23.0453 328.925 23.0675 328.984 23.1075C329.043 23.1475 329.08 23.2022 329.086 23.2609V31.3634C329.086 31.3946 329.077 31.4255 329.06 31.4542C329.043 31.483 329.019 31.5089 328.988 31.5306C328.957 31.5522 328.92 31.5691 328.88 31.5802C328.84 31.5913 328.797 31.5963 328.754 31.5951H328.767ZM330.579 35.6543H329.087V34.6089H330.566L330.579 35.6543ZM330.579 21.7204H329.087V20.8817H330.566L330.579 21.7204ZM330.898 31.5951C330.813 31.5951 330.732 31.5707 330.672 31.5272C330.612 31.4838 330.579 31.4248 330.579 31.3634V24.4563C330.575 24.4244 330.581 24.3922 330.596 24.3619C330.61 24.3317 330.633 24.3039 330.663 24.2804C330.693 24.2568 330.73 24.2381 330.77 24.2253C330.811 24.2124 330.854 24.2058 330.899 24.2058C330.943 24.2058 330.986 24.2124 331.027 24.2253C331.067 24.2381 331.104 24.2568 331.134 24.2804C331.164 24.3039 331.187 24.3317 331.201 24.3619C331.216 24.3922 331.222 24.4244 331.218 24.4563V31.3634C331.218 31.3944 331.21 31.4251 331.193 31.4536C331.177 31.4822 331.152 31.508 331.122 31.5296C331.091 31.5512 331.055 31.5681 331.015 31.5794C330.975 31.5906 330.933 31.596 330.89 31.5951H330.898ZM332.958 35.6543H331.218V34.6089H332.958V35.6543ZM333.349 31.3634C333.343 31.422 333.307 31.4768 333.248 31.5167C333.188 31.5567 333.11 31.5789 333.029 31.5789C332.949 31.5789 332.871 31.5567 332.811 31.5167C332.752 31.4768 332.716 31.422 332.71 31.3634V25.9007C332.716 25.8421 332.752 25.7873 332.811 25.7473C332.871 25.7074 332.949 25.6851 333.029 25.6851C333.11 25.6851 333.188 25.7074 333.248 25.7473C333.307 25.7873 333.343 25.8421 333.349 25.9007V31.3634Z" stroke="white" stroke-width="8" mask="url(#path-1-inside-1_5696_942)"/>
<g filter="url(#filter0_d_5696_942)">
<path d="M5.42505 47.9999V55.9999L6.42505 65.9999L8.42505 73.9999L19.425 112L24.425 127L102.425 131H232.425H549.425L566.425 77.9999L571.425 53.9999V47.9999L570.425 45.9999L567.425 46.9999L558.425 50.9999L552.425 52.9999L545.425 54.9999L523.425 58.9999L509.425 59.9999H57.425L43.425 57.9999L28.425 53.9999L14.425 48.9999L5.42505 45.9999V47.9999Z" fill="url(#paint0_linear_5696_942)"/>
<path d="M5.42505 47.9999V55.9999L6.42505 65.9999L8.42505 73.9999L19.425 112L24.425 127L102.425 131H232.425H549.425L566.425 77.9999L571.425 53.9999V47.9999L570.425 45.9999L567.425 46.9999L558.425 50.9999L552.425 52.9999L545.425 54.9999L523.425 58.9999L509.425 59.9999H57.425L43.425 57.9999L28.425 53.9999L14.425 48.9999L5.42505 45.9999V47.9999Z" stroke="#EDECEC" stroke-width="1.25"/>
</g>
<path d="M6.44128 51.09C6.4705 50.7416 6.57589 50.4049 6.74936 50.1056C6.92284 49.8064 7.15978 49.5525 7.44202 49.3635C7.72426 49.1745 8.04427 49.0554 8.37753 49.0153C8.71079 48.9753 9.04844 49.0153 9.36455 49.1324C10.3569 49.6347 11.1652 50.4605 11.6668 51.4846C11.894 51.754 12.0968 52.0447 12.2727 52.3529C12.849 53.5534 13.4913 54.7183 14.1963 55.8418C14.9536 56.9153 15.7109 57.9888 16.4531 59.1097C16.7257 59.3307 16.9833 59.5675 17.2559 59.757C18.7705 60.8305 19.4824 62.346 20.8607 63.4827C22.0913 64.3542 23.1847 65.4193 24.1021 66.6401C26.168 67.2789 28.0858 68.3536 29.7366 69.7974C30.7248 70.736 31.9917 71.2932 33.3263 71.3761C34.39 71.3916 35.452 71.4707 36.507 71.6129C38.2034 71.7234 39.8392 70.492 41.3993 69.8763C42.4872 69.3742 43.5994 68.9316 44.7316 68.5503C45.7783 68.3793 46.8396 68.3264 47.8972 68.3924C49.1998 68.3924 50.2449 67.6978 51.502 67.5873C53.3347 67.4452 54.6373 68.9449 56.046 69.9237C57.0456 70.6025 58.2119 70.792 59.2116 71.5024C60.1642 72.3783 61.2113 73.1359 62.3317 73.7599C62.5135 73.7599 62.4529 74.1862 62.2409 74.1388C60.5899 73.8073 59.5599 72.1023 58.0301 71.4235C57.1689 71.1087 56.3415 70.7013 55.5613 70.2079C54.7095 69.4383 53.749 68.8099 52.7137 68.345C51.6586 68.1384 50.5675 68.2993 49.6087 68.8029C48.5439 69.0104 47.4653 69.1318 46.3825 69.1659C43.8531 69.5133 41.2782 71.1867 39.0062 72.3233C37.1432 73.2705 35.2347 72.939 33.2808 73.4442C32.4787 73.5862 31.6565 73.5439 30.8716 73.3203C30.0868 73.0967 29.3582 72.6972 28.7369 72.1497C27.4191 71.2656 26.3135 70.2552 25.0109 69.4817C25.1447 70.653 25.1192 71.8382 24.9351 73.0022C24.4703 75.1445 24.7719 77.39 25.7833 79.3169C26.8587 81.4482 27.7978 83.6583 28.9186 85.758C29.4277 86.5846 29.9947 87.3708 30.615 88.1102C31.0228 88.8614 31.2901 89.6864 31.4027 90.5414C31.4027 90.8098 31.5693 91.0939 31.6601 91.3623C32.2257 92.321 32.6976 93.3365 33.0688 94.3934L33.1597 94.6776C33.403 95.0089 33.7255 95.2678 34.095 95.4285C34.4645 95.5892 34.8679 95.646 35.265 95.5932C38.2731 95.5289 41.2653 96.0648 44.0803 97.1719C44.2923 97.0614 44.5195 96.9667 44.7316 96.8404C47.3801 95.5308 50.2543 94.7899 53.1833 94.6618C56.0156 94.3303 57.1971 95.6721 58.7118 98.0086C58.8982 98.4348 59.1669 98.8164 59.501 99.1296C59.8352 99.4427 60.2276 99.6808 60.654 99.829C61.0803 99.9771 61.5313 100.032 61.979 99.9905C62.4266 99.9489 62.8612 99.8117 63.2557 99.5873C64.5698 99.1644 65.9272 98.9047 67.2998 98.8137C67.3482 98.8271 67.3911 98.8568 67.4217 98.8982C67.4522 98.9396 67.4688 98.9904 67.4688 99.0426C67.4688 99.0949 67.4522 99.1457 67.4217 99.1871C67.3911 99.2285 67.3482 99.2582 67.2998 99.2716C66.037 99.6007 64.8012 100.034 63.604 100.566C62.8165 101.035 61.9348 101.305 61.0292 101.355C59.2267 101.261 58.1665 99.7767 57.2577 98.198C56.9484 97.5157 56.453 96.9436 55.8334 96.5532C55.2137 96.1629 54.4974 95.9718 53.774 96.0037C52.4793 96.1387 51.1943 96.3602 49.9268 96.6667C48.5532 96.7952 47.2056 97.1357 45.9281 97.6771L45.7464 97.7876L46.9732 98.2296C48.4668 98.5598 49.8324 99.3456 50.8962 100.487C51.2186 100.984 51.4926 101.513 51.7141 102.066C52.2862 103.095 53.0181 104.018 53.88 104.797C55.3189 106.376 55.3038 108.586 57.5152 109.438C59.7266 110.291 62.0591 109.438 64.225 109.28C66.277 109.077 68.346 109.167 70.3745 109.549C71.4111 109.909 72.4232 110.341 73.4038 110.843C74.252 111.191 75.1608 111.08 76.0242 111.349C77.251 111.727 78.3567 112.28 79.6441 112.548C80.5472 112.688 81.4221 112.982 82.2342 113.417C84.0903 114.403 85.8331 115.605 87.4294 117C85.9092 115.85 84.292 114.846 82.5977 114.001C80.7196 112.896 78.4476 112.817 76.4331 112.075C75.5243 111.727 74.6307 111.806 73.7067 111.554C72.9537 111.256 72.2157 110.919 71.4954 110.543C69.1728 109.853 66.7356 109.686 64.3462 110.054C61.3169 110.212 57.4698 111.727 55.1221 108.854C54.7084 108.289 54.3814 107.661 54.1527 106.991C53.614 106.006 52.8933 105.142 52.0322 104.45C50.8507 103.297 50.1388 101.498 48.6696 100.771C46.884 100.01 45.0257 99.4489 43.126 99.0979H43.0352C40.6732 99.8235 38.2066 100.107 35.7497 99.9346C35.0528 99.9714 34.3596 99.8083 33.7454 99.4632C33.1312 99.1181 32.6195 98.604 32.266 97.977C32.266 98.1507 32.3569 98.2928 32.3872 98.4664C32.8416 100.945 32.3872 104.592 34.0836 106.549C34.8137 107.313 35.4777 108.142 36.0678 109.028C36.7515 110.056 37.6879 110.874 38.779 111.396C40.3962 112.44 41.6655 113.978 42.4141 115.8C42.4324 115.848 42.4343 115.9 42.4195 115.949C42.4047 115.998 42.3742 116.04 42.3331 116.068C42.292 116.096 42.243 116.108 42.1942 116.102C42.1455 116.097 42.1001 116.074 42.0658 116.037C41.3777 115.046 40.6289 114.102 39.8241 113.211C39.0442 112.512 38.1719 111.932 37.234 111.491C36.4073 110.936 35.7255 110.177 35.2498 109.28C34.6137 108.239 33.6595 107.544 33.0233 106.534C31.7965 104.576 32.0237 101.687 31.7359 99.4452C31.4481 97.2035 30.2212 95.2143 29.7214 93.1305C29.2079 92.4315 28.5703 91.8419 27.8433 91.3939C26.7224 90.7308 25.7227 89.8941 24.617 89.1995C23.7821 88.7418 23.1045 88.0245 22.6783 87.1472C21.7695 85.0476 22.6783 82.9479 22.6783 80.8325C22.6929 80.6539 22.6929 80.4743 22.6783 80.2957C22.5529 80.419 22.3993 80.507 22.2322 80.5513C22.0651 80.5956 21.89 80.5949 21.7233 80.5491C21.5566 80.5032 21.4038 80.4139 21.2794 80.2895C21.1549 80.165 21.063 80.0096 21.0122 79.8379C20.5729 78.6065 20.785 77.3436 20.2852 76.1753C19.7603 74.9173 19.0996 73.7256 18.3161 72.6233C16.6352 70.1663 15.2277 67.5181 14.1206 64.7298C12.7276 61.995 11.1641 59.3582 9.4403 56.8364C9.02856 55.8485 8.437 54.9532 7.69842 54.2C7.26398 53.8255 6.92282 53.3472 6.70393 52.8057C6.48505 52.2642 6.39494 51.6756 6.44128 51.09ZM39.7635 98.3086H40.1119C38.6658 97.8512 37.1503 97.6799 35.6437 97.8034C35.2953 97.8034 34.9772 97.8981 34.6894 97.9139C36.0678 98.7664 38.4761 98.498 39.7635 98.3086ZM27.0102 87.4472C26.8739 87.2419 26.7527 87.0367 26.6315 86.8315C25.7682 85.3475 25.0412 83.7846 24.2535 82.2533C24.2786 83.0329 24.3647 83.809 24.511 84.574C24.92 86.1369 25.9499 86.721 27.0859 87.4472H27.0102ZM22.1936 70.3184C22.1729 69.7321 22.026 69.1581 21.7639 68.6389C21.5017 68.1197 21.1309 67.6686 20.679 67.3189C20.4215 67.2242 20.3457 67.0979 20.3609 67.4452C20.9819 68.4713 21.5878 69.3554 22.2694 70.3184H22.1936Z" fill="#730000"/>
<path d="M570.414 49.9668C570.387 49.6389 570.288 49.322 570.125 49.0404C569.963 48.7587 569.74 48.5197 569.475 48.3419C569.211 48.164 568.91 48.0519 568.598 48.0142C568.285 47.9765 567.968 48.0142 567.672 48.1244C566.741 48.5972 565.982 49.3744 565.511 50.3382C565.298 50.5918 565.108 50.8653 564.943 51.1554C564.402 52.2854 563.8 53.3817 563.138 54.4391C562.428 55.4495 561.717 56.4598 561.021 57.5148C560.765 57.7228 560.523 57.9457 560.267 58.124C558.846 59.1343 558.178 60.5607 556.885 61.6305C555.731 62.4507 554.705 63.4532 553.844 64.6022C551.905 65.2035 550.106 66.2149 548.557 67.5738C547.63 68.4572 546.441 68.9816 545.189 69.0597C544.191 69.0742 543.195 69.1486 542.205 69.2825C540.613 69.3865 539.078 68.2276 537.614 67.6481C536.594 67.1755 535.55 66.7589 534.488 66.4C533.506 66.2391 532.51 66.1893 531.518 66.2514C530.295 66.2514 529.315 65.5977 528.135 65.4937C526.416 65.3599 525.193 66.7715 523.872 67.6927C522.934 68.3316 521.84 68.5099 520.902 69.1785C520.008 70.0029 519.025 70.7159 517.974 71.3032C517.803 71.3032 517.86 71.7044 518.059 71.6598C519.608 71.3478 520.575 69.7431 522.01 69.1042C522.818 68.808 523.594 68.4245 524.327 67.9601C525.126 67.2358 526.027 66.6444 526.998 66.2068C527.988 66.0124 529.012 66.1638 529.912 66.6377C530.911 66.8331 531.923 66.9473 532.939 66.9795C535.312 67.3064 537.728 68.8813 539.86 69.9511C541.608 70.8426 543.398 70.5306 545.232 71.0061C545.984 71.1397 546.756 71.0999 547.492 70.8894C548.229 70.679 548.912 70.303 549.495 69.7877C550.731 68.9556 551.769 68.0047 552.991 67.2766C552.866 68.3791 552.89 69.4946 553.062 70.59C553.498 72.6064 553.215 74.7198 552.266 76.5334C551.257 78.5392 550.376 80.6194 549.325 82.5955C548.847 83.3735 548.315 84.1135 547.733 84.8094C547.35 85.5164 547.099 86.2928 546.994 87.0976C546.994 87.3502 546.838 87.6176 546.752 87.8702C546.222 88.7725 545.779 89.7282 545.431 90.723L545.345 90.9904C545.117 91.3023 544.814 91.546 544.468 91.6972C544.121 91.8484 543.743 91.9019 543.37 91.8522C540.548 91.7917 537.74 92.296 535.099 93.338C534.9 93.234 534.687 93.1449 534.488 93.026C532.003 91.7934 529.306 91.0961 526.558 90.9756C523.9 90.6636 522.792 91.9265 521.371 94.1255C521.196 94.5266 520.944 94.8858 520.63 95.1805C520.316 95.4753 519.948 95.6994 519.548 95.8388C519.148 95.9782 518.725 96.0299 518.305 95.9908C517.885 95.9517 517.477 95.8225 517.107 95.6113C515.874 95.2133 514.6 94.9689 513.313 94.8833C513.267 94.8959 513.227 94.9238 513.198 94.9628C513.17 95.0018 513.154 95.0496 513.154 95.0987C513.154 95.1479 513.17 95.1957 513.198 95.2347C513.227 95.2736 513.267 95.3016 513.313 95.3142C514.497 95.6239 515.657 96.0313 516.78 96.5325C517.519 96.9737 518.346 97.2281 519.196 97.2755C520.887 97.1863 521.882 95.7896 522.735 94.3038C523.025 93.6616 523.49 93.1231 524.071 92.7558C524.653 92.3884 525.325 92.2085 526.003 92.2385C527.218 92.3656 528.424 92.574 529.613 92.8626C530.902 92.9835 532.166 93.304 533.365 93.8135L533.536 93.9175L532.384 94.3335C530.983 94.6443 529.702 95.3839 528.704 96.4583C528.401 96.9256 528.144 97.4233 527.936 97.9441C527.399 98.9125 526.713 99.7812 525.904 100.515C524.554 102 524.568 104.081 522.493 104.883C520.418 105.685 518.23 104.883 516.198 104.734C514.272 104.543 512.331 104.628 510.428 104.987C509.455 105.326 508.505 105.733 507.585 106.205C506.79 106.532 505.937 106.428 505.127 106.681C503.976 107.037 502.938 107.557 501.73 107.81C500.883 107.942 500.062 108.218 499.3 108.627C497.559 109.555 495.923 110.687 494.426 112C495.852 110.918 497.369 109.973 498.959 109.177C500.721 108.137 502.853 108.063 504.743 107.364C505.596 107.037 506.434 107.112 507.301 106.874C508.008 106.594 508.7 106.276 509.376 105.923C511.555 105.273 513.842 105.116 516.084 105.462C518.926 105.611 522.536 107.037 524.739 104.333C525.127 103.801 525.434 103.21 525.648 102.58C526.154 101.653 526.83 100.84 527.638 100.188C528.746 99.103 529.414 97.4092 530.793 96.7257C532.468 96.0091 534.212 95.4811 535.994 95.1507H536.079C538.296 95.8337 540.61 96.1003 542.915 95.9382C543.569 95.9728 544.219 95.8194 544.796 95.4945C545.372 95.1697 545.852 94.6859 546.184 94.0958C546.184 94.2592 546.099 94.393 546.07 94.5564C545.644 96.8891 546.07 100.321 544.478 102.164C543.793 102.883 543.17 103.663 542.617 104.497C541.975 105.465 541.097 106.234 540.073 106.725C538.555 107.708 537.365 109.155 536.662 110.871C536.645 110.915 536.643 110.965 536.657 111.011C536.671 111.057 536.7 111.096 536.738 111.122C536.777 111.149 536.823 111.16 536.868 111.155C536.914 111.15 536.957 111.128 536.989 111.094C537.635 110.161 538.337 109.272 539.092 108.434C539.824 107.775 540.642 107.23 541.522 106.814C542.298 106.293 542.938 105.578 543.384 104.734C543.981 103.754 544.876 103.1 545.473 102.149C546.624 100.307 546.411 97.5875 546.681 95.4776C546.951 93.3678 548.102 91.4956 548.571 89.5343C549.053 88.8765 549.651 88.3216 550.334 87.8999C551.385 87.2759 552.323 86.4884 553.361 85.8346C554.144 85.4038 554.78 84.7287 555.18 83.903C556.032 81.9269 555.18 79.9507 555.18 77.9597C555.166 77.7916 555.166 77.6226 555.18 77.4546C555.297 77.5706 555.441 77.6534 555.598 77.6951C555.755 77.7368 555.919 77.7361 556.076 77.693C556.232 77.6499 556.376 77.5658 556.492 77.4487C556.609 77.3316 556.695 77.1853 556.743 77.0237C557.155 75.8647 556.956 74.6761 557.425 73.5766C557.918 72.3925 558.537 71.2709 559.273 70.2334C560.85 67.921 562.17 65.4286 563.209 62.8043C564.516 60.2303 565.983 57.7486 567.601 55.3752C567.987 54.4455 568.542 53.6028 569.235 52.8939C569.643 52.5414 569.963 52.0912 570.168 51.5816C570.373 51.0719 570.458 50.5179 570.414 49.9668ZM539.149 94.4078H538.822C540.179 93.9774 541.601 93.8161 543.015 93.9324C543.342 93.9324 543.64 94.0215 543.91 94.0364C542.617 94.8387 540.357 94.5861 539.149 94.4078ZM551.115 84.1853C551.243 83.9922 551.357 83.799 551.471 83.6059C552.281 82.2092 552.963 80.7382 553.702 79.297C553.678 80.0307 553.597 80.7612 553.46 81.4812C553.076 82.9521 552.11 83.5019 551.044 84.1853H551.115ZM555.634 68.0641C555.654 67.5123 555.792 66.9721 556.038 66.4835C556.284 65.9948 556.632 65.5702 557.056 65.2411C557.297 65.1519 557.368 65.0331 557.354 65.3599C556.771 66.3257 556.203 67.1578 555.563 68.0641H555.634Z" fill="#730000"/>
<path d="M109.807 80.6079V88.5039H107.455V99.5499C107.455 99.9699 107.511 100.292 107.623 100.516C107.763 100.712 107.931 100.866 108.127 100.978C108.351 101.062 108.617 101.104 108.925 101.104H108.967C108.995 101.104 109.023 101.104 109.051 101.104H109.093C109.121 101.104 109.135 101.104 109.135 101.104H109.177H109.261C109.261 101.104 109.275 101.104 109.303 101.104C109.331 101.104 109.345 101.104 109.345 101.104H109.681H109.807V109H107.455C105.719 109 104.319 108.748 103.255 108.244C102.219 107.712 101.421 106.984 100.861 106.06C100.329 105.136 99.9791 104.058 99.8111 102.826C99.643 101.566 99.559 100.208 99.559 98.7519V88.5039H98.005V98.7519H90.109V88.5039H88.513V98.7519C88.513 100.432 88.415 101.916 88.219 103.204C88.023 104.464 87.617 105.528 87.001 106.396C86.385 107.264 85.503 107.922 84.355 108.37C83.235 108.79 81.737 109 79.861 109H78.265V101.104H78.349C78.377 101.104 78.405 101.104 78.433 101.104H78.475C78.475 101.104 78.489 101.104 78.517 101.104H78.559H78.643H78.685C78.685 101.104 78.699 101.104 78.727 101.104H79.021C79.049 101.104 79.063 101.104 79.063 101.104H79.189C79.469 101.104 79.721 101.062 79.945 100.978C80.169 100.866 80.337 100.712 80.449 100.516C80.589 100.292 80.659 99.9699 80.659 99.5499V88.5039H78.265V80.6079H90.109V79.0539H98.005V80.6079H109.807ZM119.258 98.7519H116.906V90.8979H119.258V88.5039H116.906V80.6499H141.35V88.5039H127.154V91.6539H136.604V98.7519H127.154C127.154 98.7799 127.154 98.8079 127.154 98.8359C127.154 100.376 127.938 101.146 129.506 101.146H141.35V109H129.506C128.106 109 126.776 108.734 125.516 108.202C124.284 107.642 123.206 106.9 122.282 105.976C121.358 105.052 120.616 103.974 120.056 102.742C119.524 101.482 119.258 100.152 119.258 98.7519ZM172.813 98.7519C172.813 100.152 172.533 101.482 171.973 102.742C171.441 103.974 170.713 105.052 169.789 105.976C168.865 106.9 167.773 107.642 166.513 108.202C165.281 108.734 163.965 109 162.565 109H160.003V101.104C160.535 101.104 160.983 101.118 161.347 101.146C161.711 101.174 161.963 101.188 162.103 101.188C162.523 101.188 162.943 101.146 163.363 101.062C163.783 100.95 164.147 100.726 164.455 100.39C164.763 100.054 164.917 99.5079 164.917 98.7519V88.5039H158.617V109H150.721V88.5039H148.369V80.6079H172.813V98.7519ZM190.207 80.6079V101.902C190.207 102.882 190.011 103.806 189.619 104.674C189.255 105.514 188.751 106.256 188.107 106.9C187.463 107.544 186.707 108.062 185.839 108.454C184.999 108.818 184.089 109 183.109 109H179.959V101.104C180.267 101.104 180.561 101.104 180.841 101.104C181.149 101.076 181.401 101.02 181.597 100.936C181.821 100.852 181.989 100.712 182.101 100.516C182.241 100.292 182.311 99.9699 182.311 99.5499V80.6079H190.207ZM206.803 80.6499V79.0539H214.699V80.6499H224.149V88.5039H221.755V99.5499C221.755 99.9699 221.811 100.292 221.923 100.516C222.063 100.74 222.245 100.908 222.469 101.02C222.693 101.104 222.945 101.146 223.225 101.146H223.267H223.309C223.337 101.146 223.365 101.146 223.393 101.146H223.435C223.463 101.146 223.477 101.146 223.477 101.146H223.519C223.519 101.146 223.533 101.146 223.561 101.146H223.645C223.645 101.146 223.659 101.146 223.687 101.146H223.729C223.729 101.146 223.743 101.146 223.771 101.146H224.149V109H220.999C219.375 109 218.087 108.692 217.135 108.076C216.211 107.46 215.497 106.676 214.993 105.724C214.517 104.744 214.209 103.652 214.069 102.448C213.957 101.216 213.901 99.9839 213.901 98.7519H207.601V101.944C207.601 102.924 207.405 103.848 207.013 104.716C206.649 105.556 206.145 106.298 205.501 106.942C204.857 107.586 204.101 108.09 203.233 108.454C202.365 108.818 201.455 109 200.503 109H197.311V101.146H197.353H197.437C197.437 101.146 197.451 101.146 197.479 101.146H197.563C197.591 101.146 197.605 101.146 197.605 101.146H197.647C197.647 101.146 197.661 101.146 197.689 101.146H197.773C197.801 101.146 197.815 101.146 197.815 101.146H197.857C197.857 101.146 197.871 101.146 197.899 101.146H198.235C198.515 101.146 198.767 101.104 198.991 101.02C199.215 100.908 199.383 100.74 199.495 100.516C199.635 100.292 199.705 99.9699 199.705 99.5499V88.5039H197.311V80.6499H206.803ZM213.901 90.8979V88.5039H207.601V90.8979H213.901ZM280.786 91.6539C280.786 93.0259 280.562 94.1599 280.114 95.0559C279.666 95.9239 279.064 96.6239 278.308 97.1559C277.58 97.6879 276.726 98.0659 275.746 98.2899C274.766 98.5139 273.828 98.6539 272.932 98.7099C272.036 98.7659 271.21 98.7939 270.454 98.7939C270.146 98.7939 269.642 98.7939 268.942 98.7939C268.27 98.7659 267.486 98.7519 266.59 98.7519V109H258.694V98.7519H256.342V90.8559H258.694V88.5039H256.342V80.6079H280.786V91.6539ZM272.89 91.6539V88.5039H266.59V91.6539H272.89ZM297.38 80.6499V79.0539H305.276V80.6499H314.726V88.5039H312.332V99.5499C312.332 99.9699 312.388 100.292 312.5 100.516C312.64 100.74 312.822 100.908 313.046 101.02C313.27 101.104 313.522 101.146 313.802 101.146H313.844H313.886C313.914 101.146 313.942 101.146 313.97 101.146H314.012C314.04 101.146 314.054 101.146 314.054 101.146H314.096C314.096 101.146 314.11 101.146 314.138 101.146H314.222C314.222 101.146 314.236 101.146 314.264 101.146H314.306C314.306 101.146 314.32 101.146 314.348 101.146H314.726V109H311.576C309.952 109 308.664 108.692 307.712 108.076C306.788 107.46 306.074 106.676 305.57 105.724C305.094 104.744 304.786 103.652 304.646 102.448C304.534 101.216 304.478 99.9839 304.478 98.7519H298.178V101.944C298.178 102.924 297.982 103.848 297.59 104.716C297.226 105.556 296.722 106.298 296.078 106.942C295.434 107.586 294.678 108.09 293.81 108.454C292.942 108.818 292.032 109 291.08 109H287.888V101.146H287.93H288.014C288.014 101.146 288.028 101.146 288.056 101.146H288.14C288.168 101.146 288.182 101.146 288.182 101.146H288.224C288.224 101.146 288.238 101.146 288.266 101.146H288.35C288.378 101.146 288.392 101.146 288.392 101.146H288.434C288.434 101.146 288.448 101.146 288.476 101.146H288.812C289.092 101.146 289.344 101.104 289.568 101.02C289.792 100.908 289.96 100.74 290.072 100.516C290.212 100.292 290.282 99.9699 290.282 99.5499V88.5039H287.888V80.6499H297.38ZM304.478 90.8979V88.5039H298.178V90.8979H304.478ZM346.132 101.902V109C344.48 109 342.912 108.79 341.428 108.37C339.944 107.922 338.614 107.278 337.438 106.438C336.262 105.57 335.268 104.506 334.456 103.246C333.672 101.958 333.14 100.46 332.86 98.7519H331.936V109H324.04V98.7519H321.688V90.8559H324.04V88.4619H321.688V80.6079H346.132V91.6539C346.132 92.5219 345.978 93.3479 345.67 94.1319C345.362 94.9159 344.942 95.6299 344.41 96.2739C343.878 96.8899 343.248 97.4079 342.52 97.8279C341.792 98.2479 340.994 98.5139 340.126 98.6259C340.35 99.2699 340.672 99.8019 341.092 100.222C341.512 100.642 341.988 100.978 342.52 101.23C343.08 101.482 343.668 101.664 344.284 101.776C344.9 101.86 345.516 101.902 346.132 101.902ZM338.236 91.6539V88.4619H331.936V91.6539H338.236ZM368.106 99.5079C368.106 99.9279 368.162 100.25 368.274 100.474C368.414 100.698 368.582 100.866 368.778 100.978C369.002 101.062 369.254 101.104 369.534 101.104H369.618C369.646 101.104 369.674 101.104 369.702 101.104C369.73 101.104 369.758 101.104 369.786 101.104C369.814 101.104 369.828 101.104 369.828 101.104H369.87C369.898 101.104 369.912 101.104 369.912 101.104H369.954H370.29C370.318 101.104 370.332 101.104 370.332 101.104H370.458V109H367.308C366.328 109 365.404 108.818 364.536 108.454C363.696 108.062 362.954 107.544 362.31 106.9C361.666 106.256 361.148 105.514 360.756 104.674C360.392 103.806 360.21 102.882 360.21 101.902V88.5039H353.112V80.6079H375.162V88.5039H368.106V99.5079ZM407.357 101.104V109H404.207C403.227 109 402.303 108.818 401.435 108.454C400.595 108.062 399.853 107.544 399.209 106.9C398.565 106.256 398.047 105.514 397.655 104.674C397.291 103.806 397.109 102.882 397.109 101.902V88.5039C395.289 88.6999 393.903 89.0499 392.951 89.5539C391.999 90.0579 391.299 90.7299 390.851 91.5699C390.403 92.4099 390.151 93.4319 390.095 94.6359C390.039 95.8399 390.011 97.2119 390.011 98.7519V109H382.115V80.6079H390.011V82.1199C391.271 81.5599 392.503 81.1679 393.707 80.9439C394.939 80.7199 396.241 80.6079 397.613 80.6079H405.005V99.5499C405.005 99.9699 405.061 100.292 405.173 100.516C405.313 100.712 405.481 100.852 405.677 100.936C405.901 101.02 406.153 101.076 406.433 101.104C406.741 101.104 407.049 101.104 407.357 101.104ZM416.67 98.7519H414.318V90.8979H416.67V88.5039H414.318V80.6499H438.762V88.5039H424.566V91.6539H434.016V98.7519H424.566C424.566 98.7799 424.566 98.8079 424.566 98.8359C424.566 100.376 425.35 101.146 426.918 101.146H438.762V109H426.918C425.518 109 424.188 108.734 422.928 108.202C421.696 107.642 420.618 106.9 419.694 105.976C418.77 105.052 418.028 103.974 417.468 102.742C416.936 101.482 416.67 100.152 416.67 98.7519ZM470.183 101.902V109C468.531 109 466.963 108.79 465.479 108.37C463.995 107.922 462.665 107.278 461.489 106.438C460.313 105.57 459.319 104.506 458.507 103.246C457.723 101.958 457.191 100.46 456.911 98.7519H455.987V109H448.091V98.7519H445.739V90.8559H448.091V88.4619H445.739V80.6079H470.183V91.6539C470.183 92.5219 470.029 93.3479 469.721 94.1319C469.413 94.9159 468.993 95.6299 468.461 96.2739C467.929 96.8899 467.299 97.4079 466.571 97.8279C465.843 98.2479 465.045 98.5139 464.177 98.6259C464.401 99.2699 464.723 99.8019 465.143 100.222C465.563 100.642 466.039 100.978 466.571 101.23C467.131 101.482 467.719 101.664 468.335 101.776C468.951 101.86 469.567 101.902 470.183 101.902ZM462.287 91.6539V88.4619H455.987V91.6539H462.287ZM477.247 98.7519V90.8559C477.247 89.4559 477.513 88.1399 478.045 86.9079C478.605 85.6479 479.347 84.5559 480.271 83.6319C481.195 82.7079 482.273 81.9799 483.505 81.4479C484.765 80.8879 486.095 80.6079 487.495 80.6079H499.339V88.4619H491.443C490.547 88.4619 489.833 88.4479 489.301 88.4199C488.797 88.3639 488.419 88.3359 488.167 88.3359C487.719 88.3359 487.257 88.3919 486.781 88.5039C486.333 88.5879 485.941 88.8679 485.605 89.3439C485.297 89.7919 485.143 90.5619 485.143 91.6539H499.339V98.7519C499.339 100.152 499.059 101.482 498.499 102.742C497.967 103.974 497.239 105.052 496.315 105.976C495.391 106.9 494.299 107.642 493.039 108.202C491.807 108.734 490.491 109 489.091 109H477.247V101.104H487.495C487.971 101.104 488.335 101.118 488.587 101.146C488.867 101.146 489.021 101.146 489.049 101.146C489.469 101.146 489.861 101.09 490.225 100.978C490.589 100.838 490.883 100.6 491.107 100.264C491.331 99.9279 491.443 99.4239 491.443 98.7519H477.247Z" fill="white"/>
<defs>
<filter id="filter0_d_5696_942" x="4.86374e-05" y="45.1328" width="576.85" height="96.0921" filterUnits="userSpaceOnUse" color-interpolation-filters="sRGB">
<feFlood flood-opacity="0" result="BackgroundImageFix"/>
<feColorMatrix in="SourceAlpha" type="matrix" values="0 0 0 0 0 0 0 0 0 0 0 0 0 0 0 0 0 0 127 0" result="hardAlpha"/>
<feOffset dy="4.8"/>
<feGaussianBlur stdDeviation="2.4"/>
<feComposite in2="hardAlpha" operator="out"/>
<feColorMatrix type="matrix" values="0 0 0 0 0 0 0 0 0 0 0 0 0 0 0 0 0 0 0.7 0"/>
<feBlend mode="normal" in2="BackgroundImageFix" result="effect1_dropShadow_5696_942"/>
<feBlend mode="normal" in="SourceGraphic" in2="effect1_dropShadow_5696_942" result="shape"/>
</filter>
<linearGradient id="paint0_linear_5696_942" x1="5.42505" y1="88.4999" x2="571.425" y2="88.4999" gradientUnits="userSpaceOnUse">
<stop/>
<stop offset="0.538462" stop-color="#842728"/>
<stop offset="0.975962"/>
</linearGradient>
</defs>
</svg>
