<svg xmlns="http://www.w3.org/2000/svg" width="578" height="165" fill="none" viewBox="0 0 578 165"><g filter="url(#a)"><mask id="b" fill="#fff"><path d="m344.108 28.622.08-.017c6.788-.419 10.452-2.46 10.613-2.552l-1.049-.975q-.416.214-.861.395v-.366c-.01-.16-.104-.31-.263-.42a1.05 1.05 0 0 0-.59-.172c-.219 0-.43.062-.589.172s-.253.26-.263.42v.986a25 25 0 0 1-1.066.31v-.618a.46.46 0 0 0-.053-.246.6.6 0 0 0-.182-.211.9.9 0 0 0-.281-.142 1.14 1.14 0 0 0-.672 0 .9.9 0 0 0-.281.142.6.6 0 0 0-.182.21.47.47 0 0 0-.054.247V26.8q-.447.09-.931.173V26.3c-.01-.16-.104-.31-.263-.42a1.05 1.05 0 0 0-.59-.172c-.219 0-.43.062-.589.172s-.253.26-.263.42v.912q-.475.054-.977.098v-.694c0-.164-.09-.322-.249-.438a1.04 1.04 0 0 0-.602-.18c-.226 0-.443.064-.603.18s-.249.274-.249.438v.79h-.154c-5.304.167-8.549-3.109-9.676-4.487q-.15-.247-.292-.507h.743v-.71h-1.935v-.838h1.935v-.71h-9.696v-1.776h-.966a31 31 0 0 0 3.03-1.154l3.883-1.724v-1.807s-4.515 1.38-9.493 1.07l.08-.016c6.787-.42 10.451-2.461 10.613-2.552l-1.05-.977q-.413.219-.86.403v-.362c-.01-.16-.105-.31-.263-.42a1.05 1.05 0 0 0-.59-.172c-.219 0-.43.062-.589.172s-.253.26-.263.42v.986q-.49.156-1.066.31v-.618a.47.47 0 0 0-.053-.246.6.6 0 0 0-.182-.211.9.9 0 0 0-.282-.142 1.14 1.14 0 0 0-.671 0 .9.9 0 0 0-.282.142.65.65 0 0 0-.182.21.5.5 0 0 0-.053.247v1.016q-.449.09-.931.173v-.682a.5.5 0 0 0-.053-.246.64.64 0 0 0-.183-.211.9.9 0 0 0-.281-.142 1.14 1.14 0 0 0-.671 0 .9.9 0 0 0-.282.142.6.6 0 0 0-.182.21.46.46 0 0 0-.053.247v.921a33 33 0 0 1-.977.1v-.695c0-.164-.09-.321-.249-.437a1.04 1.04 0 0 0-.603-.181c-.225 0-.442.065-.602.18-.16.117-.249.274-.249.438v.79h-.154c-5.299.166-8.542-3.1-9.673-4.476a12 12 0 0 1-.295-.512h.743v-.71h-1.935v-.839h1.935v-.71h-3.967V5.187h-4.106V2.833h-1.913V.72h-4.829v2.57h3.316V1.62h-2.08v.465h1.44v.738h-2.038V1.182h3.551v2.469h-4.807V.719h-5.159v1.52h-.378V.462h5.519V0h-11.843v.463h5.686v1.771h-.564V.72h-5.158v2.93h-4.809V1.182h3.551v1.642h-2.037v-.738h1.439V1.62h-2.076v1.668h3.316V.719h-4.82v2.114h-1.923v2.35h-4.108V6.31h-3.923v.71h1.8v.838h-1.792v.71h.743q-.144.263-.296.512c-1.131 1.382-4.374 4.649-9.674 4.476h-.152v-.79c0-.164-.09-.321-.25-.437a1.03 1.03 0 0 0-.602-.181c-.226 0-.442.065-.602.18-.16.117-.25.274-.25.438v.694a33 33 0 0 1-.976-.099v-.917a.5.5 0 0 0-.053-.246.64.64 0 0 0-.183-.211.9.9 0 0 0-.281-.142 1.14 1.14 0 0 0-.671 0 .9.9 0 0 0-.282.142.6.6 0 0 0-.182.21.47.47 0 0 0-.053.247v.673a25 25 0 0 1-.933-.173V11.93c0-.165-.09-.322-.25-.438a1.03 1.03 0 0 0-.602-.181c-.226 0-.443.065-.602.181-.16.116-.25.274-.25.438v.618a24 24 0 0 1-1.065-.31v-.977c-.01-.16-.105-.31-.263-.42a1.05 1.05 0 0 0-.59-.172c-.219 0-.43.062-.589.172s-.253.26-.263.42v.366q-.445-.18-.859-.395l-1.051.976c.159.09 3.823 2.132 10.613 2.551l.079.016c-4.977.31-9.493-1.07-9.493-1.07v1.807l3.884 1.725q1.463.649 3.029 1.153h-.822v1.794h-9.695v.71h1.934v.838h-1.943v.71h.741q-.142.26-.291.507c-1.127 1.378-4.373 4.654-9.676 4.487h-.153v-.79c-.01-.16-.104-.31-.263-.42a1.04 1.04 0 0 0-.589-.172c-.22 0-.431.061-.59.172s-.253.26-.263.42v.678a38 38 0 0 1-.976-.098v-.912c-.01-.16-.105-.31-.263-.42a1.05 1.05 0 0 0-.59-.172c-.219 0-.43.062-.589.172s-.253.26-.263.42v.673a25 25 0 0 1-.932-.173v-1.016a.47.47 0 0 0-.053-.246.6.6 0 0 0-.182-.211.9.9 0 0 0-.282-.142 1.13 1.13 0 0 0-.671 0 .9.9 0 0 0-.282.142.65.65 0 0 0-.182.21.5.5 0 0 0-.053.247v.619a25 25 0 0 1-1.065-.311v-.986c0-.165-.09-.322-.25-.438a1.03 1.03 0 0 0-.602-.181c-.226 0-.442.065-.602.181s-.25.273-.25.438v.36q-.444-.18-.862-.395l-1.049.976c.161.09 3.825 2.133 10.613 2.552l.079.017c-4.977.31-9.491-1.07-9.491-1.07v1.806l3.881 1.725c4.15 1.841 8.918 2.816 13.781 2.816h-3.731v.708h1.67V55.48h-.639v1.335h-.923v3.07h7.596v-3.07h-.92v-1.344h-.64V36.364h19.013v19.223h-.639v1.344h-.921v3.068h7.596V56.93h-.922v-1.344h-.638V31.492h.763v.966h4.012v-3.513h2.808v1.38h-1.616v-.527h.496v.207h.64v-.67h-1.776v1.457h2.899v-.922h25.888v.922h2.9v-1.46h-1.776v.67h.638v-.207h.498v.527h-1.616v-1.377h2.805v3.513h4.013v-.964h.763v24.094h-.64v1.344h-.92V60h7.596v-3.068h-.928v-1.344h-.64V36.365h19.157v19.111h-.64v1.34h-.92v3.068h7.596v-3.069h-.923v-1.344h-.638V34.609h1.669v-.703h-3.731c4.86-.002 9.625-.977 13.772-2.818l3.883-1.725v-1.811s-4.519 1.38-9.49 1.07m-37.689-2.02V25.44h1.473v.395h-.408v-.191h-.639v.658h1.687v-.322h1.366v.628zm-38.849 0v-.628h1.449v.323h1.685v-.658h-.628v.19h-.408v-.394h1.475v1.162zm-4.712-5.72v.838h-1.48v-.838zm10.563-13.858v.839h-1.492v-.839zm32.603 14.769v-1.046h1.491v1.046zm2.504 2.29V23.6h1.366v1.907h-1.366v-.534h-1.066v-.888zm-1.705.89h-1.051v.533h-1.439v-1.903h1.439v.485h1.047zm-36.097 0v-.89h1.047V23.6h1.35v1.907h-1.35v-.534zm-1.703 0v.533h-1.45v-1.903h1.45v.485h1.065v.888zm34.87-3.18v-1.046h1.491v1.046zm-.64 0h-1.491v-1.046h1.491zm-2.131 0h-1.491v-1.046h1.491zm-2.129 0H297.5v-1.046h1.493zm-2.131 0h-1.491v-1.046h1.491zm-2.131 0h-1.491v-1.046h1.491zm-2.13 0h-1.492v-1.046h1.492zm-2.131 0h-1.492v-1.046h1.492zm-2.131 0h-1.492v-1.046h1.492zm-2.137 0h-1.491v-1.046h1.491zm-2.131 0h-1.493v-1.046h1.492zm-2.129 0h-1.491v-1.046h1.491zm-2.131 0h-1.491v-1.046h1.491zm-2.125 0h-1.491v-1.046h1.491zm-2.131 0h-1.493v-1.046h1.491zm-2.131 0h-1.491v-1.046h1.491zm-2.131 0h-1.491v-1.046h1.491zm-2.123 0h-1.597v-1.046h1.597zm1.973.71v1.117h-1.475v-.395h.408v.191h.639v-.658h-1.685v.371h-1.449v-.632zm1.993.631h-1.35v-.631h1.35zm32.652 0h-1.439v-.631h1.423zm-18.941-13.73v8.102a.22.22 0 0 1-.101.153.4.4 0 0 1-.218.062.4.4 0 0 1-.218-.062.21.21 0 0 1-.102-.153V9.403a.21.21 0 0 1 .102-.153.4.4 0 0 1 .218-.062c.081 0 .158.022.218.062.059.04.095.095.101.153m-2.13 0v8.102a.22.22 0 0 1-.102.153.4.4 0 0 1-.218.062.4.4 0 0 1-.218-.062.21.21 0 0 1-.102-.153V9.403a.21.21 0 0 1 .102-.153.4.4 0 0 1 .218-.062c.081 0 .159.022.218.062a.22.22 0 0 1 .102.153m-2.131 0v8.102c0 .061-.034.12-.094.164a.4.4 0 0 1-.225.068.4.4 0 0 1-.226-.068.2.2 0 0 1-.093-.164V9.403c0-.061.033-.12.093-.164a.4.4 0 0 1 .226-.067c.084 0 .165.024.225.067s.094.103.094.164m-2.129 0v8.102a.22.22 0 0 1-.102.153.4.4 0 0 1-.218.062.4.4 0 0 1-.218-.062.21.21 0 0 1-.102-.153V9.403a.21.21 0 0 1 .102-.153.4.4 0 0 1 .218-.062c.081 0 .159.022.218.062a.22.22 0 0 1 .102.153m-2.131 0v8.102a.22.22 0 0 1-.102.153.4.4 0 0 1-.218.062.4.4 0 0 1-.218-.062.21.21 0 0 1-.102-.153V9.403a.21.21 0 0 1 .102-.153.4.4 0 0 1 .218-.062c.081 0 .159.022.218.062s.096.095.102.153m-2.131 0v8.102a.22.22 0 0 1-.102.153.4.4 0 0 1-.218.062.4.4 0 0 1-.218-.062.22.22 0 0 1-.102-.153V9.403a.22.22 0 0 1 .102-.153.4.4 0 0 1 .218-.062c.081 0 .159.022.218.062s.096.095.102.153m-2.131 0v8.102a.22.22 0 0 1-.102.153.4.4 0 0 1-.218.062.4.4 0 0 1-.218-.062.22.22 0 0 1-.102-.153V9.403a.22.22 0 0 1 .102-.153.4.4 0 0 1 .218-.062c.081 0 .159.022.218.062s.096.095.102.153m-2.131 0v8.102a.21.21 0 0 1-.102.153.4.4 0 0 1-.218.062.4.4 0 0 1-.218-.062.22.22 0 0 1-.102-.153V9.403a.22.22 0 0 1 .102-.153.4.4 0 0 1 .218-.062c.081 0 .159.022.218.062.06.04.096.095.102.153m35.901.962a.4.4 0 0 1 .227.068c.06.044.094.103.094.165v6.907a.22.22 0 0 1-.102.153.4.4 0 0 1-.218.062.4.4 0 0 1-.218-.062.21.21 0 0 1-.102-.153V10.6a.2.2 0 0 1 .023-.09.24.24 0 0 1 .068-.076.4.4 0 0 1 .105-.051.4.4 0 0 1 .123-.018m-1.812-.963v8.103a.21.21 0 0 1-.102.153.4.4 0 0 1-.218.062.4.4 0 0 1-.218-.062.22.22 0 0 1-.102-.153V9.403a.22.22 0 0 1 .102-.153.4.4 0 0 1 .218-.062c.081 0 .159.022.218.062.06.04.096.095.102.153m-2.131 0v8.103a.21.21 0 0 1-.102.153.4.4 0 0 1-.218.062.4.4 0 0 1-.218-.062.22.22 0 0 1-.102-.153V9.403a.22.22 0 0 1 .102-.153.4.4 0 0 1 .218-.062c.081 0 .159.022.218.062.06.04.096.095.102.153m-2.131 0v8.103a.21.21 0 0 1-.102.153.4.4 0 0 1-.218.062.4.4 0 0 1-.218-.062.22.22 0 0 1-.101-.153V9.403a.22.22 0 0 1 .101-.153.4.4 0 0 1 .218-.062c.081 0 .159.022.218.062.06.04.096.095.102.153m-2.131 0v8.103c0 .061-.033.12-.093.164a.4.4 0 0 1-.226.068.4.4 0 0 1-.225-.068c-.06-.044-.094-.103-.094-.164V9.403c0-.061.034-.12.094-.164a.4.4 0 0 1 .225-.067c.085 0 .166.024.226.067s.093.103.093.164m-2.131 0v8.103c0 .061-.033.12-.093.164a.4.4 0 0 1-.226.068.4.4 0 0 1-.225-.068.2.2 0 0 1-.093-.164V9.403c0-.061.033-.12.093-.164a.4.4 0 0 1 .225-.067c.085 0 .166.024.226.067s.093.103.093.164m-2.129 0v8.103a.22.22 0 0 1-.101.153.4.4 0 0 1-.219.062.4.4 0 0 1-.218-.062.22.22 0 0 1-.101-.153V9.403a.22.22 0 0 1 .101-.153.4.4 0 0 1 .218-.062c.081 0 .159.022.219.062.059.04.095.095.101.153m-2.131 0v8.103a.22.22 0 0 1-.101.153.4.4 0 0 1-.218.062.4.4 0 0 1-.219-.062.22.22 0 0 1-.101-.153V9.403a.22.22 0 0 1 .101-.153.4.4 0 0 1 .219-.062c.08 0 .158.022.218.062.059.04.095.095.101.153m-2.131 0v8.103a.22.22 0 0 1-.101.153.4.4 0 0 1-.218.062.4.4 0 0 1-.218-.062.21.21 0 0 1-.102-.153V9.403a.21.21 0 0 1 .102-.153.4.4 0 0 1 .218-.062c.081 0 .158.022.218.062.059.04.095.095.101.153m-2.77 0a.21.21 0 0 1 .102-.153.4.4 0 0 1 .218-.062c.081 0 .159.022.218.062a.22.22 0 0 1 .102.153v8.103a.22.22 0 0 1-.102.153.4.4 0 0 1-.218.062.4.4 0 0 1-.218-.062.21.21 0 0 1-.102-.153zm21.307 8.103V12.05a.22.22 0 0 1 .102-.154.4.4 0 0 1 .218-.062c.081 0 .159.022.218.062s.096.095.102.154v5.462a.22.22 0 0 1-.102.154.4.4 0 0 1-.218.062.4.4 0 0 1-.218-.062.22.22 0 0 1-.102-.154zM279.815 7.024v.839h-1.491v-.839zm.64 0h1.491v.839h-1.491zm2.129 0h1.491v.839h-1.497zm2.131 0h1.487v.839h-1.491zm2.131 0h1.491v.839h-1.491zm10.652.839v-.839h1.493v.839zm-.637 0h-1.492v-.839h1.492zm-2.131 0h-1.492v-.839h1.492zm-2.131 0h-1.492v-.839h1.492zm-2.131 0h-1.491v-.839h1.491zm13.423 0v-.839h1.491v.839zm-.64 0h-1.491v-.839h1.491zm-2.13 0h-1.492v-.839h1.492zm-23.437 0h-1.491v-.839h1.493zm-2.131 0h-1.491v-.839h1.491zm-5.751 2.738v6.908a.21.21 0 0 1-.102.153.4.4 0 0 1-.218.062.4.4 0 0 1-.218-.062.22.22 0 0 1-.102-.153V10.6a.2.2 0 0 1 .017-.094.24.24 0 0 1 .068-.082.3.3 0 0 1 .107-.055.42.42 0 0 1 .257 0 .3.3 0 0 1 .106.056.24.24 0 0 1 .068.081q.022.046.017.095m-2.131 1.449v5.462c0 .062-.033.12-.093.164a.4.4 0 0 1-.226.068.4.4 0 0 1-.225-.068c-.06-.043-.094-.102-.094-.163V12.05c0-.062.034-.12.094-.164a.4.4 0 0 1 .225-.068.4.4 0 0 1 .226.068c.06.043.093.102.093.164m4.102 13.931h1.35v.628h-1.35zm32.564 0h1.435v.628h-1.439zm5.557-2.836h-1.366v-.378h-1.687v.658h.64v-.19h.407v.395h-1.473v-1.118h3.479zm0-1.342h-1.739v-1.045h1.739zm-2.379-13.94h-1.491v-.839h1.491zm-7.411-3.747V3.3h1.268v2.35h4.108v.658h-5.092V4.521h-2.864v-.405zm-10.606-1.414v1.412h3.469V1.596h-2.454V2.93h.64v-.87h1.176v1.59h-2.191V1.182h3.88v2.934h2.875v.405h-7.773v-1.82zm-6.099 1.412V1.182h3.891v2.469h-2.191v-1.59h1.176v.87h.638V1.596h-2.454v2.52h3.468V2.702h.564V4.52h-7.953v-.406zm-11.466 1.537h4.108v-2.35h1.268v.815h2.575v.405h-2.682v1.794h-5.269zm-2.131 1.373h1.491v.839h-1.491zm-9.071 13.858v.838h-1.491v-.838zm-2.131 0v.838h-1.491v-.838zm-2.129 0v.838h-1.491v-.838zm-3.624 0h1.492v.838h-1.492zm-2.131 0h1.492v.838h-1.492zm-2.131 0h1.492v.838h-1.492zm-2.13 0h1.491v.838h-1.491zm-2.45 10.713a.4.4 0 0 1-.123-.017.4.4 0 0 1-.104-.05.3.3 0 0 1-.07-.076.2.2 0 0 1-.024-.089v-5.462a.21.21 0 0 1 .102-.154.4.4 0 0 1 .218-.062c.081 0 .159.022.218.062s.096.095.102.154v5.462c0 .062-.034.12-.093.164a.4.4 0 0 1-.224.068zm1.812 4.06h-1.74v-1.046h1.74zm.639-4.292a.22.22 0 0 1-.101.154.4.4 0 0 1-.218.062.4.4 0 0 1-.219-.062.22.22 0 0 1-.101-.154v-6.907a.17.17 0 0 1 .017-.094.2.2 0 0 1 .067-.082.3.3 0 0 1 .107-.055.43.43 0 0 1 .257 0q.061.02.107.055t.067.082q.023.046.017.094zm1.492 4.291h-1.492V34.61h1.492zm.639-4.29a.22.22 0 0 1-.101.153.4.4 0 0 1-.219.062.4.4 0 0 1-.218-.062.22.22 0 0 1-.101-.154v-8.102a.22.22 0 0 1 .101-.153.4.4 0 0 1 .218-.063c.081 0 .159.022.219.063.059.04.095.094.101.153zm1.492 4.29h-1.492V34.61h1.492zm.639-4.29a.21.21 0 0 1-.102.153.4.4 0 0 1-.218.062.4.4 0 0 1-.218-.062.22.22 0 0 1-.101-.154v-8.102a.22.22 0 0 1 .101-.153.4.4 0 0 1 .218-.063c.081 0 .159.022.218.063.06.04.096.094.102.153zm1.491 4.29h-1.491V34.61h1.491zm.64-4.29a.21.21 0 0 1-.102.153.4.4 0 0 1-.218.062.4.4 0 0 1-.218-.062.22.22 0 0 1-.102-.154v-8.102a.22.22 0 0 1 .102-.153.4.4 0 0 1 .218-.063c.081 0 .159.022.218.063.06.04.096.094.102.153zm1.491 4.29h-1.491V34.61h1.491zm.64-4.29a.21.21 0 0 1-.102.153.4.4 0 0 1-.218.062.4.4 0 0 1-.218-.062.22.22 0 0 1-.102-.154v-8.102a.22.22 0 0 1 .102-.153.4.4 0 0 1 .218-.063c.081 0 .159.022.218.063.06.04.096.094.102.153zm1.491 4.29h-1.491V34.61h1.491zm.638-4.29c0 .06-.034.12-.093.163a.4.4 0 0 1-.226.068.4.4 0 0 1-.225-.068.2.2 0 0 1-.094-.164v-8.102c0-.062.034-.12.094-.164a.4.4 0 0 1 .225-.068c.085 0 .166.024.226.068a.2.2 0 0 1 .093.164zm1.491 4.29h-1.491V34.61h1.491zm.64-4.29a.21.21 0 0 1-.102.153.4.4 0 0 1-.218.062.4.4 0 0 1-.218-.062.22.22 0 0 1-.102-.154v-8.102a.22.22 0 0 1 .102-.153.4.4 0 0 1 .218-.063c.081 0 .159.022.218.063.06.04.096.094.102.153zm1.491 4.29h-1.491V34.61h1.491zm.647-4.29a.21.21 0 0 1-.102.153.4.4 0 0 1-.218.062.4.4 0 0 1-.218-.062.22.22 0 0 1-.102-.154v-8.102a.22.22 0 0 1 .102-.153.4.4 0 0 1 .218-.063c.081 0 .159.022.218.063.06.04.096.094.102.153zm1.491 4.29h-1.491V34.61h1.491zm0-4.29V23.26a.2.2 0 0 1 .064-.138.34.34 0 0 1 .165-.083v8.545a.34.34 0 0 1-.169-.082.2.2 0 0 1-.067-.14zm4.712-.339v-3.713h1.993v2.703h-1.225v1.01zm4.125-2.545v3.509h-2.737v-1.506h1.792v.696h-.568v-.36h-.639v.825h1.846v-1.629h-1.207v-2.703h2.93v.743h.363v.425zm4.083.465h1.716v.455h-1.723zm23.03 0v.455h-1.491v-.455zm-2.131.455h-1.491v-.455h1.491zm-2.131 0h-1.491v-.455h1.491zm-2.13 0h-1.492v-.455h1.492zm-2.131 0h-1.492v-.455h1.492zm-2.131 0h-1.491v-.455h1.491zm-2.131 0h-1.491v-.455h1.491zm-2.129 0h-1.493v-.455h1.493zm-2.131 0h-1.491v-.455h1.491zm-2.131 0h-1.491v-.455h1.491zm19.814 0v-.455h2.22v.455zm2.537-.921h-27.859v-.426h29.191v.426zm6.496 3.51h-2.734V28.48h-1.796v-.425h.373v-.743h2.93v2.703h-1.207v1.626h1.847v-.825h-.64v.36h-.569v-.693h1.794zm.64-.964v-1.01h-1.225v-2.703h1.993v3.713zm5.289.57h-.053v-8.558h.053c.084 0 .165.024.225.068.06.043.094.102.094.164v8.102a.21.21 0 0 1-.097.159.4.4 0 0 1-.22.065zm1.812 4.06h-1.492v-1.046h1.492zm0-13.935h-1.492v-.838h1.492zm.319 9.875a.4.4 0 0 1-.226-.068.2.2 0 0 1-.093-.164v-8.102a.22.22 0 0 1 .101-.153.4.4 0 0 1 .219-.063.4.4 0 0 1 .218.063c.059.04.095.094.101.153v8.102a.2.2 0 0 1-.024.09.24.24 0 0 1-.07.075.4.4 0 0 1-.104.05.4.4 0 0 1-.122.017m1.812 4.06h-1.492v-1.046h1.492zm0-13.935h-1.492v-.838h1.492zm.319 9.875a.4.4 0 0 1-.226-.068.2.2 0 0 1-.093-.164v-8.102a.22.22 0 0 1 .101-.153.4.4 0 0 1 .218-.063c.081 0 .159.022.219.063.059.04.095.094.101.153v8.102a.2.2 0 0 1-.024.09.24.24 0 0 1-.07.075.4.4 0 0 1-.104.05.4.4 0 0 1-.122.017m1.812 4.06h-1.494v-1.046h1.492zm0-13.935h-1.494v-.838h1.492zm.318 9.875a.4.4 0 0 1-.225-.068.2.2 0 0 1-.093-.164v-8.102a.22.22 0 0 1 .101-.153.4.4 0 0 1 .218-.063c.081 0 .159.022.218.063.06.04.096.094.102.153v8.102a.2.2 0 0 1-.024.09.24.24 0 0 1-.07.075.4.4 0 0 1-.104.05.4.4 0 0 1-.123.017m1.812 4.06h-1.491v-1.046h1.491zm0-13.935h-1.491v-.838h1.491zm.319 9.875a.4.4 0 0 1-.225-.068.2.2 0 0 1-.094-.164v-8.102c0-.062.034-.12.094-.164a.4.4 0 0 1 .225-.068c.085 0 .166.024.226.068.06.043.093.102.093.164v8.102c0 .062-.033.12-.093.164a.4.4 0 0 1-.226.068m1.812 4.06h-1.491v-1.046h1.491zm0-13.935h-1.491v-.838h1.491zm.321 9.875a.4.4 0 0 1-.123-.017.4.4 0 0 1-.104-.05.3.3 0 0 1-.069-.076.2.2 0 0 1-.025-.089v-8.102a.22.22 0 0 1 .102-.153.4.4 0 0 1 .218-.063c.081 0 .159.022.218.063.06.04.096.094.102.153v8.102a.2.2 0 0 1-.024.09.3.3 0 0 1-.07.075.4.4 0 0 1-.104.05.4.4 0 0 1-.123.017zm1.812 4.06h-1.491v-1.046h1.491zm0-13.935h-1.491v-.838h1.491zm.321 9.875a.4.4 0 0 1-.123-.017.4.4 0 0 1-.104-.05.3.3 0 0 1-.07-.076.2.2 0 0 1-.024-.089v-8.102a.21.21 0 0 1 .102-.153.4.4 0 0 1 .218-.063c.081 0 .159.022.218.063.059.04.096.094.102.153v8.102q0 .047-.025.09a.24.24 0 0 1-.07.075.4.4 0 0 1-.105.05.4.4 0 0 1-.123.017zm1.812 4.06h-1.504v-1.046h1.491zm0-13.935h-1.504v-.838h1.491zm.32 9.875a.4.4 0 0 1-.122-.017.4.4 0 0 1-.104-.05.24.24 0 0 1-.07-.076.2.2 0 0 1-.024-.089v-8.102a.22.22 0 0 1 .101-.153.4.4 0 0 1 .219-.063.4.4 0 0 1 .218.063c.059.04.095.094.101.153v8.102a.2.2 0 0 1-.025.091.3.3 0 0 1-.072.077.4.4 0 0 1-.108.05.4.4 0 0 1-.126.014zm1.812 4.06h-1.491v-1.046h1.479zm0-13.935h-1.491v-.838h1.479zm.319 9.875a.4.4 0 0 1-.225-.068.2.2 0 0 1-.094-.164v-6.907a.2.2 0 0 1 .018-.094.2.2 0 0 1 .067-.082.3.3 0 0 1 .107-.055.42.42 0 0 1 .363.055.24.24 0 0 1 .068.082q.022.046.017.094v6.907a.2.2 0 0 1-.025.09.3.3 0 0 1-.071.077.4.4 0 0 1-.107.05.4.4 0 0 1-.125.015zm2.061 4.06h-1.74v-1.046h1.74zm.391-4.292a.21.21 0 0 1-.102.154.4.4 0 0 1-.218.062.4.4 0 0 1-.218-.062.22.22 0 0 1-.102-.154v-5.462a.22.22 0 0 1 .102-.154.4.4 0 0 1 .218-.062c.081 0 .159.022.218.062.06.04.096.095.102.154z"/></mask><path stroke="#f2dd7c" stroke-width="8" d="m344.108 28.622.08-.017c6.788-.419 10.452-2.46 10.613-2.552l-1.049-.975q-.416.214-.861.395v-.366c-.01-.16-.104-.31-.263-.42a1.05 1.05 0 0 0-.59-.172c-.219 0-.43.062-.589.172s-.253.26-.263.42v.986a25 25 0 0 1-1.066.31v-.618a.46.46 0 0 0-.053-.246.6.6 0 0 0-.182-.211.9.9 0 0 0-.281-.142 1.14 1.14 0 0 0-.672 0 .9.9 0 0 0-.281.142.6.6 0 0 0-.182.21.47.47 0 0 0-.054.247V26.8q-.447.09-.931.173V26.3c-.01-.16-.104-.31-.263-.42a1.05 1.05 0 0 0-.59-.172c-.219 0-.43.062-.589.172s-.253.26-.263.42v.912q-.475.054-.977.098v-.694c0-.164-.09-.322-.249-.438a1.04 1.04 0 0 0-.602-.18c-.226 0-.443.064-.603.18s-.249.274-.249.438v.79h-.154c-5.304.167-8.549-3.109-9.676-4.487q-.15-.247-.292-.507h.743v-.71h-1.935v-.838h1.935v-.71h-9.696v-1.776h-.966a31 31 0 0 0 3.03-1.154l3.883-1.724v-1.807s-4.515 1.38-9.493 1.07l.08-.016c6.787-.42 10.451-2.461 10.613-2.552l-1.05-.977q-.413.219-.86.403v-.362c-.01-.16-.105-.31-.263-.42a1.05 1.05 0 0 0-.59-.172c-.219 0-.43.062-.589.172s-.253.26-.263.42v.986q-.49.156-1.066.31v-.618a.47.47 0 0 0-.053-.246.6.6 0 0 0-.182-.211.9.9 0 0 0-.282-.142 1.14 1.14 0 0 0-.671 0 .9.9 0 0 0-.282.142.65.65 0 0 0-.182.21.5.5 0 0 0-.053.247v1.016q-.449.09-.931.173v-.682a.5.5 0 0 0-.053-.246.64.64 0 0 0-.183-.211.9.9 0 0 0-.281-.142 1.14 1.14 0 0 0-.671 0 .9.9 0 0 0-.282.142.6.6 0 0 0-.182.21.46.46 0 0 0-.053.247v.921a33 33 0 0 1-.977.1v-.695c0-.164-.09-.321-.249-.437a1.04 1.04 0 0 0-.603-.181c-.225 0-.442.065-.602.18-.16.117-.249.274-.249.438v.79h-.154c-5.299.166-8.542-3.1-9.673-4.476a12 12 0 0 1-.295-.512h.743v-.71h-1.935v-.839h1.935v-.71h-3.967V5.187h-4.106V2.833h-1.913V.72h-4.829v2.57h3.316V1.62h-2.08v.465h1.44v.738h-2.038V1.182h3.551v2.469h-4.807V.719h-5.159v1.52h-.378V.462h5.519V0h-11.843v.463h5.686v1.771h-.564V.72h-5.158v2.93h-4.809V1.182h3.551v1.642h-2.037v-.738h1.439V1.62h-2.076v1.668h3.316V.719h-4.82v2.114h-1.923v2.35h-4.108V6.31h-3.923v.71h1.8v.838h-1.792v.71h.743q-.144.263-.296.512c-1.131 1.382-4.374 4.649-9.674 4.476h-.152v-.79c0-.164-.09-.321-.25-.437a1.03 1.03 0 0 0-.602-.181c-.226 0-.442.065-.602.18-.16.117-.25.274-.25.438v.694a33 33 0 0 1-.976-.099v-.917a.5.5 0 0 0-.053-.246.64.64 0 0 0-.183-.211.9.9 0 0 0-.281-.142 1.14 1.14 0 0 0-.671 0 .9.9 0 0 0-.282.142.6.6 0 0 0-.182.21.47.47 0 0 0-.053.247v.673a25 25 0 0 1-.933-.173V11.93c0-.165-.09-.322-.25-.438a1.03 1.03 0 0 0-.602-.181c-.226 0-.443.065-.602.181-.16.116-.25.274-.25.438v.618a24 24 0 0 1-1.065-.31v-.977c-.01-.16-.105-.31-.263-.42a1.05 1.05 0 0 0-.59-.172c-.219 0-.43.062-.589.172s-.253.26-.263.42v.366q-.445-.18-.859-.395l-1.051.976c.159.09 3.823 2.132 10.613 2.551l.079.016c-4.977.31-9.493-1.07-9.493-1.07v1.807l3.884 1.725q1.463.649 3.029 1.153h-.822v1.794h-9.695v.71h1.934v.838h-1.943v.71h.741q-.142.26-.291.507c-1.127 1.378-4.373 4.654-9.676 4.487h-.153v-.79c-.01-.16-.104-.31-.263-.42a1.04 1.04 0 0 0-.589-.172c-.22 0-.431.061-.59.172s-.253.26-.263.42v.678a38 38 0 0 1-.976-.098v-.912c-.01-.16-.105-.31-.263-.42a1.05 1.05 0 0 0-.59-.172c-.219 0-.43.062-.589.172s-.253.26-.263.42v.673a25 25 0 0 1-.932-.173v-1.016a.47.47 0 0 0-.053-.246.6.6 0 0 0-.182-.211.9.9 0 0 0-.282-.142 1.13 1.13 0 0 0-.671 0 .9.9 0 0 0-.282.142.65.65 0 0 0-.182.21.5.5 0 0 0-.053.247v.619a25 25 0 0 1-1.065-.311v-.986c0-.165-.09-.322-.25-.438a1.03 1.03 0 0 0-.602-.181c-.226 0-.442.065-.602.181s-.25.273-.25.438v.36q-.444-.18-.862-.395l-1.049.976c.161.09 3.825 2.133 10.613 2.552l.079.017c-4.977.31-9.491-1.07-9.491-1.07v1.806l3.881 1.725c4.15 1.841 8.918 2.816 13.781 2.816h-3.731v.708h1.67V55.48h-.639v1.335h-.923v3.07h7.596v-3.07h-.92v-1.344h-.64V36.364h19.013v19.223h-.639v1.344h-.921v3.068h7.596V56.93h-.922v-1.344h-.638V31.492h.763v.966h4.012v-3.513h2.808v1.38h-1.616v-.527h.496v.207h.64v-.67h-1.776v1.457h2.899v-.922h25.888v.922h2.9v-1.46h-1.776v.67h.638v-.207h.498v.527h-1.616v-1.377h2.805v3.513h4.013v-.964h.763v24.094h-.64v1.344h-.92V60h7.596v-3.068h-.928v-1.344h-.64V36.365h19.157v19.111h-.64v1.34h-.92v3.068h7.596v-3.069h-.923v-1.344h-.638V34.609h1.669v-.703h-3.731c4.86-.002 9.625-.977 13.772-2.818l3.883-1.725v-1.811s-4.519 1.38-9.49 1.07Zm-37.689-2.02V25.44h1.473v.395h-.408v-.191h-.639v.658h1.687v-.322h1.366v.628zm-38.849 0v-.628h1.449v.323h1.685v-.658h-.628v.19h-.408v-.394h1.475v1.162zm-4.712-5.72v.838h-1.48v-.838zm10.563-13.858v.839h-1.492v-.839zm32.603 14.769v-1.046h1.491v1.046zm2.504 2.29V23.6h1.366v1.907h-1.366v-.534h-1.066v-.888zm-1.705.89h-1.051v.533h-1.439v-1.903h1.439v.485h1.047zm-36.097 0v-.89h1.047V23.6h1.35v1.907h-1.35v-.534zm-1.703 0v.533h-1.45v-1.903h1.45v.485h1.065v.888zm34.87-3.18v-1.046h1.491v1.046zm-.64 0h-1.491v-1.046h1.491zm-2.131 0h-1.491v-1.046h1.491zm-2.129 0H297.5v-1.046h1.493zm-2.131 0h-1.491v-1.046h1.491zm-2.131 0h-1.491v-1.046h1.491zm-2.13 0h-1.492v-1.046h1.492zm-2.131 0h-1.492v-1.046h1.492zm-2.131 0h-1.492v-1.046h1.492zm-2.137 0h-1.491v-1.046h1.491zm-2.131 0h-1.493v-1.046h1.492zm-2.129 0h-1.491v-1.046h1.491zm-2.131 0h-1.491v-1.046h1.491zm-2.125 0h-1.491v-1.046h1.491zm-2.131 0h-1.493v-1.046h1.491zm-2.131 0h-1.491v-1.046h1.491zm-2.131 0h-1.491v-1.046h1.491zm-2.123 0h-1.597v-1.046h1.597zm1.973.71v1.117h-1.475v-.395h.408v.191h.639v-.658h-1.685v.371h-1.449v-.632zm1.993.631h-1.35v-.631h1.35zm32.652 0h-1.439v-.631h1.423zm-18.941-13.73v8.102a.22.22 0 0 1-.101.153.4.4 0 0 1-.218.062.4.4 0 0 1-.218-.062.21.21 0 0 1-.102-.153V9.403a.21.21 0 0 1 .102-.153.4.4 0 0 1 .218-.062c.081 0 .158.022.218.062.059.04.095.095.101.153Zm-2.13 0v8.102a.22.22 0 0 1-.102.153.4.4 0 0 1-.218.062.4.4 0 0 1-.218-.062.21.21 0 0 1-.102-.153V9.403a.21.21 0 0 1 .102-.153.4.4 0 0 1 .218-.062c.081 0 .159.022.218.062a.22.22 0 0 1 .102.153Zm-2.131 0v8.102c0 .061-.034.12-.094.164a.4.4 0 0 1-.225.068.4.4 0 0 1-.226-.068.2.2 0 0 1-.093-.164V9.403c0-.061.033-.12.093-.164a.4.4 0 0 1 .226-.067c.084 0 .165.024.225.067s.094.103.094.164Zm-2.129 0v8.102a.22.22 0 0 1-.102.153.4.4 0 0 1-.218.062.4.4 0 0 1-.218-.062.21.21 0 0 1-.102-.153V9.403a.21.21 0 0 1 .102-.153.4.4 0 0 1 .218-.062c.081 0 .159.022.218.062a.22.22 0 0 1 .102.153Zm-2.131 0v8.102a.22.22 0 0 1-.102.153.4.4 0 0 1-.218.062.4.4 0 0 1-.218-.062.21.21 0 0 1-.102-.153V9.403a.21.21 0 0 1 .102-.153.4.4 0 0 1 .218-.062c.081 0 .159.022.218.062s.096.095.102.153Zm-2.131 0v8.102a.22.22 0 0 1-.102.153.4.4 0 0 1-.218.062.4.4 0 0 1-.218-.062.22.22 0 0 1-.102-.153V9.403a.22.22 0 0 1 .102-.153.4.4 0 0 1 .218-.062c.081 0 .159.022.218.062s.096.095.102.153Zm-2.131 0v8.102a.22.22 0 0 1-.102.153.4.4 0 0 1-.218.062.4.4 0 0 1-.218-.062.22.22 0 0 1-.102-.153V9.403a.22.22 0 0 1 .102-.153.4.4 0 0 1 .218-.062c.081 0 .159.022.218.062s.096.095.102.153Zm-2.131 0v8.102a.21.21 0 0 1-.102.153.4.4 0 0 1-.218.062.4.4 0 0 1-.218-.062.22.22 0 0 1-.102-.153V9.403a.22.22 0 0 1 .102-.153.4.4 0 0 1 .218-.062c.081 0 .159.022.218.062.06.04.096.095.102.153Zm35.901.962a.4.4 0 0 1 .227.068c.06.044.094.103.094.165v6.907a.22.22 0 0 1-.102.153.4.4 0 0 1-.218.062.4.4 0 0 1-.218-.062.21.21 0 0 1-.102-.153V10.6a.2.2 0 0 1 .023-.09.24.24 0 0 1 .068-.076.4.4 0 0 1 .105-.051.4.4 0 0 1 .123-.018Zm-1.812-.963v8.103a.21.21 0 0 1-.102.153.4.4 0 0 1-.218.062.4.4 0 0 1-.218-.062.22.22 0 0 1-.102-.153V9.403a.22.22 0 0 1 .102-.153.4.4 0 0 1 .218-.062c.081 0 .159.022.218.062.06.04.096.095.102.153Zm-2.131 0v8.103a.21.21 0 0 1-.102.153.4.4 0 0 1-.218.062.4.4 0 0 1-.218-.062.22.22 0 0 1-.102-.153V9.403a.22.22 0 0 1 .102-.153.4.4 0 0 1 .218-.062c.081 0 .159.022.218.062.06.04.096.095.102.153Zm-2.131 0v8.103a.21.21 0 0 1-.102.153.4.4 0 0 1-.218.062.4.4 0 0 1-.218-.062.22.22 0 0 1-.101-.153V9.403a.22.22 0 0 1 .101-.153.4.4 0 0 1 .218-.062c.081 0 .159.022.218.062.06.04.096.095.102.153Zm-2.131 0v8.103c0 .061-.033.12-.093.164a.4.4 0 0 1-.226.068.4.4 0 0 1-.225-.068c-.06-.044-.094-.103-.094-.164V9.403c0-.061.034-.12.094-.164a.4.4 0 0 1 .225-.067c.085 0 .166.024.226.067s.093.103.093.164Zm-2.131 0v8.103c0 .061-.033.12-.093.164a.4.4 0 0 1-.226.068.4.4 0 0 1-.225-.068.2.2 0 0 1-.093-.164V9.403c0-.061.033-.12.093-.164a.4.4 0 0 1 .225-.067c.085 0 .166.024.226.067s.093.103.093.164Zm-2.129 0v8.103a.22.22 0 0 1-.101.153.4.4 0 0 1-.219.062.4.4 0 0 1-.218-.062.22.22 0 0 1-.101-.153V9.403a.22.22 0 0 1 .101-.153.4.4 0 0 1 .218-.062c.081 0 .159.022.219.062.059.04.095.095.101.153Zm-2.131 0v8.103a.22.22 0 0 1-.101.153.4.4 0 0 1-.218.062.4.4 0 0 1-.219-.062.22.22 0 0 1-.101-.153V9.403a.22.22 0 0 1 .101-.153.4.4 0 0 1 .219-.062c.08 0 .158.022.218.062.059.04.095.095.101.153Zm-2.131 0v8.103a.22.22 0 0 1-.101.153.4.4 0 0 1-.218.062.4.4 0 0 1-.218-.062.21.21 0 0 1-.102-.153V9.403a.21.21 0 0 1 .102-.153.4.4 0 0 1 .218-.062c.081 0 .158.022.218.062.059.04.095.095.101.153Zm-2.77 0a.21.21 0 0 1 .102-.153.4.4 0 0 1 .218-.062c.081 0 .159.022.218.062a.22.22 0 0 1 .102.153v8.103a.22.22 0 0 1-.102.153.4.4 0 0 1-.218.062.4.4 0 0 1-.218-.062.21.21 0 0 1-.102-.153zm21.307 8.103V12.05a.22.22 0 0 1 .102-.154.4.4 0 0 1 .218-.062c.081 0 .159.022.218.062s.096.095.102.154v5.462a.22.22 0 0 1-.102.154.4.4 0 0 1-.218.062.4.4 0 0 1-.218-.062.22.22 0 0 1-.102-.154zM279.815 7.024v.839h-1.491v-.839zm.64 0h1.491v.839h-1.491zm2.129 0h1.491v.839h-1.497zm2.131 0h1.487v.839h-1.491zm2.131 0h1.491v.839h-1.491zm10.652.839v-.839h1.493v.839zm-.637 0h-1.492v-.839h1.492zm-2.131 0h-1.492v-.839h1.492zm-2.131 0h-1.492v-.839h1.492zm-2.131 0h-1.491v-.839h1.491zm13.423 0v-.839h1.491v.839zm-.64 0h-1.491v-.839h1.491zm-2.13 0h-1.492v-.839h1.492zm-23.437 0h-1.491v-.839h1.493zm-2.131 0h-1.491v-.839h1.491zm-5.751 2.738v6.908a.21.21 0 0 1-.102.153.4.4 0 0 1-.218.062.4.4 0 0 1-.218-.062.22.22 0 0 1-.102-.153V10.6a.2.2 0 0 1 .017-.094.24.24 0 0 1 .068-.082.3.3 0 0 1 .107-.055.42.42 0 0 1 .257 0 .3.3 0 0 1 .106.056.24.24 0 0 1 .068.081q.022.046.017.095Zm-2.131 1.449v5.462c0 .062-.033.12-.093.164a.4.4 0 0 1-.226.068.4.4 0 0 1-.225-.068c-.06-.043-.094-.102-.094-.163V12.05c0-.062.034-.12.094-.164a.4.4 0 0 1 .225-.068.4.4 0 0 1 .226.068c.06.043.093.102.093.164Zm4.102 13.931h1.35v.628h-1.35zm32.564 0h1.435v.628h-1.439zm5.557-2.836h-1.366v-.378h-1.687v.658h.64v-.19h.407v.395h-1.473v-1.118h3.479zm0-1.342h-1.739v-1.045h1.739zm-2.379-13.94h-1.491v-.839h1.491zm-7.411-3.747V3.3h1.268v2.35h4.108v.658h-5.092V4.521h-2.864v-.405zm-10.606-1.414v1.412h3.469V1.596h-2.454V2.93h.64v-.87h1.176v1.59h-2.191V1.182h3.88v2.934h2.875v.405h-7.773v-1.82zm-6.099 1.412V1.182h3.891v2.469h-2.191v-1.59h1.176v.87h.638V1.596h-2.454v2.52h3.468V2.702h.564V4.52h-7.953v-.406zm-11.466 1.537h4.108v-2.35h1.268v.815h2.575v.405h-2.682v1.794h-5.269zm-2.131 1.373h1.491v.839h-1.491zm-9.071 13.858v.838h-1.491v-.838zm-2.131 0v.838h-1.491v-.838zm-2.129 0v.838h-1.491v-.838zm-3.624 0h1.492v.838h-1.492zm-2.131 0h1.492v.838h-1.492zm-2.131 0h1.492v.838h-1.492zm-2.13 0h1.491v.838h-1.491zm-2.45 10.713a.4.4 0 0 1-.123-.017.4.4 0 0 1-.104-.05.3.3 0 0 1-.07-.076.2.2 0 0 1-.024-.089v-5.462a.21.21 0 0 1 .102-.154.4.4 0 0 1 .218-.062c.081 0 .159.022.218.062s.096.095.102.154v5.462c0 .062-.034.12-.093.164a.4.4 0 0 1-.224.068zm1.812 4.06h-1.74v-1.046h1.74zm.639-4.292a.22.22 0 0 1-.101.154.4.4 0 0 1-.218.062.4.4 0 0 1-.219-.062.22.22 0 0 1-.101-.154v-6.907a.17.17 0 0 1 .017-.094.2.2 0 0 1 .067-.082.3.3 0 0 1 .107-.055.43.43 0 0 1 .257 0q.061.02.107.055t.067.082q.023.046.017.094zm1.492 4.291h-1.492V34.61h1.492zm.639-4.29a.22.22 0 0 1-.101.153.4.4 0 0 1-.219.062.4.4 0 0 1-.218-.062.22.22 0 0 1-.101-.154v-8.102a.22.22 0 0 1 .101-.153.4.4 0 0 1 .218-.063c.081 0 .159.022.219.063.059.04.095.094.101.153zm1.492 4.29h-1.492V34.61h1.492zm.639-4.29a.21.21 0 0 1-.102.153.4.4 0 0 1-.218.062.4.4 0 0 1-.218-.062.22.22 0 0 1-.101-.154v-8.102a.22.22 0 0 1 .101-.153.4.4 0 0 1 .218-.063c.081 0 .159.022.218.063.06.04.096.094.102.153zm1.491 4.29h-1.491V34.61h1.491zm.64-4.29a.21.21 0 0 1-.102.153.4.4 0 0 1-.218.062.4.4 0 0 1-.218-.062.22.22 0 0 1-.102-.154v-8.102a.22.22 0 0 1 .102-.153.4.4 0 0 1 .218-.063c.081 0 .159.022.218.063.06.04.096.094.102.153zm1.491 4.29h-1.491V34.61h1.491zm.64-4.29a.21.21 0 0 1-.102.153.4.4 0 0 1-.218.062.4.4 0 0 1-.218-.062.22.22 0 0 1-.102-.154v-8.102a.22.22 0 0 1 .102-.153.4.4 0 0 1 .218-.063c.081 0 .159.022.218.063.06.04.096.094.102.153zm1.491 4.29h-1.491V34.61h1.491zm.638-4.29c0 .06-.034.12-.093.163a.4.4 0 0 1-.226.068.4.4 0 0 1-.225-.068.2.2 0 0 1-.094-.164v-8.102c0-.062.034-.12.094-.164a.4.4 0 0 1 .225-.068c.085 0 .166.024.226.068a.2.2 0 0 1 .093.164zm1.491 4.29h-1.491V34.61h1.491zm.64-4.29a.21.21 0 0 1-.102.153.4.4 0 0 1-.218.062.4.4 0 0 1-.218-.062.22.22 0 0 1-.102-.154v-8.102a.22.22 0 0 1 .102-.153.4.4 0 0 1 .218-.063c.081 0 .159.022.218.063.06.04.096.094.102.153zm1.491 4.29h-1.491V34.61h1.491zm.647-4.29a.21.21 0 0 1-.102.153.4.4 0 0 1-.218.062.4.4 0 0 1-.218-.062.22.22 0 0 1-.102-.154v-8.102a.22.22 0 0 1 .102-.153.4.4 0 0 1 .218-.063c.081 0 .159.022.218.063.06.04.096.094.102.153zm1.491 4.29h-1.491V34.61h1.491zm0-4.29V23.26a.2.2 0 0 1 .064-.138.34.34 0 0 1 .165-.083v8.545a.34.34 0 0 1-.169-.082.2.2 0 0 1-.067-.14zm4.712-.339v-3.713h1.993v2.703h-1.225v1.01zm4.125-2.545v3.509h-2.737v-1.506h1.792v.696h-.568v-.36h-.639v.825h1.846v-1.629h-1.207v-2.703h2.93v.743h.363v.425zm4.083.465h1.716v.455h-1.723zm23.03 0v.455h-1.491v-.455zm-2.131.455h-1.491v-.455h1.491zm-2.131 0h-1.491v-.455h1.491zm-2.13 0h-1.492v-.455h1.492zm-2.131 0h-1.492v-.455h1.492zm-2.131 0h-1.491v-.455h1.491zm-2.131 0h-1.491v-.455h1.491zm-2.129 0h-1.493v-.455h1.493zm-2.131 0h-1.491v-.455h1.491zm-2.131 0h-1.491v-.455h1.491zm19.814 0v-.455h2.22v.455zm2.537-.921h-27.859v-.426h29.191v.426zm6.496 3.51h-2.734V28.48h-1.796v-.425h.373v-.743h2.93v2.703h-1.207v1.626h1.847v-.825h-.64v.36h-.569v-.693h1.794zm.64-.964v-1.01h-1.225v-2.703h1.993v3.713zm5.289.57h-.053v-8.558h.053c.084 0 .165.024.225.068.06.043.094.102.094.164v8.102a.21.21 0 0 1-.097.159.4.4 0 0 1-.22.065zm1.812 4.06h-1.492v-1.046h1.492zm0-13.935h-1.492v-.838h1.492zm.319 9.875a.4.4 0 0 1-.226-.068.2.2 0 0 1-.093-.164v-8.102a.22.22 0 0 1 .101-.153.4.4 0 0 1 .219-.063.4.4 0 0 1 .218.063c.059.04.095.094.101.153v8.102a.2.2 0 0 1-.024.09.24.24 0 0 1-.07.075.4.4 0 0 1-.104.05.4.4 0 0 1-.122.017Zm1.812 4.06h-1.492v-1.046h1.492zm0-13.935h-1.492v-.838h1.492zm.319 9.875a.4.4 0 0 1-.226-.068.2.2 0 0 1-.093-.164v-8.102a.22.22 0 0 1 .101-.153.4.4 0 0 1 .218-.063c.081 0 .159.022.219.063.059.04.095.094.101.153v8.102a.2.2 0 0 1-.024.09.24.24 0 0 1-.07.075.4.4 0 0 1-.104.05.4.4 0 0 1-.122.017Zm1.812 4.06h-1.494v-1.046h1.492zm0-13.935h-1.494v-.838h1.492zm.318 9.875a.4.4 0 0 1-.225-.068.2.2 0 0 1-.093-.164v-8.102a.22.22 0 0 1 .101-.153.4.4 0 0 1 .218-.063c.081 0 .159.022.218.063.06.04.096.094.102.153v8.102a.2.2 0 0 1-.024.09.24.24 0 0 1-.07.075.4.4 0 0 1-.104.05.4.4 0 0 1-.123.017Zm1.812 4.06h-1.491v-1.046h1.491zm0-13.935h-1.491v-.838h1.491zm.319 9.875a.4.4 0 0 1-.225-.068.2.2 0 0 1-.094-.164v-8.102c0-.062.034-.12.094-.164a.4.4 0 0 1 .225-.068c.085 0 .166.024.226.068.06.043.093.102.093.164v8.102c0 .062-.033.12-.093.164a.4.4 0 0 1-.226.068Zm1.812 4.06h-1.491v-1.046h1.491zm0-13.935h-1.491v-.838h1.491zm.321 9.875a.4.4 0 0 1-.123-.017.4.4 0 0 1-.104-.05.3.3 0 0 1-.069-.076.2.2 0 0 1-.025-.089v-8.102a.22.22 0 0 1 .102-.153.4.4 0 0 1 .218-.063c.081 0 .159.022.218.063.06.04.096.094.102.153v8.102a.2.2 0 0 1-.024.09.3.3 0 0 1-.07.075.4.4 0 0 1-.104.05.4.4 0 0 1-.123.017zm1.812 4.06h-1.491v-1.046h1.491zm0-13.935h-1.491v-.838h1.491zm.321 9.875a.4.4 0 0 1-.123-.017.4.4 0 0 1-.104-.05.3.3 0 0 1-.07-.076.2.2 0 0 1-.024-.089v-8.102a.21.21 0 0 1 .102-.153.4.4 0 0 1 .218-.063c.081 0 .159.022.218.063.059.04.096.094.102.153v8.102q0 .047-.025.09a.24.24 0 0 1-.07.075.4.4 0 0 1-.105.05.4.4 0 0 1-.123.017zm1.812 4.06h-1.504v-1.046h1.491zm0-13.935h-1.504v-.838h1.491zm.32 9.875a.4.4 0 0 1-.122-.017.4.4 0 0 1-.104-.05.24.24 0 0 1-.07-.076.2.2 0 0 1-.024-.089v-8.102a.22.22 0 0 1 .101-.153.4.4 0 0 1 .219-.063.4.4 0 0 1 .218.063c.059.04.095.094.101.153v8.102a.2.2 0 0 1-.025.091.3.3 0 0 1-.072.077.4.4 0 0 1-.108.05.4.4 0 0 1-.126.014zm1.812 4.06h-1.491v-1.046h1.479zm0-13.935h-1.491v-.838h1.479zm.319 9.875a.4.4 0 0 1-.225-.068.2.2 0 0 1-.094-.164v-6.907a.2.2 0 0 1 .018-.094.2.2 0 0 1 .067-.082.3.3 0 0 1 .107-.055.42.42 0 0 1 .363.055.24.24 0 0 1 .068.082q.022.046.017.094v6.907a.2.2 0 0 1-.025.09.3.3 0 0 1-.071.077.4.4 0 0 1-.107.05.4.4 0 0 1-.125.015zm2.061 4.06h-1.74v-1.046h1.74zm.391-4.292a.21.21 0 0 1-.102.154.4.4 0 0 1-.218.062.4.4 0 0 1-.218-.062.22.22 0 0 1-.102-.154v-5.462a.22.22 0 0 1 .102-.154.4.4 0 0 1 .218-.062c.081 0 .159.022.218.062.06.04.096.095.102.154z" mask="url(#b)"/><g filter="url(#c)"><path fill="#000" d="M6 48v8l1 10 2 8 11 38 5 15 78 4h447l17-53 5-24v-6l-1-2-3 1-9 4-6 2-7 2-22 4-14 1H58l-14-2-15-4-14-5-9-3z"/><path stroke="#edecec" stroke-width="1.25" d="M6 48v8l1 10 2 8 11 38 5 15 78 4h447l17-53 5-24v-6l-1-2-3 1-9 4-6 2-7 2-22 4-14 1H58l-14-2-15-4-14-5-9-3z"/></g><path fill="#f2dd7c" d="M7.016 51.09c.029-.349.134-.685.308-.985.173-.299.41-.553.692-.742a2.11 2.11 0 0 1 1.923-.231 5.18 5.18 0 0 1 2.302 2.352q.342.405.606.869a35 35 0 0 0 1.924 3.489 133 133 0 0 1 2.256 3.267c.273.221.53.458.803.648 1.515 1.073 2.227 2.589 3.605 3.725a14.7 14.7 0 0 1 3.242 3.158 15.5 15.5 0 0 1 5.634 3.157 5.73 5.73 0 0 0 3.59 1.579q1.596.023 3.18.237c1.697.11 3.333-1.121 4.893-1.737q1.633-.754 3.332-1.326a14.2 14.2 0 0 1 3.166-.158c1.302 0 2.347-.694 3.605-.805 1.832-.142 3.135 1.358 4.543 2.337 1 .678 2.166.868 3.166 1.578.953.876 2 1.634 3.12 2.258.182 0 .121.426-.09.379-1.652-.332-2.682-2.037-4.211-2.716a13 13 0 0 1-2.47-1.215 11 11 0 0 0-2.847-1.863 4.7 4.7 0 0 0-3.105.458 20 20 0 0 1-3.226.363c-2.53.347-5.104 2.02-7.376 3.157-1.863.947-3.772.616-5.726 1.121a5.4 5.4 0 0 1-2.409-.124 5.5 5.5 0 0 1-2.135-1.17c-1.317-.885-2.423-1.895-3.726-2.669a13 13 0 0 1-.075 3.52 9.35 9.35 0 0 0 .848 6.316c1.075 2.13 2.014 4.341 3.135 6.44a20 20 0 0 0 1.697 2.353c.407.751.675 1.576.787 2.431 0 .269.167.553.258.821a17 17 0 0 1 1.408 3.031l.091.284c.243.332.566.59.935.751s.773.218 1.17.165c3.009-.064 6 .471 8.816 1.579.212-.11.439-.206.651-.332a21.1 21.1 0 0 1 8.452-2.178c2.832-.332 4.014 1.01 5.528 3.346.187.427.455.808.79 1.121.334.313.726.552 1.152.7a3.14 3.14 0 0 0 2.602-.242 16.8 16.8 0 0 1 4.044-.773.23.23 0 0 1 .122.084.24.24 0 0 1 0 .289.23.23 0 0 1-.122.084c-1.262.33-2.498.762-3.695 1.295a5.64 5.64 0 0 1-2.575.789c-1.803-.095-2.863-1.579-3.772-3.157a3.8 3.8 0 0 0-1.424-1.645 3.57 3.57 0 0 0-2.06-.55c-1.294.135-2.58.357-3.847.663a13.5 13.5 0 0 0-3.998 1.01l-.182.111 1.227.442a7.6 7.6 0 0 1 3.923 2.258 9 9 0 0 1 .818 1.579 10.7 10.7 0 0 0 2.166 2.731c1.438 1.578 1.423 3.789 3.635 4.641 2.211.853 4.544 0 6.71-.158a21.7 21.7 0 0 1 6.149.269q1.557.54 3.03 1.294c.847.347 1.756.237 2.62.505 1.227.379 2.332.932 3.62 1.2.903.14 1.778.433 2.59.868A27.6 27.6 0 0 1 88.004 117a31 31 0 0 0-4.832-3c-1.878-1.105-4.15-1.184-6.164-1.926-.91-.347-1.803-.268-2.727-.52a23 23 0 0 1-2.211-1.011 16.3 16.3 0 0 0-7.15-.489c-3.029.158-6.876 1.673-9.224-1.2a7 7 0 0 1-.969-1.863 8.5 8.5 0 0 0-2.12-2.542c-1.182-1.152-1.894-2.952-3.363-3.678a26.4 26.4 0 0 0-5.544-1.673h-.09a20 20 0 0 1-7.286.836 3.7 3.7 0 0 1-2.004-.471 3.9 3.9 0 0 1-1.48-1.486c0 .173.091.316.122.49.454 2.478 0 6.125 1.696 8.082.73.764 1.394 1.593 1.984 2.479a6.8 6.8 0 0 0 2.711 2.368 9.55 9.55 0 0 1 3.636 4.404q.027.074.005.149a.22.22 0 0 1-.086.119.21.21 0 0 1-.268-.031 28 28 0 0 0-2.241-2.826c-.78-.7-1.653-1.279-2.59-1.721a6.1 6.1 0 0 1-1.985-2.21c-.636-1.042-1.59-1.736-2.226-2.747-1.227-1.957-1-4.846-1.288-7.088-.287-2.242-1.514-4.23-2.014-6.315a6.7 6.7 0 0 0-1.878-1.736c-1.121-.663-2.12-1.5-3.226-2.195a4.65 4.65 0 0 1-1.94-2.052c-.908-2.1 0-4.2 0-6.315a3.3 3.3 0 0 0 0-.536 1 1 0 0 1-.445.255 1 1 0 0 1-.51-.002 1 1 0 0 1-.443-.26 1.1 1.1 0 0 1-.267-.451c-.44-1.232-.227-2.495-.727-3.663a18.3 18.3 0 0 0-1.97-3.552 40.4 40.4 0 0 1-4.195-7.893 71.5 71.5 0 0 0-4.68-7.894A8.4 8.4 0 0 0 8.273 54.2a3.64 3.64 0 0 1-.995-1.395 3.8 3.8 0 0 1-.262-1.715m33.322 47.218h.348a11.7 11.7 0 0 0-4.468-.505c-.348 0-.666.095-.954.11 1.378.853 3.786.585 5.074.395M27.585 87.447c-.137-.205-.258-.41-.379-.616-.863-1.484-1.59-3.047-2.378-4.578q.038 1.172.258 2.32c.408 1.564 1.438 2.148 2.574 2.874zm-4.817-17.129a4 4 0 0 0-.43-1.68 3.9 3.9 0 0 0-1.085-1.32c-.257-.094-.333-.22-.318.127a46 46 0 0 0 1.909 2.873zm548.221-20.351a2.2 2.2 0 0 0-.289-.927 2.1 2.1 0 0 0-.65-.698 1.98 1.98 0 0 0-1.804-.218 4.87 4.87 0 0 0-2.16 2.214 5.5 5.5 0 0 0-.569.817 33 33 0 0 1-1.804 3.284c-.711 1.01-1.422 2.02-2.118 3.076-.256.208-.497.43-.753.609-1.421 1.01-2.089 2.437-3.382 3.506a13.8 13.8 0 0 0-3.042 2.972 14.55 14.55 0 0 0-5.286 2.972 5.37 5.37 0 0 1-3.369 1.486q-1.498.022-2.984.222c-1.592.105-3.126-1.054-4.59-1.634a31 31 0 0 0-3.127-1.248c-.982-.16-1.978-.21-2.97-.149-1.222 0-2.203-.653-3.382-.757-1.72-.134-2.942 1.278-4.264 2.199-.938.639-2.032.817-2.97 1.486a15.4 15.4 0 0 1-2.928 2.124c-.17 0-.113.401.086.357 1.549-.312 2.515-1.917 3.951-2.556.808-.296 1.584-.68 2.316-1.144.799-.724 1.7-1.316 2.672-1.753a4.4 4.4 0 0 1 2.913.43c.999.196 2.011.31 3.027.343 2.373.326 4.789 1.901 6.921 2.971 1.748.892 3.539.58 5.372 1.055a5 5 0 0 0 2.261-.117 5.2 5.2 0 0 0 2.003-1.101c1.236-.832 2.273-1.783 3.496-2.511a12.3 12.3 0 0 0 .071 3.313 8.83 8.83 0 0 1-.796 5.943c-1.009 2.006-1.89 4.086-2.942 6.063a19 19 0 0 1-1.592 2.213 6.6 6.6 0 0 0-.739 2.289c0 .252-.156.52-.241.772a16 16 0 0 0-1.322 2.853l-.085.267a2.16 2.16 0 0 1-.878.707 2.06 2.06 0 0 1-1.098.155 21.3 21.3 0 0 0-8.271 1.486c-.199-.104-.412-.193-.611-.312a19.8 19.8 0 0 0-7.93-2.05c-2.657-.312-3.766.95-5.187 3.15a3.2 3.2 0 0 1-.741 1.054 3 3 0 0 1-1.081.659 2.95 2.95 0 0 1-2.441-.228 15.8 15.8 0 0 0-3.795-.728.2.2 0 0 0-.114.08.23.23 0 0 0 0 .272.2.2 0 0 0 .114.08c1.185.309 2.344.716 3.468 1.218a5.3 5.3 0 0 0 2.416.742c1.691-.089 2.686-1.485 3.538-2.971a3.56 3.56 0 0 1 1.337-1.548 3.34 3.34 0 0 1 1.932-.517 27 27 0 0 1 3.61.624 12.6 12.6 0 0 1 3.751.95l.171.105-1.151.415a7.14 7.14 0 0 0-3.681 2.125 8.6 8.6 0 0 0-.767 1.486 10 10 0 0 1-2.033 2.571c-1.35 1.485-1.335 3.566-3.41 4.368s-4.264 0-6.296-.149a20.3 20.3 0 0 0-5.77.253c-.972.339-1.922.746-2.842 1.218-.796.327-1.649.223-2.459.476-1.151.356-2.188.876-3.396 1.129a7.6 7.6 0 0 0-2.43.817A25.8 25.8 0 0 0 495 112a29 29 0 0 1 4.533-2.823c1.763-1.04 3.894-1.114 5.785-1.813.852-.327 1.691-.252 2.558-.49q1.06-.42 2.074-.951c2.18-.65 4.466-.807 6.708-.461 2.843.149 6.452 1.575 8.655-1.129a6.6 6.6 0 0 0 .91-1.753 8 8 0 0 1 1.989-2.392c1.109-1.085 1.777-2.779 3.155-3.462a24.7 24.7 0 0 1 5.202-1.575h.085c2.216.683 4.53.95 6.836.787a3.45 3.45 0 0 0 1.88-.444 3.66 3.66 0 0 0 1.388-1.398c0 .163-.085.297-.113.46-.427 2.333 0 5.765-1.592 7.608a17 17 0 0 0-1.862 2.333 6.35 6.35 0 0 1-2.544 2.228 9 9 0 0 0-3.41 4.146.2.2 0 0 0-.005.14.2.2 0 0 0 .081.111.2.2 0 0 0 .13.033.2.2 0 0 0 .12-.061 27 27 0 0 1 2.104-2.66 10 10 0 0 1 2.43-1.62 5.7 5.7 0 0 0 1.862-2.08c.597-.98 1.492-1.634 2.089-2.585 1.151-1.842.938-4.561 1.208-6.671s1.421-3.982 1.89-5.944a6.3 6.3 0 0 1 1.762-1.634c1.052-.624 1.99-1.412 3.027-2.065a4.37 4.37 0 0 0 1.819-1.932c.853-1.976 0-3.952 0-5.943a3 3 0 0 1 0-.505.94.94 0 0 0 .419.24.9.9 0 0 0 .477-.002.94.94 0 0 0 .417-.244c.116-.117.203-.264.25-.425.413-1.16.214-2.348.683-3.447a17.2 17.2 0 0 1 1.847-3.344 38 38 0 0 0 3.937-7.429 67 67 0 0 1 4.391-7.429 7.9 7.9 0 0 1 1.634-2.481c.408-.353.728-.803.933-1.312.206-.51.29-1.064.247-1.615m-31.265 44.44h-.327a10.9 10.9 0 0 1 4.192-.475c.327 0 .625.09.895.104-1.293.803-3.552.55-4.76.372m11.966-10.222c.128-.193.241-.386.355-.58.81-1.396 1.492-2.867 2.231-4.308a14 14 0 0 1-.241 2.184c-.384 1.471-1.351 2.02-2.416 2.704zm4.519-16.12a3.8 3.8 0 0 1 .403-1.581 3.65 3.65 0 0 1 1.018-1.243c.242-.09.313-.208.299.119a44 44 0 0 1-1.791 2.704z"/><path fill="#ffebeb" d="M132.92 80h32.16v36h-8.448v-12.624h-9.888a13.8 13.8 0 0 1-1.296 5.184 13.4 13.4 0 0 1-2.976 4.176 14.7 14.7 0 0 1-4.32 2.832q-2.448 1.008-5.232 1.008v-8.496a5.5 5.5 0 0 0 1.92-.336 6 6 0 0 0 1.632-1.008q.72-.672 1.152-1.488.48-.864.576-1.872h-5.28v-7.632h5.328v-7.248h-5.328zm23.712 8.496h-9.888v7.248h9.888zm50.819-4.272q0 1.296-.144 2.784-.144 1.44-.576 2.976a14.7 14.7 0 0 1-1.248 2.976q-.768 1.44-2.064 2.736h5.52V116h-29.712V88.496h-5.52V80h33.744zm-19.728 4.272v6.24q2.784 0 4.704-.384 1.968-.384 3.216-1.152 1.296-.768 1.968-1.92.72-1.2 1.008-2.784zm12.72 14.736h-12.72v4.272h12.72zM241.477 80q2.064 0 3.84.816a9.8 9.8 0 0 1 3.168 2.112 9.8 9.8 0 0 1 2.112 3.168 9 9 0 0 1 .816 3.792V116h-19.824a9.8 9.8 0 0 1-3.84-.768 10.7 10.7 0 0 1-3.12-2.16 10.7 10.7 0 0 1-2.16-3.12 9.8 9.8 0 0 1-.768-3.84V88.496h-5.52V80zm1.44 9.888q0-.576-.432-.96a1.38 1.38 0 0 0-1.008-.432h-11.28v17.616q0 .576.384 1.008a1.47 1.47 0 0 0 1.008.384h11.328zm51.86 15.984q0 2.064.144 3.696.192 1.584.384 2.688.24 1.104.432 1.68l.192.576-.048-.048-7.872 3.072q-.096-.24-.576-1.776-.48-1.584-.816-4.464a20.4 20.4 0 0 1-5.952 3.456q-3.264 1.248-6.96 1.248h-8.592V88.496h-5.52V80h14.016v27.504h1.056q2.4 0 4.512-.912a11.8 11.8 0 0 0 3.696-2.496 11.8 11.8 0 0 0 2.496-3.696q.912-2.112.912-4.512V80h8.496zM304.083 80h30.384v8.496h-10.944V116h-8.496V88.496h-10.944zm95.336 25.872q0 2.064.144 3.696.192 1.584.384 2.688.24 1.104.432 1.68l.192.576-.048-.048-7.872 3.072q-.096-.24-.576-1.776-.48-1.584-.816-4.464a20.4 20.4 0 0 1-5.952 3.456q-3.264 1.248-6.96 1.248h-8.592V88.496h-5.52V80h14.016v27.504h1.056q2.4 0 4.512-.912a11.8 11.8 0 0 0 3.696-2.496 11.8 11.8 0 0 0 2.496-3.696q.912-2.112.912-4.512V80h8.496zm31.58-30.528h8.496v13.152h-20.352v5.28h20.352v10.416q0 2.448-.96 4.608a11.6 11.6 0 0 1-2.496 3.744q-1.584 1.584-3.744 2.544-2.112.912-4.56.912h-17.088v-8.496h17.088q1.344 0 2.304-.96t.96-2.352v-1.968h-20.352V80h20.352z"/></g><defs><filter id="a" width="573.25" height="164.625" x="2.375" y="0" color-interpolation-filters="sRGB" filterUnits="userSpaceOnUse"><feFlood flood-opacity="0" result="BackgroundImageFix"/><feColorMatrix in="SourceAlpha" result="hardAlpha" values="0 0 0 0 0 0 0 0 0 0 0 0 0 0 0 0 0 0 127 0"/><feOffset dy="30"/><feGaussianBlur stdDeviation="1.5"/><feComposite in2="hardAlpha" operator="out"/><feColorMatrix values="0 0 0 0 0 0 0 0 0 0 0 0 0 0 0 0 0 0 0.3 0"/><feBlend in2="BackgroundImageFix" mode="luminosity" result="effect1_dropShadow_3539_725"/><feBlend in="SourceGraphic" in2="effect1_dropShadow_3539_725" result="shape"/></filter><filter id="c" width="576.85" height="96.092" x=".575" y="45.133" color-interpolation-filters="sRGB" filterUnits="userSpaceOnUse"><feFlood flood-opacity="0" result="BackgroundImageFix"/><feColorMatrix in="SourceAlpha" result="hardAlpha" values="0 0 0 0 0 0 0 0 0 0 0 0 0 0 0 0 0 0 127 0"/><feOffset dy="4.8"/><feGaussianBlur stdDeviation="2.4"/><feComposite in2="hardAlpha" operator="out"/><feColorMatrix values="0 0 0 0 0 0 0 0 0 0 0 0 0 0 0 0 0 0 0.7 0"/><feBlend in2="BackgroundImageFix" result="effect1_dropShadow_3539_725"/><feBlend in="SourceGraphic" in2="effect1_dropShadow_3539_725" result="shape"/></filter></defs></svg>