<svg xmlns="http://www.w3.org/2000/svg" width="67" height="66" fill="none" viewBox="0 0 67 66"><g clip-path="url(#a)"><g filter="url(#b)"><path fill="#e2dccb" d="M33.724 59.758c-15.46 0-28.036-12.577-28.036-28.036S18.264 3.686 33.724 3.686c15.459 0 28.036 12.576 28.036 28.036 0 15.459-12.577 28.036-28.036 28.036m0-54.493c-14.589 0-26.457 11.868-26.457 26.457 0 14.588 11.868 26.456 26.457 26.456 14.588 0 26.456-11.868 26.456-26.456 0-14.589-11.868-26.457-26.456-26.457"/></g><path fill="#e2dccb" d="m14.536 57.793.32-.319a.63.63 0 0 0 0-.893l-.21-.21a.633.633 0 0 0-.894 0l-.318.318-.813-.813.378-.378a.545.545 0 0 0 0-.774l-.143-.142a.5.5 0 0 0-.185-.121.21.21 0 0 0 .02-.279h.074a.21.21 0 0 0 .212-.211.21.21 0 0 0-.212-.211h-.225v-.472a.21.21 0 0 0 .195-.21.21.21 0 0 0-.195-.21V50.28h-.141v2.59a.21.21 0 0 0-.19.21c0 .108.084.197.19.208v.473h-.226a.21.21 0 0 0-.211.211c0 .116.095.211.211.211h.08a.21.21 0 0 0 .019.277.6.6 0 0 0-.19.123l-.143.142a.55.55 0 0 0 0 .774l.379.378-.814.813-.318-.318a.633.633 0 0 0-.893 0l-.21.21a.633.633 0 0 0 0 .893l.32.32-.3.299a.66.66 0 0 0 0 .932l.19.19a.63.63 0 0 0 .917-.024l.294-.294.788.788-.372.373a.56.56 0 0 0 0 .773l.142.143c.214.213.56.213.774 0l.143-.143a.545.545 0 0 0 0-.773l-.353-.353.808-.808.318.318a.63.63 0 0 0 .894 0l.209-.21a.63.63 0 0 0 0-.893zm-2.229 0-.802.802-.8-.8.802-.803zm.162.162.802.802-.802.802-.802-.802zm.964.64-.802-.802.802-.802.802.802zm-.964-.964-.8-.8.801-.803.801.801zm1.434-1.11a.42.42 0 0 1 .592 0l.21.21a.42.42 0 0 1 0 .593l-.32.319-.801-.802zm-1.813-1.646.143-.143a.33.33 0 0 1 .473 0l.142.143c.13.13.13.342 0 .472l-.379.38-.379-.38a.334.334 0 0 1 0-.472m-1.856 2.449a.42.42 0 0 1 0-.593l.21-.21a.42.42 0 0 1 .592 0l.319.32-.802.802zm.802 1.74a.416.416 0 0 1-.593 0l-.209-.209a.42.42 0 0 1 0-.592l.319-.32.802.803zm1.792 1.617-.142.142a.335.335 0 0 1-.473 0l-.142-.142a.33.33 0 0 1 0-.473l.379-.379.379.38c.13.13.13.341 0 .472m1.877-1.826-.21.21a.417.417 0 0 1-.592 0l-.318-.318.802-.802.318.318a.42.42 0 0 1 0 .592m-2.16 3.178v-.184h.226a.21.21 0 0 0 .211-.212.21.21 0 0 0-.211-.211h-.592a.21.21 0 0 0-.211.211c0 .116.095.212.211.212h.225v.184h-.223l-.307 1.927s.31.197.705.17c.394-.03.535-.226.535-.226l-.358-1.87zm43.717-4.24.319-.319a.63.63 0 0 0 0-.893l-.21-.21a.633.633 0 0 0-.894 0l-.318.318-.813-.813.378-.378a.545.545 0 0 0 0-.774l-.142-.142a.5.5 0 0 0-.186-.121.21.21 0 0 0 .021-.279h.074a.21.21 0 0 0 .21-.211.21.21 0 0 0-.21-.211h-.226v-.472a.21.21 0 0 0 .196-.21.21.21 0 0 0-.196-.21V50.28h-.14v2.59a.21.21 0 0 0 0 .418v.473H53.9a.21.21 0 0 0-.212.211c0 .116.095.211.212.211h.079a.21.21 0 0 0 .02.277.5.5 0 0 0-.19.123l-.143.142a.547.547 0 0 0 0 .774l.378.378-.813.813-.318-.318a.633.633 0 0 0-.894 0l-.21.21a.633.633 0 0 0 0 .893l.32.32-.3.299a.66.66 0 0 0 0 .932l.19.19a.63.63 0 0 0 .918-.024l.294-.294.788.788-.373.373a.56.56 0 0 0 0 .773l.143.143c.213.213.56.213.774 0l.142-.143a.546.546 0 0 0 0-.773l-.352-.353.807-.808.319.318a.63.63 0 0 0 .893 0l.21-.21a.63.63 0 0 0 0-.893zm-2.23 0-.801.802-.801-.8.802-.803zm.163.162.802.802-.802.802-.802-.802zm.964.64-.802-.802.802-.802.802.802zm-.964-.964-.801-.8.802-.803.8.801zm1.433-1.11a.42.42 0 0 1 .593 0l.21.21a.42.42 0 0 1 0 .593l-.32.319-.802-.802zm-1.812-1.646.142-.143a.33.33 0 0 1 .473 0l.143.143c.13.13.13.342 0 .472l-.38.38-.378-.38a.334.334 0 0 1 0-.472m-1.856 2.449a.42.42 0 0 1 0-.593l.209-.21a.42.42 0 0 1 .593 0l.318.32-.802.802zm.802 1.74a.417.417 0 0 1-.593 0l-.21-.209a.42.42 0 0 1 0-.592l.32-.32.802.803zm1.792 1.617-.143.142a.335.335 0 0 1-.472 0l-.143-.142a.33.33 0 0 1 0-.473l.379-.379.379.38c.13.13.13.341 0 .472m1.876-1.826-.21.21a.417.417 0 0 1-.592 0l-.318-.318.802-.802.318.318a.42.42 0 0 1 0 .592m-2.174 3.178v-.184h.226a.21.21 0 0 0 .211-.212.21.21 0 0 0-.211-.211h-.592a.21.21 0 0 0-.212.211c0 .116.096.212.212.212h.225v.184h-.223l-.307 1.927s.31.197.704.17c.395-.03.536-.226.536-.226l-.358-1.87z"/><path stroke="#e2dccb" stroke-miterlimit="10" stroke-width=".197" d="M29.349 5.87c.2-.032.398-.077.599-.1l-.09-.612c-.387.056-.77.134-1.155.2l.218 1.121.893-.16c.298-.047.6-.079.899-.119l-.136-1.134c.198-.022.395-.056.595-.068l.596-.046.084 1.139c.586-.058 1.174-.055 1.76-.074l-.004-1.142-1.096.028.028.618.535-.014m.036 1.555-.57.014.03.618 1.046-.027-.005-1.142c-.592.018-1.184.018-1.774.077l.086 1.138-.534.04c-.177.016-.354.044-.53.065l-.14-1.135c-.285.04-.572.068-.855.115l-.85.152.218 1.121c.321-.056.643-.118.965-.17l-.092-.612c-.166.024-.33.058-.496.086m-5.087-.195c.189-.072.374-.155.568-.215l-.21-.583c-.186.06-.365.138-.547.208l-.545.215.434 1.056.844-.333c.284-.102.572-.196.857-.294l-.355-1.085c.375-.136.763-.234 1.146-.346l.306 1.1.424-.12.429-.1c.287-.066.572-.136.86-.196l-.228-1.12c-.357.077-.713.163-1.07.245l.148.6.523-.12m.33 1.515-.556.128.15.6c.34-.077.679-.16 1.02-.233l-.227-1.12c-.29.062-.578.133-.866.198-.144.035-.29.064-.432.103l-.427.122.308 1.1c-.343.097-.688.188-1.023.31l-.358-1.084c-.272.094-.547.182-.817.28l-.803.318.434 1.056c.305-.118.607-.244.914-.356l-.211-.582c-.16.053-.313.121-.47.181m-5.03.811c.172-.107.338-.223.514-.323l-.319-.53c-.334.201-.659.419-.988.628l.632.95.763-.489c.257-.159.523-.304.784-.457l-.562-.994c.342-.206.7-.381 1.056-.564l.515 1.019.393-.201c.132-.064.267-.122.4-.184.268-.12.534-.245.804-.36l-.442-1.053c-.337.144-.668.3-1.002.45l.264.56.488-.222m.641 1.421-.52.235.265.559c.319-.142.634-.29.954-.429l-.442-1.052c-.273.116-.54.242-.81.363-.135.062-.272.119-.404.186l-.395.203.518 1.018-.476.244c-.16.08-.31.175-.466.262l-.564-.993c-.248.146-.502.282-.745.436l-.727.466.632.951.826-.528-.32-.53q-.213.134-.425.271m-4.796 1.773.44-.418-.416-.458-.847.807.804.81.656-.625q.163-.159.336-.304l.343-.297-.744-.867c.152-.129.3-.263.455-.388l.47-.37.704.899c.455-.374.945-.7 1.42-1.043l-.639-.946-.894.636.367.497.437-.31m.899 1.267-.465.331.369.497.852-.607-.64-.946c-.48.346-.972.676-1.43 1.053l.706.897-.42.33-.406.35-.746-.864-.326.283-.163.141-.156.15-.625.595.804.81.71-.676-.417-.457-.364.348m-4.356 2.667.352-.495-.496-.369-.679.954.946.64c.353-.49.691-.993 1.075-1.46l-.898-.706.37-.47.391-.454.865.746.288-.333.145-.167.152-.16.608-.637-.81-.804-.758.794.457.417.37-.388m1.134 1.072-.394.414.458.415.722-.758-.81-.804-.614.643a6 6 0 0 0-.297.33l-.291.335.866.744c-.115.136-.237.268-.348.407l-.33.421-.9-.704c-.366.445-.684.925-1.022 1.391l.946.64.57-.8-.498-.367-.292.41M10.343 20.7l.25-.553-.559-.265c-.16.356-.325.71-.48 1.068l1.053.443c.119-.278.248-.552.371-.828.064-.137.122-.276.19-.411l.207-.404-1.018-.517.274-.533c.09-.178.196-.348.293-.522l.994.564c.148-.253.288-.512.444-.76l.476-.742-.95-.633c-.198.309-.398.615-.591.925l.528.32c.093-.152.192-.3.288-.451m1.307.836c-.1.161-.21.317-.304.483l.53.319c.18-.3.375-.588.56-.884l-.95-.632-.48.748c-.156.252-.298.512-.447.768l.994.561c-.185.306-.34.627-.504.944l-1.02-.516-.196.384q-.091.196-.18.393c-.117.262-.24.523-.353.788l1.053.442c.129-.3.269-.596.402-.894l-.56-.264-.208.459m-3.002 4.126.137-.592-.6-.15c-.087.38-.179.76-.26 1.142l1.118.227c.063-.296.135-.59.202-.884.035-.147.065-.296.105-.441l.124-.436-1.1-.308c.11-.384.214-.77.35-1.146l1.084.358c.095-.278.185-.558.286-.834l.324-.82-1.056-.433c-.133.34-.274.679-.4 1.023l.582.21c.057-.169.129-.333.193-.5m1.458.561c-.068.177-.146.351-.202.533l.582.209c.051-.167.122-.326.185-.49l.192-.485-1.056-.434-.327.826c-.1.279-.191.56-.287.84l1.085.356c-.123.335-.21.682-.31 1.024l-1.1-.306-.118.415-.098.42c-.064.281-.133.56-.192.842l1.12.227c.068-.32.146-.637.218-.956l-.6-.148-.114.49m-2.124 4.636.015-.607-.618-.03-.03 1.17 1.142.005c.018-.604.019-1.21.078-1.811l-1.139-.087.046-.596c.017-.2.048-.397.071-.595l1.134.138c.04-.29.069-.583.117-.873l.155-.868-1.12-.218c-.064.36-.132.72-.191 1.082l.612.092c.026-.176.06-.352.091-.528m1.515.264c-.03.188-.073.373-.094.563l.612.09c.05-.345.12-.687.178-1.03l-1.12-.218-.157.874c-.047.293-.078.587-.117.88l1.134.137c-.02.177-.052.353-.062.531l-.04.534-1.14-.084c-.056.573-.053 1.15-.072 1.725l1.142.004.025-.98-.618-.029-.013.503M8.52 35.438c-.034-.2-.078-.398-.101-.6l-.612.091c.055.387.133.77.2 1.155l1.12-.218-.16-.893c-.046-.299-.078-.6-.118-.899l-1.134.136c-.023-.198-.057-.395-.069-.595l-.046-.597 1.139-.084c-.058-.585-.055-1.173-.074-1.76l-1.142.004.028 1.097.618-.028-.014-.535m1.538-.04.014.57.618-.03-.027-1.046-1.142.005c.018.591.018 1.184.076 1.774l1.14-.086.04.534c.015.177.043.353.064.53l-1.134.139c.04.285.067.572.115.855l.152.85 1.121-.218c-.056-.322-.118-.643-.17-.965l-.612.092c.024.166.058.33.086.496m-.183 5.099c-.072-.19-.154-.374-.215-.568l-.582.21c.059.186.137.365.207.547l.215.545 1.056-.434-.333-.844c-.101-.284-.195-.572-.293-.858l-1.085.356c-.136-.376-.235-.763-.346-1.147l1.1-.305-.12-.424-.101-.43c-.065-.286-.135-.571-.196-.858l-1.119.226c.076.358.163.714.244 1.071l.6-.148-.12-.523m1.509-.339.129.556.6-.15c-.077-.34-.16-.679-.233-1.02l-1.12.227c.062.29.132.578.198.866.034.144.064.29.103.432l.121.427 1.1-.308c.098.343.189.688.311 1.023l-1.084.358c.094.272.181.547.28.817l.318.803 1.056-.434c-.118-.305-.245-.607-.357-.914l-.581.211c.053.16.121.313.18.47m.82 5.034c-.107-.172-.223-.338-.323-.514l-.53.319c.2.334.418.659.627.988l.951-.632-.49-.763c-.158-.257-.303-.522-.456-.783l-.994.562c-.206-.343-.382-.702-.565-1.056l1.019-.516-.201-.392q-.093-.2-.183-.4c-.12-.27-.246-.535-.36-.805l-1.053.442c.144.337.3.668.45 1.002l.559-.263-.221-.489m1.415-.631.235.52.559-.266c-.142-.318-.29-.634-.429-.954l-1.053.443c.116.272.243.54.364.81.062.135.119.272.186.404l.203.395 1.017-.518.244.476c.08.16.176.31.263.466l-.993.564c.146.248.282.502.436.745l.466.727.95-.632-.527-.827-.53.32q.134.215.271.425m1.765 4.783-.419-.44-.458.415.807.848.811-.804-.626-.656a6 6 0 0 1-.304-.337l-.296-.342-.867.744c-.13-.152-.264-.3-.388-.455l-.37-.47.898-.704c-.373-.455-.699-.945-1.043-1.42l-.946.639.636.894.498-.367-.31-.437m1.277-.895.33.465.497-.369-.607-.853-.946.64c.346.48.677.973 1.053 1.43l.898-.705.33.42.35.406-.864.746.282.326.142.163.149.156.596.625.81-.804-.677-.71-.457.417.348.364m2.661 4.346-.494-.352-.369.496.954.679.64-.946c-.491-.353-.993-.69-1.46-1.074l-.707.897-.47-.37-.453-.39.745-.865-.332-.289-.167-.144-.16-.152-.637-.609-.804.811.794.757.417-.456-.388-.37m1.074-1.125.413.393.416-.458-.758-.721-.804.81.643.613q.158.156.33.298l.335.29.744-.865c.136.115.267.236.407.348l.42.33-.703.9c.445.365.925.684 1.391 1.021l.64-.946-.8-.569-.367.498.41.292m3.463 3.751-.553-.25-.266.558c.357.16.71.326 1.069.48l.442-1.053c-.278-.118-.551-.248-.827-.37-.137-.065-.277-.122-.411-.191l-.404-.207-.518 1.018-.532-.274c-.179-.09-.348-.196-.522-.293l.563-.993c-.253-.149-.512-.288-.76-.445l-.742-.476-.632.951c.308.197.615.397.925.59l.32-.528c-.152-.093-.301-.192-.452-.288m.842-1.313c.162.1.317.21.483.304l.32-.53c-.3-.18-.59-.375-.884-.561l-.632.951.747.48c.252.156.512.297.768.447l.562-.994c.305.185.626.34.943.504l-.516 1.019.384.197q.196.091.393.18c.263.117.523.24.788.353l.442-1.053c-.3-.13-.596-.269-.894-.402l-.264.56.459.207m4.122 2.998-.592-.137-.15.6c.381.087.76.18 1.142.261l.227-1.119c-.296-.062-.59-.135-.884-.201-.147-.036-.295-.066-.441-.105l-.436-.124-.308 1.1c-.384-.11-.77-.214-1.146-.35l.358-1.084c-.277-.096-.557-.185-.833-.286l-.82-.324-.434 1.056c.341.133.68.273 1.023.399l.211-.582c-.17-.057-.333-.128-.5-.192m.55-1.45c.178.068.352.146.533.203l.21-.583c-.167-.051-.327-.122-.49-.185l-.486-.192-.434 1.056.827.327c.278.1.56.191.84.287l.356-1.085c.335.123.681.21 1.023.31l-.305 1.1.415.118.42.098c.281.063.56.133.842.192l.227-1.12c-.32-.068-.637-.146-.956-.218l-.148.6.49.114m4.638 2.129-.607-.016-.03.618 1.17.03.005-1.142c-.604-.017-1.21-.018-1.811-.078l-.087 1.14-.597-.047c-.198-.017-.396-.048-.594-.071l.138-1.134c-.291-.04-.584-.068-.873-.117l-.868-.155-.218 1.12c.36.064.72.133 1.082.191l.092-.611c-.177-.026-.352-.062-.528-.092m.262-1.535c.188.03.373.073.562.094l.091-.612c-.345-.05-.687-.12-1.03-.178l-.218 1.12.874.157c.293.046.587.078.88.117l.137-1.134c.177.02.353.052.53.062l.534.04-.084 1.14c.574.056 1.15.053 1.725.072l.005-1.142-.981-.025-.028.618.503.012m4.973 1.194c-.2.033-.398.078-.599.1l.091.613c.386-.056.77-.134 1.154-.2l-.218-1.121-.893.16c-.298.047-.599.079-.898.119l.135 1.134c-.198.022-.395.056-.594.068l-.597.046-.084-1.139c-.585.058-1.174.055-1.76.074l.004 1.142 1.096-.028-.027-.618-.536.014m-.04-1.558.57-.014-.029-.618-1.047.027.005 1.141c.592-.017 1.185-.017 1.775-.076l-.087-1.138.534-.04c.178-.016.354-.044.531-.065l.138 1.134c.285-.04.572-.068.856-.115l.85-.152-.218-1.121c-.322.056-.643.118-.966.17l.093.612c.166-.024.33-.058.495-.086m5.103.198c-.189.072-.374.154-.568.215l.21.582c.186-.059.365-.137.547-.207l.545-.215-.434-1.056-.843.333c-.285.101-.573.195-.858.293l.356 1.085c-.376.136-.764.235-1.147.346l-.306-1.1-.424.12-.429.101c-.286.065-.572.136-.86.196l.228 1.12c.358-.077.713-.164 1.07-.245l-.148-.6-.522.12m-.349-1.516.555-.129-.15-.6c-.34.077-.678.16-1.019.233l.227 1.12c.29-.062.577-.132.866-.198.144-.034.289-.064.432-.103l.427-.121-.308-1.1c.343-.098.688-.189 1.023-.311l.358 1.084c.272-.094.546-.181.817-.28l.803-.318-.435-1.056c-.304.118-.606.245-.913.357l.21.581c.16-.053.314-.121.47-.18m5.038-.81c-.171.108-.337.224-.514.324l.32.53c.334-.202.658-.419.988-.628l-.632-.951-.763.49c-.257.159-.523.304-.784.456l.562.994c-.342.206-.701.382-1.056.565l-.516-1.019-.392.201q-.2.093-.4.183c-.269.12-.534.246-.805.36l.443 1.053c.336-.144.668-.3 1.002-.45l-.264-.559-.488.221m-.626-1.42.52-.236-.265-.559c-.319.143-.634.29-.954.429l.442 1.053c.273-.116.54-.243.81-.364.135-.062.272-.119.404-.186l.395-.203-.518-1.018.476-.243c.16-.08.31-.176.467-.263l.563.993c.248-.146.502-.282.745-.436l.727-.466-.632-.951-.826.528.32.53q.213-.134.425-.271m4.776-1.776-.44.418.416.458.848-.807-.805-.81-.656.625a6 6 0 0 1-.336.304l-.343.297.745.866c-.152.13-.3.264-.456.389l-.47.37-.704-.899c-.454.373-.944.7-1.42 1.043l.64.946.894-.636-.368-.497-.436.31m-.903-1.268.465-.331-.37-.496-.852.606.64.946c.48-.346.972-.676 1.43-1.053l-.706-.897.421-.33.405-.35.746.864.326-.283.164-.141.156-.149.625-.596-.804-.81-.71.677.416.457.365-.348m4.356-2.666-.352.495.496.369.678-.954-.946-.64c-.352.491-.69.993-1.074 1.46l.898.706-.37.47-.391.454-.865-.746-.288.333-.145.167-.152.16-.608.637.81.804.758-.794-.457-.417-.37.388m-1.126-1.07.393-.413-.458-.416-.722.758.81.804.614-.643q.155-.158.297-.33l.291-.335-.866-.744c.116-.136.237-.267.348-.407l.33-.42.9.703c.366-.444.685-.925 1.022-1.391l-.946-.64-.569.8.498.367.291-.41m3.742-3.463-.251.554.559.265c.16-.356.325-.71.48-1.069l-1.053-.442c-.119.278-.248.551-.371.827-.064.137-.122.277-.19.412l-.207.403 1.017.518-.273.533c-.09.178-.196.347-.293.522l-.993-.564c-.15.253-.288.512-.445.76l-.476.742.95.632c.198-.308.398-.614.592-.925l-.53-.32c-.092.152-.191.301-.287.452m-1.305-.833c.1-.16.21-.317.303-.482l-.53-.32c-.18.3-.374.589-.56.884l.95.632.48-.748c.156-.252.298-.512.448-.767l-.995-.562c.185-.305.34-.627.505-.943l1.019.515.197-.384q.092-.195.179-.392c.117-.263.24-.523.353-.788l-1.053-.443c-.129.3-.268.596-.401.895l.56.263.207-.458m3-4.128-.137.592.6.15c.087-.38.18-.76.26-1.142l-1.118-.227c-.063.296-.135.59-.202.885-.035.147-.065.295-.105.44l-.124.437 1.1.308c-.11.384-.214.77-.35 1.146l-1.084-.359c-.095.278-.185.558-.286.834l-.324.82 1.056.434c.133-.341.274-.68.4-1.023l-.582-.211c-.057.17-.129.333-.193.5m-1.447-.559c.067-.178.145-.352.202-.533l-.582-.21c-.052.167-.123.327-.185.49l-.192.486 1.056.434.326-.826c.1-.28.192-.56.288-.84l-1.085-.357c.123-.335.209-.681.309-1.023l1.1.306.118-.416.099-.42c.063-.28.132-.56.191-.842l-1.119-.227c-.068.32-.146.637-.218.956l.6.148.113-.49m2.124-4.636-.016.606.618.03.03-1.17-1.142-.004c-.018.604-.018 1.209-.078 1.811l1.139.086-.046.597c-.017.199-.048.397-.072.595l-1.133-.138c-.04.29-.069.583-.117.873l-.156.868 1.121.218c.064-.36.132-.72.19-1.082l-.61-.092c-.027.177-.062.352-.092.528m-1.522-.266c.03-.187.073-.373.095-.562l-.612-.091c-.05.345-.12.687-.179 1.03l1.121.218.157-.874c.046-.293.077-.587.116-.88l-1.133-.137c.02-.177.051-.353.061-.53l.04-.534 1.14.084c.057-.574.053-1.15.072-1.726l-1.142-.004-.025.981.618.028.013-.503m1.179-4.96c.034.2.078.398.101.6l.612-.091c-.056-.387-.133-.77-.2-1.155l-1.12.218.16.893c.046.299.078.6.118.899l1.134-.136c.023.198.057.395.069.595l.046.597-1.14.083c.059.586.056 1.174.075 1.761l1.142-.005-.028-1.096-.618.028.014.535m-1.545.039-.014-.571-.618.03.027 1.046 1.142-.004c-.018-.592-.018-1.185-.076-1.775l-1.14.086-.04-.533c-.015-.178-.043-.354-.064-.531l1.134-.139c-.04-.285-.067-.571-.115-.855l-.152-.85-1.12.218c.055.322.117.643.17.965l.611-.092c-.024-.166-.058-.33-.086-.496m.188-5.098c.072.19.155.375.216.568l.582-.209c-.06-.186-.137-.365-.207-.548l-.216-.544-1.056.434.333.843c.102.285.196.572.294.858l1.085-.356c.136.376.234.763.346 1.147l-1.1.305.12.424.1.43c.066.286.136.571.196.859l1.12-.227c-.077-.358-.163-.714-.245-1.07l-.6.148.12.522m-1.514.34-.128-.555-.6.15c.077.34.16.678.233 1.019l1.12-.227c-.062-.29-.133-.577-.198-.866-.035-.144-.064-.29-.103-.432l-.122-.427-1.1.308c-.097-.343-.188-.688-.31-1.023l1.084-.358c-.094-.272-.182-.546-.28-.816l-.318-.803-1.056.434c.118.304.244.606.356.913l.582-.21c-.053-.16-.122-.314-.181-.47m-.82-5.039c.106.172.222.339.322.515l.53-.32c-.2-.333-.418-.658-.627-.988l-.951.633.49.763c.158.257.303.522.456.783l.994-.562c.206.342.382.701.565 1.056l-1.02.516.202.392q.093.2.183.4c.12.269.246.534.36.805l1.053-.443c-.144-.336-.3-.668-.45-1.001l-.559.263.221.488m-1.413.636-.235-.52-.559.265c.142.318.29.634.429.954l1.052-.442c-.116-.273-.242-.54-.363-.811-.062-.134-.12-.271-.186-.403l-.203-.396-1.018.518-.244-.476c-.08-.16-.175-.31-.262-.466l.993-.564c-.146-.248-.282-.502-.436-.745l-.466-.727-.951.633.528.826.529-.32c-.087-.144-.18-.283-.27-.425m-1.773-4.785.419.44.458-.415-.808-.848-.81.804.626.656q.158.163.303.337l.297.342.867-.744c.13.152.264.3.388.455l.37.47-.898.704c.373.455.699.945 1.043 1.42l.946-.639-.636-.894-.498.367.31.437m-1.27.897-.33-.465-.497.37.607.852.946-.64c-.346-.48-.677-.972-1.053-1.43l-.898.706-.33-.422-.35-.405.865-.745-.283-.327-.142-.163-.149-.156-.595-.625-.81.804.676.71.457-.416-.348-.365m-2.665-4.35.494.353.37-.497-.955-.678-.64.946c.492.352.993.69 1.461 1.074l.706-.897.47.37.454.39-.746.865.333.289.166.144.16.152.637.608.805-.81-.795-.758-.417.457.388.37m-1.077 1.124-.413-.393-.416.458.758.722.804-.811-.643-.613a6 6 0 0 0-.33-.298l-.335-.29-.744.865c-.136-.115-.268-.236-.407-.348l-.42-.33.703-.9c-.445-.365-.925-.684-1.391-1.021l-.64.946.8.569.367-.498-.41-.292M44.09 7.696l.554.25.265-.558c-.356-.16-.71-.326-1.068-.48l-.443 1.053c.279.118.552.247.828.37.137.064.277.122.411.19l.404.208.518-1.018.532.273c.179.09.348.196.522.294l-.564.993c.254.149.513.288.761.445l.742.476.632-.951c-.308-.197-.615-.397-.925-.591l-.32.529c.152.093.3.192.452.287m-.827 1.314c-.161-.101-.317-.21-.483-.305l-.319.53c.299.18.588.375.883.561l.632-.95-.747-.48c-.252-.156-.512-.298-.768-.448l-.562.994c-.305-.185-.626-.34-.943-.504l.516-1.019-.384-.197q-.196-.091-.393-.18c-.263-.117-.523-.24-.788-.352l-.442 1.052c.3.13.596.269.894.402l.264-.56-.459-.207m-4.127-2.999.592.137.15-.6c-.381-.087-.76-.179-1.142-.26l-.227 1.119c.296.062.59.134.884.201.147.035.295.066.441.105l.436.124.308-1.1c.384.11.77.214 1.146.35l-.358 1.084c.278.096.557.185.833.286l.82.324.434-1.056c-.341-.133-.68-.274-1.023-.399l-.21.582c.169.056.333.128.5.192m-.569 1.448c-.178-.067-.352-.145-.534-.202l-.209.582c.167.052.327.123.49.185l.486.192.434-1.056-.827-.326c-.279-.1-.56-.192-.84-.288l-.356 1.085c-.335-.123-.681-.209-1.023-.309l.305-1.1-.415-.118-.42-.098c-.281-.064-.56-.133-.842-.192l-.227 1.119c.32.068.637.146.956.218l.148-.6-.49-.113m-4.631-2.127.607.016.03-.618-1.17-.03-.005 1.142c.605.017 1.21.018 1.812.078l.086-1.14.597.047c.199.017.396.048.594.071l-.138 1.134c.291.04.584.068.873.117l.868.155.218-1.12c-.36-.065-.72-.133-1.081-.191l-.093.611c.177.026.352.061.528.092m-.265 1.533c-.188-.031-.374-.074-.563-.095l-.09.612c.345.05.686.12 1.03.178l.218-1.12-.875-.157c-.292-.046-.587-.077-.88-.117l-.136 1.134c-.177-.02-.353-.052-.531-.062l-.534-.04.084-1.14c-.573-.056-1.15-.053-1.725-.072l-.005 1.142.982.025.028-.618-.504-.012"/><path fill="#e2dccb" d="M36.34 13.83a2.888 2.888 0 0 1-5.292 0l-.087.038a2.982 2.982 0 0 0 5.466 0z"/><path fill="#e2dccb" d="M35.828 13.57a2.31 2.31 0 0 1-4.233 0l-.087.038a2.404 2.404 0 0 0 4.406 0z"/><path fill="#e2dccb" d="m32.118 13.312-.087.038a1.826 1.826 0 0 0 3.347 0l-.087-.038a1.731 1.731 0 0 1-3.173 0"/><path fill="#e2dccb" d="M34.763 13.053a1.153 1.153 0 0 1-2.114 0l-.087.038a1.247 1.247 0 0 0 2.287 0z"/><path fill="#e2dccb" d="M34.25 12.789a.575.575 0 0 1-1.054 0l-.087.038a.67.67 0 0 0 1.227 0zm2.09-3.142a2.888 2.888 0 0 1-5.292 0l-.087.038a2.982 2.982 0 0 0 5.466 0z"/><path fill="#e2dccb" d="M35.828 9.388a2.31 2.31 0 0 1-4.233 0l-.087.038a2.404 2.404 0 0 0 4.406 0z"/><path fill="#e2dccb" d="m32.118 9.13-.087.038a1.826 1.826 0 0 0 3.347 0l-.087-.038a1.731 1.731 0 0 1-3.173 0"/><path fill="#e2dccb" d="M34.763 8.866a1.153 1.153 0 0 1-2.114 0l-.087.038a1.247 1.247 0 0 0 2.287 0z"/><path fill="#e2dccb" d="M34.25 8.607a.575.575 0 0 1-1.054 0l-.087.038a.67.67 0 0 0 1.227 0zm-.581 3.11a2.888 2.888 0 0 1-5.293 0l-.087.038a2.982 2.982 0 0 0 5.466 0z"/><path fill="#e2dccb" d="M33.132 11.459a2.31 2.31 0 0 1-4.233 0l-.087.038a2.404 2.404 0 0 0 4.407 0z"/><path fill="#e2dccb" d="M32.62 11.196a1.731 1.731 0 0 1-3.174 0l-.087.038a1.826 1.826 0 0 0 3.347 0z"/><path fill="#e2dccb" d="M32.067 10.938a1.153 1.153 0 0 1-2.113 0l-.087.038a1.248 1.248 0 0 0 2.287 0z"/><path fill="#e2dccb" d="M31.554 10.676a.575.575 0 0 1-1.053 0l-.087.037a.67.67 0 0 0 1.227 0zm7.506 1.041a2.888 2.888 0 0 1-5.294 0l-.086.038a2.982 2.982 0 0 0 5.466 0z"/><path fill="#e2dccb" d="M38.538 11.459a2.31 2.31 0 0 1-4.232 0l-.087.038a2.404 2.404 0 0 0 4.406 0z"/><path fill="#e2dccb" d="M38.01 11.196a1.732 1.732 0 0 1-3.173 0l-.087.038a1.826 1.826 0 0 0 3.347 0z"/><path fill="#e2dccb" d="M37.481 10.938a1.153 1.153 0 0 1-2.113 0l-.087.038a1.248 1.248 0 0 0 2.287 0z"/><path fill="#e2dccb" d="M36.945 10.676a.575.575 0 0 1-1.054 0l-.086.037a.67.67 0 0 0 1.227 0zM36.34 49.66a2.887 2.887 0 0 0-5.292 0l-.087-.038a2.982 2.982 0 0 1 5.466 0z"/><path fill="#e2dccb" d="M35.828 49.92a2.31 2.31 0 0 0-4.233 0l-.087-.038a2.404 2.404 0 0 1 4.406 0z"/><path fill="#e2dccb" d="m32.118 50.179-.087-.038a1.826 1.826 0 0 1 3.347 0l-.087.038a1.731 1.731 0 0 0-3.173 0"/><path fill="#e2dccb" d="M34.763 50.44a1.153 1.153 0 0 0-2.114 0l-.087-.037a1.247 1.247 0 0 1 2.287 0z"/><path fill="#e2dccb" d="M34.25 50.7a.575.575 0 0 0-1.054 0l-.087-.039a.67.67 0 0 1 1.227 0zm2.09 3.143a2.887 2.887 0 0 0-5.292 0l-.087-.038a2.982 2.982 0 0 1 5.466 0z"/><path fill="#e2dccb" d="M35.828 54.102a2.31 2.31 0 0 0-4.233 0l-.087-.038a2.404 2.404 0 0 1 4.406 0z"/><path fill="#e2dccb" d="m32.118 54.364-.087-.038a1.826 1.826 0 0 1 3.347 0l-.087.038a1.731 1.731 0 0 0-3.173 0"/><path fill="#e2dccb" d="M34.763 54.623a1.153 1.153 0 0 0-2.114 0l-.087-.038a1.247 1.247 0 0 1 2.287 0z"/><path fill="#e2dccb" d="M34.25 54.881a.575.575 0 0 0-1.054 0l-.087-.038a.67.67 0 0 1 1.227 0zm-.581-3.108a2.888 2.888 0 0 0-5.293 0l-.087-.038a2.982 2.982 0 0 1 5.466 0z"/><path fill="#e2dccb" d="M33.132 52.036a2.31 2.31 0 0 0-4.233 0l-.087-.038a2.404 2.404 0 0 1 4.407 0z"/><path fill="#e2dccb" d="M32.62 52.294a1.731 1.731 0 0 0-3.174 0l-.087-.038a1.826 1.826 0 0 1 3.347 0z"/><path fill="#e2dccb" d="M32.067 52.554a1.153 1.153 0 0 0-2.113 0l-.087-.038a1.248 1.248 0 0 1 2.287 0z"/><path fill="#e2dccb" d="M31.554 52.817a.575.575 0 0 0-1.053 0l-.087-.038a.67.67 0 0 1 1.227 0zm7.506-1.044a2.887 2.887 0 0 0-5.294 0l-.086-.038a2.982 2.982 0 0 1 5.466 0z"/><path fill="#e2dccb" d="M38.538 52.036a2.31 2.31 0 0 0-4.232 0l-.087-.038a2.404 2.404 0 0 1 4.406 0z"/><path fill="#e2dccb" d="M38.01 52.294a1.732 1.732 0 0 0-3.173 0l-.087-.038a1.826 1.826 0 0 1 3.347 0z"/><path fill="#e2dccb" d="M37.481 52.554a1.153 1.153 0 0 0-2.113 0l-.087-.038a1.248 1.248 0 0 1 2.287 0z"/><path fill="#e2dccb" d="M36.945 52.817a.575.575 0 0 0-1.054 0l-.086-.038a.67.67 0 0 1 1.227 0zM32.3 3.14A1.916 1.916 0 1 0 35.01.43a1.916 1.916 0 0 0-2.71 2.71M33.653.667l1.118 1.118-1.118 1.118-1.118-1.118zM32.3 63.162a1.916 1.916 0 1 0 2.71-2.71 1.916 1.916 0 0 0-2.71 2.71m1.354-2.473 1.118 1.118-1.118 1.117-1.118-1.117zM5.802 29.784a1.916 1.916 0 1 1-2.71 2.71 1.916 1.916 0 0 1 2.71-2.71M3.33 31.139l1.117 1.117 1.118-1.117-1.118-1.118zm61.707-1.355a1.916 1.916 0 1 1-2.71 2.71 1.916 1.916 0 0 1 2.71-2.71m-2.473 1.355 1.118 1.117 1.117-1.117-1.117-1.118z"/></g><g filter="url(#c)"><path fill="#d8dfb2" d="M28.818 19.533h9.66c3.68 0 6.67 3.12 6.67 6.96v10.08a7.12 7.12 0 0 1-1.953 4.922c-1.251 1.305-2.948 2.038-4.717 2.038h-9.66c-3.68 0-6.67-3.12-6.67-6.96v-10.08c0-1.846.703-3.616 1.954-4.921s2.947-2.039 4.716-2.039m-.23 2.4a4.05 4.05 0 0 0-2.927 1.265 4.42 4.42 0 0 0-1.213 3.055v10.56c0 2.388 1.852 4.32 4.14 4.32h10.12a4.05 4.05 0 0 0 2.928-1.265 4.42 4.42 0 0 0 1.212-3.055v-10.56c0-2.388-1.851-4.32-4.14-4.32zm11.098 1.8c.381 0 .747.158 1.016.44.27.28.421.662.421 1.06s-.151.78-.42 1.06c-.27.282-.636.44-1.017.44s-.747-.158-1.017-.44a1.53 1.53 0 0 1-.42-1.06c0-.398.15-.78.42-1.06.27-.282.636-.44 1.017-.44m-6.038 1.8a5.63 5.63 0 0 1 4.066 1.758 6.14 6.14 0 0 1 1.684 4.242 6.14 6.14 0 0 1-1.684 4.243 5.63 5.63 0 0 1-4.066 1.757 5.63 5.63 0 0 1-4.065-1.757 6.14 6.14 0 0 1-1.685-4.243c0-1.591.606-3.117 1.685-4.242a5.63 5.63 0 0 1 4.065-1.758m0 2.4c-.915 0-1.792.38-2.44 1.055a3.68 3.68 0 0 0-1.01 2.545c0 .955.364 1.87 1.01 2.546a3.38 3.38 0 0 0 2.44 1.054c.915 0 1.793-.38 2.44-1.054a3.68 3.68 0 0 0 1.01-2.546 3.68 3.68 0 0 0-1.01-2.545 3.38 3.38 0 0 0-2.44-1.055"/></g><defs><filter id="b" width="66.262" height="66.264" x=".591" y="-1.41" color-interpolation-filters="sRGB" filterUnits="userSpaceOnUse"><feFlood flood-opacity="0" result="BackgroundImageFix"/><feColorMatrix in="SourceAlpha" result="hardAlpha" values="0 0 0 0 0 0 0 0 0 0 0 0 0 0 0 0 0 0 127 0"/><feOffset/><feGaussianBlur stdDeviation="2.548"/><feComposite in2="hardAlpha" operator="out"/><feColorMatrix values="0 0 0 0 0.898039 0 0 0 0 0.764706 0 0 0 0 0.517647 0 0 0 0.54 0"/><feBlend in2="BackgroundImageFix" result="effect1_dropShadow_4122_227"/><feBlend in="SourceGraphic" in2="effect1_dropShadow_4122_227" result="shape"/></filter><filter id="c" width="31" height="34" x="18.148" y="19.533" color-interpolation-filters="sRGB" filterUnits="userSpaceOnUse"><feFlood flood-opacity="0" result="BackgroundImageFix"/><feColorMatrix in="SourceAlpha" result="hardAlpha" values="0 0 0 0 0 0 0 0 0 0 0 0 0 0 0 0 0 0 127 0"/><feOffset dy="6"/><feGaussianBlur stdDeviation="2"/><feComposite in2="hardAlpha" operator="out"/><feColorMatrix values="0 0 0 0 0 0 0 0 0 0 0 0 0 0 0 0 0 0 0.25 0"/><feBlend in2="BackgroundImageFix" result="effect1_dropShadow_4122_227"/><feBlend in="SourceGraphic" in2="effect1_dropShadow_4122_227" result="shape"/></filter><clipPath id="a"><path fill="#fff" d="M.813 0h65.813v65.813H.813z"/></clipPath></defs></svg>