<svg xmlns="http://www.w3.org/2000/svg" width="45" height="46" fill="none" viewBox="0 0 45 46"><g filter="url(#a)"><path fill="#000" d="m23.435 18.846-5.754 8.026-8.092-5.8 5.753-8.027zm11.262 8.068-5.746 8.016-7.784-5.58 5.746-8.016zm2.224-3.01c-.194.263-.38.522-.571.791l-7.856-5.63.603-.85c.75-1.055 1.458-2.052 2.2-3.048a607 607 0 0 1 3.057-4.067c.85-1.126 1.732-2.29 2.591-3.441.756-1.011.661-1.951-.273-2.717a4 4 0 0 0-.643-.43c-1.095-.581-2.002-.365-2.774.662a147 147 0 0 0-2.202 3.036l-.507.712-2.657 3.725-.019.027q-1.403 1.97-2.808 3.938a95 95 0 0 1-3.027-2.103c-2.109-1.512-4.196-3.07-5.08-3.786l.208-.293c.41-.586.66-1.053.63-1.564-.037-.61-.455-.99-.902-1.31a7 7 0 0 0-.204-.14l-.008-.005q-.071-.05-.146-.097c-1.2-.74-2.146-.513-2.978.714-.306.45-.612.909-.907 1.352-.48.72-.976 1.463-1.477 2.18-.567.81-1.153 1.63-1.72 2.422a215 215 0 0 0-2.383 3.378c-.619.9-.88.876-1.24.843-.62-.058-.996.177-1.202.383-.324.324-.466.8-.423 1.416.033.475.137.92.236 1.35l.034.142c.168.735.328 1.43.828 1.788.553.396 1.288.233 2.066.058a1 1 0 0 0 .215-.058c.155-.065.281-.09.603.141l.016.012a664 664 0 0 0 5.459 3.93l.029.021 1.406 1.009.97.695.053.039-.594.829c-1.06 1.478-2.06 2.87-3.075 4.294l-.017-.002-.055-.006c-.329-.042-.703-.088-1.093-.04-.492.062-.897.323-1.111.716-.218.399-.214.883.01 1.33.14.28.335.544.56.763.615.596 1.29 1.233 2.126 2.002q.064.06.14.115c.104.075.208.13.29.175q.061.03.1.054l.16.099a.51.51 0 0 0 .683-.168l.112-.165c.52-.764 1.035-1.536 1.534-2.283 1.169-1.749 2.374-3.553 3.637-5.271l1.102.789.017.011 2.382 1.706a822 822 0 0 1 4.21 3.034c.133.097.282.388.353.528.339.665.668 1.346 1.017 2.067l.435.9.154.315a.47.47 0 0 0 .419.264.53.53 0 0 0 .452-.254l.195-.312c.159-.254.3-.489.437-.716.266-.443.495-.825.75-1.178 3.227-4.452 6.107-8.407 8.807-12.09.562-.768.764-1.294.696-1.816-.077-.595-.507-.966-.825-1.194a5 5 0 0 0-.418-.268 3 3 0 0 0-.372-.186c-.997-.405-1.742-.179-2.415.734"/></g><defs><filter id="a" width="44.77" height="44.99" x=".195" y=".195" color-interpolation-filters="sRGB" filterUnits="userSpaceOnUse"><feFlood flood-opacity="0" result="BackgroundImageFix"/><feColorMatrix in="SourceAlpha" result="hardAlpha" values="0 0 0 0 0 0 0 0 0 0 0 0 0 0 0 0 0 0 127 0"/><feOffset/><feGaussianBlur stdDeviation="2"/><feColorMatrix values="0 0 0 0 0.94902 0 0 0 0 0.866667 0 0 0 0 0.486275 0 0 0 1 0"/><feBlend in2="BackgroundImageFix" result="effect1_dropShadow_3631_10"/><feBlend in="SourceGraphic" in2="effect1_dropShadow_3631_10" result="shape"/></filter></defs></svg>