<svg xmlns="http://www.w3.org/2000/svg" width="56" height="56" fill="none" viewBox="0 0 56 56"><g filter="url(#a)"><path fill="#000" d="m37.883 29.634-5.485 6.936L30 33.315l-2.837-3.85 4.002-5.06c1.537 1.062 5.102 3.817 6.718 5.229m4.45-8.827c-.462.092-.841.315-1.103.646-.317.4-.434.917-.34 1.493.029.164.053.339.075.507.065.479.131.973.298 1.472.077.234.077.376.041.48l-.17-.134q-.744-.59-1.486-1.183a177 177 0 0 0-3.634-2.848c-.864-.654-1.277-1.005-1.219-1.806.057-.786-.24-1.24-.5-1.481-.405-.377-.995-.514-1.75-.404-.702.102-1.435.268-2.376.54-.55.157-1.114.35-1.474.805-.52.657-.32 1.509-.236 1.871.187.794.03 1.396-.561 2.143q-.13.165-.3.35a23 23 0 0 0-.974 1.163c-.242.306-.479.616-.71.917-.226.294-.458.6-.69.892l-.333.421-1.11-1.321-3.267-3.888.312-.394 1.872-2.366L24.82 16l2.905-3.675.355-.444.007-.01.362-.456c.264-.333.464-.593.65-.844l.045-.058c.148-.195.333-.44.442-.753a1.4 1.4 0 0 0-.313-1.472c-.454-.476-1.274-.746-1.91-.628a42 42 0 0 0-3.829.905c-.36.103-.814.271-1.127.667-.37.467-.38 1.021-.338 1.551.052.61.121 1.32.319 2.023.097.35.082.595-.27 1.04l-.013.017a1484 1484 0 0 0-5.417 6.817l-.748.948-.748.946a1920 1920 0 0 1-3.42 4.314c-.462.582-.98 1.152-1.481 1.705l-.512.567c-.302.339-.621.679-.957 1.04q-.245.261-.512.549l-.26.282-.034.038a.673.673 0 0 0 .266 1.035l.352.148.446.189 1.508.638.188.079a.67.67 0 0 0 .788-.202l.127-.16 5.454-6.897 4.342 5.121-2.79 3.253-1.737 2.026-.237.276-.018.02a.673.673 0 0 0 .261 1.033l.336.145q.234.098.452.186c.283.113.55.22.773.346.846.481 1.643.328 2.243-.43q.074-.094.153-.21c.823-1.209 1.705-2.414 2.558-3.582l.187-.256a118 118 0 0 1 5.256 7.345l-3.216 3.624-.77.867-.232.26-.024.03a.67.67 0 0 0 .223 1.013l.31.159q.14.07.275.142l.006.003c.23.12.464.242.717.353.258.113.512.205.76.294l.306.113.195.073a.67.67 0 0 0 .761-.212q.014-.015.023-.031l.12-.17q.322-.464.625-.91c.425-.626.826-1.218 1.263-1.773 3.222-4.087 6.363-8.062 9.012-11.41q1.756-2.223 3.514-4.444l3.514-4.445.684-.864q.082-.102.177-.214.106-.125.215-.26c.156-.198.271-.372.364-.548.157-.298.635-1.207.132-1.88-.39-.523-1.162-.857-1.795-.778-1.323.167-2.63.419-3.75.643"/></g><defs><filter id="a" width="54.23" height="54.514" x=".871" y=".633" color-interpolation-filters="sRGB" filterUnits="userSpaceOnUse"><feFlood flood-opacity="0" result="BackgroundImageFix"/><feColorMatrix in="SourceAlpha" result="hardAlpha" values="0 0 0 0 0 0 0 0 0 0 0 0 0 0 0 0 0 0 127 0"/><feOffset/><feGaussianBlur stdDeviation="3.5"/><feComposite in2="hardAlpha" operator="out"/><feColorMatrix values="0 0 0 0 0.94902 0 0 0 0 0.866667 0 0 0 0 0.486275 0 0 0 1 0"/><feBlend in2="BackgroundImageFix" result="effect1_dropShadow_3628_1481"/><feBlend in="SourceGraphic" in2="effect1_dropShadow_3628_1481" result="shape"/></filter></defs></svg>