<svg xmlns="http://www.w3.org/2000/svg" width="62" height="59" fill="none" viewBox="0 0 62 59"><g filter="url(#a)"><path fill="#000" d="M36.348 21.095c-.996 3.06-2.166 5.746-3.62 8.308L25.44 27.06c.23-.422.452-.837.667-1.263.525-1.041 1.04-2.1 1.54-3.124q.347-.716.696-1.429l.081-.16c1.317.01 2.72.013 4.515.013l2.612-.002zM16.371 49.69c7.079-2.07 12.673-5.037 17.102-9.066a72 72 0 0 0 1.202-1.126l.096.102.019.021c.905.963 1.76 1.872 2.65 2.784l.34.353c.595.622 1.265 1.32 2.08 1.855.66.432 1.403.66 2.15.66 1.607 0 2.974-1.022 3.484-2.602.174-.541.527-1.932.054-3.178-.563-1.482-1.265-2.65-2.086-3.475-1.003-1.003-2.074-1.849-3.208-2.743l-.344-.27c2.166-3.489 3.926-7.403 5.359-11.917l.691.002h1.731c1.133 0 2.01-.002 2.845-.007h.125c.576-.004 1.23-.006 1.894-.138 1.182-.234 1.687-.928 1.883-1.32.199-.396.451-1.225-.081-2.334a4.1 4.1 0 0 0-.988-1.318l-.605-.524c-1.117-.97-2.271-1.968-3.481-2.892-.503-.384-1.121-.773-1.9-.773-.919-.002-1.588.534-2.175 1.113a21 21 0 0 0-2.105 2.403c-.15.202-.236.293-.68.293l-.039-.002a422 422 0 0 0-4.67-.021l-2.743.002-.053.002-2.678.002h-1.407c.319-.696.655-.86 1.157-.902.613-.05 1.13-.33 1.465-.54.926-.572 1.444-1.511 1.384-2.51-.057-.948-.637-1.768-1.553-2.191-2.226-1.033-4.497-1.512-7.02-1.99l-.357-.067a1.066 1.066 0 0 0-1.2.686l-.122.34-.758 2.089c-.628 1.731-1.22 3.36-1.799 5.009l-.035.096h-.002c-2.764-.126-5.57-.218-8.284-.305l-.03-.002q-1.605-.051-3.21-.107a32 32 0 0 1-.751-.038h-.02c-.153-.008-.318-.02-.503-.028l-.59-.031-.056-.003a1.068 1.068 0 0 0-1.026 1.348l.157.57.008.03.908 3.288.09.33c.129.464.55.782 1.026.782h.06l.343-.02q.97-.056 1.884-.119c1.355-.09 2.634-.175 3.907-.185.457-.002.917-.015 1.361-.028.51-.013 1.032-.027 1.543-.027q.279 0 .535.004a2980 2980 0 0 1-4.83 7.983l-.56.925q-.217.358-.442.713c-.22.351-.447.713-.664 1.084-.715 1.218-.418 2.502.796 3.433 1.02.784 2.163 1.197 3.303 1.197 1.66 0 3.17-.852 4.252-2.396a107 107 0 0 0 1.578-2.34l.01-.015.027-.043 4.463 2.513 1.525.858-.27.266c-1.107 1.089-2.151 2.115-3.239 3.029-3.878 3.262-8.688 5.837-15.136 8.109l-.288.096c-.398.13-.842.272-1.283.54-.715.435-1.271 1.523-.96 2.454.225.666.865 1.471 1.74 1.66q.28.062.584.063c.454 0 .865-.103 1.196-.183l.084-.02q.576-.14 1.158-.277c1.306-.308 2.656-.628 3.982-1.015"/></g><defs><filter id="a" width="61.188" height="57.828" x=".484" y=".355" color-interpolation-filters="sRGB" filterUnits="userSpaceOnUse"><feFlood flood-opacity="0" result="BackgroundImageFix"/><feColorMatrix in="SourceAlpha" result="hardAlpha" values="0 0 0 0 0 0 0 0 0 0 0 0 0 0 0 0 0 0 127 0"/><feOffset/><feGaussianBlur stdDeviation="3.5"/><feComposite in2="hardAlpha" operator="out"/><feColorMatrix values="0 0 0 0 0.94902 0 0 0 0 0.866667 0 0 0 0 0.486275 0 0 0 1 0"/><feBlend in2="BackgroundImageFix" result="effect1_dropShadow_3712_2685"/><feBlend in="SourceGraphic" in2="effect1_dropShadow_3712_2685" result="shape"/></filter></defs></svg>