<svg xmlns="http://www.w3.org/2000/svg" width="29" height="31" fill="none" viewBox="0 0 29 31"><g filter="url(#a)"><path fill="#000" d="m5.357 22.399.138-.083c.3-.178.599-.36.888-.535a47 47 0 0 1 1.953-1.143c.84-.456 1.807-.824 2.959-1.124a16 16 0 0 1 3.184-.485c.96-.053 1.857-.036 2.732.051l-.678 1.09-.681 1.095-2.466 3.964q-.02.033-.047.072l-.065.098a1 1 0 0 0-.107.231c-.079.265-.073.473.018.636.14.253.522.295.734.229.668-.213 1.211-.4 1.71-.591.12-.046.291-.127.396-.295.126-.204.093-.428.049-.6a9 9 0 0 0-.3-.968c-.046-.125-.037-.172.016-.258l.003-.004c.533-.846 1.073-1.712 1.576-2.521l.334-.537.333-.536.525-.843.44.275.003.002a89 89 0 0 0 1.78 1.096c.267.159.256.199.227.307-.029.11-.016.211-.008.278l.002.014c.037.314.182.538.409.63.128.053.39.102.71-.154.26-.21.483-.455.647-.646.164-.19.311-.382.466-.585l.196-.256.07-.089.015-.021a.25.25 0 0 0-.085-.345l-.097-.057-.636-.374c-.47-.275-.914-.536-1.358-.805a109 109 0 0 1-1.358-.841l-.322-.201.64-1.029.014-.023.007-.012a1772 1772 0 0 1 2.455-3.94c.16-.256.345-.51.523-.755l.164-.225c.084-.117.172-.231.275-.363q.075-.095.157-.203l.087-.113.014-.02a.248.248 0 0 0-.138-.368l-.137-.042-.266-.082-.508-.156-.077-.023a.25.25 0 0 0-.289.116l-.039.07a67 67 0 0 1-1.57 2.638l-.718 1.146.104.067-.001.002-.105-.066-.722 1.15-.464.754a23 23 0 0 1-2.334-4.59 25 25 0 0 1-1.3-5.083c-.058-.388-.1-.79-.14-1.178-.021-.206-.043-.42-.068-.63l-.003-.032c-.039-.465-.345-.535-.524-.535a.53.53 0 0 0-.467.242.74.74 0 0 0-.094.37l-.012.285a22.3 22.3 0 0 0 .556 5.869 23.4 23.4 0 0 0 1.713 4.834l-3.283-2.12-1.353-.875.123-.198.386-.626c.125-.204.253-.413.38-.617.38-.611.841-1.325 1.38-1.987l.094-.115.018-.026a.248.248 0 0 0-.14-.368l-.142-.043-.478-.142-.339-.102-.083-.024a.25.25 0 0 0-.298.136l-.035.08c-.303.682-.673 1.303-.994 1.82q-.206.329-.412.65c-.136.215-.277.436-.414.656l-.128.208-.02-.013-.864-.557-.002-.002c-.713-.459-1.45-.933-2.164-1.412-.263-.175-.57-.357-.895-.287-.308.067-.5.328-.62.518q-.06.096-.122.216l-.003.007-.02.04c-.286.589-.143 1.077.412 1.41.479.287.967.574 1.44.853l.002.001c.354.209.72.424 1.08.638.2.12.4.246.614.38l.037.023-.002.005-.079.126-.399.642-.493.793-.892 1.434q-.022.036-.047.072l-.056.087c-.05.08-.084.147-.11.216q-.164.428.034.648c.145.162.436.285.673.213a34 34 0 0 0 1.594-.535.63.63 0 0 0 .33-.26.68.68 0 0 0 .077-.5 3.3 3.3 0 0 0-.178-.64c-.058-.155-.116-.314-.102-.409a.7.7 0 0 1 .103-.233 5 5 0 0 1 .135-.197q.08-.11.156-.23l.012-.02c.057-.095.12-.196.196-.318l.135-.216 5.345 3.214-.088-.01-.16-.02a18.6 18.6 0 0 0-5.248.118c-1.694.284-3.377.82-5 1.59a5 5 0 0 0-.646.37.8.8 0 0 0-.25.245c-.18.29-.023.58.036.688.048.087.102.165.15.234l.026.036c.183.265.234.495.164.747-.034.123-.017.235-.005.317l.009.069.01.16a.248.248 0 0 0 .375.195"/></g><defs><filter id="a" width="27.527" height="30.478" x=".508" y=".045" color-interpolation-filters="sRGB" filterUnits="userSpaceOnUse"><feFlood flood-opacity="0" result="BackgroundImageFix"/><feColorMatrix in="SourceAlpha" result="hardAlpha" values="0 0 0 0 0 0 0 0 0 0 0 0 0 0 0 0 0 0 127 0"/><feOffset/><feGaussianBlur stdDeviation="2"/><feColorMatrix values="0 0 0 0 0.94902 0 0 0 0 0.866667 0 0 0 0 0.486275 0 0 0 1 0"/><feBlend in2="BackgroundImageFix" result="effect1_dropShadow_3766_1921"/><feBlend in="SourceGraphic" in2="effect1_dropShadow_3766_1921" result="shape"/></filter></defs></svg>