<svg xmlns="http://www.w3.org/2000/svg" width="50" height="52" fill="none" viewBox="0 0 50 52"><g filter="url(#a)"><path fill="#000" d="M22.602 38.856c.399-.397.543-.84.639-1.135q.018-.058.037-.111l.18-.513c.232-.658.47-1.333.665-2.012.4-1.404.79-2.83 1.167-4.214 2.846 2.967 5.643 5.887 8.328 8.694q.709.74 1.414 1.486l.004.004c.783.824 1.592 1.676 2.397 2.506.94.968 2.115.784 3.494-.546l.112-.108c.33-.328.61-.657.836-.976.752-1.066.88-2.088.35-2.805l-.076-.102a6 6 0 0 0-.62-.75c-.205-.2-.42-.383-.628-.56-.204-.174-.416-.354-.603-.539A1733 1733 0 0 1 29.874 26.76l-.523-.526c1.498-.15 2.997-.088 4.687.183l.21.035c.378.064.803.137 1.273.117.767-.033 1.555-.397 2.161-1 .761-.757 1.103-1.751.89-2.595a2.55 2.55 0 0 0-1.106-1.518c-.524-.324-1.2-.402-1.85-.437-1.398-.076-2.832.32-4.177.766l.033-.137c.258-1.071.502-2.083.691-3.117.16-.867.296-1.3.724-1.726l.012-.011c.496-.494 1.041-1.524.732-2.101-.248-.465-.897-.721-1.542-.61-1.489.257-2.946.859-4.312 1.452l-.319.138a1.07 1.07 0 0 0-.488.442c-.111.193-.144.399-.09.563l.088.263c.668 2.01.963 4.088.9 6.337-.332.164-.65.32-.963.462-.33-.271-.49-.422-.472-.727.185-3.18-.128-6.453-.957-10.01-.114-.489-.081-.729.153-1.112.607-.995.569-1.628.429-1.985-.21-.536-.75-.8-1.606-.784-.677.013-1.363.138-2.026.26l-.099.018c-.953.173-1.776.324-2.426.97-.652.649-.801 1.454-.99 2.473l-.012.067c-.027.146-.08.443-.133.56a11 11 0 0 1-.632.678q-.176.174-.363.352l-3.47-3.489c.126-.273.252-.554.362-.846l.005-.011c.18-.483.662-1.766-.404-2.107-.575-.184-1.401.084-1.964.431-1.439.888-2.888 2.036-4.43 3.51l-.235.223-.016.015a.97.97 0 0 0-.276.499c-.034.182.008.346.115.453l.162.163 5.622 5.654q-.28.285-.56.562a75 75 0 0 1-4.586 4.194l-.355.299a.95.95 0 0 0-.352.62c-.02.22.071.398.246.477l.313.142 1.774.8.172.079c.24.108.58.007.83-.241l.034-.037.173-.189q.563-.613 1.09-1.195l.006-.006c.786-.864 1.528-1.68 2.29-2.474.387-.403.806-.828 1.32-1.338.365-.364.74-.735 1.105-1.092q.466-.456.927-.914l.301-.298q.395-.393.788-.787l.006-.006.022-.021.763-.761.594-.59c1.617 5.123 1.971 10.834 1.054 16.978-.162 1.09-.38 2.217-.59 3.309q-.128.652-.25 1.3l-.022.109c-.042.2-.112.529-.041.84.098.43.436.67.949.675.498.006.981-.198 1.359-.574"/></g><defs><filter id="a" width="49.215" height="50.184" x=".332" y=".988" color-interpolation-filters="sRGB" filterUnits="userSpaceOnUse"><feFlood flood-opacity="0" result="BackgroundImageFix"/><feColorMatrix in="SourceAlpha" result="hardAlpha" values="0 0 0 0 0 0 0 0 0 0 0 0 0 0 0 0 0 0 127 0"/><feOffset/><feGaussianBlur stdDeviation="3.5"/><feComposite in2="hardAlpha" operator="out"/><feColorMatrix values="0 0 0 0 0.94902 0 0 0 0 0.866667 0 0 0 0 0.486275 0 0 0 1 0"/><feBlend in2="BackgroundImageFix" result="effect1_dropShadow_3766_1928"/><feBlend in="SourceGraphic" in2="effect1_dropShadow_3766_1928" result="shape"/></filter></defs></svg>