<svg xmlns="http://www.w3.org/2000/svg" width="74" height="74" fill="none" viewBox="0 0 74 74"><g fill="#000" filter="url(#a)"><path d="M9.008 29.18 7.9 30.856l-.112.17a.63.63 0 0 0 .076.788l.142.146c.471.482.944.954 1.401 1.41.986.986 1.918 1.917 2.81 2.9 4.87 5.365 9.69 10.692 13.347 14.733l5.641 6.236.174.192.088.097 5.726 6.331.963 1.065.136.154q.08.093.16.182c.154.17.285.296.422.407.367.295.79.408 1.194.318.238-.052.682-.23.975-.828.15-.307.237-.645.244-.953l.02-.84c.031-1.26.064-2.561.045-3.849-.007-.43-.06-.923-.407-1.307-.396-.437-.965-.498-1.468-.5-.845-.004-1.753.01-2.67.142-.499.072-.757-.023-1.104-.407l-.028-.032a406 406 0 0 0-3.46-3.867q-.984-1.088-1.97-2.172l-.008-.009-.008-.008-1.766-1.947c.39-.1.781-.198 1.164-.294 1.106-.277 2.243-.562 3.36-.878 5.926-1.683 11.574-3.936 16.795-6.12l.143-.06c.927-.391 1.182-.446 1.554-.076.533.53 1.48.448 1.952.273.478-.179.795-.561.892-1.078.065-.35.016-.685-.01-.865a6.4 6.4 0 0 0-.332-1.35c-.43-1.131-.896-2.265-1.308-3.265a3 3 0 0 0-.3-.538l-.113-.177-.132-.219a.63.63 0 0 0-.393-.288.63.63 0 0 0-.48.079l-.217.135q-.435.271-.839.53c-.566.36-1.101.701-1.646 1.014-6.607 3.792-13.86 7.155-22.175 10.28-.37.14-.436.137-.738-.197l-.014-.015a1497 1497 0 0 0-5.427-6.024l-.774-.855-.773-.855a1640 1640 0 0 1-4.9-5.435c-.668-.745-1.31-1.556-1.93-2.34-.304-.384-.618-.782-.935-1.17a10 10 0 0 0-.305-.345l-.183-.2-.218-.241a.63.63 0 0 0-.994.076zM34.59 10.01l-.195.301-.937 1.446-.112.172a.63.63 0 0 0 .062.765l.021.023.144.145q.427.424.834.82c.564.55 1.095 1.067 1.587 1.61 5.086 5.61 10.195 11.257 14.585 16.11l2.659 2.939 2.659 2.939 3.697 4.085q.074.081.143.162l.155.173c.15.165.331.358.547.539.634.53 1.177.52 1.523.418.351-.104.824-.404 1.08-1.24a2.8 2.8 0 0 0 .136-.877l-.014-.736v-.01a74 74 0 0 0-.11-3.23c-.027-.415-.082-.89-.422-1.265-.394-.436-.949-.491-1.437-.51a23 23 0 0 0-2.641.047c-.361.028-.521-.032-.745-.28l-.015-.016a517 517 0 0 0-3.491-3.891l-1.366-1.509-.015-.016-.015-.016-1.365-1.507-.686-.76 4.688-4.24c.331.125.674.248 1.06.303.205.03 1.257.142 1.804-.494.418-.486.335-1.131.274-1.603l-.013-.106c-.048-.393-.234-.72-.429-1.014a173 173 0 0 0-1.961-2.9 2 2 0 0 0-.156-.196 3 3 0 0 0-.299-.283l-.074-.065-.17-.164a.63.63 0 0 0-.861-.015l-.175.158-7.317 6.62a119 119 0 0 0-1.682-1.894c-.721-.797-1.46-1.6-2.175-2.375a302 302 0 0 1-2.173-2.37c-1.585-1.752-3.437-3.862-5.151-6.23l-.216-.298a.63.63 0 0 0-.527-.26.63.63 0 0 0-.512.286z"/><path d="M29.183 37.354c.421-.443.785-.825 1.117-1.252 3.416-4.386 5.608-9.452 6.703-15.484l.01-.056c.043-.23.101-.547.028-.889a1.35 1.35 0 0 0-.323-.61 1.26 1.26 0 0 0-.642-.394c-.524-.125-1.075.17-1.327.51-.183.245-.3.5-.403.725l-.068.146c-2.435 5.096-5.568 9.558-9.314 13.263a17 17 0 0 0-1.914 2.222c-.728 1.027-.721 2.13.02 2.95q.36.397.916.68c.615.313 1.516.36 2.24.118.644-.215 1.208-.543 1.66-.806.14-.082.273-.159.377-.213l.039-.021a.6.6 0 0 0 .17-.131l.03-.033c.246-.268.467-.5.68-.725"/></g><defs><filter id="a" width="69.496" height="70.602" x=".684" y="2.414" color-interpolation-filters="sRGB" filterUnits="userSpaceOnUse"><feFlood flood-opacity="0" result="BackgroundImageFix"/><feColorMatrix in="SourceAlpha" result="hardAlpha" values="0 0 0 0 0 0 0 0 0 0 0 0 0 0 0 0 0 0 127 0"/><feOffset/><feGaussianBlur stdDeviation="3.5"/><feComposite in2="hardAlpha" operator="out"/><feColorMatrix values="0 0 0 0 0.94902 0 0 0 0 0.866667 0 0 0 0 0.486275 0 0 0 1 0"/><feBlend in2="BackgroundImageFix" result="effect1_dropShadow_3628_1468"/><feBlend in="SourceGraphic" in2="effect1_dropShadow_3628_1468" result="shape"/></filter></defs></svg>