<svg xmlns="http://www.w3.org/2000/svg" width="26" height="27" fill="none" viewBox="0 0 26 27"><g fill="#000" filter="url(#a)"><path d="M17.383 16.403a16 16 0 0 1 2.608-1.717l.02.047c.038.086.154.35.394.403.213.046.463-.1.572-.26.373-.547.599-1.164.797-1.709l.025-.068a.22.22 0 0 0-.094-.262l-.063-.037q-.039-.021-.068-.04a2 2 0 0 0-.125-.07c-.576-.291-1.142-.671-1.833-1.232-1.62-1.316-3.013-2.934-4.258-4.948-.303-.49-.58-1.012-.848-1.517-.112-.213-.23-.434-.347-.65a.7.7 0 0 0-.188-.238.45.45 0 0 0-.482-.033.45.45 0 0 0-.263.352.65.65 0 0 0 .047.299l.047.134c.082.233.166.473.254.709.638 1.709 1.457 3.265 2.434 4.626a17.3 17.3 0 0 0 3.39 3.535l-.282.123c-1.49.638-2.86 1.45-4.07 2.416a17 17 0 0 0-3.248 3.444c-.194.272-.281.45-.301.616a.52.52 0 0 0 .184.476c.105.094.242.163.4.243l.005.003c.258.13.375.286.394.52.01.128.074.227.117.292l.027.044.024.046a.22.22 0 0 0 .186.115l.051.002h.027l.064.002.057.002a.22.22 0 0 0 .202-.125l.024-.052c.553-1.178 1.058-2.142 1.724-3.019a14.2 14.2 0 0 1 2.396-2.472"/><path d="M5.492 11.607a.58.58 0 0 0-.725.019 1.17 1.17 0 0 0-.414.775c-.046.375.07.74.311.98q.07.067.14.127l.03.027a36.5 36.5 0 0 0 4.87 3.664c.432.27.492.443.526.64.057.338.222.473.35.527q.293.12.666-.14c.223-.156.426-.33.661-.546.224-.204.397-.378.426-.608.032-.261-.128-.47-.34-.716-.091-.106-.114-.189-.096-.34v-.005c.112-.88.222-1.77.314-2.525v-.005l.094-.757.093-.757.141-1.153.032-.255c.108-.877.22-1.784.344-2.673.04-.292.099-.586.16-.896q.045-.221.089-.457l.02-.114.003-.013a.217.217 0 0 0-.237-.243l-.116.012-.58.058-.113.012-.075.007a.22.22 0 0 0-.193.19l-.002.016-.003.075a31 31 0 0 1-.21 2.315c-.042.349-.089.703-.134 1.045a118 118 0 0 0-.18 1.432c-.063.553-.134 1.145-.223 1.864l-.18 1.457-.13 1.049a30.8 30.8 0 0 1-4.96-3.787 3 3 0 0 0-.36-.301m8.886-2.357-.499.07-.068.01a.22.22 0 0 0-.185.188v.006l-.007.069-.048.546c-.033.385-.064.749-.107 1.113-.056.48-.12 1-.198 1.642l-.13 1.059-.001.009v.004l-.132 1.064-.014.111-.002.016-.018.153-.02.155a29 29 0 0 0-.068.596c-.007.065-.02.172.007.282.04.162.15.277.313.322a.7.7 0 0 0 .608-.142c.342-.314.677-.66.947-.939a.63.63 0 0 0 .182-.364.64.64 0 0 0-.155-.49l-.048-.059a5 5 0 0 0-.375-.424c-.092-.089-.118-.159-.104-.277l.004-.026c.024-.147.046-.306.07-.502l.04-.334.038-.329.024-.187.037-.287.054-.458.053-.453c.065-.526.146-1.09.302-1.641a.4.4 0 0 0 .013-.063c.006-.056.001-.104-.002-.14l-.004-.035-.004-.096a.22.22 0 0 0-.247-.206l-.095.013z"/></g><defs><filter id="a" width="25.469" height="26.053" x=".344" y=".018" color-interpolation-filters="sRGB" filterUnits="userSpaceOnUse"><feFlood flood-opacity="0" result="BackgroundImageFix"/><feColorMatrix in="SourceAlpha" result="hardAlpha" values="0 0 0 0 0 0 0 0 0 0 0 0 0 0 0 0 0 0 127 0"/><feOffset/><feGaussianBlur stdDeviation="2"/><feComposite in2="hardAlpha" operator="out"/><feColorMatrix values="0 0 0 0 0.94902 0 0 0 0 0.866667 0 0 0 0 0.486275 0 0 0 1 0"/><feBlend in2="BackgroundImageFix" result="effect1_dropShadow_3766_1924"/><feBlend in="SourceGraphic" in2="effect1_dropShadow_3766_1924" result="shape"/></filter></defs></svg>