<svg xmlns="http://www.w3.org/2000/svg" width="34" height="37" fill="none" viewBox="0 0 34 37"><g filter="url(#a)"><path fill="#000" d="m8.375 11.42-.45-2.677c.952-.198 3.484-.653 6.186-1.107 1.955-.329 3.452-.566 4.162-.66l.45 2.676c-.958.2-3.526.661-6.272 1.123-1.91.322-3.377.553-4.076.646m10.639.005.445 2.65-10.344 1.739-.446-2.65zm1.104 6.378q.075.455.154.921c-.975.206-3.605.68-6.417 1.152-1.844.31-3.268.536-3.958.628l-.492-2.925c.958-.2 3.511-.659 6.238-1.117 1.939-.326 3.427-.562 4.134-.655.12.666.233 1.341.34 1.996m8.118 5.552-.02-.151-.001-.006a13 13 0 0 0-.16-.996c-.066-.306-.405-.578-.71-.57l-.078.006c-.29.05-.532.335-.589.571-.039.16-.047.315-.056.451q-.006.127-.02.229-.033.21-.063.423c-.076.5-.153 1.017-.257 1.512-.09.425-.34.7-.766.842l-.144.049c-.276.093-.563.19-.84.252-.688.154-1.421.314-2.15.437-.721.121-1.364.193-1.967.218-.095.004-.385.016-.469-.052-.085-.069-.136-.36-.153-.454a531 531 0 0 1-.73-4.245l-.19-1.112c.213-.051.466-.103.73-.147a10 10 0 0 1 .967-.12l.014.06c.176.761.56 1.04 1.326.957a3 3 0 0 0 .444-.081c.865-.238 1.204-.777 1.038-1.646-.04-.214-.091-.425-.14-.629-.05-.207-.101-.422-.14-.63-.569-3.095-1.03-5.623-1.448-7.953-.082-.457-.158-.924-.232-1.375a66 66 0 0 0-.325-1.873c-.076-.398-.044-.55.158-.737.32-.299.375-.595.363-.79q-.028-.455-.52-.817a7 7 0 0 0-.834-.51c-.387-.21-.72-.392-1.07-.333-.41.07-.644.417-.916.82-.154.23-.309.327-.59.375l-.01.001c-1.81.295-3.407.56-4.879.808-1.6.269-3.067.52-4.486.77l-.037.006c-.572.096-1.015.06-1.433-.119a5.6 5.6 0 0 0-.898-.272H5.95l-.25-.062c-.121-.032-.233-.036-.34-.04l-.135-.006-.167-.012a.32.32 0 0 0-.267.106.33.33 0 0 0-.082.276l.028.165.033.198.002.009c.022.135.04.25.063.37.108.587.22 1.178.327 1.748.235 1.25.478 2.54.695 3.812.309 1.813.599 3.662.88 5.451v.005l.205 1.298.021.134c.13.826.265 1.677.361 2.515.06.515.137.962.477 1.217.297.224.664.199.985.145q.14-.023.324-.065c.126-.03.26-.064.395-.125.55-.249.76-.633.687-1.246l-.022-.175 1.329-.223a.4.4 0 0 0-.008.06l-.001.142-.003.226v.006c-.001.137-.002.253-.005.365q-.005.163-.007.32a8 8 0 0 1-.032.717c-.168 1.51-.823 2.905-2.002 4.262-1.1 1.265-2.504 2.334-4.295 3.268l-.16.08c-.142.07-.303.148-.456.253-.218.15-.378.507-.268.8.096.257.36.399.575.446q.124.028.264.004c.09-.015.169-.044.227-.065l.023-.008c2.206-.786 3.875-1.666 5.251-2.77.973-.778 1.77-1.658 2.37-2.615.628-1 1.06-2.114 1.281-3.308.076-.406.121-.463.269-.51.183-.058.307-.18.414-.303.2-.23.276-.498.212-.753-.064-.256-.26-.457-.548-.567a2 2 0 0 0-.486-.112c-.48-.045-.962-.088-1.469-.131l3.554-.598.29 1.81.004.025c.175 1.103.357 2.242.54 3.367.074.46.16.87.264 1.254.228.85.854 1.4 1.716 1.51.45.058 1.124.124 1.78.037a71 71 0 0 0 2.498-.368 36 36 0 0 0 3.442-.738 8 8 0 0 0 1.544-.592c.361-.185.714-.482.966-.814.263-.346.334-.822.186-1.242-.128-.366-.398-.623-.74-.71-.252-.062-.313-.148-.346-.486q-.046-.468-.108-.926"/></g><defs><filter id="a" width="33.279" height="36.855" x=".227" y=".124" color-interpolation-filters="sRGB" filterUnits="userSpaceOnUse"><feFlood flood-opacity="0" result="BackgroundImageFix"/><feColorMatrix in="SourceAlpha" result="hardAlpha" values="0 0 0 0 0 0 0 0 0 0 0 0 0 0 0 0 0 0 127 0"/><feOffset/><feGaussianBlur stdDeviation="2"/><feColorMatrix values="0 0 0 0 0.94902 0 0 0 0 0.866667 0 0 0 0 0.486275 0 0 0 1 0"/><feBlend in2="BackgroundImageFix" result="effect1_dropShadow_3766_1919"/><feBlend in="SourceGraphic" in2="effect1_dropShadow_3766_1919" result="shape"/></filter></defs></svg>