<svg xmlns="http://www.w3.org/2000/svg" width="338" height="82" fill="none" viewBox="0 0 338 82"><g filter="url(#a)"><path fill="url(#b)" d="M7 22.194v4.573l.572 5.717 1.143 4.573 6.288 21.722 2.858 8.575L62.45 69.64h255.525l9.718-30.297 2.858-13.72v-3.429l-.572-1.143-1.715.571-5.144 2.287-3.43 1.143-4.002 1.144-12.576 2.286-8.003.572H36.725l-8.003-1.143-8.574-2.287-8.003-2.858L7 21.05z"/><path stroke="#edecec" stroke-width="1.5" d="M7 22.194v4.573l.572 5.717 1.143 4.573 6.288 21.722 2.858 8.575L62.45 69.64h255.525l9.718-30.297 2.858-13.72v-3.429l-.572-1.143-1.715.571-5.144 2.287-3.43 1.143-4.002 1.144-12.576 2.286-8.003.572H36.725l-8.003-1.143-8.574-2.287-8.003-2.858L7 21.05z"/></g><mask id="c" fill="#fff"><path d="m199.168 14.389.043-.008c3.703-.201 5.701-1.181 5.789-1.225l-.572-.468a6 6 0 0 1-.47.19v-.176c-.005-.077-.057-.149-.143-.202a.63.63 0 0 0-.322-.082c-.12 0-.235.03-.321.082s-.138.125-.144.202v.473q-.267.075-.581.15v-.298a.2.2 0 0 0-.029-.118.3.3 0 0 0-.099-.101.5.5 0 0 0-.154-.068.7.7 0 0 0-.366 0 .5.5 0 0 0-.154.068.3.3 0 0 0-.099.101.2.2 0 0 0-.029.118v.488q-.244.044-.508.083v-.323c-.006-.077-.057-.149-.144-.202a.6.6 0 0 0-.321-.082.63.63 0 0 0-.322.082c-.086.053-.138.125-.143.202v.438q-.259.026-.533.047v-.333c0-.08-.049-.155-.136-.21a.6.6 0 0 0-.328-.088.6.6 0 0 0-.329.088c-.087.055-.136.13-.136.21v.379h-.084a6.92 6.92 0 0 1-5.278-2.154 7 7 0 0 1-.159-.243h.405v-.341h-1.055v-.403h1.055v-.34h-5.288v-.853h-.527a18 18 0 0 0 1.652-.553l2.119-.828v-.867s-2.463.662-5.178.513l.043-.008c3.702-.2 5.701-1.181 5.789-1.225l-.572-.468q-.227.105-.47.193v-.174c-.005-.076-.057-.149-.143-.201a.63.63 0 0 0-.322-.083c-.12 0-.235.03-.321.083-.087.052-.138.125-.144.201v.473q-.267.075-.581.15V6.38a.2.2 0 0 0-.029-.118.3.3 0 0 0-.099-.102.5.5 0 0 0-.154-.068.7.7 0 0 0-.366 0 .5.5 0 0 0-.154.068.3.3 0 0 0-.099.102.2.2 0 0 0-.029.118v.487q-.246.045-.508.083v-.327a.2.2 0 0 0-.029-.118.3.3 0 0 0-.1-.101.5.5 0 0 0-.153-.069.7.7 0 0 0-.366 0 .5.5 0 0 0-.154.069.3.3 0 0 0-.099.1.2.2 0 0 0-.029.119v.442q-.259.027-.533.048V6.78c0-.08-.049-.155-.136-.21a.6.6 0 0 0-.328-.087.6.6 0 0 0-.329.087c-.087.055-.136.13-.136.21v.379h-.084a6.93 6.93 0 0 1-5.276-2.149 5 5 0 0 1-.161-.246h.405v-.34h-1.055v-.403h1.055v-.34h-2.163V3.14h-2.24V2.01h-1.044V.995h-2.634V2.23h1.809v-.8h-1.135v.222h.786v.355h-1.112v-.788h1.937v1.185h-2.622V.995h-2.813v.73h-.207V.873h3.011V.65h-6.46v.223h3.101v.85h-.307V.995h-2.814v1.408h-2.623V1.218h1.937v.788h-1.111v-.355h.785v-.223h-1.133v.801h1.809V.995h-2.629V2.01h-1.049v1.128h-2.241v.541h-2.139v.341h.981v.403h-.977v.34h.405a7 7 0 0 1-.161.246 6.9 6.9 0 0 1-5.277 2.149h-.083v-.38c0-.078-.049-.154-.136-.21a.6.6 0 0 0-.329-.086.6.6 0 0 0-.328.087c-.087.055-.136.13-.136.21v.333q-.274-.021-.533-.048v-.44a.2.2 0 0 0-.029-.118.3.3 0 0 0-.099-.101.5.5 0 0 0-.154-.069.7.7 0 0 0-.366 0 .5.5 0 0 0-.154.069.3.3 0 0 0-.099.1.2.2 0 0 0-.029.119v.323a15 15 0 0 1-.509-.083v-.488c0-.079-.049-.154-.136-.21a.6.6 0 0 0-.328-.087.6.6 0 0 0-.329.087c-.087.056-.136.131-.136.21v.297q-.316-.075-.581-.149v-.469c-.006-.076-.057-.149-.144-.201a.6.6 0 0 0-.321-.083.63.63 0 0 0-.322.083c-.086.052-.138.125-.143.201v.176a6 6 0 0 1-.469-.19l-.573.468c.087.044 2.085 1.024 5.789 1.225l.043.008c-2.715.149-5.178-.513-5.178-.513v.867l2.118.828a18 18 0 0 0 1.653.553h-.449v.861h-5.287v.34h1.054v.403H144.5v.34h.404a7 7 0 0 1-.159.244 6.92 6.92 0 0 1-5.278 2.154h-.083v-.38c-.006-.076-.057-.148-.144-.2a.6.6 0 0 0-.321-.083.63.63 0 0 0-.322.082c-.086.053-.138.125-.143.202v.325q-.274-.021-.533-.046v-.438c-.005-.077-.057-.15-.143-.202a.63.63 0 0 0-.322-.082c-.12 0-.235.03-.321.082s-.138.125-.144.201v.324a15 15 0 0 1-.508-.083v-.488a.2.2 0 0 0-.029-.118.3.3 0 0 0-.099-.101.5.5 0 0 0-.154-.069.7.7 0 0 0-.366 0 .5.5 0 0 0-.154.069.3.3 0 0 0-.099.1.2.2 0 0 0-.029.119v.297q-.314-.075-.581-.15v-.473c0-.079-.049-.154-.136-.21a.6.6 0 0 0-.329-.087.6.6 0 0 0-.328.087c-.087.056-.136.132-.136.21v.173a6 6 0 0 1-.471-.19l-.572.47c.088.043 2.086 1.023 5.789 1.224l.043.008c-2.715.149-5.177-.514-5.177-.514v.867l2.117.828c2.264.884 4.865 1.352 7.517 1.352h-2.035v.34h.911v10.016h-.349v.64h-.503v1.474h4.143v-1.473h-.502v-.646h-.349v-9.17h10.371v9.226h-.349v.645h-.502v1.473h4.143v-1.473h-.503v-.645h-.348V15.767h.417v.463h2.188v-1.686h1.532v.662h-.882v-.253h.271v.1h.349v-.322h-.969v.7h1.582v-.443h14.12v.443h1.582v-.701h-.969v.321h.348v-.099h.272v.253h-.882v-.661h1.53v1.686h2.189v-.463h.416v11.566h-.348v.645h-.503v1.472h4.144v-1.472h-.506v-.645h-.349v-9.227h10.449v9.173h-.349v.643h-.502v1.473h4.143v-1.473h-.503v-.646h-.348V17.263h.91v-.338h-2.035c2.651 0 5.25-.469 7.512-1.352l2.118-.828v-.87s-2.465.662-5.176.514m-20.558-.97v-.558h.803v.19h-.222v-.091h-.349v.315h.92v-.154h.745v.301zm-21.191 0v-.3h.791v.154h.919v-.316h-.343v.092h-.222v-.19h.804v.558zm-2.569-2.745v.402h-.808v-.402zm5.761-6.652v.403h-.814v-.403zm17.783 7.089v-.502h.814v.502zm1.366 1.1v-.233h.745v.915h-.745v-.256h-.581v-.426zm-.93.426h-.573v.256h-.785v-.913h.785v.232h.571zm-19.689 0v-.426h.571v-.233h.737v.915h-.737v-.256zm-.929 0v.256h-.791v-.913h.791v.232h.581v.427zm19.02-1.526v-.502h.813v.502zm-.349 0h-.813v-.502h.813zm-1.162 0h-.814v-.502h.814zm-1.161 0h-.815v-.502h.815zm-1.163 0h-.813v-.502h.813zm-1.162 0h-.814v-.502h.814zm-1.162 0h-.814v-.502h.814zm-1.163 0h-.813v-.502h.813zm-1.162 0h-.813v-.502h.813zm-1.165 0h-.814v-.502h.814zm-1.163 0h-.814v-.502h.813zm-1.161 0h-.813v-.502h.813zm-1.162 0h-.814v-.502h.814zm-1.16 0h-.813v-.502h.813zm-1.162 0h-.814v-.502h.813zm-1.162 0h-.814v-.502h.814zm-1.163 0h-.813v-.502h.813zm-1.158 0h-.871v-.502h.871zm1.076.34v.537h-.804v-.19h.222v.092h.349v-.316h-.919v.178h-.791v-.303zm1.088.304h-.737v-.303h.737zm17.81 0h-.785v-.303h.776zm-10.331-6.591v3.89c-.004.027-.024.054-.056.073a.24.24 0 0 1-.119.03.24.24 0 0 1-.119-.03q-.05-.031-.055-.074V5.164q.006-.043.055-.074a.24.24 0 0 1 .119-.03c.044 0 .087.011.119.03q.049.031.056.074m-1.163 0v3.89c-.003.027-.023.054-.055.073a.24.24 0 0 1-.119.03.24.24 0 0 1-.119-.03q-.05-.031-.056-.074V5.164q.006-.043.056-.074a.24.24 0 0 1 .119-.03.24.24 0 0 1 .119.03q.05.031.055.074m-1.162 0v3.89q0 .045-.051.078a.23.23 0 0 1-.123.032.23.23 0 0 1-.123-.032q-.05-.034-.051-.079V5.164q0-.046.051-.079a.23.23 0 0 1 .123-.032c.046 0 .09.011.123.032s.051.05.051.079m-1.161 0v3.89c-.004.027-.024.054-.056.073a.24.24 0 0 1-.119.03.24.24 0 0 1-.119-.03q-.05-.031-.055-.074V5.164q.006-.043.055-.074a.24.24 0 0 1 .119-.03c.044 0 .087.011.119.03q.049.031.056.074m-1.163 0v3.89c-.003.027-.023.054-.055.073a.24.24 0 0 1-.119.03.24.24 0 0 1-.119-.03q-.049-.031-.056-.074V5.164q.007-.043.056-.074a.24.24 0 0 1 .119-.03.24.24 0 0 1 .119.03q.05.031.055.074m-1.162 0v3.89c-.003.027-.023.054-.055.073a.24.24 0 0 1-.119.03.23.23 0 0 1-.119-.03q-.05-.031-.056-.074V5.164q.005-.043.056-.074a.23.23 0 0 1 .119-.03.24.24 0 0 1 .119.03q.05.031.055.074m-1.162 0v3.89c-.004.027-.023.054-.056.073a.24.24 0 0 1-.119.03.24.24 0 0 1-.119-.03q-.05-.031-.055-.074V5.164q.006-.043.055-.074a.24.24 0 0 1 .119-.03c.044 0 .087.011.119.03q.05.031.056.074m-1.163 0v3.89c-.003.027-.023.054-.055.073a.24.24 0 0 1-.119.03.24.24 0 0 1-.119-.03q-.049-.031-.056-.074V5.164q.007-.043.056-.074a.24.24 0 0 1 .119-.03c.044 0 .087.011.119.03q.05.031.055.074m19.583.462a.23.23 0 0 1 .123.033c.033.02.052.05.052.079v3.315q-.006.044-.056.074a.24.24 0 0 1-.119.03.24.24 0 0 1-.119-.03q-.05-.031-.055-.074V5.74a.1.1 0 0 1 .012-.043.1.1 0 0 1 .038-.037.2.2 0 0 1 .056-.024.3.3 0 0 1 .068-.009m-.989-.462v3.89c-.003.027-.023.054-.055.073a.24.24 0 0 1-.119.03.24.24 0 0 1-.119-.03q-.049-.031-.056-.074v-3.89q.007-.043.056-.074a.24.24 0 0 1 .119-.03c.044 0 .087.011.119.03q.05.031.055.074m-1.162 0v3.89c-.003.027-.023.054-.055.073a.24.24 0 0 1-.119.03.23.23 0 0 1-.119-.03q-.05-.031-.056-.074V5.164q.005-.043.056-.074a.23.23 0 0 1 .119-.03.24.24 0 0 1 .119.03q.05.031.055.074m-1.162 0v3.89c-.004.027-.023.054-.056.073a.24.24 0 0 1-.119.03.24.24 0 0 1-.119-.03q-.05-.031-.055-.074V5.164q.006-.043.055-.074a.24.24 0 0 1 .119-.03c.044 0 .087.011.119.03q.05.031.056.074m-1.163 0v3.89q0 .045-.051.078a.23.23 0 0 1-.123.032.23.23 0 0 1-.123-.032q-.049-.034-.05-.079V5.164q.001-.046.05-.079a.23.23 0 0 1 .123-.032c.047 0 .091.011.123.032q.05.034.051.079m-1.162 0v3.89q0 .045-.051.078a.23.23 0 0 1-.123.032.23.23 0 0 1-.123-.032q-.05-.034-.051-.079V5.164q.002-.046.051-.079a.23.23 0 0 1 .123-.032.23.23 0 0 1 .123.032q.05.034.051.079m-1.161 0v3.89c-.004.027-.023.054-.056.073a.24.24 0 0 1-.119.03.24.24 0 0 1-.119-.03q-.05-.031-.055-.074V5.164q.006-.043.055-.074a.24.24 0 0 1 .119-.03c.044 0 .087.011.119.03q.05.031.056.074m-1.163 0v3.89c-.003.027-.023.054-.055.073a.24.24 0 0 1-.119.03.24.24 0 0 1-.119-.03q-.05-.031-.055-.074V5.164q.006-.043.055-.074a.24.24 0 0 1 .119-.03c.044 0 .087.011.119.03q.05.031.055.074m-1.162 0v3.89c-.003.027-.023.054-.055.073a.24.24 0 0 1-.119.03.24.24 0 0 1-.119-.03q-.05-.031-.056-.074V5.164q.006-.043.056-.074a.24.24 0 0 1 .119-.03.24.24 0 0 1 .119.03q.05.031.055.074m-1.511 0q.006-.043.055-.074a.24.24 0 0 1 .119-.03q.07 0 .119.03.05.031.056.074v3.89c-.003.027-.023.054-.056.073a.23.23 0 0 1-.119.03.24.24 0 0 1-.119-.03q-.05-.031-.055-.074zm11.622 3.89v-2.62q.005-.043.056-.073a.23.23 0 0 1 .119-.03.24.24 0 0 1 .119.03q.05.03.055.073v2.622q-.006.044-.055.074a.24.24 0 0 1-.119.03.23.23 0 0 1-.119-.03q-.05-.031-.056-.074zm-16.27-5.032v.403h-.814v-.403zm.349 0h.813v.403h-.813zm1.161 0h.813v.403h-.816zm1.162 0h.812v.403h-.814zm1.163 0h.813v.403h-.813zm5.81.403v-.403h.815v.403zm-.348 0h-.813v-.403h.813zm-1.162 0h-.814v-.403h.814zm-1.162 0h-.814v-.403h.814zm-1.163 0h-.813v-.403h.813zm7.322 0v-.403h.813v.403zm-.349 0h-.813v-.403h.813zm-1.162 0h-.814v-.403h.814zm-12.784 0h-.813v-.403h.814zm-1.162 0h-.813v-.403h.813zm-3.137 1.314v3.315q-.006.044-.055.074a.24.24 0 0 1-.119.03.23.23 0 0 1-.119-.03q-.05-.03-.056-.074V5.74a.1.1 0 0 1 .009-.045.1.1 0 0 1 .037-.04.2.2 0 0 1 .059-.026.26.26 0 0 1 .14 0 .2.2 0 0 1 .058.027.1.1 0 0 1 .037.039q.012.022.009.045m-1.162.695v2.622q-.002.046-.051.079a.23.23 0 0 1-.123.033.23.23 0 0 1-.123-.033c-.033-.02-.051-.05-.051-.079V6.434q0-.047.051-.078a.23.23 0 0 1 .123-.033c.046 0 .09.012.123.033.032.02.051.049.051.078m2.237 6.687h.737v.302h-.737zm17.762 0h.783v.302h-.785zm3.031-1.361h-.745v-.181h-.92v.316h.349v-.092h.222v.19h-.803v-.537h1.897zm0-.644h-.948v-.502h.948zm-1.297-6.691h-.814v-.403h.814zm-4.043-1.799v-.391h.692v1.128h2.241v.316h-2.777V2.82h-1.563v-.195zm-5.784-.679v.678h1.891V1.416h-1.338v.641h.349V1.64h.641v.764h-1.195V1.218h2.116v1.408h1.569v.195h-4.24v-.874zm-3.327.678V1.218h2.122v1.185h-1.195v-.764h.641v.418h.348v-.64h-1.338v1.209h1.892v-.679h.307v.873h-4.338v-.195zm-6.255.738h2.241V2.235h.692v.391h1.404v.195h-1.462v.86h-2.875zm-1.162.659h.813v.403h-.813zm-4.948 6.652v.402h-.813v-.402zm-1.162 0v.402h-.813v-.402zm-1.161 0v.402h-.814v-.402zm-1.977 0h.813v.402h-.813zm-1.162 0h.813v.402h-.813zm-1.163 0h.814v.402h-.814zm-1.162 0h.813v.402h-.813zm-1.336 5.142a.3.3 0 0 1-.067-.008.2.2 0 0 1-.057-.024.1.1 0 0 1-.038-.037.1.1 0 0 1-.013-.042v-2.622q.006-.044.055-.074a.24.24 0 0 1 .119-.03c.044 0 .087.01.119.03q.05.031.056.074v2.622q0 .046-.051.078a.23.23 0 0 1-.122.033zm.988 1.948h-.949v-.501h.949zm.349-2.06q-.006.045-.055.074a.24.24 0 0 1-.119.03.23.23 0 0 1-.119-.03q-.05-.03-.056-.073v-3.316a.1.1 0 0 1 .009-.045.1.1 0 0 1 .037-.039.2.2 0 0 1 .059-.027.3.3 0 0 1 .14 0 .2.2 0 0 1 .058.027.1.1 0 0 1 .037.04q.012.022.009.044zm.813 2.06h-.813v-.501h.813zm.349-2.06q-.006.045-.055.074a.24.24 0 0 1-.119.03.24.24 0 0 1-.119-.03q-.049-.03-.056-.073v-3.89c.004-.027.024-.054.056-.073a.24.24 0 0 1 .119-.03c.044 0 .087.01.119.03q.05.03.055.074zm.814 2.06h-.814v-.501h.814zm.349-2.06q-.006.045-.056.074a.24.24 0 0 1-.119.03.24.24 0 0 1-.119-.03q-.05-.03-.055-.073v-3.89c.003-.027.023-.054.055-.073a.24.24 0 0 1 .119-.03c.044 0 .087.01.119.03q.05.03.056.074zm.813 2.06h-.813v-.501h.813zm.349-2.06q-.005.045-.056.074a.23.23 0 0 1-.118.03.23.23 0 0 1-.119-.03q-.05-.03-.056-.073v-3.89c.003-.027.023-.054.056-.073a.23.23 0 0 1 .119-.03q.068 0 .118.03t.056.074zm.813 2.06h-.813v-.501h.813zm.349-2.06q-.006.045-.055.074a.24.24 0 0 1-.119.03.24.24 0 0 1-.119-.03q-.049-.03-.056-.073v-3.89c.004-.027.024-.054.056-.073a.24.24 0 0 1 .119-.03.24.24 0 0 1 .119.03q.05.03.055.074zm.814 2.06h-.814v-.501h.814zm.348-2.06q-.002.047-.051.08a.23.23 0 0 1-.123.032.23.23 0 0 1-.123-.033c-.033-.02-.051-.049-.051-.078v-3.89q0-.045.051-.078a.23.23 0 0 1 .123-.033c.046 0 .09.012.123.033.032.02.051.05.051.079zm.813 2.06h-.813v-.501h.813zm.349-2.06q-.005.045-.056.074a.23.23 0 0 1-.119.03.24.24 0 0 1-.119-.03q-.05-.03-.055-.073v-3.89c.003-.027.023-.054.055-.073a.24.24 0 0 1 .119-.03q.07 0 .119.03.05.03.056.074zm.813 2.06h-.813v-.501h.813zm.353-2.06q-.006.045-.055.074a.24.24 0 0 1-.119.03.24.24 0 0 1-.119-.03q-.05-.03-.056-.073v-3.89c.004-.027.023-.054.056-.073a.24.24 0 0 1 .119-.03.24.24 0 0 1 .119.03q.05.03.055.074zm.814 2.06h-.814v-.501h.814zm0-2.06v-3.888q0-.037.034-.067a.2.2 0 0 1 .09-.04v4.102a.2.2 0 0 1-.092-.04q-.035-.03-.036-.066zm2.569-.162V13.76h1.088v1.298h-.669v.484zm2.251-1.221v1.684h-1.494v-.723h.978v.334h-.309v-.173h-.349v.396h1.007v-.781h-.658V13.76h1.598v.357h.197v.204zm2.227.223h.936v.218h-.94zm12.562 0v.218h-.814v-.218zm-1.163.218h-.813v-.218h.813zm-1.162 0h-.813v-.218h.813zm-1.162 0h-.814v-.218h.814zm-1.163 0h-.813v-.218h.813zm-1.162 0h-.813v-.218h.813zm-1.162 0h-.814v-.218h.814zm-1.162 0h-.814v-.218h.814zm-1.162 0h-.813v-.218h.813zm-1.162 0h-.814v-.218h.814zm10.808 0v-.218h1.21v.218zm1.383-.442H161v-.204h15.923v.204zm3.544 1.685h-1.492v-1.684h-.979v-.204h.203v-.357h1.598v1.298h-.658v.78h1.007v-.396h-.349v.173h-.31v-.333h.979zm.348-.463v-.484h-.668V13.76h1.087v1.782zm2.885.274h-.028v-4.108h.028a.23.23 0 0 1 .123.033c.033.02.051.049.051.078v3.89q-.003.044-.052.076a.24.24 0 0 1-.121.031zm.989 1.948h-.814v-.501h.814zm0-6.688h-.814v-.402h.814zm.174 4.74a.23.23 0 0 1-.123-.033c-.033-.02-.051-.049-.051-.078v-3.89c.003-.027.023-.054.055-.073a.24.24 0 0 1 .119-.03c.044 0 .087.01.119.03q.05.03.056.074v3.889q0 .021-.014.043a.1.1 0 0 1-.038.036.2.2 0 0 1-.056.024.3.3 0 0 1-.067.008m.988 1.948h-.813v-.501h.813zm0-6.688h-.813v-.402h.813zm.174 4.74a.23.23 0 0 1-.123-.033c-.033-.02-.051-.049-.051-.078v-3.89c.003-.027.023-.054.056-.073a.23.23 0 0 1 .119-.03.24.24 0 0 1 .119.03q.05.03.055.074v3.889q0 .021-.013.043a.1.1 0 0 1-.038.036.2.2 0 0 1-.057.024.3.3 0 0 1-.067.008m.988 1.948h-.814v-.501h.813zm0-6.688h-.814v-.402h.813zm.174 4.74a.23.23 0 0 1-.123-.033c-.032-.02-.051-.049-.051-.078v-3.89c.004-.027.024-.054.056-.073a.24.24 0 0 1 .119-.03.24.24 0 0 1 .119.03q.05.03.055.074v3.889q0 .021-.013.043a.1.1 0 0 1-.038.036.2.2 0 0 1-.057.024.3.3 0 0 1-.067.008m.989 1.948h-.814v-.501h.814zm0-6.688h-.814v-.402h.814zm.174 4.74a.23.23 0 0 1-.123-.033c-.033-.02-.051-.049-.051-.078v-3.89q0-.045.051-.078a.23.23 0 0 1 .123-.033c.046 0 .09.012.123.033.032.02.051.05.051.079v3.889q-.002.046-.051.079a.23.23 0 0 1-.123.032m.988 1.948h-.813v-.501h.813zm0-6.688h-.813v-.402h.813zm.175 4.74a.3.3 0 0 1-.067-.008.2.2 0 0 1-.057-.024.1.1 0 0 1-.038-.037.1.1 0 0 1-.013-.042v-3.89c.003-.027.023-.054.056-.073a.23.23 0 0 1 .118-.03q.07 0 .119.03.05.03.056.074v3.889q0 .021-.013.043a.1.1 0 0 1-.038.036.2.2 0 0 1-.057.024.3.3 0 0 1-.067.008zm.988 1.948h-.813v-.501h.813zm0-6.688h-.813v-.402h.813zm.175 4.74a.3.3 0 0 1-.067-.008.2.2 0 0 1-.056-.024.1.1 0 0 1-.038-.037.1.1 0 0 1-.014-.042v-3.89c.004-.027.023-.054.056-.073a.24.24 0 0 1 .119-.03.24.24 0 0 1 .119.03q.05.03.055.074v3.889q0 .022-.013.043a.1.1 0 0 1-.038.036.25.25 0 0 1-.125.032zm.989 1.948h-.821v-.501h.814zm0-6.688h-.821v-.402h.814zm.175 4.74a.3.3 0 0 1-.067-.008.2.2 0 0 1-.057-.024.1.1 0 0 1-.038-.037.1.1 0 0 1-.013-.042v-3.89c.003-.027.023-.054.055-.073a.24.24 0 0 1 .119-.03c.044 0 .087.01.119.03q.049.03.056.074v3.889a.1.1 0 0 1-.014.043.14.14 0 0 1-.04.037.2.2 0 0 1-.059.024.3.3 0 0 1-.068.007zm.988 1.948h-.813v-.501h.806zm0-6.688h-.813v-.402h.806zm.174 4.74a.23.23 0 0 1-.123-.033c-.033-.02-.051-.049-.051-.078v-3.316a.07.07 0 0 1 .009-.045.1.1 0 0 1 .037-.039.2.2 0 0 1 .058-.027.3.3 0 0 1 .14 0 .2.2 0 0 1 .059.027.1.1 0 0 1 .037.04q.011.022.009.044v3.316q0 .023-.014.043a.1.1 0 0 1-.039.037.2.2 0 0 1-.058.024.3.3 0 0 1-.068.007zm1.124 1.948h-.949v-.501h.949zm.213-2.06q-.006.045-.055.074a.24.24 0 0 1-.119.03.24.24 0 0 1-.119-.03q-.05-.03-.056-.073v-2.622q.006-.044.056-.074a.24.24 0 0 1 .119-.03.24.24 0 0 1 .119.03q.05.031.055.074z"/></mask><path stroke="#fff" stroke-width="9.6" d="m199.168 14.389.043-.008c3.703-.201 5.701-1.181 5.789-1.225l-.572-.468a6 6 0 0 1-.47.19v-.176c-.005-.077-.057-.149-.143-.202a.63.63 0 0 0-.322-.082c-.12 0-.235.03-.321.082s-.138.125-.144.202v.473q-.267.075-.581.15v-.298a.2.2 0 0 0-.029-.118.3.3 0 0 0-.099-.101.5.5 0 0 0-.154-.068.7.7 0 0 0-.366 0 .5.5 0 0 0-.154.068.3.3 0 0 0-.099.101.2.2 0 0 0-.029.118v.488q-.244.044-.508.083v-.323c-.006-.077-.057-.149-.144-.202a.6.6 0 0 0-.321-.082.63.63 0 0 0-.322.082c-.086.053-.138.125-.143.202v.438q-.259.026-.533.047v-.333c0-.08-.049-.155-.136-.21a.6.6 0 0 0-.328-.088.6.6 0 0 0-.329.088c-.087.055-.136.13-.136.21v.379h-.084a6.92 6.92 0 0 1-5.278-2.154 7 7 0 0 1-.159-.243h.405v-.341h-1.055v-.403h1.055v-.34h-5.288v-.853h-.527a18 18 0 0 0 1.652-.553l2.119-.828v-.867s-2.463.662-5.178.513l.043-.008c3.702-.2 5.701-1.181 5.789-1.225l-.572-.468q-.227.105-.47.193v-.174c-.005-.076-.057-.149-.143-.201a.63.63 0 0 0-.322-.083c-.12 0-.235.03-.321.083-.087.052-.138.125-.144.201v.473q-.267.075-.581.15V6.38a.2.2 0 0 0-.029-.118.3.3 0 0 0-.099-.102.5.5 0 0 0-.154-.068.7.7 0 0 0-.366 0 .5.5 0 0 0-.154.068.3.3 0 0 0-.099.102.2.2 0 0 0-.029.118v.487q-.246.045-.508.083v-.327a.2.2 0 0 0-.029-.118.3.3 0 0 0-.1-.101.5.5 0 0 0-.153-.069.7.7 0 0 0-.366 0 .5.5 0 0 0-.154.069.3.3 0 0 0-.099.1.2.2 0 0 0-.029.119v.442q-.259.027-.533.048V6.78c0-.08-.049-.155-.136-.21a.6.6 0 0 0-.328-.087.6.6 0 0 0-.329.087c-.087.055-.136.13-.136.21v.379h-.084a6.93 6.93 0 0 1-5.276-2.149 5 5 0 0 1-.161-.246h.405v-.34h-1.055v-.403h1.055v-.34h-2.163V3.14h-2.24V2.01h-1.044V.995h-2.634V2.23h1.809v-.8h-1.135v.222h.786v.355h-1.112v-.788h1.937v1.185h-2.622V.995h-2.813v.73h-.207V.873h3.011V.65h-6.46v.223h3.101v.85h-.307V.995h-2.814v1.408h-2.623V1.218h1.937v.788h-1.111v-.355h.785v-.223h-1.133v.801h1.809V.995h-2.629V2.01h-1.049v1.128h-2.241v.541h-2.139v.341h.981v.403h-.977v.34h.405a7 7 0 0 1-.161.246 6.9 6.9 0 0 1-5.277 2.149h-.083v-.38c0-.078-.049-.154-.136-.21a.6.6 0 0 0-.329-.086.6.6 0 0 0-.328.087c-.087.055-.136.13-.136.21v.333q-.274-.021-.533-.048v-.44a.2.2 0 0 0-.029-.118.3.3 0 0 0-.099-.101.5.5 0 0 0-.154-.069.7.7 0 0 0-.366 0 .5.5 0 0 0-.154.069.3.3 0 0 0-.099.1.2.2 0 0 0-.029.119v.323a15 15 0 0 1-.509-.083v-.488c0-.079-.049-.154-.136-.21a.6.6 0 0 0-.328-.087.6.6 0 0 0-.329.087c-.087.056-.136.131-.136.21v.297q-.316-.075-.581-.149v-.469c-.006-.076-.057-.149-.144-.201a.6.6 0 0 0-.321-.083.63.63 0 0 0-.322.083c-.086.052-.138.125-.143.201v.176a6 6 0 0 1-.469-.19l-.573.468c.087.044 2.085 1.024 5.789 1.225l.043.008c-2.715.149-5.178-.513-5.178-.513v.867l2.118.828a18 18 0 0 0 1.653.553h-.449v.861h-5.287v.34h1.054v.403H144.5v.34h.404a7 7 0 0 1-.159.244 6.92 6.92 0 0 1-5.278 2.154h-.083v-.38c-.006-.076-.057-.148-.144-.2a.6.6 0 0 0-.321-.083.63.63 0 0 0-.322.082c-.086.053-.138.125-.143.202v.325q-.274-.021-.533-.046v-.438c-.005-.077-.057-.15-.143-.202a.63.63 0 0 0-.322-.082c-.12 0-.235.03-.321.082s-.138.125-.144.201v.324a15 15 0 0 1-.508-.083v-.488a.2.2 0 0 0-.029-.118.3.3 0 0 0-.099-.101.5.5 0 0 0-.154-.069.7.7 0 0 0-.366 0 .5.5 0 0 0-.154.069.3.3 0 0 0-.099.1.2.2 0 0 0-.029.119v.297q-.314-.075-.581-.15v-.473c0-.079-.049-.154-.136-.21a.6.6 0 0 0-.329-.087.6.6 0 0 0-.328.087c-.087.056-.136.132-.136.21v.173a6 6 0 0 1-.471-.19l-.572.47c.088.043 2.086 1.023 5.789 1.224l.043.008c-2.715.149-5.177-.514-5.177-.514v.867l2.117.828c2.264.884 4.865 1.352 7.517 1.352h-2.035v.34h.911v10.016h-.349v.64h-.503v1.474h4.143v-1.473h-.502v-.646h-.349v-9.17h10.371v9.226h-.349v.645h-.502v1.473h4.143v-1.473h-.503v-.645h-.348V15.767h.417v.463h2.188v-1.686h1.532v.662h-.882v-.253h.271v.1h.349v-.322h-.969v.7h1.582v-.443h14.12v.443h1.582v-.701h-.969v.321h.348v-.099h.272v.253h-.882v-.661h1.53v1.686h2.189v-.463h.416v11.566h-.348v.645h-.503v1.472h4.144v-1.472h-.506v-.645h-.349v-9.227h10.449v9.173h-.349v.643h-.502v1.473h4.143v-1.473h-.503v-.646h-.348V17.263h.91v-.338h-2.035c2.651 0 5.25-.469 7.512-1.352l2.118-.828v-.87s-2.465.662-5.176.514Zm-20.558-.97v-.558h.803v.19h-.222v-.091h-.349v.315h.92v-.154h.745v.301zm-21.191 0v-.3h.791v.154h.919v-.316h-.343v.092h-.222v-.19h.804v.558zm-2.569-2.745v.402h-.808v-.402zm5.761-6.652v.403h-.814v-.403zm17.783 7.089v-.502h.814v.502zm1.366 1.1v-.233h.745v.915h-.745v-.256h-.581v-.426zm-.93.426h-.573v.256h-.785v-.913h.785v.232h.571zm-19.689 0v-.426h.571v-.233h.737v.915h-.737v-.256zm-.929 0v.256h-.791v-.913h.791v.232h.581v.427zm19.02-1.526v-.502h.813v.502zm-.349 0h-.813v-.502h.813zm-1.162 0h-.814v-.502h.814zm-1.161 0h-.815v-.502h.815zm-1.163 0h-.813v-.502h.813zm-1.162 0h-.814v-.502h.814zm-1.162 0h-.814v-.502h.814zm-1.163 0h-.813v-.502h.813zm-1.162 0h-.813v-.502h.813zm-1.165 0h-.814v-.502h.814zm-1.163 0h-.814v-.502h.813zm-1.161 0h-.813v-.502h.813zm-1.162 0h-.814v-.502h.814zm-1.16 0h-.813v-.502h.813zm-1.162 0h-.814v-.502h.813zm-1.162 0h-.814v-.502h.814zm-1.163 0h-.813v-.502h.813zm-1.158 0h-.871v-.502h.871zm1.076.34v.537h-.804v-.19h.222v.092h.349v-.316h-.919v.178h-.791v-.303zm1.088.304h-.737v-.303h.737zm17.81 0h-.785v-.303h.776zm-10.331-6.591v3.89c-.004.027-.024.054-.056.073a.24.24 0 0 1-.119.03.24.24 0 0 1-.119-.03q-.05-.031-.055-.074V5.164q.006-.043.055-.074a.24.24 0 0 1 .119-.03c.044 0 .087.011.119.03q.049.031.056.074Zm-1.163 0v3.89c-.003.027-.023.054-.055.073a.24.24 0 0 1-.119.03.24.24 0 0 1-.119-.03q-.05-.031-.056-.074V5.164q.006-.043.056-.074a.24.24 0 0 1 .119-.03.24.24 0 0 1 .119.03q.05.031.055.074Zm-1.162 0v3.89q0 .045-.051.078a.23.23 0 0 1-.123.032.23.23 0 0 1-.123-.032q-.05-.034-.051-.079V5.164q0-.046.051-.079a.23.23 0 0 1 .123-.032c.046 0 .09.011.123.032s.051.05.051.079Zm-1.161 0v3.89c-.004.027-.024.054-.056.073a.24.24 0 0 1-.119.03.24.24 0 0 1-.119-.03q-.05-.031-.055-.074V5.164q.006-.043.055-.074a.24.24 0 0 1 .119-.03c.044 0 .087.011.119.03q.049.031.056.074Zm-1.163 0v3.89c-.003.027-.023.054-.055.073a.24.24 0 0 1-.119.03.24.24 0 0 1-.119-.03q-.049-.031-.056-.074V5.164q.007-.043.056-.074a.24.24 0 0 1 .119-.03.24.24 0 0 1 .119.03q.05.031.055.074Zm-1.162 0v3.89c-.003.027-.023.054-.055.073a.24.24 0 0 1-.119.03.23.23 0 0 1-.119-.03q-.05-.031-.056-.074V5.164q.005-.043.056-.074a.23.23 0 0 1 .119-.03.24.24 0 0 1 .119.03q.05.031.055.074Zm-1.162 0v3.89c-.004.027-.023.054-.056.073a.24.24 0 0 1-.119.03.24.24 0 0 1-.119-.03q-.05-.031-.055-.074V5.164q.006-.043.055-.074a.24.24 0 0 1 .119-.03c.044 0 .087.011.119.03q.05.031.056.074Zm-1.163 0v3.89c-.003.027-.023.054-.055.073a.24.24 0 0 1-.119.03.24.24 0 0 1-.119-.03q-.049-.031-.056-.074V5.164q.007-.043.056-.074a.24.24 0 0 1 .119-.03c.044 0 .087.011.119.03q.05.031.055.074Zm19.583.462a.23.23 0 0 1 .123.033c.033.02.052.05.052.079v3.315q-.006.044-.056.074a.24.24 0 0 1-.119.03.24.24 0 0 1-.119-.03q-.05-.031-.055-.074V5.74a.1.1 0 0 1 .012-.043.1.1 0 0 1 .038-.037.2.2 0 0 1 .056-.024.3.3 0 0 1 .068-.009Zm-.989-.462v3.89c-.003.027-.023.054-.055.073a.24.24 0 0 1-.119.03.24.24 0 0 1-.119-.03q-.049-.031-.056-.074V5.164q.007-.043.056-.074a.24.24 0 0 1 .119-.03c.044 0 .087.011.119.03q.05.031.055.074Zm-1.162 0v3.89c-.003.027-.023.054-.055.073a.24.24 0 0 1-.119.03.23.23 0 0 1-.119-.03q-.05-.031-.056-.074V5.164q.005-.043.056-.074a.23.23 0 0 1 .119-.03.24.24 0 0 1 .119.03q.05.031.055.074Zm-1.162 0v3.89c-.004.027-.023.054-.056.073a.24.24 0 0 1-.119.03.24.24 0 0 1-.119-.03q-.05-.031-.055-.074V5.164q.006-.043.055-.074a.24.24 0 0 1 .119-.03c.044 0 .087.011.119.03q.05.031.056.074Zm-1.163 0v3.89q0 .045-.051.078a.23.23 0 0 1-.123.032.23.23 0 0 1-.123-.032q-.049-.034-.05-.079V5.164q.001-.046.05-.079a.23.23 0 0 1 .123-.032c.047 0 .091.011.123.032q.05.034.051.079Zm-1.162 0v3.89q0 .045-.051.078a.23.23 0 0 1-.123.032.23.23 0 0 1-.123-.032q-.05-.034-.051-.079V5.164q.002-.046.051-.079a.23.23 0 0 1 .123-.032.23.23 0 0 1 .123.032q.05.034.051.079Zm-1.161 0v3.89c-.004.027-.023.054-.056.073a.24.24 0 0 1-.119.03.24.24 0 0 1-.119-.03q-.05-.031-.055-.074V5.164q.006-.043.055-.074a.24.24 0 0 1 .119-.03c.044 0 .087.011.119.03q.05.031.056.074Zm-1.163 0v3.89c-.003.027-.023.054-.055.073a.24.24 0 0 1-.119.03.24.24 0 0 1-.119-.03q-.05-.031-.055-.074V5.164q.006-.043.055-.074a.24.24 0 0 1 .119-.03c.044 0 .087.011.119.03q.05.031.055.074Zm-1.162 0v3.89c-.003.027-.023.054-.055.073a.24.24 0 0 1-.119.03.24.24 0 0 1-.119-.03q-.05-.031-.056-.074V5.164q.006-.043.056-.074a.24.24 0 0 1 .119-.03.24.24 0 0 1 .119.03q.05.031.055.074Zm-1.511 0q.006-.043.055-.074a.24.24 0 0 1 .119-.03q.07 0 .119.03.05.031.056.074v3.89c-.003.027-.023.054-.056.073a.23.23 0 0 1-.119.03.24.24 0 0 1-.119-.03q-.05-.031-.055-.074zm11.622 3.89v-2.62q.005-.043.056-.073a.23.23 0 0 1 .119-.03.24.24 0 0 1 .119.03q.05.03.055.073v2.622q-.006.044-.055.074a.24.24 0 0 1-.119.03.23.23 0 0 1-.119-.03q-.05-.031-.056-.074zm-16.27-5.032v.403h-.814v-.403zm.349 0h.813v.403h-.813zm1.161 0h.813v.403h-.816zm1.162 0h.812v.403h-.814zm1.163 0h.813v.403h-.813zm5.81.403v-.403h.815v.403zm-.348 0h-.813v-.403h.813zm-1.162 0h-.814v-.403h.814zm-1.162 0h-.814v-.403h.814zm-1.163 0h-.813v-.403h.813zm7.322 0v-.403h.813v.403zm-.349 0h-.813v-.403h.813zm-1.162 0h-.814v-.403h.814zm-12.784 0h-.813v-.403h.814zm-1.162 0h-.813v-.403h.813zm-3.137 1.314v3.315q-.006.044-.055.074a.24.24 0 0 1-.119.03.23.23 0 0 1-.119-.03q-.05-.03-.056-.074V5.74a.1.1 0 0 1 .009-.045.1.1 0 0 1 .037-.04.2.2 0 0 1 .059-.026.26.26 0 0 1 .14 0 .2.2 0 0 1 .058.027.1.1 0 0 1 .037.039q.012.022.009.045Zm-1.162.695v2.622q-.002.046-.051.079a.23.23 0 0 1-.123.033.23.23 0 0 1-.123-.033c-.033-.02-.051-.05-.051-.079V6.434q0-.047.051-.078a.23.23 0 0 1 .123-.033c.046 0 .09.012.123.033.032.02.051.049.051.078Zm2.237 6.687h.737v.302h-.737zm17.762 0h.783v.302h-.785zm3.031-1.361h-.745v-.181h-.92v.316h.349v-.092h.222v.19h-.803v-.537h1.897zm0-.644h-.948v-.502h.948zm-1.297-6.691h-.814v-.403h.814zm-4.043-1.799v-.391h.692v1.128h2.241v.316h-2.777V2.82h-1.563v-.195zm-5.784-.679v.678h1.891V1.416h-1.338v.641h.349V1.64h.641v.764h-1.195V1.218h2.116v1.408h1.569v.195h-4.24v-.874zm-3.327.678V1.218h2.122v1.185h-1.195v-.764h.641v.418h.348v-.64h-1.338v1.209h1.892v-.679h.307v.873h-4.338v-.195zm-6.255.738h2.241V2.235h.692v.391h1.404v.195h-1.462v.86h-2.875zm-1.162.659h.813v.403h-.813zm-4.948 6.652v.402h-.813v-.402zm-1.162 0v.402h-.813v-.402zm-1.161 0v.402h-.814v-.402zm-1.977 0h.813v.402h-.813zm-1.162 0h.813v.402h-.813zm-1.163 0h.814v.402h-.814zm-1.162 0h.813v.402h-.813zm-1.336 5.142a.3.3 0 0 1-.067-.008.2.2 0 0 1-.057-.024.1.1 0 0 1-.038-.037.1.1 0 0 1-.013-.042v-2.622q.006-.044.055-.074a.24.24 0 0 1 .119-.03c.044 0 .087.01.119.03q.05.031.056.074v2.622q0 .046-.051.078a.23.23 0 0 1-.122.033zm.988 1.948h-.949v-.501h.949zm.349-2.06q-.006.045-.055.074a.24.24 0 0 1-.119.03.23.23 0 0 1-.119-.03q-.05-.03-.056-.073v-3.316a.1.1 0 0 1 .009-.045.1.1 0 0 1 .037-.039.2.2 0 0 1 .059-.027.3.3 0 0 1 .14 0 .2.2 0 0 1 .058.027.1.1 0 0 1 .037.04q.012.022.009.044zm.813 2.06h-.813v-.501h.813zm.349-2.06q-.006.045-.055.074a.24.24 0 0 1-.119.03.24.24 0 0 1-.119-.03q-.049-.03-.056-.073v-3.89c.004-.027.024-.054.056-.073a.24.24 0 0 1 .119-.03c.044 0 .087.01.119.03q.05.03.055.074zm.814 2.06h-.814v-.501h.814zm.349-2.06q-.006.045-.056.074a.24.24 0 0 1-.119.03.24.24 0 0 1-.119-.03q-.05-.03-.055-.073v-3.89c.003-.027.023-.054.055-.073a.24.24 0 0 1 .119-.03c.044 0 .087.01.119.03q.05.03.056.074zm.813 2.06h-.813v-.501h.813zm.349-2.06q-.005.045-.056.074a.23.23 0 0 1-.118.03.23.23 0 0 1-.119-.03q-.05-.03-.056-.073v-3.89c.003-.027.023-.054.056-.073a.23.23 0 0 1 .119-.03q.068 0 .118.03t.056.074zm.813 2.06h-.813v-.501h.813zm.349-2.06q-.006.045-.055.074a.24.24 0 0 1-.119.03.24.24 0 0 1-.119-.03q-.049-.03-.056-.073v-3.89c.004-.027.024-.054.056-.073a.24.24 0 0 1 .119-.03.24.24 0 0 1 .119.03q.05.03.055.074zm.814 2.06h-.814v-.501h.814zm.348-2.06q-.002.047-.051.08a.23.23 0 0 1-.123.032.23.23 0 0 1-.123-.033c-.033-.02-.051-.049-.051-.078v-3.89q0-.045.051-.078a.23.23 0 0 1 .123-.033c.046 0 .09.012.123.033.032.02.051.05.051.079zm.813 2.06h-.813v-.501h.813zm.349-2.06q-.005.045-.056.074a.23.23 0 0 1-.119.03.24.24 0 0 1-.119-.03q-.05-.03-.055-.073v-3.89c.003-.027.023-.054.055-.073a.24.24 0 0 1 .119-.03q.07 0 .119.03.05.03.056.074zm.813 2.06h-.813v-.501h.813zm.353-2.06q-.006.045-.055.074a.24.24 0 0 1-.119.03.24.24 0 0 1-.119-.03q-.05-.03-.056-.073v-3.89c.004-.027.023-.054.056-.073a.24.24 0 0 1 .119-.03.24.24 0 0 1 .119.03q.05.03.055.074zm.814 2.06h-.814v-.501h.814zm0-2.06v-3.888q0-.037.034-.067a.2.2 0 0 1 .09-.04v4.102a.2.2 0 0 1-.092-.04q-.035-.03-.036-.066zm2.569-.162V13.76h1.088v1.298h-.669v.484zm2.251-1.221v1.684h-1.494v-.723h.978v.334h-.309v-.173h-.349v.396h1.007v-.781h-.658V13.76h1.598v.357h.197v.204zm2.227.223h.936v.218h-.94zm12.562 0v.218h-.814v-.218zm-1.163.218h-.813v-.218h.813zm-1.162 0h-.813v-.218h.813zm-1.162 0h-.814v-.218h.814zm-1.163 0h-.813v-.218h.813zm-1.162 0h-.813v-.218h.813zm-1.162 0h-.814v-.218h.814zm-1.162 0h-.814v-.218h.814zm-1.162 0h-.813v-.218h.813zm-1.162 0h-.814v-.218h.814zm10.808 0v-.218h1.21v.218zm1.383-.442H161v-.204h15.923v.204zm3.544 1.685h-1.492v-1.684h-.979v-.204h.203v-.357h1.598v1.298h-.658v.78h1.007v-.396h-.349v.173h-.31v-.333h.979zm.348-.463v-.484h-.668V13.76h1.087v1.782zm2.885.274h-.028v-4.108h.028a.23.23 0 0 1 .123.033c.033.02.051.049.051.078v3.89q-.003.044-.052.076a.24.24 0 0 1-.121.031zm.989 1.948h-.814v-.501h.814zm0-6.688h-.814v-.402h.814zm.174 4.74a.23.23 0 0 1-.123-.033c-.033-.02-.051-.049-.051-.078v-3.89c.003-.027.023-.054.055-.073a.24.24 0 0 1 .119-.03c.044 0 .087.01.119.03q.05.03.056.074v3.889q0 .021-.014.043a.1.1 0 0 1-.038.036.2.2 0 0 1-.056.024.3.3 0 0 1-.067.008Zm.988 1.948h-.813v-.501h.813zm0-6.688h-.813v-.402h.813zm.174 4.74a.23.23 0 0 1-.123-.033c-.033-.02-.051-.049-.051-.078v-3.89c.003-.027.023-.054.056-.073a.23.23 0 0 1 .119-.03.24.24 0 0 1 .119.03q.05.03.055.074v3.889q0 .021-.013.043a.1.1 0 0 1-.038.036.2.2 0 0 1-.057.024.3.3 0 0 1-.067.008Zm.988 1.948h-.814v-.501h.813zm0-6.688h-.814v-.402h.813zm.174 4.74a.23.23 0 0 1-.123-.033c-.032-.02-.051-.049-.051-.078v-3.89c.004-.027.024-.054.056-.073a.24.24 0 0 1 .119-.03.24.24 0 0 1 .119.03q.05.03.055.074v3.889q0 .021-.013.043a.1.1 0 0 1-.038.036.2.2 0 0 1-.057.024.3.3 0 0 1-.067.008Zm.989 1.948h-.814v-.501h.814zm0-6.688h-.814v-.402h.814zm.174 4.74a.23.23 0 0 1-.123-.033c-.033-.02-.051-.049-.051-.078v-3.89q0-.045.051-.078a.23.23 0 0 1 .123-.033c.046 0 .09.012.123.033.032.02.051.05.051.079v3.889q-.002.046-.051.079a.23.23 0 0 1-.123.032Zm.988 1.948h-.813v-.501h.813zm0-6.688h-.813v-.402h.813zm.175 4.74a.3.3 0 0 1-.067-.008.2.2 0 0 1-.057-.024.1.1 0 0 1-.038-.037.1.1 0 0 1-.013-.042v-3.89c.003-.027.023-.054.056-.073a.23.23 0 0 1 .118-.03q.07 0 .119.03.05.03.056.074v3.889q0 .021-.013.043a.1.1 0 0 1-.038.036.2.2 0 0 1-.057.024.3.3 0 0 1-.067.008zm.988 1.948h-.813v-.501h.813zm0-6.688h-.813v-.402h.813zm.175 4.74a.3.3 0 0 1-.067-.008.2.2 0 0 1-.056-.024.1.1 0 0 1-.038-.037.1.1 0 0 1-.014-.042v-3.89c.004-.027.023-.054.056-.073a.24.24 0 0 1 .119-.03.24.24 0 0 1 .119.03q.05.03.055.074v3.889q0 .022-.013.043a.1.1 0 0 1-.038.036.25.25 0 0 1-.125.032zm.989 1.948h-.821v-.501h.814zm0-6.688h-.821v-.402h.814zm.175 4.74a.3.3 0 0 1-.067-.008.2.2 0 0 1-.057-.024.1.1 0 0 1-.038-.037.1.1 0 0 1-.013-.042v-3.89c.003-.027.023-.054.055-.073a.24.24 0 0 1 .119-.03c.044 0 .087.01.119.03q.049.03.056.074v3.889a.1.1 0 0 1-.014.043.14.14 0 0 1-.04.037.2.2 0 0 1-.059.024.3.3 0 0 1-.068.007zm.988 1.948h-.813v-.501h.806zm0-6.688h-.813v-.402h.806zm.174 4.74a.23.23 0 0 1-.123-.033c-.033-.02-.051-.049-.051-.078v-3.316a.07.07 0 0 1 .009-.045.1.1 0 0 1 .037-.039.2.2 0 0 1 .058-.027.3.3 0 0 1 .14 0 .2.2 0 0 1 .059.027.1.1 0 0 1 .037.04q.011.022.009.044v3.316q0 .023-.014.043a.1.1 0 0 1-.039.037.2.2 0 0 1-.058.024.3.3 0 0 1-.068.007zm1.124 1.948h-.949v-.501h.949zm.213-2.06q-.006.045-.055.074a.24.24 0 0 1-.119.03.24.24 0 0 1-.119-.03q-.05-.03-.056-.073v-2.622q.006-.044.056-.074a.24.24 0 0 1 .119-.03.24.24 0 0 1 .119.03q.05.031.055.074z" mask="url(#c)"/><path fill="#fff" d="M100.009 57.376c-2.808-.744-4.08-3.216-4.56-6.672H89.64c-.48 3.456-1.752 5.928-4.536 6.672l-1.68-3.504c1.8-.912 2.496-3.72 2.496-6.744 0-1.032-.072-2.112-.216-3.12h-2.28v-3.912h6.696l-.216-1.992h5.28l-.192 1.992h6.696v3.912h-2.304a22 22 0 0 0-.216 3.096c0 3.048.696 5.856 2.52 6.768zm-4.776-10.608c0-.888.024-1.8.072-2.76h-5.52c.048.96.072 1.872.072 2.76zm23.719 10.608c-1.656 0-3.576-.168-5.664-.168h-.48v-3.912h6.24c.432-.12.984-.432 1.2-1.176q.072-.216.072-.432c0-.384-.168-.72-.336-.984h-7.512c-.48 3.456-1.752 5.928-4.536 6.672l-1.68-3.504c1.8-.912 2.496-3.72 2.496-6.744 0-1.008-.072-2.088-.216-3.096h-2.184V40.12l3.192-.024v.024l14.88-.024c.072.672.168 1.344.168 2.064 0 1.44-.36 3.048-1.848 5.16.744.624 1.488 1.536 1.656 2.904.072.744.12 1.416.12 1.992 0 4.44-2.184 5.16-5.568 5.16m-4.416-10.512c2.448 0 4.608-.408 5.352-2.832h-7.248c.048.96.072 1.896.072 2.784.6.024 1.224.048 1.824.048m32.885 10.584h-10.8c-1.296 0-2.352-.096-3.6-1.32-1.32-1.32-2.256-3.12-2.256-5.136V44.08c-.504.024-1.056.024-1.608.024v-3.96c7.656-.072 4.584-.096 11.232-.096 1.296 0 2.352.096 3.6 1.32 1.344 1.32 2.256 3.12 2.256 5.136v7.008h1.176zm-5.352-3.936.024-7.008c0-.576-.192-1.104-.48-1.584-.456-.816-1.008-.936-2.04-.936l-4.632.072-.024 6.936c0 .576.216 1.104.504 1.584.456.792.984.936 2.016.936zm27.559 3.864h-9.24c-3.84 0-6.984-3.144-6.984-6.984V44.08h-1.416v-3.936h5.52v10.248c0 1.56 1.296 2.856 2.88 2.856h5.112l-.024-13.104h4.152zm15.79.072c-2.496-1.08-4.248-3.552-4.248-6.432V44.08h-2.904v1.392h-4.08v-5.328h18.264v5.328h-4.08V44.08h-3.048l-.048 6.936c0 1.344.96 2.496 2.232 2.808zm44.547-.072h-9.24c-3.84 0-6.984-3.144-6.984-6.984V44.08h-1.416v-3.936h5.52v10.248c0 1.56 1.296 2.856 2.88 2.856h5.112l-.024-13.104h4.152zm15.838.072h-9.576v-4.08h9.696v-.048c1.392-.048 2.544-1.128 2.712-2.496h-12.048v-6.528h-2.064V40.36h6.72l-.216-2.232h5.28l-.24 2.232h6.744v3.936h-12.288v2.592h12.24v1.248h.024v2.328c0 3.84-3.144 6.984-6.984 6.984"/><defs><linearGradient id="b" x1="7" x2="330.55" y1="45.346" y2="45.346" gradientUnits="userSpaceOnUse"><stop/><stop offset=".538" stop-color="#842728"/><stop offset=".976"/></linearGradient><filter id="a" width="336.571" height="61.9" x=".49" y="20.01" color-interpolation-filters="sRGB" filterUnits="userSpaceOnUse"><feFlood flood-opacity="0" result="BackgroundImageFix"/><feColorMatrix in="SourceAlpha" result="hardAlpha" values="0 0 0 0 0 0 0 0 0 0 0 0 0 0 0 0 0 0 127 0"/><feOffset dy="5.76"/><feGaussianBlur stdDeviation="2.88"/><feComposite in2="hardAlpha" operator="out"/><feColorMatrix values="0 0 0 0 0 0 0 0 0 0 0 0 0 0 0 0 0 0 0.7 0"/><feBlend in2="BackgroundImageFix" result="effect1_dropShadow_3941_944"/><feBlend in="SourceGraphic" in2="effect1_dropShadow_3941_944" result="shape"/></filter></defs></svg>