<svg width="66" height="67" viewBox="0 0 66 67" fill="none" xmlns="http://www.w3.org/2000/svg">
<g clip-path="url(#clip0_3885_2062)">
<g filter="url(#filter0_d_3885_2062)">
<path d="M32.9043 60.1765C17.4451 60.1765 4.86816 47.5995 4.86816 32.1404C4.86816 16.6811 17.4451 4.10425 32.9043 4.10425C48.3634 4.10425 60.9404 16.6811 60.9404 32.1404C60.9404 47.5995 48.3634 60.1765 32.9043 60.1765ZM32.9043 5.68375C18.316 5.68375 6.44766 17.5521 6.44766 32.1404C6.44766 46.7286 18.316 58.597 32.9043 58.597C47.4926 58.597 59.3609 46.7286 59.3609 32.1404C59.3609 17.5521 47.4926 5.68375 32.9043 5.68375Z" fill="#FFF5DB"/>
</g>
<path d="M13.7208 58.2129L14.0397 57.894C14.1629 57.7708 14.2245 57.609 14.2245 57.4471C14.2245 57.2852 14.1629 57.1235 14.0397 57.0003L13.8305 56.791C13.5841 56.5446 13.1831 56.5446 12.9367 56.791L12.6187 57.109L11.8054 56.2958L12.1834 55.9178C12.2902 55.8112 12.3434 55.6711 12.3434 55.5311C12.3434 55.3909 12.2899 55.2508 12.1834 55.1441L12.0408 55.0015C11.987 54.9477 11.9237 54.9073 11.855 54.8802C11.8948 54.8417 11.9198 54.788 11.9198 54.7287C11.9198 54.681 11.9032 54.6373 11.8762 54.6019H11.9498C12.066 54.6019 12.1612 54.5068 12.1612 54.3905C12.1612 54.2743 12.066 54.1791 11.9498 54.1791H11.7243V53.7075C11.833 53.6992 11.9198 53.6085 11.9198 53.4978C11.9198 53.387 11.8332 53.2965 11.7243 53.2882V50.699H11.5834V53.2887C11.4773 53.2996 11.3934 53.389 11.3934 53.4978C11.3934 53.6067 11.4773 53.6961 11.5834 53.707V54.1793H11.3579C11.2417 54.1793 11.1465 54.2744 11.1465 54.3907C11.1465 54.5069 11.2417 54.6021 11.3579 54.6021H11.437C11.4101 54.6376 11.3934 54.6812 11.3934 54.7288C11.3934 54.7875 11.4178 54.8407 11.4566 54.879C11.3864 54.9061 11.3217 54.9468 11.2668 55.0017L11.1241 55.1442C10.9106 55.3577 10.9108 55.7048 11.1241 55.9179L11.5021 56.2959L10.6888 57.1091L10.3708 56.7911C10.1244 56.5447 9.72349 56.5447 9.47709 56.7911L9.26781 57.0004C9.02141 57.2468 9.02141 57.6479 9.26781 57.8941L9.58674 58.2131L9.28742 58.5124C9.02983 58.77 9.02983 59.1876 9.28742 59.4452L9.47709 59.6349C9.61372 59.7715 9.80181 59.838 9.99767 59.8158C10.1493 59.7987 10.2869 59.7188 10.3948 59.6109L10.6888 59.3169L11.4767 60.1048L11.1044 60.4773C10.8977 60.6838 10.8977 61.0444 11.1044 61.251L11.2469 61.3936C11.4603 61.6069 11.8074 61.6069 12.0206 61.3936L12.1633 61.251C12.27 61.1442 12.3232 61.0042 12.3232 60.8641C12.3232 60.7241 12.2699 60.5839 12.1633 60.4773L11.8107 60.1245L12.6185 59.3167L12.9365 59.6347C13.0558 59.7541 13.2146 59.8199 13.3833 59.8199C13.5521 59.8199 13.7108 59.7541 13.8302 59.6347L14.0395 59.4254C14.1627 59.3022 14.2243 59.1405 14.2243 58.9786C14.2243 58.8167 14.1627 58.6549 14.0395 58.5317L13.7208 58.2129ZM11.492 58.2129L10.69 59.0149L9.88908 58.2138L10.6911 57.4119L11.492 58.2129ZM11.6539 58.3747L12.4559 59.1767L11.6539 59.9787L10.8519 59.1767L11.6539 58.3747ZM12.6177 59.0148L11.8157 58.2128L12.6177 57.4108L13.4197 58.2128L12.6177 59.0148ZM11.6539 58.051L10.8528 57.25L11.6547 56.448L12.4558 57.249L11.6539 58.051ZM13.0872 56.9414C13.2505 56.7781 13.5164 56.7781 13.6799 56.9414L13.8892 57.1507C14.0525 57.3142 14.0525 57.5799 13.8892 57.7434L13.5702 58.0623L12.7682 57.2604L13.0872 56.9414ZM11.275 55.2944L11.4176 55.1519C11.4808 55.0887 11.5648 55.0539 11.6539 55.0539C11.7431 55.0539 11.8271 55.0887 11.8902 55.1519L12.0329 55.2944C12.1632 55.4247 12.163 55.6366 12.0329 55.7669L11.6539 56.1459L11.275 55.7669C11.1447 55.6368 11.1444 55.4248 11.275 55.2944ZM9.41852 57.7434C9.25517 57.5799 9.25517 57.3142 9.41852 57.1507L9.6278 56.9414C9.79115 56.7781 10.057 56.7781 10.2204 56.9414L10.5393 57.2604L9.73732 58.0623L9.41852 57.7434ZM10.2205 59.4843C10.1414 59.5634 10.0361 59.6071 9.92422 59.6071C9.81234 59.6071 9.70704 59.5635 9.62794 59.4843L9.41865 59.275C9.33704 59.1933 9.29611 59.086 9.29611 58.9787C9.29611 58.8714 9.33704 58.7642 9.41865 58.6824L9.73758 58.3635L10.5396 59.1655L10.2205 59.4843ZM12.013 61.1004L11.8703 61.2431C11.74 61.3732 11.5281 61.3732 11.3978 61.2431L11.2552 61.1004C11.192 61.0372 11.1574 60.9534 11.1574 60.8641C11.1574 60.7749 11.1922 60.691 11.2552 60.6278L11.6342 60.2489L12.0131 60.6278C12.1433 60.7582 12.1433 60.9701 12.013 61.1004ZM13.8892 59.275L13.6799 59.4843C13.6008 59.5634 13.4955 59.6071 13.3836 59.6071C13.2716 59.6071 13.1664 59.5635 13.0873 59.4843L12.7692 59.1663L13.5712 58.3643L13.8892 58.6823C14.0524 58.8456 14.0525 59.1114 13.8892 59.275Z" fill="#FFF5DB"/>
<path d="M11.727 62.4539V62.2692H11.9524C12.0687 62.2692 12.1638 62.174 12.1638 62.0578C12.1638 61.9416 12.0687 61.8464 11.9524 61.8464H11.3606C11.2444 61.8464 11.1492 61.9416 11.1492 62.0578C11.1492 62.174 11.2444 62.2692 11.3606 62.2692H11.5861V62.4539H11.3626L11.0557 64.3806C11.0557 64.3806 11.3656 64.5779 11.7603 64.5497C12.1547 64.5216 12.2957 64.3243 12.2957 64.3243L11.9376 62.454H11.727V62.4539Z" fill="#FFF5DB"/>
<path d="M55.4463 58.2129L55.7652 57.894C55.8884 57.7708 55.95 57.609 55.95 57.4471C55.95 57.2852 55.8884 57.1235 55.7652 57.0003L55.5558 56.791C55.3094 56.5446 54.9085 56.5446 54.662 56.791L54.344 57.109L53.5307 56.2958L53.9088 55.9178C54.0154 55.8112 54.0687 55.6711 54.0687 55.5311C54.0687 55.3909 54.0152 55.2508 53.9088 55.1441L53.7661 55.0015C53.7124 54.9477 53.6491 54.9073 53.5804 54.8802C53.6201 54.8417 53.6451 54.788 53.6451 54.7287C53.6451 54.681 53.6285 54.6373 53.6015 54.6019H53.6751C53.7914 54.6019 53.8865 54.5068 53.8865 54.3905C53.8865 54.2743 53.7914 54.1791 53.6751 54.1791H53.4497V53.7075C53.5584 53.6992 53.6451 53.6085 53.6451 53.4978C53.6451 53.387 53.5585 53.2965 53.4497 53.2882V50.699H53.3088V53.2887C53.2027 53.2996 53.1189 53.389 53.1189 53.4978C53.1189 53.6067 53.2027 53.6961 53.3088 53.707V54.1793H53.0833C52.9671 54.1793 52.8719 54.2744 52.8719 54.3907C52.8719 54.5069 52.9671 54.6021 53.0833 54.6021H53.1624C53.1356 54.6376 53.1189 54.6812 53.1189 54.7288C53.1189 54.7875 53.1432 54.8407 53.1821 54.879C53.1119 54.9061 53.0471 54.9468 52.9924 55.0017L52.8497 55.1442C52.6362 55.3577 52.6363 55.7048 52.8497 55.9179L53.2277 56.2959L52.4144 57.1091L52.0964 56.7911C51.85 56.5447 51.4491 56.5447 51.2027 56.7911L50.9934 57.0004C50.747 57.2468 50.747 57.6479 50.9934 57.8941L51.3123 58.2131L51.013 58.5124C50.7554 58.77 50.7554 59.1876 51.013 59.4452L51.2027 59.6349C51.3393 59.7715 51.5275 59.838 51.7233 59.8158C51.8749 59.7987 52.0126 59.7188 52.1204 59.6109L52.4144 59.3169L53.2023 60.1048L52.83 60.4773C52.6233 60.6838 52.6233 61.0444 52.83 61.251L52.9725 61.3936C53.1859 61.6069 53.533 61.6069 53.7462 61.3936L53.8889 61.251C53.9956 61.1442 54.0489 61.0042 54.0489 60.8641C54.0489 60.7241 53.9956 60.5839 53.8889 60.4773L53.5363 60.1245L54.344 59.3167L54.662 59.6347C54.7814 59.7541 54.9402 59.8199 55.1089 59.8199C55.2777 59.8199 55.4364 59.7541 55.5558 59.6347L55.7652 59.4254C55.8884 59.3022 55.95 59.1405 55.95 58.9786C55.95 58.8167 55.8884 58.6549 55.7652 58.5317L55.4463 58.2129ZM53.2175 58.2129L52.4155 59.0149L51.6145 58.2138L52.4165 57.4119L53.2175 58.2129ZM53.3794 58.3747L54.1814 59.1767L53.3794 59.9787L52.5774 59.1767L53.3794 58.3747ZM54.3433 59.0148L53.5413 58.2128L54.3433 57.4108L55.1452 58.2128L54.3433 59.0148ZM53.3794 58.051L52.5783 57.25L53.3802 56.448L54.1812 57.249L53.3794 58.051ZM54.8126 56.9414C54.976 56.7781 55.2419 56.7781 55.4053 56.9414L55.6148 57.1507C55.7781 57.3142 55.7781 57.5799 55.6148 57.7434L55.2958 58.0623L54.4938 57.2604L54.8126 56.9414ZM53.0004 55.2944L53.1431 55.1519C53.2063 55.0887 53.2903 55.0539 53.3794 55.0539C53.4686 55.0539 53.5525 55.0887 53.6156 55.1519L53.7583 55.2944C53.8886 55.4247 53.8884 55.6366 53.7583 55.7669L53.3794 56.1459L53.0004 55.7669C52.8701 55.6368 52.87 55.4248 53.0004 55.2944ZM51.1441 57.7434C50.9808 57.5799 50.9808 57.3142 51.1441 57.1507L51.3534 56.9414C51.5167 56.7781 51.7826 56.7781 51.9461 56.9414L52.265 57.2604L51.463 58.0623L51.1441 57.7434ZM51.9461 59.4843C51.8669 59.5634 51.7617 59.6071 51.6498 59.6071C51.5379 59.6071 51.4326 59.5635 51.3535 59.4843L51.1442 59.275C51.0626 59.1933 51.0217 59.086 51.0217 58.9787C51.0217 58.8714 51.0626 58.7642 51.1442 58.6824L51.4632 58.3635L52.2652 59.1655L51.9461 59.4843ZM53.7384 61.1004L53.5958 61.2431C53.4654 61.3732 53.2535 61.3732 53.1232 61.2431L52.9807 61.1004C52.9175 61.0372 52.8827 60.9534 52.8827 60.8641C52.8827 60.7749 52.9175 60.691 52.9807 60.6278L53.3595 60.2489L53.7384 60.6278C53.8687 60.7582 53.8687 60.9701 53.7384 61.1004ZM55.6146 59.275L55.4052 59.4843C55.3261 59.5634 55.2208 59.6071 55.1089 59.6071C54.997 59.6071 54.8917 59.5635 54.8126 59.4843L54.4948 59.1663L55.2967 58.3643L55.6148 58.6823C55.778 58.8456 55.7781 59.1114 55.6146 59.275Z" fill="#FFF5DB"/>
<path d="M53.4428 62.4539V62.2692H53.6682C53.7845 62.2692 53.8796 62.174 53.8796 62.0578C53.8796 61.9416 53.7845 61.8464 53.6682 61.8464H53.0765C52.9602 61.8464 52.8651 61.9416 52.8651 62.0578C52.8651 62.174 52.9602 62.2692 53.0765 62.2692H53.3019V62.4539H53.0784L52.7715 64.3806C52.7715 64.3806 53.0815 64.5779 53.4759 64.5497C53.8704 64.5216 54.0114 64.3243 54.0114 64.3243L53.6532 62.454H53.4428V62.4539Z" fill="#FFF5DB"/>
<path d="M28.5333 6.28847C28.7331 6.25556 28.9311 6.21107 29.1323 6.18791L29.0418 5.57598C28.6555 5.63179 28.2724 5.70945 27.8877 5.77579L28.1057 6.89671L28.9983 6.73691C29.2969 6.68992 29.5976 6.65794 29.8972 6.61779L29.7612 5.48398C29.9596 5.46173 30.1568 5.42738 30.3561 5.41527L30.953 5.36946L31.037 6.50828C31.6222 6.45037 32.2103 6.45326 32.7974 6.43457L32.793 5.29272L31.6961 5.3205L31.7242 5.93835L32.2598 5.92466" stroke="#FFF5DB" stroke-width="0.197438" stroke-miterlimit="10"/>
<path d="M32.2957 7.47949L31.7252 7.4937L31.755 8.11155L32.8015 8.08509L32.7971 6.94312C32.205 6.96075 31.6122 6.96102 31.0222 7.01933L31.1086 8.15801L30.575 8.19842C30.3973 8.21356 30.221 8.24186 30.044 8.26266L29.9058 7.1291C29.6207 7.16806 29.3339 7.19623 29.0501 7.24375L28.2002 7.39591L28.4182 8.51682C28.7401 8.46075 29.0612 8.39902 29.3836 8.34637L29.2912 7.73471C29.1253 7.75906 28.9609 7.79262 28.7955 7.82092" stroke="#FFF5DB" stroke-width="0.197438" stroke-miterlimit="10"/>
<path d="M23.7112 7.62558C23.9005 7.55358 24.0858 7.47105 24.2792 7.41024L24.07 6.82819C23.8836 6.88703 23.7045 6.96535 23.5222 7.03524L22.9775 7.25045L23.4116 8.3066L24.2551 7.97346C24.5397 7.87198 24.8271 7.778 25.113 7.68007L24.7571 6.59508C25.1329 6.45898 25.5204 6.3604 25.9038 6.24878L26.2095 7.34903L26.6333 7.22846L27.0624 7.12817C27.3489 7.06314 27.6343 6.99286 27.9218 6.93244L27.695 5.81323C27.3371 5.88944 26.9812 5.97605 26.6243 6.05753L26.7727 6.658L27.295 6.53704" stroke="#FFF5DB" stroke-width="0.197438" stroke-miterlimit="10"/>
<path d="M27.6235 8.05321L27.0678 8.18168L27.2179 8.78176C27.5578 8.70489 27.8965 8.62197 28.2372 8.54865L28.0104 7.42944C27.7207 7.49052 27.4331 7.56146 27.1444 7.62688C27.0004 7.6615 26.8552 7.69085 26.7124 7.72968L26.2853 7.8513L26.5932 8.9509C26.2504 9.04896 25.9056 9.14004 25.5704 9.26219L25.2123 8.17786C24.9404 8.27184 24.6659 8.35937 24.3958 8.45836L23.5928 8.77557L24.0269 9.83173C24.3316 9.71393 24.6331 9.5873 24.9402 9.47555L24.7294 8.89403C24.5702 8.94708 24.4165 9.01513 24.2598 9.07476" stroke="#FFF5DB" stroke-width="0.197438" stroke-miterlimit="10"/>
<path d="M19.2279 9.88504C19.3995 9.77776 19.5659 9.66193 19.742 9.5619L19.4229 9.03197C19.0886 9.2331 18.764 9.45041 18.4346 9.65943L19.0666 10.6104L19.8298 10.1208C20.0867 9.96177 20.3522 9.81685 20.6131 9.66417L20.0513 8.67001C20.3935 8.46414 20.7524 8.28843 21.1072 8.10547L21.6229 9.12424L22.015 8.92325C22.1474 8.85981 22.2822 8.80124 22.4157 8.7399C22.684 8.62012 22.9496 8.49442 23.2199 8.37964L22.7774 7.3269C22.4411 7.47103 22.1095 7.62648 21.7756 7.7764L22.0391 8.33607L22.5274 8.11494" stroke="#FFF5DB" stroke-width="0.197438" stroke-miterlimit="10"/>
<path d="M23.1647 9.53511L22.645 9.77033L22.9101 10.3292C23.2285 10.1872 23.544 10.0387 23.8641 9.90064L23.4216 8.8479C23.1491 8.96386 22.8814 9.09048 22.611 9.21118C22.4768 9.27357 22.3398 9.33017 22.2079 9.39743L21.8126 9.60014L22.3304 10.618L21.8543 10.8619C21.6945 10.9413 21.544 11.0375 21.3883 11.1244L20.8245 10.1312C20.5765 10.2772 20.3225 10.4133 20.0792 10.5671L19.3525 11.0334L19.9846 11.9844L20.8111 11.456L20.4906 10.927C20.3474 11.0143 20.2077 11.1075 20.0659 11.1974" stroke="#FFF5DB" stroke-width="0.197438" stroke-miterlimit="10"/>
<path d="M15.2735 12.9696L15.7137 12.5513L15.2979 12.0934L14.4502 12.9004L15.2544 13.7109L15.9106 13.0852C16.0181 12.979 16.1318 12.8795 16.2469 12.7814L16.5895 12.4844L15.8454 11.6182C15.9973 11.4888 16.1447 11.3542 16.3004 11.2295L16.7709 10.8593L17.4749 11.7583C17.9292 11.385 18.4191 11.0592 18.8952 10.7153L18.2556 9.76929L17.3612 10.4053L17.7287 10.9028L18.1652 10.5921" stroke="#FFF5DB" stroke-width="0.197438" stroke-miterlimit="10"/>
<path d="M19.0626 11.8597L18.5976 12.1903L18.9664 12.6868L19.819 12.08L19.1795 11.134C18.6988 11.4799 18.2068 11.8107 17.7487 12.1869L18.4546 13.0846L18.0337 13.4151L17.6287 13.765L16.8829 12.9003L16.5566 13.183L16.3935 13.3245L16.2373 13.4735L15.6123 14.0694L16.4165 14.8801L17.1268 14.2029L16.7097 13.7461L16.3453 14.0938" stroke="#FFF5DB" stroke-width="0.197438" stroke-miterlimit="10"/>
<path d="M11.9917 16.7617L12.344 16.267L11.8475 15.8982L11.1689 16.852L12.1149 17.4916C12.4676 17.0008 12.8056 16.4989 13.1894 16.0314L12.2917 15.3255L12.662 14.8552L13.0526 14.4017L13.9173 15.1475L14.2058 14.8145L14.3502 14.6481L14.5022 14.4886L15.1103 13.8509L14.2996 13.0466L13.5425 13.8409L13.9993 14.2578L14.3689 13.8699" stroke="#FFF5DB" stroke-width="0.197438" stroke-miterlimit="10"/>
<path d="M15.5054 14.9419L15.1119 15.3552L15.5699 15.771L16.2918 15.013L15.4811 14.2087L14.868 14.8517C14.7638 14.957 14.6664 15.0685 14.5703 15.1813L14.2794 15.5171L15.1456 16.2612C15.0301 16.397 14.909 16.5284 14.7976 16.6678L14.467 17.0887L13.568 16.3846C13.202 16.8295 12.8833 17.3098 12.5459 17.7762L13.4919 18.4157L14.0608 17.6164L13.5632 17.2489L13.2714 17.6592" stroke="#FFF5DB" stroke-width="0.197438" stroke-miterlimit="10"/>
<path d="M9.53107 21.118L9.78182 20.5647L9.22294 20.2996C9.06301 20.6556 8.89743 21.0094 8.74316 21.368L9.7959 21.8105C9.91423 21.5324 10.0434 21.259 10.1667 20.9831C10.2304 20.8461 10.2883 20.7063 10.3569 20.5717L10.5638 20.1682L9.54594 19.6504L9.81946 19.1177C9.90897 18.9392 10.0155 18.7701 10.1129 18.5958L11.106 19.1596C11.2548 18.9063 11.394 18.6473 11.5509 18.3989L12.0268 17.6572L11.0758 17.0251C10.8788 17.3334 10.6787 17.6398 10.485 17.9501L11.014 18.2706C11.1069 18.118 11.2057 17.9692 11.3014 17.8183" stroke="#FFF5DB" stroke-width="0.197438" stroke-miterlimit="10"/>
<path d="M12.6063 18.6541C12.5056 18.8153 12.3963 18.9713 12.3026 19.1369L12.8325 19.4559C13.0121 19.1572 13.2073 18.8677 13.3933 18.5727L12.4423 17.9407L11.9626 18.6883C11.8067 18.94 11.665 19.2003 11.5153 19.4558L12.5095 20.0176C12.3244 20.3228 12.169 20.6441 12.0052 20.9608L10.9863 20.4451L10.7893 20.8293C10.7271 20.9591 10.6697 21.0911 10.6099 21.222C10.4926 21.4847 10.3692 21.7449 10.2568 22.0099L11.3096 22.4524C11.4386 22.1521 11.5781 21.8564 11.7112 21.558L11.1515 21.2945L10.9439 21.7529" stroke="#FFF5DB" stroke-width="0.197438" stroke-miterlimit="10"/>
<path d="M7.94366 25.8797L8.08069 25.2878L7.48061 25.1377C7.39347 25.5184 7.30147 25.898 7.21973 26.2797L8.33893 26.5065C8.40119 26.2107 8.47345 25.9171 8.54032 25.6224C8.5756 25.4755 8.60574 25.3271 8.64536 25.1813L8.76948 24.7452L7.66988 24.4373C7.77953 24.0533 7.88312 23.6673 8.01869 23.2914L9.10302 23.6496C9.19884 23.3718 9.28835 23.0919 9.38943 22.8161L9.71323 21.9964L8.65707 21.5623C8.52426 21.9033 8.38356 22.2416 8.25838 22.5854L8.8399 22.7962C8.89663 22.6268 8.9685 22.4628 9.0322 22.2959" stroke="#FFF5DB" stroke-width="0.197438" stroke-miterlimit="10"/>
<path d="M10.4864 22.8568C10.4189 23.0345 10.3407 23.2082 10.2841 23.3899L10.8661 23.599C10.9179 23.4325 10.9889 23.2728 11.0512 23.1102L11.2432 22.6238L10.1871 22.1897L9.86065 23.0159C9.76127 23.2948 9.6694 23.5764 9.57331 23.8563L10.6583 24.2124C10.5355 24.5474 10.4494 24.8938 10.3492 25.2359L9.24899 24.9303L9.13079 25.3454L9.0326 25.7658C8.96902 26.0464 8.89992 26.326 8.84082 26.6076L9.96003 26.8343C10.0285 26.5149 10.1064 26.1974 10.1785 25.8788L9.57805 25.7304L9.46472 26.2207" stroke="#FFF5DB" stroke-width="0.197438" stroke-miterlimit="10"/>
<path d="M7.34398 30.8561L7.35951 30.2491L6.74166 30.2194L6.71191 31.3893L7.85376 31.3937C7.8714 30.7896 7.87206 30.1846 7.93142 29.5826L6.79273 29.4962L6.83854 28.8993C6.85578 28.7006 6.88645 28.503 6.90988 28.3048L8.04343 28.443C8.08305 28.152 8.11214 27.8592 8.16058 27.5696L8.3159 26.7021L7.19498 26.4841C7.1314 26.8445 7.06309 27.2044 7.00452 27.5656L7.61618 27.658C7.64211 27.4812 7.67738 27.306 7.70766 27.1299" stroke="#FFF5DB" stroke-width="0.197438" stroke-miterlimit="10"/>
<path d="M9.22084 27.3944C9.19004 27.582 9.14753 27.7677 9.12607 27.9567L9.738 28.0474C9.78775 27.7024 9.8583 27.3607 9.91661 27.017L8.7957 26.7991L8.63906 27.6735C8.59299 27.9659 8.56193 28.2606 8.52244 28.554L9.65626 28.69C9.63652 28.8672 9.60453 29.043 9.5944 29.2212L9.55399 29.7548L8.41517 29.6709C8.35804 30.2441 8.36146 30.8206 8.34277 31.3959L9.48475 31.4004L9.50963 30.4193L8.89165 30.3913L8.87901 30.8946" stroke="#FFF5DB" stroke-width="0.197438" stroke-miterlimit="10"/>
<path d="M7.70766 35.856C7.67475 35.6562 7.63026 35.4583 7.6071 35.257L6.99517 35.3477C7.05098 35.734 7.12864 36.117 7.19498 36.5018L8.3159 36.2838L8.1561 35.3911C8.10911 35.0926 8.07713 34.7918 8.03698 34.4923L6.90317 34.6282C6.88092 34.4299 6.84657 34.2327 6.83446 34.0334L6.78865 33.4365L7.92747 33.3525C7.86956 32.7673 7.87245 32.1792 7.85376 31.592L6.71191 31.5965L6.73969 32.6933L7.35753 32.6653L7.34385 32.1297" stroke="#FFF5DB" stroke-width="0.197438" stroke-miterlimit="10"/>
<path d="M8.87914 32.0904L8.89336 32.661L9.51121 32.6313L9.48475 31.5847L8.34277 31.5892C8.36041 32.1812 8.36067 32.7741 8.41898 33.364L9.55767 33.2777L9.59808 33.8113C9.61322 33.989 9.64152 34.1652 9.66245 34.3423L8.52889 34.4805C8.56785 34.7656 8.59602 35.0524 8.64354 35.3362L8.7957 36.1861L9.91661 35.9681C9.86054 35.6461 9.79881 35.3251 9.74616 35.0026L9.1345 35.095C9.15885 35.261 9.19241 35.4254 9.22071 35.5907" stroke="#FFF5DB" stroke-width="0.197438" stroke-miterlimit="10"/>
<path d="M9.03585 40.6898C8.96385 40.5005 8.88132 40.3152 8.82064 40.1218L8.23859 40.331C8.29743 40.5174 8.37575 40.6965 8.44564 40.8788L8.66085 41.4235L9.71701 40.9894L9.38386 40.1459C9.28238 39.8614 9.1884 39.5739 9.09047 39.288L8.00549 39.6439C7.86938 39.2681 7.7708 38.8806 7.65918 38.4972L8.75943 38.1916L8.63886 37.7677L8.53857 37.3386C8.47354 37.0521 8.40326 36.7667 8.34284 36.4792L7.22363 36.706C7.29984 37.0641 7.38645 37.4198 7.46793 37.7767L8.0684 37.6283L7.94744 37.106" stroke="#FFF5DB" stroke-width="0.197438" stroke-miterlimit="10"/>
<path d="M9.45873 36.7657L9.5872 37.3215L10.1873 37.1714C10.1104 36.8314 10.0275 36.4927 9.95417 36.1521L8.83496 36.3789C8.89603 36.6686 8.96698 36.9562 9.0324 37.2449C9.06702 37.3888 9.09637 37.534 9.1352 37.6768L9.25682 38.104L10.3564 37.7961C10.4545 38.1388 10.5456 38.4837 10.6677 38.8188L9.58338 39.177C9.67736 39.4489 9.76489 39.7233 9.86387 39.9934L10.1811 40.7965L11.2372 40.3624C11.1194 40.0577 10.9928 39.7561 10.8811 39.449L10.2996 39.6599C10.3526 39.819 10.4206 39.9728 10.4803 40.1294" stroke="#FFF5DB" stroke-width="0.197438" stroke-miterlimit="10"/>
<path d="M11.3013 45.1656C11.194 44.994 11.0782 44.8276 10.9782 44.6515L10.4482 44.9706C10.6494 45.3049 10.8667 45.6294 11.0757 45.9589L12.0267 45.3269L11.537 44.5637C11.378 44.3068 11.2331 44.0413 11.0804 43.7804L10.0863 44.3422C9.8804 44 9.70468 43.6412 9.52173 43.2863L10.5405 42.7706L10.3395 42.3785C10.2761 42.2461 10.2175 42.1113 10.1562 41.9778C10.0364 41.7096 9.91068 41.4439 9.7959 41.1736L8.74316 41.6161C8.88729 41.9524 9.04274 42.284 9.19266 42.6179L9.75233 42.3544L9.5312 41.8662" stroke="#FFF5DB" stroke-width="0.197438" stroke-miterlimit="10"/>
<path d="M10.9441 41.2334L11.1793 41.753L11.7381 41.488C11.5961 41.1696 11.4476 40.854 11.3096 40.5339L10.2568 40.9765C10.3728 41.2489 10.4994 41.5166 10.6201 41.787C10.6825 41.9213 10.7391 42.0583 10.8064 42.1902L11.0091 42.5854L12.0269 42.0676L12.2708 42.5437C12.3502 42.7035 12.4464 42.8541 12.5333 43.0098L11.5403 43.5735C11.6862 43.8215 11.8224 44.0756 11.9761 44.3188L12.4425 45.0455L13.3935 44.4135L12.8651 43.587L12.3361 43.9075C12.4234 44.0507 12.5166 44.1903 12.6065 44.3321" stroke="#FFF5DB" stroke-width="0.197438" stroke-miterlimit="10"/>
<path d="M14.3691 49.1145L13.9508 48.6743L13.4929 49.0901L14.2999 49.9378L15.1106 49.1335L14.4848 48.4774C14.3786 48.3698 14.2791 48.2561 14.1811 48.1411L13.8841 47.7985L13.0179 48.5425C12.8885 48.3906 12.7538 48.2432 12.6292 48.0875L12.2589 47.6172L13.1579 46.9132C12.7846 46.4589 12.4589 45.969 12.1149 45.4929L11.1689 46.1325L11.805 47.0269L12.3025 46.6594L11.9917 46.2229" stroke="#FFF5DB" stroke-width="0.197438" stroke-miterlimit="10"/>
<path d="M13.2715 45.3265L13.6022 45.7915L14.0987 45.4227L13.4919 44.5701L12.5459 45.2096C12.8918 45.6903 13.2226 46.1823 13.5988 46.6404L14.4964 45.9345L14.827 46.3554L15.1768 46.7604L14.3122 47.5064L14.5949 47.8327L14.7364 47.9957L14.8854 48.152L15.4813 48.7769L16.2919 47.9727L15.6147 47.2625L15.158 47.6794L15.5056 48.0438" stroke="#FFF5DB" stroke-width="0.197438" stroke-miterlimit="10"/>
<path d="M18.1652 52.3903L17.6705 52.0381L17.3017 52.5346L18.2556 53.2131L18.8952 52.2671C18.4043 51.9144 17.9025 51.5765 17.4349 51.1927L16.729 52.0903L16.2587 51.7201L15.8053 51.3294L16.5511 50.4648L16.2181 50.1763L16.0517 50.0319L15.8921 49.8798L15.2544 49.2717L14.4502 50.0823L15.2444 50.8395L15.6614 50.3828L15.2735 50.0132" stroke="#FFF5DB" stroke-width="0.197438" stroke-miterlimit="10"/>
<path d="M16.3455 48.8886L16.7588 49.2821L17.1746 48.8241L16.4165 48.1023L15.6123 48.9128L16.2553 49.526C16.3606 49.6302 16.4721 49.7276 16.5849 49.8237L16.9207 50.1146L17.6647 49.2484C17.8006 49.3639 17.9319 49.485 18.0713 49.5964L18.4923 49.927L17.7882 50.826C18.2332 51.1919 18.7134 51.5107 19.1797 51.8481L19.8193 50.9021L19.0199 50.3332L18.6524 50.8307L19.0627 51.1226" stroke="#FFF5DB" stroke-width="0.197438" stroke-miterlimit="10"/>
<path d="M22.5274 54.8729L21.9741 54.6223L21.709 55.1812C22.0652 55.3411 22.4189 55.5067 22.7774 55.661L23.2199 54.6082C22.9418 54.4899 22.6684 54.3607 22.3925 54.2375C22.2555 54.1737 22.1157 54.1158 21.9811 54.0473L21.5776 53.8403L21.0598 54.8581L20.5271 54.5845C20.3487 54.495 20.1795 54.3886 20.0053 54.2912L20.569 53.298C20.3158 53.1492 20.0567 53.01 19.8083 52.8532L19.0666 52.3772L18.4346 53.3282C18.7428 53.5252 19.0493 53.7253 19.3595 53.9191L19.68 53.3901C19.5275 53.2971 19.3786 53.1983 19.2277 53.1026" stroke="#FFF5DB" stroke-width="0.197438" stroke-miterlimit="10"/>
<path d="M20.0659 51.7897C20.2272 51.8904 20.3832 51.9997 20.5487 52.0935L20.8678 51.5635C20.569 51.3839 20.2796 51.1887 19.9846 51.0027L19.3525 51.9537L20.1002 52.4334C20.3518 52.5893 20.6122 52.7311 20.8677 52.8807L21.4295 51.8865C21.7347 52.0716 22.056 52.2271 22.3727 52.3908L21.857 53.4097L22.2411 53.6068C22.3708 53.6689 22.5029 53.7263 22.6337 53.7862C22.8965 53.9034 23.1568 54.0268 23.4216 54.1393L23.8641 53.0866C23.5639 52.9576 23.2681 52.8181 22.9697 52.685L22.7062 53.2447L23.1647 53.4522" stroke="#FFF5DB" stroke-width="0.197438" stroke-miterlimit="10"/>
<path d="M27.2948 56.4495L26.7029 56.3125L26.5529 56.9126C26.9335 56.9997 27.3131 57.0918 27.6948 57.1734L27.9216 56.0542C27.6259 55.992 27.3322 55.9197 27.0375 55.8528C26.8906 55.8176 26.7423 55.7874 26.5964 55.7478L26.1604 55.6237L25.8525 56.7233C25.4684 56.6136 25.0825 56.51 24.7066 56.3745L25.0648 55.2901C24.7871 55.1943 24.5072 55.1048 24.2314 55.0037L23.4116 54.6799L22.9775 55.7361C23.3186 55.8689 23.6569 56.0096 24.0007 56.1348L24.2115 55.5533C24.0421 55.4965 23.8781 55.4247 23.7112 55.361" stroke="#FFF5DB" stroke-width="0.197438" stroke-miterlimit="10"/>
<path d="M24.2599 53.9109C24.4375 53.9784 24.6113 54.0566 24.7929 54.1132L25.0021 53.5312C24.8354 53.4794 24.6759 53.4084 24.5132 53.3461L24.0269 53.1541L23.5928 54.2102L24.419 54.5366C24.6979 54.636 24.9794 54.7279 25.2594 54.824L25.6155 53.739C25.9504 53.8618 26.2969 53.9479 26.639 54.048L26.3333 55.1483L26.7485 55.2665L27.1689 55.3647C27.4495 55.4283 27.7291 55.4974 28.0106 55.5565L28.2374 54.4373C27.918 54.3688 27.6005 54.2909 27.2818 54.2188L27.1335 54.8192L27.6238 54.9326" stroke="#FFF5DB" stroke-width="0.197438" stroke-miterlimit="10"/>
<path d="M32.2596 57.0621L31.6527 57.0466L31.623 57.6645L32.7928 57.6942L32.7973 56.5524C32.1931 56.5347 31.5882 56.5339 30.9861 56.4747L30.8998 57.6134L30.3029 57.5674C30.1041 57.5502 29.9066 57.5195 29.7083 57.4961L29.8465 56.3626C29.5555 56.3229 29.2628 56.2938 28.9732 56.2454L28.1057 56.0901L27.8877 57.211C28.2481 57.2746 28.6079 57.3429 28.9691 57.4015L29.0615 56.7898C28.8848 56.7639 28.7096 56.7286 28.5334 56.6983" stroke="#FFF5DB" stroke-width="0.197438" stroke-miterlimit="10"/>
<path d="M28.7957 55.1622C28.9832 55.193 29.169 55.2355 29.358 55.257L29.4485 54.6452C29.1035 54.5954 28.7618 54.5249 28.4182 54.4666L28.2002 55.5875L29.0746 55.7441C29.3671 55.7902 29.6618 55.8212 29.9552 55.8607L30.0911 54.7269C30.2683 54.7467 30.4441 54.7786 30.6224 54.7888L31.156 54.8292L31.072 55.968C31.6452 56.025 32.2217 56.0217 32.7971 56.0404L32.8015 54.8985L31.8204 54.8735L31.7924 55.4915L32.2957 55.5042" stroke="#FFF5DB" stroke-width="0.197438" stroke-miterlimit="10"/>
<path d="M37.2747 56.6985C37.0749 56.7314 36.877 56.7759 36.6757 56.799L36.7664 57.4108C37.1527 57.355 37.5357 57.2773 37.9205 57.211L37.7025 56.0901L36.8098 56.2499C36.5113 56.2969 36.2105 56.3289 35.911 56.369L36.0468 57.5028C35.8484 57.5251 35.6514 57.5594 35.4521 57.5715L34.8552 57.6173L34.7712 56.4785C34.186 56.5364 33.5979 56.5335 33.0107 56.5522L33.0152 57.6941L34.1119 57.6663L34.0839 57.0485L33.5483 57.0621" stroke="#FFF5DB" stroke-width="0.197438" stroke-miterlimit="10"/>
<path d="M33.5067 55.5039L34.0773 55.4897L34.0475 54.8718L33.001 54.8983L33.0055 56.0401C33.5975 56.0225 34.1903 56.0224 34.7803 55.9641L34.6939 54.8254L35.2275 54.785C35.4052 54.7698 35.5815 54.7415 35.7585 54.7207L35.8967 55.8543C36.1818 55.8153 36.4686 55.7871 36.7524 55.7396L37.6023 55.5875L37.3844 54.4666C37.0624 54.5226 36.7414 54.5844 36.4189 54.637L36.5113 55.2487C36.6773 55.2243 36.8417 55.1908 37.007 55.1625" stroke="#FFF5DB" stroke-width="0.197438" stroke-miterlimit="10"/>
<path d="M42.102 55.3611C41.9127 55.4331 41.7274 55.5156 41.5341 55.5763L41.7432 56.1583C41.9296 56.0995 42.1087 56.0212 42.291 55.9513L42.8357 55.7361L42.4016 54.6799L41.5581 55.0131C41.2734 55.1146 40.9861 55.2085 40.7002 55.3065L41.0563 56.3915C40.6805 56.5276 40.293 56.6261 39.9095 56.7378L39.6039 55.6375L39.1801 55.7581L38.751 55.8584C38.4644 55.9233 38.1791 55.9937 37.8916 56.0541L38.1184 57.1733C38.4763 57.0971 38.8322 57.0105 39.189 56.929L39.0407 56.3285L38.5184 56.4495" stroke="#FFF5DB" stroke-width="0.197438" stroke-miterlimit="10"/>
<path d="M38.1732 54.9326L38.7289 54.8041L38.5789 54.204C38.2389 54.2809 37.9002 54.3638 37.5596 54.4371L37.7864 55.5563C38.0761 55.4953 38.3637 55.4243 38.6523 55.3589C38.7963 55.3243 38.9415 55.2949 39.0843 55.2561L39.5114 55.1345L39.2036 54.0349C39.5463 53.9368 39.8912 53.8457 40.2263 53.7236L40.5846 54.8079C40.8565 54.7139 41.131 54.6264 41.401 54.5274L42.2041 54.2102L41.77 53.1541C41.4653 53.2719 41.1636 53.3985 40.8566 53.5102L41.0675 54.0917C41.2266 54.0387 41.3804 53.9707 41.537 53.911" stroke="#FFF5DB" stroke-width="0.197438" stroke-miterlimit="10"/>
<path d="M46.577 53.1026C46.4054 53.2099 46.239 53.3257 46.0629 53.4257L46.3819 53.9556C46.7163 53.7545 47.0407 53.5372 47.3703 53.3282L46.7383 52.3772L45.9751 52.8668C45.7182 53.0258 45.4527 53.1708 45.1918 53.3234L45.7536 54.3176C45.4113 54.5235 45.0525 54.6992 44.6977 54.8822L44.182 53.8632L43.7899 54.0642C43.6574 54.1277 43.5227 54.1862 43.3892 54.2475C43.1209 54.3672 42.8553 54.4929 42.585 54.6077L43.0275 55.6605C43.3638 55.5163 43.6954 55.3609 44.0293 55.211L43.7658 54.6513L43.2774 54.8724" stroke="#FFF5DB" stroke-width="0.197438" stroke-miterlimit="10"/>
<path d="M42.6496 53.4522L43.1693 53.217L42.9042 52.6581C42.5858 52.8002 42.2703 52.9486 41.9502 53.0867L42.3927 54.1394C42.6651 54.0235 42.9329 53.8967 43.2033 53.776C43.3375 53.7136 43.4745 53.657 43.6064 53.5898L44.0017 53.3871L43.4839 52.3692L43.96 52.1253C44.1198 52.0459 44.2703 51.9497 44.4261 51.8629L44.9898 52.8558C45.2378 52.71 45.4918 52.5738 45.7351 52.42L46.4618 51.9537L45.8297 51.0027L45.0032 51.531L45.3237 52.06C45.4669 51.9728 45.6066 51.8796 45.7484 51.7897" stroke="#FFF5DB" stroke-width="0.197438" stroke-miterlimit="10"/>
<path d="M50.5232 50.013L50.083 50.4313L50.4988 50.8893L51.3465 50.0823L50.5421 49.2717L49.886 49.8975C49.7784 50.0037 49.6647 50.1032 49.5497 50.2013L49.207 50.4982L49.9511 51.3644C49.7992 51.4938 49.6518 51.6285 49.4961 51.7531L49.0257 52.1234L48.3216 51.2244C47.8674 51.5977 47.3775 51.9234 46.9014 52.2674L47.5409 53.2134L48.4353 52.5774L48.0678 52.0798L47.6314 52.3906" stroke="#FFF5DB" stroke-width="0.197438" stroke-miterlimit="10"/>
<path d="M46.7301 51.1224L47.1951 50.7917L46.8263 50.2952L45.9736 50.902L46.6132 51.8479C47.0939 51.502 47.5859 51.1713 48.044 50.7951L47.3381 49.8975L47.759 49.567L48.164 49.2172L48.9098 50.0818L49.2361 49.7991L49.3992 49.6577L49.5554 49.5087L50.1804 48.9128L49.3761 48.1023L48.6659 48.7795L49.083 49.2362L49.4472 48.8886" stroke="#FFF5DB" stroke-width="0.197438" stroke-miterlimit="10"/>
<path d="M53.8033 46.2228L53.4511 46.7176L53.9476 47.0864L54.6261 46.1325L53.6801 45.4929C53.3273 45.9837 52.9895 46.4856 52.6056 46.9532L53.5032 47.6591L53.1329 48.1294L52.7423 48.5828L51.8776 47.8369L51.5891 48.1699L51.4447 48.3363L51.2927 48.4958L50.6846 49.1335L51.4951 49.9378L52.2524 49.1437L51.7956 48.7267L51.426 49.1146" stroke="#FFF5DB" stroke-width="0.197438" stroke-miterlimit="10"/>
<path d="M50.299 48.0439L50.6925 47.6306L50.2345 47.2148L49.5127 47.9728L50.3232 48.7771L50.9364 48.1341C51.0406 48.0288 51.138 47.9173 51.2341 47.8045L51.525 47.4687L50.6588 46.7246C50.7743 46.5888 50.8954 46.4574 51.0068 46.318L51.3374 45.8971L52.2364 46.6012C52.6023 46.1563 52.9211 45.676 53.2585 45.2096L52.3125 44.5701L51.7436 45.3694L52.2412 45.7369L52.533 45.3266" stroke="#FFF5DB" stroke-width="0.197438" stroke-miterlimit="10"/>
<path d="M56.2778 41.8661L56.0271 42.4194L56.586 42.6845C56.7459 42.3283 56.9115 41.9747 57.0657 41.6161L56.013 41.1736C55.8947 41.4517 55.7655 41.7251 55.6422 42.001C55.5785 42.138 55.5206 42.2778 55.452 42.4124L55.2451 42.8159L56.263 43.3337L55.9894 43.8664C55.8999 44.0449 55.7935 44.2141 55.6962 44.3883L54.7031 43.8245C54.5542 44.0778 54.4151 44.3368 54.2582 44.5852L53.7822 45.3269L54.7332 45.9589C54.9303 45.6507 55.1303 45.3443 55.3241 45.034L54.7951 44.7135C54.7022 44.8661 54.6033 45.0149 54.5076 45.1658" stroke="#FFF5DB" stroke-width="0.197438" stroke-miterlimit="10"/>
<path d="M53.202 44.3321C53.3027 44.1709 53.4121 44.0149 53.5058 43.8493L52.9759 43.5302C52.7962 43.829 52.601 44.1185 52.415 44.4135L53.366 45.0455L53.8458 44.2979C54.0016 44.0462 54.1434 43.7859 54.2931 43.5304L53.2989 42.9686C53.484 42.6634 53.6394 42.3421 53.8032 42.0254L54.8221 42.5411L55.0191 42.157C55.0812 42.0272 55.1386 41.8952 55.1985 41.7644C55.3158 41.5016 55.4391 41.2413 55.5515 40.9765L54.4988 40.5339C54.3698 40.8342 54.2303 41.1299 54.0972 41.4283L54.6569 41.6918L54.8645 41.2334" stroke="#FFF5DB" stroke-width="0.197438" stroke-miterlimit="10"/>
<path d="M57.8605 37.106L57.7235 37.698L58.3236 37.848C58.4107 37.4674 58.5027 37.0878 58.5845 36.706L57.4652 36.4792C57.403 36.775 57.3307 37.0687 57.2637 37.3634C57.2285 37.5103 57.1983 37.6586 57.1587 37.8045L57.0346 38.2405L58.1342 38.5484C58.0245 38.9325 57.9209 39.3184 57.7854 39.6943L56.701 39.3362C56.6052 39.6139 56.5157 39.8939 56.4146 40.1696L56.0908 40.9894L57.147 41.4235C57.2798 41.0824 57.4205 40.7442 57.5457 40.4004L56.9641 40.1895C56.9074 40.3589 56.8356 40.5229 56.7718 40.6898" stroke="#FFF5DB" stroke-width="0.197438" stroke-miterlimit="10"/>
<path d="M55.3242 40.1297C55.3918 39.952 55.4699 39.7782 55.5265 39.5966L54.9445 39.3874C54.8928 39.5541 54.8217 39.7136 54.7594 39.8763L54.5674 40.3627L55.6235 40.7968L55.95 39.9705C56.0493 39.6916 56.1412 39.4101 56.2373 39.1301L55.1523 38.7741C55.2751 38.4391 55.3612 38.0926 55.4614 37.7506L56.5616 38.0562L56.6798 37.641L56.778 37.2206C56.8416 36.94 56.9107 36.6604 56.9698 36.3789L55.8506 36.1521C55.7821 36.4716 55.7042 36.789 55.6321 37.1077L56.2326 37.256L56.3459 36.7657" stroke="#FFF5DB" stroke-width="0.197438" stroke-miterlimit="10"/>
<path d="M58.475 32.1297L58.4594 32.7367L59.0773 32.7664L59.107 31.5965L57.9652 31.592C57.9476 32.1962 57.9469 32.8011 57.8875 33.4032L59.0262 33.4895L58.9803 34.0865C58.963 34.2852 58.9324 34.4828 58.9089 34.681L57.7754 34.5428C57.7358 34.8338 57.7067 35.1266 57.6582 35.4163L57.5029 36.2838L58.6238 36.5018C58.6874 36.1414 58.7557 35.7815 58.8143 35.4204L58.2026 35.328C58.1767 35.5047 58.1414 35.6799 58.1112 35.856" stroke="#FFF5DB" stroke-width="0.197438" stroke-miterlimit="10"/>
<path d="M56.5874 35.5907C56.6182 35.4032 56.6607 35.2174 56.6821 35.0284L56.0702 34.9377C56.0205 35.2827 55.9499 35.6244 55.8916 35.9681L57.0125 36.1861L57.1692 35.3117C57.2152 35.0192 57.2463 34.7245 57.2858 34.4311L56.152 34.2951C56.1717 34.118 56.2037 33.9421 56.2138 33.7639L56.2542 33.2303L57.393 33.3143C57.45 32.741 57.4468 32.1645 57.4654 31.5892L56.3236 31.5847L56.2987 32.5658L56.9166 32.5939L56.9292 32.0906" stroke="#FFF5DB" stroke-width="0.197438" stroke-miterlimit="10"/>
<path d="M58.1113 27.1298C58.1442 27.3296 58.1887 27.5275 58.2119 27.7288L58.8237 27.6382C58.7678 27.2519 58.6902 26.8689 58.6238 26.4841L57.5029 26.7021L57.6627 27.5948C57.7097 27.8933 57.7417 28.1941 57.7818 28.4936L58.9157 28.3577C58.9379 28.556 58.9723 28.7532 58.9844 28.9524L59.0302 29.5493L57.8914 29.6333C57.9493 30.2185 57.9464 30.8066 57.9651 31.3937L59.1069 31.3893L59.0791 30.2924L58.4613 30.3205L58.475 30.8561" stroke="#FFF5DB" stroke-width="0.197438" stroke-miterlimit="10"/>
<path d="M56.9291 30.8947L56.9147 30.3241L56.2969 30.3539L56.3233 31.4004L57.4652 31.3959C57.4475 30.8039 57.4474 30.2111 57.3891 29.6211L56.2504 29.7075L56.21 29.1739C56.1949 28.9962 56.1666 28.8199 56.1458 28.6429L57.2793 28.5047C57.2404 28.2196 57.2122 27.9328 57.1647 27.649L57.0125 26.7991L55.8916 27.017C55.9477 27.339 56.0094 27.66 56.0621 27.9825L56.6737 27.8901C56.6494 27.7241 56.6158 27.5596 56.5875 27.3944" stroke="#FFF5DB" stroke-width="0.197438" stroke-miterlimit="10"/>
<path d="M56.772 22.2959C56.844 22.4852 56.9265 22.6705 56.9872 22.8639L57.5692 22.6547C57.5104 22.4684 57.4321 22.2892 57.3622 22.1069L57.147 21.5623L56.0908 21.9964L56.424 22.8398C56.5254 23.1245 56.6194 23.4119 56.7174 23.6977L57.8023 23.3418C57.9384 23.7176 58.037 24.1051 58.1486 24.4885L57.0484 24.7942L57.169 25.218L57.2693 25.6471C57.3342 25.9337 57.4046 26.219 57.465 26.5065L58.5842 26.2797C58.508 25.9218 58.4214 25.5659 58.3399 25.2091L57.7394 25.3574L57.8604 25.8797" stroke="#FFF5DB" stroke-width="0.197438" stroke-miterlimit="10"/>
<path d="M56.3459 26.2204L56.2174 25.6647L55.6174 25.8148C55.6942 26.1548 55.7772 26.4934 55.8505 26.8341L56.9697 26.6073C56.9086 26.3176 56.8377 26.03 56.7722 25.7413C56.7376 25.5975 56.7083 25.4522 56.6694 25.3093L56.5478 24.8822L55.4482 25.1901C55.3502 24.8473 55.2591 24.5025 55.1369 24.1674L56.2213 23.8092C56.1273 23.5373 56.0397 23.2628 55.9408 22.9927L55.6235 22.1897L54.5674 22.6238C54.6852 22.9285 54.8118 23.2302 54.9236 23.5371L55.5051 23.3263C55.452 23.1671 55.384 23.0134 55.3244 22.8568" stroke="#FFF5DB" stroke-width="0.197438" stroke-miterlimit="10"/>
<path d="M54.5076 17.8184C54.6149 17.9901 54.7307 18.1565 54.8308 18.3326L55.3607 18.0135C55.1596 17.6792 54.9422 17.3547 54.7332 17.0251L53.7822 17.6572L54.2719 18.4204C54.4309 18.6773 54.5758 18.9428 54.7285 19.2037L55.7226 18.6419C55.9286 18.9841 56.1042 19.3429 56.2872 19.6978L55.2684 20.2135L55.4694 20.6056C55.5328 20.738 55.5914 20.8728 55.6526 21.0063C55.7724 21.2745 55.8981 21.5401 56.0129 21.8105L57.0656 21.368C56.9215 21.0317 56.766 20.7001 56.6161 20.3662L56.0564 20.6297L56.2776 21.118" stroke="#FFF5DB" stroke-width="0.197438" stroke-miterlimit="10"/>
<path d="M54.8646 21.7528L54.6294 21.2331L54.0705 21.4982C54.2125 21.8166 54.361 22.1321 54.4991 22.4523L55.5518 22.0097C55.4358 21.7373 55.3091 21.4695 55.1884 21.1992C55.126 21.0649 55.0694 20.9279 55.0021 20.796L54.7994 20.4007L53.7816 20.9186L53.5377 20.4425C53.4583 20.2827 53.3621 20.1321 53.2752 19.9764L54.2682 19.4126C54.1223 19.1647 53.9861 18.9106 53.8324 18.6674L53.366 17.9407L52.415 18.5727L52.9434 19.3992L53.4724 19.0787C53.3851 18.9355 53.2919 18.7958 53.202 18.6541" stroke="#FFF5DB" stroke-width="0.197438" stroke-miterlimit="10"/>
<path d="M51.4259 13.8699L51.8442 14.3101L52.3021 13.8943L51.4951 13.0466L50.6846 13.8509L51.3103 14.507C51.4165 14.6145 51.516 14.7283 51.6141 14.8433L51.9111 15.1859L52.7773 14.4419C52.9067 14.5938 53.0413 14.7412 53.166 14.8969L53.5362 15.3672L52.6372 16.0712C53.0105 16.5255 53.3363 17.0154 53.6802 17.4916L54.6262 16.852L53.9901 15.9576L53.4925 16.3251L53.8033 16.7616" stroke="#FFF5DB" stroke-width="0.197438" stroke-miterlimit="10"/>
<path d="M52.5327 17.6592L52.2021 17.1941L51.7056 17.5629L52.3124 18.4156L53.2583 17.776C52.9124 17.2953 52.5817 16.8033 52.2055 16.3453L51.3079 17.0512L50.9774 16.6302L50.6276 16.2252L51.4922 15.4793L51.2095 15.153L51.0681 14.9899L50.9191 14.8337L50.3232 14.2087L49.5127 15.013L50.1899 15.7232L50.6466 15.3062L50.299 14.9419" stroke="#FFF5DB" stroke-width="0.197438" stroke-miterlimit="10"/>
<path d="M47.6314 10.5921L48.126 10.9443L48.4948 10.4478L47.5409 9.76929L46.9014 10.7153C47.3922 11.0679 47.8941 11.4059 48.3616 11.7897L49.0675 10.8922L49.5378 11.2624L49.9913 11.6531L49.2453 12.5177L49.5784 12.8063L49.7447 12.9507L49.9041 13.1027L50.5419 13.7108L51.3462 12.9003L50.552 12.143L50.135 12.5998L50.5229 12.9694" stroke="#FFF5DB" stroke-width="0.197438" stroke-miterlimit="10"/>
<path d="M49.4475 14.0934L49.0342 13.6999L48.6184 14.1579L49.3764 14.8798L50.1806 14.0691L49.5376 13.456C49.4323 13.3518 49.3209 13.2544 49.2081 13.1583L48.8723 12.8674L48.1282 13.7336C47.9924 13.6181 47.861 13.497 47.7216 13.3856L47.3007 13.0551L48.0047 12.1561C47.5597 11.7902 47.0795 11.4714 46.6132 11.134L45.9736 12.08L46.773 12.6489L47.1405 12.1514L46.7302 11.8595" stroke="#FFF5DB" stroke-width="0.197438" stroke-miterlimit="10"/>
<path d="M43.2774 8.11481L43.8308 8.36556L44.0959 7.80668C43.7397 7.64675 43.386 7.48117 43.0275 7.3269L42.585 8.37964C42.8631 8.49797 43.1365 8.6271 43.4124 8.75043C43.5494 8.81414 43.6892 8.87205 43.8238 8.94063L44.2272 9.14754L44.7451 8.12982L45.2777 8.4032C45.4562 8.49271 45.6255 8.59919 45.7996 8.69659L45.2359 9.6897C45.4891 9.83857 45.7482 9.9777 45.9966 10.1346L46.7383 10.6106L47.3703 9.65956C47.0621 9.46252 46.7556 9.26245 46.4454 9.0687L46.1249 9.5977C46.2774 9.69063 46.4263 9.78948 46.5771 9.88517" stroke="#FFF5DB" stroke-width="0.197438" stroke-miterlimit="10"/>
<path d="M45.7485 11.1974C45.5873 11.0967 45.4313 10.9873 45.2657 10.8936L44.9466 11.4235C45.2454 11.6032 45.5349 11.7984 45.8298 11.9844L46.4619 11.0334L45.7141 10.5536C45.4625 10.3978 45.2021 10.256 44.9466 10.1064L44.3849 11.1005C44.0796 10.9155 43.7583 10.76 43.4416 10.5963L43.9573 9.5775L43.5733 9.38032C43.4435 9.3182 43.3115 9.26081 43.1806 9.20092C42.9178 9.08364 42.6575 8.96031 42.3927 8.8479L41.9502 9.90064C42.2504 10.0296 42.5462 10.1692 42.8446 10.3022L43.1081 9.74256L42.6496 9.53498" stroke="#FFF5DB" stroke-width="0.197438" stroke-miterlimit="10"/>
<path d="M38.5184 6.53717L39.1103 6.67419L39.2604 6.07411C38.8797 5.98698 38.5001 5.89497 38.1184 5.81323L37.8916 6.93244C38.1874 6.9947 38.481 7.06696 38.7757 7.13383C38.9226 7.1691 39.071 7.19924 39.2168 7.23886L39.6529 7.36299L39.9607 6.26339C40.3448 6.37303 40.7308 6.47662 41.1067 6.6122L40.7484 7.69652C41.0261 7.79235 41.3061 7.88185 41.5818 7.98294L42.4016 8.30674L42.8357 7.25058C42.4947 7.11777 42.1564 6.97706 41.8126 6.85189L41.6018 7.4334C41.7713 7.49014 41.9353 7.562 42.1022 7.62571" stroke="#FFF5DB" stroke-width="0.197438" stroke-miterlimit="10"/>
<path d="M41.5371 9.07502C41.3595 9.0075 41.1857 8.92931 41.0041 8.87271L40.7949 9.45476C40.9615 9.50649 41.1211 9.57756 41.2838 9.63982L41.7701 9.83186L42.2042 8.7757L41.378 8.44927C41.0991 8.3499 40.8176 8.25802 40.5376 8.16194L40.1815 9.24692C39.8466 9.12412 39.5001 9.03803 39.158 8.93787L39.4637 7.83761L39.0485 7.71941L38.6281 7.62122C38.3475 7.55765 38.0679 7.48854 37.7864 7.42944L37.5596 8.54865C37.879 8.6171 38.1965 8.69502 38.5152 8.76715L38.6635 8.16668L38.1732 8.05335" stroke="#FFF5DB" stroke-width="0.197438" stroke-miterlimit="10"/>
<path d="M33.5483 5.92479L34.1554 5.94032L34.1851 5.32247L33.0152 5.29272L33.0107 6.43457C33.6149 6.45221 34.2198 6.45287 34.8219 6.51223L34.9082 5.37354L35.5052 5.41935C35.7039 5.43659 35.9015 5.46726 36.0997 5.49069L35.9615 6.62424C36.2525 6.66386 36.5453 6.69295 36.8348 6.74139L37.7024 6.89671L37.9204 5.77579C37.56 5.71221 37.2001 5.6439 36.8389 5.58533L36.7465 6.19699C36.9233 6.22292 37.0985 6.25819 37.2746 6.28847" stroke="#FFF5DB" stroke-width="0.197438" stroke-miterlimit="10"/>
<path d="M37.007 7.82132C36.8194 7.79052 36.6337 7.748 36.4447 7.72655L36.354 8.33834C36.699 8.38809 37.0407 8.45865 37.3844 8.51696L37.6023 7.39604L36.7279 7.2394C36.4355 7.19333 36.1408 7.16227 35.8474 7.12278L35.7114 8.2566C35.5342 8.23686 35.3584 8.20487 35.1802 8.19474L34.6466 8.15433L34.7305 7.01551C34.1573 6.95852 33.5808 6.96181 33.0055 6.94312L33.001 8.08509L33.9821 8.10997L34.0101 7.49212L33.5068 7.47949" stroke="#FFF5DB" stroke-width="0.197438" stroke-miterlimit="10"/>
<path d="M35.5201 14.249C35.0605 15.3019 34.0217 15.9821 32.8738 15.9821C31.7257 15.9821 30.6869 15.3019 30.2274 14.249L30.1406 14.2869C30.6153 15.3743 31.6881 16.0768 32.8738 16.0768C34.0595 16.0768 35.1322 15.3742 35.6069 14.2869L35.5201 14.249Z" fill="#FFF5DB"/>
<path d="M35.0033 13.9896C34.6356 14.8316 33.8049 15.3756 32.8869 15.3756C31.9686 15.3756 31.1378 14.8316 30.7703 13.9896L30.6836 14.0275C31.0662 14.904 31.931 15.4703 32.8869 15.4703C33.8426 15.4703 34.7074 14.904 35.09 14.0275L35.0033 13.9896Z" fill="#FFF5DB"/>
<path d="M31.2938 13.7312L31.207 13.7691C31.4977 14.4347 32.1545 14.8649 32.8804 14.8649C33.6063 14.8649 34.263 14.4347 34.5536 13.7691L34.4669 13.7312C34.1914 14.3623 33.5685 14.7702 32.8804 14.7702C32.1921 14.7702 31.5693 14.3623 31.2938 13.7312Z" fill="#FFF5DB"/>
<path d="M33.9423 13.4728C33.7588 13.8932 33.3441 14.1648 32.8856 14.1648C32.4272 14.1648 32.0124 13.8932 31.8289 13.4728L31.7422 13.5107C31.9407 13.9656 32.3895 14.2594 32.8856 14.2594C33.3816 14.2594 33.8304 13.9655 34.0289 13.5107L33.9423 13.4728Z" fill="#FFF5DB"/>
<path d="M33.4254 13.2084C33.3339 13.418 33.1272 13.5534 32.8987 13.5534C32.6702 13.5534 32.4634 13.418 32.3719 13.2084L32.2852 13.2464C32.3916 13.4904 32.6325 13.6481 32.8987 13.6481C33.1648 13.6481 33.4055 13.4904 33.512 13.2464L33.4254 13.2084Z" fill="#FFF5DB"/>
<path d="M35.5201 10.0664C35.0605 11.1193 34.0217 11.7995 32.8738 11.7995C31.7257 11.7995 30.6869 11.1193 30.2274 10.0664L30.1406 10.1043C30.6153 11.1917 31.6881 11.8942 32.8738 11.8942C34.0595 11.8942 35.1322 11.1916 35.6069 10.1043L35.5201 10.0664Z" fill="#FFF5DB"/>
<path d="M35.0033 9.80791C34.6356 10.6499 33.8049 11.1939 32.8869 11.1939C31.9686 11.1939 31.1378 10.6499 30.7703 9.80791L30.6836 9.84582C31.0662 10.7223 31.931 11.2887 32.8869 11.2887C33.8426 11.2887 34.7074 10.7223 35.09 9.84582L35.0033 9.80791Z" fill="#FFF5DB"/>
<path d="M31.2938 9.54954L31.207 9.58745C31.4977 10.2531 32.1545 10.6832 32.8804 10.6832C33.6063 10.6832 34.263 10.2531 34.5536 9.58745L34.4669 9.54954C34.1914 10.1807 33.5685 10.5886 32.8804 10.5886C32.1921 10.5886 31.5693 10.1808 31.2938 9.54954Z" fill="#FFF5DB"/>
<path d="M33.9423 9.28531C33.7588 9.70572 33.3441 9.97726 32.8856 9.97726C32.4272 9.97726 32.0124 9.70572 31.8289 9.28531L31.7422 9.32322C31.9407 9.77811 32.3895 10.0719 32.8856 10.0719C33.3816 10.0719 33.8304 9.77798 34.0289 9.32322L33.9423 9.28531Z" fill="#FFF5DB"/>
<path d="M33.4254 9.0268C33.3339 9.23635 33.1272 9.37179 32.8987 9.37179C32.6702 9.37179 32.4634 9.23635 32.3719 9.0268L32.2852 9.06471C32.3916 9.30874 32.6325 9.46643 32.8987 9.46643C33.1648 9.46643 33.4055 9.30874 33.512 9.06471L33.4254 9.0268Z" fill="#FFF5DB"/>
<path d="M32.8522 12.1367C32.3925 13.1896 31.3538 13.8698 30.2058 13.8698C29.0578 13.8698 28.0189 13.1896 27.5594 12.1367L27.4727 12.1746C27.9473 13.262 29.0202 13.9645 30.2058 13.9645C31.3914 13.9645 32.4643 13.2619 32.9389 12.1746L32.8522 12.1367Z" fill="#FFF5DB"/>
<path d="M32.3158 11.8782C31.9483 12.7202 31.1174 13.2644 30.1994 13.2644C29.2811 13.2644 28.4503 12.7204 28.0828 11.8782L27.9961 11.9161C28.3787 12.7926 29.2435 13.359 30.1994 13.359C31.1551 13.359 32.0199 12.7926 32.4025 11.9161L32.3158 11.8782Z" fill="#FFF5DB"/>
<path d="M31.7989 11.6169C31.5233 12.2481 30.9005 12.656 30.2123 12.656C29.524 12.656 28.9012 12.2481 28.6257 11.6169L28.5391 11.6548C28.8297 12.3206 29.4865 12.7506 30.2124 12.7506C30.9383 12.7506 31.5951 12.3205 31.8856 11.6548L31.7989 11.6169Z" fill="#FFF5DB"/>
<path d="M31.2509 11.3584C31.0674 11.7788 30.6527 12.0504 30.1942 12.0504C29.7358 12.0504 29.321 11.7787 29.1375 11.3584L29.0508 11.3963C29.2494 11.8512 29.6981 12.1451 30.1942 12.1451C30.6902 12.1451 31.139 11.8512 31.3375 11.3963L31.2509 11.3584Z" fill="#FFF5DB"/>
<path d="M30.734 11.0961C30.6425 11.3057 30.4358 11.4411 30.2073 11.4411C29.9788 11.4411 29.772 11.3057 29.6805 11.0961L29.5938 11.134C29.7002 11.3781 29.9411 11.5358 30.2073 11.5358C30.4734 11.5358 30.7141 11.3781 30.8208 11.134L30.734 11.0961Z" fill="#FFF5DB"/>
<path d="M38.2428 12.1367C37.7832 13.1896 36.7444 13.8698 35.5965 13.8698C34.4484 13.8698 33.4095 13.1896 32.95 12.1367L32.8633 12.1746C33.3379 13.262 34.4108 13.9645 35.5965 13.9645C36.7822 13.9645 37.8549 13.2619 38.3295 12.1746L38.2428 12.1367Z" fill="#FFF5DB"/>
<path d="M37.7181 11.8782C37.3505 12.7202 36.5198 13.2644 35.6017 13.2644C34.6835 13.2644 33.8527 12.7204 33.4852 11.8782L33.3984 11.9161C33.7811 12.7926 34.6458 13.359 35.6017 13.359C36.5574 13.359 37.4222 12.7926 37.8048 11.9161L37.7181 11.8782Z" fill="#FFF5DB"/>
<path d="M37.1935 11.6169C36.9179 12.2481 36.2952 12.656 35.6071 12.656C34.9188 12.656 34.296 12.2481 34.0205 11.6169L33.9336 11.6548C34.2242 12.3206 34.881 12.7506 35.6069 12.7506C36.3329 12.7506 36.9895 12.3205 37.2802 11.6548L37.1935 11.6169Z" fill="#FFF5DB"/>
<path d="M36.6648 11.3584C36.4813 11.7788 36.0666 12.0504 35.6083 12.0504C35.1498 12.0504 34.7351 11.7787 34.5516 11.3584L34.4648 11.3963C34.6635 11.8512 35.1122 12.1451 35.6083 12.1451C36.1042 12.1451 36.5531 11.8512 36.7516 11.3963L36.6648 11.3584Z" fill="#FFF5DB"/>
<path d="M36.1285 11.0961C36.0371 11.3057 35.8303 11.4411 35.6018 11.4411C35.3733 11.4411 35.1665 11.3057 35.075 11.0961L34.9883 11.134C35.0948 11.3781 35.3356 11.5358 35.6018 11.5358C35.8679 11.5358 36.1087 11.3781 36.2153 11.134L36.1285 11.0961Z" fill="#FFF5DB"/>
<path d="M35.5201 50.0781C35.0605 49.0252 34.0217 48.345 32.8738 48.345C31.7257 48.345 30.6869 49.0252 30.2274 50.0781L30.1406 50.0402C30.6153 48.9528 31.6881 48.2504 32.8738 48.2504C34.0595 48.2504 35.1322 48.953 35.6069 50.0402L35.5201 50.0781Z" fill="#FFF5DB"/>
<path d="M35.0033 50.3395C34.6356 49.4975 33.8049 48.9535 32.8869 48.9535C31.9686 48.9535 31.1378 49.4975 30.7703 50.3395L30.6836 50.3016C31.0662 49.4251 31.931 48.8588 32.8869 48.8588C33.8426 48.8588 34.7074 49.4251 35.09 50.3016L35.0033 50.3395Z" fill="#FFF5DB"/>
<path d="M31.2938 50.5979L31.207 50.56C31.4977 49.8944 32.1545 49.4642 32.8804 49.4642C33.6063 49.4642 34.263 49.8944 34.5536 50.56L34.4669 50.5979C34.1914 49.9668 33.5685 49.5589 32.8804 49.5589C32.1921 49.5589 31.5693 49.9668 31.2938 50.5979Z" fill="#FFF5DB"/>
<path d="M33.9423 50.8602C33.7588 50.4398 33.3441 50.1682 32.8856 50.1682C32.4272 50.1682 32.0124 50.4398 31.8289 50.8602L31.7422 50.8223C31.9407 50.3674 32.3895 50.0736 32.8856 50.0736C33.3816 50.0736 33.8304 50.3675 34.0289 50.8223L33.9423 50.8602Z" fill="#FFF5DB"/>
<path d="M33.4254 51.1187C33.3339 50.9092 33.1272 50.7737 32.8987 50.7737C32.6702 50.7737 32.4634 50.9092 32.3719 51.1187L32.2852 51.0808C32.3916 50.8368 32.6325 50.6791 32.8987 50.6791C33.1648 50.6791 33.4055 50.8368 33.512 51.0808L33.4254 51.1187Z" fill="#FFF5DB"/>
<path d="M35.5201 54.2612C35.0605 53.2083 34.0217 52.5281 32.8738 52.5281C31.7257 52.5281 30.6869 53.2083 30.2274 54.2612L30.1406 54.2233C30.6153 53.136 31.6881 52.4335 32.8738 52.4335C34.0595 52.4335 35.1322 53.1361 35.6069 54.2233L35.5201 54.2612Z" fill="#FFF5DB"/>
<path d="M35.0033 54.5197C34.6356 53.6777 33.8049 53.1337 32.8869 53.1337C31.9686 53.1337 31.1378 53.6777 30.7703 54.5197L30.6836 54.4818C31.0662 53.6053 31.931 53.0389 32.8869 53.0389C33.8426 53.0389 34.7074 53.6053 35.09 54.4818L35.0033 54.5197Z" fill="#FFF5DB"/>
<path d="M31.2938 54.782L31.207 54.7441C31.4977 54.0785 32.1545 53.6483 32.8804 53.6483C33.6063 53.6483 34.263 54.0785 34.5536 54.7441L34.4669 54.782C34.1914 54.1509 33.5685 53.743 32.8804 53.743C32.1921 53.743 31.5693 54.1507 31.2938 54.782Z" fill="#FFF5DB"/>
<path d="M33.9423 55.0404C33.7588 54.62 33.3441 54.3484 32.8856 54.3484C32.4272 54.3484 32.0124 54.62 31.8289 55.0404L31.7422 55.0025C31.9407 54.5476 32.3895 54.2538 32.8856 54.2538C33.3816 54.2538 33.8304 54.5477 34.0289 55.0025L33.9423 55.0404Z" fill="#FFF5DB"/>
<path d="M33.4254 55.2989C33.3339 55.0893 33.1272 54.9539 32.8987 54.9539C32.6702 54.9539 32.4634 55.0893 32.3719 55.2989L32.2852 55.261C32.3916 55.0169 32.6325 54.8593 32.8987 54.8593C33.1648 54.8593 33.4055 55.0169 33.512 55.261L33.4254 55.2989Z" fill="#FFF5DB"/>
<path d="M32.8522 52.1909C32.3925 51.138 31.3538 50.4578 30.2058 50.4578C29.0578 50.4578 28.0189 51.138 27.5594 52.1909L27.4727 52.153C27.9473 51.0656 29.0202 50.3632 30.2058 50.3632C31.3914 50.3632 32.4643 51.0658 32.9389 52.153L32.8522 52.1909Z" fill="#FFF5DB"/>
<path d="M32.3158 52.4533C31.9483 51.6113 31.1174 51.0672 30.1994 51.0672C29.2811 51.0672 28.4503 51.6112 28.0828 52.4533L27.9961 52.4154C28.3787 51.5389 29.2435 50.9725 30.1994 50.9725C31.1551 50.9725 32.0199 51.5389 32.4025 52.4154L32.3158 52.4533Z" fill="#FFF5DB"/>
<path d="M31.7989 52.7117C31.5233 52.0805 30.9005 51.6726 30.2123 51.6726C29.524 51.6726 28.9012 52.0805 28.6257 52.7117L28.5391 52.6738C28.8297 52.008 29.4865 51.578 30.2124 51.578C30.9383 51.578 31.5951 52.0082 31.8856 52.6738L31.7989 52.7117Z" fill="#FFF5DB"/>
<path d="M31.2509 52.9731C31.0674 52.5527 30.6527 52.2812 30.1942 52.2812C29.7358 52.2812 29.321 52.5528 29.1375 52.9731L29.0508 52.9352C29.2494 52.4803 29.6981 52.1864 30.1942 52.1864C30.6902 52.1864 31.139 52.4803 31.3375 52.9352L31.2509 52.9731Z" fill="#FFF5DB"/>
<path d="M30.734 53.2344C30.6425 53.0249 30.4358 52.8894 30.2073 52.8894C29.9788 52.8894 29.772 53.0249 29.6805 53.2344L29.5938 53.1965C29.7002 52.9525 29.9411 52.7948 30.2073 52.7948C30.4734 52.7948 30.7141 52.9525 30.8208 53.1965L30.734 53.2344Z" fill="#FFF5DB"/>
<path d="M38.2428 52.1909C37.7832 51.138 36.7444 50.4578 35.5965 50.4578C34.4484 50.4578 33.4095 51.138 32.95 52.1909L32.8633 52.153C33.3379 51.0656 34.4108 50.3632 35.5965 50.3632C36.7822 50.3632 37.8549 51.0658 38.3295 52.153L38.2428 52.1909Z" fill="#FFF5DB"/>
<path d="M37.7181 52.4533C37.3505 51.6113 36.5198 51.0672 35.6017 51.0672C34.6835 51.0672 33.8527 51.6112 33.4852 52.4533L33.3984 52.4154C33.7811 51.5389 34.6458 50.9725 35.6017 50.9725C36.5574 50.9725 37.4222 51.5389 37.8048 52.4154L37.7181 52.4533Z" fill="#FFF5DB"/>
<path d="M37.1935 52.7117C36.9179 52.0805 36.2952 51.6726 35.6071 51.6726C34.9188 51.6726 34.296 52.0805 34.0205 52.7117L33.9336 52.6738C34.2242 52.008 34.881 51.578 35.6069 51.578C36.3329 51.578 36.9895 52.0082 37.2802 52.6738L37.1935 52.7117Z" fill="#FFF5DB"/>
<path d="M36.6648 52.9731C36.4813 52.5527 36.0666 52.2812 35.6083 52.2812C35.1498 52.2812 34.7351 52.5528 34.5516 52.9731L34.4648 52.9352C34.6635 52.4803 35.1122 52.1864 35.6083 52.1864C36.1042 52.1864 36.5531 52.4803 36.7516 52.9352L36.6648 52.9731Z" fill="#FFF5DB"/>
<path d="M36.1285 53.2344C36.0371 53.0249 35.8303 52.8894 35.6018 52.8894C35.3733 52.8894 35.1665 53.0249 35.075 53.2344L34.9883 53.1965C35.0948 52.9525 35.3356 52.7948 35.6018 52.7948C35.8679 52.7948 36.1087 52.9525 36.2153 53.1965L36.1285 53.2344Z" fill="#FFF5DB"/>
<path d="M31.4828 3.55906C32.2311 4.30735 33.4443 4.30735 34.1927 3.55906C34.941 2.81078 34.941 1.59759 34.1927 0.849302C33.4444 0.101014 32.2311 0.101014 31.4828 0.849302C30.7345 1.59759 30.7345 2.81078 31.4828 3.55906ZM32.8377 1.08636L33.9555 2.20412L32.8377 3.32188L31.72 2.20412L32.8377 1.08636Z" fill="#FFF5DB"/>
<path d="M31.4828 63.5801C32.2311 64.3284 33.4443 64.3284 34.1927 63.5801C34.941 62.8318 34.941 61.6186 34.1927 60.8703C33.4444 60.122 32.2311 60.122 31.4828 60.8703C30.7345 61.6186 30.7345 62.8318 31.4828 63.5801ZM32.8377 61.1074L33.9555 62.2251L32.8377 63.3429L31.72 62.2251L32.8377 61.1074Z" fill="#FFF5DB"/>
<path d="M4.98094 30.2025C5.72923 30.9508 5.72923 32.164 4.98094 32.9124C4.23265 33.6607 3.01947 33.6607 2.27118 32.9124C1.52289 32.1641 1.52289 30.9508 2.27118 30.2025C3.01947 29.4542 4.23265 29.4542 4.98094 30.2025ZM2.50823 31.5575L3.62599 32.6752L4.74375 31.5575L3.62599 30.4397L2.50823 31.5575Z" fill="#FFF5DB"/>
<path d="M64.2124 30.2025C64.9607 30.9508 64.9607 32.164 64.2124 32.9124C63.4641 33.6607 62.2509 33.6607 61.5026 32.9124C60.7543 32.1641 60.7543 30.9508 61.5026 30.2025C62.2509 29.4542 63.4641 29.4542 64.2124 30.2025ZM61.7397 31.5575L62.8574 32.6752L63.9752 31.5575L62.8574 30.4397L61.7397 31.5575Z" fill="#FFF5DB"/>
</g>
<g filter="url(#filter1_d_3885_2062)">
<path d="M41.9431 19.7014C42.6331 19.7014 43.2948 19.9882 43.7826 20.4988C44.2705 21.0093 44.5446 21.7018 44.5446 22.4238V41.4807C44.5446 42.2027 44.2705 42.8952 43.7826 43.4057C43.2948 43.9163 42.6331 44.2031 41.9431 44.2031H23.7332C23.0433 44.2031 22.3816 43.9163 21.8938 43.4057C21.4059 42.8952 21.1318 42.2027 21.1318 41.4807V22.4238C21.1318 21.7018 21.4059 21.0093 21.8938 20.4988C22.3816 19.9882 23.0433 19.7014 23.7332 19.7014H41.9431ZM41.2928 40.8001V33.5857C41.2928 32.4088 40.8461 31.2801 40.0508 30.4479C39.2556 29.6157 38.1771 29.1482 37.0525 29.1482C35.9469 29.1482 34.6592 29.856 34.0348 30.9177V29.4068H30.4059V40.8001H34.0348V34.0893C34.0348 33.0412 34.8413 32.1837 35.8428 32.1837C36.3258 32.1837 36.789 32.3844 37.1305 32.7418C37.472 33.0992 37.6638 33.5839 37.6638 34.0893V40.8001H41.2928ZM26.1786 27.2697C26.7581 27.2697 27.3139 27.0288 27.7237 26.5999C28.1335 26.1711 28.3638 25.5894 28.3638 24.9829C28.3638 23.717 27.3882 22.6825 26.1786 22.6825C25.5956 22.6825 25.0365 22.9248 24.6242 23.3562C24.212 23.7877 23.9804 24.3728 23.9804 24.9829C23.9804 26.2488 24.9689 27.2697 26.1786 27.2697ZM27.9866 40.8001V29.4068H24.3836V40.8001H27.9866Z" fill="#F7FECB" fill-opacity="0.86" shape-rendering="crispEdges"/>
</g>
<defs>
<filter id="filter0_d_3885_2062" x="-0.227837" y="-0.991753" width="66.2643" height="66.2643" filterUnits="userSpaceOnUse" color-interpolation-filters="sRGB">
<feFlood flood-opacity="0" result="BackgroundImageFix"/>
<feColorMatrix in="SourceAlpha" type="matrix" values="0 0 0 0 0 0 0 0 0 0 0 0 0 0 0 0 0 0 127 0" result="hardAlpha"/>
<feOffset/>
<feGaussianBlur stdDeviation="2.548"/>
<feComposite in2="hardAlpha" operator="out"/>
<feColorMatrix type="matrix" values="0 0 0 0 0.898039 0 0 0 0 0.764706 0 0 0 0 0.517647 0 0 0 0.54 0"/>
<feBlend mode="normal" in2="BackgroundImageFix" result="effect1_dropShadow_3885_2062"/>
<feBlend mode="normal" in="SourceGraphic" in2="effect1_dropShadow_3885_2062" result="shape"/>
</filter>
<filter id="filter1_d_3885_2062" x="18.9539" y="19.7014" width="27.7689" height="29.9465" filterUnits="userSpaceOnUse" color-interpolation-filters="sRGB">
<feFlood flood-opacity="0" result="BackgroundImageFix"/>
<feColorMatrix in="SourceAlpha" type="matrix" values="0 0 0 0 0 0 0 0 0 0 0 0 0 0 0 0 0 0 127 0" result="hardAlpha"/>
<feOffset dy="3.26689"/>
<feGaussianBlur stdDeviation="1.08896"/>
<feComposite in2="hardAlpha" operator="out"/>
<feColorMatrix type="matrix" values="0 0 0 0 0 0 0 0 0 0 0 0 0 0 0 0 0 0 0.25 0"/>
<feBlend mode="normal" in2="BackgroundImageFix" result="effect1_dropShadow_3885_2062"/>
<feBlend mode="normal" in="SourceGraphic" in2="effect1_dropShadow_3885_2062" result="shape"/>
</filter>
<clipPath id="clip0_3885_2062">
<rect width="65.8125" height="65.8125" fill="white" transform="translate(-0.00585938 0.419434)"/>
</clipPath>
</defs>
</svg>
