<svg xmlns="http://www.w3.org/2000/svg" width="67" height="66" fill="none" viewBox="0 0 67 66"><g clip-path="url(#a)"><g filter="url(#b)"><path fill="#e2dccb" d="M33.536 59.758C18.076 59.758 5.5 47.18 5.5 31.722S18.077 3.686 33.536 3.686s28.036 12.576 28.036 28.036c0 15.459-12.577 28.036-28.036 28.036m0-54.493C18.948 5.265 7.08 17.133 7.08 31.722c0 14.588 11.869 26.456 26.457 26.456S59.993 46.31 59.993 31.722c0-14.589-11.869-26.457-26.457-26.457"/></g><path fill="#e2dccb" d="m14.349 57.793.319-.319a.63.63 0 0 0 0-.893l-.21-.21a.633.633 0 0 0-.893 0l-.318.318-.814-.813.378-.378a.545.545 0 0 0 0-.774l-.142-.142a.5.5 0 0 0-.186-.121.21.21 0 0 0 .021-.279h.074a.21.21 0 0 0 .211-.211.21.21 0 0 0-.211-.211h-.226v-.472a.21.21 0 0 0 .196-.21.21.21 0 0 0-.196-.21V50.28h-.14v2.59a.21.21 0 0 0 0 .418v.473h-.226a.21.21 0 0 0-.212.211c0 .116.096.211.212.211h.079a.21.21 0 0 0 .02.277.6.6 0 0 0-.19.123l-.143.142a.55.55 0 0 0 0 .774l.378.378-.813.813-.318-.318a.633.633 0 0 0-.894 0l-.21.21a.633.633 0 0 0 0 .893l.32.32-.3.299a.66.66 0 0 0 0 .932l.19.19a.63.63 0 0 0 .918-.024l.294-.294.788.788-.373.373a.56.56 0 0 0 0 .773l.143.143c.213.213.56.213.774 0l.142-.143a.545.545 0 0 0 0-.773l-.352-.353.807-.808.318.318a.63.63 0 0 0 .894 0l.21-.21a.63.63 0 0 0 0-.893zm-2.23 0-.801.802-.801-.8.802-.803zm.163.162.802.802-.802.802-.802-.802zm.964.64-.802-.802.802-.802.802.802zm-.964-.964-.801-.8.802-.803.8.801zm1.433-1.11a.42.42 0 0 1 .593 0l.21.21a.42.42 0 0 1 0 .593l-.32.319-.802-.802zm-1.812-1.646.143-.143a.33.33 0 0 1 .472 0l.143.143c.13.13.13.342 0 .472l-.38.38-.378-.38a.334.334 0 0 1 0-.472m-1.857 2.449a.42.42 0 0 1 0-.593l.21-.21a.42.42 0 0 1 .592 0l.32.32-.803.802zm.802 1.74a.416.416 0 0 1-.592 0l-.21-.209a.42.42 0 0 1 0-.592l.32-.32.802.803zm1.793 1.617-.143.142a.335.335 0 0 1-.472 0l-.143-.142a.33.33 0 0 1 0-.473l.38-.379.378.38c.13.13.13.341 0 .472m1.876-1.826-.21.21a.417.417 0 0 1-.592 0l-.318-.318.802-.802.318.318a.42.42 0 0 1 0 .592m-2.158 3.178v-.184h.225a.21.21 0 0 0 .212-.212.21.21 0 0 0-.212-.211h-.591a.21.21 0 0 0-.212.211c0 .116.095.212.211.212h.226v.184h-.224l-.306 1.927s.31.197.704.17c.395-.03.536-.226.536-.226l-.359-1.87zm43.716-4.24.32-.319a.63.63 0 0 0 0-.893l-.21-.21a.633.633 0 0 0-.894 0l-.318.318-.813-.813.378-.378a.545.545 0 0 0 0-.774l-.143-.142a.5.5 0 0 0-.186-.121.21.21 0 0 0 .021-.279h.074a.21.21 0 0 0 .211-.211.21.21 0 0 0-.211-.211h-.225v-.472a.21.21 0 0 0 .195-.21.21.21 0 0 0-.195-.21V50.28h-.141v2.59a.21.21 0 0 0-.19.21c0 .108.084.197.19.208v.473h-.226a.21.21 0 0 0-.211.211c0 .116.095.211.211.211h.08a.21.21 0 0 0 .019.277.5.5 0 0 0-.19.123l-.142.142a.547.547 0 0 0 0 .774l.378.378-.814.813-.318-.318a.633.633 0 0 0-.893 0l-.21.21a.633.633 0 0 0 0 .893l.32.32-.3.299a.66.66 0 0 0 0 .932l.19.19a.63.63 0 0 0 .917-.024l.294-.294.788.788-.372.373a.56.56 0 0 0 0 .773l.142.143c.214.213.56.213.774 0l.143-.143a.546.546 0 0 0 0-.773l-.353-.353.808-.808.318.318a.63.63 0 0 0 .894 0l.21-.21a.63.63 0 0 0 0-.893zm-2.229 0-.802.802-.8-.8.801-.803zm.162.162.802.802-.802.802-.802-.802zm.964.64-.802-.802.802-.802.802.802zm-.964-.964-.8-.8.801-.803.801.801zm1.433-1.11a.42.42 0 0 1 .593 0l.21.21a.42.42 0 0 1 0 .593l-.32.319-.801-.802zm-1.812-1.646.143-.143a.33.33 0 0 1 .473 0l.142.143c.13.13.13.342 0 .472l-.379.38-.379-.38a.334.334 0 0 1 0-.472m-1.856 2.449a.42.42 0 0 1 0-.593l.21-.21a.42.42 0 0 1 .592 0l.319.32-.802.802zm.802 1.74a.417.417 0 0 1-.593 0l-.209-.209a.42.42 0 0 1 0-.592l.32-.32.801.803zm1.792 1.617-.142.142a.335.335 0 0 1-.473 0l-.142-.142a.33.33 0 0 1 0-.473l.378-.379.38.38c.13.13.13.341 0 .472m1.877-1.826-.21.21a.417.417 0 0 1-.593 0l-.317-.318.802-.802.318.318a.42.42 0 0 1 0 .592m-2.175 3.178v-.184h.225a.21.21 0 0 0 .212-.212.21.21 0 0 0-.212-.211h-.592a.21.21 0 0 0-.211.211c0 .116.095.212.211.212h.226v.184h-.224l-.307 1.927s.31.197.705.17c.394-.03.535-.226.535-.226l-.358-1.87z"/><path stroke="#e2dccb" stroke-miterlimit="10" stroke-width=".197" d="M29.161 5.87c.2-.032.398-.077.6-.1l-.091-.612c-.387.056-.77.134-1.154.2l.218 1.121.892-.16c.299-.047.6-.079.9-.119l-.137-1.134c.198-.022.396-.056.595-.068l.597-.046.084 1.139c.585-.058 1.173-.055 1.76-.074l-.004-1.142-1.097.028.028.618.536-.014m.036 1.555-.57.014.029.618 1.046-.027-.004-1.142c-.592.018-1.185.018-1.775.077l.087 1.138-.534.04c-.178.016-.354.044-.531.065l-.138-1.134c-.285.04-.572.068-.856.115l-.85.152.218 1.121c.322-.056.643-.118.966-.17l-.093-.612c-.166.024-.33.058-.495.086m-5.089-.196c.19-.072.375-.155.568-.215l-.209-.583c-.186.06-.366.138-.548.208l-.544.215.434 1.056.843-.333c.285-.102.572-.196.858-.294l-.356-1.085c.376-.136.763-.234 1.147-.346l.306 1.1.423-.12.43-.1c.286-.066.571-.136.859-.196l-.227-1.12c-.358.077-.714.163-1.07.245l.148.6.522-.12m.331 1.515-.556.128.15.6c.34-.077.678-.16 1.02-.233l-.228-1.12c-.29.062-.577.133-.866.198-.144.035-.289.064-.432.103l-.427.122.308 1.1c-.343.097-.687.188-1.023.31l-.358-1.084c-.272.094-.546.182-.816.28l-.803.318.434 1.056c.305-.118.606-.244.913-.356l-.21-.582c-.16.053-.314.121-.47.181m-5.03.811c.171-.107.338-.223.514-.323l-.32-.53c-.334.201-.658.419-.988.628l.633.95.763-.489c.257-.159.522-.304.783-.457l-.562-.994c.343-.206.701-.381 1.056-.564l.516 1.019.392-.201c.132-.064.267-.122.4-.184.269-.12.535-.245.805-.36l-.443-1.053c-.336.144-.668.3-1.001.45l.263.56.488-.222m.642 1.421-.52.235.265.559c.318-.142.634-.29.954-.429l-.443-1.052c-.272.116-.54.242-.81.363-.134.062-.271.119-.403.186l-.396.203.518 1.018-.476.244c-.16.08-.31.175-.466.262l-.564-.993c-.248.146-.502.282-.745.436l-.727.466.632.951.827-.528-.32-.53q-.215.134-.425.271m-4.797 1.773.44-.418-.415-.458-.848.807.804.81.656-.625q.163-.159.337-.304l.342-.297-.744-.867c.152-.129.3-.263.455-.388l.47-.37.705.899c.454-.374.944-.7 1.42-1.043l-.64-.946-.894.636.368.497.436-.31m.9 1.267-.466.331.37.497.852-.607-.64-.946c-.48.346-.972.676-1.43 1.053l.705.897-.42.33-.405.35-.746-.864-.327.283-.163.141-.156.15-.625.595.804.81.71-.676-.416-.457-.365.348m-4.355 2.667.352-.495-.497-.369-.678.954.946.64c.352-.49.69-.993 1.074-1.46l-.897-.706.37-.47.39-.454.865.746.289-.333.144-.167.152-.16.608-.637-.81-.804-.758.794.457.417.37-.388m1.134 1.072-.393.414.458.415.722-.758-.81-.804-.614.643a6 6 0 0 0-.298.33l-.29.335.866.744c-.116.136-.237.268-.348.407l-.331.421-.9-.704c-.365.445-.684.925-1.021 1.391l.946.64.569-.8-.498-.367-.292.41M10.155 20.7l.25-.553-.558-.265c-.16.356-.326.71-.48 1.068l1.053.443c.118-.278.247-.552.37-.828.064-.137.122-.276.19-.411l.208-.404-1.018-.517.274-.533c.089-.178.195-.348.293-.522l.993.564c.149-.253.288-.512.445-.76l.476-.742-.951-.633c-.197.309-.397.615-.591.925l.529.32c.093-.152.192-.3.287-.451m1.307.836c-.1.161-.21.317-.303.483l.53.319c.18-.3.374-.588.56-.884l-.95-.632-.48.748c-.156.252-.298.512-.448.768l.994.561c-.185.306-.34.627-.504.944l-1.019-.516-.197.384q-.091.196-.18.393c-.116.262-.24.523-.352.788l1.053.442c.129-.3.268-.596.401-.894l-.56-.264-.207.459m-3.002 4.126.137-.592-.6-.15c-.088.38-.18.76-.261 1.142l1.119.227c.062-.296.134-.59.201-.884.036-.147.066-.296.105-.441l.124-.436-1.1-.308c.11-.384.214-.77.35-1.146l1.084.358c.096-.278.185-.558.287-.834l.323-.82-1.056-.433c-.133.34-.273.679-.399 1.023l.582.21c.057-.169.129-.333.192-.5m1.458.561c-.067.177-.145.351-.202.533l.582.209c.052-.167.123-.326.185-.49l.192-.485-1.056-.434-.326.826c-.1.279-.192.56-.288.84l1.085.356c-.123.335-.209.682-.309 1.024l-1.1-.306-.118.415-.098.42c-.064.281-.133.56-.192.842l1.119.227c.068-.32.146-.637.219-.956l-.601-.148-.113.49m-2.125 4.636.016-.607-.618-.03-.03 1.17 1.142.005c.017-.604.018-1.21.077-1.811l-1.138-.087.046-.596c.017-.2.047-.397.07-.595l1.134.138c.04-.29.07-.583.118-.873l.155-.868-1.121-.218c-.064.36-.132.72-.19 1.082l.611.092c.026-.176.061-.352.092-.528m1.515.264c-.031.188-.073.373-.095.563l.612.09c.05-.345.12-.687.179-1.03l-1.121-.218-.157.874c-.046.293-.077.587-.117.88l1.134.137c-.02.177-.052.353-.062.531l-.04.534-1.139-.084c-.057.573-.054 1.15-.072 1.725l1.142.004.025-.98-.618-.029-.013.503m-1.173 4.962c-.033-.2-.078-.398-.1-.6l-.613.091c.056.387.134.77.2 1.155l1.12-.218-.159-.893c-.047-.299-.079-.6-.119-.899l-1.134.136c-.022-.198-.056-.395-.069-.595l-.045-.597 1.138-.084c-.057-.585-.055-1.173-.073-1.76l-1.142.004.028 1.097.618-.028-.014-.535m1.537-.04.014.57.618-.03-.026-1.046-1.142.005c.017.591.018 1.184.076 1.774l1.139-.086.04.534c.015.177.043.353.064.53l-1.133.139c.039.285.067.572.115.855l.152.85 1.12-.218c-.056-.322-.117-.643-.17-.965l-.612.092c.025.166.058.33.087.496m-.183 5.099c-.072-.19-.155-.374-.215-.568l-.582.21c.058.186.137.365.207.547l.215.545 1.056-.434-.333-.844c-.102-.284-.196-.572-.294-.858l-1.085.356c-.136-.376-.234-.763-.346-1.147l1.1-.305-.12-.424-.1-.43c-.066-.286-.136-.571-.196-.858l-1.12.226c.077.358.163.714.245 1.071l.6-.148-.12-.523m1.509-.339.128.556.6-.15c-.077-.34-.16-.679-.233-1.02l-1.12.227c.062.29.133.578.198.866.035.144.064.29.103.432l.122.427 1.1-.308c.098.343.188.688.31 1.023l-1.084.358c.094.272.182.547.28.817l.318.803 1.056-.434c-.118-.305-.244-.607-.356-.914l-.582.211c.054.16.122.313.181.47m.819 5.034c-.107-.172-.223-.338-.323-.514l-.53.319c.201.334.419.659.628.988l.95-.632-.489-.763c-.159-.257-.304-.522-.457-.783l-.994.562c-.206-.343-.381-.702-.564-1.056l1.018-.516-.2-.392q-.094-.2-.184-.4c-.12-.27-.245-.535-.36-.805l-1.053.442c.144.337.3.668.45 1.002l.56-.263-.222-.489m1.415-.631.235.52.56-.266c-.143-.318-.291-.634-.43-.954l-1.052.443c.116.272.242.54.363.81.063.135.12.272.186.404l.203.395 1.018-.518.244.476c.08.16.175.31.262.466l-.993.564c.146.248.282.502.436.745l.466.727.951-.632-.528-.827-.529.32c.087.144.18.284.27.425m1.765 4.783-.418-.44-.458.415.807.848.81-.804-.625-.656a6 6 0 0 1-.304-.337l-.297-.342-.866.744c-.13-.152-.264-.3-.389-.455l-.37-.47.899-.704c-.373-.455-.7-.945-1.043-1.42l-.946.639.636.894.497-.367-.31-.437m1.278-.895.33.465.497-.369-.607-.853-.946.64c.346.48.677.973 1.053 1.43l.897-.705.33.42.35.406-.864.746.283.326.141.163.15.156.595.625.81-.804-.676-.71-.457.417.348.364m2.661 4.346-.494-.352-.37.496.955.679.64-.946c-.492-.353-.994-.69-1.461-1.074l-.706.897-.47-.37-.454-.39.746-.865-.333-.289-.166-.144-.16-.152-.638-.609-.804.811.794.757.417-.456-.388-.37m1.074-1.125.414.393.415-.458-.758-.721-.804.81.643.613q.159.156.33.298l.335.29.745-.865c.135.115.267.236.406.348l.421.33-.704.9c.445.365.925.684 1.392 1.021l.64-.946-.8-.569-.368.498.41.292m3.463 3.751-.553-.25-.265.558c.356.16.71.326 1.068.48l.443-1.053c-.278-.118-.552-.248-.828-.37-.137-.065-.276-.122-.411-.191l-.403-.207-.518 1.018-.533-.274c-.178-.09-.348-.196-.522-.293l.564-.993c-.253-.149-.512-.288-.76-.445l-.742-.476-.633.951c.309.197.615.397.925.59l.32-.528c-.152-.093-.3-.192-.451-.288m.842-1.313c.161.1.317.21.483.304l.319-.53c-.3-.18-.589-.375-.884-.561l-.632.951.748.48c.252.156.512.297.768.447l.561-.994c.305.185.627.34.944.504l-.516 1.019.384.197.392.18c.263.117.524.24.788.353l.443-1.053c-.3-.13-.596-.269-.894-.402l-.264.56.459.207m4.122 2.998-.592-.137-.15.6c.38.087.76.18 1.142.261l.227-1.119c-.296-.062-.59-.135-.884-.201-.147-.036-.296-.066-.441-.105l-.437-.124-.307 1.1c-.385-.11-.77-.214-1.146-.35l.358-1.084c-.278-.096-.558-.185-.834-.286l-.82-.324-.433 1.056c.34.133.679.273 1.023.399l.21-.582c-.169-.057-.333-.128-.5-.192m.551-1.45c.178.068.351.146.533.203l.21-.583c-.168-.051-.327-.122-.49-.185l-.486-.192-.434 1.056.826.327c.279.1.56.191.84.287l.356-1.085c.335.123.682.21 1.024.31l-.306 1.1.416.118.42.098c.28.063.56.133.842.192l.226-1.12c-.32-.068-.636-.146-.955-.218l-.149.6.49.114m4.639 2.129-.607-.016-.03.618 1.17.03.004-1.142c-.604-.017-1.209-.018-1.81-.078l-.087 1.14-.597-.047c-.199-.017-.396-.048-.595-.071l.139-1.134c-.292-.04-.584-.068-.874-.117l-.867-.155-.218 1.12c.36.064.72.133 1.081.191l.092-.611c-.176-.026-.352-.062-.528-.092m.263-1.535c.187.03.373.073.562.094l.09-.612c-.344-.05-.686-.12-1.03-.178l-.218 1.12.875.157c.292.046.587.078.88.117l.136-1.134c.177.02.353.052.531.062l.534.04-.084 1.14c.573.056 1.15.053 1.725.072l.005-1.142-.982-.025-.028.618.504.012m4.973 1.194c-.2.033-.398.078-.6.1l.092.613c.386-.056.769-.134 1.154-.2l-.218-1.121-.893.16c-.299.047-.6.079-.899.119l.136 1.134c-.198.022-.395.056-.595.068l-.597.046-.084-1.139c-.585.058-1.173.055-1.76.074l.004 1.142 1.097-.028-.028-.618-.536.014m-.04-1.558.571-.014-.03-.618-1.046.027.005 1.141c.591-.017 1.184-.017 1.774-.076l-.086-1.138.534-.04c.177-.016.354-.044.53-.065l.139 1.134c.285-.04.572-.068.855-.115l.85-.152-.218-1.121c-.322.056-.643.118-.965.17l.092.612c.166-.024.33-.058.496-.086m5.103.198c-.19.072-.375.154-.568.215l.21.582c.185-.059.365-.137.547-.207l.544-.215-.434-1.056-.843.333c-.285.101-.572.195-.858.293l.356 1.085c-.376.136-.763.235-1.147.346l-.305-1.1-.424.12-.43.101c-.286.065-.571.136-.859.196l.227 1.12c.358-.077.714-.164 1.07-.245l-.148-.6-.522.12m-.349-1.516.556-.129-.15-.6c-.34.077-.679.16-1.02.233l.227 1.12c.29-.062.578-.132.866-.198.144-.034.29-.064.432-.103l.427-.121-.308-1.1c.343-.098.688-.189 1.023-.311l.358 1.084c.272-.094.547-.181.817-.28l.803-.318-.434-1.056c-.305.118-.607.245-.913.357l.21.581c.16-.053.313-.121.47-.18m5.038-.81c-.172.108-.338.224-.514.324l.319.53c.334-.202.659-.419.988-.628l-.632-.951-.763.49c-.257.159-.522.304-.783.456l.562.994c-.343.206-.702.382-1.056.565l-.516-1.019-.392.201q-.2.093-.4.183c-.27.12-.535.246-.805.36l.443 1.053c.336-.144.667-.3 1.001-.45l-.263-.559-.489.221m-.625-1.42.52-.236-.266-.559c-.318.143-.634.29-.954.429l.443 1.053c.272-.116.54-.243.81-.364.134-.062.271-.119.403-.186l.396-.203-.518-1.018.476-.243c.16-.08.31-.176.466-.263l.564.993c.248-.146.502-.282.745-.436l.727-.466-.632-.951-.827.528.32.53q.214-.134.425-.271m4.777-1.776-.44.418.416.458.847-.807-.804-.81-.656.625a6 6 0 0 1-.337.304l-.342.297.744.866c-.152.13-.3.264-.455.389l-.47.37-.704-.899c-.455.373-.945.7-1.42 1.043l.639.946.894-.636-.367-.497-.437.31m-.903-1.268.465-.331-.369-.496-.852.606.64.946c.48-.346.972-.676 1.43-1.053l-.706-.897.42-.33.406-.35.746.864.326-.283.163-.141.156-.149.625-.596-.804-.81-.71.677.417.457.364-.348m4.356-2.666-.352.495.496.369.679-.954-.946-.64c-.353.491-.69.993-1.074 1.46l.897.706-.37.47-.39.454-.866-.746-.288.333-.144.167-.152.16-.608.637.81.804.757-.794-.457-.417-.37.388m-1.126-1.07.393-.413-.458-.416-.721.758.81.804.613-.643q.156-.158.298-.33l.29-.335-.865-.744c.115-.136.236-.267.348-.407l.33-.42.9.703c.365-.444.684-.925 1.021-1.391l-.946-.64-.569.8.498.367.292-.41m3.741-3.463-.25.554.558.265c.16-.356.325-.71.48-1.069l-1.053-.442c-.118.278-.247.551-.37.827-.065.137-.122.277-.191.412l-.207.403 1.018.518-.273.533c-.09.178-.197.347-.294.522l-.993-.564c-.149.253-.288.512-.445.76l-.476.742.951.632c.197-.308.397-.614.591-.925l-.529-.32c-.093.152-.192.301-.287.452m-1.306-.833c.1-.16.21-.317.304-.482l-.53-.32c-.18.3-.375.589-.56.884l.95.632.48-.748c.156-.252.297-.512.447-.767l-.994-.562c.185-.305.34-.627.504-.943l1.02.515.196-.384q.091-.195.18-.392c.117-.263.24-.523.353-.788l-1.053-.443c-.13.3-.269.596-.402.895l.56.263.208-.458m2.999-4.128-.137.592.6.15c.088-.38.18-.76.261-1.142l-1.119-.227c-.062.296-.134.59-.201.885-.036.147-.066.295-.105.44l-.124.437 1.1.308c-.11.384-.214.77-.35 1.146l-1.084-.359c-.096.278-.185.558-.287.834l-.323.82 1.056.434c.133-.341.273-.68.399-1.023l-.582-.211c-.057.17-.128.333-.192.5m-1.448-.559c.068-.178.146-.352.203-.533l-.583-.21c-.051.167-.122.327-.185.49l-.192.486 1.056.434.327-.826c.1-.28.191-.56.287-.84l-1.085-.357c.123-.335.21-.681.31-1.023l1.1.306.118-.416.098-.42c.063-.28.133-.56.192-.842l-1.12-.227c-.068.32-.146.637-.218.956l.6.148.114-.49m2.123-4.636-.016.606.618.03.03-1.17-1.142-.004c-.017.604-.018 1.209-.077 1.811l1.138.086-.046.597c-.017.199-.048.397-.071.595l-1.133-.138c-.04.29-.07.583-.118.873l-.155.868 1.12.218c.065-.36.133-.72.191-1.082l-.611-.092c-.026.177-.062.352-.092.528m-1.522-.266c.031-.187.074-.373.095-.562l-.612-.091c-.05.345-.12.687-.178 1.03l1.12.218.157-.874c.046-.293.077-.587.117-.88l-1.134-.137c.02-.177.052-.353.062-.53l.04-.534 1.14.084c.056-.574.053-1.15.072-1.726l-1.142-.004-.025.981.618.028.012-.503m1.18-4.96c.033.2.078.398.1.6l.613-.091c-.056-.387-.134-.77-.2-1.155l-1.121.218.16.893c.047.299.079.6.119.899l1.134-.136c.022.198.056.395.068.595l.046.597-1.139.083c.058.586.055 1.174.074 1.761l1.142-.005-.028-1.096-.618.028.014.535m-1.544.039-.014-.571-.618.03.026 1.046 1.142-.004c-.017-.592-.018-1.185-.076-1.775l-1.139.086-.04-.533c-.015-.178-.043-.354-.064-.531l1.133-.139c-.039-.285-.067-.571-.114-.855l-.153-.85-1.12.218c.056.322.117.643.17.965l.612-.092c-.025-.166-.058-.33-.087-.496m.189-5.098c.072.19.154.375.215.568l.582-.209c-.059-.186-.137-.365-.207-.548l-.215-.544-1.056.434.333.843c.101.285.195.572.293.858l1.085-.356c.136.376.235.763.347 1.147l-1.1.305.12.424.1.43c.065.286.136.571.196.859l1.12-.227c-.077-.358-.164-.714-.245-1.07l-.6.148.12.522m-1.514.34-.129-.555-.6.15c.077.34.16.678.233 1.019l1.12-.227c-.062-.29-.132-.577-.198-.866-.035-.144-.064-.29-.103-.432l-.121-.427-1.1.308c-.098-.343-.189-.688-.311-1.023l1.084-.358c-.094-.272-.181-.546-.28-.816l-.318-.803-1.056.434c.118.304.245.606.356.913l.582-.21c-.053-.16-.121-.314-.18-.47m-.821-5.039c.107.172.223.339.323.515l.53-.32c-.201-.333-.419-.658-.628-.988l-.95.633.489.763c.159.257.304.522.456.783l.995-.562c.206.342.381.701.564 1.056l-1.019.516.201.392c.064.132.122.267.184.4.12.269.245.534.36.805l1.053-.443c-.145-.336-.3-.668-.45-1.001l-.56.263.222.488m-1.413.636-.236-.52-.559.265c.142.318.291.634.43.954l1.052-.442c-.116-.273-.243-.54-.364-.811-.062-.134-.119-.271-.186-.403l-.203-.396-1.017.518-.244-.476c-.08-.16-.176-.31-.263-.466l.993-.564c-.146-.248-.282-.502-.436-.745l-.466-.727-.95.633.527.826.53-.32q-.134-.214-.271-.425m-1.772-4.785.418.44.458-.415-.807-.848-.81.804.625.656q.158.163.304.337l.297.342.866-.744c.13.152.264.3.389.455l.37.47-.899.704c.373.455.7.945 1.043 1.42l.946-.639-.636-.894-.498.367.311.437m-1.271.897-.33-.465-.496.37.606.852.946-.64c-.346-.48-.676-.972-1.053-1.43l-.897.706-.33-.422-.35-.405.864-.745-.283-.327-.141-.163-.149-.156-.596-.625-.81.804.677.71.457-.416-.348-.365m-2.666-4.35.495.353.369-.497-.954-.678-.64.946c.491.352.993.69 1.46 1.074l.706-.897.47.37.454.39-.746.865.333.289.167.144.159.152.638.608.804-.81-.794-.758-.417.457.388.37m-1.078 1.124-.413-.393-.416.458.758.722.805-.811-.643-.613a6 6 0 0 0-.33-.298l-.336-.29-.744.865c-.136-.115-.267-.236-.407-.348l-.42-.33.704-.9c-.445-.365-.925-.684-1.392-1.021l-.64.946.8.569.367-.498-.41-.292m-3.455-3.746.554.25.265-.558c-.356-.16-.71-.326-1.069-.48l-.442 1.053c.278.118.551.247.827.37.137.064.277.122.412.19l.403.208.518-1.018.533.273c.178.09.347.196.522.294l-.564.993c.253.149.512.288.76.445l.742.476.632-.951c-.308-.197-.614-.397-.925-.591l-.32.529c.152.093.301.192.452.287m-.827 1.314c-.16-.101-.317-.21-.482-.305l-.32.53c.3.18.589.375.884.561l.632-.95-.748-.48c-.252-.156-.512-.298-.767-.448l-.562.994c-.305-.185-.627-.34-.943-.504l.515-1.019-.384-.197-.392-.18c-.263-.117-.523-.24-.788-.352l-.443 1.052c.3.13.596.269.894.402l.264-.56-.458-.207M39.15 6.118l.592.137.15-.6c-.38-.087-.76-.179-1.142-.26l-.227 1.119c.296.062.59.134.885.201.146.035.295.066.44.105l.437.124.308-1.1c.384.11.77.214 1.145.35l-.358 1.084c.278.096.558.185.834.286l.82.324.434-1.056c-.342-.133-.68-.274-1.024-.399l-.21.582c.17.056.333.128.5.192m-.569 1.448c-.178-.067-.351-.145-.533-.202l-.21.582c.168.052.327.123.49.185l.486.192.434-1.056-.826-.326c-.279-.1-.56-.192-.84-.288l-.356 1.085c-.336-.123-.682-.209-1.024-.309l.306-1.1-.416-.118-.42-.098c-.28-.064-.56-.133-.842-.192l-.227 1.119c.32.068.637.146.956.218l.148-.6-.49-.113M34.17 5.507l.607.016.03-.618-1.17-.03-.004 1.142c.604.017 1.209.018 1.811.078l.086-1.14.597.047c.199.017.397.048.595.071l-.138 1.134c.29.04.583.068.873.117l.867.155.218-1.12c-.36-.065-.72-.133-1.081-.191l-.092.611c.176.026.352.061.528.092m-.266 1.533c-.188-.031-.373-.074-.562-.095l-.091.612c.345.05.687.12 1.03.178l.218-1.12-.874-.157c-.292-.046-.587-.077-.88-.117l-.137 1.134c-.177-.02-.353-.052-.53-.062l-.534-.04.084-1.14c-.574-.056-1.15-.053-1.725-.072l-.005 1.142.981.025.028-.618-.503-.012"/><path fill="#e2dccb" d="M36.153 13.83a2.888 2.888 0 0 1-5.293 0l-.087.038a2.982 2.982 0 0 0 5.467 0z"/><path fill="#e2dccb" d="M35.64 13.57a2.31 2.31 0 0 1-4.233 0l-.087.038a2.404 2.404 0 0 0 4.407 0z"/><path fill="#e2dccb" d="m31.93 13.312-.086.038a1.826 1.826 0 0 0 3.346 0l-.086-.038a1.731 1.731 0 0 1-3.174 0"/><path fill="#e2dccb" d="M34.575 13.053a1.153 1.153 0 0 1-2.113 0l-.087.038a1.247 1.247 0 0 0 2.287 0z"/><path fill="#e2dccb" d="M34.062 12.789a.575.575 0 0 1-1.053 0l-.087.038a.67.67 0 0 0 1.227 0zm2.091-3.142a2.888 2.888 0 0 1-5.293 0l-.087.038a2.982 2.982 0 0 0 5.467 0z"/><path fill="#e2dccb" d="M35.64 9.388a2.31 2.31 0 0 1-4.233 0l-.087.038a2.404 2.404 0 0 0 4.407 0z"/><path fill="#e2dccb" d="m31.93 9.13-.086.038a1.826 1.826 0 0 0 3.346 0l-.086-.038a1.731 1.731 0 0 1-3.174 0"/><path fill="#e2dccb" d="M34.575 8.866a1.153 1.153 0 0 1-2.113 0l-.087.038a1.247 1.247 0 0 0 2.287 0z"/><path fill="#e2dccb" d="M34.062 8.607a.575.575 0 0 1-1.053 0l-.087.038a.67.67 0 0 0 1.227 0zm-.581 3.11a2.888 2.888 0 0 1-5.293 0l-.086.038a2.982 2.982 0 0 0 5.466 0z"/><path fill="#e2dccb" d="M32.945 11.459a2.31 2.31 0 0 1-4.233 0l-.087.038a2.404 2.404 0 0 0 4.406 0z"/><path fill="#e2dccb" d="M32.432 11.196a1.731 1.731 0 0 1-3.174 0l-.086.038a1.826 1.826 0 0 0 3.346 0z"/><path fill="#e2dccb" d="M31.88 10.938a1.153 1.153 0 0 1-2.114 0l-.086.038a1.248 1.248 0 0 0 2.286 0z"/><path fill="#e2dccb" d="M31.367 10.676a.575.575 0 0 1-1.054 0l-.086.037a.67.67 0 0 0 1.227 0zm7.505 1.041a2.888 2.888 0 0 1-5.293 0l-.087.038a2.982 2.982 0 0 0 5.466 0z"/><path fill="#e2dccb" d="M38.35 11.459a2.31 2.31 0 0 1-4.232 0l-.087.038a2.404 2.404 0 0 0 4.407 0z"/><path fill="#e2dccb" d="M37.823 11.196a1.732 1.732 0 0 1-3.174 0l-.087.038a1.826 1.826 0 0 0 3.347 0z"/><path fill="#e2dccb" d="M37.294 10.938a1.153 1.153 0 0 1-2.113 0l-.087.038a1.248 1.248 0 0 0 2.286 0z"/><path fill="#e2dccb" d="M36.758 10.676a.575.575 0 0 1-1.054 0l-.087.037a.67.67 0 0 0 1.227 0zm-.605 38.984a2.887 2.887 0 0 0-5.293 0l-.087-.038a2.982 2.982 0 0 1 5.467 0z"/><path fill="#e2dccb" d="M35.64 49.92a2.31 2.31 0 0 0-4.233 0l-.087-.038a2.404 2.404 0 0 1 4.407 0z"/><path fill="#e2dccb" d="m31.93 50.179-.086-.038a1.826 1.826 0 0 1 3.346 0l-.086.038a1.731 1.731 0 0 0-3.174 0"/><path fill="#e2dccb" d="M34.575 50.44a1.153 1.153 0 0 0-2.113 0l-.087-.037a1.247 1.247 0 0 1 2.287 0z"/><path fill="#e2dccb" d="M34.062 50.7a.575.575 0 0 0-1.053 0l-.087-.039a.67.67 0 0 1 1.227 0zm2.091 3.143a2.887 2.887 0 0 0-5.293 0l-.087-.038a2.982 2.982 0 0 1 5.467 0z"/><path fill="#e2dccb" d="M35.64 54.102a2.31 2.31 0 0 0-4.233 0l-.087-.038a2.404 2.404 0 0 1 4.407 0z"/><path fill="#e2dccb" d="m31.93 54.364-.086-.038a1.826 1.826 0 0 1 3.346 0l-.086.038a1.731 1.731 0 0 0-3.174 0"/><path fill="#e2dccb" d="M34.575 54.623a1.153 1.153 0 0 0-2.113 0l-.087-.038a1.247 1.247 0 0 1 2.287 0z"/><path fill="#e2dccb" d="M34.062 54.881a.575.575 0 0 0-1.053 0l-.087-.038a.67.67 0 0 1 1.227 0zm-.581-3.108a2.888 2.888 0 0 0-5.293 0l-.086-.038a2.982 2.982 0 0 1 5.466 0z"/><path fill="#e2dccb" d="M32.945 52.036a2.31 2.31 0 0 0-4.233 0l-.087-.038a2.404 2.404 0 0 1 4.406 0z"/><path fill="#e2dccb" d="M32.432 52.294a1.731 1.731 0 0 0-3.174 0l-.086-.038a1.826 1.826 0 0 1 3.346 0z"/><path fill="#e2dccb" d="M31.88 52.554a1.153 1.153 0 0 0-2.114 0l-.086-.038a1.248 1.248 0 0 1 2.286 0z"/><path fill="#e2dccb" d="M31.367 52.817a.575.575 0 0 0-1.054 0l-.086-.038a.67.67 0 0 1 1.227 0zm7.505-1.044a2.887 2.887 0 0 0-5.293 0l-.087-.038a2.982 2.982 0 0 1 5.466 0z"/><path fill="#e2dccb" d="M38.35 52.036a2.31 2.31 0 0 0-4.232 0l-.087-.038a2.404 2.404 0 0 1 4.407 0z"/><path fill="#e2dccb" d="M37.823 52.294a1.732 1.732 0 0 0-3.174 0l-.087-.038a1.826 1.826 0 0 1 3.347 0z"/><path fill="#e2dccb" d="M37.294 52.554a1.153 1.153 0 0 0-2.113 0l-.087-.038a1.248 1.248 0 0 1 2.286 0z"/><path fill="#e2dccb" d="M36.758 52.817a.575.575 0 0 0-1.054 0l-.087-.038a.67.67 0 0 1 1.227 0zM32.112 3.14a1.916 1.916 0 1 0 2.71-2.71 1.916 1.916 0 0 0-2.71 2.71M33.467.667l1.117 1.118-1.117 1.118-1.118-1.118zm-1.355 62.495a1.916 1.916 0 1 0 2.71-2.71 1.916 1.916 0 0 0-2.71 2.71m1.355-2.473 1.117 1.118-1.117 1.117-1.118-1.117zM5.615 29.784a1.916 1.916 0 1 1-2.71 2.71 1.916 1.916 0 0 1 2.71-2.71m-2.473 1.355 1.118 1.117 1.118-1.117L4.26 30.02zm61.708-1.355a1.916 1.916 0 1 1-2.71 2.71 1.916 1.916 0 0 1 2.71-2.71m-2.474 1.355 1.118 1.117 1.118-1.117-1.118-1.118z"/></g><g filter="url(#c)"><path fill="#d8dfb2" d="m35.647 29.696 8.546-10.163h-2.026l-7.42 8.824-5.927-8.824h-6.836l8.963 13.343-8.963 10.657h2.026l7.836-9.318 6.259 9.318h6.836zm-2.774 3.298-.908-1.329-7.226-10.572h3.111l5.83 8.532.909 1.329 7.58 11.09h-3.111z"/></g><defs><filter id="b" width="66.262" height="66.264" x=".404" y="-1.41" color-interpolation-filters="sRGB" filterUnits="userSpaceOnUse"><feFlood flood-opacity="0" result="BackgroundImageFix"/><feColorMatrix in="SourceAlpha" result="hardAlpha" values="0 0 0 0 0 0 0 0 0 0 0 0 0 0 0 0 0 0 127 0"/><feOffset/><feGaussianBlur stdDeviation="2.548"/><feComposite in2="hardAlpha" operator="out"/><feColorMatrix values="0 0 0 0 0.898039 0 0 0 0 0.764706 0 0 0 0 0.517647 0 0 0 0.54 0"/><feBlend in2="BackgroundImageFix" result="effect1_dropShadow_4122_445"/><feBlend in="SourceGraphic" in2="effect1_dropShadow_4122_445" result="shape"/></filter><filter id="c" width="30.953" height="34" x="17.984" y="19.533" color-interpolation-filters="sRGB" filterUnits="userSpaceOnUse"><feFlood flood-opacity="0" result="BackgroundImageFix"/><feColorMatrix in="SourceAlpha" result="hardAlpha" values="0 0 0 0 0 0 0 0 0 0 0 0 0 0 0 0 0 0 127 0"/><feOffset dy="6"/><feGaussianBlur stdDeviation="2"/><feComposite in2="hardAlpha" operator="out"/><feColorMatrix values="0 0 0 0 0 0 0 0 0 0 0 0 0 0 0 0 0 0 0.25 0"/><feBlend in2="BackgroundImageFix" result="effect1_dropShadow_4122_445"/><feBlend in="SourceGraphic" in2="effect1_dropShadow_4122_445" result="shape"/></filter><clipPath id="a"><path fill="#fff" d="M.625 0h65.813v65.813H.625z"/></clipPath></defs></svg>