<svg width="24" height="34" viewBox="0 0 24 34" fill="none" xmlns="http://www.w3.org/2000/svg">
<path d="M12.32 31.2391C18.0533 23.2124 22.64 16.3324 22.64 11.7458C22.64 9.00875 21.5527 6.38381 19.6173 4.44844C17.682 2.51306 15.057 1.42578 12.32 1.42578C9.58297 1.42578 6.95803 2.51306 5.02266 4.44844C3.08728 6.38381 2 9.00875 2 11.7458C2 16.3324 6.58667 23.2124 12.32 31.2391Z" stroke="#F2DD7C" stroke-width="2.29333"/>
<path d="M16.9077 11.7468C16.9077 12.9633 16.4245 14.1299 15.5643 14.9901C14.7041 15.8503 13.5375 16.3335 12.321 16.3335C11.1046 16.3335 9.93795 15.8503 9.07778 14.9901C8.21761 14.1299 7.73438 12.9633 7.73438 11.7468C7.73438 10.5304 8.21761 9.36373 9.07778 8.50356C9.93795 7.64339 11.1046 7.16016 12.321 7.16016C13.5375 7.16016 14.7041 7.64339 15.5643 8.50356C16.4245 9.36373 16.9077 10.5304 16.9077 11.7468Z" stroke="#F2DD7C" stroke-width="2.29333"/>
</svg>
