<svg width="31" height="31" viewBox="0 0 31 31" fill="none" xmlns="http://www.w3.org/2000/svg">
<path d="M10.5585 8.32467C7.59186 12.0917 5.19565 13.4464 0.950366 15.0513L0.589698 17.9164C1.12529 19.7934 1.71905 20.622 3.58213 21.4873C0.247974 28.0879 8.11071 32.7406 12.9526 29.0768C18.3479 29.9811 20.5347 29.0256 22.6417 24.1918L24.4358 17.3972C25.884 10.8644 29.1857 7.00672 30.8285 1.41406C27.1863 7.97596 21.7229 9.11963 17.9997 13.8399C18.5458 14.4189 18.8623 14.8993 19.106 15.4975C19.4405 16.3184 19.4497 17.2353 19.339 18.1148C19.226 19.0126 18.9771 19.9161 18.4137 20.6242C17.9996 21.1446 17.5519 21.5394 16.9911 21.9137C16.1414 22.4809 15.0895 22.6306 14.0758 22.503L13.0365 22.3722C12.1161 22.2563 11.2241 21.9096 10.5561 21.2657C9.69862 20.4391 9.19806 19.6488 8.85876 18.3887C8.76564 18.0428 8.75487 17.6807 8.79961 17.3254C8.87882 16.6961 9.06657 15.963 9.65993 15.7391C9.8386 15.6717 10.0038 15.6935 10.1725 15.8139C10.6944 16.1868 10.7261 16.936 10.6459 17.5724L10.6431 17.5947C10.6014 17.9258 10.6092 18.2634 10.6978 18.5852C10.9315 19.4338 11.2601 19.9402 11.9068 20.4215C12.241 20.6702 12.6472 20.797 13.0605 20.849L13.3229 20.8821C14.556 21.0373 15.9112 20.9607 16.7615 20.0542C18.4418 18.263 18.0376 15.3947 15.4977 13.8302C16.9825 12.0317 16.6806 10.8534 14.9086 8.56705C13.5367 7.27494 12.5372 7.3941 10.5585 8.32467Z" fill="white"/>
<path d="M17.6484 11.6591C17.9197 9.457 17.1974 8.23764 14.5952 6.08571C19.0912 2.68364 22.7172 6.19245 29.6342 0.958484C26.046 5.84891 23.1002 7.98239 17.6484 11.6591Z" fill="white"/>
</svg>
