<svg width="27" height="26" viewBox="0 0 27 26" fill="none" xmlns="http://www.w3.org/2000/svg">
<path d="M10.0674 0.74413L2.8936 2.69019C1.65065 3.47761 1.14466 4.19361 0.626547 6.02342C-0.032194 8.65614 0.406986 10.1191 2.61163 12.6987L1.93842 13.6446C1.27273 14.5799 0.873762 15.6786 0.784163 16.8231C0.719973 17.6431 0.789242 18.4802 1.12653 19.2303C2.17627 21.5649 3.71647 22.0947 6.89397 22.0615C6.84589 25 8.03685 25.7293 11.6056 25.941C15.4537 25.9128 17.2021 25.1779 18.9744 21.5026C22.688 20.7414 24.412 19.898 26.3433 17.0642C26.8333 15.9554 26.7511 15.6232 25.4244 15.9892C22.1604 19.2444 15.5681 17.704 12.6982 11.9837L10.8552 11.8395C10.4318 11.8063 10.008 11.8992 9.63729 12.1065C9.00946 12.4576 8.59863 13.0993 8.54249 13.8164L8.49242 14.4559C8.45709 14.9073 8.60251 15.3542 8.89669 15.6984C9.19087 16.0425 9.60972 16.2557 10.0611 16.2911L10.5393 16.3285C11.0679 16.3699 11.597 16.2539 12.0599 15.995L12.524 15.7355C12.7872 15.5883 13.0874 15.46 13.3787 15.5377C13.6143 15.6006 13.7322 15.7567 13.7903 16.02C13.8694 16.3781 13.708 16.7399 13.4657 17.0152L13.1818 17.3378C12.558 18.0467 11.6369 18.4205 10.6955 18.3468L10.1391 18.3033C9.23048 18.2322 8.40204 17.7497 7.89 16.9958C7.2521 16.0566 6.95156 14.9193 7.04017 13.7874C7.1278 12.668 7.5499 11.5539 8.43505 10.8629C9.73621 9.8472 10.9235 9.67953 12.8543 9.98984L13.0884 6.99899C11.0405 5.84697 10.2432 4.67965 10.0674 0.74413Z" fill="white"/>
</svg>
