<svg width="25" height="30" viewBox="0 0 25 30" fill="none" xmlns="http://www.w3.org/2000/svg">
<path d="M0.178611 9.03325C1.16011 5.96531 4.94913 3.23134 9.67861 4.53325C9.88226 3.09679 11.5044 0.739934 14.1786 0.0332499C15.714 1.19089 19.8786 4.03325 24.6786 6.03325C23.9612 6.47593 22.2987 8.04294 21.1786 10.5332C21.1786 10.5332 21.3214 8.99725 20.5 8C19.3214 6.49725 16.8214 6.49725 16 6.5C15.6786 6.5 14.9628 7.21794 16 7.5C16.465 7.62646 17.4548 7.77779 18 8C18.5855 8.08292 18.7363 8.2233 19 8.5C19.9757 9.52374 17.7965 11.9408 16.6786 13.0332C15.2394 14.6593 12.3277 14.6991 11.1786 13.5332C9.91312 12.2493 10.1786 11.5332 10.1786 10.5332C10.6 8.82565 12.6504 7.75087 14.6786 10.0332C14.8453 10.1999 15.2786 10.4332 15.6786 10.0332C16.1786 9.53325 15.6786 9.03325 14.6786 8.03326L14.6786 8.03325C14.1786 7.53325 12.907 6.96435 11.6786 7.03325C10.2598 7.11282 7.92461 9.24014 8.1786 12.0332C8.21088 13.9124 10.6453 15.9495 14.6786 15.5332C14.4652 16.3412 13.9968 18.3345 14.1786 20.0333C14.2318 20.5304 15.5 23.0305 15 23.0305C14.0537 23.0305 12.5658 21.7785 12.5 19.5C12.3959 18.5459 12.8349 18.0284 12.5 17.5305C11.9097 16.6529 11.5675 17.7437 11.5 18.0305C11.4486 18.2486 11.0795 19.6504 11.5 21C11.7379 22.1074 12.536 23.0665 13 23.5305C14 24.5305 16.2177 24.8394 16.6786 25.0333C17.051 25.1899 17.417 25.8542 19.1786 28.0333C15.6945 30.5911 9.00678 30.014 7.67861 21.0333C4.09878 20.9554 -1.02272 17.0473 0.178611 9.03325Z" fill="white"/>
</svg>
