<svg width="19" height="25" viewBox="0 0 19 25" fill="none" xmlns="http://www.w3.org/2000/svg">
<path d="M0.0212653 12.5305C-0.158399 9.40381 0.699243 6.09451 6.52127 5.0305C6.81245 3.42507 8.27912 0.638393 11.0213 0.0305023C11.3135 0.130826 13.3471 1.44507 19 1.5305C18.6152 1.88953 17.8497 2.03458 17.5213 3.0305C16.551 4.55465 16.5437 6.62405 17.5 7.5C15.389 7.15751 14.3408 8.60198 13.5 9.5C12.5677 10.4958 12 12.4076 12 13C12 14.5 11.0213 15.0305 10.5213 15.0305C9.41754 14.8375 7.81025 13.9946 7.52127 13.0305C7.2355 12.5751 7.52127 11.0305 7.52127 11.0305C7.52127 11.0305 7.50908 10.3642 8.52127 10.0305H10C11 10.0305 10.9386 9.23918 10.5213 9.0305C10.1879 8.86384 9.42127 8.5305 9.02127 8.5305C8.52127 8.5305 7.52127 8.5305 7.02127 9.0305C6.17614 9.87562 6.20852 10.5669 6.02127 11.0305C5.82548 11.5152 5.9031 12.4816 6.02127 13.0305C6.15156 13.6357 7.94184 15.5718 9.02127 16.0305C10.1007 16.4892 10.5 16.5305 10.5 16.5305C10.5 16.5305 12.3801 16.6441 12.5 17C12.8333 17.6667 13.9213 18.8 15.5213 20C15.0234 20.6125 14.7203 22.5872 16 24C13.6817 24.8993 7.91147 25.2681 5.02127 21.0305C4.7056 20.3577 4.75864 19.9016 5.02127 19.0305C4.68793 19.0305 3.62127 18.7305 2.02127 17.5305C0.0212653 16.0305 0.107315 14.028 0.0212653 12.5305Z" fill="white"/>
</svg>
