<svg width="23" height="23" viewBox="0 0 23 23" fill="none" xmlns="http://www.w3.org/2000/svg">
<path d="M11.338 10.6716C10.838 10.1716 10.838 9.6716 10.838 7.6716C10.838 7.33826 10.738 6.67159 10.338 6.67159C9.83802 6.67159 9.83802 6.67159 9.33802 7.17159C9.17135 7.33826 9.33802 7.87159 9.33802 8.67159C9.33802 9.67159 9.33802 10.6716 10.338 11.6716C11.338 12.6716 12.838 13.1716 13.838 13.1716C14.838 13.1716 16.338 13.1716 19.338 9.17159L22.838 13.6716C21.838 14.3383 19.538 16.1716 18.338 18.1716C16.0654 17.6186 11.517 18.618 8.83802 22.6716C8.33412 22.4502 6.9555 21.4476 6.33802 19.6716C6.28438 18.7352 6.19647 18.2021 6.33802 17.1716C5.00469 16.5049 1.93802 14.3716 0.338026 11.1716C-0.645444 8.36444 0.370404 5.38719 5.33802 5.1716C5.15892 3.61693 6.12671 1.41104 8.33802 0.671596C8.84936 0.344915 11.3518 -0.224412 12.838 0.171596C14.2875 0.557795 15.69 1.26048 16.338 2.1716C17.063 3.19103 17.578 5.19244 17.838 6.6716C17.838 7.1716 17.738 8.37159 17.338 9.17159C16.838 10.1716 16.338 10.6716 15.838 11.1716C15.338 11.6716 14.838 11.6716 14.338 11.6716H13.338C12.838 11.6716 11.838 11.1716 11.338 10.6716Z" fill="white"/>
</svg>
