<svg width="17" height="25" viewBox="0 0 17 25" fill="none" xmlns="http://www.w3.org/2000/svg">
<path d="M15.5 21C15.2425 22.2757 15.8936 23.1654 16.5 23.5C14.23 25.0771 9.17484 25.1901 6.37584 23.5426C5.08898 22.7852 4.74509 21.1987 4.68025 19.7069L4.62522 18.4408C-1.85645 14.6231 -0.261503 8.71628 6.31456 6.80843C4.13189 3.80238 5.92881 1.59779 7.80122 0.793145C9.16021 0.95863 10.3566 0.862097 10.7849 0.793145C8.48054 3.30353 8.74316 7.65884 10.5 9.5L8.49541 9.77931C6.65887 10.2124 5 11 4.6683 12.9183C4.35642 14.722 4.88208 15.9378 6.07835 16.4989C6.2219 16.5662 6.38998 16.5361 6.51257 16.4355C6.70444 16.2782 6.73066 15.9943 6.57086 15.8045L6.31456 15.5C4.98954 13.8249 5.69736 12.8451 6.87171 11.9752C7.14817 11.7704 7.48748 11.6713 7.83153 11.6713C8.97917 11.6713 9.79398 12.7757 9.67508 13.9171C9.14682 18.9885 12.4634 21.4175 15.5 21Z" fill="white"/>
</svg>
