<svg width="567" height="150" fill="none" xmlns="http://www.w3.org/2000/svg">
  <path
    d="M128.252.066c-.49 6.815-3.1 12.473-5.813 18.687-3.467 8-6.559 15.995-9.187 24.313 5.645.065 5.645.065 10.629-2.239a379.74 379.74 0 003.195-3.543c15.945-16.26 40.905-28.328 63.176-32.218 2.929.402 2.929.402 5 1-.532 4.6-2.57 7.764-5.125 11.5-7.885 10.616-7.885 10.616-11.875 22.5 3.744.568 4.973.018 8.164-2.16a269.637 269.637 0 003.461-2.903 753.851 753.851 0 013.719-3.023l1.859-1.503c10.71-8.411 10.71-8.411 16.797-8.411l1 5 2.019-1.356c20.146-13.214 41.275-16.323 64.981-17.644l2 4c-3.868 1.383-7.683 2.383-11.709 3.19-14.111 2.915-31.582 8.904-40.022 21.364-1.63 3.14-1.769 4.945-1.269 8.446 2.496 4.895 4.785 7.261 10 9 18.702 3.713 35.98-4.847 51.153-14.981 6.19-4.242 12.144-8.758 18.052-13.381C327.523 10.929 347.642.879 372.252 3.066c6.427 1.035 13.138 3.519 18 8 .715 2.16.715 2.16 1 4-3.847 1.385-7.021.571-11 0-23.128-1.381-45.891 5.226-63.563 20.625-3.62 3.293-6.792 6.536-7.906 11.437-.06 3.737.24 5.574 2.281 8.813 8.61 5.74 21.168 4.686 31.25 5.187 2.971.154 5.941.313 8.91.473l2.132.113c5.321.294 10.6.759 15.896 1.352l1 4c-22.126 12.439-46.951 12.225-71.082 6.792-14.078-3.198-14.078-3.198-27.918-.792 7.531 6.018 13.896 10.772 23.613 12.41 2.577.449 4.931.987 7.43 1.71l2.059.597c1.927.567 3.854 1.138 5.781 1.708 3.268.977 3.268.977 6.117-1.425h4l.246 2.359c.485 2.719.485 2.719 2.509 3.936l2.303.959 2.582 1.13 2.797 1.178c17.581 7.908 32.921 18.796 46.563 32.438.125 2.625.125 2.625 0 5a207.907 207.907 0 01-16.219 1.535 5197.981 5197.981 0 01-9.281.527l-4.805.276c-3.898.223-7.797.443-11.695.662 5.712 10.241 5.712 10.241 14.25 18.062 1.131.8 2.257 1.608 3.379 2.422l1.699 1.232c19.575 15.029 33.969 39.175 41.672 62.284l3-4c3 1 3 1 4 3 .049 1.744.036 3.49-.008 5.234l-.051 3.18a915.152 915.152 0 01-.156 6.625c-.135 7.906-.135 7.906 3.215 14.961 2.229 1.741 2.229 1.741 5 2 3.678-1.177 5.505-2.334 7.812-5.438 2.991-8.972 2.26-18.96 2.125-28.312-.22-37.862 5.226-74.648 32.438-103.063 12.298-11.918 12.298-11.918 19.445-12.363l2.18.176c-.52 3.971-1.436 5.867-4.25 8.687-5.199 5.714-8.978 11.672-9.25 19.563.243 4.191 1.034 7.263 3.5 10.75 2.754 2.295 4.659 2.94 8.187 3.562 7.526-1.11 13.074-5.277 17.938-11 16.156-21.803 22.858-49.465 19.533-76.32-1.389-8.948-3.347-17.701-6.924-26.051-.838-2.502-.864-4.57-.734-7.191 7.353.838 11.429 6.823 15.855 12.293 16.179 22.102 23.092 47.822 18.903 74.992-1.784 8.742-4.964 16.984-8.508 25.152-2.525 5.959-4.447 11.101-2 17.438 1.547 3.318 1.547 3.318 4.75 5.125 4.608.755 8.143.436 12.312-1.688 8.061-6.936 10.546-16.457 13.688-26.312 1.894.332 1.894.332 4 1 4.99 7.947 4.847 16.865 2.875 25.75-3.434 12.536-9.841 21.184-18.875 30.25-1.268 1.292-2.534 2.585-3.801 3.879-10.139 10.281-10.139 10.281-14.863 14.207-9.673 8.167-18.075 21.08-19.336 33.914-.08 5.994.864 10.429 5 15 3.947 2.476 6.833 3.331 11.375 2.562 6.724-1.893 12.553-5.475 16.5-11.312 4.867-8.91 5.55-17.21 5.125-27.25l5-1c8.278 15.418 8.95 29.745 4.117 46.398l-1.117 3.602-.805 2.664c-4.483 12.765-13.604 24.022-21.502 34.823-9.28 12.74-17.457 25.977-21.15 41.466-.543 2.047-.543 2.047-1.543 3.047-2.02.072-4.042.083-6.063.062l-3.347-.027-2.59-.035 2-3c.137-2.65.137-2.65-.188-5.5l-.23-2.907c-.665-2.96-1.246-3.734-3.582-5.593l-2.262-1.825-2.426-1.863-2.449-1.887-1.863-1.425-.364 1.808c-1.408 4.847-4.731 7.679-8.949 10.067l-2.687 1.125c1.921 4.131 4.042 7.532 7 11h-8v-2h-2v2h-6l3-11-3.125-.25c-5.422-1.05-9.203-3.67-12.875-7.75-2.994 3.175-3.985 4.843-4.043 9.293.266 3.251.602 6.474 1.043 9.707h-5c-4.406-22.576-5.306-45.123-5.375-68.063l-.023-3.248c-.194-33.83 4.204-68.338 27.941-94.299 20.957-20.39 20.957-20.39 31.457-20.39 1.112 3.36.864 5.617.074 9.043l-.666 3.009-.721 3.135c-3.823 16.634-5.04 32.722-5.003 49.747.003 2.969-.02 5.936-.046 8.904-.088 24.921 4.011 49.271 8.203 73.761.589 3.446 1.169 6.894 1.751 10.342a9024.686 9024.686 0 003.408 20.059l.659-1.615c1.008-2.46 2.026-4.917 3.044-7.374l1.036-2.538c5.158-12.4 12.733-22.926 20.854-33.536 14.066-18.541 22.212-37.451 21.407-60.937l-1.434 3.218c-4.663 10.104-9.152 16.834-18.816 22.782-6.627 1.767-14.51 2.628-20.813-.625-4.023-3.253-6.305-6.478-7.937-11.375-1.139-16.278 2.806-28.04 13.301-40.797 5.454-6.126 11.328-11.737 17.324-17.328 12.245-11.449 25.641-24.165 26.48-42.133.017-1.914-.037-3.829-.105-5.742l-.664 1.687c-3.03 7.291-6.261 14.131-13.586 17.813-5.841 2.22-11.795 2.72-17.625.312-3.818-3.256-6.907-6.554-7.399-11.648-.259-9.046 1.471-15.072 5.274-23.164 9.295-23.001 9.132-46.29-.246-69.184-2.63-5.98-6.11-11.408-9.754-16.816l-2-3 .402 2.343.535 3.157.528 3.093c4.604 29.307.353 59.423-16.477 84.391-6.386 8.28-13.295 15.657-23.988 17.328-5.305.332-9.768-1.084-14-4.312-5.099-6.466-5.473-13.101-5-21 .486-2.463 1.156-4.628 2-7-24.545 25.17-30.681 58.276-31.262 92.172l-.052 2.971c-.08 4.943-.128 9.884-.133 14.827l-.049 5.537.025 2.542c-.094 7.352-2.326 12.433-7.154 17.951-4.559 2.701-8.202 3.175-13.375 2-3.973-2.295-6.541-4.622-8-9-1.024 36.946 8.253 67.478 30.444 97.139 3.556 4.761 3.556 4.761 3.556 5.861-3.137.457-3.137.457-7 0-2.472-2.065-4.079-4.619-5.813-7.313l-1.549-2.317c-12.754-19.472-21.412-40.238-24.638-63.37l-.317-1.904c-.709-4.896-.613-9.538-.324-14.475.097-2.035.189-4.07.279-6.105.075-1.389.171-2.777.288-4.163.377-4.654.437-8.822-.926-13.353-3.848-3.811-8.046-5.905-13-8l-2.642-1.139c-1.757-.697-3.554-1.295-5.358-1.861 1.619 14.733 3.744 26.733 11.876 39.21 15.022 23.922 20.874 57.088 17.124 84.79-4.01.514-6.289.103-9.473-2.266a192.981 192.981 0 01-3.59-2.984l-1.814-1.489a374.922 374.922 0 01-3.366-2.797c-2.225-1.854-4.495-3.655-6.757-5.464l-1 15h-12c3-2 3-2 6-2-1.807-5.611-3.327-9.145-8-13-5.25-1.75-9.357-1.822-14.25.625-3.806 3.287-6.16 6.604-7.75 11.375l2.875.375c3.125.625 3.125.625 5.125 2.625h-23c3.21-2.408 5.35-3.682 9-5-2.082-5.588-4.383-10.192-10-13-4.588-.56-8.1-.425-12.313 1.562-3.248 2.946-4.731 5.526-6.687 9.438l-1 2 2.75.25c3.25.75 3.25.75 7.25 4.75h-27c4.572-4.573 6.011-4.803 12-6-3.607-8.677-3.607-8.677-11-14-4.645-.786-8.01-.449-12.313 1.5-3.346 3.112-4.962 6.318-6.687 10.5l1.644.734c7.106 3.329 7.106 3.329 9.356 7.266-8.572.285-8.572.285-12-2v2h-5l1-27c-22.993-1.613-22.993-1.613-46-3l-.076 2.215a4744.64 4744.64 0 01-.362 9.972 4834.17 4834.17 0 01-.119 3.486l-.127 3.37-.111 3.094c-.194 2.701-.61 5.224-1.205 7.863h-5l.183-3.037c1.104-18.57 2.027-37.139 2.116-55.745.009-1.657.022-3.313.041-4.969.192-18.468-1.795-36.619-10.34-53.249l-2.013.047c-18.511.381-35.67.313-50.093-12.934-3.558-3.969-6.232-8.513-8.894-13.113-19.067 14.51-26.913 44.139-35.341 65.675-4.603 11.758-9.282 23.484-13.967 35.209a6814.176 6814.176 0 00-4.838 12.142c-.768 1.933-1.539 3.866-2.31 5.798-.95 2.38-1.896 4.761-2.84 7.143-2.33 5.827-4.797 11.471-7.704 17.033h-5c2.057-6.454 4.424-12.736 7-19l-1.677-.539a208.57 208.57 0 01-15.64-5.817l-2.248-.929c-2.334-.964-4.666-1.934-6.998-2.903l-4.79-1.982a9502.75 9502.75 0 01-11.647-4.83l-1.176 3.746c-1.977 5.93-4.485 11.603-7.012 17.316l-1.404 3.201a3166.676 3166.676 0 01-3.408 7.737l6 3v1h-13c.764-3.823 1.476-6.384 3.062-9.813l1.098-2.394.84-1.793-2.063 1c-3.476 1.183-6.287 1.206-9.937 1l-2-1c-.09 4.474.142 8.605 1 13h-5l-2-5-2.25 1.5c-4.866 2.503-10.436 1.732-15.75 1.5v2h-8l2-4-1.242-1.356c-4.253-4.771-6.758-8.036-6.758-14.644l-1.688.875c-5.433 2.643-9.277 3.654-15.312 3.125l-2-1c.272 6.774 1.19 11.347 5 17h-7c-1.723-3.296-3.295-6.332-4-10l-2.313 1.5c-4.968 2.021-9.394 1.754-14.687 1.5l-1 7h-14v-4l2.875-1.313c3.325-1.48 3.325-1.48 5.125-4.687l-2.438-2.75c-1.974-2.353-3.201-4.12-3.562-7.25h-2v-38h2l-.988-1.703c-1.132-2.57-1.243-4.269-1.207-7.063l.019-2.695.05-2.789.028-2.836c.024-2.305.056-4.61.098-6.914h2l.183 1.757.254 2.368.246 2.32.317 2.555.328 2.792c.734 3.503 1.96 5.986 3.734 9.083l1.66 2.929 1.278 2.196c1.632-3.685 3.254-7.373 4.875-11.063l1.394-3.146 1.348-3.077 1.238-2.808c2.21-5.611 3.442-11.152 4.198-17.123l.267-2.073c.287-2.237.565-4.476.844-6.714a4899.02 4899.02 0 001.832-14.529c.523-4.19 1.053-8.378 1.587-12.566.411-3.233.819-6.466 1.225-9.7.194-1.544.39-3.088.586-4.632.274-2.16.543-4.321.811-6.482l.467-3.717c.306-3.151.39-6.208.328-9.37l-2.082 1.277-2.73 1.66-2.708 1.652c-4.076 2.318-7.23 2.572-11.855 2.598l-3.399.043c-3.175-.227-5.369-.876-8.226-2.23v-6l2.875 1c7.477 2 12.925 1.958 19.771-1.817 4.96-2.719 4.96-2.719 9.354-6.183l-1.696.437c-7.7 1.783-17.7 3.809-25.035.231-4.057-2.982-4.057-2.982-5.27-4.668-.292-2.7-.292-2.7-.187-5.688l.082-3.012.106-2.3c1.037 1.555 2.066 3.119 2.972 4.754 2.055 3.409 3.916 5.693 7.778 6.933 5.516.896 10.625-.767 15.934-2.146 6.981-1.8 12.917-2.674 19.878-.354 2.438 1.813 2.438 1.813 3.438 6.813l-10 2a201078.05 201078.05 0 001.953 6.738c1.542 4.805 3.301 9.528 5.047 14.262l.978-2.415c1.202-2.968 2.407-5.935 3.612-8.901l1.56-3.847c.747-1.847 1.498-3.694 2.248-5.54l1.365-3.365c1.237-2.932 1.237-2.932 2.269-4.869.977-2.082 1.38-3.741 1.695-6.01l.335-2.345.342-2.544.38-2.702c.413-2.945.816-5.891 1.22-8.837a8562.832 8562.832 0 003.101-22.315c1.192-8.629 2.396-17.258 3.6-25.886.419-3.015.835-6.031 1.25-9.047l.77-5.541.348-2.545c1.12-8.038 1.12-8.038 1.927-10.291l3-1c3.15 4.445 4.032 8.777 5.043 14.02l.525 2.6c.549 2.73 1.084 5.46 1.62 8.192.37 1.856.742 3.713 1.114 5.569.91 4.537 1.807 9.077 2.698 13.619h2c5.292-5.942 7.233-12.379 8.812-20 5.9-25.545 16.03-50.102 29.688-72.5l1.203-1.997c1.609-2.517 2.731-4.256 5.516-5.472l1.78-.031c1 1 1 1 1.121 3.056l-.007 2.739v3.094l-.016 3.364-.004 3.427c-.005 3.627-.018 7.255-.03 10.882-.006 2.453-.01 4.905-.014 7.358-.011 6.026-.028 12.053-.05 18.08a434.031 434.031 0 003.396-2.334l1.91-1.313c2.423-1.935 3.378-4.019 4.57-6.853 11.837-25.518 33.744-44.95 58.125-58.063l2.465-1.34 2.347-1.226L121.146.84c2.476-.912 4.488-.912 7.106-.775zM83.127 33.69c-8.29 8.295-16.963 18.132-20.875 29.375 6.087-1.782 11.383-3.701 15.082-8.961l1.73-3.414c2.857-5.372 5.936-10.46 9.438-15.438l1.249-1.831c2.957-4.146 2.957-4.146 5.798-5.243l1.703-.113c-2.124 5.429-4.804 9.973-8.125 14.75-3.443 4.852-3.443 4.852-5.875 10.25 5.45-.38 7.43-1.958 11-6 2.062-3.244 2.062-3.244 3.812-6.688l1.832-3.45c1.498-2.636 1.498-2.636 1.356-4.862h4c-1.553 5.054-3.144 9.51-6 14v2c3.451-.389 3.451-.389 7-2 1.148-2.67 2.089-5.252 3-8 .637-1.69 1.283-3.376 1.937-5.059l1.024-2.67a3539.58 3539.58 0 012.078-5.406 335.287 335.287 0 005.961-16.865c-12.578 0-28.715 17.407-37.125 25.625zm234.125-7.625c3.771 0 5.197-1.19 8.375-3.188 14.523-8.65 30.042-11.7 46.625-13.812v-1c-21.238-.867-38.398 4.447-55 18zm-138.75-12.5l-3.25 1.5 2 1c-1.492 4.068-3.682 5.21-7.438 7.187-8.101 4.523-15.091 10.176-21.562 16.813 3.876.506 7.478.973 10.881-1.203 1.733-1.671 3.311-3.399 4.869-5.235 5.582-6.352 5.582-6.352 9.14-7.473l2.11-.09c-.542 3.795-2.005 5.193-4.938 7.563-2.593 2.113-4.179 3.613-6.062 6.438h7c1.939-3.541 3.876-7.083 5.812-10.625l1.658-3.028c2.593-4.745 5.165-9.485 7.53-14.347-3.541 0-4.746.113-7.75 1.5zm48.561 10.55c-12.075 6.325-21.198 15.604-26.811 27.95l-1.035 2.258c-5.06 13.507-1.796 30.28-.033 44.138 1.73 13.832 2.807 29.78-5.932 41.604-4.61 4.17-7.556 5.416-13.676 5.347-4.018-.601-5.607-2.365-8.324-5.347-1.849-3.714-2.215-6.589-2.09-10.711l.06-3.274c.061-2.252.127-4.505.196-6.758.134-7.762-.65-12.393-4.916-18.945-2.897-2.977-5.487-4.533-9.25-6.312l-3 1 1.172 1.836c9.365 15.068 12.963 29.713 9 47.191-2.296 8.417-6.443 16.265-10.193 24.107a1518.8 1518.8 0 00-1.941 4.075 660.892 660.892 0 01-2.593 5.361c-3.859 9.156-5.421 19.996-2.508 29.68 4.573 9.957 13.679 16.602 23.473 20.777 6.151 2.063 12.224 2.243 18.652 2.285l2.564.017c4.669.149 4.669.149 8.374-2.329l-1-2c-.839-11.122.02-19.238 7.062-28.125 9.032-9.418 20.353-13.1 32.438-16.938 13.709-4.385 25.933-8.703 36.5-18.937l-1-2-3.395 1.714-4.418 2.223-2.236 1.131-2.158 1.084-1.984 1c-7.102 3.328-17.627 3.245-25.048.766-2.341-1.204-4.538-2.512-6.761-3.918l-3-1c-1.063-1.813-1.063-1.813-2-4l-1.063-1.75c-2.679-6.43-2.288-12.82.063-19.25 4.266-8.979 11.101-13.31 20.246-16.598 4.652-1.498 9.148-2.083 14.004-2.465l2.581-.237a895.05 895.05 0 0113.786-1.126c13.179-.869 13.179-.869 25.383-5.574l1.883-1.078c2.298-1.433 3.888-2.466 5.117-4.922a978.98 978.98 0 00-7.535 3.035l-2.528 1.027-2.535 1.035c-8.236 3.094-17.827 3.31-26.027.028a115.273 115.273 0 01-4.375-2.125l-2.207-1.024c-2.382-1.297-2.757-2.489-3.793-4.976l-1.563-2.625c-2.671-6.273-3.238-12.037-1.062-18.563 3.102-6.78 8.806-10.877 15.562-13.75 11.685-3.186 23.634-1.137 35.188 1.438 18.367 4.031 35.848 3.986 53.875-1.5v-1l-3.453-.228c-4.258-.284-8.514-.584-12.77-.89-1.837-.129-3.674-.254-5.511-.374-2.652-.175-5.303-.366-7.954-.56l-2.46-.151c-6.363-.488-12.228-1.644-17.29-5.797-3.439-4.402-3.132-9.672-2.562-15 1.784-5.517 5.167-9.742 9-14-2.854 1.342-5.315 2.866-7.836 4.758l-2.204 1.634-2.335 1.733c-17.629 12.858-37.426 24.318-60.156 21.41-7.041-1.526-11.369-4.696-15.469-10.535-1.504-4.51-1.974-8.664-.129-13.09 4.151-7.092 10.301-11.58 17.129-15.91-5.274-1.758-10.378 1.715-15.189 4.05zm-87.124 9.262l-1.649 1.273c-2.524 2.01-4.23 3.703-6.038 6.415 3.839.06 7.534.098 10.699-2.274a161.38 161.38 0 003.207-3.55c3.197-3.323 6.878-5.957 10.563-8.711 2.685-2.015 5.251-3.993 7.531-6.465-7.905 0-18.264 8.644-24.313 13.312zm175.313-6.312l-2 3 4-2-2-1zm-113.477 5.406l-2.031 1.504-2.117 1.59-2.141 1.59c-1.748 1.299-3.492 2.602-5.234 3.91 3.187 2.125 5.265 2.502 9 3a777.456 777.456 0 004-5.313l2.25-2.988c2.022-2.583 2.022-2.583 1.75-5.7-2.6 0-3.406.862-5.477 2.407zm-161.523.594c-9.329 17.322-17.596 34.55-23.938 53.187l-.893 2.61c-1.676 5.091-2.683 9.863-3.17 15.203l2.25-2.25c1.559-1.558 3.146-3.09 4.813-4.53 2.421-2.774 2.908-4.91 3.684-8.498l.85-3.748c.281-1.303.562-2.608.841-3.912 2.133-9.781 4.698-18.828 8.563-28.062h3c-1.136 5.781-2.696 11.331-4.5 16.937-1.916 5.965-3.502 11.865-4.5 18.063 1.335-.664 2.668-1.331 4-2l2.556-1.137c3.399-1.985 5.223-3.576 7.444-6.863 1.73-7.46.934-15.414.625-23-.05-2.132-.096-4.263-.137-6.395a799.418 799.418 0 00-.488-15.605h-1zm101 21c-2.22 3.33-2.353 5.033-1.715 8.941 1.38 3.975 4.181 5.97 7.715 8.059 7.697 3.566 7.697 3.566 16 4 1.331-1.576 1.331-1.576 2.187-3.688 2.941-5.34 7.328-7.097 12.813-9.312v-2c-1.657-1.41-1.657-1.41-3.75-2.813-4.649-3.376-7.897-6.893-10.25-12.187-9.1-.674-17.056 1.755-23 9zm29-9c1.112 4.725 3.705 6.81 7.492 9.508 4.586 2.728 9.525 4.615 14.508 6.492 1.575-2.887 2.463-5.534 3.125-8.75l.508-2.422.367-1.828c-12.899-2.581-12.899-2.581-26-3zm-51.563 2.875l-2.669.526c-3.876.812-6.42 1.367-9.768 3.599 6.119 6.119 14.366 7.177 22.687 7.187 1.772-.047 3.543-.104 5.313-.187l.769-1.829 1.043-2.421 1.02-2.391c1.17-2.363 2.523-4.305 4.168-6.36-7.759-.567-14.978.36-22.563 1.876zM85.252 62.066c-3.387 4.233-4.901 7.54-5 13 1.268 3.282 2.552 4.67 5.375 6.75 6.46 2.227 13.88 2.928 20.687 2 4.148-2.472 4.422-5.418 5.762-9.91 1.656-4 4.183-6.017 7.566-8.598l1.61-1.242v-1l-2.598-.664c-7.326-2.032-11.976-4.03-17.402-9.336-5.47 0-12.19 5.406-16 9zm-7-1l1 2-1-2zm-7 4l-2.375.902c-8.18 3.42-15.464 8.948-22.625 14.098 2.838 2.838 5.042 2.691 9 3 7.3-.945 14.406-2.703 21-6l-.125-3.063c.13-4.118.857-7.056 2.125-10.937-2.675 0-4.536.968-7 2zm46.379 7.496c-2.818 3.073-3.402 5.395-3.317 9.504 1.48 4.734 4.495 7.014 8.5 9.75 3.783 1.94 6.959 2.374 11.188 2.312l2.422-.027 1.828-.035.594-1.723c2.507-6.473 5.902-10.123 11.406-14.277-2.025-2.222-2.025-2.222-5.313-3.75-4.394-2.44-7.419-5.714-9.687-10.25-6.727 0-12.807 4.039-17.621 8.496zm53.621-2.184c-2.237 3.005-3.406 4.976-4 8.688 1.651 6.485 5.547 10.264 11 14 2.657 1.276 5.166 2.14 8 3l1.812-2.813c2.188-3.187 2.188-3.187 3.818-4.583 1.899-2.224 1.651-3.574 1.479-6.456l-.152-2.828-.207-2.945-.16-2.97c.124-4.55.124-4.55-1.59-8.405-7.243-.617-14.19.833-20 5.312zm92 4.688c.149 9.13 3.936 15.765 10.23 22.324l1.77 1.676 2.937-.938c4.299-1.242 8.616-1.68 13.063-2.062-3.703-3.85-7.601-7.22-11.813-10.5l-1.864-1.459c-6.66-5.901-6.66-5.901-14.323-9.041zm-108.5 6.75l-2.906.984c-2.823 1.377-3.955 2.63-5.594 5.266l2.09.226c8.316 1.164 13.623 4.187 19.992 9.516l1.918 1.258c2.734-.71 2.734-.71 5-2l-2.125-1.438c-4.633-4.129-8.69-9.354-9.875-15.562-3.264 0-5.428.676-8.5 1.75zm102.5-.75c-2.135 3.825-3.506 6.576-3 11 .982 1.205.982 1.205 2.847 1.097l6.153-.097-.875-2.063c-1.251-3.266-2.2-6.566-3.125-9.937h-2zM74.033 83.402c-5.162 4.614-9.1 8.805-10.781 15.664-.12 3.587-.094 5.743 2.312 8.507 4.583 4.01 8.353 4.765 14.192 4.727 4.064-.382 7.722-1.735 11.496-3.234l.297-2.414c.883-6.263 1.671-10.673 5.703-15.586l2-3a12481 12481 0 01-2.125-.079c-5.75-.343-10.129-1.05-15.121-3.984-3.95-2.138-3.95-2.138-7.973-.601zm-33.781.664c-5.94 6.124-10.986 12.421-11.5 21.25.579 4.344 1.167 5.917 4.5 8.75 6.594 2.997 11.279 1.517 17.988-.774 3.441-1.401 6.12-2.914 9.012-5.226l-.324-1.907c-1.138-8.124.665-12.84 4.324-20.093l-3.727.07-4.898.055-2.45.05c-4.726.039-8.48-.348-12.925-2.175zm70 3c-8.842 5.341-8.842 5.341-14 14-.498 4.398-.346 6.438 2 10.25 3.838 4.021 8.253 5.573 13.738 5.925 2.43.011 4.836-.041 7.262-.175l.48-2.45c1.398-6.401 2.324-10.449 7.52-14.55l1-2-1.977-.7c-6.694-2.498-10.975-5.252-16.023-10.3zm184 4l2.312 2.312 5.688 5.688c.619-.31 1.237-.62 1.875-.938l4.125-2.062v-2a1190.85 1190.85 0 00-5.313-1.5l-2.988-.844c-2.722-.774-2.722-.774-5.699-.656zm-101 2c-2.707 2.593-3.285 4.748-3.438 8.375.142 4.506 1.487 7.153 4.438 10.625l2 1a999.726 999.726 0 00-.375-7.75l-.094-2.211c-.206-3.779-.446-6.819-2.531-10.04zm-50 1c.251 5.151 2.004 7.839 5.367 11.519 2.035 1.845 3.985 2.78 6.633 3.481-2.582-5.661-5.354-10.753-10-15h-2zm-159 1c-1.07 7.492-2.13 14.985-3.181 22.479-.488 3.48-.98 6.96-1.477 10.439-.572 4-1.131 8.002-1.69 12.004l-.546 3.781-.485 3.518-.438 3.096c-.173 2.536.03 4.287.817 6.683 3.25-5.017 4.625-8.878 4.828-14.903l.117-2.189c.119-2.282.212-4.563.305-6.846.076-1.558.154-3.116.234-4.674.191-3.795.36-7.591.516-11.388l3-1v23c3.634-3.602 3.634-3.602 6-8-.041-7.565-1.89-15.134-3.438-22.5l-.658-3.282c-.215-1.031-.43-2.062-.65-3.125l-.584-2.822c-.524-2.444-.524-2.444-2.67-4.271zm273 3c2.038 4.798 5.493 7.509 10 10 2.905.06 2.905.06 5-1l1-4c-5.395-3.085-9.79-4.557-16-5zm57.578 1.39l-1.328 1.86-1.36 1.828c-1.15 2.482-.753 3.362.11 5.922 1.964 3.4 4.183 6.446 8.047 7.623 2.341.222 4.602.244 6.953.189 1.686.022 3.372.05 5.058.082l2.519.03c5.929.185 13.096.412 18.423 3.076v2c-3.881.068-7.436.086-11.281-.5-3.934-.529-7.69-.598-11.657-.563l-2.072.014c-1.663.011-3.327.029-4.99.049l2 4 27 1v4l-23-1 1 3c13.042.123 25.983-.176 39-1-8.315-10.173-18.389-16.873-29.688-23.375l-2.625-1.515c-11.007-7.046-11.007-7.046-22.109-6.72zm-296.92 5.691c-5.767 5.864-10.71 12.363-15.658 18.919l1 2c8.964-.29 15.72-3.543 22.125-9.875l1.875-2.125-1-1.875c-1.404-4.387-1.16-8.557-1-13.125-2.704 0-5.49 4.243-7.341 6.081zm110.736-.55c-3.101 3.71-4.645 5.921-4.269 10.719.509 3.825 1.401 6.572 4.14 9.464 3.765 2.79 8.987 5.286 13.735 5.286l.664-2.231c2.07-6.369 3.699-10.054 9.336-13.769l-2.188-1.688c-4.88-4.013-8.235-7.48-10.812-13.312-3.643 0-8.084 3.126-10.606 5.531zm43.606-1.531l.496 2.382c.63 4.526.611 8.931.566 13.493l-.013 2.664c-.012 2.153-.03 4.307-.049 6.461l6 3 1.187-2.75c2.579-4.625 5.194-6.639 10.125-8.5l2.688-.75-1.242-1.653c-3.884-5.434-5.711-9.751-6.758-16.347a261.785 261.785 0 00-4.25-.125l-2.391-.071c-2.567.213-4.151.909-6.359 2.196zm106 1c-1.347 2.571-1.347 2.571-2 5 6.966.525 12.693-.963 19-4l1-2c-6.017-3.009-12.672-3.545-18 1zm-216 9c-5.221 5.602-7.551 9.744-7.38 17.523.64 4.181 2.195 5.708 5.38 8.477 4.965 2.595 9.67 2.197 15 1 3.436-1.423 3.436-1.423 6-3l-.324-1.801c-1.018-7.038.07-12.5 2.324-19.199l-1.906.105c-6.198.196-10.4-.708-16.094-3.105h-3zm28.465 2.355c-3.848 4.615-6.516 7.842-6.403 14.082 1.299 4.934 3.401 8.043 7.73 10.637 5.219 2.302 9.692 1.985 15.208.926l.113-2.633c.653-11.446.653-11.446 3.887-16.367l-2.231-.735c-5.348-1.837-9.465-3.499-13.77-7.265-2.966-.331-2.966-.331-4.534 1.355zm207.222.52c-6.143 3.127-11.867 4.423-18.687 5.125 0 3.999 1.726 5.802 4 9l2.273-.325c7.33-.858 12.852-.368 19.727 2.325l-.496-2.571c-.514-3.494-.603-6.776-.567-10.304l.028-3.493.035-2.632c-2.129 0-4.519 1.902-6.313 2.875zm11.313-.875c-2.176 4.351-1.449 9.402-.176 13.933 1.432 4.009 2.808 7.514 5.176 11.067 2.627.221 5.009.281 7.625.187l2.14-.041c1.746-.035 3.49-.089 5.235-.146-1.477-4.413-3.89-7.771-6.75-11.375l-1.354-1.728a679.525 679.525 0 00-3.896-4.897l-1.922-2.403c-1.305-1.579-2.683-3.097-4.078-4.597h-2zm-159 6c-2.871 3.445-3.534 6.449-3.356 10.945.932 5.386 4.354 9.481 8.356 13.055l3-1c3.612-8.481 2.537-18.436 0-27-3.385 0-5.369 2.013-8 4zm-120-3c-5.492 9.447-5.492 9.447-6 20 1.632 3.672 3.476 6.042 7 8 5.972 1.639 10.541.62 16-2 2.218-1.532 4.035-3.136 6-5l-.992-2.012c-1.232-3.653-1.228-6.999-1.133-10.801l.027-2.099c.023-1.697.06-3.393.098-5.088l-3.578.035-4.672.027-2.356.026-2.285.009-2.095.016c-2.114-.119-3.98-.537-6.014-1.113zm84 8c-2.408 3.96-3.339 6.95-2.688 11.5 1.495 5.465 5.12 8.407 9.688 11.5 3.092 1.58 4.538 2 8 2l.297-2.414c.876-6.213 1.651-10.724 5.703-15.586l-3.625-1.563c-4.075-2.001-6.443-4.449-9.149-8.047l-1.226-1.39c-3.291 0-4.672 1.785-7 4zm148-4v1l11 1v-2h-11zm-11 1l2 4 7-3v-1h-9zm-65 4c-3.027 3.733-3.642 7.252-4 12l1 2c4.464-1.364 6.456-3.099 9-7 1.693-3.706 3-6.897 3-11-3.476 0-6.244 2.043-9 4zm-172.5 1.5c-5.263 1.634-10.031 1.814-15.5 1.5-3.59 8.244-5.214 14.343-1.875 22.875 2.563 2.905 5.112 4.403 8.875 5.125 7.549-.069 12.553-4.185 18-9-.502-2.702-1.028-5.07-2.063-7.625-1.332-4.796-1.096-9.43-.937-14.375-2.44 0-4.19.71-6.5 1.5zm214.625 4.75c-2.688 3.478-3.402 6.446-3.125 10.75.84 3.885 1.885 6.996 4.875 9.687 2.262.571 2.262.571 4.363-1.125 3.195-1.807 5.432-2.05 9.074-2.25l3.239-.199 2.449-.113-.035-3.395-.028-4.418-.025-2.236c-.015-3.251.052-5.845 1.088-8.951-8.629-6.014-14.306-3.674-21.875 2.25zm26.875-1.25c-2.633 4.415-3.476 7.813-2.594 12.933 1.035 3.603 2.739 6.823 4.594 10.067l2.312-1c4.262-1.156 7.914-1.067 12.297-.875 2.579.132 2.579.132 4.391-2.125a81.574 81.574 0 001-5.813c.561-4.033 1.346-7.459 3-11.187a847.91 847.91 0 00-3.813-2.438l-2.144-1.371c-6.689-3.9-13.4-3.309-19.043 1.809zm29 5c-3.127 4.793-3.621 8.438-2.649 14.015.869 3.975 1.836 6.916 4.649 9.985l3-1c6.215-.422 10.284.55 16 3l.332-2.887.48-3.801a7826 7826 0 00.457-3.762c.721-3.503 1.813-5.586 3.731-8.55-.61-3.255-2.724-4.706-5.25-6.625-7.422-5.005-13.577-6.301-20.75-.375zm-148 2c-2.289 3.269-2.178 6.079-2 10 1.75-.115 3.5-.243 5.25-.375l2.953-.211c2.693-.399 4.466-1.049 6.797-2.414l-1.059-1.645-1.379-2.168-1.371-2.144c-1.191-2.043-1.191-2.043-2.191-5.043-3.204 0-4.687 1.917-7 4zm39-3l2 4 1-4h-3zm-91 5c-3.195 4.892-4.781 7.977-4 14 1.963 4.58 5.094 7.07 9 10 2.801.933 4.654 1.163 7.562 1.187l2.38.043c2.282-.039 2.282-.039 4.058-2.23l-1.063-2.875c-1.401-4.772-.659-9.28.063-14.125l-2.231-.551c-5.056-1.303-9.4-2.489-13.77-5.449h-2zm-28 2c-3.335 5.28-3.741 9.93-3 16 1.71 4.232 3.847 6.154 8 8 5.972 1.37 10.621 1.181 16-2l2-3-1.5-2.25c-2.504-4.866-1.732-10.436-1.5-15.75l-3.106.035-4.082.027-2.04.026c-3.727.018-7.151-.195-10.772-1.088zm256 6c-2.955 5.066-2.778 11.028-1.324 16.582a117.758 117.758 0 002.324 6.418l1.906-.141c7.967-.336 12.589 1.804 19.094 6.141l.078-2.125c.346-5.792 1.054-10.132 4.082-15.121 1.128-2.032 1.128-2.032.84-5.754-3.862-5.855-9.238-9.944-16.184-11.485-5.331-.363-7.695 1.353-10.816 5.485zm-324-3a4463.32 4463.32 0 00-6 11.375l-1.735 3.273-1.64 3.125-1.524 2.888c-1.243 2.209-1.243 2.209-1.101 4.339 7.468-.515 11.186-2.605 16.937-7.5 2.275-2.217 2.275-2.217 2.063-4.5-1.01-2.104-1.01-2.104-2.5-4.375-1.666-2.916-2.115-5.313-2.5-8.625h-2zm121 0c-2.243 2.563-3.931 4.609-4.106 8.109.366 3.395.65 5.434 3.106 7.891 1.251-.769 2.501-1.54 3.75-2.313l2.109-1.301c2.123-1.375 4.135-2.846 6.141-4.386l-1.715-1.243-2.223-1.632-2.215-1.618c-1.847-1.507-1.847-1.507-2.847-3.507h-2zm-66.5 4.062c-4.953 1.302-9.495.697-14.5-.062-2.68 5.361-3.572 8.994-3 15 1.783 5.15 4.107 7.599 9 10 6.293.812 10.748-.427 16-4 1.974-2.066 1.974-2.066 3-4l-1.938-2.813c-2.783-4.78-2.866-9.765-3.062-15.187-2.29-.097-2.29-.097-5.5 1.062zm106.5 1.938v7l2 1c2.201-3.805 2.201-3.805 3-8h-5zm-18.188 3.437l-2.193.697c-3.887 1.238-3.887 1.238-7.619 2.866a117.055 117.055 0 004.461 10.054l1.429 2.864 1.485 2.957 1.461 2.933c2.581 5.156 5.242 10.221 8.164 15.192h1l.769-3 1.043-4 .502-1.965c.909-3.465 1.949-6.684 3.373-9.973 1.75-4.532 1.264-8.349.5-13.062l-.33-2.348c-.268-1.887-.56-3.77-.857-5.652-4.782-.367-8.71.966-13.188 2.437zm100.188 5.563c.839 2.162.839 2.162 3 3.062 4.977 1.555 9.779 2.363 14.937 1.375 2.877-2.005 3.266-4.106 4.063-7.437-3.979-3.183-7.55-3.615-12.485-3.504-4.199.841-6.719 3.392-9.515 6.504zm28-1l-1 2c3.459-1.25 6.147-2.676 9-5-3.608 0-5.063.99-8 3zm-242.813-.563c-5.143 2.281-10.638 2.298-16.187 2.563-2.337 5.328-3.277 10.412-1.278 16.031 2.052 3.921 4.155 6.376 8.278 7.969 5.369.606 8.824.2 13.39-2.711 2.655-2.126 4.572-4.573 6.61-7.289l-1.875-2.188c-3.839-5.081-4.495-9.62-5.125-15.812-1.378-.076-1.378-.076-3.813 1.437zm261.813 2.563l-1.145 1.504c-5.878 7.255-13.097 12.239-21.855 15.496l1 2 2.062-.5c6.166-1.05 11.09-.41 16.938 1.5l.297-2.125c1.003-6.363 2.529-11.269 5.703-16.875l-3-1zm64 0c-4.545 7.706-4.439 14.504-2.571 23.031.395 1.953.395 1.953 1.571 2.969 2.442.538 4.897.963 7.359 1.402 2.699.611 5.103 1.507 7.641 2.598-3.687-10.399-7.845-20.238-13-30h-1zm-244 14c3.656 4.478 7.397 8.372 11.797 12.117 2.44 2.086 4.822 4.228 7.203 6.383l2.539 2.281a602.95 602.95 0 014.734 4.312l2.102 1.907 1.836 1.687c1.975 1.449 3.36 2.03 5.789 2.313 2.247-1.352 2.247-1.352 4-3-1.832-4.926-4.206-9.562-6.563-14.25l-1.325-2.646c-4.246-8.435-8.65-16.783-13.112-25.104-6.227 0-14.757 10.047-19 14zm184.75-6.5c-2.367 3.381-2.889 5.907-2.875 9.937l-.008 2.309c.13 2.207.524 4.133 1.133 6.254l2.597.113c6.455.371 11.673.822 17.403 3.887l.515-2.196c2.222-8.862 2.222-8.862 4.797-12.179 1.983-2.471 1.983-2.471 1.375-5.188-2.834-4.094-6.132-6.721-10.972-8.078-6.414-.985-9.58.268-13.965 5.141zm67.25-5.5c2.505 8.349 5.58 13.871 11.906 19.855 4.739 4.854 11.819 13.016 12.281 19.957l-.187 2.188c-4.065-1.355-4.487-3.225-6.5-6.938-2.492-4.703-2.492-4.703-6.5-8.062a235.81 235.81 0 001.187 5.187l.668 2.918c2.534 6.409 9.516 10.982 14.68 15.434 4.268 3.827 4.268 3.827 5.355 7.336l.11 2.125c-4.297-1.39-6.707-3.381-9.813-6.625l-2.394-2.477-1.793-1.898c-.907 2.447-1.012 3.933-.551 6.523 2.311 3.69 5.399 4.577 9.363 6.102 1.425.572 2.848 1.147 4.27 1.726l2.045.825c2.422 1.065 4.617 2.448 6.873 3.824h2c-5.051-25.4-20.564-48.183-39-66-2.167-1.318-2.167-1.318-4-2zm-267 3c-2.515 3.772-2.448 5.52-2 10 1.132 2.535 2.473 4.661 4 7 4.218-3.97 7.612-8.309 11-13l-2.082-.621-2.73-.817-2.708-.808a218.692 218.692 0 01-5.48-1.754zm-96.211 6.027c-3.245 1.764-5.858 2.088-9.477 2.035l-2.449-.027-1.863-.035c-1.562 5.566-1.774 10.842.187 16.312 3.012 4.466 5.374 6.31 10.625 7.688 4.795.371 8.343-1.221 12.188-4 1.914-1.905 3.403-3.805 5-6L.01 187.448c-4.09-5.655-5.92-10.466-6.758-17.382-2.323 0-4.26 1.869-6.211 3.027zm70.21-2.027c-1.838 5.418-2.505 8.876-.097 14.172 2.439 4.061 4.958 6.218 9.43 7.492 6.436 1.008 10.17-.304 15.668-3.664l-.903-1.793c-2.69-5.41-4.48-10.16-5.097-16.207l-2.125.254c-5.875.63-11.05.735-16.875-.254zm430.438 5.5l-1.941 1.406-1.496 1.094c.122 1.914.122 1.914 1 4l5 3 2-12c-1.813 0-3.144 1.468-4.563 2.5zm-440.25 1c-5.176 2.306-10.64 1.746-16.187 1.5-1.538 4.614-1.922 9.383-.281 14.039 2.074 3.932 4.115 6.421 8.28 7.961 6.539 1.005 11.028.056 16.505-3.614 1.775-1.422 1.775-1.422 2.496-4.386l-1.875-1.75c-3.255-3.447-4.336-6.308-4.75-11l-.227-2.422-.148-1.828c-1.384-.079-1.384-.079-3.813 1.5zm260.813 4.5c-2.971 5.811-2.753 12.802-1 19l1.906.043c5.911.329 9.691 1.419 14.5 4.898 1.553 1.243 1.553 1.243 3.594 1.059l.551-2.012c1.82-6.395 3.624-11.284 8.449-15.988-4.907-6.98-8.733-12.06-17.5-13.625-4.794.856-7.38 2.956-10.5 6.625zm-214-1c-5.88 6.903-10.633 14.056-15 22 3.488 2.83 7.321 4.87 11.285 6.941l2.114 1.116c2.22 1.172 4.441 2.339 6.663 3.505 2.226 1.171 4.451 2.342 6.675 3.516 1.381.728 2.763 1.455 4.147 2.18 2.803 1.477 5.476 2.982 8.116 4.742h3c1.636-2.09 1.636-2.09 3.062-4.75l1.535-2.672a169.657 169.657 0 003.403-6.578c-9.904-9.291-9.904-9.291-20.059-18.305-3.309-2.89-6.519-5.89-9.742-8.875-2.154-2.006-2.154-2.006-5.2-2.82zm147.75 2.437l-2.703.871-2.047.692 1.75 3.25.984 1.828c1.503 2.282 3.289 4.044 5.266 5.922 1.005-1.789 2.004-3.582 3-5.375l1.687-3.024c1.463-2.413 1.463-2.413 1.313-4.601-3.547-1.252-5.723-.723-9.25.437zm233.316 2.266a558.211 558.211 0 00-3.504 3.547l-1.775 1.777c-5.383 4.754-5.383 4.754-7.787 10.973 3.229 2.287 6.069 2.216 9.91 1.601 5.081-1.462 8.312-4.648 11.59-8.664 1.656-2.694 1.656-2.694 1.5-5-1.364-2.641-2.994-4.749-5-6.937-2.42-.226-2.42-.226-4.934 2.703zm-221.879 4.359c-2.842 3.817-3.31 5.391-3.25 10.063l.028 2.757.035 2.118 2.379-.106c6.392-.165 10.976.027 16.621 3.106l.625-3.938c1.197-5.544 4.007-9.582 7.375-14.062-5.328-4.503-5.328-4.503-11.875-6.313-5.201.52-8.589 2.439-11.938 6.375zm-232.625-2.062c-4.846 2.497-9.22 2.394-14.562 2-1.86 3.72-1.438 7.94-1 12 1.265 3.712 3.238 6.325 6.187 8.937 4.607 1.741 9.193 2.091 13.844.266 3.028-1.668 5.724-3.563 7.969-6.203-1.143-2.476-2.362-4.486-4-6.688-2.426-4.018-3.226-7.731-4-12.312-1.519-.084-1.519-.084-4.438 2zm210.438-1c-11.333 4.334-21.899 9.102-28.16 20.023-1.036 2.079-1.036 2.079-.84 4.977 2.823-1.314 5.139-2.778 7.539-4.758l1.996-1.636 2.09-1.731a7291.41 7291.41 0 014.289-3.52l2.106-1.733c3.962-3.247 7.972-6.433 11.98-9.622l-1-2zm-264 2c-1.342 3.1-2.672 6.206-4 9.312l-1.157 2.67-1.093 2.568-1.016 2.365c-.9 2.188-.9 2.188-.734 5.085 5.732.458 8.553-.344 13-4 2.323-2.61 2.323-2.61 4-5l-1.242-1.575c-2.835-3.668-5.357-6.94-6.758-11.425h-1zm313 6c-4.222 3.94-5.688 7.26-6.934 12.851-.083 2.698.304 3.993 1.934 6.149 2.219.592 2.219.592 4.75.562 4.43.256 7.359 1.2 11.25 3.438h2l.699-2.012c2.027-5.487 3.787-9.227 8.301-12.988-1.779-4.366-4.516-7.842-8.86-9.868-5.189-1.629-8.387-1.002-13.14 1.868zm54 3c-2.814 5.565-3.425 10.845-3 17l1 3c2.133.846 2.133.846 4.687 1.375 5.982 1.617 8.967 4.279 13.313 8.625l1.39-2.957c.62-1.286 1.239-2.571 1.86-3.856l.91-1.947c1.782-3.659 3.308-6.139 6.84-8.24-.936-6.17-3.953-11.379-8.707-15.469-6.693-4.23-13.355-3.966-18.293 2.469zm-105.125-.25l-1.873 1.48a3905.94 3905.94 0 00-19.409 15.492c-2.196 1.761-4.395 3.52-6.593 5.278.322 4.187 1.495 7.132 3.551 10.722l1.384 2.434 1.065 1.844c14.387-6.217 28.726-12.528 43-19-3.873-8.275-7.68-16.251-14-23-2.415 0-5.226 3.239-7.125 4.75zm-284.875-2.75c-.86 6.583-1.714 13.166-2.564 19.751-.29 2.238-.58 4.477-.873 6.715-.42 3.222-.836 6.444-1.25 9.666l-.398 3.022c-.594 4.648-1.081 9.148-.915 13.846 3.196-4.795 5.23-10.138 7.442-15.44a237.072 237.072 0 011.767-4.078c3.415-7.698 5.961-13.78 2.812-22.114l-1.021-2.368a362.222 362.222 0 01-1.688-5.188c-.434-1.272-.87-2.543-1.312-3.812h-2zm118 2c-.387 6.384-.409 9.961 4 15l3 1 8-16h-15zm-66 2.937c-4.734 2.774-9.605 3.063-15 3.063-1.614 3.227-1.45 6.501-1 10 1.42 4.033 3.534 6.577 6.687 9.437 4.276 2.017 7.664 2.397 12.313 1.563 3.937-2.08 7.082-4.633 10-8v-2l-2.313-1.688c-4.393-3.78-5.836-8.691-6.687-14.312-1.455-.091-1.455-.091-4 1.937zm489 .063l-2.5 2.312c-4.56 3.814-9.801 5.32-15.5 6.688.298 7.54 1.347 12.217 6.75 17.812 3.403 1.796 6.41 1.94 10.25 2.188l2-1c.226-3.916.428-7.833.625-11.75l.195-3.368.156-3.242.159-2.983c-.141-2.767-.71-4.312-2.135-6.657zm-431.875 3.5c-4.896 2.176-9.873 1.756-15.125 1.5-1.312 5.723-1.019 9.858 2 15 3.447 3.713 6.605 5.881 11.687 6.312 4.782-.061 7.427-1.569 11.313-4.312 1.903-2.086 1.903-2.086 3-4l-2.313-2.125c-3.905-4.178-5.857-8.228-6.687-13.875-1.393-.077-1.393-.077-3.875 1.5zm249.875 4.5c-4.321 4.644-6.169 8.9-6.063 15.25l.063 3.75 1.906.226c6.775 1.041 10.988 3.238 16.094 7.774l1.101-2.266c2.943-5.765 5.03-9.8 10.899-12.734-2.189-6.08-4.88-11.024-10.922-13.922-5.127-1.63-8.427-.974-13.078 1.922zm156-2c-4.039 5.715-6.293 11.226-8 18 5.244-3.889 8.85-7.738 11-14v-3l-3-1zm-383 2c-1.822 3.891-3.63 7.789-5.438 11.687l-1.564 3.342-1.494 3.232c-.456.98-.912 1.959-1.38 2.968-1.058 2.608-1.68 5-2.124 7.771 10.681 4.638 21.384 9.215 32.187 13.562l2.59 1.049 2.391.955 2.102.842c1.74.7 1.74.7 3.73.592 1.676-3.6 3.339-7.206 5-10.813l1.445-3.103 1.367-2.979 1.27-2.745c1.099-2.404 1.099-2.404.918-5.36l-2.073-1.067c-24.023-12.377-24.023-12.377-34.548-18.64-2.22-1.453-2.22-1.453-4.38-1.293zm178 1c-1.364 4.092.233 6.47 1.937 10.187l.881 1.983a631.936 631.936 0 002.182 4.83l1.797-2.325c2.514-3.054 5.118-5.221 8.203-7.675l-2.313-2.938-1.301-1.652c-2.455-2.498-4.661-2.415-8.074-2.473l-3.312.063zm-282.938 3.937c-3.928 2.32-7.524 2.649-12.023 2.887-2.033-.045-2.033-.045-3.04 1.176-.41 5.246.116 8.576 3 13 3.426 3.389 6.352 5.873 11.25 6.25 4.703-.314 7.901-1.338 11.235-4.786 1.22-1.449 2.374-2.953 3.516-4.464l-1.426-1.469c-4.312-4.642-6.733-8.467-8.574-14.531-1.448-.092-1.448-.092-3.938 1.937zm57.5 1c-4.185 2.161-7.891 2.604-12.558 2.789l-2.004.274c-1.752 3.504-.81 7.268 0 11 2.258 4.354 4.403 7.161 9 9 4.66.711 8.654.512 12.875-1.688 3.056-2.262 4.518-3.91 6.125-7.312l-2.313-1.625c-4.583-4.05-5.977-8.407-6.687-14.375-1.513-.082-1.513-.082-4.438 1.937zm333.438 2.063l-2.375 2.687-1.336 1.512c-2.95 4.121-3.586 8.132-3.914 13.113l-.227 3.238-.148 2.45 2.047.769 2.703 1.043 2.672 1.02c2.508 1.136 4.451 2.433 6.578 4.168-.17-16.001-.17-16.001-6-30zm-95.614 7.839c-2.773 4.07-4.016 7.124-3.386 12.161l2.195.297c5.949.92 10.106 1.893 14.805 5.703l1.101-1.828c3.143-4.997 5.702-8.327 10.899-11.172-1.335-4.671-3.833-7.594-8-10-6.723-2.403-12.938-.493-17.614 4.839zm195.614-3.839l-1.563 2.187c-2.425 2.799-3.812 3.591-7.062 5.125-3.293 1.742-5.026 2.896-6.188 6.5-.71 4.818 1.042 8.331 3.813 12.188 2.783 2.933 4.531 3.872 8.437 4.937 4.229.074 6.067-.582 9.563-2.937 4.58-4.474 6.326-8.877 8-15-2.983-1.525-5.818-2.94-9-4-1.063-2.313-1.063-2.313-2-5a173.346 173.346 0 00-2-4h-2zm-220.871 4.332l-2.301 1.066c-2.427 1.127-4.847 2.27-7.266 3.414-2.417 1.13-4.835 2.256-7.254 3.382-1.504.702-3.007 1.406-4.508 2.114l-2.083.98-1.814.857c-2.272 1.02-4.591 1.93-6.903 2.855l5 16c10.365-1.403 20.605-3.161 30.875-5.125a6493.281 6493.281 0 0015.125-2.875c-1.057-6.386-2.245-12.507-4.375-18.625l-1.211-3.602c-1.086-2.877-1.086-2.877-3.278-3.529-3.681-.421-6.761 1.535-10.007 3.088zm84.871 1.668c-4.907 5.021-6.87 9.421-7.125 16.437l.125 2.563 3.562.625c5.836 1.43 9.309 5.246 13.438 9.375l1.066-2.047c3.281-5.928 5.695-9.208 11.934-11.953-.623-6.536-3.231-10.231-7.813-14.813-5.438-3.732-9.947-4.462-15.187-.187zm-322.563.437c-4.453 2.024-8.599 2.285-13.437 2.563-1.28 4.653-.895 7.75.906 12.101 2.124 3.687 5.304 6.004 9.094 7.899 5.968.617 9.405-.15 14.367-3.555 2.134-1.889 3.001-3.682 3.633-6.445l-2.313-1.625c-3.864-3.415-5.718-7.337-6.687-12.375-3.054-.245-3.054-.245-5.563 1.437zm-51.437 1.563c-.974 2.179-1.944 4.36-2.91 6.543a515.683 515.683 0 01-2.024 4.507c-1.272 2.843-2.066 4.796-2.066 7.95 5.736.459 8.503-.424 13-4 1.794-1.624 1.794-1.624 3-3-1.243-3.728-3.208-5.274-6-8a97.05 97.05 0 01-3-4zm108 1l-1.703.496c-2.428.532-4.566.603-7.047.566l-2.422-.027-1.828-.035c-1.285 4.67-.757 7.658.82 12.07 1.601 2.619 3.73 4.122 6.18 5.93a1487.04 1487.04 0 003.562-8.375l1.037-2.407.967-2.304.905-2.127c.773-1.867.773-1.867-.471-3.787zm226.687 9.75c-2.051 3.951-2.383 6.835-2.687 11.25l3.625.75c5.518 1.377 9.448 4.207 13.375 8.25l.918-1.61c3.158-5.325 5.976-9.355 12.082-11.39-1.518-5.797-3.998-9.723-8.813-13.375-8.074-2.307-13.169-.214-18.5 6.125zm195.313-4.75c.524 4.617 1.075 6.1 4 10v-11c-2.075-.149-2.075-.149-4 1zm-499.75 2.875c-5.742 2.871-9.85 3.531-16.25 3.125-.355 4.987-.586 8.829 1.687 13.375 3.139 3.562 5.578 6.097 10.188 7.5 5.35.214 8.893-.879 13.062-4.25 2.475-2.593 2.475-2.593 2.063-6.625l-3-1c-1.687-2.743-2.638-5.697-3.625-8.75-.39-1.199-.39-1.199-.79-2.422l-.585-1.828c-1.177-.075-1.177-.075-2.75.875zm55.312 2.062c-4.744 2.437-9.292 2.847-14.562 3.063-.542 6.637.075 10.549 4 16 3.22 2.927 5.891 3.893 10.25 4.312 5.419-.451 8.956-2.345 12.687-6.437 1.227-1.806 1.227-1.806 1.063-3.875l-2.313-1.75c-4.297-3.598-5.884-7.786-6.687-13.25-1.513-.082-1.513-.082-4.438 1.937zm226.438 2.063c.282 2.272.576 4.542.875 6.812l.492 3.832c.428 3.473.428 3.473 2.633 6.356l2.687-2.375c2.62-2.197 5.03-3.563 8.313-4.625-2.065-5.048-4.116-7.51-9-10a87.617 87.617 0 00-6 0zm-203 1l-12 31c2.022 2.021 3.152 2.598 5.76 3.604l2.336.909 2.525.963 2.593 1.001c1.81.696 3.622 1.391 5.434 2.082 2.777 1.061 5.55 2.133 8.322 3.206l5.276 2.024 2.519.975 2.346.89 2.06.79c1.989.701 1.989.701 4.829.556 1.737-4.232 3.464-8.468 5.182-12.708.586-1.442 1.175-2.884 1.766-4.324.849-2.067 1.688-4.138 2.524-6.211l.811-1.957c.632-1.578 1.182-3.187 1.717-4.8-1.269-2.539-2.142-2.657-4.738-3.696l-2.397-.97-2.607-1.03-2.665-1.067c-1.863-.745-3.728-1.486-5.594-2.224a1763.928 1763.928 0 01-8.566-3.424l-5.425-2.16-2.595-1.041-2.417-.951c-.7-.279-1.401-.557-2.124-.843-2.021-.746-2.021-.746-4.872-.594zm417 2a75.302 75.302 0 00-3.188 3.812c-3.321 3.942-5.948 5.599-10.812 7.188.435 5.439 1.399 8.845 5 13 3.939 2.843 6.919 4.035 11.812 3.875 3.309-.729 3.309-.729 6.188-2.875.404-2.955.404-2.955.25-6.313l-.047-3.426c-.402-6.46-1.379-8.799-6.203-13.261l-1-2h-2zm-131 3c-5.583 5.183-7.132 10.622-8 18l1.976.847c6.24 2.862 9.921 5.647 14.024 11.153l1.75-2.188 2.25-2.812 1.812-2.625c2.83-3.072 5.29-3.951 9.188-5.375-.923-6.877-2.883-12.154-8-17-5.467-3.604-9.343-3.523-15 0zm-390.438 2.437c-4.796 2.104-9.377 2.295-14.562 2.563-.29 5.596-.21 9.186 3 14 3.707 3.879 6.69 5.795 11.984 6.129 4.209-.27 7.569-1.69 10.563-4.668 1.212-1.438 2.34-2.945 3.453-4.461l-2.313-1.688c-4.396-3.782-6.03-7.831-7.687-13.312-2.185-.17-2.185-.17-4.438 1.437zm489.438-1.437c-3.263 3.262-2.058 12.242-2.068 16.711.008 3.43.032 6.859.068 10.289 6.208-1.884 9.341-4.276 12.75-9.875 1.359-3.399 1.887-6.493 2.25-10.125l-3.688-1.25c-3.68-1.366-6.381-3.094-9.312-5.75zm-429 1l-2.074 1.425c-3.322 1.787-6.011 2.273-9.739 2.762l-3.52.481-2.667.332c-.29 5.596-.21 9.186 3 14 3.654 3.823 6.677 5.848 11.914 6.199 5.29-.505 9.088-3.101 12.586-6.949l1.5-2.25-2.25-2c-2.741-2.718-4.262-5.647-5.856-9.133-.963-2.122-.963-2.122-2.894-4.867zm289.687 7.75c-2.051 3.951-2.383 6.835-2.687 11.25l1.758.41c6.314 1.74 9.508 4.245 13.242 9.59 1.812-1.751 3.242-3.351 4.687-5.438 2.991-3.314 6.266-4.804 10.313-6.562-.608-6.383-2.917-10.202-7.75-14.375-7.972-3.986-13.915-1.591-19.563 5.125zm-59.383-3.254l-2.512.463c-1.747.324-3.494.649-5.24.976-2.674.502-5.349.996-8.025 1.488l-5.098.948-2.424.448c-3.081.58-6.027 1.188-9.005 2.181l2 22c6.211.023 12.422.042 18.634.055 2.113.005 4.227.011 6.341.02 3.035.012 6.071.018 9.107.022l2.869.016h2.669l2.349.007c2.235-.044 2.235-.044 5.031-1.12-.307-4.272-.621-8.542-.938-12.813l-.263-3.681-.264-3.526-.238-3.253c-.21-2.818-.21-2.818-1.297-5.727-4.711-.225-9.091.628-13.696 1.496zm23.696 7.504c-1.421 2.931-2.322 5.818-3 9l1.793.515c5.934 1.82 9.787 4.065 14.207 8.485l.996-1.391c3.973-5.125 7.938-7.439 14.004-9.609-1.91-5.128-3.732-8.372-8-12-7.914-2.638-14.436-1.466-20 5zm-280.375 1.437c-4.829 2.081-9.418 2.294-14.625 2.563-1.279 5.695-.918 8.917 2 14 3.503 3.614 6.567 5.851 11.625 6.375 4.96-.055 8.71-2.106 12.375-5.375 1.227-2.077 1.227-2.077 2-4l-2.313-2.188c-3.728-3.902-5.818-7.781-7.687-12.812-1.32-.087-1.32-.087-3.375 1.437zm-53.625 1.563l-7 18c8.616.105 8.616.105 15-4 1.197-2.061 1.197-2.061 2-4l-1.496-1.68-1.942-2.195-1.933-2.18c-1.63-1.945-1.63-1.945-2.63-3.945h-2zm438 1c-.448 6.617.83 10.743 3.75 16.625 5.552 11.791 9.437 23.576 9.312 36.75l-.027 3.773-.035 2.852-3-1-.262-3.375c-.996-11.3-2.295-23.96-8.738-33.625-.611 10.841.307 19.802 3.808 30.097 1.314 3.945 1.791 7.77 2.192 11.903-1.922-.711-1.922-.711-4-2-.828-2.164-.828-2.164-1.25-4.625l-.453-2.477-.297-1.898h-1c-1.061 7.505-1.061 7.505 1.617 14.297 2.359 2.098 4.787 3.905 7.383 5.703l3.011 2.265c4.147 3.71 4.147 3.71 8.989 5.735.747-28.533-5.403-56.287-20-81h-1zm86 1a264.486 264.486 0 00-2.563 4.25c-3.172 4.901-6.067 6.62-11.437 8.75 2.102 6.417 4.265 11.261 9.875 15.375 4.578 1.346 8.554 1.191 12.812-.938 4.315-2.753 6.634-6.483 7.774-11.445.248-1.655.403-3.324.539-4.992l-1.977-.629c-5.777-2.037-9.296-4.033-12.965-8.981l-1.058-1.39h-1zm-422.063-.125l-3.285.554c-2.563.3-2.563.3-3.652 1.571-.063 5.97 1.058 10.362 5 15l3 1 7-18c-2.893-1.447-4.909-.674-8.063-.125zm329.063 3.125c-5.409 5.572-10 10.828-10 19l4.883 1.855c2.117 1.145 2.117 1.145 8.117 6.145v-26l-3-1zm-42.367 7.679c-2.217 3.641-3.222 7.106-3.633 11.321l3.687 1.187c5.644 2.114 8.898 5.96 12.313 10.813l1.687-2.75c3.702-5.203 7.179-7.539 13.313-9.25-.897-6.817-2.748-11.424-8-16-7.283-4.086-14.228-1.635-19.367 4.679zm-358.696-3.242c-4.708 2.504-9.672 2.563-14.937 2.563-1.549 4.364-.606 7.643.906 11.843 2.011 3.965 5.138 6.179 9.094 8.157 5.644.376 9.098.119 14-3 2.314-2.062 2.314-2.062 4-4-.775-3.153-.775-3.153-3.375-5.125-3.33-3.647-4.366-7.178-5.625-11.875-2.146-.191-2.146-.191-4.063 1.437zm325.063 2.563c-3.354 3.925-5 6.784-5 12l3.625 1.062c4.311 1.575 6.453 3.875 9.148 7.512l1.227 1.426h2a58.151 58.151 0 002.625-3.313c3.33-4.072 6.383-5.224 11.375-6.687-.479-5.027-1.723-8.135-5-12-7.119-4.737-12.939-5.034-20 0zm-268.438-.563c-4.796 2.104-9.377 2.295-14.562 2.563-1.492 5.425-.615 9.167 2 14 3.816 4.471 3.816 4.471 9.172 6.238 6.98.201 10.517-1.148 15.703-5.988l1.125-1.25-2-4h-2c-1.506-2.854-2.632-5.682-3.625-8.75-.39-1.199-.39-1.199-.79-2.422l-.585-1.828c-2.185-.17-2.185-.17-4.438 1.437zm244.438-.437l1 18 8-4 4-1c-.276-3.958-.741-5.7-3.375-8.75-4.19-3.655-4.19-3.655-9.625-4.25zm215 1c1.277 4.992 3.173 7.576 7 11l-1-11c-3.747-1.398-3.747-1.398-6 0zm-436 2c-1.88 4.516-3.75 9.037-5.61 13.562-.634 1.539-1.271 3.078-1.912 4.615-.918 2.206-1.826 4.416-2.732 6.627l-.877 2.09c-.683 1.679-1.284 3.39-1.87 5.106 1.255 2.508 2.08 2.643 4.63 3.695l2.328.971 2.531 1.029 2.59 1.068c1.812.744 3.625 1.485 5.44 2.223a1557.58 1557.58 0 018.316 3.424c1.76.721 3.519 1.441 5.28 2.16l2.512 1.041 2.356.952 2.063.843c2.252.787 2.252.787 5.955.594 1.715-4.215 3.424-8.433 5.127-12.653.58-1.435 1.162-2.87 1.746-4.304.839-2.06 1.67-4.124 2.502-6.188l.795-1.941c1.126-2.813 1.83-4.852 1.83-7.914a8193.583 8193.583 0 00-12.5-5.125l-3.496-1.438c-8.94-3.654-17.947-7.088-27.004-10.437zm-103.875 6.437c-4.847 2.145-9.892 2.288-15.125 2.563-.29 5.597-.185 9.168 3 14 3.694 3.799 7.726 5.699 13 6 5.047-.962 8.697-3.01 12-7-1.179-2.786-2.458-4.515-4.5-6.813-2.77-3.195-3.598-6.087-4.5-10.187-1.387-.075-1.387-.075-3.875 1.437zm56.437 2.5c-4.744 2.437-9.292 2.847-14.562 3.063-.445 5.448-.422 9.836 2.68 14.488 2.952 3.381 6.004 5.311 10.527 5.703 5.455-.307 10.07-2.081 13.793-6.191.717-2.09.717-2.09 1-4l-2.25-1.313c-3.979-3.888-5.135-8.453-6.75-13.687-1.513-.082-1.513-.082-4.438 1.937zm481.438-.937l-1.067 1.828c-3.388 5.484-6.061 8.471-11.933 11.172.805 5.837 3.607 9.208 8 13 3.361 1.789 6.265 2.432 9.992 1.504 2.803-1.123 4.871-2.368 7.008-4.504.097-2.77.097-2.77-.25-5.875l-.266-3.18c-.459-2.791-.952-4.591-2.484-6.945a149.177 149.177 0 00-6-4 90.281 90.281 0 01-3-3zm-247.813.5l-4.736.144c-3.817.116-7.634.236-11.451.356l-1 30c4.443.289 8.886.575 13.33.854 1.505.096 3.01.193 4.514.291 9.739.637 19.392.995 29.156.855.875-11.029 1.114-21.939 1-33-10.282-.082-20.537.175-30.813.5zm211.813 4.5c-1.664 3.327-1.143 7.033-1.125 10.687l-.012 2.397c.008 4.743.348 9.238 1.137 13.916 2.987 1.314 4.249.923 7.437-.063 3.794-1.823 6.586-4.193 8.563-7.937.948-3.305 1.549-6.595 2-10l-1.977-.446c-6.459-1.657-9.615-3.595-14.023-8.554h-2zm-171 5c-3.259 3.258-4.233 5.54-5 10l1.793.882c5.299 2.749 8.712 5.271 12.207 10.118l1.215-1.172c4.535-4.155 9.062-6.622 14.785-8.828-1.515-5.765-2.623-9.8-8-13-6.611-3.225-11.103-1.73-17 2zm33.625 2.312c-1.95 3.226-2.764 6.027-3.625 9.688l3.687 1.125c4.595 1.699 6.472 3.948 9.313 7.875l2 2 1.215-1.426c4.457-4.882 8.372-7.048 14.785-8.574-1.136-6.476-3.044-10.583-8-15-7.265-3.979-13.828-1.09-19.375 4.312zm38.375-2.312c-3.808 3.845-5.601 7.54-6 13l1.574.664c5.217 2.372 8.026 4.736 11.426 9.336l2 2 .996-1.391c3.973-5.125 7.938-7.439 14.004-9.609-.116-6.498-1.664-9.672-6.156-14.368-6.089-5.392-11.635-3.76-17.844.368zm-370.438 2c-4.846 2.497-9.22 2.394-14.562 2-.355 4.987-.586 8.829 1.687 13.375 3.985 4.522 6.911 7.273 13.188 7.797 5.3-.429 9.58-3.376 13.125-7.172-1.081-2.433-2.16-4.18-3.938-6.188-2.695-3.676-3.813-7.467-5.062-11.812-1.519-.084-1.519-.084-4.438 2zm-63.562 0v12c3.363-3.586 3.363-3.586 2.812-7.125-.588-2.977-.588-2.977-2.812-4.875zm11 0a2688.1 2688.1 0 00-3.5 7.875l-1.012 2.261-.957 2.168-.889 2c-.76 1.705-.76 1.705-.642 3.696 6.057.417 9.19.122 14-4 1.16-2.069 1.16-2.069 2-4-.936-1.106-1.874-2.21-2.813-3.313l-1.582-1.863c-1.477-1.679-3.017-3.251-4.605-4.824zm100.312 4.5l-3.011.281-2.301.219c-.363 5.103-.583 8.874 1.812 13.5 2.123 2.645 2.123 2.645 5.188 4.5 1.17-2.79 2.337-5.582 3.5-8.375l1.012-2.407.957-2.304.888-2.127c.755-1.784.755-1.784.643-3.787-2.936 0-5.766.225-8.688.5zm-68.312 4.5l-2.25 1.437c-4.855 2.486-10.405 2.312-15.75 2.563-.29 5.596-.21 9.186 3 14 3.98 4.263 6.982 5.793 12.824 6.136 4.464-.28 7.27-2.35 10.55-5.199 1.84-1.771 1.84-1.771 1.626-3.937l-2.313-2.25c-2.746-2.811-4.096-5.19-5.687-8.75l-1.188-2.375-.812-1.625zm511 2l-.813 1.793c-3.023 6.095-6.094 9.198-12.187 12.207 2.22 6.29 4.85 9.925 11 13 5.231.443 8.984.284 13.457-2.602 3.86-3.499 5.429-7.802 5.793-12.898l-.25-2.5-3.625-.75c-5.518-1.377-9.448-4.208-13.375-8.25zm-454 1l-2.375 1.437c-5.063 2.182-10.14 2.563-15.625 2.563-.592 6.412-.329 11.051 3.523 16.367 2.825 3.124 5.383 4.514 9.613 4.754 5.513-.29 10.094-1.959 13.864-6.121.922-1.967.922-1.967 1-4a277.308 277.308 0 00-5-5 117.718 117.718 0 01-3-7l-2-3zm256 1l-1 21 9-5 4-1c-.477-5.01-1.856-8.07-5-12-3.209-2.379-3.209-2.379-7-3zm21.187 6.875c-2.053 2.932-2.878 4.615-3.187 8.125 1.288.838 2.58 1.671 3.875 2.5l2.179 1.406c1.864 1.257 1.864 1.257 3.946 1.094l3 6 4-2v-2c2.854-1.506 5.681-2.633 8.75-3.625l2.422-.789 1.828-.586c-.402-5.487-2.297-9.058-6-13-7.527-4.965-14.805-3.823-20.813 2.875zm36.813.125c-3.617 4.573-3.617 4.573-5 10l1.574.664c5.217 2.372 8.026 4.736 11.426 9.336l2 2 1.5-2.25c3.123-3.436 6.326-4.883 10.5-6.75 1.336-.661 2.67-1.327 4-2-2.706-8.245-2.706-8.245-8.856-14.11-6.25-2.595-12.203-1.383-17.144 3.11zm163-1c.401 5.619 2.18 8.086 6 12h2l-2-14c-2.463 0-3.852.854-6 2zm-128 3c-2.253 2.713-4.128 5.416-3.832 9.082 1.101 2.537 2.202 2.951 4.707 4.043 2.61 1.165 4.718 2.27 7.125 3.875 1.177-4.625 1.114-9.079 1.062-13.813l-.013-2.389c-.012-1.933-.03-3.865-.049-5.798-3.125 0-6.645 3.174-9 5zm-432.375-1.563c-4.217 1.818-7.789 2.094-12.332 2.352-2.257-.039-2.257-.039-3.293 1.211-.387 5.519.774 9.299 4.375 13.5 2.714 2.91 4.616 4.266 8.676 4.738 5.502.18 8.648-.462 12.949-4.238 1.389-2.101 1.389-2.101 2-4l-2.25-1.875c-3.686-3.623-5.085-8.335-6.75-13.125-1.32-.087-1.32-.087-3.375 1.437zm56.875 4c-5.068 2.263-9.996 2.563-15.5 2.563-.355 4.987-.586 8.829 1.687 13.375 3.36 3.814 5.711 6.18 10.688 7.562 5.813.1 9.317-1.74 13.562-5.625l2.063-2.312-1.207-1.434c-3.95-4.93-6.184-9.467-7.793-15.566-1.336-.083-1.336-.083-3.5 1.437zm460.5.563v8c1.764-3.088 2-4.233 2-8h-2z"
    fill="#D69B65" />
</svg>