<svg width="78" height="62" viewBox="0 0 78 62" fill="none" xmlns="http://www.w3.org/2000/svg">
<path d="M59.9897 61.8932L59.2191 49.3848H60.2147L57.4682 20.8129H20.4734L17.7268 49.3848H18.7225L17.9519 61.8932L7.08005 62L8.78902 49.3887H9.7694L13.6604 20.8167H6.48114V15.6135H14.2097L14.7399 10.5819C11.2075 10.4751 8.50673 10.2996 5.12311 10.0174C3.82231 8.09857 2.93349 6.26371 2.33077 4.73402C1.99508 4.71876 1.65938 4.70731 1.31988 4.69205C0.270839 1.99126 0 0 0 0C13.5192 0.782009 28.8275 0.782005 38.967 0.782005C49.1064 0.782005 64.4147 0.782009 77.9339 0C77.9339 0 77.6631 1.99126 76.614 4.69205C76.2745 4.70731 75.9388 4.71876 75.6031 4.73402C75.0042 6.26371 74.1154 8.09857 72.8108 10.0174C69.431 10.2958 66.7264 10.4713 63.194 10.5819L63.7242 15.6135H71.5863V20.8167H64.2774L68.1683 49.3887H69.1487L70.8539 62L59.9858 61.8932H59.9897ZM41.5037 10.6773V15.6097H57.0829L56.7167 10.7116C50.8878 10.7765 45.5358 10.704 41.4999 10.6773H41.5037ZM21.2287 10.7116L20.8625 15.6097H36.4416V10.6773C32.4057 10.704 27.0537 10.7765 21.2287 10.7116Z" fill="#FDF1E6"/>
</svg>
