<svg xmlns="http://www.w3.org/2000/svg" width="102" height="102" fill="none" viewBox="0 0 102 102"><g clip-path="url(#a)"><g filter="url(#b)"><path fill="#d69b65" d="M50.63 91.936c-23.783 0-43.132-19.349-43.132-43.132C7.498 25.02 26.847 5.67 50.63 5.67s43.133 19.35 43.133 43.133-19.35 43.132-43.133 43.132m0-83.835C28.187 8.1 9.928 26.36 9.928 48.803S28.187 89.506 50.63 89.506s40.703-18.259 40.703-40.702C91.333 26.36 73.073 8.1 50.63 8.1"/></g><path fill="#d69b65" d="m21.117 88.914.49-.49a.97.97 0 0 0 0-1.375l-.321-.322a.973.973 0 0 0-1.375 0l-.49.489-1.25-1.251.58-.582a.84.84 0 0 0 0-1.19l-.219-.22a.8.8 0 0 0-.285-.186.32.32 0 0 0 .033-.428h.112a.326.326 0 0 0 .326-.325.326.326 0 0 0-.326-.326h-.346v-.725a.325.325 0 0 0 .3-.323c0-.17-.133-.31-.3-.322v-3.984h-.217v3.984a.325.325 0 0 0-.293.322c0 .168.13.305.293.322v.727h-.347a.326.326 0 0 0-.325.325c0 .179.146.325.325.325h.121a.323.323 0 0 0 .03.426.8.8 0 0 0-.291.189l-.22.22a.84.84 0 0 0 0 1.19l.582.581-1.252 1.251-.489-.49a.973.973 0 0 0-1.375 0l-.322.323a.974.974 0 0 0 0 1.375l.49.49-.46.46a1.015 1.015 0 0 0 0 1.436l.292.292c.21.21.5.312.801.278.233-.026.445-.149.611-.315l.452-.453 1.213 1.213-.573.573a.86.86 0 0 0 0 1.19l.219.22a.843.843 0 0 0 1.19 0l.22-.22a.84.84 0 0 0 0-1.19l-.543-.543 1.243-1.243.49.49a.97.97 0 0 0 .687.284c.26 0 .504-.1.687-.284l.322-.322a.97.97 0 0 0 0-1.375zm-3.429 0-1.234 1.234-1.232-1.232 1.234-1.234zm.25.249 1.233 1.234-1.234 1.234-1.234-1.234zm1.482.985-1.234-1.234 1.234-1.234 1.234 1.234zm-1.483-1.483-1.232-1.232 1.233-1.234 1.233 1.232zm2.205-1.707a.646.646 0 0 1 .912 0l.322.322a.646.646 0 0 1 0 .912l-.49.49-1.235-1.233zm-2.788-2.534.22-.22a.51.51 0 0 1 .727 0l.22.22c.2.2.2.527 0 .727l-.584.583-.583-.583c-.2-.2-.2-.526 0-.727m-2.856 3.768a.646.646 0 0 1 0-.912l.322-.322a.645.645 0 0 1 .912 0l.49.49-1.233 1.235zm1.234 2.678a.64.64 0 0 1-.912 0l-.322-.322a.643.643 0 0 1 0-.912l.491-.49 1.234 1.234zm2.758 2.486-.22.22c-.2.2-.526.2-.727 0l-.22-.22a.51.51 0 0 1 0-.727l.584-.583.583.583c.2.2.2.527 0 .727m2.886-2.808-.322.322a.64.64 0 0 1-.912 0l-.49-.49 1.235-1.233.489.49a.646.646 0 0 1 0 .911m-3.338 4.887v-.285h.347a.326.326 0 0 0 .325-.325.326.326 0 0 0-.325-.325h-.91a.326.326 0 0 0-.326.325c0 .179.147.325.326.325h.346v.284h-.343l-.473 2.965s.477.303 1.084.26.824-.347.824-.347l-.55-2.877zm67.272-6.521.49-.49a.97.97 0 0 0 0-1.375l-.322-.322a.973.973 0 0 0-1.375 0l-.49.489-1.25-1.251.58-.582a.84.84 0 0 0 0-1.19l-.219-.22a.8.8 0 0 0-.285-.186.32.32 0 0 0 .033-.428h.112a.326.326 0 0 0 .326-.325.326.326 0 0 0-.326-.326h-.347v-.725a.325.325 0 0 0 .301-.323c0-.17-.133-.31-.3-.322v-3.984h-.217v3.984a.325.325 0 0 0-.292.322c0 .168.129.305.292.322v.727h-.347a.326.326 0 0 0-.325.325c0 .179.146.325.325.325h.122a.323.323 0 0 0 .03.426.8.8 0 0 0-.292.189l-.22.22a.84.84 0 0 0 0 1.19l.582.581-1.251 1.251-.49-.49a.973.973 0 0 0-1.374 0l-.322.323a.973.973 0 0 0 0 1.375l.49.49-.46.46a1.015 1.015 0 0 0 0 1.436l.292.292c.21.21.5.312.8.278.234-.026.446-.149.611-.315l.453-.453 1.212 1.213-.573.573a.86.86 0 0 0 0 1.19l.22.22a.843.843 0 0 0 1.19 0l.22-.22a.84.84 0 0 0 0-1.19l-.543-.543 1.243-1.243.489.49a.97.97 0 0 0 .687.284c.26 0 .504-.1.688-.284l.322-.322a.97.97 0 0 0 0-1.375zm-3.43 0-1.234 1.234-1.232-1.232 1.234-1.234zm.25.249 1.233 1.234-1.234 1.234-1.234-1.234zm1.482.985-1.234-1.234 1.234-1.234 1.234 1.234zm-1.483-1.483-1.232-1.232 1.234-1.234 1.232 1.232zm2.205-1.707a.646.646 0 0 1 .912 0l.322.322a.646.646 0 0 1 0 .912l-.49.49-1.234-1.233zm-2.788-2.534.22-.22a.51.51 0 0 1 .727 0l.22.22c.2.2.2.527 0 .727l-.584.583-.583-.583c-.2-.2-.2-.526 0-.727m-2.856 3.768a.646.646 0 0 1 0-.912l.323-.322a.646.646 0 0 1 .911 0l.491.49-1.234 1.235zm1.234 2.678a.64.64 0 0 1-.911 0l-.322-.322a.643.643 0 0 1 0-.912l.49-.49 1.234 1.234zm2.758 2.486-.22.22c-.2.2-.526.2-.727 0l-.219-.22a.51.51 0 0 1 0-.727l.583-.583.583.583c.2.2.2.527 0 .727m2.886-2.808-.322.322a.64.64 0 0 1-.912 0l-.489-.49 1.234-1.233.49.49a.646.646 0 0 1 0 .911m-3.324 4.887v-.285h.346a.326.326 0 0 0 .326-.325.326.326 0 0 0-.326-.325h-.91a.326.326 0 0 0-.325.325c0 .179.146.325.325.325h.347v.284h-.344l-.472 2.965s.477.303 1.084.26.823-.347.823-.347l-.55-2.877z"/><path stroke="#d69b65" stroke-miterlimit="10" stroke-width=".304" d="M43.898 9.029c.307-.05.612-.12.922-.155l-.14-.941c-.594.085-1.183.205-1.775.307l.335 1.724 1.374-.245c.459-.073.922-.122 1.382-.184l-.209-1.744c.305-.034.609-.087.915-.106l.919-.07.129 1.752c.9-.09 1.805-.085 2.708-.113l-.007-1.757-1.687.043.043.95.824-.021m.053 2.391-.878.022.046.95 1.61-.04-.007-1.757c-.91.027-1.823.028-2.73.117l.132 1.752-.82.062c-.274.024-.545.067-.818.1l-.212-1.745c-.439.06-.88.104-1.317.177l-1.307.234.335 1.724c.495-.086.99-.181 1.485-.262l-.142-.941c-.255.037-.508.09-.762.133m-7.828-.301c.291-.111.576-.238.874-.332l-.322-.895c-.287.09-.562.21-.843.318l-.838.332.668 1.624 1.298-.512c.438-.156.88-.3 1.32-.452L38.08 9.5c.578-.21 1.174-.36 1.764-.533l.47 1.693.653-.185.66-.155c.44-.1.88-.208 1.322-.3l-.35-1.723c-.55.118-1.097.25-1.646.376l.228.924.803-.186m.516 2.332-.855.198.23.923c.524-.118 1.045-.246 1.569-.359l-.35-1.721c-.445.094-.887.203-1.331.303-.222.054-.445.099-.665.159l-.657.187.474 1.691c-.528.151-1.058.291-1.574.48l-.55-1.669c-.42.145-.841.28-1.257.432l-1.235.488.667 1.624c.47-.18.933-.375 1.406-.547l-.325-.895c-.245.081-.481.186-.722.278m-7.738 1.245c.264-.166.52-.344.791-.498l-.49-.815c-.515.31-1.014.644-1.521.965l.972 1.463 1.174-.753c.395-.245.804-.468 1.205-.702l-.864-1.53c.527-.317 1.079-.587 1.624-.868l.794 1.567.603-.31c.204-.097.411-.187.617-.281.412-.185.82-.378 1.237-.555l-.681-1.62c-.517.223-1.028.462-1.541.692l.405.861.751-.34m.961 2.186-.8.362.408.86c.49-.219.975-.447 1.468-.66l-.68-1.619c-.42.178-.832.373-1.248.559-.206.096-.417.183-.62.287l-.608.311.796 1.566-.732.376c-.246.122-.477.27-.717.403l-.867-1.527c-.382.224-.773.433-1.147.67l-1.118.717.972 1.463 1.272-.812-.493-.814c-.22.134-.435.277-.653.416m-7.36 2.73.677-.644-.64-.705-1.303 1.242 1.237 1.247 1.01-.963c.165-.163.34-.317.517-.467l.527-.457-1.145-1.333c.234-.199.46-.406.7-.598l.724-.57 1.083 1.383c.699-.574 1.453-1.075 2.185-1.604l-.984-1.455-1.376.978.565.765.672-.478m1.379 1.953-.716.509.567.764 1.312-.934-.984-1.455c-.74.532-1.496 1.04-2.2 1.62l1.085 1.38-.648.51-.622.537-1.148-1.33-.502.435-.25.218-.241.229-.962.917 1.238 1.247 1.092-1.042-.641-.703-.56.535m-6.68 4.102.542-.762-.764-.567-1.044 1.468 1.456.983c.542-.755 1.062-1.527 1.653-2.246l-1.381-1.086.57-.724.6-.697 1.33 1.147.444-.512.222-.256.234-.246.936-.98-1.247-1.238-1.165 1.222.703.641.568-.596m1.726 1.649-.606.635.705.64 1.11-1.166-1.247-1.237-.943.989q-.238.244-.458.507l-.447.516 1.332 1.145c-.178.21-.364.411-.535.626l-.509.647-1.383-1.083c-.563.685-1.053 1.423-1.572 2.141l1.455.984.875-1.23-.765-.565-.45.63m-5.769 5.324.386-.852-.86-.407c-.246.547-.5 1.092-.738 1.643l1.62.681c.182-.428.38-.848.57-1.273.098-.21.187-.426.293-.633l.318-.62-1.566-.797.421-.82c.138-.274.302-.534.451-.803l1.528.868c.23-.39.443-.788.685-1.17l.732-1.142-1.463-.972c-.303.474-.611.946-.91 1.423l.815.493c.143-.235.295-.464.442-.696m2.013 1.282c-.155.248-.323.488-.467.743l.815.49c.277-.459.577-.904.863-1.358l-1.463-.972-.738 1.15c-.24.387-.458.788-.688 1.18l1.53.865c-.285.47-.525.964-.777 1.451l-1.567-.793-.303.59c-.096.2-.184.404-.276.605-.18.404-.37.804-.543 1.212l1.62.68c.198-.461.412-.916.617-1.375l-.86-.406-.32.706m-4.615 6.349.21-.91-.922-.231c-.134.585-.276 1.17-.402 1.757l1.722.349c.096-.455.207-.907.31-1.36.054-.227.1-.455.162-.68l.19-.67-1.691-.474c.168-.59.328-1.184.537-1.763l1.668.551c.147-.427.285-.858.44-1.282l.498-1.261-1.624-.668c-.205.525-.421 1.045-.614 1.574l.895.325c.087-.261.198-.513.296-.77m2.246.865c-.104.273-.224.54-.311.82l.895.321c.08-.256.19-.502.285-.752l.296-.748-1.625-.668-.503 1.271c-.152.43-.294.862-.442 1.293l1.67.548c-.19.515-.322 1.048-.476 1.574l-1.693-.47-.181.639-.152.647c-.097.431-.204.861-.295 1.295l1.722.349c.106-.492.226-.98.336-1.47l-.923-.229-.175.755m-3.278 7.13.024-.934-.951-.046-.046 1.8 1.757.007c.027-.93.028-1.86.12-2.786l-1.752-.133.07-.918c.026-.306.074-.61.11-.915l1.744.212c.06-.447.105-.898.18-1.343l.239-1.335-1.725-.335c-.097.554-.203 1.108-.293 1.664l.941.142c.04-.272.095-.542.141-.813m2.35.406c-.047.289-.113.575-.146.865l.942.14c.077-.531.185-1.057.275-1.585l-1.725-.336-.24 1.346c-.072.45-.12.903-.18 1.354l1.744.21c-.03.272-.08.543-.095.817l-.062.82L12.947 45c-.088.882-.083 1.77-.112 2.654l1.757.007.039-1.51-.951-.042-.02.774m-1.824 7.633c-.05-.307-.119-.612-.155-.922l-.941.14c.086.594.205 1.184.307 1.776l1.725-.336-.246-1.373c-.072-.46-.121-.922-.183-1.383l-1.745.21c-.034-.306-.087-.61-.105-.916l-.07-.918 1.751-.13c-.089-.9-.084-1.805-.113-2.708l-1.757.007.043 1.687.95-.043-.02-.824m2.383-.059.022.877.951-.045-.04-1.61-1.758.006c.028.911.028 1.823.118 2.731l1.752-.133.062.821c.023.273.067.545.099.817l-1.744.213c.06.438.103.88.176 1.316l.234 1.308 1.725-.336c-.086-.495-.181-.989-.262-1.485l-.941.142c.037.255.089.508.132.763m-.29 7.843c-.11-.291-.238-.576-.331-.874l-.896.322c.09.287.211.563.319.843l.331.838 1.625-.668-.513-1.298c-.156-.437-.3-.88-.451-1.32l-1.67.548c-.209-.578-.36-1.174-.532-1.764l1.693-.47-.186-.652-.154-.66c-.1-.441-.208-.88-.301-1.323l-1.722.35c.117.55.25 1.097.376 1.646l.924-.228-.186-.803m2.335-.525.197.855.923-.23c-.118-.524-.245-1.045-.358-1.569l-1.722.349c.094.446.203.888.304 1.332.053.222.098.445.158.665l.187.657 1.692-.474c.15.527.29 1.058.478 1.574l-1.668.55c.145.419.28.841.432 1.257l.488 1.235 1.625-.668c-.181-.468-.376-.932-.548-1.405l-.895.325c.082.244.186.48.278.722m1.237 7.748c-.165-.264-.343-.52-.497-.79l-.816.49c.31.514.644 1.014.966 1.52l1.463-.972-.754-1.174c-.244-.395-.467-.804-.702-1.205l-1.53.864c-.316-.526-.586-1.078-.868-1.624l1.567-.793-.309-.604c-.098-.204-.188-.41-.282-.616-.184-.413-.378-.822-.554-1.237l-1.62.68c.222.518.461 1.028.692 1.542l.86-.406-.34-.75m2.179-.973.363.8.86-.408c-.219-.49-.447-.976-.66-1.468l-1.62.68c.18.42.374.832.56 1.248.096.206.183.417.286.62l.312.608 1.566-.797.375.733c.122.246.27.477.404.717l-1.528.867c.225.382.434.773.67 1.147l.718 1.118 1.463-.973-.813-1.271-.813.493c.134.22.277.435.415.653m2.745 7.357-.644-.677-.704.64 1.241 1.304 1.247-1.237-.962-1.01a10 10 0 0 1-.468-.517l-.457-.527-1.332 1.145c-.2-.234-.407-.461-.598-.7l-.57-.724 1.383-1.083c-.574-.7-1.075-1.453-1.604-2.185l-1.456.984.979 1.376.765-.566-.478-.671m1.946-1.38.509.716.764-.568-.934-1.312-1.455.984c.532.74 1.04 1.497 1.62 2.201l1.38-1.085.509.647.538.623-1.33 1.148.435.502.218.25.229.241.917.962 1.247-1.238-1.042-1.093-.703.642.535.56m4.098 6.691-.761-.542-.568.764 1.468 1.044.984-1.455c-.755-.543-1.527-1.063-2.247-1.653l-1.086 1.38-.723-.569-.698-.6 1.148-1.331-.513-.444-.256-.222-.245-.234-.981-.936-1.238 1.247 1.222 1.165.642-.702-.597-.569m1.647-1.733.636.606.64-.705-1.166-1.11-1.238 1.247.99.943q.244.238.507.458l.516.448 1.145-1.333c.209.178.411.364.625.535l.648.509-1.083 1.383c.684.563 1.423 1.053 2.14 1.572l.985-1.455-1.23-.875-.566.765.632.45m5.338 5.766-.85-.385-.409.86c.548.245 1.092.5 1.644.737l.68-1.62c-.427-.181-.848-.38-1.272-.57-.21-.098-.426-.187-.633-.292l-.62-.319-.797 1.566-.82-.42c-.274-.138-.535-.302-.803-.452l.867-1.528c-.39-.229-.788-.443-1.17-.684l-1.14-.733-.973 1.463c.474.304.945.611 1.423.91l.493-.814c-.235-.143-.464-.295-.696-.443m1.27-2.018c.248.155.488.324.742.468l.491-.816c-.46-.276-.905-.576-1.359-.862l-.972 1.463 1.15.738c.387.24.788.458 1.181.688l.864-1.53c.47.285.964.524 1.451.776l-.793 1.568.59.303c.2.096.404.184.605.276.404.18.805.37 1.212.543l.68-1.62c-.461-.198-.916-.412-1.375-.617l-.405.86.705.32m6.36 4.611-.91-.21-.231.923c.585.134 1.17.276 1.757.401l.349-1.722c-.455-.096-.907-.207-1.36-.31-.227-.054-.455-.1-.68-.161l-.67-.191-.474 1.691c-.59-.168-1.184-.328-1.763-.536l.551-1.668c-.427-.148-.857-.285-1.282-.441l-1.26-.498-.669 1.625c.525.204 1.045.42 1.574.613l.325-.895c-.26-.087-.513-.197-.77-.295m.854-2.23c.273.103.54.224.82.31l.322-.895c-.257-.08-.502-.189-.752-.284l-.749-.296-.667 1.625 1.27.502c.43.153.863.294 1.294.442l.547-1.669c.516.189 1.049.321 1.575.476l-.47 1.692.639.182.646.151c.432.098.862.204 1.295.295l.35-1.722c-.492-.105-.98-.225-1.47-.336l-.23.924.755.174m7.13 3.276-.933-.025-.046.95 1.8.047.007-1.757c-.93-.027-1.86-.028-2.786-.12l-.133 1.752-.919-.07c-.305-.027-.61-.074-.914-.11l.212-1.744c-.447-.061-.898-.106-1.343-.18l-1.335-.24-.335 1.725c.554.098 1.108.203 1.663.293l.143-.94c-.272-.04-.542-.095-.813-.141m.401-2.359c.288.048.574.113.865.146l.14-.941c-.531-.077-1.057-.185-1.586-.275l-.335 1.725 1.345.24c.45.072.903.12 1.355.18l.209-1.744c.273.03.543.08.817.095l.821.062-.129 1.752c.882.088 1.769.083 2.654.111l.007-1.756-1.51-.039-.043.951.775.02m7.646 1.832c-.308.05-.613.119-.922.154l.14.942c.594-.086 1.183-.206 1.775-.308l-.336-1.724-1.373.246c-.46.072-.922.121-1.383.183l.21 1.744c-.306.035-.61.087-.916.106l-.918.07-.13-1.752c-.9.09-1.804.085-2.708.114l.007 1.757 1.687-.043-.043-.95-.824.02m-.063-2.392.878-.022-.046-.95-1.61.04.007 1.757c.911-.027 1.823-.027 2.73-.117l-.132-1.752.82-.062c.274-.023.545-.067.818-.099l.212 1.744c.439-.06.88-.103 1.317-.176l1.307-.234-.335-1.725c-.495.086-.99.181-1.485.262l.142.941c.255-.037.508-.089.763-.132m7.845.301c-.291.11-.577.237-.874.33l.322.896c.286-.09.562-.21.843-.318l.837-.331-.667-1.625-1.298.512c-.438.157-.88.301-1.32.452l.548 1.669c-.578.21-1.175.361-1.764.533l-.47-1.693-.653.186-.66.154c-.44.1-.88.208-1.322.301l.349 1.722c.55-.117 1.098-.25 1.647-.376l-.228-.924-.804.186m-.526-2.333.855-.197-.231-.924c-.523.119-1.044.246-1.568.36l.349 1.721c.445-.094.888-.203 1.332-.304.221-.053.445-.098.665-.158l.657-.187-.474-1.692c.527-.15 1.058-.29 1.573-.479l.552 1.669c.418-.145.84-.28 1.256-.432l1.235-.488-.668-1.625c-.468.181-.933.376-1.405.548l.325.895c.244-.082.481-.186.722-.278m7.748-1.247c-.264.165-.52.344-.791.497l.49.816c.515-.31 1.014-.644 1.522-.965l-.973-1.464-1.174.754c-.395.244-.804.467-1.205.702l.864 1.53c-.526.316-1.078.587-1.624.868l-.794-1.567-.603.309c-.204.098-.411.188-.616.282-.413.184-.822.377-1.238.554l.681 1.62c.518-.222 1.028-.461 1.541-.692l-.405-.861-.751.34m-.974-2.183.8-.362-.408-.86c-.49.219-.976.447-1.468.66l.68 1.62c.42-.179.832-.374 1.248-.56.206-.096.417-.183.62-.286l.608-.312-.797-1.566.733-.375c.246-.122.478-.27.717-.404l.867 1.528c.382-.225.773-.434 1.147-.67l1.118-.718-.972-1.463-1.272.813.493.813c.22-.134.435-.277.653-.416m7.36-2.729-.678.643.64.705 1.304-1.242-1.237-1.247-1.01.963q-.25.243-.517.468l-.527.456 1.145 1.333c-.234.199-.46.406-.7.598l-.724.57-1.083-1.384c-.7.575-1.453 1.076-2.185 1.605l.984 1.456 1.376-.979-.566-.765-.671.478m-1.394-1.954.716-.509-.568-.764-1.312.934.984 1.455c.74-.532 1.497-1.04 2.201-1.62l-1.086-1.38.648-.509.623-.538 1.147 1.33.502-.435.251-.217.24-.23.962-.916-1.237-1.247-1.093 1.042.642.702.56-.535m6.701-4.102-.542.762.764.567 1.044-1.468-1.456-.983c-.543.755-1.062 1.527-1.653 2.246l1.381 1.086-.57.724-.6.697-1.33-1.147-.445.512-.222.256-.234.245-.935.981 1.247 1.238 1.165-1.222-.703-.641-.569.596m-1.731-1.649.606-.636-.705-.64-1.11 1.166 1.247 1.238.943-.99q.238-.245.458-.507l.447-.516-1.332-1.145c.177-.209.364-.41.535-.625l.509-.648 1.383 1.083c.563-.684 1.053-1.423 1.572-2.14l-1.455-.985-.875 1.23.765.566.45-.632m5.769-5.323-.386.852.86.408c.246-.548.5-1.092.738-1.644l-1.62-.68c-.182.427-.38.848-.57 1.273-.098.21-.187.425-.293.633l-.318.62 1.566.797-.421.82c-.138.274-.302.534-.451.802l-1.528-.867c-.23.39-.443.788-.684 1.17l-.733 1.141 1.463.973c.303-.475.611-.946.91-1.423l-.814-.493c-.144.234-.296.463-.443.695m-2.029-1.281c.155-.248.324-.488.468-.742l-.815-.491c-.277.46-.577.905-.863 1.358l1.463.973.738-1.15c.24-.388.458-.788.688-1.181l-1.53-.864c.285-.47.524-.964.776-1.452l1.568.794.303-.591c.096-.2.184-.403.276-.604.18-.404.37-.805.543-1.212l-1.62-.681c-.198.462-.413.917-.617 1.376l.86.405.32-.705m4.629-6.35-.21.91.922.231c.134-.585.276-1.17.402-1.757l-1.722-.349c-.096.455-.207.907-.31 1.36-.055.226-.1.455-.162.68l-.19.67 1.69.474c-.168.59-.327 1.184-.536 1.763l-1.668-.551c-.147.427-.285.858-.44 1.282l-.499 1.261 1.625.668c.204-.525.42-1.045.614-1.574l-.895-.325c-.087.261-.198.513-.296.77m-2.232-.862c.104-.274.224-.541.311-.82l-.895-.323c-.08.257-.189.502-.285.752l-.295.749 1.625.668.502-1.272c.153-.429.294-.862.442-1.293l-1.67-.547c.19-.516.322-1.049.476-1.575l1.693.47.182-.638.15-.647c.099-.432.205-.862.296-1.295l-1.722-.349c-.105.491-.225.98-.336 1.47l.924.228.174-.754m3.273-7.131-.024.934.95.046.046-1.8-1.757-.007c-.027.93-.028 1.86-.119 2.786l1.752.133-.07.919c-.027.305-.075.61-.11.914l-1.745-.212c-.06.447-.105.898-.18 1.343l-.239 1.335 1.725.336c.098-.555.203-1.109.293-1.664l-.941-.142c-.04.272-.094.541-.14.812m-2.355-.407c.047-.289.112-.575.145-.865l-.94-.14c-.078.53-.186 1.056-.276 1.585l1.725.336.24-1.346c.072-.45.12-.903.18-1.354l-1.744-.21c.03-.272.08-.543.095-.817l.062-.82 1.752.128c.088-.882.083-1.768.112-2.654l-1.757-.006-.038 1.509.95.043.02-.774m1.828-7.632c.05.308.12.612.155.922l.941-.14c-.086-.594-.205-1.183-.307-1.775l-1.725.335.246 1.374c.072.459.122.922.183 1.382l1.745-.209c.034.305.087.609.105.915l.07.919-1.751.129c.089.9.084 1.805.113 2.708l1.757-.007-.043-1.687-.95.043.02.824m-2.388.058-.022-.878-.95.046.04 1.61 1.757-.007c-.027-.91-.027-1.823-.117-2.73l-1.752.133-.062-.821c-.023-.274-.067-.545-.099-.817l1.744-.213c-.06-.438-.103-.88-.176-1.316l-.234-1.308-1.725.336c.087.495.181.989.263 1.485l.94-.142c-.037-.256-.089-.509-.132-.763m.302-7.843c.11.291.237.576.33.874l.896-.322c-.09-.287-.211-.562-.319-.843l-.33-.838-1.626.668.513 1.298c.156.438.3.88.451 1.32l1.67-.548c.209.578.36 1.174.532 1.764l-1.693.47.186.652.154.66c.1.441.208.88.301 1.323l1.722-.35c-.117-.55-.25-1.097-.376-1.646l-.923.228.186.803m-2.335.526-.198-.855-.923.231c.118.523.246 1.044.359 1.568l1.722-.349c-.094-.446-.203-.888-.304-1.332-.053-.221-.098-.445-.158-.665l-.187-.657-1.692.474c-.15-.527-.291-1.058-.479-1.574l1.668-.55c-.144-.419-.279-.841-.431-1.257l-.488-1.235-1.625.668c.181.469.376.933.548 1.405l.894-.325c-.081-.244-.186-.48-.278-.722m-1.251-7.749c.165.264.344.52.497.79l.816-.49c-.31-.515-.644-1.014-.966-1.52l-1.463.971.754 1.175c.244.395.467.803.702 1.205l1.53-.865c.316.527.587 1.079.868 1.625l-1.567.793.309.604c.097.203.188.41.282.616.184.413.377.821.554 1.237l1.62-.68c-.222-.518-.461-1.028-.692-1.542l-.861.406.34.75m-2.194.973-.362-.8-.86.409c.219.49.448.975.66 1.468l1.62-.681c-.179-.42-.374-.831-.56-1.247-.096-.207-.183-.418-.286-.62l-.312-.609-1.566.797-.375-.733c-.122-.245-.27-.477-.404-.716l1.528-.868c-.225-.381-.434-.772-.67-1.146l-.718-1.118-1.463.972.813 1.272.813-.494c-.134-.22-.277-.435-.416-.653m-2.723-7.357.644.677.704-.64-1.241-1.304-1.247 1.237.962 1.01c.164.165.317.34.468.517l.456.527 1.333-1.145c.2.234.406.461.598.7l.57.724-1.383 1.083c.574.7 1.075 1.453 1.604 2.185l1.456-.983-.979-1.376-.765.565.478.671m-1.952 1.381-.509-.715-.764.567.934 1.312 1.455-.984c-.532-.74-1.04-1.497-1.62-2.201l-1.38 1.086-.509-.648-.538-.623 1.33-1.148-.435-.502-.218-.25-.229-.24-.916-.962-1.247 1.237 1.041 1.093.703-.642-.535-.56m-4.098-6.692.76.542.568-.764-1.467-1.043-.984 1.455c.755.542 1.527 1.062 2.246 1.653l1.086-1.381.724.57.697.6-1.147 1.33.512.445.256.222.245.234.981.935 1.238-1.247-1.222-1.165-.642.703.597.569m-1.661 1.731-.636-.605-.64.705 1.166 1.11 1.238-1.247-.99-.943a9 9 0 0 0-.507-.458l-.516-.448-1.145 1.333c-.209-.178-.411-.364-.626-.535l-.647-.509 1.083-1.383c-.685-.563-1.423-1.053-2.14-1.572l-.985 1.455 1.23.875.565-.765-.63-.449m-5.312-5.768.852.386.408-.86c-.548-.246-1.092-.5-1.644-.738l-.68 1.62c.427.181.848.38 1.272.57.211.098.426.187.633.292l.621.319.797-1.566.82.42c.274.138.534.302.802.452l-.867 1.528c.39.229.788.443 1.17.684l1.141.732.973-1.463c-.475-.303-.946-.61-1.423-.909l-.494.814c.235.143.464.295.696.443m-1.282 2.02c-.248-.155-.489-.323-.743-.468l-.491.816c.46.276.905.576 1.359.863l.972-1.464-1.15-.738c-.388-.24-.788-.458-1.181-.688l-.864 1.53c-.47-.285-.964-.524-1.451-.776l.793-1.567-.591-.304c-.2-.095-.403-.184-.604-.276-.404-.18-.805-.37-1.212-.543l-.681 1.62c.462.198.917.413 1.376.617l.405-.86-.705-.32M59.25 9.41l.911.21.23-.922c-.585-.134-1.169-.276-1.756-.402l-.349 1.722c.455.096.907.207 1.36.31.226.054.454.1.679.162l.67.19.474-1.691c.591.169 1.185.328 1.763.537l-.55 1.668c.426.147.857.285 1.281.44l1.262.498.667-1.624c-.524-.205-1.045-.421-1.574-.614l-.324.895c.26.087.513.198.77.296m-.864 2.23c-.274-.104-.541-.224-.821-.31l-.322.895c.257.08.502.188.752.284l.749.296.667-1.625-1.27-.502c-.43-.153-.863-.295-1.294-.442l-.547 1.669c-.516-.19-1.049-.322-1.575-.476l.47-1.692-.639-.182-.646-.151c-.432-.098-.862-.204-1.295-.295l-.35 1.721c.492.106.98.226 1.47.337l.23-.924-.755-.175M51.596 8.47l.934.023.046-.95-1.8-.046-.007 1.757c.93.027 1.86.028 2.787.119l.133-1.752.918.07c.306.027.61.074.915.11l-.213 1.744c.448.061.898.106 1.344.18l1.334.24.335-1.725c-.554-.098-1.108-.203-1.663-.293l-.142.941c.272.04.541.094.812.14m-.41 2.357c-.29-.048-.575-.113-.866-.146l-.14.94c.532.078 1.057.186 1.586.276l.335-1.725-1.345-.24c-.45-.072-.903-.12-1.355-.18l-.209 1.744c-.272-.03-.543-.08-.817-.095l-.821-.062.13-1.752c-.883-.088-1.77-.083-2.655-.112l-.007 1.757 1.51.039.043-.95-.774-.02"/><path fill="#d69b65" d="M54.668 21.273a4.443 4.443 0 0 1-8.143 0l-.133.058a4.588 4.588 0 0 0 8.41 0z"/><path fill="#d69b65" d="M53.856 20.874a3.553 3.553 0 0 1-6.512 0l-.134.058a3.699 3.699 0 0 0 6.78 0z"/><path fill="#d69b65" d="m48.156 20.472-.133.058a2.81 2.81 0 0 0 5.148 0l-.133-.058a2.664 2.664 0 0 1-4.882 0"/><path fill="#d69b65" d="M52.227 20.073a1.774 1.774 0 0 1-3.251 0l-.134.058a1.92 1.92 0 0 0 3.518 0z"/><path fill="#d69b65" d="M51.409 19.672a.884.884 0 0 1-1.62 0l-.134.058a1.03 1.03 0 0 0 1.887 0zm3.259-4.831a4.443 4.443 0 0 1-8.143 0l-.133.059a4.588 4.588 0 0 0 8.41 0z"/><path fill="#d69b65" d="M53.856 14.442a3.553 3.553 0 0 1-6.512 0l-.134.058a3.699 3.699 0 0 0 6.78 0z"/><path fill="#d69b65" d="m48.156 14.04-.133.06a2.81 2.81 0 0 0 5.148 0l-.133-.06a2.664 2.664 0 0 1-4.882 0"/><path fill="#d69b65" d="M52.227 13.642a1.774 1.774 0 0 1-3.251 0l-.134.058a1.92 1.92 0 0 0 3.518 0z"/><path fill="#d69b65" d="M51.409 13.24a.884.884 0 0 1-1.62 0l-.134.059a1.03 1.03 0 0 0 1.887 0zm-.862 4.782a4.443 4.443 0 0 1-8.143 0l-.133.058a4.588 4.588 0 0 0 8.41 0z"/><path fill="#d69b65" d="M49.734 17.622a3.553 3.553 0 0 1-6.512 0l-.134.059a3.699 3.699 0 0 0 6.78 0z"/><path fill="#d69b65" d="M48.922 17.221a2.664 2.664 0 0 1-4.881 0l-.134.058a2.809 2.809 0 0 0 5.149 0z"/><path fill="#d69b65" d="M48.105 16.822a1.774 1.774 0 0 1-3.252 0l-.133.058a1.92 1.92 0 0 0 3.518 0z"/><path fill="#d69b65" d="M47.287 16.42a.884.884 0 0 1-1.621 0l-.134.058a1.03 1.03 0 0 0 1.888 0zm11.561 1.602a4.443 4.443 0 0 1-8.143 0l-.134.058a4.588 4.588 0 0 0 8.41 0z"/><path fill="#d69b65" d="M58.03 17.622a3.553 3.553 0 0 1-6.513 0l-.133.059a3.699 3.699 0 0 0 6.779 0z"/><path fill="#d69b65" d="M57.218 17.221a2.664 2.664 0 0 1-4.882 0l-.133.058a2.809 2.809 0 0 0 5.148 0z"/><path fill="#d69b65" d="M56.407 16.822a1.774 1.774 0 0 1-3.252 0l-.133.058a1.92 1.92 0 0 0 3.518 0z"/><path fill="#d69b65" d="M55.589 16.42a.884.884 0 0 1-1.621 0l-.134.058a1.03 1.03 0 0 0 1.888 0zm-.921 59.978a4.443 4.443 0 0 0-8.143 0l-.133-.058a4.588 4.588 0 0 1 8.41 0z"/><path fill="#d69b65" d="M53.856 76.8a3.553 3.553 0 0 0-6.512 0l-.134-.058a3.699 3.699 0 0 1 6.78 0z"/><path fill="#d69b65" d="m48.156 77.2-.133-.059a2.81 2.81 0 0 1 5.148 0l-.133.059a2.664 2.664 0 0 0-4.882 0"/><path fill="#d69b65" d="M52.227 77.6a1.774 1.774 0 0 0-3.251 0l-.134-.058a1.92 1.92 0 0 1 3.518 0z"/><path fill="#d69b65" d="M51.409 78a.884.884 0 0 0-1.62 0l-.134-.058a1.03 1.03 0 0 1 1.887 0zm3.259 4.831a4.443 4.443 0 0 0-8.143 0l-.133-.058a4.588 4.588 0 0 1 8.41 0z"/><path fill="#d69b65" d="M53.856 83.23a3.553 3.553 0 0 0-6.512 0l-.134-.058a3.699 3.699 0 0 1 6.78 0z"/><path fill="#d69b65" d="m48.156 83.632-.133-.058a2.81 2.81 0 0 1 5.148 0l-.133.058a2.664 2.664 0 0 0-4.882 0"/><path fill="#d69b65" d="M52.227 84.033a1.774 1.774 0 0 0-3.251 0l-.134-.058a1.92 1.92 0 0 1 3.518 0z"/><path fill="#d69b65" d="M51.409 84.433a.884.884 0 0 0-1.62 0l-.134-.059a1.03 1.03 0 0 1 1.887 0zm-.862-4.782a4.443 4.443 0 0 0-8.143 0l-.133-.058a4.588 4.588 0 0 1 8.41 0z"/><path fill="#d69b65" d="M49.734 80.052a3.553 3.553 0 0 0-6.512 0l-.134-.058a3.698 3.698 0 0 1 6.78 0z"/><path fill="#d69b65" d="M48.922 80.452a2.664 2.664 0 0 0-4.881 0l-.134-.059a2.809 2.809 0 0 1 5.149 0z"/><path fill="#d69b65" d="M48.105 80.853a1.773 1.773 0 0 0-3.252 0l-.133-.058a1.92 1.92 0 0 1 3.518 0z"/><path fill="#d69b65" d="M47.287 81.252a.884.884 0 0 0-1.621 0l-.134-.058a1.03 1.03 0 0 1 1.888 0zm11.561-1.601a4.443 4.443 0 0 0-8.143 0l-.134-.058a4.588 4.588 0 0 1 8.41 0z"/><path fill="#d69b65" d="M58.03 80.052a3.553 3.553 0 0 0-6.513 0l-.133-.058a3.698 3.698 0 0 1 6.779 0z"/><path fill="#d69b65" d="M57.218 80.452a2.664 2.664 0 0 0-4.882 0l-.133-.059a2.809 2.809 0 0 1 5.148 0z"/><path fill="#d69b65" d="M56.407 80.853a1.773 1.773 0 0 0-3.252 0l-.133-.058a1.92 1.92 0 0 1 3.518 0z"/><path fill="#d69b65" d="M55.589 81.252a.884.884 0 0 0-1.621 0l-.134-.058a1.03 1.03 0 0 1 1.888 0zM48.445 4.83a2.948 2.948 0 1 0 4.17-4.169 2.948 2.948 0 0 0-4.17 4.17m2.085-3.804 1.72 1.72-1.72 1.72-1.72-1.72zM48.445 97.17a2.948 2.948 0 1 0 4.17-4.169 2.948 2.948 0 0 0-4.17 4.17m2.085-3.804 1.72 1.72-1.72 1.72-1.72-1.72zM7.662 45.818a2.948 2.948 0 1 1-4.17 4.169 2.948 2.948 0 0 1 4.17-4.17m-3.804 2.084 1.72 1.72 1.719-1.72-1.72-1.72zm94.929-2.083a2.948 2.948 0 1 1-4.17 4.169 2.948 2.948 0 0 1 4.17-4.17m-3.804 2.084 1.72 1.72 1.719-1.72-1.72-1.72z"/><g clip-path="url(#c)"><path fill="#d69b65" stroke="#d69b65" d="m51.587 45.11 8.194-8.194a1.75 1.75 0 0 1 2.631 2.296l-.01.014-.011.013-.113.128-.01.013-8.206 8.205 8.191 8.188.12.132a1.75 1.75 0 0 1-2.416 2.5l-.013-.01-.012-.012-.129-.112-.012-.01-.012-.013-8.192-8.188-8.19 8.19a1.75 1.75 0 0 1-2.631-2.296l.01-.014.011-.012.112-.129.011-.012 8.202-8.202-8.192-8.189a1.75 1.75 0 0 1 2.295-2.63l.027.02.127.112.013.01.013.013z"/></g></g><defs><clipPath id="a"><path fill="#fff" d="M0 0h101.25v101.25H0z"/></clipPath><clipPath id="c"><path fill="#fff" d="M32 28h40v40H32z"/></clipPath><filter id="b" width="101.945" height="101.945" x="-.342" y="-2.169" color-interpolation-filters="sRGB" filterUnits="userSpaceOnUse"><feFlood flood-opacity="0" result="BackgroundImageFix"/><feColorMatrix in="SourceAlpha" result="hardAlpha" values="0 0 0 0 0 0 0 0 0 0 0 0 0 0 0 0 0 0 127 0"/><feOffset/><feGaussianBlur stdDeviation="3.92"/><feComposite in2="hardAlpha" operator="out"/><feColorMatrix values="0 0 0 0 0.898039 0 0 0 0 0.764706 0 0 0 0 0.517647 0 0 0 0.54 0"/><feBlend in2="BackgroundImageFix" result="effect1_dropShadow_4656_280"/><feBlend in="SourceGraphic" in2="effect1_dropShadow_4656_280" result="shape"/></filter></defs></svg>