<svg xmlns="http://www.w3.org/2000/svg" width="96" height="120" fill="none" viewBox="0 0 96 120"><g filter="url(#a)"><path fill="#fff" d="M16.876 17.81c-5.007 2.421-7.426 8.541-5.644 14.337l21.855 67.516 26.252-5.898 26.252-5.897-9.723-70.25c-.923-5.978-5.775-10.48-11.35-10.531-16.554-.137-32.791 3.507-47.643 10.703z"/></g><path fill="#ff9f05" d="M50.572 7.935 29.83 12.582l-1.09-4.735c-.364-1.571.513-3.164 2.06-3.716A66.3 66.3 0 0 1 46.032.715a3.213 3.213 0 0 1 3.47 2.464l1.09 4.735z"/><path fill="url(#b)" d="M61.859 16.112 23.203 24.79l-2.023-8.8c-.68-2.933.972-5.905 3.815-6.9a124 124 0 0 1 28.368-6.377c3.024-.304 5.792 1.668 6.452 4.6l2.023 8.8z"/><path fill="url(#c)" d="M15.876 16.752c-5.152 2.486-7.651 8.818-5.824 14.78l22.52 69.588 27.07-6.08 27.07-6.08-10.014-72.39c-.968-6.167-5.948-10.792-11.69-10.84-17.06-.15-33.8 3.608-49.11 11.022z"/><path fill="#fff" d="M62.586 87.252c-1.04-1.707-2.411-3.197-3.74-4.689-.837-.953-1.674-1.927-2.386-2.967-.323-.457-1.14-.275-1.194.294-.13 1.012-.365 2.005-.622 2.977-.476 1.67-1.057 3.32-1.45 5.01-.352 1.52-.514 3.1-.298 4.631l10.936-2.459a11.6 11.6 0 0 0-1.267-2.797z" opacity=".3"/><path fill="url(#d)" d="M86.684 88.984c.75 3.268-10.768 8.618-25.706 11.967-14.939 3.348-27.683 3.44-28.412.172-.75-3.268 10.768-8.619 25.707-11.967 14.959-3.349 27.682-3.44 28.411-.172"/><path stroke="#ff9f05" stroke-miterlimit="10" stroke-width="1.27" d="M86.684 88.984c.75 3.268-10.768 8.618-25.706 11.967-14.939 3.348-27.683 3.44-28.412.172-.75-3.268 10.768-8.619 25.707-11.967 14.959-3.349 27.682-3.44 28.411-.172Z"/><path stroke="#ff9f05" stroke-miterlimit="10" stroke-width="1.27" d="M86.18 91.705c.726 3.121-10.332 8.275-24.705 11.508s-26.57 3.295-27.297.174c-.726-3.121 10.332-8.275 24.705-11.508 14.352-3.212 26.57-3.296 27.297-.174Z"/><path fill="url(#e)" d="M86.262 90.693a.6.6 0 0 0-.403-.182.57.57 0 0 0-.397.175c-2.911 3.142-13.001 7.143-24.566 9.739-11.566 2.596-22.427 3.287-26.409 1.694a.538.538 0 0 0-.73.349c-.1.338-.115.675-.046.989.931 4.023 15.092 3.128 27.956.257 12.864-2.892 26.046-8.124 25.114-12.146a2.1 2.1 0 0 0-.478-.896z"/><path fill="#fff" d="M52.905 92.507c.024.167.049.356.093.524.366 1.697 1.32 3.342 2.83 4.326a5.2 5.2 0 0 0 2.538.819c3.2.176 5.617-2.347 5.819-5.316.067-.948-.075-1.892-.343-2.812z"/><path fill="url(#f)" d="M58.15 88.631c-13.387 3.006-27.09 8.458-26.136 12.627a.44.44 0 0 0 .088.208l1.636 2.223c.13.187.362.267.572.221.042 0 .063-.001.104-.043.23-.11.373-.364.305-.616a1.2 1.2 0 0 1 .035-.463c.754-2.6 10.014-7.197 24.26-10.386 14.227-3.188 24.599-3.009 26.421-.979.108.124.194.25.217.396a.56.56 0 0 0 .555.432.58.58 0 0 0 .539-.45l.5-2.722-.004-.232c-.955-4.169-15.704-3.243-29.07-.237z"/><path fill="#f4f4f4" d="M22.843 13.754c-3.788 2.315-7.213 6.16-7.26 10.788.047 2.712 1.017 5.345 1.672 7.963 4.99 17.434 10.802 35.044 16.21 52.386l3.251 10.482c-2.141-5.895-5.11-14.698-7.15-20.762-3.46-10.415-6.836-20.873-9.94-31.4-1.542-5.273-3.125-10.546-4.227-15.932-1.443-5.654 2.608-11.024 7.423-13.567zM57.8 5.92c4.505.28 9.418 2.215 11.635 6.405 1.22 2.503 1.563 5.294 2.198 7.975 2.77 14.38 4.723 28.902 6.655 43.402.803 6.338 1.949 15.51 2.603 21.787l-1.616-10.846c-2.686-17.979-5.104-36.34-8.208-54.228-.55-2.64-.85-5.432-1.986-7.895-2.09-4.128-6.815-6.13-11.24-6.6zm-3.893 65.77A1066 1066 0 0 1 40.81 14.497 1070 1070 0 0 1 53.907 71.69M32.085 11.305c-4.652 5.906-1.237 13.713.24 20.187 4.1 15.745 9.418 35.214 13.538 51.023l2.615 10.24c-1.025-3.369-1.987-6.76-2.992-10.129-4.831-16.827-9.585-34.012-13.81-50.976-1.373-6.538-4.646-14.6.388-20.345zm16.318-3.669c7.014 2.993 7.604 11.669 9.209 18.161 3.595 17.1 6.799 34.65 9.766 51.908.565 3.482 1.171 6.942 1.715 10.424L67 77.775c-3.178-16.056-6.883-35.868-10.039-51.84-1.478-6.474-1.834-14.965-8.558-18.278z" opacity=".1"/><path fill="url(#g)" d="M61.042 100.693c15.144-3.654 22.545-26.825 16.53-51.755-6.014-24.93-23.166-42.178-38.31-38.524-15.143 3.653-22.543 26.824-16.53 51.754 6.015 24.93 23.167 42.178 38.31 38.525" style="mix-blend-mode:color-dodge"/><defs><radialGradient id="e" cx="0" cy="0" r="1" gradientTransform="rotate(89.017 -19.927 79.86)scale(7.46276 26.671)" gradientUnits="userSpaceOnUse"><stop stop-color="#ff9f05"/><stop offset="1" stop-color="#ff9f05"/></radialGradient><radialGradient id="f" cx="0" cy="0" r="1" gradientTransform="rotate(88.865 -18.604 77.856)scale(20.0901 65.0153)" gradientUnits="userSpaceOnUse"><stop stop-color="#ff9f05"/><stop offset="1" stop-color="#ffae05"/></radialGradient><radialGradient id="g" cx="0" cy="0" r="1" gradientTransform="rotate(-12.277 304.778 -179.017)scale(28.1716 46.525)" gradientUnits="userSpaceOnUse"><stop stop-color="#595959"/><stop offset=".65" stop-color="#1b1b1b"/><stop offset="1"/></radialGradient><linearGradient id="b" x1="41.228" x2="41.599" y1="2.9" y2="24.473" gradientUnits="userSpaceOnUse"><stop stop-color="#ff9f05"/><stop offset="1" stop-color="#fecb30" stop-opacity=".8"/></linearGradient><linearGradient id="c" x1="47.186" x2="48.813" y1="5.998" y2="100.841" gradientUnits="userSpaceOnUse"><stop stop-color="#ff8a00"/><stop offset="1" stop-color="#ff9f05" stop-opacity=".82"/></linearGradient><linearGradient id="d" x1="57.004" x2="60.004" y1="76.501" y2="109.001" gradientUnits="userSpaceOnUse"><stop stop-color="#ff8a00"/><stop offset="1" stop-color="#ff9f05" stop-opacity=".82"/></linearGradient><filter id="a" width="94.942" height="112.58" x=".649" y="7.083" color-interpolation-filters="sRGB" filterUnits="userSpaceOnUse"><feFlood flood-opacity="0" result="BackgroundImageFix"/><feColorMatrix in="SourceAlpha" result="hardAlpha" values="0 0 0 0 0 0 0 0 0 0 0 0 0 0 0 0 0 0 127 0"/><feOffset dy="10"/><feGaussianBlur stdDeviation="5"/><feColorMatrix values="0 0 0 0 0 0 0 0 0 0 0 0 0 0 0 0 0 0 0.65 0"/><feBlend in2="BackgroundImageFix" result="effect1_dropShadow_8_3"/><feBlend in="SourceGraphic" in2="effect1_dropShadow_8_3" result="shape"/></filter></defs></svg>