<svg xmlns="http://www.w3.org/2000/svg" width="40" height="41" fill="none"><path fill="#9f161b" d="M35.556.4A4.445 4.445 0 0 1 40 4.844v31.112a4.445 4.445 0 0 1-4.444 4.444H4.444A4.445 4.445 0 0 1 0 35.956V4.844A4.444 4.444 0 0 1 4.444.4zm-1.112 34.444V23.067a7.244 7.244 0 0 0-7.244-7.245c-1.889 0-4.089 1.156-5.156 2.89v-2.468h-6.2v18.6h6.2V23.89c0-1.711 1.378-3.111 3.09-3.111a3.11 3.11 0 0 1 3.11 3.11v10.956zM8.622 12.756a3.733 3.733 0 0 0 3.734-3.734c0-2.066-1.667-3.755-3.734-3.755a3.756 3.756 0 0 0-3.755 3.755c0 2.067 1.689 3.734 3.755 3.734m3.09 22.088v-18.6H5.555v18.6h6.155z"/></svg>