<svg xmlns="http://www.w3.org/2000/svg" width="93" height="114" fill="none" viewBox="0 0 93 114"><g filter="url(#a)"><path fill="#ea8105" d="M73.312 57.669c-.316-1.19-.865-2.298-1.65-3.34 2.65-1.375 4.086-4.51 3.277-7.535-.315-1.19-.864-2.297-1.65-3.34 2.65-1.374 4.087-4.509 3.278-7.534-.542-2.017-1.73-3.79-3.64-5.396a6.62 6.62 0 0 0 .382-4.474c-2.059-7.685-14.913-11.772-22.489-12.9s-21.066-.993-25.277 5.76a6.63 6.63 0 0 0-.945 4.389c-2.294.977-3.954 2.33-5.052 4.096-1.659 2.664-1.208 6.078.925 8.163-1.054.768-1.906 1.663-2.552 2.712-1.66 2.664-1.208 6.077.925 8.163-1.054.768-1.906 1.662-2.553 2.711-1.659 2.664-1.208 6.078.925 8.163-1.054.768-1.906 1.663-2.552 2.712-1.66 2.664-1.208 6.077.925 8.163-1.054.768-1.906 1.662-2.553 2.711-1.659 2.664-1.208 6.078.925 8.163-1.054.768-1.906 1.663-2.552 2.712-1.889 3.028-1.043 7.023 1.885 8.941 2.634 1.719 6.055 1.173 8.09-1.15 1.913-.793 8.568-1.562 18.032-.146 9.454 1.417 15.599 4.097 17.193 5.411a6.26 6.26 0 0 0 4.776 3.644c.849.127 1.742.08 2.62-.181 3.363-.97 5.347-4.552 4.424-7.995-.315-1.19-.865-2.297-1.65-3.34 2.65-1.374 4.087-4.51 3.278-7.534-.316-1.19-.865-2.298-1.65-3.34 2.65-1.375 4.086-4.51 3.277-7.535-.315-1.19-.865-2.297-1.65-3.34 2.65-1.374 4.087-4.509 3.278-7.534"/></g><path fill="url(#b)" d="M65.826 24.968c-1.527-4.535-10.396-7.125-15.6-7.9s-14.442-.897-17.223 2.993a3.27 3.27 0 0 0-.576 2.558l33.205 4.965a3.3 3.3 0 0 0 .194-2.616"/><path fill="url(#c)" d="m34.07 14.844-.628 4.203L66.36 23.97l.634-4.241c.363-2.449-.982-4.85-3.289-5.764-9.865-3.917-19.404-4.041-24.719-3.67a5.34 5.34 0 0 0-4.914 4.558z"/><path fill="url(#d)" d="M74.448 57.81a9.7 9.7 0 0 0-1.731-3.387 6.554 6.554 0 0 0 3.371-7.62 9.7 9.7 0 0 0-1.73-3.387c2.744-1.375 4.232-4.545 3.37-7.62-.563-2.042-1.812-3.846-3.799-5.48.638-1.366.82-2.96.376-4.53-2.166-7.795-15.546-11.98-23.419-13.158-7.872-1.178-21.892-1.094-26.245 5.731a6.52 6.52 0 0 0-.965 4.448c-2.378.987-4.094 2.347-5.236 4.127a6.575 6.575 0 0 0 .994 8.277q-1.635 1.156-2.644 2.731c-1.721 2.69-1.227 6.155.994 8.277-1.09.773-1.97 1.68-2.644 2.731a6.575 6.575 0 0 0 .995 8.277c-1.091.773-1.97 1.68-2.644 2.732a6.575 6.575 0 0 0 .994 8.276c-1.09.773-1.97 1.68-2.644 2.732a6.575 6.575 0 0 0 .995 8.277c-1.091.772-1.97 1.679-2.644 2.731-1.951 3.054-1.06 7.119 2.002 9.06a6.56 6.56 0 0 0 8.402-1.131c1.988-.792 8.897-1.544 18.732-.077s16.221 4.212 17.894 5.555a6.56 6.56 0 0 0 4.98 3.704 6.5 6.5 0 0 0 2.724-.174 6.564 6.564 0 0 0 4.563-8.086 9.7 9.7 0 0 0-1.731-3.386c2.744-1.376 4.233-4.545 3.371-7.62a9.7 9.7 0 0 0-1.73-3.388c2.744-1.375 4.232-4.544 3.37-7.62a9.7 9.7 0 0 0-1.73-3.387c2.744-1.375 4.232-4.544 3.37-7.62z"/><path fill="#faefd6" d="M41.017 78.243c-.108-.362-.629-.33-.689.042-.434 2.72-1.746 5.306-3.29 7.676-.914 1.408-1.926 2.78-2.456 4.349l8.595 1.03c.292-4.362-.848-8.79-2.161-13.106z" opacity=".4"/><path fill="url(#e)" d="M64.136 98.244c-.42 2.774-12.158 3.316-26.224 1.215S12.776 93.4 13.195 90.628c.42-2.774 12.158-3.316 26.225-1.215 14.066 2.101 25.135 6.057 24.716 8.831"/><mask id="f" width="52" height="13" x="13" y="88" maskUnits="userSpaceOnUse" style="mask-type:luminance"><path fill="#fff" stroke="#fff" stroke-width=".764" d="M15.597 89.338c1.336-.396 3.247-.656 5.607-.766 4.714-.218 11.14.17 18.155 1.218 7.017 1.048 13.275 2.557 17.719 4.145 2.224.794 3.975 1.603 5.136 2.372.582.385.997.748 1.25 1.08.254.33.322.592.29.8-.03.207-.174.437-.514.679s-.843.468-1.512.666c-1.336.396-3.248.655-5.608.765-4.713.218-11.139-.169-18.155-1.218s-13.276-2.557-17.72-4.144c-2.224-.795-3.975-1.604-5.136-2.373-.581-.385-.995-.748-1.25-1.08-.253-.33-.32-.591-.29-.798.032-.208.174-.44.514-.68.34-.243.845-.468 1.514-.666Z"/></mask><g stroke="#ea8105" stroke-miterlimit="10" stroke-width=".558" mask="url(#f)"><path d="m13.18 95.463 49.941-.791m-1.211 8.08L14.39 87.379"/></g><path stroke="#ea8105" stroke-miterlimit="10" stroke-width=".558" d="M64.136 98.244c-.42 2.774-12.158 3.316-26.224 1.215S12.776 93.4 13.195 90.628c.42-2.774 12.158-3.316 26.225-1.215 14.066 2.101 25.135 6.057 24.716 8.831Z"/><path fill="#faefd6" d="M34.572 90.318c-.473 1.413-.524 3.002.257 4.326.862 1.464 2.773 2.198 4.554 2.133 2.127-.077 3.18-1.5 3.505-3.224.14-.737.233-1.47.278-2.215l-8.595-1.029z"/><path fill="url(#g)" d="M64.134 98.242c-.168 1.144-2.29 1.913-5.713 2.272 2.26-.299 3.622-.831 3.738-1.613.338-2.258-9.966-5.675-23.023-7.631-13.048-1.957-23.911-1.703-24.25.556-.115.78 1.02 1.69 3.106 2.638-3.17-1.338-4.976-2.694-4.799-3.838.42-2.774 12.156-3.326 26.224-1.215 14.067 2.102 25.137 6.067 24.727 8.84z"/><path stroke="#ea8105" stroke-miterlimit="10" stroke-width=".558" d="M62.16 98.903c-.338 2.259-11.192 2.511-24.25.555s-23.36-5.363-23.022-7.63c.338-2.26 11.192-2.512 24.25-.556 13.056 1.956 23.36 5.363 23.022 7.631Z"/><path fill="url(#h)" d="M39.443 100.081c15.708 2.568 31.679-15.146 35.67-39.566 3.993-24.42-5.505-46.297-21.213-48.865S22.22 26.796 18.228 51.216s5.506 46.297 21.215 48.865" style="mix-blend-mode:color-dodge"/><path fill="#f4f4f4" d="M64.083 20.676c3.238 1.483 6.341 4.399 6.87 8.358.24 2.335-.241 4.656-.479 6.97-1.74 12.235-4.119 24.353-6.507 36.448-1.075 5.276-2.642 12.905-3.81 18.09l1.662-9.095c2.748-15.078 5.793-30.387 8.21-45.51.288-2.258.801-4.567.613-6.847-.452-3.874-3.399-6.79-6.528-8.402zM43.946 72.001a973 973 0 0 1 5.395-49.24 977 977 0 0 1-5.395 49.24m-.181-54.225c-4.971 3.406-4.511 10.583-5.125 16.155-1.124 13.694-2.328 30.696-3.451 44.446l-.767 8.892c.13-2.971.314-5.943.46-8.908.869-14.76 1.888-29.786 3.239-44.486.707-5.594.42-12.934 5.628-16.105zm12.957 1.638c4.369 4.346 2.524 11.425 1.999 17.048-1.85 14.633-4.104 29.514-6.455 44.097-.5 2.933-.963 5.86-1.478 8.786l1.182-8.836c1.88-13.684 4.36-30.509 6.237-44.12.614-5.572 2.582-12.438-1.49-16.958z" opacity=".1"/><defs><radialGradient id="b" cx="0" cy="0" r="1" gradientTransform="rotate(-6.594 221.404 -414.204)scale(12.616)" gradientUnits="userSpaceOnUse"><stop stop-color="#dd502e"/><stop offset=".23" stop-color="#d94c33"/><stop offset=".53" stop-color="#cf4143"/><stop offset=".86" stop-color="#be2f5e"/><stop offset=".99" stop-color="#b7276b"/></radialGradient><radialGradient id="c" cx="0" cy="0" r="1" gradientTransform="rotate(-6.594 176.249 -426.059)scale(13.2207)" gradientUnits="userSpaceOnUse"><stop stop-color="#be6700"/><stop offset=".99" stop-color="#ff9f05"/></radialGradient><radialGradient id="g" cx="0" cy="0" r="1" gradientTransform="rotate(-6.594 838.94 -288.306)scale(18.5611)" gradientUnits="userSpaceOnUse"><stop stop-color="#ff9f05"/><stop offset="1" stop-color="#fa8700"/></radialGradient><radialGradient id="h" cx="0" cy="0" r="1" gradientTransform="rotate(10.499 -298.348 246.066)scale(28.7839 44.8914)" gradientUnits="userSpaceOnUse"><stop stop-color="#ca9898"/><stop offset=".65" stop-color="#1b1b1b"/><stop offset="1"/></radialGradient><linearGradient id="d" x1="37.875" x2="48.12" y1="12.312" y2="100.938" gradientUnits="userSpaceOnUse"><stop stop-color="#ff8a00"/><stop offset="1" stop-color="#ff9f05" stop-opacity=".5"/></linearGradient><linearGradient id="e" x1="39.422" x2="37.678" y1="89.281" y2="100.939" gradientUnits="userSpaceOnUse"><stop stop-color="#ffba05"/><stop offset="1" stop-color="#f88701"/></linearGradient><filter id="a" width="81.674" height="101.203" x="2.76" y="12.617" color-interpolation-filters="sRGB" filterUnits="userSpaceOnUse"><feFlood flood-opacity="0" result="BackgroundImageFix"/><feColorMatrix in="SourceAlpha" result="hardAlpha" values="0 0 0 0 0 0 0 0 0 0 0 0 0 0 0 0 0 0 127 0"/><feOffset dy="7.642"/><feGaussianBlur stdDeviation="3.821"/><feColorMatrix values="0 0 0 0 0 0 0 0 0 0 0 0 0 0 0 0 0 0 0.65 0"/><feBlend in2="BackgroundImageFix" result="effect1_dropShadow_3149_1657"/><feBlend in="SourceGraphic" in2="effect1_dropShadow_3149_1657" result="shape"/></filter></defs></svg>