<svg width="178" height="45" viewBox="0 0 178 45" fill="none" xmlns="http://www.w3.org/2000/svg">
<path d="M10.9545 17.0909H13.1909L17.1864 27.5773L20.2818 17.0909H22.3273V28H20.2818V21.5773L17.35 28H15.1136L11.4318 18.3318L13 28H10.9545V17.0909ZM23.968 25.8318C23.968 25.3955 24.0634 25.0455 24.2543 24.7818C24.4543 24.5091 24.7089 24.2909 25.018 24.1273C25.3361 23.9636 25.6952 23.8364 26.0952 23.7455C26.4952 23.6545 26.8998 23.5682 27.3089 23.4864L29.6407 23.05C29.5134 22.6045 29.3725 22.2318 29.218 21.9318C29.0634 21.6227 28.8998 21.3727 28.727 21.1818C28.5634 20.9909 28.3861 20.8545 28.1952 20.7727C28.0134 20.6818 27.8316 20.6364 27.6498 20.6364C27.368 20.6364 27.1134 20.7045 26.8861 20.8409C26.668 20.9773 26.468 21.1591 26.2861 21.3864C26.1134 21.6045 25.9589 21.8545 25.8225 22.1364C25.6861 22.4182 25.568 22.7 25.468 22.9818L24.1589 21.5636C24.6225 21.0818 25.1452 20.75 25.727 20.5682C26.318 20.3864 27.0043 20.2955 27.7861 20.2955C28.868 20.2955 29.718 20.5227 30.3361 20.9773C30.9634 21.4318 31.377 22.0591 31.577 22.8591L32.8452 28H30.868L30.4316 26.2136C30.3043 26.5227 30.1361 26.8 29.927 27.0455C29.727 27.2909 29.4952 27.5 29.2316 27.6727C28.968 27.8455 28.6816 27.9773 28.3725 28.0682C28.0634 28.1591 27.7452 28.2045 27.418 28.2045C26.9725 28.2045 26.5407 28.1545 26.1225 28.0545C25.7134 27.9636 25.3498 27.8227 25.0316 27.6318C24.7134 27.4318 24.4543 27.1864 24.2543 26.8955C24.0634 26.5955 23.968 26.2409 23.968 25.8318ZM30.3089 25.7364L29.7361 23.4045C29.727 23.3864 29.7225 23.3727 29.7225 23.3636C29.7225 23.3455 29.718 23.3273 29.7089 23.3091L27.9225 23.65C27.6498 23.7045 27.3907 23.7955 27.1452 23.9227C26.9089 24.05 26.6998 24.2091 26.518 24.4C26.3452 24.5818 26.2043 24.7909 26.0952 25.0273C25.9952 25.2636 25.9452 25.5136 25.9452 25.7773C25.9452 26.0409 25.977 26.3 26.0407 26.5545C26.1043 26.8 26.2043 27.0227 26.3407 27.2227C26.477 27.4136 26.6452 27.5682 26.8452 27.6864C27.0452 27.8045 27.2816 27.8636 27.5543 27.8636C27.927 27.8636 28.268 27.8 28.577 27.6727C28.8861 27.5455 29.1543 27.3818 29.3816 27.1818C29.618 26.9818 29.8134 26.7545 29.968 26.5C30.1225 26.2455 30.2361 25.9909 30.3089 25.7364ZM39.6434 16.4091H41.5525V28H39.6434V26.0909C39.4071 26.7909 39.0525 27.3182 38.5798 27.6727C38.1162 28.0273 37.5889 28.2045 36.998 28.2045C36.4525 28.2045 35.9434 28.1 35.4707 27.8909C35.0071 27.6818 34.6025 27.4 34.2571 27.0455C33.9116 26.6909 33.6389 26.2727 33.4389 25.7909C33.248 25.3091 33.1525 24.7955 33.1525 24.25C33.1525 23.7045 33.248 23.1909 33.4389 22.7091C33.6389 22.2273 33.9116 21.8091 34.2571 21.4545C34.6025 21.1 35.0071 20.8182 35.4707 20.6091C35.9434 20.4 36.448 20.2955 36.9843 20.2955C37.5843 20.2955 38.1162 20.4955 38.5798 20.8955C39.0525 21.2864 39.4071 21.8227 39.6434 22.5045V16.4091ZM35.1298 24.25C35.1298 24.6955 35.1798 25.1364 35.2798 25.5727C35.3798 26 35.5162 26.3864 35.6889 26.7318C35.8707 27.0682 36.0798 27.3409 36.3162 27.55C36.5525 27.7591 36.8071 27.8636 37.0798 27.8636C37.498 27.8636 37.8662 27.7591 38.1843 27.55C38.5025 27.3409 38.7707 27.0682 38.9889 26.7318C39.2071 26.3864 39.3707 26 39.4798 25.5727C39.5889 25.1364 39.6434 24.6955 39.6434 24.25C39.6434 23.8045 39.5889 23.3682 39.4798 22.9409C39.3707 22.5045 39.2071 22.1182 38.9889 21.7818C38.7707 21.4364 38.5025 21.1591 38.1843 20.95C37.8662 20.7409 37.498 20.6364 37.0798 20.6364C36.8071 20.6364 36.5525 20.7227 36.3162 20.8955C36.0798 21.0682 35.8707 21.3136 35.6889 21.6318C35.5162 21.95 35.3798 22.3318 35.2798 22.7773C35.1798 23.2227 35.1298 23.7136 35.1298 24.25ZM47.5912 27.8636C47.8822 27.8636 48.1731 27.8227 48.464 27.7409C48.764 27.65 49.0458 27.5 49.3094 27.2909C49.5822 27.0727 49.8276 26.7864 50.0458 26.4318C50.264 26.0682 50.4367 25.6136 50.564 25.0682L51.2458 25.3955C51.1367 25.7864 50.9776 26.1545 50.7685 26.5C50.5685 26.8364 50.3049 27.1318 49.9776 27.3864C49.6594 27.6409 49.2776 27.8409 48.8322 27.9864C48.3958 28.1318 47.8867 28.2045 47.3049 28.2045C46.6958 28.2045 46.1367 28.1045 45.6276 27.9045C45.1185 27.7045 44.6822 27.4273 44.3185 27.0727C43.964 26.7182 43.6867 26.3 43.4867 25.8182C43.2867 25.3364 43.1867 24.8136 43.1867 24.25C43.1867 23.7045 43.2867 23.1909 43.4867 22.7091C43.6867 22.2273 43.964 21.8091 44.3185 21.4545C44.6731 21.1 45.0958 20.8182 45.5867 20.6091C46.0867 20.4 46.6276 20.2955 47.2094 20.2955C47.8003 20.2955 48.3049 20.35 48.7231 20.4591C49.1412 20.5591 49.4867 20.7 49.7594 20.8818C50.0322 21.0545 50.2322 21.2545 50.3594 21.4818C50.4867 21.7091 50.5503 21.95 50.5503 22.2045C50.5503 22.5409 50.464 22.8136 50.2912 23.0227C50.1185 23.2318 49.8776 23.4045 49.5685 23.5409C49.2594 23.6773 48.8958 23.7955 48.4776 23.8955C48.0685 23.9864 47.6185 24.0909 47.1276 24.2091L45.1776 24.6864C45.2049 25.1591 45.2776 25.5909 45.3958 25.9818C45.5231 26.3727 45.6867 26.7091 45.8867 26.9909C46.0958 27.2727 46.3412 27.4909 46.6231 27.6455C46.914 27.7909 47.2367 27.8636 47.5912 27.8636ZM45.164 24.4136L47.0185 23.9364C47.3367 23.8545 47.5958 23.75 47.7958 23.6227C48.0049 23.4864 48.164 23.3364 48.2731 23.1727C48.3912 23.0091 48.4685 22.8318 48.5049 22.6409C48.5503 22.45 48.5731 22.2545 48.5731 22.0545C48.5731 21.9818 48.5594 21.8682 48.5322 21.7136C48.514 21.5591 48.4549 21.4045 48.3549 21.25C48.264 21.0864 48.1276 20.9455 47.9458 20.8273C47.7731 20.7 47.5276 20.6364 47.2094 20.6364C46.9003 20.6364 46.6185 20.7318 46.364 20.9227C46.1094 21.1136 45.8912 21.3727 45.7094 21.7C45.5367 22.0273 45.4003 22.4091 45.3003 22.8455C45.2094 23.2818 45.164 23.75 45.164 24.25V24.4136ZM54.9324 20.5H56.9505L59.3369 28H57.3187L54.9324 20.5ZM59.3369 28L60.2505 20.5H62.2687L64.6551 28H62.6369L61.2187 23.5273L59.6642 28H59.3369ZM64.6551 28L65.5687 20.5H67.5869L64.9824 28H64.6551ZM68.0693 18.3045C68.0693 18.1409 68.1012 17.9909 68.1648 17.8545C68.2284 17.7091 68.3102 17.5864 68.4102 17.4864C68.5193 17.3773 68.6421 17.2955 68.7784 17.2409C68.9239 17.1773 69.0739 17.1455 69.2284 17.1455C69.5466 17.1455 69.8193 17.2591 70.0466 17.4864C70.2739 17.7136 70.3875 17.9864 70.3875 18.3045C70.3875 18.4591 70.3557 18.6091 70.2921 18.7545C70.2375 18.8909 70.1557 19.0136 70.0466 19.1227C69.9466 19.2227 69.8239 19.3045 69.6784 19.3682C69.5421 19.4318 69.3921 19.4636 69.2284 19.4636C68.9102 19.4636 68.6375 19.35 68.4102 19.1227C68.183 18.8955 68.0693 18.6227 68.0693 18.3045ZM68.2739 20.5H70.183V28H68.2739V20.5ZM71.9608 20.5L73.5971 17.0909H73.8699V20.5H77.8244V22.1364L73.8699 20.7727V24.9727C73.8699 25.2909 73.8744 25.6227 73.8835 25.9682C73.9017 26.3045 73.9471 26.6136 74.0199 26.8955C74.1017 27.1773 74.2244 27.4091 74.388 27.5909C74.5608 27.7727 74.8017 27.8636 75.1108 27.8636C75.4108 27.8636 75.6562 27.7909 75.8471 27.6455C76.0471 27.5 76.2062 27.3136 76.3244 27.0864C76.4517 26.8591 76.5426 26.6045 76.5971 26.3227C76.6608 26.0318 76.7062 25.7455 76.7335 25.4636L78.0426 26.8818C77.688 27.3455 77.2608 27.6818 76.7608 27.8909C76.2608 28.1 75.7108 28.2045 75.1108 28.2045C74.5017 28.2045 73.9926 28.1045 73.5835 27.9045C73.1744 27.7045 72.8517 27.45 72.6153 27.1409C72.3789 26.8227 72.2108 26.4727 72.1108 26.0909C72.0108 25.7091 71.9608 25.3364 71.9608 24.9727V20.5ZM79.4067 16.4091H81.3158V22.3409C81.5249 21.7045 81.8431 21.2045 82.2703 20.8409C82.7067 20.4773 83.2431 20.2955 83.8794 20.2955C84.3612 20.2955 84.8158 20.3636 85.2431 20.5C85.6703 20.6364 86.0431 20.8545 86.3612 21.1545C86.6794 21.4455 86.9294 21.8227 87.1112 22.2864C87.3021 22.7409 87.3976 23.2909 87.3976 23.9364V28H85.4885V24.2227C85.4885 23.75 85.4431 23.3 85.3521 22.8727C85.2703 22.4364 85.1521 22.0545 84.9976 21.7273C84.8431 21.3909 84.6521 21.1273 84.4249 20.9364C84.2067 20.7364 83.9612 20.6364 83.6885 20.6364C83.334 20.6364 83.0112 20.7318 82.7203 20.9227C82.4385 21.1136 82.1931 21.3682 81.984 21.6864C81.784 21.9955 81.6249 22.3545 81.5067 22.7636C81.3976 23.1727 81.334 23.5909 81.3158 24.0182V28H79.4067V16.4091Z" fill="white"/>
<path d="M94 30.05H109V15.05H94V30.05Z" fill="white"/>
<path d="M115.227 28H114.955V16.4091H116.864V22.5045C117.1 21.8227 117.45 21.2864 117.914 20.8955C118.386 20.4955 118.923 20.2955 119.523 20.2955C120.059 20.2955 120.559 20.4 121.023 20.6091C121.495 20.8182 121.905 21.1 122.25 21.4545C122.595 21.8091 122.864 22.2273 123.055 22.7091C123.255 23.1909 123.355 23.7045 123.355 24.25C123.355 24.7955 123.255 25.3091 123.055 25.7909C122.864 26.2727 122.595 26.6909 122.25 27.0455C121.905 27.4 121.495 27.6818 121.023 27.8909C120.559 28.1 120.055 28.2045 119.509 28.2045C118.882 28.2045 118.318 28 117.818 27.5909C117.327 27.1818 116.977 26.5773 116.768 25.7773L115.227 28ZM121.377 24.25C121.377 23.7136 121.327 23.2227 121.227 22.7773C121.127 22.3318 120.986 21.95 120.805 21.6318C120.632 21.3136 120.427 21.0682 120.191 20.8955C119.955 20.7227 119.7 20.6364 119.427 20.6364C119.009 20.6364 118.641 20.7409 118.323 20.95C118.005 21.1591 117.736 21.4364 117.518 21.7818C117.3 22.1182 117.136 22.5045 117.027 22.9409C116.918 23.3682 116.864 23.8045 116.864 24.25C116.864 24.6955 116.918 25.1364 117.027 25.5727C117.136 26 117.3 26.3864 117.518 26.7318C117.736 27.0682 118.005 27.3409 118.323 27.55C118.641 27.7591 119.009 27.8636 119.427 27.8636C119.7 27.8636 119.955 27.7591 120.191 27.55C120.427 27.3409 120.632 27.0682 120.805 26.7318C120.986 26.3864 121.127 26 121.227 25.5727C121.327 25.1364 121.377 24.6955 121.377 24.25ZM124.607 29.1318C124.934 29.0318 125.293 28.9 125.684 28.7364C126.084 28.5727 126.466 28.3682 126.83 28.1227C127.202 27.8864 127.534 27.6091 127.825 27.2909C128.125 26.9636 128.33 26.5909 128.439 26.1727H126.448L123.761 20.5H125.78L128.452 26.1318L129.898 20.5H131.916L129.066 26.35C128.721 27.0682 128.407 27.6591 128.125 28.1227C127.843 28.5864 127.552 28.9727 127.252 29.2818C126.952 29.5909 126.616 29.8409 126.243 30.0318C125.88 30.2318 125.434 30.4182 124.907 30.5909L124.607 29.1318ZM135.492 17.0909H138.751C139.542 17.0909 140.287 17.2318 140.987 17.5136C141.696 17.7864 142.314 18.1682 142.842 18.6591C143.369 19.1409 143.787 19.7136 144.096 20.3773C144.405 21.0409 144.56 21.7636 144.56 22.5455C144.56 23.3273 144.405 24.05 144.096 24.7136C143.787 25.3773 143.369 25.9545 142.842 26.4455C142.314 26.9273 141.696 27.3091 140.987 27.5909C140.287 27.8636 139.542 28 138.751 28H135.492V17.0909ZM137.537 27.7273H138.778C139.269 27.7273 139.737 27.5864 140.183 27.3045C140.628 27.0136 141.014 26.6318 141.342 26.1591C141.678 25.6773 141.946 25.1273 142.146 24.5091C142.346 23.8818 142.446 23.2273 142.446 22.5455C142.446 21.8636 142.346 21.2136 142.146 20.5955C141.946 19.9682 141.678 19.4182 141.342 18.9455C141.014 18.4636 140.628 18.0818 140.183 17.8C139.746 17.5091 139.283 17.3636 138.792 17.3636H137.537V27.7273ZM150.604 28H150.318L152.513 17.0909H154.763L150.604 28ZM147.1 17.0909L150.318 28H148.191L144.972 17.0909H147.1ZM155.443 17.0909H157.679L161.675 27.5773L164.77 17.0909H166.816V28H164.77V21.5773L161.838 28H159.602L155.92 18.3318L157.488 28H155.443V17.0909Z" fill="white"/>
</svg>
