<svg width="1222" height="918" fill="none" xmlns="http://www.w3.org/2000/svg">
    <g clip-path="url(#prefix__clip0_3633_193)" stroke="#000">
        <path stroke="black" fill="none" className="drawingPaths"
            d="M1221 557.999h1v-1s-.54.14-1 0c-4.81-14.02-2.58-31.06-3-47-.42-15.94.31-32.96 0-49-13.86 3.76-28.06 8.82-41.97 12.03-13.92 3.2-20.2 14.32-32.8 20.2-12.6 5.88-29.72 3.6-42.53 10.46-12.82 6.87-25.6-8.07-39.48-9.91-13.88-1.85-29.44.91-43.15 6.29-13.7 5.38-30.28-2.58-44.05-5.09-13.76-2.52-27.37-9.42-41-13-13.62-3.59-28.27-7.98-42.02-10.98-13.75-3-27.4-7.68-40.3-12.69-12.91-5.01-24.23-10.45-36.7-16.31 22.2-32.17 20.45-81.19.75-113.75-19.7-32.57-53.86-52.29-90.67-54.18-36.82-1.89-71.57 19.63-95.08 46.93-6.85-8.77-20.09-1.87-29-8 9.63 6.14 23 2.91 30.3 11.7 7.31 8.78 16.29 11.27 23.62 19.38 7.33 8.11 16.22 11.66 23.83 19.17 7.61 7.5 16.91 12.35 25 19 8.1 6.65 16.47 12.07 25.02 17.98s17.62 11.96 27.23 15.77c-1.18 3.03-4.9-1.29-6 1 7.87 2.05 16.7 3.87 25.31 8.69 8.6 4.83 16.92 7.4 25.61 11.39 8.7 3.98 16.33 8.03 25.01 11.99 8.67 3.96 17.06 7.44 26.05 10.95 8.98 3.52 17.94 6.73 27.34 9.66 9.41 2.92 20.01 4.8 29.67 7.33 9.66 2.53 19.43 4.91 28.99 8.01 9.56 3.11 18.18 6.07 27.95 9.05 9.77 2.99 20.52 5.43 30.85 7.15 10.33 1.72 22.03 2.1 32.2 4.8 10.16 2.71 20.19 4.11 30.35 6.65s20.4 3.9 30.6 6.4c10.2 2.51 20.48 4.35 31 6 10.52 1.66 20.38 4.34 31.06 5.94 10.68 1.59 22.05 3.04 33.01 3.99 10.96.95 22.11 2.73 33 4-.73 6.27 1.19 11.88 1 18-19.62 3.28-39.98-18.24-57-5-3.28.7-4.84-3.21-8-3 .47 3.43 5.1 4.02 7 6 1.4-5.33 5.55-2.44 7.08-3.92 1.53-1.47 6.9-4.68 9.92-1.08-.1 4.22-2 10.83-8 8 4.25 7.05 9.65-2.43 10-7 14.21 3.28 26.8 7.01 42 7zm-408-117c-11.78-4.63-24.21-9.99-35.69-15.31-11.49-5.31-23.87-10.95-34.54-17.46-10.67-6.51-21.07-13.86-31-21-9.93-7.14-19.78-14.52-29-22-9.22-7.48-20.24-15.66-28.52-23.48-8.29-7.81-26.84-14.76-17.95-25.45 8.9-10.68 16.55-16.68 27.93-24.07 11.38-7.39 23.22-11.26 36.78-14.22 13.56-2.96 33.49-2.57 46.66 1.32 13.18 3.89 24.28 9.02 35.08 16.92 10.8 7.9 17.56 14.69 25.5 25.5 7.95 10.8 12.85 21.96 16.73 35.27 3.87 13.32 4.79 32.1 2.09 46.05-2.69 13.96-6.08 26.05-14.07 37.93zm404 22c.29 25.14-1.19 49.14 0 74-68.24-5.12-134.64-20.08-200-35 12.75-6.48 30.37-8.07 44.02-7.02 13.65 1.04 25.92 18 38.67 10.71 12.76-7.28 29.35-5.01 42.38-9.62 13.04-4.6 19.02-18.04 32.95-21.05 13.94-3 28.08-8.52 41.98-12.02z" />
        <path stroke="black" fill="none" className="drawingPaths"
            d="M813.001 441.001c7.99-11.88 11.38-23.97 14.07-37.93 2.7-13.95 1.78-32.73-2.09-46.05-3.88-13.31-8.78-24.47-16.73-35.27-7.94-10.81-14.7-17.6-25.5-25.5-10.8-7.9-21.9-13.03-35.08-16.92-13.17-3.89-33.1-4.28-46.66-1.32-13.56 2.96-25.4 6.83-36.78 14.22-11.38 7.39-19.03 13.39-27.93 24.07-8.89 10.69 9.66 17.64 17.95 25.45 8.28 7.82 19.3 16 28.52 23.48 9.22 7.48 19.07 14.86 29 22 9.93 7.14 20.33 14.49 31 21 10.67 6.51 23.05 12.15 34.54 17.46 11.48 5.32 23.91 10.68 35.69 15.31zM597 315c-6.57.42-15.66.83-23-2 5.8 4.57 16.39 4.77 23 2zM571 314c-19.71 17.37-39.88 34.68-60 51 21.26-14.24 42.41-32.33 60-51zM685 381c-17.07-20.58-38.86-38.78-59-56 19.03 19.11 39.24 37.45 59 56zM643 370c-8.59-10.74-17.77-22.09-26-33 22.84 34.51 41.29 71.78 74.25 99.75S765.06 482.91 805 497c-44.81-17.5-88.7-38.97-125-73 3.39-4.47-4.21-10.32-8-14 .34 4.95 7.16 6.95 7 12-4.08-3.75-8.11-8.99-11.7-13.3-3.58-4.31-7.63-8.92-10.55-13.45-2.91-4.53-7.24-11.56-8.98-16.02-1.74-4.46-11.25-11.74-4.77-9.23zM748 438c-39.44-29.34-78.53-62.42-112-99 31.89 38.59 70.76 72.07 112 99z" />
        <path stroke="black" fill="none" className="drawingPaths"
            d="M608.002 350c.75 23.82 15 46.22 27 67-12.93-12.21-22.55-28.12-27-45-3.19 1.47-3.58 4.16 0 4 5.83 26.32 28.39 47.01 50 62-22.37-20.85-42.84-49.1-46-79 7.03 12.36 12.11 27.59 21.25 38.75 9.14 11.17 18.31 22.92 26.75 33.25-2.5-4.24-3.54-8.76-4-13-1.62 4.69-9.07-6.37-11.21-10.77-2.15-4.4-3.3-13.36-6.79-18.23 14.79 18.9 29.95 39.49 52 50-28.22-19.16-48.75-47.77-68-75 5.84 13.79 16.23 25.44 21 40-15.89-14.09-23.24-36.25-35-54zM586.999 359c-3.03 5.85-1.96 19.54 3 26 2.91-7.4 2.7-17.87 1-26-2.96 6.19.95 15.74-2 22-2.4-7.32-1.72-14.13-2-22zM724 411c-14.87-17.82-34.33-34.39-52-50 16.83 17.37 33.29 35.2 52 50zM566.002 363c-2.33 9.68-.33 21.5-1 32 2.23-9.02 1.57-21.97 1-32z" />
        <path stroke="black" fill="none" className="drawingPaths"
            d="M581 365c-7.51 4.18-5.41 13.97-8.22 20.78-2.81 6.81-4.33 17.5 1.22 22.22-2.58-6.24-2.71-14.44 1-20 2.72 7.02-.56 15.28 1 22 1.18-2.32 6.82-16.68 2-12-.52-9.03-5.57-22.89 2-29 6.13 12.54 1.93 30.13 6.07 42.93 4.15 12.79 8.43 22.7 12.93 35.07 1.76-12.99-9.43-24.22-6-38 8.1 5.05 8.59 18.48 15.75 25.25 7.17 6.77 10.1 16.82 18.25 21.75-7.16-28.56-20.48-55.52-27-84-2.01 1-1.51 4.32-4 5-1.61-2.33-.83-5.28-1-8-4.9 4.28 2.66 13.53 4 19 2.69-3.45-3.03-6.99 0-10 6.91 24.14 17.5 47.46 24 72-5.61-7.82-14.1-17.39-10-28-3.13 2.08-2.49-3.42-4-5-2.84 4.82 3.96 12.11 1 17-4.95-2.29-4.07-18.09-7-12-1-5.95-3.37-11.13-7-16-8.57 1.11-2.26 9.52-5 14-9.02-17.27-2.35-37.4-10-55zM542 366c-16.97 19.77-33.66 39.29-47.75 61.25-14.08 21.97-35.11 38.51-56.25 52.75 18.56-8.46 34.41-22.5 51.75-33.25C507.1 436.01 519.88 420.46 532 405c-12.69 4.69-15.15 20.92-26.25 27.75-11.11 6.82-20.32 16.34-31.75 22.25 24.37-28.97 44.87-59 68-89zM507 367c-20.14 14.18-41.63 26.75-62 40 21.45-11.24 44.05-24.48 62-40zM513 368c-6.03 3.75-12.88 8.81-17 14 6.4-3.14 13.01-8.57 17-14zM535 370c-13.08 9.61-23.32 24.52-38 33 6.03 1.55-4.9 9.14-8.92 13.08-4.01 3.95-11.83 8.5-15.08 13.92 23.23-16.54 41.82-38.98 62-60zM556 379c-7.55 8.58-14.99 18.36-21 28 3.19-1.46 7.13-12.11 9-6 2.21-8.15 8.78-14.43 12-22zM698.999 416c-11.66-12.02-22.77-28.15-37-36-.47 4.03 2.8 5.4 5 3 8.05 12.84 18.74 25.37 32 33zM668 404c-4.03-8.3-9.14-17.4-17-23 4.89 7.72 10.94 16.86 17 23zM487 387c-4.59 1.28-9.18 3.91-12 8 4.15-2.06 9.34-3.65 12-8z" />
        <path stroke="black" fill="none" className="drawingPaths"
            d="M535 387c-7.47 5.98-11.44 16.78-17 25 7.06-6.26 10.92-16.98 17-25zM505 390c-5.39 7.27-14.82 10.13-19 18 7.89-4.13 15.53-9.62 19-18zM690 423c-7.83-9.07-14.43-19.09-23-27 5.71 9.74 14.12 20.12 23 27zM554 397c-10.82 16.99-17.92 38.6-32 55 10.59-8.66 16.87-23.55 24-35 3.41 16.57-5.94 32.45-8 49 11.25-5.56 11.73-19.92 16.07-30.93 4.34-11 3.73-25.61 9.93-36.07-9.48 7.88-6.34 22.89-10.68 33.32-4.34 10.44-5.48 21.34-12.32 30.68-1.37-5.76 2.81-11.52 4.02-17.98 1.22-6.45 4.52-13.69 2.98-21.02-1.54-7.33 5.23-10.9 6-17-4.83-.03-3.19 8.03-8 8 2.12-6.21 4.98-12.1 8-18zM466 400c-11.2 7.06-25.13 12.49-35 20 11.22-4.53 21.59-11.5 33-15 .9-1.96.12-3.27 2-5zM653 427c-7.18-8.11-12.1-17.99-19-26 3.6 9.88 10.43 20.07 19 26zM787 446c-20.49-16.51-46.85-27.75-68-45 18.56 19.63 44.98 31.21 68 45z" />
        <path stroke="black" fill="none" className="drawingPaths"
            d="M542 403c-14.07 14.21-19.3 36.31-24.08 54.92-4.77 18.62-31.11 24.65-38.92 42.08 17.01-8.45 37.04-19.04 40.22-39.78 3.18-20.73 11.62-39.61 22.78-57.22zm-29 67c-2.84 13.18-18.07 18.48-28 25 7.97-10.08 18.36-17.2 28-25zM486 404c-22.07 15.86-46.13 29.33-71 41 1.81-3.08 7.69-2.91 8-7-4.04 2.66-8.26 4.77-12 8 13.87.59 27.22-11.88 39.92-18.08 12.71-6.19 26.11-12.77 35.08-23.92zM992 536c-59.39 5.98-120.52-19.62-170.92-44.08C770.67 467.47 737.16 435.6 692 405c7.92 7.52 17.15 14.39 25.92 21.08 8.77 6.69 17.66 12.76 26.33 19.67 8.67 6.91 17.9 12.43 26.52 19.48 8.62 7.05 18.96 12.35 29 18s20.19 10.04 30.54 15.47c10.34 5.42 20.56 9.75 31.47 14.52 10.9 4.78 22.51 10.16 34.55 12.45 12.04 2.29 25.84 4.78 37.6 8.4 11.76 3.62 28.55 1.56 37.07 6.93 4.4-6.38 14.75-2.22 21-5zM0 472v2c23.14-2.05 45.49-13.44 68.07-16.93 22.58-3.48 44.05 11.4 65.15 17.71 21.1 6.3 42.57 19.2 64.78 21.22-63.66 15.63-133.29 39.56-198 13v2c37.94 15.06 83.76 13.76 122.33 4.33 38.57-9.43 77.43-17.18 114.45-28.55 37.01-11.37 75.78-18.32 110.54-33.46C382.09 438.18 413.2 426.88 444 407c-27.12 12.53-51.69 28.04-79.92 38.08-28.24 10.03-56.75 24.99-86.86 30.14-30.11 5.15-65.05 24.56-96 15.56-30.94-9-54.57-21.44-85.55-31.45C64.7 449.32 31.22 468.6 0 472zM458 409c-8.84 5.19-19.63 8.58-27 16 8.59-5.63 19.51-8.69 27-16zM534 409c-5.75 5.8-11.74 14.41-16 22 6.94-5.96 11.84-14.01 16-22z" />
        <path stroke="black" fill="none" className="drawingPaths"
            d="M754 433c-5.07-5.56-13.71-10-20-15 4.72 7.3 12.39 11.27 20 15zM769 429c-3.27-3.21-7.4-6.82-12-8 3.37 3.06 7.47 6.69 12 8zM444 423c-6.78 4.74-14.51 8.59-20 15 6.5-4.64 15.88-8.63 20-15zM425 424c-11.42 9.82-31.73 11.59-39 24-1.55-3.2-3.66-.07-5 2 15.67-4.52 32.27-10.55 45-21-11.93 6.93-25.09 12.28-38 17 10.86-9.11 27.11-10.92 37-22zM771 442c-4.37-3.97-10.65-6.48-16-9 4.09 4.43 10.43 6.88 16 9zM785 513c-41.96-14.97-81.63-41.44-110-77 9.56 21.4 30.93 32.66 48.75 47.25 17.82 14.59 42.69 24.54 64.25 31.75-17.31-21.93-51.82-23.2-65-50 17.84 9.09 31.55 23.15 51.32 28.68 19.77 5.53 42.18 16.33 62.68 15.32-12.25-3.04-22.9-4.16-34.93-8.07-12.02-3.92-23.63-7.53-35.04-11.95-11.42-4.43-19.81-10.41-29.8-17.21-10-6.8-18.25-8.07-27.15-15.85-8.9-7.79-18.48-12.8-29.08-16.92 18.59 10.29 35.71 22.55 49.75 39.25 14.04 16.69 40.01 18.61 54.25 34.75zM767 467c-12.91-6.75-27.39-12.97-39-23 9.32 11.5 24.81 18.75 39 23zM584 507c.74-9.05 5.23-28.4-2.08-35.92-7.31-7.52-13.36-16.04-21.92-20.08 1.31 9.83-2.36 26.54 6.75 33.25 9.12 6.7 13.09 13.97 17.25 22.75zm-2-5c-.64-5.27-4.14-12.6-9.23-14.77-5.09-2.17-9.29-10.03-9.75-14.25-.45-4.23-3.95-19.3.06-19.9 4.02-.59 6.1 11.57 10.67 13.17 4.58 1.6 10.29 8.51 10.03 13.97-.27 5.46 2.28 18.38-1.78 21.78z" />
        <path stroke="black" fill="none" className="drawingPaths"
            d="M582 501.999c4.06-3.4 1.51-16.32 1.78-21.78.26-5.46-5.45-12.37-10.03-13.97-4.57-1.6-6.65-13.76-10.67-13.17-4.01.6-.51 15.67-.06 19.9.46 4.22 4.66 12.08 9.75 14.25s8.59 9.5 9.23 14.77zM761 523c-20.17-8.53-43.61-17.76-63.25-26.75-19.65-8.98-28.17-32.67-46.75-42.25 9.01 12.72 20.7 18.49 30.75 30.25 10.06 11.75 23.91 17.64 38.02 21.98 14.11 4.34 26.73 17.68 41.23 16.77zM0 474.001v35c64.71 26.56 134.34 2.63 198-13-22.21-2.02-43.68-14.92-64.78-21.22-21.1-6.31-42.57-21.19-65.15-17.71-22.58 3.49-44.93 14.88-68.07 16.93zM1217 463c-13.9 3.5-28.04 9.02-41.98 12.02-13.93 3.01-19.91 16.45-32.95 21.05-13.03 4.61-29.62 2.34-42.38 9.62-12.75 7.29-25.02-9.67-38.67-10.71-13.65-1.05-31.27.54-44.02 7.02 65.36 14.92 131.76 29.88 200 35-1.19-24.86.29-48.86 0-74zM513 470c-9.64 7.8-20.03 14.92-28 25 9.93-6.52 25.16-11.82 28-25zM703 529c-7.09-5.24-17.28-8.51-24.75-13.25-7.48-4.73-16.44-9.46-23-15-6.57-5.54-14.42-12.18-20.17-17.83-5.74-5.66-23.85-12.66-11.83 1.83 12.02 14.49 28.21 25.54 45.75 30.25-17.89-7.9-37.49-19.67-48-38 15.43 4.54 25.07 19.62 38.75 28.25 13.69 8.62 27.54 19.22 43.25 23.75zM886 487c-21.11-1.12-42.17-9.68-62-11 5.99 2.8 12.94 3.53 18.93 6.07 5.98 2.55 12.88 3.83 18.84 6.16 5.96 2.33 11.27 4.27 17 7 5.73 2.73 10.43 6.03 16.15 8.85 5.73 2.81 11.24 4.6 17.41 6.59 6.17 2 13.34 3.38 19.6 5.4 6.25 2.02 12.7 4.03 19 6 6.29 1.98 11.61 4.14 18.06 5.94 6.45 1.79 13.64 2.47 20 5 6.37 2.53 12.81 2.98 19.79 4.21 6.98 1.23 13.26 3.39 20.15 4.85 6.88 1.47 13.09 3.68 20.05 4.95 6.95 1.28 14.62 2.58 22.02 1.98 7.4-.6 15.89 2.65 22.99 2.01 7.1-.64 16.53 5.42 7.01 2.99 1.95 4.84 2.63 10.46-1 15 5.71.9 1.49-6.13 6-5-2.92-5.92 2.82-8.4 2-14-30 1.65-63.68-5.66-92.78-12.22-29.09-6.57-56.97-16.01-85.2-23.8-28.22-7.8-51.24-20.68-78.02-30.98 11.34.48 23.31 5.69 34 4z" />
        <path stroke="black" fill="none" className="drawingPaths"
            d="M925 496c-11.39-5.11-23.03-9.74-35-13 6.34 5.62 17.89 6.43 26 11-8.81 1.49-19.7-8.2-29-5 13.08.92 25.79 9.12 38 7zM932 488.999c-8.11.26-16.73-4.66-24-3 7.82.93 16.63 5.01 24 3zM820 504c-4.04-2.89-9.18-5.37-14-7 3.55 3.52 9.04 6.02 14 7zM337 520.999c-12.78.51-25.91-9.04-38.99-5.99-13.09 3.04-26.13.52-38.79 4.21-12.65 3.69-25.54 3.85-38.21 6.79-12.68 2.93-25.74 6.35-39.01 5.99-13.27-.36-26.3 5.81-38.98 6.02-12.67.22-24.34 11.22-36.33 5.29-11.98-5.94-24.23.05-36.69.69 11.27 3.79 22.94-7.3 32.92-.92 9.98 6.37 20.56-.08 31.08-1.08 16.85 12.17 39.57 16.16 62 17 22.43.84 48.09-5.74 68.78 4.22 20.68 9.96 44.16 4.81 65.22 8.78-14.56-1.38-30.34-4.83-45-5-14.66-.18-25.37-7.7-38.98-11.02-13.61-3.33-28.11 4.59-42.02 1.02 18.05-2.02 32.21-11.57 49.98-15.02 17.77-3.45 36.05-10.42 55-9.96 18.95.46 39.74 2.81 58.35 5.65 18.61 2.84 35.03 7.88 53.67 11.33 18.64 3.46 42.2 4.35 61.98 2.98 19.77-1.38 40.79-1.27 61.02-.98 20.23.29 34.97-10.83 55-10 20.03.83 34.6 5.67 53 11-11.47 15.31-23.61 31.87-44.78 33.22-21.17 1.36-47.68 7.3-69.22 7.78-21.54.48-47.61 6.53-66.75-5.25-19.13-11.79-41.18-8.1-63.23-13.77-22.04-5.68-47.37-3.28-70.02-.98 20.15 3.75 45.78-7.75 64.32.68 18.54 8.43 41.8.27 58.98 10.02 17.18 9.74 36.35 14.13 55.7 11.3s39.95 2.01 57.93 7.07c17.97 5.07 33.86 11.31 48.07 20.93-20.62 2.94-42.92 1.29-63 5 11.23-.94 24.91-.4 36-1 11.09-.61 21.56.09 30-6-3.43-3.41-9.24-2.92-12-7 3.07-.07 15.8-3.18 12 1 45.83-.06 91.67 1.01 136 1-16.55 4.01-36.2 11.53-52.99 13.01-16.79 1.48-29.43 11.64-41.01 21.99 12.08 6.05 24.63 9.99 37.98 12.02 13.35 2.04 27.16 7.44 40.02 7.98-12.14 7.98-.48 21.8 10.31 25.7 10.78 3.89 24.51 11.32 35.69 10.3-16.63-5.21-37.87-7.87-48-24 10.73 4.44 23.13 5.03 34.98 6.02 11.84 1 25.3 3.32 37.02 3.98 11.72.66 22.09 4.44 32 6-31.75-15.81-71.26-7.64-105-18 4.84-11.19 21.88-7.96 31-15-15.59-.63-32.31-5.95-48.78-8.22-16.46-2.28-32.97-6.41-49.22-9.78 5.74-4.53 17.69-.8 25 1 .57-3.05-3.37-2.62-4-5-5.04 3.24-11.75-.72-17 0 2.48-2.78 7.23-3.56 11-4 2.01-10.71 18.18-7.4 27.99-11.01 9.81-3.61 22.15-3.34 32.33-7.67 10.18-4.32 20.56-5.35 31.68-8.32 11.12-2.98 21.9-2.25 32.93-6.07 11.02-3.83 21.99.14 33.06 1.06 11.08.93 21.71-3.75 30.01-9.99-12.29 8.75-29.19 8.32-43.33 5.33-14.14-2.99-30.39 3.7-44.59 4.6-14.2.9-24.98-10.71-39.08-11.93-14.1-1.22-31.56.85-45.99-.01-14.43-.85-30.62-12.81-44.01-4.99 14.76-5.6 28.1 5.02 41.93 6.07 13.83 1.06 28.53-.33 43.07.93s24.7 7.4 38 11c-26.17 4.53-58.81 3.5-86 4-27.19.5-58.27-.97-85-2-26.73-1.03-45.39-15.85-71-18 39.06-7.5 78.89-1.84 118-3-15.62.18-31.35.61-46-3 13.12-6.12 23.57-15 33.25-27.75 9.67-12.76 25.49-16.36 40.75-19.25 15.26-2.89 38.87 1.73 53.78-4.22 14.91-5.95 31.49-12.87 48.15-11.71 16.65 1.17 31.73 12.37 48.07 9.93-12.82-.78-25.16-5.82-37.32-8.68-12.17-2.85-28.13-2.28-39.78-.42-11.65 1.86-20.25 14.23-33.9 12.1-13.65-2.13-29.68 4.27-43 3-13.32-1.27-22.42 11.51-34.32 10.32-11.91-1.19-23.21-8.91-35.66-10.34-12.44-1.44-28.14.83-39.95 2.09-11.8 1.26-22.95-7.94-36.06-8.08-13.12-.13-26.44-6.02-40.01-1.99-13.57 4.03-27.4 2.84-40.99.99-13.59-1.84-27.63 2.81-41.01 1.01-13.37-1.8-26.51-5.36-39.98-6.02-13.47-.67-26.01-7.61-39.02-4.98 26.34 1.29 51.77 10.78 77.98 12.02 26.2 1.25 56.45.42 82.02-2.02 25.57-2.44 50.79.3 73 12-21.29 5.74-46.1 3.05-68 3-21.9-.05-47.47 4.82-68.93.93-21.45-3.9-39.07-8.13-60-12-20.92-3.87-44.75-6.56-66.07-6.93-21.32-.37-40.54 7.93-59.99 12.01-19.46 4.07-36.92 16.07-57.01 14.99-20.09-1.08-41.31-4.23-56-16 13.99-1.05 27.05-5.95 41-7 13.94-1.05 27.89-1.75 40.98-6.02 13.08-4.28 27.2-2.52 40.34-6.66 13.15-4.14 26.17-1.78 39.68-5.32 13.51-3.54 27.53 8.23 40 5zm427 148c-15.78 3.36-32.63-2.68-48.07-5.93-15.44-3.24-31.53-4.73-44.93-13.07 14.67.76 31.79 4.87 47.02 7.98 15.24 3.1 33.47 3.7 45.98 11.02zM0 528.999c14.51-3.46 17.66 11.82 28.93 16.07s26.34-3.47 38.07-3.07c-11.9-2.95-28.65 7.38-39.25 1.25-10.61-6.12-13.21-18.96-27.75-16.25v2zM961 541c-19.66-2.33-39.23 2.15-58.33 2.33-19.1.18-35.26-12.1-53.67-6.33 19.46-3.78 34.65 8.05 54 8 19.35-.05 39.27-4.86 58-4zM1140 549.002c-9.48-2.99-25.3-6.51-31 4 3.85-2.11 9.19-6.25 14.93-5.93 5.73.32 11.17 3.43 16.07 1.93zM1151 549c-4.81 1.49-6.4 1.96-10 2 3.21 1.85.91 5.99 5 6-3.56-5.4 4.5-4.21 5-8zM1133 554.001c-4.65 2.57-11.46-2.81-14 1 4.08.14 11.57 3.71 14-1zM1140 554.002c-2.33-.33-4.06 1.09-6 2 .83 3.16 6.43.88 6-2zM1154 559.001c.83-3.2-2.3-4.7-5-4-.44 3.26 3.25 2.7 5 4zM1113 558c-3.07 1.33-6.33 7.85-4 11 2.79-3.15 1.7-7.68 4-11zM1147 564c-1.76-1.2-3.22-1.89-4-4-1.26 3.68 1.52 7.98 2 12 2.46-1.7-.29-5.87 2-8zM1184 562.998c-3.27-.9-2.82 2.15-4 4-2.95 1.35-6.82-4.31-7 1-2.37.65-5.28-2.62-7 0 2.92-.47 3.66 2.98 6 3 1.86-5.44 11.77.33 12-8z" />
        <path stroke="black" fill="none" className="drawingPaths"
            d="M0 565c11.09 1.03 22.13 4.32 32.67 7.33C43.21 575.34 56.01 581.9 68 578c11.99-3.9 20.84.9 32.02 3.98 11.19 3.08 22.22 5.3 33.65 7.35 11.44 2.05 22.82 3.78 34.34 5.66 11.52 1.88 25.07 4.71 36.99.01 11.92-4.69 21.12 3.2 32.07 4.93 10.95 1.72 20.2-4.31 31.01-8.85 10.8-4.55 18.53 2.3 28.15 6.69 9.62 4.39 18.75 5.83 25.02 14.98 6.27 9.16 12.01 14.24 19 22 6.98 7.76 18.46 9.32 27.97 12.03 9.51 2.7 23.35 6.5 33 8 9.65 1.5 32.17 4.03 29.78-8.78 7.17 2.58 14.47 4.64 22 6-3.43 3.69-8.77 5.09-13.68 6.32-4.9 1.24-12.39 3.53-17.39 3.61-5.01.07-15.62 2.19-8.85 5.99 6.78 3.8 11.25.3 17.92 3.08-7.89 9.91-25.11-.26-37.67 2.33-12.56 2.59-29.44 2.76-41.35-1.31-11.91-4.06-20.17-9.93-31.06-15.94-10.88-6.02-25.16-4.5-36.14 1.7-10.99 6.19-24.69 6.27-35.01-.55-10.32-6.82-19.69-13.07-31.44-15.56-11.76-2.49-25.79-7.79-37.01-4.35-11.21 3.44-22.29 12.82-34.32 11.68-12.03-1.15-21.99-9.86-32-15 22.85-.98 49.5-2.2 66-18-12.25 3.2-26.48-1.07-39 1-12.52 2.07-26.43-.78-39 1s-26.21-.78-38.67 1.33c-12.46 2.11-21.44-6.05-33.35-3.35C19.06 618.67 8.99 615.55 0 608v1c11.35 17.75 39.2.54 52.25 12.75 13.04 12.21 27.22 23.58 45.53 15.03 18.31-8.56 30.16 12.23 48.22 13.22 18.06.99 33.81-16.34 51.99-10.99 18.18 5.34 32.61 4.51 47.93 18.07 15.33 13.55 32.45 4.46 49.86-1.3 17.4-5.76 32.92 6.11 48.99 14.45 16.08 8.34 40.06 3.98 58.23 4.77 18.17.79 40.46 4.54 57.78 9.22 17.31 4.68 38.42 2.13 50.22 15.78-12.37-3.45-24.8-.24-34.77 6.23-9.97 6.47-21.16-9.57-32.23-6.23-11.07 3.34-24.05 7.48-33.92.92-9.88-6.55-18.65-12.16-30.41-10.25-11.76 1.92-20.57 6.62-31.65 11.35-11.07 4.74-22.65 2.19-33.8-2.24-11.14-4.44-22.49-7.39-35.22-7.78-12.73-.39-28.28.95-40.99-1.01-12.71-1.95-25.05-3.2-37.99-5.01-12.93-1.82-26.75-.91-40.02.02-13.27.93-28.52.53-42 1s-28-1.03-40.78-.78C64.44 686.47 48.58 686 38 689c12.98-1.52 25.58-.15 39-1 1.86 4.21 2.06 8.81 0 12 4.49-1.97 2.03 4.34 7 3-.91-5.61-4.46-8.26-4-14 8.01.22 25.33-5.81 27 5-4.27-4.25-5.07 5.77-4 9-4.43-1.5-2.2 5.46 1 4 .3-4.11 1.11-15.93 4-6 2.68-3.82-.68-7.89 0-12 53.33-3.24 101.41 14.42 153 18-2.58 5.49 1.81 10.11 1 15 3.31-.4 2.88-5.29 3-8-4.92 2.99-.15-3.88-3-6 12.95-3.28 26.22 1.3 39 2 12.78.7 27.64 1.61 40 3s23.55 4.85 34.99 8.01c11.45 3.15 20.8 7.86 31.94 11.06 11.13 3.21 21.83 7.58 33.06 9.94 11.24 2.35 23.87 6.51 35.01 7.99 11.14 1.48 23.2 8.01 32 4 4.74 1.32 17.11 5.74 16-2-5.7 4.97-11.92-.76-17.78 2.22-5.86 2.98-13.2-3.37-19.54-3.9-6.35-.53-14.07-3.41-20.67-4.33-6.6-.92-13.83-3.07-20.34-4.66-6.5-1.6-13.23-3.55-19.65-5.35-6.41-1.81-13.39-2.73-19.02-5.98 10.07-2.83 21.13-3.66 32-3 10.87.66 18.16-2.45 27.93-6.07 9.77-3.63 19.31 2.88 29.07 3.07 9.76.19 22.22.23 31.33 2.67 9.1 2.44 20.51 3.71 27.67 2.33 3.7.72 4.71 3.96 3 7 2.18-3.11 3.95-2.04 7-3-2.02-2.12-4.52-1.87-5-6-16.26.81-35.02-1.71-53.75-4.2-18.74-2.49-35.69-6.19-54.03 1.42-18.34 7.61-34-7.77-51.15-13.29-17.14-5.52-41.49-4.47-60.07-4.93 11.44-3.89 20.83-9.55 32.99-13.01 12.16-3.45 24.21.97 34.31 8.71 10.1 7.73 23.1 3.47 34.7-.7 11.6-4.17 23.19 14.7 33.77 6.77 10.58-7.93 23.18-7.6 36.23-5.77 13.04 1.83 30.5 1.71 44 1s29.31.23 41.98 2.02c12.66 1.79 22.67 5.67 34.02 4.98 3.85 6.7 12.45 2.24 17.75 7.25 5.31 5.01-4.27 8.92-9.53 10.97-5.25 2.06-11.93 5.54-18.2 6.8-6.27 1.27-14.22 3.14-21 4-6.77.86-14.4 2.99-21.28 2.38-6.87-.61-6.59 9.87-13.74 9.6-3.57-4.19-4.77-6.88-7-11-.11 3.23-.31 7.38 3 9-.38 3.72-6.6 6-9 3 .1 9.89 17.79-7.84 20 4-1.12-3.73 4.16-4.64 4-8 3.32-1.31 3.48 3.16 6 3 6.46-8.17 9.87 4.69 1.02 6.02-8.84 1.33-13.15 4.18-20.95 6.05-7.79 1.88-13.5 4.42-21 6-7.5 1.59-13.71 4.28-21.05 5.95-7.34 1.68-14.31 4.07-21.8 5.2s-13.89 3.64-21.55 4.45c-7.66.82-14.97 3.34-22.67 4.33-7.7.99-16.35 1.76-24 3-7.65 1.24-16.38 2.03-23.93 3.07-7.54 1.05-15.69 3.74-23.07 3.93-7.38.19-15.22 4.59-20 0 .07 4.22-4.38 3.12-5 6 12.64.39 25.39-4.81 39.33-5.67 13.94-.86 28.78-4.91 42.67-6.33s28.93-4.12 42.33-6.67c13.4-2.55 27.56-4.58 40-9 12.44-4.42 26.91-5.66 38.6-10.4 11.68-4.75 29.08-4.1 31.07-17.93 15.11 8.03-5.79 14.27-15.93 17.07-10.13 2.81-22.96 10.22-34.05 12.95-11.08 2.74-21.1 12.06-34.02 11.98-12.91-.07-25.77 6.45-38 9-12.22 2.56-28.45 1.27-38.97 8.03-10.53 6.75-23.17 5.54-28.03 17.97 3.64-3.39 9.07-11.47 13-5 .67-9.33 13.8-9.98 22.31-14.69 8.51-4.72 21.56-2.16 31.47-4.53 9.9-2.37 20.84-6.8 31.2-7.8 10.35-1 20.94-3.05 29.27-8.73 8.33-5.68 19.51-6.45 28.53-10.47 9.01-4.03 18.48-7.38 27.53-10.47 9.04-3.1 20.76-9.39 7.69-16.31 10.53-1.64 26.56-1.98 35.93-6.07 9.36-4.1 20.79-6.85 26.82-15.18 6.03-8.33-11.01-13.59-19-15.16-7.99-1.57-21.3-5.91-32.08-7.26-10.78-1.35-25.1-4.27-37.67-3.33-12.57.94-27.55-.99-40.98.98-13.42 1.96-17.95-10.04-29.02-12.98-11.07-2.94-25.23-1.4-36-6-10.77-4.61-23.67-2.16-34-7 1.52-3.77 5.68-4.85 9-3-1.07-3.48 1.72-4.96 4-6-1.89-1.51-5.23.53-5 3-8.28.08-15.9-2.47-24-3 3.41-5.3 14.86-3.09 21.98-5.02 7.11-1.93 13.27-4 20.35-6.65 7.08-2.65 18-.78 25.67-1.33 7.67-.55 18.63-1.46 26-1 7.37.46 19.55-.36 25-2 5.45-1.64 21.61-3.39 19.3 2.29-2.32 5.69-17.01 2.47-23.3 3.71-6.29 1.24-18 .66-25 2-7 1.34-16.18 1.45-22.99 4.01-6.82 2.55-15.11 2.02-22.01 2.99-6.89.97-14.01-.23-18 6 11.57-6.28 26.99-2.31 38.93-7.07 11.93-4.77 26.96-3.35 39.07-5.93 12.11-2.58 33.32 4.91 35-10 10.13 4.17 16.12-11.34 6-12-10.12-.67-15.2-3.57-24.33-4.67-9.13-1.1-18.3.01-26.65-2.35-8.35-2.37-12.44-6.04-19.95-9.05-7.51-3.01-18.34-1.72-26.07-2.93-7.73-1.21-17.85-.45-20-9-14.43-1.21-29.35-12.76-43.99-8.99-14.64 3.76-32.12-.56-46.33 4.67s-26.29-4.94-39.46-10.9c-13.16-5.97-29.47-10.08-43.55-4.11-14.08 5.97-28.4 11.68-42.42 5.08-14.02-6.6-29.76 2.33-45.25.25-15.49-2.08-32.76-4.24-47.99-7.01-15.24-2.77-29.66-5.71-43.94-11.06-14.27-5.35-32.16 3.79-47-2C28.23 569.13 15.73 565.67 0 564v1zm286 23c8.59-3.19 16.26 3.3 24.08 5.92 7.82 2.63 14.5 7.13 22.6 9.4 8.1 2.28 9.4 10.78 16.57 15.43 7.17 4.66 11.5 9.37 19.83 13.17 8.32 3.81 14.39 6.12 24.99 7.01 10.61.88 16.06-.38 28 4 11.94 4.38 4.36 11.63-7.07 10.07-11.43-1.56-18.76-.55-28.02-3.98-9.27-3.42-17.49-3.33-25.65-6.35-8.17-3.01-16.22-4.9-21.58-11.42-5.36-6.52-9.16-11.33-15-17s-9.05-12.43-16.83-15.17c-7.77-2.75-16.89-3.65-21.92-11.08zm211 41c6.52.49 11.74 2.3 19.01 3.99 7.26 1.69 16.6-.71 23.99 2.01 7.4 2.72 12.78 1.71 21 4 8.22 2.28-4.42 12.68-10 8-.07-2.36 1.99-5.1 0-7-4.82 11.29-20.26 9.12-33 10-12.74.88-29.94-.19-43 1-13.06 1.19-27.48-1.16-39.02-4.98-11.55-3.81-21.91-8.67-34-9-12.1-.32-25.5-2.39-35.21-8.79-9.71-6.41-17.87-10.26-23.77-20.23 10.04.48 21.55-9.63 32-6 10.45 3.63 23.36-3.26 28.92 6.08 5.56 9.35 13.27 10.94 22.31 15.69s19.36 7.77 29.77 9.23c10.41 1.46 23.7 3.24 34 3-30.28-4.42-71.6-6-88-36 17.2 1.36 31.57 8.09 45.68 16.32 14.1 8.24 39.34-3.35 49.32 12.68zm-320-11c-11.83 7.37-25.48 11.99-40.02 12.98-14.55.98-33.71 2.39-47.05 6.95C76.58 642.48 61.46 630.65 55 621c40.95.14 81.33-2 122-3zm252 106c-16.35 6.97-32.03 3.39-48.68-3.32-16.64-6.71-34.89-8.8-53.32-10.68-18.43-1.88-41.24-4.37-60-5-18.76-.63-36.53-3.62-55.22-6.78-18.7-3.15-37.06-6.35-55.78-9.22 22.65-4.35 48.28-3.1 71.01 1.99 22.73 5.1 49.7-1.62 71.66 5.34C320.64 703.29 341.79 711 366 708s41.92 8.99 63 16zm229-3c-.9 9.19-10.93 11.36-19.07 15.93-8.14 4.56-20.3 6.52-29.95 8.05-9.65 1.52-22.61 2.81-30.98 1.02 7.21-3.97 20.5-3.05 29.67-5.33 9.17-2.28 19.73-3.29 28.35-6.65 8.63-3.36 15.04-7.01 21.98-13.02z" />
        <path stroke="black" fill="none" className="drawingPaths"
            d="M0 608c8.99 7.55 19.06 10.67 30.98 7.98 11.91-2.7 20.89 5.46 33.35 3.35s26.1.45 38.67-1.33 26.48 1.07 39-1c12.52-2.07 26.75 2.2 39-1-16.5 15.8-43.15 17.02-66 18 10.01 5.14 19.97 13.85 32 15 12.03 1.14 23.11-8.24 34.32-11.68 11.22-3.44 25.25 1.86 37.01 4.35 11.75 2.49 21.12 8.74 31.44 15.56s24.02 6.74 35.01.55c10.98-6.2 25.26-7.72 36.14-1.7 10.89 6.01 19.15 11.88 31.06 15.94 11.91 4.07 28.79 3.9 41.35 1.31 12.56-2.59 29.78 7.58 37.67-2.33-6.67-2.78-11.14.72-17.92-3.08-6.77-3.8 3.84-5.92 8.85-5.99 5-.08 12.49-2.37 17.39-3.61 4.91-1.23 10.25-2.63 13.68-6.32-7.53-1.36-14.83-3.42-22-6 2.39 12.81-20.13 10.28-29.78 8.78-9.65-1.5-23.49-5.3-33-8-9.51-2.71-20.99-4.27-27.97-12.03-6.99-7.76-12.73-12.84-19-22-6.27-9.15-15.4-10.59-25.02-14.98-9.62-4.39-17.35-11.24-28.15-6.69-10.81 4.54-20.06 10.57-31.01 8.85-10.95-1.73-20.15-9.62-32.07-4.93-11.92 4.7-25.47 1.87-36.99-.01-11.52-1.88-22.9-3.61-34.34-5.66-11.43-2.05-22.46-4.27-33.65-7.35C88.84 578.9 79.99 574.1 68 578c-11.99 3.9-24.79-2.66-35.33-5.67S11.09 566.03 0 565v43zM1203 573c-5.5 1.28-10-2.2-13-6-1.36 5.01-2.17 8.42-4 13 2.8-1.89 4.64-5.44 4-9 3.7 1.01 10.62 7.45 13 2zM1221 580.999c.12.22 1 0 1 0v-4c-4.14-1.4.81-5.62-3-7h3v-1c-.33-.16-.95-.65-1-1-3.07-.61-4.96 2.6-8 2 4.78 1.02 5.56 6.76 8 11zM1165 569c-4.91.69-9.03 5.18-11 10 4.05-3.04 8.39-6.6 11-10z" />
        <path stroke="black" fill="none" className="drawingPaths"
            d="M1222 577v-7h-3c3.81 1.38-1.14 5.6 3 7zM1108 571c-1.95 1.71-3.95.39-6 0 10.34 4.04 8.35 11.02-.93 14.07-9.27 3.06-14.91 6.92-25.07 5.93-10.16-.99-21.08.59-31 0-9.92-.59-20.36 1.24-29.78 1.22-9.41-.02-18.31 2.8-26.54.1-8.23-2.69-18.53-5.3-27.61-3.25-9.08 2.06-15.07 6.88-25.07 5.93-10-.95-21.09.14-31 0s-19.13-1.24-28 0c21.21 1.6 44.2.94 65 1-14.29 15.43-37.27 11.03-54 3 6.49 5.14 16.33 6.02 23 10-13.27 5.16-25.82 9.88-40.33 6.33-14.51-3.55-28.28 7.04-42.67 5.67 16.35.59 34.23-5.98 51-3 16.77 2.98 32.31-9.01 47.78-11.22 15.46-2.21 26.34-19.68 43.22-16.78 16.87 2.91 30.88 10.11 48 11 17.12.9 35.88 6.95 51.78-.22 15.89-7.18 25.14-12.88 41.22-17.78-.49 3.54-4.21 7.91-2 11 1.91-5.24 3.23-11.37 5-16-3.61-.54-3.79-4.7-6-7zm-27 23c-26.06 13.74-56.02 6.22-84 2 26.92-2.93 56.9-6.11 84-2zM1144 581c-2.78 15.52-10.49-3.83-17-7 5.95 6.66 9.42 16.36 16 23-5.55 5.08-15.94 8.1-17 17 9.97-19.07 35.94-16.75 53-9-4.64-5.16 3.37-8.45 3-14-1.97 4.48-8.22 7.72-7.99 1.01.23-6.71 6.23-8.58.99-13.01-.33 2.98.82 6.42-1 9-2.82-.52-1.22-4.43-4-5 1.02 4.61 2.87 8.89 2 14-7.92-.75-15.74-1.83-22-7-.05 3.36 4.01 4.64 6 6-9.12 4.99-13.89-8.72-12-15zM1205 581c-4.68-.29-7.62-4.43-12-5 1.89 2.79 8.19 7.6 12 5zM1214 582.001c-.1-3.3-4.11-5.15-7-5 1.19 2.44 4.54 3.45 7 5zM604 583.002c-23.18-1.96-48.72-9.08-71-1 23.12-6.32 48.44 1.1 71 1zM532 582.002c-15.88-4.09-33.42.2-49 3 16.65-1.08 32.76-4.99 49-3z" />
        <path stroke="black" fill="none" className="drawingPaths"
            d="M1155 584.998c-.65-1.7-.48-5.3-3-5-.16 2.96-3.79 4.7-3 8 1.54-1.34 3.26-5.66 6-3zM1186 582c-1.68.75-3.04 2.43-4 4 5.09.25 10.54 5.4 16 3-2.79-3.96-12.27.85-12-7zM1209 588c-.52-2.57-3.48-2.76-5-5 1.31 3.32-3.16 3.48-3 6 2.63-2.1 5.01-1.61 8-1zM1219 590.002c-1.15-2.73-5.89-4.96-8-3 3.21.47 4.53 4.77 8 3zM286 588c5.03 7.43 14.15 8.33 21.92 11.08 7.78 2.74 10.99 9.5 16.83 15.17 5.84 5.67 9.64 10.48 15 17 5.36 6.52 13.41 8.41 21.58 11.42 8.16 3.02 16.38 2.93 25.65 6.35 9.26 3.43 16.59 2.42 28.02 3.98s19.01-5.69 7.07-10.07c-11.94-4.38-17.39-3.12-28-4-10.6-.89-16.67-3.2-24.99-7.01-8.33-3.8-12.66-8.51-19.83-13.17-7.17-4.65-8.47-13.15-16.57-15.43-8.1-2.27-14.78-6.77-22.6-9.4-7.82-2.62-15.49-9.11-24.08-5.92zM876 593c-61.23-5.19-125.34-5.48-187-3 62.29.17 126.5.41 187 3zM1081 594c-27.1-4.11-57.08-.93-84 2 27.98 4.22 57.94 11.74 84-2zM444 610.001c13.65 3.7 26.79 1.64 42 2 15.21.36 25.93.95 42 2s2.43-17.17-9-17c3.81 4.9 12.74 3.57 15.07 10.93 2.33 7.35-11.48 4.37-18.05 4.05-6.56-.33-16.48-2.43-24.02-1.98-7.54.45-17.18.94-25 1-7.82.06-16.13-1.44-23-1zM861 597.001c-12.32-.28-25.24-.52-36 4 11.78-2.05 24.33-2.9 36-4zM1219 598c-2.36 1.42-5.59 6.51-1 7-1.81-2.89 1.54-4 1-7zM1146 621c-7.41-4.56-18.01-.5-24.25-4.75-6.24-4.25-4.7-14.96-12.75-17.25 4.17 4.77 5.21 15.42 11.31 19.69 6.09 4.27 19.7.69 25.69 2.31z" />
        <path stroke="black" fill="none" className="drawingPaths"
            d="M497 629c-9.98-16.03-35.22-4.44-49.32-12.68-14.11-8.23-28.48-14.96-45.68-16.32 16.4 30 57.72 31.58 88 36-10.3.24-23.59-1.54-34-3s-20.73-4.48-29.77-9.23-16.75-6.34-22.31-15.69c-5.56-9.34-18.47-2.45-28.92-6.08-10.45-3.63-21.96 6.48-32 6 5.9 9.97 14.06 13.82 23.77 20.23 9.71 6.4 23.11 8.47 35.21 8.79 12.09.33 22.45 5.19 34 9 11.54 3.82 25.96 6.17 39.02 4.98 13.06-1.19 30.26-.12 43-1 12.74-.88 28.18 1.29 33-10 1.99 1.9-.07 4.64 0 7 5.58 4.68 18.22-5.72 10-8-8.22-2.29-13.6-1.28-21-4-7.39-2.72-16.73-.32-23.99-2.01-7.27-1.69-12.49-3.5-19.01-3.99zM1104 600c-5.1 4.19.45 4.36 4 5 .25-2.68-3.47-2.41-4-5zM1098 604.001c-3.52-.81-.59 4.85-4 4 3.29 6.22 12.09 11.39 19 5-6.29-.42-17.81 2.12-15-9zM1180 606c-2.45.78-3.83 4.56-5 7 3.68.02 4.38-4.33 5-7zM1093 609.999c-9.93-2.56-15.83 10.7-25.78 12.22-9.95 1.53-21.34-2.58-31.2-6.24-9.85-3.67-22.83-6.69-34.02-5.98-11.19.71-20.33 3.93-28.92 10.08-8.59 6.15-16.03 13.22-26.01 9.85-9.98-3.38-21.34-7.48-31.38-2.24-10.03 5.25-22.25 6.35-33.69 4.31-11.43-2.04-21.96.3-32.32 4.68-10.36 4.37-22.7-2.55-33.68-1.68-10.98.87-25.13 7.53-32-1-6.09-1.57-11.21 4.48-16.26 4.26-5.04-.22-11.13-5.29-15.74-4.26 3.21 4.23 15.56 2.78 13 9 12.77-13.01 26.07 1.72 40.99-5.01 14.92-6.73 31.44 5.99 45.94-.06 14.49-6.06 31.95-6.37 47.07-2.93-7.24 3.19-17.56.73-24.77 5.23-7.21 4.5-13.34 8.38-22.23 5.77-8.89-2.61-16.39 4.31-24.33 5.67-7.93 1.37-17.72 3.72-25.66 4.34-7.95.62-14.01 8.77-21.31 5.29-7.31-3.47-15.5-4.86-22.7-4.3 6.62 3.75 19.31.33 22 8 10.94-.79 19.5-10.04 30.98-9.02 11.47 1.01 20.63-5.67 31-8 10.36-2.34 23.47 2.07 32.33-5.67 8.85-7.75 22.09-1.79 30.99-8.01 8.91-6.22 19.87-9.63 29.7-5.3-14.98 1.07-23.85 13.32-37.99 17.01-14.14 3.69-29.64 8.84-45.01 8.99-15.37.15-29.9 8.77-45 9 13.2 3.81 23.24-5.75 35-7 11.76-1.25 26.04-1.66 36.93-5.07 10.88-3.42 20.85-5.66 30.38-10.62 9.52-4.97 19.71-12.92 30.69-11.31 10.97 1.62 19.08 4.04 27.92-5.08 8.83-9.12 17.89-9.75 29.07-12.93 11.19-3.17 24.66.48 34.94 4.08 10.27 3.61 23.05 8.66 34.05 7.91 10.99-.75 15.99-13.5 27.02-13.98zM1172 613.002c-.91-4.69-9.52-5.03-11 0 3.49 1.1 6.87-1.97 11 0zM827 619c-8.41.76-15.44-9.06-23-7 7.99.76 15.16 10.02 23 7zM1163 619c-2.03-2.83-3.97-3.83-4-7-1.66 2.25-2.32 4.9 1 6-.04 5-3.2 11.65-9 9 1.59 2.54 4.07 3.93 6 6-1.25-3.09-.03-6.63 4-6-2.14-2.74-.43-6.48 2-8zM1221 621c.06.49 0 1 0 1 0 9.98-1.42 21.14 0 31 .25.25.67.84 1 1v-38c-1.54.73-1.18 3.5-1 5zM177 618c-40.67 1-81.05 3.14-122 3 6.46 9.65 21.58 21.48 34.93 16.93 13.34-4.56 32.5-5.97 47.05-6.95 14.54-.99 28.19-5.61 40.02-12.98z" />
        <path stroke="black" fill="none" className="drawingPaths"
            d="M1221 621.999s.06-.51 0-1c-2.33-.12-4.96.81-6 3 1.97 1.42 4.38-.59 6-2zM599 622c-30.9.13-61.98 1.71-92 4 30.27 1.23 61.97-2.33 92-4zM825 623c-12.34 1.11-22.21 10.55-35 10 11.9 2.9 23.86-6.83 35-10zM1221 658c.32.24 1 0 1 0v-4c-.33-.16-.75-.75-1-1-7.8-7.34-14.52-17.81-12-28-2.56 2.74-1.1 9.97-7 7 3.34 3.15 6.4 7.1 7 12-3.92-.07-5.08-5.9-9-6 .11 2.83 4.18 3.09 5 6-4.65 1.33-11.44 8.28-4 10-4.87-5.22 5.93-11.93 8.7-6.7 2.76 5.24 6.68 7.18 11.3 10.7zM750 634c-6.44 1.32-10.77.3-17.33 2.67-6.56 2.37-16.35-3.33-20.67 2.33 12.71-2.27 27.64 1.73 38-5zM1163 640c.49-3.16-2.87-6.46-6-6-.1 3.73 4.42 3.69 6 6zM1167 638c-3.11 4.21-3.15 5.07-6 8 2.7-.15 4.88-.21 7-1-2.44-2.17-1.33-4.24-1-7zM1154 641c-6.27 4.93 3.84 16.23 8 9-3.21 1.85-5.14-.69-8-2-.46-2.52 2.25-4.78 0-7zM722 652.002c-1.94-7.79-9.5.65 0 0zM1170 647.999c-2.62-.52-4.38.5-5 3 4-.91 4.09 1.43 2 4 3.93.25 2.93-4.48 3-7zM764 669c-12.51-7.32-30.74-7.92-45.98-11.02-15.23-3.11-32.35-7.22-47.02-7.98 13.4 8.34 29.49 9.83 44.93 13.07 15.44 3.25 32.29 9.29 48.07 5.93zM1106 649c-2.06 5.59 1.81 11.08 5 16-4.93 3.76-6.13-2.86-9-5 .11 3.3-2.23 7.89-6 4 .3 1.99 1.9 4.93 4 5 5.83-3.08 12.51-2.13 17.99-8.01 5.48-5.88 13.85 7.26 19.01 7.01-3.21 1.05-2.94 3.32 1 3 .7-15.45 21.66-2.77 25-11-2.78 3.11-7.16 3.29-9-1-5.77 0-11.89 4.36-16.32 6.66s-11.44-6.44-13.68-8.66c-2.94 1.7-6.22 4.5-8 0-2.46 13.28-9.63-2.35-10-8zM756 655.998c-7.71-6.96-23.32-5.56-33-5 10.84 2.51 21.7.65 33 5z" />
        <path stroke="black" fill="none" className="drawingPaths"
            d="M1119 650c-1.5 1.3-1.88 3.95-2 6 4.9.81 1.27-3.43 2-6zM1094 656c-2.35 3.54.86 8.11-3 10 1.28 1.8 2.2 4.15 4 6-9.13-.21-5.5 10.3-9 16 5.83-3.84 2.62-14.44 12-15 .85-3.41-5.95-3.79-3.78-7.78 2.17-3.99.22-5.54-.22-9.22zM1201 656c-1.73 1.95-5.85 2.16-6 5 2.56-.3 5.95-2.02 6-5zM1014 664.002c15.04-5.11-11.63-12.75-12-2 4.14.45 3.58 4.62 5 7 4.63-4.61-5.56-7.74 0-11 2.82 3.28 6.23.15 10 1-2.64 5.11-7.83 9.26-10 15 5.3.47 7.25-5.6 7-10zM1075 657c-3.49 1.3-3.02 5.46-5 8-8.19-1.42-21.86-1.46-30-1-8.13.46-17.74.15-17 9 3.46-.01.12-3.55 3-5 6.79 1.42 15.31-3.93 25-3 9.69.93 19.64 1.54 28 2-4.21-3.84-2.45-6.83-7-2 .56-2.81 2.94-4.97 3-8zM1221 773v3c.27.25 1 0 1 0V658s-.68.24-1 0c-1.72 19.03.66 38.93 0 58s-.01 37.95 0 57zM1091 661.002c-4.49-.84-2.49 4.86-5 7 3.94.67 3.75-4.5 5-7zM0 675c1.71-3.2 1.58-9.73 0-13v13zM1072 676.001c-1.48-3.04 4.96-8.59-1-8 2.84 4.17-2.68 6.65-4 9 4.31-2.34 5.06 4.94 9 5-.72-2.21-.72-6.23-4-6z" />
        <path stroke="black" fill="none" className="drawingPaths"
            d="M1040 670c-6.48.57-3.07 4.46-2 8-3.6-2.41-6.39-.14-8 2-2.21-.76-3.03-3.15-4-5-5.6 2.54.19 3.72 0 7 5.28-.23 14.32-.74 15-7-3.24-.68-3.25-2.98-1-5zM912 673.001c-14.91-5.23-31.99 7.25-48 7 17.14 1.98 30.77-9.43 48-7zM1191 693.001c6.64-5.56 7.9-24.26-4-19 11.8-1.78 8.78 17.67-2 17-1.07-1.87-.09-6.16-3-6-1.26 4.33 3.84 9.49 9 8zM989 683c-9.48-14.81-26.3-9.86-38.92-2.92-12.63 6.93-28.88 9-42.08 13.92 16.44-3.08 32.64-5.74 47.31-14.69 14.66-8.96 29.61-3 38.69 11.69 2.72-3.16-1.97-3.71-3-6 4.16-3.88 10.98-6.89 14-12-5.76 2.37-10.03 8.11-16 10zM1016 679c.77-3.95-4.3-3.86-7-4 1.89 1.57 4.5 3.34 7 4zM910 677c-4.5 2.97-10.25 5.13-14 9 5.21-1.69 10.69-4.3 14-9z" />
        <path stroke="black" fill="none" className="drawingPaths"
            d="M1012 681c-4.08 1.11-4.51-1.85-5-4-2.11 3.26-7.52 4.36-9 7 4.38-2.25 10.09-1.21 14-3zM1069 681c-2.95 1.01-4.49-1.77-7-2 4.01 7.56-8.71-.51-13 5 3.38 1.05 9.3-.66 12.9.1 3.61.75 8.83 7.01 12.1 2.9-3.41.71-5.83-2.9-5-6zM862.999 679.999c-6.38-1.07-17.32 6.69-10.68 10.68 6.64 3.98 17.68 1.15 18.68 7.32 18.49-5.43 37.36-9.98 56-15-25.07-.24-50.6 19.13-76 6 .54-6.07 8.14-6.43 12-9zM1178 681c-4.74 3.08-7.21 8.38-10 13 3.62-3.06 9.76-9.65 10-13zM0 687v2h9c.41 3.16-2.22 7.42 3 6-3.06-2.65.37-2.95 0-6 5.34.63 14.91-2.56 14 5 3.37.22-.62-4.26 3-5 .98 3.07 5.27 4.4 3 8 3.54.45.72-4.58 4-5-3.62-3.31-4.09-2.23 1-4-3.03-.85-2.97-3.9-5-6-.21 3.67-2.59 6.73-4 2-1.86 5.28-15.72 6.03-16 0-2.68 2.73-7.42 4.93-12 3zM1040 683c-2.25 2.55-4.3 2.17-7 3 .17 4.01 10.06.68 7-3zM1009 685.998c-2.37-1.4-5.92-.48-6 3 2.16-.9 3.86-2.11 6-3zM1025 685.001c-.91 6.82-7.63-1.35 0 0zM429 724c-21.08-7.01-38.79-19-63-16s-45.36-4.71-67.33-11.67c-21.96-6.96-48.93-.24-71.66-5.34-22.73-5.09-48.36-6.34-71.01-1.99 18.72 2.87 37.08 6.07 55.78 9.22 18.69 3.16 36.46 6.15 55.22 6.78 18.76.63 41.57 3.12 60 5s36.68 3.97 53.32 10.68c16.65 6.71 32.33 10.29 48.68 3.32zM726 688.001c-3.84.57-8.91-1.18-12 1 3.85-.57 8.91 1.19 12-1zM1049 691c-3.42 2.25-4.47-1.18-7-2-5.45 4.79-1.28 11.62 0 3 .46 4.48 7.52 5.36 7-1zM1087 688.999c-2.09-.93-4 2.58-1.7 3.64 2.3 1.07 3.55-2.82 1.7-3.64zM59.002 690c-2.87 2.7-2.88 6.86 1 8-.58-3.09-.06-5.12-1-8zM1067 693.002c-.93-6.87-7.63 1.47 0 0zM848 703c-24.1-2.18-55.81-10.22-82-11 14.36.4 28.71 7.06 43 7 14.28-.05 26.45 8.79 39 4zM40 692c-3.13 2.62-4.34 6.95-6 10 3.37-2.38 7.64-5.55 6-10zM131.001 692c-1.72 3.74-1.96 8.83-1 13 5.74-2.55 1.77-8.09 1-13zM992 692c-2.29 2.8-5.9 1.83-8 4 3.24-1.08 4.65 6.32 5 0 2.49 2.25 6.61-.43 7-3-1.75-1.5-5.56 4.3-4-1zM1001 692c-3.68-.02-4.38 4.33-5 7 2.17-1.22 4.66-4.24 5-7zM1055 693c-4.45 2.61.46 10.63 5 12-.1-5.55-2.31-7.62-5-12zM6 701c.53-2.93-.38-7.04-4-7 1.01 2.41 1.73 5.51 4 7zM1081 694c-2.52.2-5.81 1.88-5 5 1.64-1.52 4.83-2.73 5-5zM992 706.001c-7.54-10.92-19.67-10.26-33-11-13.33-.74-31.79-.69-44.98 1.02-13.18 1.72-25.85 6.65-39.02 6.98 19.74 2.32 37.85-7.61 57-7 19.15.61 38.01-.34 55 6-2.15 4.1 2.08 5.23 5 4zM14 696c-3.24.77-3.39 1.75-4 4-.8 2.51 1.89 5.28 4 3-1.96-2.82-2.01-4.29 0-7zM721 698c-5.18.61-11.58-1.25-16 1 5.18-.61 11.58 1.25 16-1zM61 699.999c-2.79-1.39-11.16 2.58-5 5 .82-2.8 3.44-2.66 5-5zM1037 699c-2.21 1.76.93 4.7-1 7 5.34.16 7.46 5.49 2.08 7.08-5.37 1.59.05 7.57-5.08 9.92 3.75-.25 2.03 2.86 2 5 4.59-1.68-.14-7.97 2.25-11.75 2.39-3.78 8.2-2.1 10.75-5.25-4.5 1.77-5.71-1.06-3.75-4.75 1.95-3.7 7.13-2.03 6.75-6.25-3.99.13-7.61 3.29-9 7-5.83-.58-1.73-6.17-5-8zM1076 700c-2.72 1.8-2.42 5.9 0 8 1.78-1.77-1.09-5.25 0-8zM1167 700c-3.36 1.63-6.38 6.97-4 10 .7-3.75 2.31-6.77 4-10zM993.002 708c3.05.12 4.05-5.4 2-7 .07 2.59-2.63 4.28-2 7zM107.998 709.001c1.93-2.08 2.26-5.13 1-7-3.24-.2-2.39 5.67-1 7zM28 707c-.18-3.28-4.68-3.04-7-4 .4 2.81 4.19 4.44 7 4zM44 704c-3.05 1.17-7.54-2.27-9 1 2.99 1.24 6.42 2.03 9-1zM78.001 706.998c.41-7.03-7.27-1.99 0 0zM1160 709.999c-4.75 2.76-10.94 4.09-10.2-2.75.74-6.84-7.57-3.55-9.11.44-1.53 4-14.29.34-11.69 8.31 3.63-.38 3.17 5.5 7 5-1.45-2.49-3.26-4.64-5-7 4.62-1.57 10.35-7.12 13.97-8.97 3.62-1.86 2.8 12.97 10.03 9.97.86-2.43 4.26-2.3 5-5zM88.002 707c-4.96 2.74-4.63-2.28-8-3-.31 4.19 7.14 9.18 8 3z" />
        <path stroke="black" fill="none" className="drawingPaths"
            d="M984.999 705.999c-3.75-4.86-10.91 3.3-5 7 3.42-1.48 9.41.01 11-4-3.67-1.27-6.63 2.36-11 1-.89-4.58 2.76-2.71 5-4zM135 705c-3.07 1.03-3.64 1.75-7 2 5.69 1.08 3.15 6.65 9 4-1.45 5.2-2.99 3.55-6 3 3.54 8.85 9.93-1.56 8-7-2.64 1.56-6.85 2.59-4-2zM984.001 740.001c3.94-12.08-12.1 2-16.75-5.25s-10.121-9.61-18.581-11.42c-8.46-1.82-16.899-3.18-25.599-4.4-8.69-1.22-16.571-2.12-25.401-3.6-8.83-1.48-17.639-1.49-26.669-3.33-9.03-1.84-16.97.41-25.92-4.08-8.96-4.48-18.61 1.79-8.77 6.78 9.83 4.98 12.44 4.63 21 7.99 8.55 3.37 12.54 5.46 18.46 11.54 5.92 6.08 15.1 3.16 20.98 9.02 5.89 5.85 16.959 2.84 23.169 6.83 6.2 3.99 10.081 11.27 19.081 9.92.42 3.55-4.94 4.08-5 7 3.19-.83 7.17-4.39 7-8-11.67 1.05-16.52-11.41-26.93-12.07-10.4-.67-19.131-7.31-28.851-10.15-9.72-2.85-14.639-11.67-24.149-14.85-9.5-3.18-19.13-6.57-28.07-10.93 3.48-7.2 14.5.82 22.78 1.22 8.28.4 18.84 3.98 27.55 4.45 8.71.47 20.12 2.63 28.6 3.4 8.47.77 20.16 3.37 27.85 4.15 7.69.78 20.7 4.09 15.22 8.78 8.31-.04 20.38 5.77 21 14 5.68-4.44-.97-4.32-1-9 3.59 2.36 7.63-3.77 9 2zM68 708c-2.83 6.17-7.58-3.33 0 0zM1028 707.001c-3.91-.09-2.91 4.87-5 7-2.4-.71-3.91-2.68-6-4 2.02 6.22 8.26 9.72 8 17-9.07-7.74-34.568 6.59-29.998-14-9.06 9.85 6.938 17.47 15.928 13.93 8.98-3.54 18.66 10.86 25.07 3.07-3.39 1.02-5.52.69-8-2 3.47-4.46-2.12-4.32-3-9-.88-4.68 1.54-8.16 3-12zM1070 707c-3.69.96-5.68 5.99-9 1 .09 4.6 5.41 4.5 8 2 .9 6.11 11.84 4.31 13 0-2.13 2.66-2.99-2.79-4-1-.59 5.63-8.49 2.72-8-2zM77 721.001c.4-2.9 3.01-14.59-4-12 1.14 2.7 4.85 4.55 0 6 4.24-.25 1.36 4.41 4 6zM104 710.998c-1.49-1.39-3.55-3.44-6-3 1.09 1.9 3.67 5.34 6 3zM114.002 709c-2.36 2.42-2.72.73-5 0-2.79 3.77 6.02 4.19 5 0zM232 710c-2.41.71.54 5.7-3 5 1.42 2.95 4.24 4.59-1 3 3.69 2.57 5.95 8.21 2 12 3.23-.25 2.85 2.49 1 4 5.56-.75 8.35 10.69 13 5-1.43-1.71-4.46-.82-6-3 3.68-4.09-1.23-2.37-4-2-1.25-4.18 5.58-2.43 4-7-7.85 1.98-2.42-12.49-6-17zM70 716c-.66-2.38-3.56-3.79-6-4 .45 1.92 3.86 5.54 6 4zM90 712c-2.68.13-4.53 1.28-7 0 .66 2.38 3.56 3.79 6 4-5.14 1.9.26 2.91 3 1 .46-2.85-5.08-1.82-2-5zM105 717c-.18-3.28-4.68-3.04-7-4 .4 2.81 4.19 4.44 7 4zM112.999 713c5.69 5.52-4.33 5.9 0 0zM128 726.998c-2.8-5.1-6.56-13.78-12-13 1.62 3.08 5.02 6.34 8 8-1.24 3.34-.11 5.97 4 5zM130 716c-2.9-6.98-6.23 4.11 0 0zM148 714c-2.47.23-4.86 1.69-6 4 2.81.59 4.68-1.92 6-4zM259 715c-3.35 1.63-.59 5.09-3 7 4.28.61 1.84 2.75-1 1 3.22 4.15 3.03 5.67-2 3 1.43 2.33 3.72 4.43 6 6 2.02-5.24 1.09-11.03 0-17zM733 717.001c-4.51.59-10.25-1.22-14 1 4.51-.59 10.25 1.22 14-1z" />
        <path stroke="black" fill="none" className="drawingPaths"
            d="M976 760c2.33-14.26-15.2-11.01-24.31-16.69-9.1-5.69-21.74-5.27-31.62-9.38-9.87-4.12-21.7-6.34-32-9-10.29-2.67-21.13-7.65-31.07-6.93 39.55 9.63 78.44 21.82 117 34-2.75 11.04-17.48 14.06-27.93 18.07-10.44 4.01-20.4 10.53-31.05 14.95-10.64 4.43-24.6 6.6-36.02 8.98.09 3.94-4.19 5.54-6 9 3.48 2.69 3.93-6.85 8-3 .74-8.62 14.94-7.43 22.78-10.22 7.84-2.79 17.6-5.5 24.99-10.01 7.4-4.51 16.24-7.91 24.15-10.85 7.92-2.94 15.41-8.96 23.08-8.92zM141 717.999c-3.36-.14-4.49 5.49-8 3-.24 3.63 4.38.89 6 3 .54 6.39-7.13 2.95-9 6 3.54 1.28 10.99 5.5 13 0-2.07-2.18-3.06 3.18-5 0 .37-2.84 4.37-3.84 6-6 3.39 3.27 3.2-1.12 7-1-4.12-2.12-14.83 3.74-10-5zM718 718c-4.18.58-9.58-1.21-13 1 4.18-.58 9.58 1.21 13-1zM117 724.001c-3.14-1.34-6.11-4.5-9-3 1.01 3.34 6.59 4.29 9 3zM636.998 720c-3.55 2.38-5.09 3.28-9 0-2.73 4.78 3.66 3.11 6 5 .31-2.32 5.46-2.29 3-5zM94 723c-3.64 2.46-8.73-5.25-10 1 2.96-.71 10.1 5.15 10-1zM269 721c-2.89.08-4.16 3.48-7 4 4.88.26 3.93 2.36 0 5 2.54 3.51 9.4 5.06 11 0-2.77 1.06-4.47 2.45-6-1 3.24-3.34-.75-4.49 2-8zM658 721c-6.94 6.01-13.35 9.66-21.98 13.02-8.62 3.36-19.18 4.37-28.35 6.65-9.17 2.28-22.46 1.36-29.67 5.33 8.37 1.79 21.33.5 30.98-1.02 9.65-1.53 21.81-3.49 29.95-8.05 8.14-4.57 18.17-6.74 19.07-15.93zM790 723c-3.67.67-6.78-1.57-10 0 2.21 1.72 7.72 1.54 10 0zM104 725c-2.35-1.93-7.59-3.09-8 1 2.43-2.69 5.94 1.84 8-1zM198 733c-3.65-2.25-.92-6.26-5-9 .82 3.9-.83 5.26-2 7 5.48.66 1.91 1.91 1 5 2.56.54 4.37-1.7 6-3zM622 725.001c-2.72-2-6.32 1.98-6 5-4.48-.34-7.98.11-12-1 1.97 5.16 7.41.5 10 4 1.45-3.13 6.56-4.91 8-8zM225.002 725c7.35.77-.43 7.39 0 0zM722 726c-4.92-2.95-11.46.54-17 0 4.74 2.24 11.78.81 17 0zM1116 733c-5.37.77-5.25-7.6-10-8 .59 3.62 5.64 5.02 5 9-2.61-2.1-3.5 1.97-3 4 2.58.45 2.93-.81 6 1-4.3-5.44 2.23-1.2 2-6zM170.002 737c1.14-3.23 1.07-7.91-2-10 1.62 3.19-4.45 6.24 0 8-.3 3.41-4.57-.66-4 3 4.46 1.85 8.44 1.5 13 2-1.05-2.86-4.81-1.88-7-3zM574.002 727c-3.36 2.76-2.75 2.72-6 0 1.5 3.29-3.53 5.24-1 8 2.73-6.02 9.85-1.89 15-2 .57-3.04-3.37-2.62-4-5-2.43 1.33-3.83 4.44-4-1zM799 726.999c-4.84.6-10.91-1.24-15 1 4.84-.6 10.91 1.24 15-1zM74 729.002c-3.44 1.38-8.18-2.74-10 1 2.66 1.97 8.96 2.27 10-1zM603 730.001c-3.3-1.92-7.63-1.32-10 1 3.92 1.11 6.41-.56 10-1zM587.002 729c.11 8.14-7.38 1.67 0 0zM260 738c-1.21-4.06-4.94-6.31-9-8 1.14 3.67 5.74 5.92 9 8zM1014 730.001c-3.57-.7-5.19 3.41-6 6 2.86-3.8 6.72-1.25 6-6zM117 731.998c-2.79 1.16-6.07-2.26-8 0 1.31 2.21 7.88 3.55 8 0zM155 731.998c-3.21 1.45-11.13-4.65-10 3 3.25-5.31 7.26 2.85 10-3zM230 740c-3.51-2.82-.4-10.35-7-9 3.12 4.83.14 8.16 7 9z" />
        <path stroke="black" fill="none" className="drawingPaths"
            d="M278 731c-2.36 1.78-3.89 4.71-6 7-2.7-1.71-2.96-1.24-6 0 2.04-5.03-2.48-1.24-5-1 2.36 3.84 6.61 2.69 10 4 1.23-4.09 9.87-5.05 7-10zM1138 731.001c-4.17-.68-4.02 4.59-6 7 3.48-.25 4.25-4.59 6-7zM190.001 732c-1.91.37-4.55 7.09 0 7 .44-2.31 1.21-4.69 0-7zM720 733c-4.18.58-9.58-1.21-13 1 4.18-.58 9.58 1.21 13-1zM201 735c-1.63 4.39-7.96 1.25-9 5 3.54 2.07 9.37-.56 9-5zM258 742c-.65-4.76-6.73-5.09-10-7 1.92 3.35 6.26 6.03 10 7zM798 736.002c-5.84.62-12.91-1.27-18 1 5.84-.62 12.91 1.27 18-1zM506 759c-4.17 8.55-15.64 1.23-24.93.93-9.28-.31-18.14-5.08-28.07-4.93-9.93.15-21.03-2.28-31-3-9.96-.72-19.69-3.31-30-3-10.31.31-21.91-.67-32-1-10.09-.33-17.99-3.34-26.99-7.01-9.01-3.66-19.41-2.54-29.01-3.99-9.6-1.45-21.56.38-30 3 17 1.11 40.27-5.54 57.32 2.68 17.05 8.22 36.21 7.27 55.46 7.54 19.25.28 38.13 4.97 57.21 5.79 19.09.82 36.17 6.57 55.01 7.99-.99 6.95-11.09 5.38-14 11-2.49-3.74-6.65-6.61-11-5 1.36 4.47-5.16 4.29-5 8 4.62.22 5.19-5.01 8-7 2.74 2.36 5.41 4.75 9 6 2.3-6.53 12.59-4.51 14-11 2.39.1 6.87.12 7 3 3.1-1.73 4.95-1.82 8 0 1.74-4.42-6.53-1.87-3-6-1.71-2.65-3.35 1.62-4 3-3.03-.93-1.74-4.65-2-7zM1035 738c-3.06 2.9-3.94 8.66-9 9 5.63 3.38 9.35-4.23 9-9zM1122 742c-1.76-1.21-3.53-3.85-6-4-.73 6.09 15.06 7.39 17 1-3.28 2.23-7.39 1.49-11 3zM735 738.998c-8.12-.12-16.72.12-24 2 8.06-.15 16.64-.46 24-2zM1066 739c-3.27 2.43-6.91 4.95-8 9 3.47-1.61 6.15-5.66 8-9zM150 742.002c-3.18-1.8-5.16-1.63-10 0 .6 3.32 6.46.65 5 5 2.06-.98 5.11-2.2 5-5zM169 745c-1.32-1.49-1.88-3.66-3-5-3.44 1.98-.95 7.45 3 5zM203 740c-2.93 1.85-4.67 1.86-7 4 3.26 2.39 5.48-1.54 7-4zM790 741.001c-3.92-2.93-9.46.53-14 0 3.79 2.4 9.71.54 14 0zM229 745.998c-1.87-2.36-4.1-5.56-7-4 .29 2.91 4.46 3.83 7 4zM997.001 742c-1.64-1.93-7.26-.06-7 3 2.94-.02 4.44-2.28 7-3z" />
        <path stroke="black" fill="none" className="drawingPaths"
            d="M1218 916h4v-1c-1.82-45.43-1.02-92.82-1-139v-3c-1.63-4.59-1.37-10.76-2-16-2.92 4.52.9 12.41-2 17-4.24-5.19-7.65-10.78-10-17-2.47 1.47 1.58 3.89 1 6-10.31-2.68-17.99-11.79-27-17 2.05 4.47 7.16 7 9 11-6.14-.85-13.55-.61-19-1 16.5 4.49 37.69 3.85 44.22 23.78 6.53 19.92-2.72 41.01-.22 62.22-10.29-7.36-14.67-19.4-26.25-26.75-11.58-7.35-12.76-24.34-19.75-33.25-1.11 5.94 1.74 12.88 3 19-5.75-2.28-9.61-8.98-14-13 4.55 10.96 18.25 17.11 23 28-6.39-.98-26.5-5.5-18 6 3.45-5.42.3-1.16 9-3s17.91 2.27 23.25 8.75c5.34 6.49 9.33 11.46 11.75 19.25-10.43-1.8-21.32-9.29-31.32-11.68-10.01-2.39-25.36-7.31-21.66-19.3 3.71-11.98-.83-21.79-7.02-29.02 3.24 8.67 9.39 19.94 4 30 .59-2.94-1.59-5.09-1-8-2.31 4.01-.35 10.17-1 15-2.48-3.13-7.26-8.11-5.78-12.78 1.48-4.66 4.24-10.54-.22-13.22 1.92 11.76-8.74 5.2-16 8-3.55-3.13-3.27-5.26-5.74-9.25-2.47-4 3.48-5.34 3.74-8.75-2.41.92-4.81 1.61-6 4 .94-6.81 5.94-23.68 15-21-4.15-2.5-1.17-4.5 0-8-3.17 1.52-7.16 9.39-9 3-.86 5.6-.51 12.63-6 16-1.29-11.58 2.43-26.77-2-38-.01 12.28-.92 25.58-1 39-6.99-2-10.59-10.99-13.7-17.3-3.1-6.32-9.72-15.17-4.3-20.7-5.44 3.01-7.97-3.91-13-4-1.43 5.13-2.18 12.02.68 16.32 2.86 4.31 3.06 12.07 8.32 8.68-5.41-4.23-11.48-14.79-7-22 7.16 4.04 10.48 14.39 9 22 6.02 4.65 9.94 12.05 12 19-6.23-4.53-10.22-10-16-15 .25 3.63 4.53 5.51 5 9-10.31-5.08-22.56-4.84-32-12 7.26 12 25.42 9.5 36.75 16.25 11.33 6.75 15.92 18.62 24.25 27.75-7.63-3.94-18.28-3.44-20-14-3.01 1.21 1.92 4.76-1 6-5.04-3.67-10.7-7.67-16-11 8.21 9.24 19.92 15.67 30.31 21.69 10.38 6.03 29.48 7.27 29.69 22.31 5.47-1.53 9.88-1.42 15.78.22 5.9 1.64 7.83 1.87 12.47 6.53 4.63 4.66 5.27 3.3 12.07 6.93 6.81 3.63 18.77 8.6 22.68 15.32 3.91 6.72-2.1 13.31 0 19 2.1 5.69-1.31 12.95 2.07 16.93 3.39 3.97.34 13.12 3.93 15.07zm-76-108c-1.15 2.67-1.03 5.29 0 8-4-.12-6.94-4.08-10-6 3.17-1.18 6.44-.33 10-2z" />
        <path stroke="black" fill="none" className="drawingPaths"
            d="M1107 741c-.8 3.91-6.65 1.62-7 5 3.98 1.87 7.48-.39 7-5zM271.999 745c-.34-3.89-7.43-3.42-7 1 2.48-3.13 4.12.65 7-1zM988 745c-.7-1.98-3.17-2.73-5-3-.23 2.38 3 5.22 5 3zM242 743c-2.42-.22-2.54 2.64-4 4 3.3 2.99 4.82.45 8 0 .5 3.28 5.48 2.75 8 4-2.24-4.52-8.62-4.72-12-8zM799 742.999c-4.84.6-10.91-1.24-15 1 4.84-.6 10.91 1.24 15-1zM1025 743.001c-2.47-.14-4.54 2.63-4 5 2.81.02 4.87-2.11 4-5zM1145 749.002c-.28-2.28-3.58-6.76-6-5 .48 2.36 3.63 4.39 6 5zM174 749c4.78-6.33-6.05-4.42 0 0zM217 748c-.19-2.25-3.92-5-6-3 1.49 1.39 3.55 3.44 6 3zM1156 745c-3.8-2.71-5.24 2.58-9 2 2.17 4.79 6.22.06 9-2zM206 745.999c-2.94-.92-6.16 2.33-10 1 1.9 5.22 7.76 1.59 10-1zM159 746c5.51 6.25-5.2 5.38 0 0zM195 748.999c-.82-2.43-2.95-3.06-5-2-.24 2.44 3.41 3.67 5 2zM1168 757c-.06-3.96-5.65-10.41-11-11 3.68 2.37 6.79 7.45 11 11zM986 755c-4.03-1.59-3.77-6.86-8-8 1.36 2.19 2.31 4.1 0 6 2.84 1.11 4.64 4.86 8 2zM186.001 748.998c-2.29-.95-3.62-.06-6 0-.57 3.11 6.6 2.91 6 0zM152 754c-.26-2.68-3.63-2.24-4-5-2.15 2.46-4.13.79-7 1 1.1 4.09 7.35 3.59 11 4zM285 750.001c-5.45.7-14.75-1.71-19 3 3.33-.14 7.13-4.2 9 1 3.7-.48 6.15-3.94 10-4zM991.001 751.002c-4.29-6.01-6.44 4.73 0 0zM1021 749c-1.89 1.44-6.08.89-6 4 2.42-.27 6.94-.49 6-4zM207.999 751.999c-.67-3.38-9.3-1.19-6 2 1.91-2.38 3.84-.53 6-2zM728 749.999c-6.51.63-14.25-1.28-20 1 7.19-.14 13.49 1.84 20-1zM796 750.999c-4.52-1.7-12.41-1.62-17 0 5.31 2.38 11.56.43 17 0zM1065 756c-1.93-2.1-4.04-3.9-6-6-.57 3.23 3.07 7.62 6 6zM249 753c-1.85-1.64-5.61-2.9-8-1 1.71 1.52 6.09 3.16 8 1zM224 755c-3.84-1-5.69-.17-8-3-1.24 4.73 5.83 5.05 8 3zM1023 753c-3 1.66-6.97 4.81-7 9 2.06-2.16 6.4-5.59 7-9zM1146 753c-2.14 1.43-6.62 1.31-7 4 2.53-.72 7.91-.01 7-4zM551 754c-2.31.99-5.58 2.94-6 6 2.55-.73 6.42-2.98 6-6zM210 756.002c-2.69-1.04-5.81-.65-8 1 2.65-1.38 7.79 2.76 8-1zM790 754.999c-3.51.55-8.24-1.16-11 1 3.51-.55 8.24 1.16 11-1zM283 756c-2.26.7-4.57-.21-6 1 .94 3.35 5.09 1.2 6-1zM544.002 759.999c-2.82-3.72-10.56 1.4-10 6 2.96-2.49 5.39-5.92 10-6zM1169 758c2.78 10.04-8.22 14.22-17 16 3.26 2.74 1.35 6.05 0 9 4.83-.73 5.83-6.5 8-10 7.19 1.9 14.13-8.77 9-15zM296 759c-1.55 4.79-4.94 23.11 4 19-4.55-3.93-3.1-12.43-4-19zM710 759c-4.18.58-9.58-1.21-13 1 4.18-.58 9.58 1.21 13-1zM279 764.998c-.65-1.7-.48-5.3-3-5-.76 2.21-3.15 3.03-5 4 1.7 2.19 5.48.44 8 1zM868 760c-3.29 3.62-3.02 7.97-5 12 3.04-1.1 5.98-1.68 4 4 5.15-2.54 2.82-11.41 1-16zM1012 760c-3.07 1.19-4.85 4.8-2 7 1.19-2.19 1.24-4.71 2-7zM737 762c-6.01 1.75-13.44-.14-19 2 5.53.25 14 1.35 19-2zM805 762c-7.42 0-15.54-.44-22 2 7.34-.38 15.3-.45 22-2zM1018 764c-2.63.9-2.94 5.19-5 7 4.1.05 6.76-3.33 5-7zM521.998 769.998c-.19-7.75-7.16-2.69 0 0zM787 766.999c-4.52-1.7-12.41-1.62-17 0 6.09.38 11.01.83 17 0zM285 767c-6.57 3.76-12.29-.1-17 5 2.67-.31 5.09.1 7 2 .87-5.7 8.26-2.06 10-7zM740 767.001c-4.76 1-11.76-2.19-15 2 4.66-1.8 10.78.15 15-2zM975 769c-2.06 3.72-2.45-1.04-5-1 .3 3.44-.11 8.09 4 4-.17 5.6.7 7.03-2 11 3.09-2.98 8.38-1.22 10-5-7.24 3.13-4.47-5.32-7-9zM800 769c-7.77-.06-16.16-.25-23 2 7.65-.48 15.97-.43 23-2zM222 774.999c-.47-4.12-7.03-5.29-10-4 2.81 3.17 6.25 2.76 10 4zM346 782c6.18-1.56 3.31-10.02 0-12-2.29 4.42 1.82 7.87 0 12zM468 777.999c-7.67-4.83-16.54-5.33-22.75.81-6.21 6.14-17.97-6.1-21.25 4.19 5.64-4.37 12.34 1.2 17.99-2.01 5.66-3.21 9.77-2.4 15.01-5.99 3.19 2.64 7.18 5.81 11 3zM879 773c-2.8 1.19-5.64 1.88-8 4 4.39 2.51-.63 4-1 7 5.95-1.58 5.85-6.67 9-11zM1016 773c-1.05 2.33-6.53 8.17-1 11-3.1-4.58 3.89-6.43 1-11zM1071 775.002c-2.51-2.7-7.34-1.86-10 0 2.57.61 4.08 3.61 7 3-3.72-4.18 1.23-1.69 3-3zM286 775.001c-7.65-1.42-14.77 8.11-23 4-.01 2.66 9.2 7.93 8 1 3.41.3-.66 4.57 3 4 .73-4.97 7.65-7.3 12-9zM869.001 779c-5.3 1.34-3.1-5.18-7-5-.07 2.59 2.63 4.28 2 7-4.08-3.64-3.89-3.09-9-3-.36 5.99 7.1 2.43 9 6-1.31 3-5.31-1.67-6 2 5.61-.72 6.91 3.84 4 9 10.03-.34.18-12.46 7-16z" />
        <path stroke="black" fill="none" className="drawingPaths"
            d="M970.998 780c2.23-2.5-.96-4.71-3-6-.45 2.54.5 5.02 3 6zM1005 779c-3.58-.17-7.419-4.03-11.999-4-1.46 4.69 5.72 1.54 5 6 2.179-1.03 5.329-.42 6.999-2zM1222 915V776s-.73.25-1 0c-.02 46.18-.82 93.57 1 139zM358 779.001c-4.47-2.68-3.32 3.39-3 6 1.68-1.37 1.44-4.23 3-6zM957.999 791c-2.92-3.66-.98-9.28-3-13-2.13 4.45-2.23 11.32 3 13zM226 780.001c-2.21-1.72-7.72-1.54-10 0 3.98 1.96 7.4 1.35 10 0zM415.002 782.999c-4-.37-10.54-7.45-13 1-2.5-.36-2.49-4.34-5-4 .87 3.1-1.47 4.8-3 7-2.38-.92-4.43-2.76-7-3-.63 3.11 4.62 1.97 4 5 4.61.41 7.92-7.65 11-1 .04-11.7 8.94-1.49 13-5zM422 783c-.7-2.01-3.16-2.28-4-4-3.68 3.13 1.21 3.85 4 4zM294 780c-4.42 1.57.39 10.24-5 8 1.4 2.81 2.01 7.69 6 8-.5-2.28-2.97-3.63-3-6 3.74.11 6.86 1.23 10 0-.9-3.8-4.56-2.63-1-8-3.94.45-2.89 4.59-4 7-5.68-1.25 1.26-6.4-3-9zM991.002 780.999c-4.37-.36-8.1-1.75-8 4 2.69-.69 7.27-1.44 8-4zM1072 780c-1.42 1.64-5.44-.02-5 3 2.07 1.87 5.92-.08 5-3zM285 783c-2.59.86-4.86-2.02-7 0 .92 2.36 6.52 3.72 7 0zM228 784c-2.6-1.62-5.24.8-8-1 .37 3.29 6.36 3.81 8 1zM371 788c2.87-5.21-5.32-4.65-8-4 2.46 2.1 6.41 1.28 8 4zM766 783.998c-16.99-1.13-35.72-2.25-52 1 17.49-.2 35.54-.67 52-1zM878 783c-3.11 2.58-5.84 5.52-10 6 9.88.85 2.93 5.4 0 10 5.22-3.83 13.29-5.79 14-13-2.88-.04-2.92 7.4-7 4 1.58-2.08 2.62-4.44 3-7zM1005 788c-.9-2.63-5.19-2.94-7-5 .21 2.88 4.58 6.33 7 5zM1029 784c-1.24-2.22-4.74.12-6 1 1.24 2.22 4.74-.12 6-1zM799 784.002c-10.37.87-23.77-1.98-32 2 10.79.11 22.03-.19 32-2zM981 784c-3.69 1.62-8.69 1.15-12.3 3.7-3.61 2.54-6.32-1.11-7.7 3.3 5.15-.52 8.52 3.23 4 7 4.45-.51 12.84 3.82 13-3-11.31 8.32-9.4-14.49-2-1 4.74-2.03 1.3-3.86 0-6 1.78-1.23 5.41-.84 5-4zM1067 784c-3.44 3.24-8.84 1.65-11 7-3.74-2.49-4.33-6.68-8-1 5.81-1.06 7.63 6.33 3 10 4.46 1.3 4.35-2.85 4-6 2.5-.93 5.08-1.56 4-5 2.81.16 9.87-1.46 8-5zM1017 788.999c8.79-.01.59-7.56 0 0zM362 786c-3.08 1.8-6.05 1.99-8 5 3.25 2.06 6.88-2.02 8-5zM858 796c-.76-4.31-1.29-7.92-5-10-3.54 2.66-3.07 8.05 3 7-2.41 4.75 5.64 5.65 2 11-3.33-1.91-2.05-8.7-7-9 2.02 2.35 2.87 5.21 4 8-4.5 1.18-8.81 2.06-14 2-2.68-3.48-1.01-8.67-3-12 .1 4.68-4.47 8.82-3 13-12.88 3.67-23.36 5.61-37 7-13.64 1.39-30.35-1.68-44-2-13.65-.32-28.62.67-40.78 5.22S689.61 821.36 678 826c10.44-.56 18.91-4.89 28.99-7.01 10.09-2.11 19.31-5.32 30.01-5.99 10.7-.67 24.48-.12 35 1s25.24-.86 35-1c9.76-.14 23.37-7.95 25 3 1.41-2.79 3.84-8.84 4-14 3.87.69 8.28 10.53 2 11 2.17 3.11 3.75-.48 6 1 1.94-2.27-.78-4.35 0-7 6.97-3.79 10.3 3.63 15 6 .23-3.62-3.35-4.62-5-7 3.88-.62 7.93-1.98 12-4-3.06-2.46-3.75-5.62-8-6zM1035 786c-3.98 0-5.27 6.36-9 2 .95 5.24-.57 6.26-.68 11.32-.11 5.05-8.42.88-7.32 6.68 4.63-1.09 9.59-.97 13-5-6.71-.7-.77-5.87-3-10 3.29.55 5.28-2.75 7-5zM1079 788.999c.23-3.36-4.01-1.55-6-2-.18 4.27 3.58 1.48 6 2zM990 794c-1.97-1.71-1.5-4.92-4-6 1.69 4.35-1.85 7.68-4 12 3.61-.2 3.83-6.91 8-6zM1086 788c-2.22 1.13-4.09-.03-6 1 .84 3.55 4.29.46 6 2-1.83 3.19 1.61 5.23 4 7-1.34-3.29-2.79-6.55-4-10zM284 790c-5.31-2.7-2.16 3.48-7 4 6.22-.65 2.73 3 1 5 2.22 1.08 4.32 2.54 7 2-3.12-2.68-3.69-7.31-1-11zM1010 795c.23-3.02-3.34-3.26-5-5-.64 2.99 2.69 4.45 5 5zM755 791c-3.9 1.4-8.47.4-12 1 2.84 1.41 9.83 2.39 12-1z" />
        <path stroke="black" fill="none" className="drawingPaths"
            d="M301 791.998c-2.69-.73-3.88 1.83-4 4 3 .51 3.98 3.69 2 6 1.96 1.64 6.37 1.41 6-2-5.87-.09-.05-4.32-1-8-1.45 3.79-7.34 4.91-3 0zM363 793c-2.55 3.96-6.68 2.03-11 3 3.78 2.34 7.9 2.78 11 5-2.34-2.75-1.22-4.62 0-8zM900.998 804c5.15-.25 2.49-10.1 0-11-.86 3.84 2.66 7.52 0 11zM728 794.999c-5.13-2.43-12.94-.38-18 1 6.23.62 11.98-.83 18-1zM954.999 799.999c-4.89 1.4-1.67-6.33-6-6 3.09 4.36-.99 7.95 2 10-3.63.95-6.09-1.04-7-4-1.71 3.58 1.13 5.4 1 9 2.35-1.85 4.61-3.95 8-3-2.11-3.22 1.74-3.45 2-6zM957.998 797.999c-1.22-1.34-1.88-4.21-4-4-.66 2.15 1.84 6.02 4 4zM296 801c-1.52-3.25-5.07-4.51-8-6 .47 3.5 4.81 5.82 8 6zM921 796c3.91 7-4.03 6.03 0 0zM334.001 799.999c-2.57-.61-4.08-3.61-7-3-.26 3.17 5.33 4.8 7 3zM340.999 799c-2.58 5.66-7.94-3.45 0 0zM794 799.001c-5.6.5-11.99-2.9-17 0 5.79-1.37 12.06 2.63 17 0zM323.999 802c-.51-7.11-8.57.32 0 0zM936.001 799c-2.29.45-5.69 2.17-5 5 2.29-.45 5.69-2.17 5-5zM313.998 805c-.22-1.95-1.08-4.15-3-5-2.14 2.27-.26 5.99 3 5z" />
        <path stroke="black" fill="none" className="drawingPaths"
            d="M930 800c-2.25.73-3.81.87-6 0 1.02 4.11 6.09 3.18 0 7 3.79-.95 7.38-.54 5 4 2.91-1.5 6.43 1.22 8-2-4.69-.78-9.36-3.39-7-9zM1050 800c-6.11 3.55-.38 10.44 5 10-1.99-3.22-6.52-5.38-5-10zM1088 801.002c-4.87 1.29-6.99-1.4-12-1 .02 3.49 5.59 1.52 7.02 3.98 1.44 2.45-.4 7.94 3.98 7.02 3.52 6.02-3.89 10.23-8 5-2.69 4.9 4.71 3.57 6 7 11.39-6.26-4.73-15.24 3-22zM293.001 805c-.72-2.31-2.52-3.96-5-4-.14 2.47 2.63 4.55 5 4zM938 801c8.53 1.46-1.89 9.32 0 0zM981.001 800.999c-3.02-.11-4.65 3.34-4 6 2.6-.24 2.97-3.98 4-6zM287 805c-1.85-2.26-5.61-1.33-8-3 .03 3.59 5.45 5.12 8 3zM320 802c-2.17.3-3.09 2.28-5 3 2.89 1.01 6.86 3.1 9 0-2.57-1.09-5.91 1.03-4-3zM1075 803.001c-7-.42-13.56 3.96-19 6 5.45.77 14.92-2.87 19-6zM803 804.002c-5.84.62-12.91-1.27-18 1 5.84-.62 12.91 1.27 18-1zM1006 804c-5.38.43-9.41 3.27-11 8 4.1-1.58 7.35-5.98 11-8zM375 811c1.65-1 3.06-4.72 1-6-1.13 1.16-2.35 4.9-1 6zM728 805.998c-5.74 1.15-11.97-2.99-17 0 5.5-.08 12.03 2.71 17 0zM882 807.002c-1.84-2.4-6.67-2.16-7 1 4.35-1.81 5.54-.27 2 3 2.81 2.1 3.31-2.54 5-4zM906.002 806c-6.34 3.34 3.25 7.42 0 11 1.31 1.34 4.27 2.54 6 1-1.72-2.21-3.82-2.94-2-6-4.77.86-3.2-3.46-4-6zM366.999 814c6.63.13 4.48-4.89 0-7-1.2 2.57-.2 4.34 0 7zM387 820c7.12.07 4.2-8.86 3-13 .11 4.78-2.87 8.41-3 13zM1019 808c-2.46.01-2.86 3.2-5 4-3.27-3.95-7.89.23-9 4-3.7-.92-6.04 1.58-9 3-1.99-2.35-2.12-6.22-6-6 1.6 3.3 1.63 7.52 6 8-1.89 6.17-10.13 9.78-16 12 1.73 7.79 6.31.55 9.75-2.25 3.45-2.79 9.31-5.78 8.25-10.75 2.34-1.19 4.61-2.02 7-1 1.14-9.83 14.74-1.13 14-11zM1142 808c-3.56 1.67-6.83.82-10 2 3.06 1.92 6 5.88 10 6-1.03-2.71-1.15-5.33 0-8zM896.999 814c1.94-3.06 2.1-3.92-2-5 1.12 2.53-.28 4.25 0 7 2.93.95 5.17.17 8 2-.25-2.47-3.57-4.15-6-4zM943 809c-2.71-.27-3.7 2.96-4 5 2.71.27 3.7-2.96 4-5zM441 824c5.64-.92 4.04-10.18 2-14-2.79 4.73-.84 9.41-2 14zM988 813c-5.15 4.27-6.69-2.52-11-3 1.88 4.13 8.07 9.22 11 3zM380 813c-3.23 1.93-5.38 4.49-8 7 4.16.41 6.87-3.63 8-7zM463 814c-4.06 3.32 1.66 8.19-3 9 3.49.48 3.8 3.79 5 6 .63-5.66-.57-8.86-2-15zM869.001 819c6.06 4.19 21.35-.79 9-5 4.3 4.77-1.85 5.78-4 1-.28 3.25-5.58.63-5 4zM936 821c5.67-9.94-7.78-5.47-10-2 4.03 2.95 8.82-5.78 10 2zM947 817.002c8.25 3.43 5.03-6.76 0 0zM815 825c6.16.11.94-8.85-1-10 .47 3.45.49 6.28 1 10zM859 820c-.99-2.22-3.5-4.1-6-5 1.01 2.42 2.74 5.71 6 5zM946 815.998c-2.95-2.38-6.47 2.34-7 5 3.08-.49 4.23-3.86 7-5zM371 816c-2.84 1.33-6.27.36-9 2 2.96 2.54 9.23 4.1 9-2zM849 821c-3.25-2.55-4.49-1.04-6-5-1.03 2.05.15 3.78-1 6 2.13 1.11 4.78-.07 7-1zM893 823c-1-2.44-2.77-6.24-5-7 3.1 3.88-3.84 4.42-1 8 2.52-2.68 3.18-3.05 6-1zM913 818.001c5.8-5.49 5.2 5.73 0 0zM378 818c7.56 1.06-.89 8.37 0 0zM827.001 818c-3.33 1.77-2.31 6.07-2 9 3.09-.59 2.76-6.67 2-9zM813 820.001c-4.04 5.85-6.8-4.36 0 0zM676 825c-3.64 2.3-5.83-1.2-7-4-2.66 12.65-22.29 7.32-33 10-.73-2.71-1.39-5.9-3-8-4.31 2.8 2.01 5.94 0 9-5.59-6.99-2.38 4.05-11 2-8.62-2.05-25.93 9.89-28-2-1.3 10.56-18.37 13.74-26 11 1.06 4.49-3.98 2.05-6 4-1.69-2.33-3.63-3.82-6-1 2.79 2.29 1.13 6.95 6 6-3.12-4.08 2.23-4.33 5-5-.84 2.88-1.6 8.19 3 5-1.68-8.79 13.82-7.51 20-10-.92 2.79-3.92 4.65-3 8 4.65-.71 1.46-10.93 8-9 .69 3.9-3.54 6.29-1 10 3.67.38-.46-4.79 4-4-6.7-7.65 5.23-10.22 10.98-10.02 5.74.19 19.84-6.35 15.02 3.02 5.75-1.86 3.41-8.79 11-7-2.23 3.71 2.26 5.9 1 10 7.37-.38-1.77-9.04 2.33-10.67 4.1-1.63 10.12-.79 14.66-1.34 4.54-.54 9.31-1.99 14.01-1.99 1.12 5-5.21 7.74 0 11 1.92-3.25.62-7.34 1-11 2.69-.69 7.27-1.44 8-4zM389 823.001c-6.11-3.5-3.44 4.71-6 7 1.41 1.89 4.04 1.61 6 1-.18-3.45-5.4-6.75 0-8zM416 822c-5.22.42-6.67 8.23-3 11-1.97 2.15-3.11-2.16-5 0 .89 3.6 3.99 6.09 7 8 .49-1.9-4.17-4.99 0-5 .42 3.69 7.84.67 7-3-2.7.4-3.05 3.8-6 3 .1-3.59-3.93-9.75 0-14zM857 823.002c-3.47-2.39-5.8 2.08-10 0 .8 4.25 7.75 1.12 10 0zM903 827c-1.05-2.13-3.09-3.88-5-5 .93 2.53 1.09 4.31-2 5 1.64 2.61 4.56-1.19 7 0zM799 837c-3.16-3.77-2.82-10.21-6-14 .01 5.48.1 6.11-2 10 7.56-4.72-1.53 6.53 8 4zM934 823c-3.6.28-2.34 5.74-6 6 3.71 3.6 2.73 10.23 5 15-5.83-.23-10.89-1-16-4 3.28 6.14 12.37 5.76 18.3 6.36 5.94.6 6.3 13.05 7.7 17.64 10.3-.69 2.6 9.11-1 11 6.26.38 8.22-6.48 10-11-2.66.42-4.83-.78-7-2 .82-4.84-3.3-8.48-4-14 3.92-.66 7.27 1.01 11 1-3.5-7.05 9.26-8.02 8-15-2.11 1.31-3.18 4.57-5 1-2.69 5.25-6.8 10.2-13 11-1.18-3.12 2.58-6.67 0-9 .07 2.59-2.63 4.28-2 7-9.1-2-8.66-14.21-6-21zM460 829c-3.76.56-1.5-2.97-3-4-2.71 2.85-1.17 7.83-2 11-2.54-.15-3.23-3.34-5-5-1.86 2.09-6.45 1.01-7 4 3.78 2.38 5.43.41 7-2 1.62 2.34 3.1 5.02 5 7 2.93-3.35 3.39-6.84 5-11zM815 832c-1.85-3.18-4.48-5.41-9-7 1.23 3.54 5.03 6.68 9 7zM1020 915.999h11c2.35-.6 14.31-3.41 20.08-2.06 5.77 1.34 7.13 1.38 11.92 2.06h34c-4.98-2.75-3.26-17.2-1-21-4.66-1.94-6.96-8.91-7-14 16.65-5.37 19.98 11.74 21 24-5.12-2.37 2.69 7.65 3 11h6c-4.28-3.09.46-16.02-3-20-4.39 7.11-6.5-8.93-8-13 20.81 1.95 46.81 10.7 53 33h8c-2.24-8.78-10.67-16.42-5-26 5.52 6.47 9.43 17.13 12 26h8c-2.98-13.91-16.86-24.94-16-39-3.23-.43-5.73 1.7-9 1 1.97 5.6-1.24 10.73-3 16-15.78-10.67-25.39-27.38-38-41 3.16.13 5.98 1.46 9 2-.02-2.54 1.01-4.76 2-7-9.47-1.44-5.84-15.23-12-19 1.19 4.29 3.3 8.33 3 13-5.49-3.5-10.22-9.44-15-13 3.53 7.75 13.28 12.12 17 20-7.45 2.54-17.13-3.85-21.23-9.77-4.1-5.92-9.54-17.95-16.77-10.23 1.51 1.64 4.93-.37 7-1 1.86 6.79 7.76 12.05 10 19-6.47.17-12.7-3.86-16-9-2.36 4.49-5.27-2.15-9-1 15.76 6.7 19.15 22.73 25 37-13.68 6.75-19.95-5.1-26-15 .31 5.55 5 9.67 6 15-16.01.01-18.56-19.37-30-26 4.54 9.43 10.22 18.4 16 27-4.82-.73-11.31-2.32-15.92-3.08-4.62-.75-9.2-7.07-6.08.08-5.91-.14-10.7-4.83-13.92-9.08-3.21-4.26-9.47-7.17-4.08-11.92-5.23 6.52-9.63-6.59-14-1 12.83.85 12.26 20.08 25.78 22.22 13.51 2.15 28.44 8.61 43.22 6.78-3.15 9.49-14.13 4.1-20.78 6.22s-17.64 5.13-14.22 13.78c-15.19-1.81-30.79-9.11-45-10 16.41 9.74 36.51 9.5 53 19-17.53 8.53-37.3-3.61-55 1 3.46 2.15 11.52-.68 12 6 3.85-1.05 10.06-5.43 14-1-1.15.84-4.71 1.84-6 2zm99-56c-10.87 2.9-24.32.91-26-12 8.17 4.74 21.89 1.78 26 12zm17 24c-14.76-3.69-34.05-3.87-36-23 15.58 1.62 30.54 6.49 36 23zm-50 6c-3.06-.75-6.07-1.74-9-3 2.75-5.11 10.34-3.24 9 3zm4 24c-7.09-.55-17.49-4.23-23.23-7.77-5.74-3.54-19.31-9.3-10.09-12.55 9.22-3.25 14.65-4.3 24.33-2.69 9.68 1.62 8.21 15.62 8.99 23.01zM440 834c3.53-5.17-4.04-5.37-7-7 .53 3.45 4.81 5.41 7 7zM396 829.001c-2.2-.51-3.88-1.42-5 1 1.76 1.48 3.48 2.42 2 5 3.02.43 4.03 3.29 7 3-2.03-2.75-1.49-3.87 0-7-3.09 1.46-6.12 2.75-4-2zM556 828c-2.2 2.62-2.17 6.4 1 8-.43 4.4-2.01-1.9-4-1 .5 3.62 4.09 4.85 4 8 4.91-3.27-.04-10.24-1-15z" />
        <path stroke="black" fill="none" className="drawingPaths"
            d="M947 828c-2.33 1.74-3.62 5.12-4 8 2.56-1.56 3.87-5.08 4-8zM972.998 828c-13.44 2.3 2.22 20.44 7 9-6.91 5.79-16.08-4.36-7-9zM470 829c-2.15 2.13-5.77 1.79-7 5 4.88-1.26 5.11.01 7 2 1.2-2.57.21-4.34 0-7zM832 829.999c-2.61.64-4.51-1.29-7-1-1.55 4.23 7.21 4.24 7 1zM672.001 830c-1.9 2.73-1.35 6.81-1 10 5.36-.44 1.89-7.09 1-10zM815.002 836c-5.27.62-7.45-3.17-10-6-.49 3.42 2.33 5.46 4 8 1.7-1.74 6.12 2.02 6-2zM898 830c-4.27 1.05-6.63 1.93-11 0 .32 5.38 10.46 4.5 11 0zM965.999 830c-2.24.84-5.6 3.59-4 6 1.94-.51 2.84-3.61 4-6zM1043 834c-.7-2.01-3.16-2.28-4-4-.84 2.57 1.24 6.64 4 4zM1079 833.001c7.01 3.72 4.21-6.28 0 0zM917 834.999c-7.52-5.64-12.17 4.19-16 8 6.44-2.03 7.68-10.38 16-8zM796 846c-9.16 1.57-.36-9.46-7-12 .31 2.71 3.3 5.29-1 6 2.46 3.98 1.65 3.47-3 3 .48 2.91 2.85 5.34 5 7 1.86-1.52 4.39-2.39 6-4zM924 839.002c-1.8-1.85-2.9-5.68-6-5 .48 2.36 3.63 4.39 6 5zM439 836c-2.49 5.49-7.73-3.83 0 0zM1048 837c-4.5-5.85-6.47 5.12 0 0zM389 837.001c-2.67-.13-4.53-1.28-7 0 .64 2.79 7.23 3.16 7 0zM1060 836.001c-3.4-.31-5.53 5.03-3 7 .53-2.53 2.34-4.44 3-7zM471 840c-4.93 4.75-1.79-4.19-7-2 1.66 1.9-1.23 6.76 3 4-1.55 3.62.46 9.09 5 6-5.77-.88-2.56-4.26-1-8zM488.999 838c-6.79 3.03-2.82 16.85 3 9-.96-1.62-4.83 1.68-6-1 2.06-.28 6.09-.35 6-3-4.71 2.07-1.21-2.51-3-5zM455.999 846c-.32-4.15-5.23-3.98-7-7-1.64 3.67 3.75 6.49 7 7zM782.999 845c2.08-5.01 1.17-4.02-2-6-.56 2.59.02 5.33 2 6zM801 840.998c-2.55-.39-3.85-2.85-6 0 .13 2.68 5.23 2.52 2 6 2.14.55 5.29 3.15 7 1-3.96-1.11-5.48-3.79-3-7zM429 845.999c-6.45 2.19-2.52-8.56-9-5 2.39 1.3 3.47 2.04 2 5 2.24 1.62 5.1 2.18 7 0zM539.001 840c-3.02 3.44-3.85 12.72 3 13-6.26-3.2.7-9.09-3-13zM1049 844c.13-2.89-3.62-1.91-5-4 .09 3.84.61 6.19 5 4zM402.999 841c-1.34 1.22-4.21 1.88-4 4 2.57-.28 3.04 4.99 6 2-.65-2.81-4.37-2.3-2-6zM622 849c7.35-.17 2.53-5.71-1-8 .73 2.61 1.35 5.14 1 8zM420 846c-.93-4.58-4.52-3.2-8-4 1.31 3.1 5.07 3.76 8 4zM527.001 842c-2.69.72-1.92 3.92-2 6 3.05-.57 2.62 3.37 5 4 .35-4.8-3.51-5.45-3-10z" />
        <path stroke="black" fill="none" className="drawingPaths"
            d="M984 842c-2.42-.54-5.09 1.53-5 4-4.63.37-7.82-.78-11-3 1.32 5.39 7.92 5.24 12 6-1.77-4.34 3.83-3.89 4-7zM898.999 844.001c-1.52-1.99-4.55 1.16-7 0 .89 3.2-5.27 7-1 9-1.28-5.34 5.03-6.87 8-9zM679 844c-2.64.95-6.51 3.01-7 6 3.71 0 5.24-3.33 7-6zM440 850c-.2-2.51-1.88-5.81-5-5 .45 2.29 2.17 5.68 5 5zM444.999 845c-.16 5.64-1.86.31-4 0-1.32 4.97 4.55 5.09 8 5-1.36-1.64-1.99-4.02-4-5zM480 849c-4.81 1.19-2.38-1.94-4-4-.53 2.57-2.43 3.87-3 6 2.36-.3 6.02 1.03 7-2zM555 846c-4.44.52-5.88-1.45-4 4-2.39.84-4.11 1.03-6-1 .25 3.37 4.33 5.1 7 6 .68-3.78-.2-6.77 3-9zM645 845c-2.4.71-3.91 2.68-6 4 2.62 2.42 3.15 9.35 8 5-4.01-1.28-2.51-5.47-2-9zM664 852.001c-1.23-1.78-.84-5.41-4-5 .27 2.09 1.35 5.23 4 5zM681 847c-2 1.09-3.74 3.07-5 5 3.17.8 4.78-2.49 5-5zM523 854c1.05-1.78.17-4.55-1-6-1.88 1.15-1.4 5.39 1 6zM625 857c-.96-4.31-5.04-7.58-9-9 1.32 4.06 4.92 8.56 9 9zM759.002 848c-.13 3.61-5.88 4.15-3 8 2.71-.19 2.6-5.18 5-1 .69-3.21-3.33-3.55-2-7zM781.001 848c-3.98 3.9-5.84-.3-9 4 1.16 2.17 4.19 1.59 6 3-1.59 3.62-5.82 4.14-8 2-.07 6.25 5.62 1.57 8 3 1.41-4.8 5.41-6.45 3-12zM1011 848.002c-6.94-.52-6.98 14.2-15 4-1.99.3-4.93 1.9-5 4 5.02-2.13 8.62 4.09 14 3 .36-4.58 4.05-8.21 6-11zM1119 860c-4.11-10.22-17.83-7.26-26-12 1.68 12.91 15.13 14.9 26 12zM432 850.999c-2.35.35-3.76-3.53-6-1 1.43 2.79 4.56 4.47 4 8 5.18-1.75.02-4.39 2-7zM487.001 854.002c-1.85-1.36-1.42-5.17-4-5-2.23 2.26 1.11 7.84 4 5zM534 849c-1.56 1.78-5.88 5.08-5 8 3.48-1.93 4.69-3.82 5-8zM990 867c-1.44-5.55-2.5-14.89-8-18 3.89 5.08 2.68 12.68 8 18zM509.001 850.001c-2.54-.2-3.06 3.06-3 5 2.86-1.91 3.1 1.57 1 3 5.94.32 2.48-4.99 2-8zM665 855c-4.34.51-5-4.03-8-5 1.36 3.3 3.21 6.4 4 10 3.51-.36-.39-4.72 4-5zM1041 853.999c-1.52-2.24-5.44-4.86-8-3 1.33 4.18 5.28 1.94 8 3zM445 855c-1.19-2.02-3.78-3.49-6-4 .01 2.51 3.97 5.39 6 4zM495 852c-3.1-2.09-4.94 2.91-4 5 1.89-.6 2.64-3.05 4-5zM792 853c-3.43-.95-4.9-.91-8-2 .5 3.64 5.78 4.83 8 2zM799.999 851c-2.57.54-5.77.02-5 4 2.42.54 5.09-1.53 5-4zM1158 867c-2.17-5.1.61-12.75-5-16-1.84 4.06 2.51 8.26 1 13-5.44 1.73-6.08-5.14-11-3 2.32 5.15 9.27 6.89 15 6zM682.998 851.999c-4.52-.75-1.91 8.76-7 5 2.35 3.5-1.51 5.79 0 9 1.97-4.54 5.43-8.97 7-14zM519.999 853c-2.22 1.51-.89 7.16 2 7-.76-2.62-1.55-4.7-2-7zM655 866c2.66-4.75 1.69-8.96-1-13-1.69 3.76 2.4 7.19 0 11-2.73-1-3.6-6.17-7-3 4.73 1.58 1.27 3.3 0 6 5.77-4.44 7.42 3.82 13 4-2.89-3.37 1.65-6.74-5-5zM959 853c-2.59.1-4.03 3.11-7 2 2.02 2.28 8.79 3.37 7-2zM515.999 863c-2.03-3 .35-7.88-3-9 .56 2.65-4.55 8.61 3 9zM543.998 859c-1.15-2.42-3.65-3.98-6-5-.51 3.22 3.06 6.89 6 5zM891 854c-5.23 1.63-7.12 5.88-10 10 2.98 2.1 4.42-1.03 5.08-3.92.67-2.88 5.88-2.67 4.92-6.08zM601.002 855c-1.36 1.85-5.17 1.42-5 4 2.74 1.68 5.59-.88 5-4zM436 856c-1.68.75-3.04 2.43-4 4 2.58.84 6.63-1.24 4-4zM497 855.999c-3.02-.23-3.26 3.34-5 5 2.27.92 4.48 2.06 7 2 .15-4.47-6.31-2.58-2-7zM753 856c7.31 2.01.47 7.73 0 0zM764 869c0-4.77-1.43-8.78-3-13-.61 4-2.38 9.25 2 12-.52 2.81-4.43 1.22-5 4 7.16 1.25 9.88 10.06 16 13-1.73-5.97-8.39-8.93-11-14 3.34-1.18 4.88 2.6 8 2-1.47-2.13-4.24-4.14-7-4zM709 857c-1.24 3.22-5.31 9.69 1 10-4.04 3.26-1.04 5.92-2 9 2.76-3.62 8.77-.69 9-7-2.83-.49-4.19 4.92-7 2 .49-2.23 4.22-6.77-1-6 .55-2.94 1.33-5.33 0-8zM789 857.999c-2.88 5.97-8.07-3.35 0 0zM801 859.001c-3.36.37-6.36-3.56-10-1 1.55 3.27 7.69 2.43 10 1zM577 858c-4.87 2.76 1.71 7.28-2 10 1.23 3.8 3.6 1.86 6 1-3.41-1.54-3.16-6.06-4-11zM1025 868c-5.38-1.1-7.13-7.37-12-10 .4 4.57 7.67 14.62 12 10zM686 858.998c-3.84-.13-2.67 5.15-6 6 4.57-1.61 4.15.86 2 4 6.04-.56 1.68-6.84 4-10zM534.999 865c-2.8-1.18-5.64-1.89-8-4-.83 3.2 2.3 4.7 5 4 .94 2.4 3.12 5.65 0 7 2.36-.3 6.02 1.03 7-2-3.42 1.26-5.62-2.56-4-5zM545 866c-4.04-1.02-6.8-5.01-11-5 .09 2.83 4.66.18 3 5 3.04-.28 5.28 1.49 8 0zM644.999 861c.49 7.38-7.39.79 0 0zM746.002 867c-4.44.01-1.41-5.98-5-6-1.15 4.81.25 8.42 3 12 1.63-1.55-.85-4.28 2-6zM795 871c-2.05-5.96-10.13-6.49-15-10-1.6 5.17-4.69 9.45-10 6-.19 2.82 3.37 2.56 5 4-1.26 1.82-1.72 5.18 1 6-2.6-13.77 12.59-13.22 19-6z" />
        <path stroke="black" fill="none" className="drawingPaths"
            d="M1136 884c-5.46-16.51-20.42-21.38-36-23 1.95 19.13 21.24 19.31 36 23zM519 862c-2.21.76-3.03 3.15-4 5 3.78 1.03 5.96-1.92 4-5zM589 866c-2.69-1.57-2.88-4.45-7-4 3.72 3.1.48 7.16 7 4zM620 862.999c-2.51 0-5.03-1.86-7 0 .64 2.79 7.23 3.16 7 0zM755 862.002c-2.05-.17-4.11 2-4 4 2.21-.05 7.64 3.15 8 0-1.12-.89-5.13-.48-4-4zM808 866c-.52-2.57-4.46-3.67-7-4 .34 2.91 4.73 2.9 7 4zM507.002 865c-3.14 1.61-3.86-.09-6-2-3.57 3.63 6.24 6.09 6 2zM801 868c-.07-3.41-4.48-4.17-7-5 .48 3.25 4.43 4.43 7 5zM884 866.998c-7.15 2.95-26.02-8.92-30 4 2.05-4.14 8.66-6.75 12.97-3.97 4.32 2.77 8.9-1.67 11.03 2.97 2.54.45 5.02-.5 6-3zM605.002 870.998c-.4-8.92-9.24-.34 0 0zM610.001 867c-3.64.35-4.83 10.18 1 8-3.97-1.62-1.78-4.82-1-8zM806 875c3.66-.1 12.61-7.42 4-8 1.14 4.12-3.83 4.67-4 8zM706 873c-.27-2.08-1.35-5.23-4-5-.54 2.42 1.53 5.09 4 5zM989 868c-1.12 8.52-12.05 2.51-13 8 4.95-1.75 15.09.94 13-8zM648 869c-3.81 4.1-7.03-1.5-11 2 4.26 2.47 7.06 1.29 11 4 3.91-1.31 2.05-3.94 0-6zM756 870c-4.33.98-9.4-1.49-10 4 3.28-.69 10.42.66 10-4zM802 877c2.6-3.23-2.12-6.89-5-7 1 2.44 2.77 6.24 5 7zM1204 871c-2.74 1.25-2.69 5.85-2 8-3.57.27-2.11-4.65-4-6-1.98 2.23-7.6 6.77-2.75 9.75 4.84 2.99 2.46 8.39 6.75 10.25-3.67-7.58 1.77-7.39 5-4-2.4-6.01-2.95-11.14-3-18zm-8 6c7.8 2.34-1.77 9.76 0 0zm7 4c.24 7.54-7.59 1.06 0 0zM689.999 871.998c-4.56-.49-5.34 7.43 0 6-3.35-1.71-.4-3.42 0-6zM910 885c-3.03-5.58-7.07-8.69-11-13 .45 6.02 6.4 9.68 11 13zM705 874c-2.61 1.68-5.66.94-8 2 .14 3.43 8 .83 8-2zM855 874c-.97 5.61-1.45 10.19-7 11 1.45 2.24 4.04-.59 6 1 2.33-3.68 2.22-7.85 1-12zM922 874c-3.38-.92-4.51 1.66-6 4 2.61-.49 5.35-1.06 6-4zM926 916h5c.01-9.79 8.71-18.98 7-28-3.4 6.32-5.46 15.22-10 20-5.22-11.06-9.08-24.92-1-34-3.37-.67-2.68 4.65-6 4-1.41 4.16 3.32 20.19-3 13 2.25 8.47 7.1 16.14 8 25zM717 875.002c-2.93-.3-4.24 2.17-6 4 2.79 1.69 5.71-1.12 6-4zM735 880.999c.2-2.83-1.51-6.82-5-6 .77 2.56 3.01 5.04 5 6zM818 875c-4.67 3.32-12.6 3.42-15 9 5.52-2.35 12.07-2.81 15-9zM656 876c-3.42.77-6.69-.29-10 2 2.81 3.91 8.63.62 10-2zM761 882.001c-1.35-2.08-5.01-6.16-8-5 2.5 1.42 4.45 5.55 8 5zM842 876c-4.91.5-5.83 5.22-9 8 4.72.01 5.99-5.05 9-8zM781.999 880.999c-1.22-1.34-1.88-4.21-4-4-.92 2.41 1.09 4.51 1 7 5.76-4.34 15.08 1.84 19-2-4.44-1.78-10.3-2.32-16-1z" />
        <path stroke="black" fill="none" className="drawingPaths"
            d="M1196 877c7.8 2.34-1.77 9.76 0 0zM899 878c-3.19 3-8.35 4.16-9 9 3.57.66 3.14-3.99 6.25-4.74 3.11-.74 4.16-.63 2.75-4.26zM977 878c3.45 7.49-6.26 2.96 0 0zM728.999 878.999c-3.12-.24-3.97 2.54-7 3-.19 3.22 3.84 3.84 5 6 1.12-2.98-3.7-3.38-1-6 1.54 5.2 12.96 1.58 8 8 10.92-4.61-8.42-6.03-5-11zM847 885c-3.89-.28-3.19-5.26-6-6 3.45 6.79-2.6 11.09-7 15 7.54 1.89 5.65-9.06 13-9zM689 883.001c-4.99-2.23-4.67-4.2-7 2 2.5.18 5.32-.49 7-2zM715.001 881c.21 7.14-7.49 1.68 0 0zM1097 915.999h16c-.31-3.35-8.12-13.37-3-11-1.02-12.26-4.35-29.37-21-24 .04 5.09 2.34 12.06 7 14-2.26 3.8-3.98 18.25 1 21z" />
        <path stroke="black" fill="none" className="drawingPaths"
            d="M1203 881c.24 7.54-7.59 1.06 0 0zM1119 916h14c-.64-2.43 2.34-2.45 3-4 3.02 3.87 4.22-.93 8 0v4h17c-6.19-22.3-32.19-31.05-53-33 1.5 4.07 3.61 20.11 8 13 3.46 3.98-1.28 16.91 3 20zM1086 890c1.34-6.24-6.25-8.11-9-3 2.93 1.26 5.94 2.25 9 3zM804.998 900c-4-4.53-7.89-11.06-12-15-1.61 5.75 7.15 8.64 1 12 4.16 1.62 6.1 4.74 11 3zM806 894c-1.23-3.44-2.23-10.82-7-8 3.48 1.42 3.9 7 7 8zM834.001 885c1.78 8.72-6.91 2.18 0 0zM883.999 889c.01-3.3-4.52-1.38-6-4-.95 3.88 3.17 4.52 6 4zM711 889.998c-.98-2.99-5.64-4.33-9-4 1.45 2.16 5.95 5.05 9 4zM779 894.999c-1.15-3.06-1.76-9.65-6-8 3.94 2.98 2.14 11.02 9 10 1.12-7.2 7.51 2.34 11-1-4.5-2.54-9.46-5.42-14-1zM816 888c-4.1 1.17-8.5 4.43-8 9 3.86-.86 4.28-6.97 8-9zM830.001 889.001c-5.77-3.82-15.99 2.82-10 8-3.57-3.87 7.78-10.06 3-4 2.84-1.45 6.4-.41 7-4zM877 887.998c-5.79-.44-7.32 4.84-10.3 8.7-2.98 3.86-10.63 3.36-12.7 6.3 10.5.63 18.2-9.18 23-15zM721 890c.25 7.15-11.56 10.6-12 17 3.91-1.99 7.61-10.67 13-6 .92-3.62.76-7.4-1-11zM726.001 897c2.4-1.84 2.16-6.67-1-7 1.82 2.36-2.62 5.19 1 7zM960 899c-2.62-3.24-.72-6.34-4-9 1.07 5.94-1.37 8.17-1 13 3.01.76 3.48-2.23 5-4zM1090 914c-.78-7.39.69-21.39-8.99-23.01-9.68-1.61-15.11-.56-24.33 2.69-9.22 3.25 4.35 9.01 10.09 12.55 5.74 3.54 16.14 7.22 23.23 7.77zM1169 916h7c-2.57-8.87-6.48-19.53-12-26-5.67 9.58 2.76 17.22 5 26zM989 891.998c-3.02-.37-6.61-2.1-8 2 9.32.85-5.6 12.63-11 10 2.33.6 3.72 3.65 1 6 7.31-2.51 13.82-10.66 18-18zM976 895c-2.73.86-6.69 2.68-7 6 3.98.72 4.64-3.87 7-6zM829 899.002c-.75-5.47-7.5-1.03-8 2 2.71-.59 5.33-1.4 8-2zM852 905c-1.55-3.32-5.96-6.58-8-9 .63 3.88 4.25 7.92 8 9zM883 916h5c-4.28-6.21-8.33-12.65-10-20 .42 2.73.53 18.11 5 20zM739.999 897c-2.79 1.17-8.83 4.37-7 8 2.5-3.22 7.57-1.95 7-8zM754 897c-3.92 1.76-6.46 5.3-8 9 4.49-2.35 6.42-4.42 8-9zM730.002 906c.04-3.26-3.47-4.74-6-6-2.57 3.51 3.71 4.77 6 6zM700.998 902c-4.64.46-10.97 1.84-9 8 2.25-5.34 4.18-3.31 8-6 1.01 1.71 2.78 4.05 5 4-.22-2.62-3.69-3.01-4-6zM755 916h2c-3.61-2.91-3.64-9.19-7-11 1.47 3.07 1.72 9.43 5 11zM743.999 906c-1.79.67-3.47 3.44-2 5 2.45.27 3.1-3.56 2-5zM714 916h1c-.84-2.39-1.03-4.11 1-6-1.42-2.55-3.59-1.82-6-1 .96 2.9 2.96 3.94 4 7zM699.001 916c.5-.03 1.5 0 2 0-1.41-3.6 3.45-2.2 3-5-3.53-2.53-7.29 2.69-5 5zM737.001 916.002h2c.15-1.83 2.76-.33 3-2-.56-3.88-5.94-.47-5 2z" />
        <path stroke="black" fill="none" className="drawingPaths"
            d="M1133 916.001h11v-4c-3.78-.93-4.98 3.87-8 0-.66 1.55-3.64 1.57-3 4zM1190 916.001h6c.94-3.45-1.28-3.76-3-4-2.24-.31-2.76 2.38-3 4zM1031 916.001h32c-4.79-.68-6.15-.72-11.92-2.06-5.77-1.35-17.73 1.46-20.08 2.06z" />
    </g>
    <defs>
        <clipPath id="prefix__clip0_3633_193">
            <path fill="#fff" d="M0 0h1222v918H0z" />
        </clipPath>
    </defs>
</svg>