<?xml version="1.0" standalone="no"?>
<!DOCTYPE svg PUBLIC "-//W3C//DTD SVG 20010904//EN"
 "http://www.w3.org/TR/2001/REC-SVG-20010904/DTD/svg10.dtd">
<svg version="1.0" xmlns="http://www.w3.org/2000/svg"
 width="300.000000pt" height="168.000000pt" viewBox="0 0 300.000000 168.000000"
 preserveAspectRatio="xMidYMid meet">
<metadata>
Created by potrace 1.10, written by Peter Selinger 2001-2011
</metadata>
<g transform="translate(0.000000,168.000000) scale(0.100000,-0.100000)"
fill="#000000" stroke="none">
<path d="M1690 1375 c-68 -32 -124 -85 -155 -146 l-24 -47 -53 2 c-50 2 -57
-1 -108 -45 -156 -132 -397 -270 -457 -262 -16 3 -36 -2 -48 -12 -20 -17 -20
-17 0 -10 46 16 57 14 20 -4 -52 -25 -49 -26 -64 14 -9 27 -20 37 -50 46 -21
6 -41 20 -47 33 -5 12 -20 22 -34 24 -14 2 -35 8 -47 14 -12 6 -28 8 -36 5 -9
-3 -19 4 -26 19 -8 18 -18 24 -44 24 -19 0 -36 2 -39 5 -3 3 0 24 6 46 10 38
9 43 -12 60 -13 10 -21 23 -17 28 3 6 -6 18 -20 27 -23 15 -31 15 -66 4 -22
-8 -51 -26 -63 -41 -16 -18 -27 -24 -33 -18 -14 14 -69 -10 -106 -44 l-28 -27
-9 25 c-10 25 -64 60 -80 50 -5 -3 -11 -1 -15 5 -3 5 -14 10 -23 10 -16 -1
-16 -1 1 -11 11 -7 17 -22 17 -49 0 -39 1 -40 35 -40 18 0 38 -6 42 -13 4 -8
35 -22 69 -32 67 -20 77 -33 88 -117 6 -52 2 -55 -68 -56 -16 0 -31 -4 -35 -9
-3 -5 -41 -17 -84 -27 -43 -10 -76 -20 -73 -23 3 -3 47 5 98 17 l93 23 134
-49 133 -48 -128 -28 c-128 -29 -200 -32 -302 -12 -43 8 -41 -8 3 -35 30 -17
48 -20 125 -17 49 2 92 0 96 -5 3 -5 -3 -7 -13 -4 -10 3 6 -6 36 -20 30 -15
66 -35 81 -45 21 -15 42 -18 116 -17 49 1 102 -2 117 -6 19 -5 27 -4 22 3 -3
5 -19 10 -35 10 -16 0 -31 4 -34 9 -3 4 -28 6 -56 3 -35 -3 -57 0 -74 12 -14
9 -29 16 -33 16 -4 0 6 -9 22 -20 25 -17 27 -20 10 -20 -11 0 -37 11 -56 24
-20 14 -49 28 -65 32 l-29 7 30 13 c27 11 33 10 53 -9 22 -20 35 -22 150 -23
79 -1 138 -6 157 -14 19 -8 85 -14 177 -16 81 -1 152 -5 158 -9 6 -4 36 -11
68 -15 31 -5 99 -18 151 -29 52 -10 100 -17 106 -14 18 6 129 -15 160 -31 26
-13 25 -14 -32 -20 -106 -12 -311 6 -349 31 -41 27 -84 32 -170 22 -77 -8 -88
-7 -126 12 -35 18 -52 20 -107 15 -199 -20 -327 -11 -421 29 -39 17 -76 24
-112 24 -29 -1 -78 1 -108 4 l-55 6 45 -10 c25 -6 77 -12 115 -14 43 -2 89
-11 118 -24 65 -28 164 -43 233 -35 65 8 70 -9 7 -21 -21 -4 -42 -9 -47 -13
-5 -3 -32 -7 -60 -9 -60 -5 -73 -12 -25 -14 l34 -2 -30 -7 c-23 -6 -20 -7 14
-4 25 2 52 10 60 18 9 7 62 25 119 39 96 24 107 25 145 11 27 -9 61 -34 92
-68 39 -42 59 -56 90 -61 46 -8 155 -55 155 -67 0 -11 -2 -10 -36 7 -21 10
-39 12 -68 5 -41 -9 -84 1 -168 39 -44 20 -50 21 -84 6 -20 -8 -48 -15 -63
-14 -19 0 -11 5 29 19 30 11 44 17 30 14 -77 -16 -98 -16 -136 4 -38 21 -39
21 -11 22 25 0 147 65 147 77 0 3 -30 -12 -67 -33 -59 -33 -75 -37 -147 -40
-45 -1 -97 -3 -116 -5 l-35 -2 35 -6 35 -7 -34 -8 c-18 -5 -36 -4 -40 1 -14
19 -63 32 -104 27 -34 -5 -47 -2 -67 15 l-25 20 85 1 c63 0 81 3 70 11 -12 9
-11 10 8 6 13 -3 20 -1 16 5 -4 6 1 8 12 4 25 -7 53 8 30 17 -9 4 -36 -2 -61
-13 -50 -21 -177 -30 -183 -12 -2 7 -13 7 -34 1 -21 -6 -36 -5 -45 3 -11 9 -2
18 44 44 32 18 55 34 51 34 -4 0 -35 -15 -69 -34 l-61 -34 25 -16 c16 -11 34
-15 52 -10 20 5 32 1 53 -19 37 -35 70 -46 109 -35 26 7 40 5 72 -14 39 -23
39 -23 91 -4 64 23 127 17 175 -15 38 -26 44 -39 18 -39 -9 0 -13 -3 -10 -7 4
-3 17 -1 30 5 12 6 36 13 52 17 82 18 92 17 146 -11 48 -25 63 -28 135 -26 70
1 84 -1 99 -18 13 -14 21 -17 26 -9 5 9 23 9 74 -1 67 -13 68 -13 41 -27 -22
-11 -33 -12 -60 -2 -25 9 -41 9 -65 1 -25 -9 -39 -8 -72 8 -39 17 -46 17 -92
3 -45 -13 -58 -13 -131 2 -44 8 -82 17 -83 19 -2 2 11 6 28 10 18 3 30 8 28
11 -3 2 -29 -2 -59 -10 -30 -8 -70 -15 -88 -15 -41 0 -125 20 -133 32 -3 4
-21 3 -40 -4 -30 -11 -216 -15 -314 -8 -29 2 -28 3 20 26 51 24 96 34 65 14
-8 -5 -10 -10 -5 -10 6 0 17 5 25 10 13 9 13 10 0 10 -8 1 1 9 20 20 46 25 34
25 -21 0 -51 -23 -87 -26 -46 -4 39 21 33 27 -9 7 -19 -10 -30 -19 -24 -21 20
-7 -70 -52 -104 -52 -18 0 -26 -4 -19 -8 6 -4 11 -22 11 -40 -1 -37 8 -50 23
-35 8 8 8 13 0 17 -6 4 -11 18 -11 32 0 17 5 24 20 24 16 0 19 -6 16 -30 -2
-16 1 -30 6 -30 6 0 8 -11 6 -25 -6 -27 6 -34 16 -10 4 10 16 15 33 13 26 -3
28 -1 26 34 -2 32 1 38 18 38 19 0 20 -4 14 -43 -12 -71 -11 -74 28 -70 31 4
31 3 -11 -18 -48 -24 -44 -32 24 -43 29 -4 46 -1 60 10 19 15 19 15 -1 9 -20
-8 -86 -7 -93 0 -2 2 9 9 24 17 39 19 40 33 2 45 -18 6 -25 11 -15 12 19 1 23
16 7 26 -6 3 -10 17 -10 31 0 19 5 24 26 24 22 0 25 -3 20 -30 -2 -16 0 -33 6
-36 6 -4 5 -10 -3 -15 -11 -7 -10 -9 4 -9 9 0 17 -4 17 -10 0 -5 5 -10 11 -10
7 0 8 7 4 17 -3 10 -9 35 -11 57 l-5 39 48 -6 c130 -17 255 -28 260 -24 2 3
-26 8 -64 11 -37 4 -90 11 -118 16 -44 8 -41 8 30 5 125 -6 296 -23 345 -34
59 -13 130 -14 130 -1 0 16 58 12 92 -6 27 -14 37 -15 66 -4 26 9 40 9 63 0
22 -10 36 -10 54 -2 29 13 329 -1 381 -18 35 -12 46 -30 19 -30 -8 0 -15 5
-15 10 0 19 -39 10 -45 -10 -4 -12 -11 -17 -18 -13 -7 4 -50 8 -97 9 -47 1
-122 7 -166 14 -59 9 -90 10 -112 2 -31 -11 -84 -1 -155 27 -16 6 -36 11 -45
11 -9 -1 23 -14 73 -31 77 -25 94 -27 123 -18 33 11 72 8 183 -13 44 -8 59
-15 67 -34 10 -20 8 -24 -10 -30 -16 -5 -18 -8 -7 -15 11 -7 11 -9 1 -9 -7 0
-20 7 -28 15 -9 8 -25 15 -37 16 -63 1 -101 8 -168 28 -41 13 -82 27 -91 32
-10 5 -26 9 -37 9 -10 0 -36 7 -57 16 -35 15 -95 22 -294 38 -30 3 -43 2 -28
0 30 -6 33 -11 18 -34 -6 -9 -5 -20 3 -29 9 -11 9 -13 0 -8 -6 4 -14 4 -16 -1
-3 -4 6 -12 19 -19 13 -6 24 -7 24 -3 0 11 102 6 165 -8 28 -6 93 -16 145 -22
52 -6 141 -18 198 -27 77 -12 106 -13 115 -4 14 14 37 14 37 0 0 -6 -7 -9 -15
-5 -8 3 -15 2 -15 -3 0 -13 -79 -23 -98 -12 -11 6 -24 6 -33 0 -10 -6 -6 -9
16 -10 26 -1 -81 -21 -228 -43 -27 -4 -47 -10 -44 -12 5 -6 258 30 332 47 69
16 218 58 224 64 2 3 -4 11 -14 19 -16 11 -13 14 31 19 55 8 144 37 144 48 0
25 -216 63 -297 52 -29 -4 -50 -1 -65 9 -13 8 -60 21 -106 28 -129 21 -102 40
85 60 60 6 110 15 111 21 2 5 10 9 18 9 8 0 14 4 14 8 0 12 -63 32 -103 32
-20 0 -38 4 -42 9 -3 6 32 7 88 4 63 -4 130 0 208 11 69 11 155 16 219 14
l105 -3 -90 -24 c-49 -13 -98 -31 -108 -41 -17 -15 -12 -17 75 -30 102 -14
155 -20 178 -21 27 0 118 19 139 30 11 6 31 11 45 11 14 0 58 11 98 24 41 14
87 23 106 20 20 -2 47 4 72 17 22 12 47 18 56 15 10 -4 13 -2 8 6 -7 11 32 9
146 -10 l45 -7 -58 -45 c-44 -35 -64 -44 -88 -42 -28 3 -30 2 -20 -17 16 -28
50 -51 69 -44 9 4 13 2 9 -4 -4 -6 -2 -13 4 -15 14 -5 0 -38 -17 -38 -8 0 -14
5 -14 10 0 6 -6 10 -12 9 -7 -1 -22 -1 -32 0 -18 1 -18 2 -2 20 20 22 14 41
-14 41 -11 0 -20 -10 -24 -25 -6 -24 -10 -25 -84 -25 -42 0 -93 -3 -112 -6
-27 -4 -42 -1 -60 14 l-25 20 35 11 35 11 -35 -7 c-19 -5 -82 -7 -140 -7 -58
0 -85 -1 -60 -3 25 -2 54 -8 65 -13 70 -31 159 -61 173 -57 11 3 9 5 -8 7 -53
5 33 18 127 19 90 1 93 2 99 26 5 21 24 36 24 20 0 -15 -34 -55 -46 -55 -8 0
-14 -6 -14 -14 0 -8 -10 -17 -22 -19 -13 -3 -4 -4 20 -4 33 1 42 5 42 19 0 22
35 25 44 3 4 -10 -1 -15 -17 -16 -21 -1 -20 -1 3 -8 18 -5 27 -3 32 8 5 12 7
10 7 -8 1 -14 -4 -21 -11 -18 -7 2 -22 1 -33 -4 -19 -7 -19 -8 3 -8 12 -1 22
-6 22 -13 0 -9 3 -9 12 0 16 16 28 15 28 -2 0 -22 -24 -38 -38 -24 -8 8 -16 8
-29 -3 -16 -12 -15 -11 1 9 19 22 10 32 -11 11 -7 -7 -17 -8 -25 -3 -7 5 -17
9 -23 9 -5 0 -24 8 -41 17 -26 14 -99 27 -291 52 -18 3 -33 1 -33 -4 0 -4 33
-11 73 -15 189 -17 277 -42 277 -76 0 -19 -125 -92 -179 -104 -27 -6 -29 -8
-17 -21 16 -16 27 -18 23 -5 -1 4 42 32 97 60 61 32 96 46 93 37 -4 -9 1 -19
10 -24 9 -5 13 -15 9 -21 -6 -9 -11 -9 -22 0 -18 15 -17 -1 2 -26 14 -19 15
-19 20 3 4 12 12 22 19 22 7 0 15 6 18 13 3 9 7 9 20 -2 22 -18 22 -31 0 -31
-10 0 -25 -5 -33 -11 -12 -9 -11 -10 5 -5 18 5 18 5 3 -7 -14 -11 -9 -13 32
-12 26 0 46 3 43 8 -2 4 0 7 6 7 5 0 13 -5 16 -10 5 -8 11 -8 19 -1 9 7 16 7
25 -2 10 -9 12 -9 9 2 -5 23 34 26 50 5 13 -18 14 -18 10 1 -2 14 -12 20 -33
22 -17 0 -34 2 -39 2 -5 1 -3 7 3 14 13 16 5 27 -20 27 -23 0 -33 50 -10 51
10 0 8 4 -7 10 -28 11 -27 52 2 57 15 3 18 0 13 -17 -3 -12 -1 -21 3 -21 5 0
10 10 12 23 2 17 9 22 30 22 23 -1 26 3 22 21 -3 12 -2 24 3 27 14 9 74 -7 71
-18 -2 -5 -6 -9 -10 -8 -5 2 -8 -2 -8 -7 0 -6 5 -10 10 -10 14 0 12 -36 -2
-47 -17 -13 -49 -13 -65 0 -9 6 -13 6 -13 -3 0 -6 9 -14 20 -17 11 -3 20 -10
20 -17 0 -6 9 -22 20 -36 25 -32 25 -44 1 -30 -11 5 -29 10 -40 10 -12 0 -21
5 -21 10 0 6 -6 10 -12 10 -24 -1 34 -40 59 -40 13 0 34 -11 47 -25 27 -29 41
-33 28 -7 -5 9 -6 25 -3 36 8 21 2 76 -8 76 -4 0 -5 -16 -3 -35 2 -19 0 -35
-4 -35 -9 0 -54 61 -54 72 0 8 39 19 70 21 18 2 26 9 28 25 3 18 -1 22 -20 21
-17 -1 -18 -3 -5 -6 18 -5 23 -18 8 -27 -16 -10 -34 23 -28 53 8 38 -7 50 -60
47 -41 -2 -42 -1 -40 28 2 17 6 38 11 46 7 12 6 13 -4 3 -9 -8 -19 -9 -30 -3
-21 11 -80 -4 -91 -22 -6 -10 -14 -7 -31 9 -12 13 -17 23 -10 23 7 0 12 -5 12
-11 0 -9 63 37 152 113 21 17 41 28 45 24 8 -7 -27 -43 -97 -99 -19 -16 -26
-24 -14 -18 11 5 43 30 71 55 33 30 60 46 77 46 31 0 126 -46 126 -60 0 -6 3
-10 8 -10 4 0 7 22 7 49 0 42 3 51 22 60 17 8 26 7 38 -5 8 -9 15 -11 15 -4 0
6 -7 13 -15 16 -25 10 -17 24 15 24 19 0 33 -7 40 -19 14 -27 13 -34 -4 -28
-11 4 -16 -4 -18 -30 -2 -22 -9 -38 -18 -40 -13 -4 -13 -3 0 6 12 9 10 11 -12
11 -15 0 -32 8 -37 17 -9 16 -10 16 -11 1 0 -9 17 -27 38 -40 28 -17 33 -24
19 -26 -10 -2 -24 2 -32 8 -12 10 -16 9 -21 -3 -3 -9 -3 -20 -1 -24 3 -5 -16
-10 -43 -11 -44 -2 -48 0 -43 18 3 11 1 20 -5 20 -6 0 -8 10 -5 23 3 12 2 19
-2 15 -5 -5 -8 -24 -7 -43 1 -21 -3 -33 -8 -30 -6 3 -11 18 -11 33 -1 24 -3
23 -12 -10 -6 -21 -16 -38 -23 -38 -21 0 -21 44 0 70 l21 25 -27 -24 c-15 -13
-25 -27 -23 -31 3 -4 -5 -10 -16 -13 -14 -4 -18 -10 -13 -19 4 -7 7 -26 6 -43
l-2 -30 13 25 c7 14 20 25 28 25 9 0 23 6 31 13 17 14 28 6 28 -19 0 -13 6
-16 21 -12 14 4 25 0 31 -11 5 -9 16 -16 24 -16 10 0 5 9 -14 25 -17 14 -35
25 -41 25 -6 0 -11 4 -11 9 0 5 15 5 35 1 19 -4 35 -5 36 -1 0 3 4 -3 9 -14 8
-18 9 -19 9 -1 1 12 6 16 17 12 9 -3 20 -6 26 -6 6 0 8 -9 5 -20 -6 -22 8 -28
16 -6 3 7 -5 23 -19 35 -13 11 -24 29 -24 38 1 17 2 16 15 -1 13 -17 16 -18
37 -4 20 14 24 13 40 -6 l17 -21 -2 22 c-1 12 -7 25 -14 27 -17 7 -14 74 4 80
7 3 13 12 13 20 0 19 -40 57 -51 50 -5 -3 -6 2 -2 11 4 13 1 16 -18 13 -15 -2
-25 -12 -29 -28 l-6 -25 -8 23 c-6 17 -3 27 10 37 15 11 16 15 5 29 -14 17
-46 23 -36 6 3 -6 -4 -10 -17 -10 -29 0 -48 -17 -48 -42 0 -26 -16 -22 -39 11
-18 24 -19 30 -6 35 8 3 23 3 33 0 9 -3 6 1 -8 9 -16 10 -27 12 -31 5 -4 -6
-26 -6 -65 1 -154 26 -205 31 -284 29 -80 -2 -92 1 -189 40 -118 48 -385 192
-476 257 -33 24 -80 61 -104 84 -24 23 -46 39 -48 37 -2 -2 24 -29 59 -60 35
-31 56 -56 48 -56 -8 0 12 -25 45 -55 33 -30 54 -54 47 -55 -13 0 -181 162
-226 220 -15 19 -8 6 16 -29 49 -72 103 -124 238 -225 102 -77 144 -104 95
-62 -41 35 -23 33 30 -4 47 -32 135 -73 142 -66 2 2 -21 16 -52 30 -31 14 -89
49 -128 77 -82 59 -200 160 -194 165 5 6 135 -79 170 -110 15 -15 34 -23 42
-19 10 3 15 1 13 -6 -3 -12 206 -141 227 -141 5 0 -23 19 -63 41 -83 47 -91
64 -11 24 29 -15 91 -43 138 -62 l86 -34 -65 7 c-36 4 -93 8 -128 9 -34 1 -82
8 -107 15 -25 7 -68 10 -97 7 -78 -8 -259 -37 -287 -46 -15 -4 -41 -2 -64 6
-23 8 -71 13 -111 12 -40 -2 -78 1 -86 7 -8 5 -98 9 -200 10 -144 0 -211 5
-303 22 -100 19 -129 20 -180 12 -77 -13 -307 -72 -252 -64 22 3 86 16 141 30
56 13 124 25 150 26 48 2 248 -27 266 -38 5 -3 30 -5 56 -5 263 7 298 6 328
-10 20 -10 37 -13 45 -8 19 12 139 0 166 -17 12 -8 30 -14 40 -14 15 0 15 2 4
9 -17 11 -10 13 105 30 58 9 78 8 106 -3 45 -19 449 -117 462 -113 6 2 -61 21
-149 41 -259 62 -315 78 -309 87 9 16 51 10 101 -15 51 -25 157 -48 313 -67
52 -6 128 -17 169 -25 41 -8 76 -12 78 -10 6 6 -84 25 -172 36 -44 6 -115 15
-157 21 -98 12 -223 44 -251 64 -21 15 -21 15 15 15 20 0 103 -18 184 -40 82
-22 155 -40 164 -39 8 0 -23 11 -70 23 -141 37 -133 41 32 17 26 -4 53 -4 61
1 8 4 29 3 48 -2 22 -7 35 -7 37 0 6 18 107 10 192 -15 74 -22 154 -35 90 -15
-24 8 -24 8 6 9 28 1 31 -2 26 -24 -5 -28 -15 -30 -82 -14 -72 17 -141 28
-200 33 -30 2 -71 7 -90 10 -34 6 -34 6 -5 -4 17 -5 68 -14 115 -20 47 -6 120
-17 164 -26 43 -9 87 -14 97 -11 10 3 21 1 24 -4 9 -13 -43 -23 -132 -23 -89
-1 -97 -6 -25 -18 29 -4 13 -5 -42 -2 -50 3 -98 10 -107 15 -28 15 -70 11
-117 -12 -33 -17 -53 -20 -85 -15 -57 10 -192 7 -245 -5 -45 -10 -62 -5 -247
71 -65 27 -67 29 -35 30 20 0 44 -6 55 -13 39 -26 111 -50 173 -56 34 -4 62
-3 62 1 0 4 -24 8 -52 8 -38 0 -75 10 -133 35 -74 33 -155 46 -155 27 0 -5 32
-22 71 -37 57 -23 67 -30 51 -36 -20 -8 -87 5 -107 20 -15 11 -45 21 -45 15 0
-3 19 -14 43 -25 41 -20 41 -20 8 -15 -18 3 -62 6 -98 6 -40 0 -62 4 -58 10 4
6 -7 8 -27 4 -25 -4 -29 -3 -18 5 12 9 10 11 -13 11 -16 0 -26 -4 -22 -10 4
-6 -14 -10 -47 -11 -29 -1 30 -8 132 -15 225 -17 227 -17 268 -8 22 4 48 0 80
-12 l47 -19 -200 -5 c-122 -3 -209 -1 -224 5 l-25 10 30 7 c25 6 24 7 -8 3
-20 -2 -65 2 -100 9 -35 8 -84 14 -110 14 -43 0 -132 16 -248 44 -25 6 -108
12 -185 13 -90 1 -151 7 -170 15 -19 9 -75 14 -157 14 -115 1 -130 3 -157 24
-25 18 -35 21 -51 12 -14 -8 -26 -8 -40 0 -12 6 -54 9 -102 6 -69 -3 -87 -1
-117 16 -26 14 -29 18 -11 13 14 -4 59 -9 101 -12 62 -4 101 0 220 27 320 72
567 157 740 256 45 25 83 44 85 41 5 -5 -177 -127 -231 -154 -22 -12 -74 -35
-116 -52 -42 -17 -85 -38 -95 -46 -29 -22 209 80 258 111 97 60 257 177 253
184 -3 4 19 26 48 48 29 23 63 53 77 67 21 22 31 25 92 25 l69 0 72 -61 c145
-122 312 -223 477 -287 171 -68 495 -146 730 -177 69 -9 141 -20 160 -25 32
-8 33 -8 16 5 -11 8 -34 15 -50 15 -28 0 -160 20 -348 52 -68 11 -82 20 -52
32 29 11 83 6 118 -10 32 -16 37 -16 69 0 19 9 44 16 56 16 11 0 42 14 68 30
26 17 72 38 101 46 30 9 51 18 48 21 -9 10 -112 -27 -156 -57 -25 -16 -56 -30
-70 -30 -14 0 -37 -7 -53 -14 -24 -13 -32 -13 -72 5 -44 20 -47 20 -103 3 -31
-10 -66 -16 -77 -15 -30 4 -321 90 -366 107 l-38 16 29 36 c63 79 82 206 46
310 -22 65 -96 148 -162 182 -39 20 -67 25 -139 28 -80 2 -96 0 -145 -23z
m276 -18 c72 -36 140 -115 160 -185 30 -101 8 -220 -55 -301 l-19 -25 -76 33
c-114 50 -286 166 -405 274 l-41 37 19 38 c35 68 118 133 196 153 59 16 166 4
221 -24z m-1545 -167 c10 -6 19 -18 19 -26 0 -9 10 -24 22 -33 16 -13 19 -23
13 -37 -4 -10 -10 -28 -12 -38 -2 -11 -7 -24 -12 -30 -7 -8 7 -12 42 -13 56
-3 70 -15 61 -53 -12 -46 -9 -55 13 -58 14 -2 29 -16 39 -38 17 -35 22 -38 48
-28 18 7 22 34 5 34 -7 0 -9 9 -6 23 6 22 6 22 -9 2 -13 -18 -13 -21 1 -31 14
-11 14 -12 0 -18 -12 -4 -20 4 -31 29 -9 23 -21 35 -34 35 -24 0 -27 27 -6 56
13 16 18 17 35 7 12 -7 32 -13 46 -13 15 0 31 -9 41 -24 8 -14 31 -30 49 -36
22 -7 37 -21 45 -41 7 -16 11 -31 9 -33 -15 -14 -166 -53 -175 -45 -6 5 -24 6
-40 3 -24 -4 -31 -1 -39 18 -8 18 -18 23 -45 23 -54 0 -78 13 -85 45 -8 34
-28 53 -63 58 -38 5 -55 21 -41 38 18 22 2 61 -32 78 -21 11 -45 13 -75 9 -40
-5 -44 -4 -44 16 0 16 6 21 25 21 14 0 24 5 23 12 -2 6 9 16 24 21 22 9 32 6
62 -17 34 -26 53 -22 21 4 -28 24 -14 44 55 77 32 15 28 15 51 3z m-336 -66
c13 -5 14 -8 3 -15 -10 -7 -8 -9 7 -9 12 -1 29 -16 42 -36 22 -34 16 -36 -19
-6 -10 8 -31 15 -48 14 -30 -1 -36 10 -24 42 7 18 14 19 39 10z m182 -89 c33
-16 47 -47 30 -64 -12 -12 48 -91 70 -91 11 0 14 -7 9 -25 -6 -23 -4 -25 28
-25 19 0 38 -5 42 -11 4 -8 -1 -9 -16 -4 -15 5 -20 4 -16 -4 9 -14 51 -14 76
-1 23 12 51 3 44 -15 -7 -16 29 -29 56 -20 11 3 20 2 20 -3 0 -10 -89 -32
-128 -31 -15 0 -81 19 -147 43 -111 40 -118 44 -88 50 38 9 50 23 34 39 -6 6
-11 29 -11 50 0 53 -32 97 -71 97 -16 0 -29 5 -29 11 0 6 6 9 13 6 9 -3 42 4
53 12 0 1 15 -6 31 -14z m121 -137 c6 -6 11 -22 11 -37 l-2 -26 -4 28 c-2 15
-10 27 -17 27 -7 0 -21 7 -32 16 -18 14 -18 15 6 8 14 -3 31 -11 38 -16z
m1457 -94 c22 -20 31 -31 20 -25 -29 15 -82 60 -70 60 6 0 28 -16 50 -35z
m140 -19 c22 -13 36 -24 30 -25 -5 0 -28 11 -50 25 -22 13 -35 24 -30 25 6 0
28 -11 50 -25z m765 -216 c0 -18 61 -69 83 -69 20 0 21 0 1 -16 -18 -15 -18
-15 4 -9 21 6 23 4 17 -17 -4 -12 -8 -24 -10 -25 -4 -6 -85 33 -85 40 0 5 4 6
9 2 15 -9 24 16 11 28 -7 7 -10 7 -7 2 3 -6 -3 -16 -13 -23 -17 -10 -20 -9
-26 13 -4 15 -11 22 -18 18 -6 -3 -3 3 7 14 10 11 15 27 11 37 -3 9 -1 16 5
16 6 0 11 -5 11 -11z m123 -45 c-8 -21 -41 -17 -54 7 -10 20 -9 21 10 16 11
-3 21 0 21 5 0 6 6 6 14 -2 8 -6 12 -18 9 -26z m-2097 -14 c15 -6 47 -29 71
-51 49 -45 79 -59 128 -59 36 0 105 -28 105 -42 0 -11 -78 -10 -85 2 -3 5 -33
14 -66 21 -54 11 -64 17 -106 65 -27 32 -58 58 -77 63 -17 5 -23 10 -14 10 9
1 29 -4 44 -9z m1633 -11 c-9 -6 5 -8 38 -5 28 3 64 1 81 -3 35 -10 140 8 120
20 -8 6 -2 9 20 9 42 0 41 -13 -5 -40 -32 -19 -45 -21 -88 -14 -68 10 -144 11
-179 1 -24 -7 -28 -6 -20 5 5 8 -2 1 -16 -14 -21 -23 -30 -26 -59 -20 l-34 7
42 28 c23 15 40 31 37 35 -2 4 14 6 36 4 28 -3 36 -7 27 -13z m-83 3 c-2 -4
-29 -25 -60 -46 l-55 -37 -195 -2 c-108 -1 -183 -5 -168 -10 15 -4 90 -5 167
-3 139 3 145 -1 30 -24 -33 -6 -77 -16 -97 -22 -20 -6 -45 -7 -55 -3 -10 4
-45 11 -78 15 -33 5 -71 12 -85 15 -20 5 -22 4 -10 -4 12 -9 8 -10 -15 -5 -37
8 -45 14 -18 14 11 0 22 3 26 6 8 8 169 62 218 73 29 7 41 5 50 -5 6 -8 16
-14 21 -14 6 0 6 6 -1 14 -9 11 -8 15 5 20 23 9 163 7 206 -3 27 -6 45 -4 75
9 46 22 45 22 39 12z m-1279 -15 c7 0 10 -3 8 -7 -2 -3 17 -12 43 -19 26 -7
67 -19 92 -27 47 -16 61 -19 124 -29 67 -11 26 -23 -99 -31 -111 -6 -123 -5
-160 15 -22 11 -56 21 -76 21 -37 0 -120 37 -126 57 -4 11 41 23 92 23 19 0
39 -8 50 -20 19 -21 19 -21 -26 -16 -24 3 -35 3 -25 0 12 -4 15 -9 8 -13 -6
-3 10 -7 36 -8 90 -3 94 -4 82 -18 -16 -19 6 -23 70 -14 l55 8 -60 -3 c-57 -3
-58 -2 -30 10 29 13 29 13 5 14 -42 2 -93 25 -109 49 -15 23 -14 23 9 16 14
-5 30 -8 37 -8z m142 -131 c-2 -2 -26 -6 -54 -10 -34 -4 -45 -3 -35 4 14 9 99
15 89 6z m1412 -64 c-18 -2 -40 4 -53 14 -13 9 -16 14 -8 11 9 -2 25 2 35 10
18 12 22 12 39 -9 l18 -23 -31 -3z m-2464 -34 c-2 -25 -9 -34 -25 -36 -17 -3
-20 0 -15 14 5 13 3 15 -8 9 -11 -7 -12 -6 -2 6 10 12 10 18 1 27 -9 9 -4 12
21 12 30 0 32 -2 28 -32z m2025 12 c42 -25 16 -26 -37 -1 -31 15 -35 20 -18
20 13 1 37 -8 55 -19z m468 -25 c0 -8 -7 -15 -15 -15 -8 0 -15 4 -15 9 0 5
-10 7 -22 3 -21 -5 -21 -5 3 -15 21 -9 22 -11 5 -15 -17 -4 -35 12 -36 30 0 6
28 14 63 17 9 0 17 -6 17 -14z m-1840 -25 c92 -7 142 -18 225 -51 47 -18 164
-49 208 -55 26 -4 47 -11 47 -15 0 -12 -7 -11 -114 6 -183 31 -214 35 -257 35
-24 0 -64 7 -89 16 -24 8 -60 14 -80 13 -71 -4 -76 -2 -77 37 -1 29 2 34 16
29 9 -4 63 -11 121 -15z m655 -61 c-57 -11 -75 -11 -75 2 0 5 4 8 9 4 5 -3 12
-2 15 3 2 4 24 6 48 3 l43 -5 -40 -7z m1102 -40 c2 -11 -2 -29 -7 -40 -13 -23
-40 -26 -40 -4 0 8 5 15 11 15 8 0 7 5 -1 16 -11 13 -10 16 8 21 13 3 19 10
15 17 -3 6 -2 8 2 3 5 -4 10 -17 12 -28z m-1117 11 c19 -12 12 -17 -35 -24
l-40 -6 29 14 c20 9 25 15 15 19 -11 4 -11 6 1 6 8 0 22 -3 30 -9z m1020 -32
c0 -26 -2 -29 -15 -18 -15 13 -20 42 -9 53 13 12 24 -4 24 -35z m40 11 c0 -27
-2 -30 -15 -19 -24 20 -19 39 13 49 1 1 2 -13 2 -30z m101 -48 c-7 -5 -11 -13
-7 -19 3 -5 -1 -15 -8 -21 -10 -8 -16 -9 -21 -1 -3 5 1 10 11 10 13 0 14 3 4
14 -13 16 -44 10 -33 -7 3 -5 1 -7 -4 -4 -6 4 -14 0 -17 -9 -3 -9 -11 -12 -18
-8 -18 11 42 54 77 54 21 0 26 -3 16 -9z"/>
<path d="M2055 444 l-50 -14 45 6 c25 4 77 10 115 14 l70 7 -65 0 c-36 0 -87
-6 -115 -13z"/>
<path d="M1357 1031 c-15 -22 -45 -58 -69 -80 -23 -23 -38 -41 -32 -41 20 0
143 145 132 155 -3 3 -17 -12 -31 -34z"/>
<path d="M1500 1061 c0 -27 92 -140 164 -200 94 -78 164 -126 172 -118 3 3 -7
12 -23 21 -42 21 -181 136 -225 184 -20 23 -46 59 -58 82 -20 39 -30 49 -30
31z"/>
<path d="M1427 1005 c-16 -122 -39 -229 -58 -267 -11 -21 -15 -38 -10 -38 5 0
16 19 25 41 20 49 59 270 54 302 -2 12 -7 -5 -11 -38z"/>
<path d="M1258 971 c-62 -74 -134 -134 -219 -182 -30 -16 -43 -27 -30 -24 17
5 22 4 16 -5 -5 -9 -4 -11 4 -6 6 4 8 12 5 18 -5 8 -1 9 12 4 10 -4 15 -4 12
0 -4 3 19 23 50 44 76 49 241 222 210 220 -2 0 -29 -31 -60 -69z"/>
<path d="M1385 993 c-11 -61 -63 -215 -90 -262 -14 -24 -24 -46 -21 -48 9 -9
55 86 84 172 30 91 48 175 38 175 -3 0 -8 -17 -11 -37z"/>
<path d="M1480 1027 c0 -3 9 -31 21 -62 12 -31 18 -59 15 -62 -3 -4 -6 0 -6 8
0 12 -2 11 -10 -1 -8 -12 -10 -10 -9 10 0 14 -4 39 -10 55 -10 27 -10 26 -5
-15 3 -25 13 -70 21 -100 17 -60 91 -215 99 -207 3 3 -8 29 -25 59 -30 52 -71
159 -71 182 0 6 16 -18 35 -53 40 -74 86 -143 92 -137 2 2 -14 30 -36 61 -46
65 -56 99 -13 45 15 -19 37 -46 50 -60 18 -21 21 -22 16 -5 -5 13 9 5 41 -25
l49 -45 -45 51 c-24 28 -47 47 -50 43 -14 -22 -83 81 -121 179 -28 72 -38 94
-38 79z"/>
<path d="M1689 1016 c21 -25 185 -133 260 -171 36 -18 110 -49 165 -69 77 -29
101 -35 110 -25 8 9 7 10 -6 6 -10 -4 -18 -2 -18 4 0 6 -7 9 -15 5 -8 -3 -15
-1 -15 4 0 5 -7 7 -15 4 -8 -4 -15 -1 -15 6 0 6 -4 9 -9 6 -24 -15 -251 102
-386 198 -38 27 -64 42 -56 32z"/>
<path d="M1215 974 c-22 -20 -75 -57 -118 -84 -43 -26 -73 -50 -67 -52 11 -3
-154 -86 -204 -102 -10 -4 -16 -9 -14 -12 3 -3 23 2 43 10 44 19 59 20 49 5
-4 -8 0 -7 15 1 12 6 18 16 15 22 -5 8 -1 9 10 5 11 -5 15 -3 10 5 -5 8 -2 9
10 5 9 -4 15 -3 12 1 -3 5 22 23 55 41 32 18 56 37 53 42 -3 6 2 9 12 7 12 -2
18 2 16 10 -1 7 4 12 11 10 7 -2 14 2 17 7 2 6 20 22 39 36 34 25 90 79 80 79
-2 -1 -22 -17 -44 -36z"/>
<path d="M1325 911 c-22 -47 -61 -121 -87 -165 -27 -43 -39 -71 -29 -62 22 20
164 292 159 305 -2 4 -21 -31 -43 -78z"/>
<path d="M1530 965 c0 -6 7 -21 16 -34 9 -13 17 -32 18 -41 1 -22 65 -115 73
-106 3 3 28 -15 56 -40 28 -25 65 -52 81 -60 l31 -14 -30 22 c-75 58 -152 139
-197 208 -26 41 -48 70 -48 65z"/>
<path d="M1438 877 c-3 -66 -11 -96 -36 -150 -17 -37 -26 -65 -21 -61 29 18
62 121 67 207 2 48 2 87 -1 87 -2 0 -6 -37 -9 -83z"/>
<path d="M1385 898 c-15 -43 -44 -162 -41 -166 3 -2 10 16 16 39 6 24 18 65
25 92 8 26 12 47 9 47 -2 0 -7 -6 -9 -12z"/>
<path d="M1160 819 c-41 -39 -93 -84 -114 -100 -21 -16 -34 -29 -28 -29 14 0
113 83 177 149 71 73 52 63 -35 -20z"/>
<path d="M1243 853 c-9 -16 -39 -57 -66 -91 -27 -35 -47 -66 -44 -68 3 -3 26
23 51 58 57 77 90 128 82 128 -3 0 -13 -12 -23 -27z"/>
<path d="M1471 824 c1 -21 5 -50 9 -64 5 -16 6 -2 3 35 -7 69 -13 86 -12 29z"/>
<path d="M2236 741 c-7 -11 82 -43 95 -35 5 3 9 0 9 -6 0 -6 4 -9 8 -6 5 3 30
-1 57 -9 95 -29 68 -14 -45 25 -134 46 -117 42 -124 31z"/>
<path d="M1163 633 c32 -2 81 -2 110 0 29 2 3 3 -58 3 -60 0 -84 -1 -52 -3z"/>
<path d="M1180 610 c36 -12 60 -12 60 0 0 6 -19 10 -42 9 -37 -1 -39 -2 -18
-9z"/>
<path d="M1750 615 c0 -7 261 -87 267 -82 3 3 -14 11 -38 17 -23 6 -82 25
-131 41 -96 31 -98 32 -98 24z"/>
<path d="M1018 596 c51 -8 114 -23 141 -35 40 -17 68 -21 143 -19 l93 1 -105
7 c-75 5 -118 13 -150 27 -30 14 -74 23 -130 27 l-85 5 93 -13z"/>
<path d="M1345 590 c-63 -7 -61 -7 27 -4 67 2 105 -1 125 -11 19 -9 45 -11 83
-7 l55 7 -70 7 c-38 4 -88 9 -110 11 -22 2 -71 1 -110 -3z"/>
<path d="M125 514 c-38 -19 -61 -32 -50 -28 51 16 58 17 51 6 -5 -9 0 -9 18
-2 38 14 86 40 86 45 0 3 -18 -4 -40 -15 -56 -28 -74 -24 -20 5 68 36 35 28
-45 -11z"/>
<path d="M2384 425 c-17 -14 -55 -39 -85 -55 -30 -17 -43 -28 -29 -24 29 8
122 67 140 89 17 21 10 18 -26 -10z"/>
<path d="M2408 404 c-29 -25 -66 -52 -83 -60 -16 -7 -23 -13 -15 -14 8 0 27 8
41 18 32 21 124 102 116 102 -3 0 -29 -21 -59 -46z"/>
<path d="M2685 422 c-17 -15 -44 -37 -60 -49 -17 -12 -25 -23 -19 -23 5 0 35
22 65 50 30 27 52 49 49 49 -3 0 -19 -12 -35 -27z"/>
<path d="M2450 394 c-30 -25 -68 -52 -85 -60 -16 -7 -23 -13 -14 -14 17 0 68
35 129 89 55 48 31 36 -30 -15z"/>
<path d="M60 385 c-36 -19 -61 -34 -57 -35 10 0 127 59 127 65 0 7 2 8 -70
-30z"/>
<path d="M2225 370 c-38 -22 -66 -40 -61 -40 11 0 136 69 136 75 0 7 0 7 -75
-35z"/>
<path d="M78 366 c-37 -17 -70 -35 -75 -40 -9 -9 85 32 132 57 52 28 13 17
-57 -17z"/>
<path d="M374 355 c-58 -24 -103 -35 -155 -39 -49 -4 -69 -2 -59 4 8 5 11 10
5 10 -5 0 -17 -5 -25 -10 -13 -9 -13 -10 0 -11 51 -6 167 -3 163 4 -2 4 8 5
24 2 19 -5 24 -4 14 3 -10 7 7 18 65 40 44 17 72 31 64 31 -8 0 -52 -15 -96
-34z"/>
<path d="M1865 330 c3 -5 -8 -11 -25 -15 -16 -4 -30 -11 -30 -16 0 -11 22 -16
139 -28 51 -6 100 -16 109 -23 13 -11 14 -10 10 2 -2 8 -14 16 -26 18 -13 2
-20 8 -16 14 5 8 1 9 -10 5 -25 -10 -190 4 -174 14 7 5 23 9 36 9 27 0 29 16
2 23 -11 3 -18 1 -15 -3z"/>
<path d="M313 236 c2 -19 8 -41 15 -49 10 -11 7 -16 -16 -26 -23 -10 -25 -9
-10 2 10 8 15 17 11 20 -3 4 -13 -2 -20 -13 -8 -11 -18 -18 -23 -15 -4 3 -11
-2 -14 -10 -4 -13 -2 -14 12 -6 12 7 22 5 34 -6 17 -15 18 -15 19 3 0 11 3 14
6 6 3 -7 0 -19 -7 -26 -9 -12 -2 -14 40 -12 27 2 48 1 45 -2 -3 -3 0 -11 6
-19 6 -7 8 -13 3 -13 -5 0 -2 -4 6 -10 8 -5 11 -12 7 -17 -4 -4 -17 -2 -27 5
-11 7 -23 12 -27 12 -5 0 -1 -5 7 -10 9 -6 10 -10 3 -10 -6 0 -15 4 -18 10
-10 16 -23 11 -21 -7 2 -13 11 -17 32 -16 28 2 28 2 -6 -11 l-35 -14 41 2 c23
0 40 4 37 9 -2 4 0 7 6 7 5 0 13 -4 16 -10 3 -5 11 -10 16 -10 6 0 8 4 5 9
-11 17 30 54 60 56 42 2 43 -28 1 -47 -18 -8 -25 -12 -17 -10 8 2 29 6 45 9
23 4 27 2 15 -6 -8 -6 -10 -11 -5 -11 6 1 19 7 29 15 11 8 39 15 62 15 24 0
46 5 49 11 4 6 1 10 -6 8 -25 -3 -39 1 -39 11 0 6 7 10 16 10 11 0 14 5 10 17
-4 9 -1 20 6 24 10 7 10 11 0 21 -10 10 -15 10 -22 -2 -7 -10 -10 -11 -10 -2
0 6 -10 12 -22 12 -21 0 -21 0 -2 -15 19 -14 19 -14 -1 -15 -16 -1 -14 -4 10
-15 20 -9 24 -14 12 -14 -11 -1 -17 -7 -15 -18 2 -12 -3 -17 -14 -15 -9 1 -19
-2 -23 -8 -10 -16 -31 -11 -32 8 -1 15 4 17 26 14 19 -3 30 1 34 12 4 9 2 16
-3 16 -6 0 -10 -4 -10 -10 0 -5 -21 -8 -47 -5 -27 2 -52 4 -58 5 -5 0 3 7 19
15 33 18 39 19 31 5 -3 -5 -2 -10 4 -10 5 0 16 -3 25 -6 9 -3 16 -1 16 5 0 6
-7 11 -15 11 -14 0 -14 3 -1 23 19 28 20 38 7 46 -6 4 -12 17 -14 29 -6 41
-22 37 -16 -4 0 -4 -5 -11 -13 -15 -7 -5 -8 -9 -3 -9 6 0 10 -11 10 -24 0 -16
-3 -21 -10 -15 -5 5 -14 9 -20 9 -5 0 -3 -5 5 -10 12 -7 12 -12 2 -22 -14 -14
-43 -1 -50 23 -3 11 -1 11 7 -1 9 -13 11 -13 11 3 0 9 -4 17 -10 17 -5 0 -7 6
-4 14 3 8 1 17 -5 20 -12 8 -44 -61 -35 -75 3 -5 0 -9 -6 -9 -6 0 -8 -4 -5
-10 3 -5 2 -10 -4 -10 -5 0 -13 5 -16 10 -3 6 -2 10 4 10 5 0 8 12 7 28 -2 15
-4 38 -5 52 -1 19 -4 21 -10 11 -5 -8 -8 -27 -6 -42 4 -25 -12 -38 -47 -39
-20 0 -5 30 15 31 21 1 21 1 -3 9 -21 7 -22 8 -5 10 19 1 19 2 2 9 -22 8 -24
20 -5 33 8 5 2 6 -17 2 l-30 -7 19 22 c11 11 14 21 8 21 -7 0 -12 7 -12 15 0
8 -4 15 -10 15 -5 0 -8 -15 -7 -34z m178 -143 c-11 -5 -11 -7 0 -14 11 -7 10
-9 -3 -9 -10 0 -25 -12 -33 -27 -14 -23 -15 -24 -12 -6 3 12 0 24 -7 27 -6 2
-3 5 6 5 11 1 15 6 12 16 -5 11 1 15 22 14 16 0 23 -3 15 -6z"/>
<path d="M2816 261 c-9 -14 4 -41 19 -41 15 0 28 27 19 41 -3 5 -11 9 -19 9
-8 0 -16 -4 -19 -9z"/>
<path d="M2268 223 c18 -2 45 -2 60 0 15 2 0 4 -33 4 -33 0 -45 -2 -27 -4z"/>
<path d="M121 184 c6 -8 8 -14 3 -14 -5 0 -1 -5 9 -11 9 -6 15 -14 12 -20 -3
-5 0 -6 8 -3 23 8 9 51 -19 57 -20 3 -22 2 -13 -9z"/>
<path d="M2880 173 c8 -18 8 -23 -2 -23 -16 0 28 -38 71 -62 26 -14 31 -23 31
-53 0 -19 5 -35 10 -35 12 0 13 58 3 126 l-8 49 -5 -48 -5 -49 -40 39 c-22 21
-46 47 -53 58 -11 18 -12 18 -2 -2z"/>
<path d="M95 161 c-3 -6 -26 -11 -51 -11 -42 0 -56 -11 -32 -26 7 -4 8 -3 4 4
-5 8 1 12 16 12 18 0 20 -2 8 -10 -12 -8 -9 -10 13 -10 19 0 26 4 21 12 -4 7
-3 8 4 4 7 -4 12 -2 12 4 0 7 9 9 23 5 12 -3 18 -3 12 2 -5 5 -13 12 -16 16
-4 5 -10 4 -14 -2z"/>
<path d="M80 120 c-8 -5 -23 -11 -33 -14 -10 -3 -15 -10 -12 -16 3 -5 1 -10
-4 -10 -6 0 -11 8 -11 18 -1 16 -1 16 -11 -1 -6 -10 -9 -20 -6 -23 2 -2 37 0
76 6 40 6 76 8 80 5 5 -2 32 -5 60 -6 39 -2 51 -6 47 -16 -4 -11 -1 -11 15 -3
11 6 35 11 52 10 56 -3 63 0 37 14 -14 7 -29 9 -34 5 -5 -4 -18 -3 -30 3 -13
7 -21 7 -23 1 -3 -7 -26 -6 -69 3 -45 10 -71 11 -84 4 -24 -13 -50 -13 -50 0
0 6 12 10 26 10 14 0 23 4 19 10 -7 12 -24 12 -45 0z"/>
<path d="M2786 111 c-12 -13 -15 -27 -11 -41 4 -11 2 -27 -4 -33 -6 -8 -6 -18
-1 -27 8 -12 10 -10 10 8 0 16 6 22 23 22 20 1 20 2 5 11 -25 14 -23 56 2 64
26 8 53 -13 45 -34 -5 -12 -3 -13 5 -5 18 18 -5 54 -34 54 -13 0 -31 -9 -40
-19z"/>
<path d="M2121 98 c-1 -16 -4 -28 -8 -28 -5 0 -13 -11 -19 -25 -14 -30 -3 -41
45 -44 40 -2 38 8 -2 11 -14 1 -24 5 -21 9 2 4 -2 10 -8 12 -9 4 -7 6 3 6 20
1 48 31 30 31 -7 0 -10 3 -8 8 3 4 1 16 -4 27 -7 17 -8 17 -8 -7z"/>
<path d="M721 50 c-1 -35 2 -51 9 -44 6 6 6 26 1 54 l-9 45 -1 -55z"/>
<path d="M840 65 c0 -9 -4 -13 -10 -10 -5 3 -10 2 -10 -4 0 -5 6 -12 13 -14
10 -4 10 -6 0 -6 -28 -2 -11 -21 18 -21 17 0 28 4 24 10 -3 6 1 7 9 4 9 -4 16
-1 16 6 0 10 3 10 15 0 8 -7 15 -8 15 -3 0 5 16 8 35 8 19 -1 35 2 35 6 0 5 7
6 15 3 8 -4 15 -1 15 5 0 12 -42 15 -54 4 -14 -14 -91 -9 -98 7 -5 12 -7 12
-7 -2 -1 -10 -6 -18 -12 -18 -6 0 -9 7 -6 15 4 8 2 17 -3 20 -6 4 -10 -1 -10
-10z"/>
<path d="M105 60 c8 -13 35 -13 55 0 11 7 5 10 -23 10 -23 0 -36 -4 -32 -10z"/>
<path d="M1044 61 c-14 -14 1 -18 38 -9 57 12 60 18 9 15 -23 -1 -44 -4 -47
-6z"/>
<path d="M2341 42 c-8 -18 -11 -35 -7 -39 3 -3 6 2 6 13 1 18 1 18 11 2 5 -10
15 -18 21 -18 7 0 6 5 -2 15 -10 12 -10 15 4 15 9 0 16 -7 16 -15 0 -8 5 -15
11 -15 6 0 8 7 5 16 -3 9 -6 18 -6 20 0 2 -9 4 -19 4 -11 0 -21 8 -23 18 -2
12 -7 8 -17 -16z"/>
<path d="M3 47 c2 -7 21 -12 46 -11 22 0 41 -3 41 -8 0 -4 -20 -8 -45 -8 -25
0 -45 -5 -45 -11 0 -6 8 -8 18 -5 9 2 41 8 70 11 47 6 51 9 35 20 -26 17 -126
28 -120 12z"/>
<path d="M166 38 c2 -3 -2 -9 -8 -11 -7 -3 -1 -6 14 -6 15 -1 30 -6 33 -11 7
-12 62 -13 69 -2 12 20 -15 37 -63 37 -27 0 -47 -3 -45 -7z"/>
<path d="M604 9 c-12 -5 -1 -7 29 -7 26 1 50 5 53 10 6 10 -55 8 -82 -3z"/>
</g>
</svg>
