<svg version="1.0" xmlns="http://www.w3.org/2000/svg" width="1365.333" height="765.333" viewBox="0 0 1024 574"><path d="M609.6 96.1c-29.5 3.1-57.5 19-75.4 42.9-6.3 8.3-16.2 26.6-16.2 29.9 0 3-1.5 3.4-8.3 2.1-5.1-1-7.2-.9-11.9.3-5 1.4-6.2 1.4-10.5.1-2.6-.8-5.8-1.2-7.1-.9-1.2.3-6.1 4.1-11 8.3-33 29.6-63.8 51.5-100.6 71.6-21.8 12-53.6 26.6-57.5 26.6-.9 0-2.5-.7-3.5-1.5-1.1-.8-3.5-1.5-5.4-1.5-4 0-16.9 5.9-19.6 8.9-1.2 1.3 1 .5 6.8-2.4 9-4.7 13.3-5.4 17.5-3.1 2.2 1.2 1.8 1.5-8.5 5.9-23 9.6-58.8 22-74.5 25.7l-9.5 2.3-2.7-2.7c-3.1-3.1-6.8-3.4-13.8-.9-4 1.5-5.2 1.5-6.7.5-.9-.7-2.9-1.8-4.4-2.5-2.4-1.1-2.5-1.4-1.3-3.7 1.6-3.1.7-5.1-3.9-7.9-4-2.5-10.7-2.8-14-.6-4.3 2.8-6.9 2.7-12.2-.7-2.7-1.8-7.1-4.2-9.8-5.5-3.9-1.9-4.7-2.7-4.3-4.3.3-1.1-.3-5.2-1.3-9.2-1.6-6.3-2.5-7.8-6.1-10.9-3.9-3.5-4.7-3.7-13.8-4.5-8.5-.8-9.6-1.1-9.9-2.9-.2-1.1-1.7-2.7-3.5-3.5-4.3-2-4.8-5.9-1.1-9.3 2.2-2 2.5-3 2-5.4-.4-1.5-1.1-5.1-1.6-7.8-1.1-5.8-4.2-8.9-10.5-10.6-2.2-.6-5.4-2.4-7.2-4-3.6-3.1-6.5-3.2-12.8-.4-6 2.6-9 3.1-13 2.2-2.2-.5-5.2-.8-6.7-.8-2.4 0-2.8-.4-2.8-2.9 0-1.9-.5-3-1.4-3-2 0-7.6-6.9-6.9-8.6.9-2.4-8.6-11.3-15.6-14.5-3.6-1.6-7.3-3.4-8.1-3.8-.8-.5-2.7-.4-4.2.1-2.4.9-3.1.6-5.3-2.1-2.8-3.3-8.9-5.1-10.7-3.3-.7.7 0 1.3 2.4 1.7 2 .4 4.9 1.9 6.5 3.3 2.6 2.4 2.8 3.3 2.7 8.2-.1 3-.5 7.6-.9 10.2-.7 4.1-.5 4.8.9 4.8 1.6 0 1.8-1.1 2-14.5.1-4.8 1.3-5.8 5.8-5.1 4.2.7 16.2 6.6 18.8 9.3 1.3 1.4 1.2 1.5-1 .8-4.8-1.4-9-1.7-9-.7 0 .6 2.6 1.6 5.8 2.2 6.4 1.4 8.2 2.4 8.2 5 0 1 1.5 3.8 3.4 6.3 1.9 2.4 3.7 5.3 4 6.5.4 1.1 1.6 2.2 2.6 2.5 2.3.6 2.7 3.7.5 3.7-.8 0-2.2-.8-3.2-1.9-1-1-3.6-2.2-5.8-2.5-3.2-.6-4.3-1.3-5.4-3.6-1.9-4.4-6.8-6.3-13.8-5.5-3.2.3-7.7.6-10 .7-2.4 0-4.3.4-4.3.9 0 1.7 5.5 2.2 11.2 1 5.2-1.1 6.3-1 10.2.8 3.5 1.5 4.5 2.5 4.8 4.7.2 2.4.8 2.9 3.3 3 2.8.1 7.8 2 11.5 4.3 1.7 1.1 6.2 2.3 17.9 5 9 2.1 11.7 3.8 12.6 8.1.3 1.5 1.5 3.6 2.7 4.6 3.2 3 4.5 6.6 4.2 11.4-1 14.3-.2 19.7 3.6 23.2 1.4 1.4 1.9 2.6 1.4 4.1-.9 3.2-1.5 3.6-7.5 5.2-10.2 2.8-11.5 2.9-14.7.6-3.7-2.6-4-2.6-7.2-.1-1.4 1.1-3.8 2-5.5 2-2.6.1-2.8.2-1.2 1.1 1.4.8 3 .7 6.2-.6 4.1-1.5 4.6-1.5 6.9.1 2 1.2 3.7 1.5 7.1.9 5.4-.8 15.2-4 17.1-5.6 2.1-1.8 1.7-6.3-.9-9.1-3.6-3.9-5.3-11-3.7-15.8 1.8-5.3.5-12.4-3-16.9-1.5-2-3.1-4.8-3.4-6.4-.8-3.6-3.8-6.5-7.3-7.2-1.6-.3-4.1-1-5.8-1.6-1.6-.6-4.5-1-6.4-1-4.5.2-8.1-2.3-8.1-5.5 0-2.3.3-2.5 2.3-1.9 4.2 1.4 9.5 1.7 10.1.6.4-.6 2.4-1.1 4.6-1.1 2.4 0 4-.5 4.4-1.5.9-2.6 5.6-1.8 8.6 1.5 1.5 1.6 3.5 3 4.3 3 .9 0 1.9.5 2.2 1.1.4.6 1.4.8 2.2.4 2-.7 6.3 2.1 6.3 4 0 .8.5 1.5 1.1 1.5.7 0 .9 1 .7 2.5-.3 1.3-.1 2.6.4 2.7 2.2.8 1.5 5.9-1.3 9.5-1.6 2-2.9 3.8-2.9 4 0 1.7 3.3 6.1 5.4 7.3 1.5.7 2.9 2.4 3.2 3.7.4 1.3.9 2.2 1.2 1.9.2-.3 1.3.9 2.2 2.7.9 1.7 4.1 5.1 7.1 7.4 4.5 3.6 5.9 4.2 8.7 3.8 3.7-.7 3.6-.9 1.7 7-1.8 7.5-1.8 7.5 0 7.5.8 0 1.5.4 1.5.8s2.6.7 5.8.5c6.6-.3 11.1.9 15 4.2 1.5 1.2 3.6 2.5 4.7 2.7 1.9.5 1.9.5.1 1.3-1.7.8-7.3-.1-13.3-2-1.5-.5-2.3-.3-2.3.4 0 1.7 6.3 4.1 10.8 4.1 4.1 0 13.5-2.8 18.8-5.7 3-1.5 3.3-1.5 7.8.7 5.3 2.5 6.5 4.3 4.8 7.1-1.7 2.7-1.5 3.7 1.1 4.4 1.2.4 3.2 1.7 4.5 2.8 2.2 2.1 2.4 2.1 9 .4 3.7-.9 7.6-1.7 8.7-1.7 2.3 0 4.5 1.8 4.5 3.5 0 1.1-32.6 10.9-40 12.1-5.4.9-20.2-3.1-44.5-11.9C81.4 295.4 70.8 292 65.3 292c-2.9 0-15.8 2.5-28.6 5.5C4.2 305 0 306.1 0 307.1c0 .4 1.2.4 2.8-.1 1.5-.5 14.4-3.8 28.7-7.2 28.9-6.9 36.1-7.6 45.5-4.4 3 1 20.8 7.4 39.5 14.1 18.7 6.7 36.5 12.8 39.5 13.4 6.9 1.6 8.4 2 7.9 2.5-1 1.1-87.5 19.7-95.9 20.7-14.8 1.8-28.8.6-49.4-4-9.9-2.2-18.2-3.8-18.5-3.6-.7.8-.2.9 11.4 3.4 6.1 1.2 15.1 3.1 20 4.2 11.8 2.5 31.3 2.5 45 0 26.4-4.7 98.3-21.7 125.5-29.6 10.2-2.9 23-6.5 28.5-8 29.5-7.8 86.7-30.4 121-47.8 46-23.3 81.3-47.5 117.7-80.5 10.7-9.7 10.7-9.7 17.3-7.6 4.8 1.5 6.2 1.6 10.2.6 3.2-.9 8.2-1.1 16.2-.6l11.6.7 6.7 6.3c22.2 20.9 69.4 56.3 98.4 74 20.4 12.4 59.6 30.8 87.4 41.2 7.4 2.8 21.4 7.3 31 10.2 9.6 2.8 28.1 8.3 41 12.1 49.6 14.8 88 23.4 134.5 29.9 8.3 1.2 22 3.5 30.5 5.1 9.2 1.8 23.3 3.6 34.7 4.4 17 1.3 20.1 1.8 26.9 4.4 8.5 3.3 11.6 3.4 4 .1-8.6-3.7-15-4.8-31.7-5.9-10.4-.6-22.3-2.2-32-4.1-8.5-1.6-24.8-4.3-36.4-6-11.5-1.7-25.7-3.9-31.5-5-12.8-2.5-33.9-7-36-7.7-1.7-.6 13-6.5 21.7-8.8 10.7-2.8 16.4-2.1 29.3 3.6 18 8 16.2 7.6 20.2 4.6 6.3-4.8 12.3-6.8 22.4-7.4 9.5-.6 9.5-.6 17.2-5.9 22.9-15.8 43.1-24.3 57.5-24.4 2 0 3.7-.4 3.7-.8 0-1.2-13.5.6-21.1 2.8-8.5 2.6-24.7 10.6-32.9 16.4-13.5 9.5-14.8 10-24 10.7-11.1.8-15.7 2.2-21.8 6.4l-5 3.4-13.6-6c-11.8-5.3-14.4-6.1-19.8-6.1-7.5 0-16.1 2.1-27.7 6.8-4.7 1.9-9.4 3.4-10.5 3.4-3.3 0-38.5-9.3-56.1-14.8-8.8-2.8-23.4-7.2-32.5-9.7-16.8-4.8-44.1-13.9-52.5-17.5l-4.7-2 4.9-5.4c6.4-7 11-14 16.6-25.1 15.5-31.1 15.6-68.6.1-99.4-16.7-33.4-49.1-56.6-85.4-61.1-9.5-1.1-16.9-1.1-28.4.1zm33.5 3.4c40.8 7.1 74.6 38.3 85.6 79 2.5 9.2 2.7 11.5 2.7 28.5 0 15.8-.4 19.6-2.2 26.3-5 18.1-14.1 35.6-24.7 47.3l-5 5.5-17.5-7.9c-31.4-14.2-46.3-22.3-70.1-38.3-28.4-19.1-61.3-44.7-78.8-61.1-6.9-6.5-8.8-7.8-10.7-7.4-3.5.9-3.1-.8 3.1-13.1 13.8-27.4 35.5-46.2 64-55.4 14.7-4.7 37.8-6.2 53.6-3.4zM126.2 261.3c6.6.8 12.7 10.4 12.8 19.9 0 4.9-.3 5.8-1.7 5.8-1 0-2.9.3-4.2.7-2.2.6-2.3.4-1.7-2.8.4-1.9 1-5.5 1.3-8.2l.5-4.7h-3.5c-2 0-4.6-.9-6.2-2.2-1.6-1.2-4.2-2.9-5.8-3.8-1.7-.8-3.7-2.6-4.6-3.9l-1.5-2.4 5.9.6c3.3.4 7.2.8 8.7 1z"/><path d="M124.2 165.9c-9.5 4-11.8 5.3-14 8.4-.7.9-2.6 2.4-4.3 3.2-3 1.6-6.9 8-6.9 11.5 0 2.8-1.7 2.5-2.4-.5-.4-1.4-1.6-3.1-2.9-3.9-4.7-3.2-24.1 3.4-27.1 9.2-1 1.9-2.8 3.1-5.8 4-5.2 1.5-9.8 5.4-9.8 8.2 0 2.7 1.8 2.5 2.2-.2.5-3.3 5.7-5.8 12.3-6 5.4-.2 5.6-.2 3.6-1.7-1.9-1.5-2-1.8-.7-3.7 1.9-2.7 12-7.2 17.9-8 3.7-.5 4.8-.3 6.6 1.5 1.1 1.1 2.1 3 2.1 4.1 0 1.1.6 2 1.3 2 3.5 0 8.9 2.4 11.6 5.2 1.7 1.7 3.4 2.8 3.8 2.5 1-1.1-4.8-6.8-8.4-8.3-3.7-1.6-3.7-1.8-2.2-6.5 1.5-4.3 4.7-7.9 7.1-7.9 1 0 2.4-1.1 3-2.5 1.5-3.4 5.9-5.9 16.3-9.6l8.8-3 5.4 1.7c7.8 2.5 10.6 4.9 10 8.8-.3 1.7-.8 3.8-1.2 4.8-.5 1.2.8 2.5 4.9 5.3 10.3 6.8 11.9 11.3 6.5 19.1-3 4.4-3.1 6.4-.2 6.4.9 0 1.3-.6 1-1.4-.3-.8.5-3.1 1.9-5.1 2.6-3.9 3.1-8.9 1.3-12.9-.7-1.4-3.8-4.4-7.1-6.6-5.6-4-5.8-4.3-5.2-7.6 1-5.6-.1-7.8-5.5-10.8-8.2-4.4-13-4.3-23.9.3zM159.8 212.6c-.5.4-.8 2.9-.8 5.6 0 2.6-.3 4.8-.7 4.8-1.3 0-7.6 4.1-7.1 4.6.3.2 2.6-.4 5.1-1.5 3.5-1.5 5.3-1.8 7.4-1.1 1.6.5 6.7 1.1 11.5 1.3 11.7.4 14.3 2.7 15.7 13.3.7 4.8.6 5.4-1.1 5.4-1.4 0-1.8.8-2 3.7 0 2.1-.2 4.2-.3 4.8-.2.5-.3 1.7-.4 2.6 0 .9-1 1.9-2.1 2.2-2.4.6-2.7 2.7-.3 2.7.9 0 2.7 1 4 2.2 1.8 1.7 3.4 2.1 6.3 1.9 3.2-.2 4.5.3 7.6 3.1 2.6 2.5 3.6 4.2 3.6 6.4 0 1.7 1.6 5.4 4 9.1 3.9 6.2 5.1 7.2 6.2 5.4.3-.4 2.3-1.1 4.3-1.4 5.1-.9 8.3-3.3 8.3-6.3 0-1.9-.5-2.4-2.4-2.4-5.1 0-7-5.6-4.1-12.5.8-2 .8-2-1.3-.1-1.2 1.1-2.2 2.5-2.2 3.1 0 .7-.9 2.4-2.1 3.9-1.9 2.4-1.8 3.1.5 2.7.5-.1 1.6.5 2.5 1.3.9.8 2.8 1.9 4.4 2.5 1.5.6 2.7 1.7 2.7 2.5 0 2.1-3.7 3.9-6.5 3.2-1.3-.3-2.7-.2-3 .4-1.1 1.8-2.4 1-5.5-3.4-1.9-2.9-3-5.7-3-8 0-6-6.6-11.6-13.8-11.6-5.6 0-6.9-1.9-5.3-7.3.7-2.3 1.4-5.2 1.4-6.5.1-1.2.8-2.2 1.4-2.2.7 0 1.9-1.6 2.7-3.5 1.5-3.5 4.1-4.8 9.8-4.8 3.3 0 6.8 2.8 6.8 5.6 0 1.8.5 1.9 8.3 1.2 12.4-1 18.9 2.4 19.1 10.1.2 4.6 1.5 5.5 13.6 9.4 10.3 3.3 12.1 4.6 16.4 12 4.8 8.2 5.8 11 4.5 12.6-.6.8-.9 1.8-.5 2.2 1 .9 3.6-2.7 3.6-5 0-2.6-3.5-9.2-8.1-15.5-3.1-4.2-4.8-5.4-8.2-6.3-14.1-3.7-18.7-5.9-18.7-9.3 0-3.9-4.6-9.4-9.5-11.2-4.3-1.7-12.4-1.6-16.9.1-1.1.4-1.6 0-1.6-1.3 0-2.4-2.4-4.8-6.3-6.2-2.7-1-6.9-.5-12.2 1.5-.9.4-1.8-.8-2.6-3.6-.7-2.3-2.9-6-4.9-8.2-3-3.5-3.9-3.9-5.5-3.1-2.1 1.1-16.4.2-19.7-1.2-1.2-.5-1.8-2.1-2-5.7-.2-2.7-.6-4.6-1-4.2zM517 217.3c0 .4 1.5 3.8 3.4 7.5 10.8 21.3 31.7 42.4 74.9 75.5 5.6 4.3 14.3 10.2 19.3 13.2 10.2 6.1 15.8 8.5 7.4 3.2-18.2-11.6-22.4-14.4-29.2-20-4.2-3.4-14.1-11.4-22-17.8-23.4-19.1-40.5-37.9-49.7-54.9-2.2-4.1-4.1-7.2-4.1-6.7zM445.8 225.3c-6 8.2-32.3 36.9-40.1 43.9-19.4 17.3-34.8 28-53.2 36.9-6.6 3.3-12.6 5.9-13.2 5.9-.7 0-1.3.5-1.3 1.1 0 3.6 29.2-11.8 46.5-24.5 21.1-15.7 49.5-44.5 63.4-64.4 3.8-5.4 1.9-4.5-2.1 1.1zM541.2 227.4c4.2 6.2 26.4 29.3 38.7 40.3 9.1 8.1 42.3 33.8 46.9 36.2 1.2.6 4.8 3.3 8 5.8 3.1 2.6 5 3.9 4.2 2.9-.8-1-12.7-10.3-26.5-20.6-13.7-10.3-30.2-23.5-36.5-29.2-10.5-9.6-28.2-28.1-35.3-36.8-2.2-2.7-2.1-2.4.5 1.4zM575.8 225.3c4 4.9 37.6 28.6 58.4 41 12.9 7.8 44.7 24.7 46.4 24.7.5 0-5.4-3.3-13.1-7.3-29.2-15.2-60.3-34.9-84.5-53.6-4.7-3.6-7.9-5.8-7.2-4.8zM460.9 227.7c-1.3 1.6-1.2 1.7.4.4.9-.7 1.7-1.5 1.7-1.7 0-.8-.8-.3-2.1 1.3zM558 226.4c0 .2.8 1 1.8 1.7 1.5 1.3 1.6 1.2.3-.4s-2.1-2.1-2.1-1.3zM488.2 232c0 1.9.2 2.7.5 1.7.2-.9.2-2.5 0-3.5-.3-.9-.5-.1-.5 1.8zM567.5 234.5c15.3 14.4 45.5 35 73.5 50 8 4.3 25.1 13.5 38 20.6 12.9 7 30.5 16.2 39 20.3 15.4 7.4 52.9 23 53.6 22.3.2-.2-7.1-3.4-16.4-7.2-23.2-9.4-42.8-18.7-62.2-29.2-9.1-5-27.1-14.8-40-21.8-41.9-22.7-55.6-31.7-87-57-3.1-2.6-2.7-2 1.5 2zM454.3 236.2c-5.4 6.7-16.5 17.6-22.3 22-1.9 1.4-3.2 2.9-2.9 3.2 1.4 1.5 21.6-18.4 29-28.7 3.6-4.9 1.4-2.8-3.8 3.5zM509 230.2c0 2.4 11.1 32.3 15.1 40.6 7.1 15 19.1 32 33.9 48.2 6 6.5 3.7 2.7-3.4-5.5-20.9-24.4-29.6-39.4-40.1-69.6-4.1-12-5.5-15.4-5.5-13.7zM411.9 232.7c-1.3 1.6-1.2 1.7.4.4 1.6-1.3 2.1-2.1 1.3-2.1-.2 0-1 .8-1.7 1.7zM417.3 240.8c-11.2 9.8-18.4 15.2-29.8 22.9-8.8 5.8-30.5 18.3-37.5 21.5-2.1 1-2.8 1.7-1.7 1.7 4.9.2 38.7-20 55.2-33 10.1-8 24.5-20.8 23.4-20.9-.3 0-4.6 3.5-9.6 7.8zM402.6 239.2c-12.8 9.4-47 32.5-59.1 39.8-18.5 11.3-32.3 18.2-52.5 26.4-18.5 7.4-42 18.1-42 19.1 0 .7 3.6-.9 18.3-8 6.5-3.1 16-7.1 21-9 26.4-9.5 49.4-22.2 85.2-46.8 26.6-18.3 38.4-27 36.3-26.7-.2.1-3.4 2.4-7.2 5.2zM485.1 252.4c-5 36.6-11.7 63.3-18.6 74.7-3.6 5.7-4.2 7.5-2.6 6.5 1.8-1.2 7-11.5 10-20 4.8-13.7 14.9-68.7 13.9-75.8-.2-1.3-1.4 5.3-2.7 14.6zM473.2 239.5c0 1.6.2 2.2.5 1.2.2-.9.2-2.3 0-3-.3-.6-.5.1-.5 1.8zM504.2 243.5c0 1.1.4 3.3.8 5 .7 2.7.8 2.7.8.5 0-1.4-.4-3.6-.8-5-.6-2-.8-2.1-.8-.5zM469.8 253.9c-2.9 11.7-13.9 43.9-19.6 57.1-3.6 8.6-11.9 23.7-15 27.6-.9 1.1-.1.4 1.8-1.7 7.2-7.5 18.4-32.5 28.3-63.4 4.5-14.1 7.9-27.1 7.5-28.9-.2-.7-1.5 3.4-3 9.3zM525.3 248.7c.3.5 3.4 6 7 12.4 9.1 16.3 12.3 21.2 20.9 31.4 16.2 19.3 42.1 42.1 55.6 49 4.7 2.3 5.1 1.2.5-1.5-9.7-5.7-24.8-17.5-35.2-27.5-18.6-18-27.5-29.4-42.5-54.8-3.2-5.3-6-9.7-6.3-9.7-.2 0-.2.3 0 .7zM494.3 256c0 4.1.2 5.8.4 3.7.2-2 .2-5.4 0-7.5-.2-2-.4-.3-.4 3.8zM576 250.7c0 1.2 10.7 11.4 23.5 22.4 30.8 26.3 61.7 48.8 80.5 58.7 13.5 7 32.6 14.5 29.8 11.6-.4-.3-6.9-3.4-14.5-6.8s-18.1-8.7-23.3-11.8c-23.2-13.7-64.2-45.3-89.7-69.2-3.5-3.2-6.3-5.4-6.3-4.9zM506.2 254.5c0 1.6.2 2.2.5 1.2.2-.9.2-2.3 0-3-.3-.6-.5.1-.5 1.8zM457.6 254.5c-.9 2.6-.7 3.2.5 1.2.6-1 .9-2.1.6-2.3-.2-.3-.7.2-1.1 1.1zM507.2 260c0 1.4.2 1.9.5 1.2.2-.6.2-1.8 0-2.5-.3-.6-.5-.1-.5 1.3zM508.1 265.6c0 1.1.3 1.4.6.6.3-.7.2-1.6-.1-1.9-.3-.4-.6.2-.5 1.3zM515 265.5c0 .5.5 1.7 1 2.5s1 1 1 .5c0-.6-.5-1.7-1-2.5s-1-1.1-1-.5zM492.7 278.7c-1.1 22.8-8.4 44.7-21.2 63.9-3.7 5.6-4 6.2-1.3 3.2 4.9-5.4 9.7-13.8 14-24.6 6.3-15.6 8.9-26.9 9.5-42 .3-7.2.4-13.2.1-13.2-.3 0-.8 5.7-1.1 12.7zM473.1 268.6c0 1.1.3 1.4.6.6.3-.7.2-1.6-.1-1.9-.3-.4-.6.2-.5 1.3zM509.1 269.6c0 1.1.3 1.4.6.6.3-.7.2-1.6-.1-1.9-.3-.4-.6.2-.5 1.3z"/><path d="M532 269.3c-.1 2.6 9.1 16.4 22.9 34.2 8.5 11 29.9 33.8 33.5 35.7 1 .5-3.3-4.1-9.6-10.3-13.2-13.3-39.1-45.9-44.6-56.4-1.2-2.2-2.1-3.6-2.2-3.2zM517 270.5c0 .5.5 1.7 1 2.5s1 1 1 .5c0-.6-.5-1.7-1-2.5s-1-1.1-1-.5zM468.1 288.2c-2.4 9.5-5.5 20.8-6.8 25.1-1.4 4.4-2.2 8.1-1.9 8.4.9.9 14-47.9 13.4-49.8-.2-.6-2.3 6.7-4.7 16.3zM252 274.5c0 .4 3.8 4.5 8.5 9 4.7 4.6 8.5 7.8 8.5 7.1 0-.6-2.8-3.9-6.2-7.2-7.9-7.5-10.8-9.9-10.8-8.9zM511.2 276c0 .8.8 3.7 1.8 6.5 1 2.7 1.8 4.3 1.8 3.5 0-.8-.8-3.8-1.8-6.5-1-2.8-1.8-4.3-1.8-3.5zM519 275.4c0 1 6 12.6 6.5 12.6.3 0-.9-2.8-2.6-6.3-3.3-6.5-3.9-7.5-3.9-6.3zM367 283.7c-11 6.7-57.5 29.3-72.5 35.3-7.1 2.9-13.4 5.7-14 6.2-1.5 1.4 17.3-5.6 27.9-10.3 20.4-9.2 66.6-33.8 66.6-35.5 0-.6.1-.7-8 4.3zM442.2 286.5c-1.7 3.6-3 6.5-2.7 6.5.7 0 6.7-12.1 6.3-12.6-.2-.2-1.8 2.6-3.6 6.1zM527.1 291.2c2.4 4.8 15.3 25.4 16.6 26.8.8.8-1.6-3.5-5.3-9.5-3.7-6.1-7.9-12.9-9.2-15.3-2.4-4.3-4.2-6-2.1-2zM685 293c1.9 1.1 4 1.9 4.5 1.9.6 0-.6-.8-2.5-1.9-1.9-1.1-3.9-1.9-4.5-1.9-.5 0 .6.8 2.5 1.9zM517 294.8c0 5.2 25.4 54.5 29.3 56.9.7.4.3-.6-.7-2.2-8.2-12.4-21.7-38.5-25.6-49.3-2.1-5.8-3-7.4-3-5.4zM386 305.7l-5.5 5.8 5.8-5.5c3.1-3 5.7-5.6 5.7-5.7 0-.8-1 .1-6 5.4zM706 302c.8.5 2 1 2.5 1 .6 0 .3-.5-.5-1s-1.9-1-2.5-1c-.5 0-.3.5.5 1zM662 302.4c0 .3.9 1 2 1.6 1.1.6 2 .8 2 .6 0-.3-.9-1-2-1.6-1.1-.6-2-.8-2-.6zM431.5 307c-.9 1.6-1.3 3-1.1 3 .3 0 1.2-1.4 2.1-3 .9-1.7 1.3-3 1.1-3-.3 0-1.2 1.3-2.1 3zM667 305.4c0 .3.9 1 2 1.6 1.1.6 2 .8 2 .6 0-.3-.9-1-2-1.6-1.1-.6-2-.8-2-.6zM427.5 314c-.9 1.6-1.3 3-1.1 3 .3 0 1.2-1.4 2.1-3 .9-1.7 1.3-3 1.1-3-.3 0-1.2 1.3-2.1 3zM677 311.4c0 .3.9 1 2 1.6 1.1.6 2 .8 2 .6 0-.3-.9-1-2-1.6-1.1-.6-2-.8-2-.6zM642.5 316c1 1.1 2 2 2.3 2 .3 0-.3-.9-1.3-2s-2-2-2.3-2c-.3 0 .3.9 1.3 2zM682 314.4c0 .3.9 1 2 1.6 1.1.6 2 .8 2 .6 0-.3-.9-1-2-1.6-1.1-.6-2-.8-2-.6zM373.4 317.2l-1.9 2.3 2.3-1.9c2.1-1.8 2.7-2.6 1.9-2.6-.2 0-1.2 1-2.3 2.2zM424 320c-.6 1.1-.8 2-.6 2 .3 0 1-.9 1.6-2 .6-1.1.8-2 .6-2-.3 0-1 .9-1.6 2zM689 318.4c0 .3.9 1 2 1.6 1.1.6 2 .8 2 .6 0-.3-.9-1-2-1.6-1.1-.6-2-.8-2-.6zM545 320.4c0 .2.8 1 1.8 1.7 1.5 1.3 1.6 1.2.3-.4s-2.1-2.1-2.1-1.3zM366.4 323.2l-1.9 2.3 2.3-1.9c1.2-1.1 2.2-2.1 2.2-2.3 0-.8-.8-.2-2.6 1.9zM694 321.4c0 .3.9 1 2 1.6 1.1.6 2 .8 2 .6 0-.3-.9-1-2-1.6-1.1-.6-2-.8-2-.6zM421 325c-.6 1.1-.8 2-.6 2 .3 0 1-.9 1.6-2 .6-1.1.8-2 .6-2-.3 0-1 .9-1.6 2zM779 324c.8.5 2 1 2.5 1 .6 0 .3-.5-.5-1s-1.9-1-2.5-1c-.5 0-.3.5.5 1zM548 324.4c0 .2.8 1 1.8 1.7 1.5 1.3 1.6 1.2.3-.4s-2.1-2.1-2.1-1.3zM701 325.4c0 .3.9 1 2 1.6 1.1.6 2 .8 2 .6 0-.3-.9-1-2-1.6-1.1-.6-2-.8-2-.6zM360.9 327.7c-1.3 1.6-1.2 1.7.4.4.9-.7 1.7-1.5 1.7-1.7 0-.8-.8-.3-2.1 1.3zM792 329c.8.5 2 1 2.5 1 .6 0 .3-.5-.5-1s-1.9-1-2.5-1c-.5 0-.3.5.5 1zM708 329.4c0 .3 1.4 1.2 3 2.1 1.7.9 3 1.3 3 1.1 0-.3-1.3-1.2-3-2.1-1.6-.9-3-1.3-3-1.1zM412.5 337.2c-2.7 3.5-4 5.5-2.9 4.5 2.1-1.8 8.8-10.7 8.1-10.7-.2 0-2.6 2.8-5.2 6.2z"/><path d="M247 334.1c-2.5.5-1.7.6 2.6.2 4.4-.3 8.2.1 13.5 1.6 8 2.2 12.4 2.9 35.4 6.1 20.3 2.8 30.4 4.7 40.4 7.6 9.5 2.8 17.8 3 26.6.9 7.2-1.7 14.7-1.9 19.5-.5 6.1 1.9 17.9 1.5 28.4-1 15.5-3.5 26.6-2.7 47.4 3.5l16.3 4.9 7-1.8c4.3-1.2 8.1-1.6 10.2-1.2 1.7.4 9.7 1.1 17.7 1.6 16.2.9 21.6 2.3 29.8 7.7 2.9 2 5.6 3.3 5.9 2.9.4-.3.1-.6-.5-.6-2.9 0-.8-2.3 4.1-4.6 3.6-1.6 10-3 19.8-4.4 7.9-1.1 18.5-2.7 23.4-3.5 5-.8 12-1.5 15.6-1.5 4.5 0 9.7-.9 16.2-2.9 7.1-2.2 13.6-3.3 24.4-4.2 20.4-1.7 22.8-1.6 30.8 1.4 16.4 6.1 19.2 6.5 45 5.7 6.7-.2 10.9.3 16.5 1.8 13.4 3.7 23.1 4.6 34.2 3.2 6.4-.8 13.8-1 21.1-.5 8.5.5 13.3.3 19.6-.9 9.4-1.8 30.8-2.1 36.1-.6 10.4 3 35.2 7.2 47.5 8 13.7.9 15.7 1.2 22.2 3.1l3.1 1-2.4 2.4c-1.3 1.3-3.1 2.2-4.1 2.1-1-.2-1.2-.1-.5.1.6.3 1.2 1.6 1.2 3 0 3 3.5 7.9 4.5 6.3.4-.6-.1-1.7-1-2.4-1.4-1-1.5-1.7-.6-3.4.6-1.2 1.1-2.5 1-2.9-.3-2.1.2-3.3 1.5-3.3 2.1 0 2.7 2.8 1.5 7-1 3.3-.9 4.3 1.2 7.9l2.3 4.2-2.9 2.3c-2.5 2-4.4 2.4-13 2.9-7.5.3-11.3 1-15 2.7-2.7 1.3-7.9 2.6-11.5 3l-6.5.7 6.1.2c4.5.1 7.7-.6 12.4-2.5 3.9-1.6 9.3-2.8 13.7-3.1l7.3-.6v3.1c0 1.7.5 3.4 1 3.7 1.8 1.1 1 2.5-1.4 2.5-2.7 0-5.3 2.4-3.6 3.5 1.8 1.1 0 2.5-3.4 2.5-2.3 0-4.8 1.1-8 3.6-6.3 4.8-10.5 6.4-16.8 6.4-4.9 0-21.8-3.7-34.8-7.5-7.7-2.3-18.1-1.4-32.4 2.9-10.5 3.1-21.2 8.5-23.1 11.6-.8 1.3-6.1 1.3-10.5 0-11.9-3.6-14.8-3.2-30.9 3.5-6.1 2.6-7.1 2.7-17 2.1-5.8-.3-12.4-.2-14.6.2-2.9.6-1 .8 6.7.7 9.6 0 13.1.6 11.6 2-.2.3-3.1 1-6.4 1.6-3.2.6-8.7 2.1-12.1 3.5-4.3 1.7-8.1 2.4-12.8 2.4-5.5 0-8.5.7-16.8 4.1-9.2 3.7-11 4.1-18.7 4.1-7.4 0-9.3.4-14.8 3l-6.3 3-9.1-1.6c-5.6-1.1-10.9-2.7-13.7-4.4-4.2-2.4-5.7-2.7-19.6-3.3-10.3-.4-16.3-1.1-19.2-2.2-10.5-4.1-12.8-4.8-18.4-5.4-3.3-.3-5.6-.9-5.2-1.3.4-.4 5.8-1.7 11.8-3 11.1-2.3 49.1-14.2 50.8-15.9.5-.5-5.3 1.1-12.9 3.6-11.2 3.7-38.6 11.1-51.3 13.9-1.6.3-2.2 1-1.8 2.3.3 1.4-.5 2.3-3.1 3.5-5.1 2.5-3 3.6 8.9 4.7 5.7.5 13.6 1.5 17.4 2.3 3.9.8 11.4 2 16.7 2.5 11.9 1.4 23.6 4.9 28 8.6 2.8 2.4 3.8 2.6 7.6 2.1 2.4-.3 5.6-1.2 7.1-2 1.4-.8 3.7-2 5.1-2.6 1.4-.6 4.3-2.1 6.5-3.2 3-1.6 6.9-2.3 15-2.8 9.6-.6 12.2-1.2 20-4.5 7.3-3 10.5-3.8 16.6-4 5.4-.2 9.3-1.1 13.7-2.9 3.4-1.4 7.5-2.6 9.2-2.6 1.7 0 4.4-.7 5.9-1.5 1.6-.8 4.4-1.7 6.2-2 1.9-.3 6.1-1.8 9.4-3.2 13.7-5.8 16.8-6.6 21.8-5.9 2.6.4 4.5 1 4.3 1.4-.2.4.8.8 2.2.8 1.5.1 4.5.5 6.7.9 3.6.6 4.5.3 9-2.9 6.1-4.4 12.6-7.7 13.8-6.9.5.3 1.2.2 1.6-.3.3-.5 4-2 8.1-3.3 9.8-3.2 24.2-4 29.9-1.8 2.1.9 10.1 3 17.7 4.7 13.3 3 15.5 3.1 24.8 1.4 1-.2 4.3-2.2 7.3-4.6 5.9-4.5 11.1-5.5 14.1-2.5 1.3 1.4.6 2.4-6.9 9.7l-8.4 8.2 8-7.2 8-7.2 6.8-.3c7-.4 9.4.2 19.7 5.2 3 1.4 6.2 2.9 7 3.3.9.4 3.5 1.1 5.9 1.5 3 .5 4.5 1.3 4.8 2.6.3 1 1.4 2.1 2.4 2.4 1 .4 3.1 2.3 4.6 4.3 3.3 4.5 5.2 6.2 7.1 6.2.8 0 .1-1.2-1.7-2.9-2.3-2.1-3.1-3.8-3.1-6.3 0-4 2.3-11.8 4.4-15 1.5-2.2 1.6-2.7 1.6-4.8 0-.6 1.1-1.5 2.4-2.1 2-1 3-.7 5.8 1.3 4.6 3.4 6.3 3.9 8.5 2.3 1.7-1.3 1.5-1.4-1.5-1.5-2.3 0-4.2-.9-6.2-2.9-1.6-1.6-3.1-2.7-3.3-2.5-.2.3-1-.2-1.7-1.1-1.7-2-.5-3.2 1.5-1.5 1.2 1 1.5 1 1.5-.3 0-1.8 2.1-2.7 6.4-2.7 3.7 0 6.6 2.5 6.6 5.8 0 1.2.5 2.2 1 2.2.6 0 1-1 1-2.1 0-2.6-6.4-8.9-9.1-8.9-2.5 0-2.4-1.2.2-4.1 1.2-1.5 2.2-2 2.5-1.2.3.7 2.6.9 6.7.6 8.7-.7 9-.8 7.5-3.5-.7-1.3-1.6-2.5-1.9-2.8-.3-.3-.9-1.6-1.2-3-.5-2-1.6-2.8-5.4-3.7-4.4-1-5-1-7.1 1.1-1.6 1.6-2.4 3.7-2.7 7-.4 4.8-2.7 8.6-5.2 8.6-.7 0-1.3.4-1.3.9 0 2.7-12.4 3.7-14 1.2-.4-.8-1.3-1-1.9-.7-1.9 1.2-5-.4-6.5-3.3-2-3.8-2.8-9.3-1.7-11.1.9-1.2 1.3-1.1 3.3.7 1.3 1.2 3.6 2.5 5.1 2.9 2.5.6 2.8.4 2.5-1.2-.2-1.1-1.3-2-2.8-2.2-3.2-.5-5-2-6.1-5-1.1-2.8-2.3-2.2-2.4 1 0 1.2-.6 2.3-1.2 2.5-.8.3-1.3-.4-1.3-1.7 0-3.8 1.7-5.7 5.4-5.8 2.9-.1 4 .5 6.5 3.7 1.7 2.2 5.4 5.3 8.1 7.1 3.5 2.3 5 3.9 5 5.4 0 2.9-1.8 4.6-4.9 4.6l-2.6.1 2.5 1.4c2.2 1.2 2.7 1.1 4.8-.7 2.8-2.7 2.8-4.9 0-9.7l-2.2-3.9 2.9-2.6c1.7-1.4 4.3-2.9 5.9-3.3 2.2-.5 2.5-.8 1.3-1.4-1.7-1-8.7 1.5-8.7 3.1 0 .6-1.1 1-2.5 1s-2.5.4-2.5 1c0 .5.5 1 1 1 .6 0 1 .5 1 1 0 .7-.6.7-2 0-1.2-.6-1.7-1.6-1.3-2.6.4-1.1.1-1.5-1.2-1.2-.9.2-2.2-.6-2.9-1.7-.6-1.1-1.8-2.5-2.6-3.2-1.3-1.1-1.3-1.4 0-2.3 2.4-1.6 6-1.2 6 .6 0 1 .6 1.4 1.5 1.1.8-.4 1.7-.2 2 .4.4.5-.1 1.2-.9 1.5-1.8.7-1.2 2.4.8 2.4s2.8-4.3 1.1-5.6c-2.1-1.6-1.9-2.1 1.4-3.9 3.7-1.9 8.1-.6 8.1 2.4 0 2.4 1.1 3.2 3 2.1 1.1-.7 1-1.1-.3-2.5-1-.9-1.7-2-1.7-2.4 0-.5-1.8-2.1-4.1-3.5-2.8-1.9-4.8-2.6-6.5-2.2-3.2.8-3.1 2.5.1 1.8 3.2-.6 3.2.3-.3 3.8-2.3 2.3-3.1 2.5-4.4 1.6-.9-.7-1.8-2.5-2-4.1-.4-3.4-3.7-4.7-8-3.1-3.2 1.2-3.8 3-.8 2.2 1.1-.3 2.8-.8 3.8-1.1 2.6-.7 4.4.9 4 3.6-.2 1.8-1 2.5-3 2.7-3.4.4-6.8-1.4-6.8-3.5 0-1.4-.3-1.4-2.1.3-1.6 1.4-1.9 2.6-1.4 5.1.5 3.1.4 3.3-2.1 3.3-2.2 0-2.4.3-1.5 1.4 1.2 1.4.8 13.3-.5 14.5-1.1 1.1-3.9-1.7-5-4.9-.8-2.4-1.2-2.9-1.7-1.6-.8 2.1-2.3 2-4.7-.4-1.9-1.9-2.2-1.9-3.6-.5-2.2 2.2-6 1.9-7.8-.7-2-2.8-2-4.3 0-7.4 1.6-2.3 1.8-2.4 4-.9 3.4 2.2 4.1 1.8 1.5-.8-1.2-1.4-1.9-3.1-1.6-3.9.7-1.7 4-3.1 6.4-2.8.7.1 1-.3.7-.9-1.1-1.8 1.3-2.2 4.7-.7 4.1 1.6 5 2.9 4.2 5.5-.4 1.3-1.2 1.7-3.3 1.3-1.8-.3-2.4-.1-1.7.6 2.2 2.3 6.5 1.8 6.5-.7 0-1 .7-2.2 1.5-2.5 1.3-.4 1.4-1 .5-2.6-.6-1.1-1.6-2-2.3-1.9-1.8.3-6.4-1.8-7.1-3.3-.5-1-.7-1-1.2-.1-.7 1.6-3.5 1.7-3.2.1.2-.6-.5-1.4-1.4-1.6-2-.4-2.5 2.4-.6 3 .6.2.9.9.5 1.5-.9 1.5-11.9 1-20.2-1-3.8-.9-12.4-2-19-2.3-8.4-.4-17.7-1.9-31-4.8-17-3.7-20.4-4.1-32-4-8.6 0-16.2.7-22.3 1.9-8.7 1.8-9.8 1.8-15.4.3-4.6-1.2-7-1.3-10.2-.5-2.2.5-11.1 1-19.6 1.1-13.8 0-16.6-.2-26-2.7-11.5-3-16.7-3.3-26.9-1.6-8.7 1.4-16.2.2-32.6-5.2l-12-4-16.4 1.1c-17 1.1-21.6 1.8-31.6 5-3.3 1-10 2.1-15 2.5-4.9.3-14.3 1.5-20.8 2.6s-16.5 2.6-22.2 3.3c-6.6.9-12.4 2.3-16.3 4.1l-6 2.7-4.4-2.6c-6.2-3.6-15.2-5.7-26.5-6-5.4-.2-12.9-.7-16.8-1.1-5-.5-8.6-.3-12.8.8-6.3 1.7-6.8 1.6-17.7-1.9-22.4-7.1-37.5-8.4-53-4.5-10.1 2.5-19.1 2.7-29.3.5-7.2-1.4-8.1-1.4-17.1.5-12.6 2.8-16.2 2.7-28.5-.9-9.6-2.7-26.7-5.7-55.1-9.5-6.3-.8-14.7-2.4-18.5-3.5-7.3-2.1-11.5-2.3-17.5-.9zm687.7 34.4c.3 1-3.6 4-4.2 3.3-.1-.2-.6-1.3-.9-2.5-.6-1.9-.4-2.2 2-2 1.5.1 2.9.7 3.1 1.2zm29.3 2.6c0 .5-.9.9-2 .9-1.9 0-2.7-2-1.3-3.3.7-.8 3.3 1.1 3.3 2.4zm3 1.9c0 .5-1 1-2.2 1-1.9 0-2-.2-.8-1 1.9-1.3 3-1.3 3 0zm33.6 9.4c1.8 1.4 1.8 1.6.2 4.3-2.4 4-6.2 3.9-6.6-.2-.3-1.9.2-3.3 1.4-4.2 2.2-1.6 2.6-1.6 5 .1zm5.4 4c.5 1.3 1.4 2.7 1.9 3.1 2.2 1.3 1.1 2.7-1.6 2-1.6-.4-3.4-.8-4-.8-1.6 0-1.6-.9-.1-4.2 1.4-3.1 2.6-3.2 3.8-.1zm-47-1c0 .3-.4.8-1 1.1-.5.3-1 .1-1-.4 0-.6.5-1.1 1-1.1.6 0 1 .2 1 .4zm-14.9 2.6c1.5 1.2 4.1 3.3 5.7 4.8 1.6 1.5 4 3.5 5.3 4.4l2.4 1.8-3 2.5c-3.5 2.9-4.8 3.1-6.5 1-.7-.8-1.7-1.5-2.3-1.5-.6 0-.1 1.1 1.2 2.3 3.2 3.5.7 7.9-2.6 4.6-.8-.8-1.3-.8-1.8 0-.3.6.1 1.4.9 1.7.9.3 1.6 1.3 1.6 2.1s.8 1.3 1.8 1.1c1.2-.2 1.8.5 2 2.4.4 3.1.1 3.3-3.1 1.6-1.2-.6-2.9-1.4-3.7-1.8-.8-.4-1.5-1.8-1.5-3 0-1.3-.6-2.5-1.4-2.8-1-.3-1.1.3-.6 2.7.8 3.6 0 3.8-3.5 1-1.7-1.4-2.1-2.2-1.2-2.6 1.7-.7 1.5-2.3-.3-2.3-1.6 0-3.1-4.3-2-5.9.9-1.5 3.1-1.4 5.8.3 3.8 2.4 6.7 2.9 6.7 1.2 0-.8-.9-1.8-2-2.1-1.4-.5-2-1.5-2-3.7 0-3 0-3 2.5-1.4 1.7 1.1 3.3 1.4 4.8 1 2-.7 2-.8-.8-1.3-1.8-.4-3.4-1.5-4-2.9-.5-1.2-1.4-2.2-2-2.2-1.8 0-5.6-3.1-5-4.1 1-1.6 5.6-1 8.6 1.1zm-6.4 4.2c1.6 1.9.4 7.8-1.5 7.8-2.1 0-8.2-4.2-8.2-5.7 0-.6 1.2-2 2.7-3.1 2.8-2.1 4.8-1.8 7 1zm-9.3 7.9c-.8 1.4-3 1.1-4.4-.6-1-1.2-1-1.8.1-3.1 1.2-1.5 1.5-1.4 3.1.6 1 1.2 1.5 2.6 1.2 3.1zM972 404c1 .5 3.5 1 5.4 1 2.5 0 3.8.6 4.6 2 1 1.9.8 2-3.3 2-2.3 0-4.7-.4-5.2-.9-.6-.6-3.1-.4-6.5.5-6.8 1.7-8.6 2.6-4.2 1.9 3.4-.5 4 .2 2 2.5-.7.7.2.2 2-1.3 3.9-3.2 3.9-3.1 8.5-1.2l3.6 1.5-3.9 7.2c-2.2 4-4 8.3-4 9.6 0 2.3 0 2.3-2.5.5-2.9-2.2-3.1-3-.7-5.1.9-1 1.3-1.4.8-1-2.4 1.9-13.4-.1-12.1-2.1.3-.6-1.1-1.1-3.1-1.3-3.5-.3-3.6-.4-3.9-5.1-.3-5.5 2.5-10.6 6.5-11.9 3.1-.9 13.5-.2 16 1.2zm-43.8 1.7c2.7 3.2 2.9 5.2.5 6.8-4.6 3.2-8.7 1-8.7-4.9 0-3.6 5.6-4.9 8.2-1.9zM589.5 444c10.1 4 16.1 5 29 5 12.2 0 14.7.4 13.9 2.5-.5 1.2 4.1 2.5 17.4 5.1 1.7.4 3.2 1 3.2 1.4 0 1-4.6 2.9-8.8 3.6-3.1.5-4.4.1-6.8-1.8-4.8-3.9-12.7-6.8-23.6-8.3-5.7-.9-13.2-2-16.8-2.6-3.6-.5-10.5-1.4-15.5-2-4.9-.6-11-1.3-13.5-1.6l-4.5-.6 3.3-1.3c1.7-.8 3.2-1.9 3.2-2.5 0-1.7 12 .1 19.5 3.1zM235.8 335.7c1.2.2 3.2.2 4.5 0 1.2-.2.2-.4-2.3-.4s-3.5.2-2.2.4zM719 335.5c0 .2 2.7 1.8 6 3.5s6 2.8 6 2.5c0-.2-2.7-1.8-6-3.5s-6-2.8-6-2.5zM228.3 336.7c.9.2 2.3.2 3 0 .6-.3-.1-.5-1.8-.5-1.6 0-2.2.2-1.2.5zM221.8 337.7c.6.2 1.8.2 2.5 0 .6-.3.1-.5-1.3-.5-1.4 0-1.9.2-1.2.5zM217.8 338.7c.7.3 1.6.2 1.9-.1.4-.3-.2-.6-1.3-.5-1.1 0-1.4.3-.6.6zM821.5 339c1.1.5 2.7.9 3.5.9.9 0 .8-.4-.5-.9-1.1-.5-2.7-.9-3.5-.9-.9 0-.8.4.5.9zM212.8 339.7c.7.3 1.6.2 1.9-.1.4-.3-.2-.6-1.3-.5-1.1 0-1.4.3-.6.6zM208.8 340.7c.7.3 1.6.2 1.9-.1.4-.3-.2-.6-1.3-.5-1.1 0-1.4.3-.6.6zM204.8 341.7c.7.3 1.6.2 1.9-.1.4-.3-.2-.6-1.3-.5-1.1 0-1.4.3-.6.6zM830.8 341.7c.7.3 1.6.2 1.9-.1.4-.3-.2-.6-1.3-.5-1.1 0-1.4.3-.6.6zM200.8 342.7c.7.3 1.6.2 1.9-.1.4-.3-.2-.6-1.3-.5-1.1 0-1.4.3-.6.6z"/><path d="M0 343.9c0 .4 1.9 1.2 4.3 1.8 2.3.7 8 3.7 12.6 6.7 9.4 6.3 11.5 6.7 23.6 4.1 8.4-1.8 15.6-1.9 22.5-.4 3.7.8 5.4.8 6.4 0 .8-.7 3.7-1.4 6.5-1.8 4.4-.5 5.6-.2 8.8 2 7 4.8 8.6 5 16.7 2.2 9.4-3.3 10.9-3.2 14.3.9 1.5 1.8 4 4.1 5.4 5 7.6 4.9 45.5 7.9 63.6 5.2 15-2.3 20-2.1 28.6 1.3 11.6 4.6 17.4 6 29.9 7.1 6.4.5 14.7 1.7 18.5 2.6 5.5 1.3 10 1.5 23.2 1 9.1-.3 20.5-1.1 25.5-1.7 12.1-1.5 18.6-.8 28.2 3.1 6 2.4 11 3.5 20.9 4.7 7.4.8 20.4 3.3 30.2 5.8 9.4 2.4 20.9 4.9 25.5 5.5 9.9 1.4 19.5 3.4 26.1 5.4 2.6.9 4.5 1.1 4.2.6-.4-.6-1.3-1-2.1-1s-1.4-.5-1.4-1c0-1.8 13.1-1.1 29 1.5 18.7 3.1 20 3.5 31.7 9.2l9.1 4.5 42.4-1.2c29-.9 48.7-1 62.8-.3 16.5.7 21.6.6 26-.5 3-.7 9.1-2 13.4-2.9 4.4-.8 9.4-2.1 11-2.9 1.7-.8 2.4-1.2 1.4-1-.9.3-7.9 1.7-15.5 3.1-13.3 2.6-14.8 2.7-43.3 2.3-16.2-.1-45.3.1-64.6.6l-35.1.9-6.7-3.7c-9.2-5.2-12.5-6.2-30.4-9.2-10.6-1.8-19.1-2.6-26.2-2.5-5.8 0-12.5-.4-15-.9s-8.8-1.5-14-2.1c-5.2-.6-17.4-3.1-27-5.5-10.2-2.6-23-5.1-30.7-5.9-10.3-1.2-14.8-2.2-21-4.7-7.1-3-8.7-3.3-18.3-3.3-5.8 0-18.8.6-29 1.3-16.6 1.2-19.5 1.2-27.5-.2-5-.9-13.9-2.2-20-2.7-11.9-1.2-19-2.9-33.1-8l-9.1-3.3-15.4 2.1c-13.2 1.8-17.6 2-30.9 1.3-16.3-.9-29.8-3.1-34-5.7-1.4-.9-3.7-3.1-5.3-4.9-1.5-1.8-3.6-3.5-4.6-3.9-1-.3-4.9.6-8.6 2-8.8 3.3-10.9 3.1-17.5-1-6-3.9-7.9-4.2-13.8-2.1-3.1 1.1-6.8 1.3-14.6.9s-12.6-.2-19.4 1.2c-10.4 2-12.6 1.6-20-3.8-2.6-1.9-6-4.1-7.7-5C6.6 344.8 0 343 0 343.9zM189.8 345.7c.7.3 1.6.2 1.9-.1.4-.3-.2-.6-1.3-.5-1.1 0-1.4.3-.6.6zM173.8 349.7c.7.3 1.6.2 1.9-.1.4-.3-.2-.6-1.3-.5-1.1 0-1.4.3-.6.6zM169.8 350.7c.7.3 1.6.2 1.9-.1.4-.3-.2-.6-1.3-.5-1.1 0-1.4.3-.6.6zM779.8 350.7c.7.3 1.6.2 1.9-.1.4-.3-.2-.6-1.3-.5-1.1 0-1.4.3-.6.6zM164.8 351.7c.7.3 1.6.2 1.9-.1.4-.3-.2-.6-1.3-.5-1.1 0-1.4.3-.6.6zM783.8 351.7c.6.2 1.8.2 2.5 0 .6-.3.1-.5-1.3-.5-1.4 0-1.9.2-1.2.5zM160.8 352.7c.7.3 1.6.2 1.9-.1.4-.3-.2-.6-1.3-.5-1.1 0-1.4.3-.6.6zM788.8 352.7c.6.2 1.8.2 2.5 0 .6-.3.1-.5-1.3-.5-1.4 0-1.9.2-1.2.5zM155.8 353.7c.7.3 1.6.2 1.9-.1.4-.3-.2-.6-1.3-.5-1.1 0-1.4.3-.6.6zM149.8 354.7c.7.3 1.6.2 1.9-.1.4-.3-.2-.6-1.3-.5-1.1 0-1.4.3-.6.6zM660.7 356.1c.7.7 1.5 1 1.8.7.3-.3-.2-.9-1.2-1.2-1.4-.6-1.5-.5-.6.5zM629 357c.8.5 2 1 2.5 1 .6 0 .3-.5-.5-1s-1.9-1-2.5-1c-.5 0-.3.5.5 1z"/><path d="M71.8 357.7c.7.3 1.6.2 1.9-.1.4-.3-.2-.6-1.3-.5-1.1 0-1.4.3-.6.6zM665 358c.8.5 2 1 2.5 1 .6 0 .3-.5-.5-1s-1.9-1-2.5-1c-.5 0-.3.5.5 1zM76 358.7c.8.3 4.2 1.9 7.5 3.6 3.3 1.6 11.1 4.7 17.4 6.8 9.4 3.2 12.7 4.9 19 9.7 8.4 6.5 13.1 9.2 15.8 9.2 1-.1.1-.7-1.9-1.4s-7.7-4.3-12.7-8c-7.1-5.3-11-7.4-18.8-10-5.4-1.9-13.2-5-17.3-7-4.1-2-8.1-3.6-9-3.5-1.3 0-1.3.1 0 .6zM634 359c.8.5 2 1 2.5 1 .6 0 .3-.5-.5-1s-1.9-1-2.5-1c-.5 0-.3.5.5 1zM671.6 360.5c1.7.7 4.4 1.6 6 2 2.5.4 2.4.3-.6-.8-1.9-.8-4.6-1.7-6-2-1.9-.5-1.7-.3.6.8zM731.8 360.7c.7.3 1.6.2 1.9-.1.4-.3-.2-.6-1.3-.5-1.1 0-1.4.3-.6.6zM959.7 362c-2.1 2.5-2.1 3-.3 3 .8 0 1.8-.9 2.1-2.1.9-2.9.2-3.2-1.8-.9zM5.8 361.7c.7.3 1.6.2 1.9-.1.4-.3-.2-.6-1.3-.5-1.1 0-1.4.3-.6.6zM735.8 361.7c.7.3 1.6.2 1.9-.1.4-.3-.2-.6-1.3-.5-1.1 0-1.4.3-.6.6zM13.8 362.7c1.2.2 3.2.2 4.5 0 1.2-.2.2-.4-2.3-.4s-3.5.2-2.2.4zM644.8 362.7c.7.3 1.6.2 1.9-.1.4-.3-.2-.6-1.3-.5-1.1 0-1.4.3-.6.6zM739.8 362.7c.6.2 1.8.2 2.5 0 .6-.3.1-.5-1.3-.5-1.4 0-1.9.2-1.2.5zM648.8 363.7c.7.3 1.6.2 1.9-.1.4-.3-.2-.6-1.3-.5-1.1 0-1.4.3-.6.6zM681.8 363.7c.7.3 1.6.2 1.9-.1.4-.3-.2-.6-1.3-.5-1.1 0-1.4.3-.6.6zM744.8 363.7c.7.3 1.6.2 1.9-.1.4-.3-.2-.6-1.3-.5-1.1 0-1.4.3-.6.6zM654 365c1.4.4 3.4.8 4.5.8 1.6 0 1.5-.2-.5-.8-1.4-.4-3.4-.8-4.5-.8-1.6 0-1.5.2.5.8zM685.8 364.7c.7.3 1.6.2 1.9-.1.4-.3-.2-.6-1.3-.5-1.1 0-1.4.3-.6.6zM748.8 364.7c.7.3 1.6.2 1.9-.1.4-.3-.2-.6-1.3-.5-1.1 0-1.4.3-.6.6zM886.8 364.7c.7.3 1.6.2 1.9-.1.4-.3-.2-.6-1.3-.5-1.1 0-1.4.3-.6.6zM2.3 365.7c.9.2 2.5.2 3.5 0 .9-.3.1-.5-1.8-.5-1.9 0-2.7.2-1.7.5zM404.8 365.7c.6.2 1.8.2 2.5 0 .6-.3.1-.5-1.3-.5-1.4 0-1.9.2-1.2.5zM691 366c1.4.4 3.4.8 4.5.8 1.6 0 1.5-.2-.5-.8-1.4-.4-3.4-.8-4.5-.8-1.6 0-1.5.2.5.8zM796.8 365.7c.6.2 1.8.2 2.5 0 .6-.3.1-.5-1.3-.5-1.4 0-1.9.2-1.2.5zM890.8 365.7c.7.3 1.6.2 1.9-.1.4-.3-.2-.6-1.3-.5-1.1 0-1.4.3-.6.6zM663 367c1.4.4 3.4.8 4.5.8 1.6 0 1.5-.2-.5-.8-1.4-.4-3.4-.8-4.5-.8-1.6 0-1.5.2.5.8zM757.8 366.7c.7.3 1.6.2 1.9-.1.4-.3-.2-.6-1.3-.5-1.1 0-1.4.3-.6.6zM801.8 366.7c.6.2 1.8.2 2.5 0 .6-.3.1-.5-1.3-.5-1.4 0-1.9.2-1.2.5zM698.8 367.7c.6.2 1.8.2 2.5 0 .6-.3.1-.5-1.3-.5-1.4 0-1.9.2-1.2.5zM761.8 367.7c.7.3 1.6.2 1.9-.1.4-.3-.2-.6-1.3-.5-1.1 0-1.4.3-.6.6zM806.8 367.7c.6.2 1.8.2 2.5 0 .6-.3.1-.5-1.3-.5-1.4 0-1.9.2-1.2.5zM897.8 367.7c.7.3 1.6.2 1.9-.1.4-.3-.2-.6-1.3-.5-1.1 0-1.4.3-.6.6zM340.3 368.7c.9.2 2.3.2 3 0 .6-.3-.1-.5-1.8-.5-1.6 0-2.2.2-1.2.5zM672 369c1.4.4 3.4.8 4.5.8 1.6 0 1.5-.2-.5-.8-1.4-.4-3.4-.8-4.5-.8-1.6 0-1.5.2.5.8zM703.8 368.7c.6.2 1.8.2 2.5 0 .6-.3.1-.5-1.3-.5-1.4 0-1.9.2-1.2.5zM813.3 368.7c.9.2 2.3.2 3 0 .6-.3-.1-.5-1.8-.5-1.6 0-2.2.2-1.2.5zM901.8 368.7c.7.3 1.6.2 1.9-.1.4-.3-.2-.6-1.3-.5-1.1 0-1.4.3-.6.6zM348.3 369.7c.9.2 2.5.2 3.5 0 .9-.3.1-.5-1.8-.5-1.9 0-2.7.2-1.7.5zM562.8 369.7c.7.3 1.6.2 1.9-.1.4-.3-.2-.6-1.3-.5-1.1 0-1.4.3-.6.6zM708.8 369.7c.6.2 1.8.2 2.5 0 .6-.3.1-.5-1.3-.5-1.4 0-1.9.2-1.2.5zM819.3 369.7c.9.2 2.5.2 3.5 0 .9-.3.1-.5-1.8-.5-1.9 0-2.7.2-1.7.5zM906.8 369.7c.7.3 1.6.2 1.9-.1.4-.3-.2-.6-1.3-.5-1.1 0-1.4.3-.6.6zM356.8 370.7c1.2.2 3 .2 4 0 .9-.3-.1-.5-2.3-.4-2.2 0-3 .2-1.7.4zM581.3 370.7c.9.2 2.3.2 3 0 .6-.3-.1-.5-1.8-.5-1.6 0-2.2.2-1.2.5zM681 371c1.4.4 3.4.8 4.5.8 1.6 0 1.5-.2-.5-.8-1.4-.4-3.4-.8-4.5-.8-1.6 0-1.5.2.5.8zM714.3 370.7c.9.2 2.3.2 3 0 .6-.3-.1-.5-1.8-.5-1.6 0-2.2.2-1.2.5zM827.3 370.7c1.5.2 3.7.2 5 0 1.2-.2 0-.4-2.8-.4-2.7 0-3.8.2-2.2.4zM911.8 370.7c.6.2 1.8.2 2.5 0 .6-.3.1-.5-1.3-.5-1.4 0-1.9.2-1.2.5zM370.7 372.5c8 1.4 15.7 4.1 25.3 9 2.5 1.2 5.6 2.5 7 2.9 4.1 1.1-16-8.4-22-10.4-3-1-8.4-2.1-12-2.4-6.3-.5-6.3-.5 1.7.9zM720.3 371.7c.9.2 2.3.2 3 0 .6-.3-.1-.5-1.8-.5-1.6 0-2.2.2-1.2.5zM838.3 371.7c1.5.2 3.7.2 5 0 1.2-.2 0-.4-2.8-.4-2.7 0-3.8.2-2.2.4zM597.5 377c5 2.7 9.5 5 10 5 .6 0-3-2.3-8-5-4.9-2.7-9.4-4.9-10-4.9-.5 0 3.1 2.2 8 4.9zM693.5 373.6c20.2 5.4 73.9 18.4 74.7 18.2 1.1-.4-71.2-18.5-76.7-19.2-2.8-.4-2.1-.1 2 1zM727.3 372.7c.9.2 2.5.2 3.5 0 .9-.3.1-.5-1.8-.5-1.9 0-2.7.2-1.7.5zM847.8 372.7c1.2.2 3.2.2 4.5 0 1.2-.2.2-.4-2.3-.4s-3.5.2-2.2.4zM132.4 373.8c1 1.7 12.5 9.2 13.9 9.2.6 0-1.6-1.6-4.9-3.6-3.2-1.9-6.8-4.3-7.8-5.2-1.1-1-1.6-1.1-1.2-.4zM736.3 373.7c.9.2 2.5.2 3.5 0 .9-.3.1-.5-1.8-.5-1.9 0-2.7.2-1.7.5zM856.3 373.7c.9.2 2.5.2 3.5 0 .9-.3.1-.5-1.8-.5-1.9 0-2.7.2-1.7.5z"/><path d="M0 374.9c0 .7 3.6 1.1 11.3 1.1 9.3 0 12.8.5 19.8 2.6 7.7 2.3 9.3 2.5 18.9 1.8 22.8-1.5 22.6-1.5 41 6.3 20.3 8.7 24.7 10 35.8 10.8 4.8.4 11.7 1.4 15.4 2.2 6.7 1.5 7.8 1.5 34.7-.3 7.4-.5 10.5-.3 15.2 1.1 3.2 1 5.6 2.1 5.4 2.6-.8 1.3 7.6-.2 18.2-3.2 16.2-4.6 17.5-4.7 27-.5 4.5 2 9 3.6 10 3.6 3.7 0 9.3 2.2 12.4 4.7 1.7 1.5 7.1 7.7 11.9 13.8 15.3 19.2 18.6 21.3 40.2 25 11 1.9 16.9 4.3 26.2 10.4 6.3 4.1 14.3 7.1 18.8 7.1 1.5 0 1.6.4.8 2.6-1.8 4.6-1.3 5.4 2.9 5.4 2.2 0 9.1 1.3 15.4 2.9 6.2 1.7 15.6 3.7 20.8 4.5 5.2.9 10.9 1.9 12.8 2.2 4.1.7 3.2 1.6-3.5 3.8-2.8.9-7.7 3.2-10.9 5.1l-5.8 3.5-7.6-3.7c-10.6-5.1-15.1-5.3-24.7-1.3-10.3 4.3-14.1 3.9-25.4-2.6-8.1-4.7-8.9-4.9-15.5-4.8-5.2.1-9.3 1-16 3.4-12.8 4.7-22.4 5.1-36.5 1.6-5.8-1.4-12.1-2.6-14-2.6-1.9 0-7.5-1.1-12.5-2.5-5.2-1.5-11.7-2.5-15.3-2.5-3.5 0-6.1-.4-5.8-.9.3-.5-1.3-.4-3.7.1-11.4 2.7-37.8.4-52.6-4.6-10.1-3.5-21.9-3.6-41.6-.2-22.9 3.9-41.3 3.3-29.4-1 1.9-.7 3-1.3 2.5-1.3-1.5-.2-8.6 2.2-8.6 2.8 0 .4-.8.7-1.7.7-1 .1-4.8.6-8.5 1.3-4.7.8-8.7.8-13.5.1-6.7-1-20.5-1.2-17-.3 1.3.3 1.7 1.1 1.4 2.4-.3 1-.1 1.9.4 1.9s.9-1 .9-2.1c0-2.1.2-2.1 8.3-1.3 8.7 1 23.5.9 27.4-.1 2-.5 2.3-.2 2.3 2.5 0 2.2-.5 3-1.7 3-1.3 0-1.5.2-.5.8.7.5 1 1.6.6 2.5-.3 1-.1 1.7.5 1.7.8 0 .7.6-.1 2-.7 1.1-1.8 1.8-2.5 1.6-.7-.3-1.5-.1-1.8.5-.4.5.1 1.2.9 1.5.8.3 1.8 1.4 2.1 2.5.4 1 1.3 1.9 2.1 1.9 1.7 0 1.8 1.2.3 2.7-.9.9-.8 1.8.5 3.8 1.9 2.8 1.4 4.7-.6 2.7-1.5-1.5-7.4-1.6-8.3-.2-.3.6.4 1 1.7 1 1.3 0 3.5.6 5 1.4 2 1.1 2.8 1.1 3.2.3.3-.8.8-.7 1.5.3 1.8 2.6 1.2 3.1-2.6 2.5l-3.8-.5 3.5 1.6c4.6 2.2 10 2.7 10 .9 0-.7.7-1.8 1.5-2.5 1.3-1.1 1.7-.8 2.6 1.8.8 2.4 1.8 3.1 5.2 3.8 4 .7 4 .8 1.2 1.2-1.6.2-3.3.9-3.8 1.5-.5.8-1.3.5-2.5-1.1-1.7-2.2-1.7-2.2-5.4-.4-4.3 2.2-9.5 1.8-10.3-.8-.3-1-1.2-2.1-2-2.4-.8-.3-1.5-1.3-1.5-2.2 0-1.3-.3-1.4-1.3-.5-.8.6-1.7.8-2.1.4-.7-.7-2.6 1.4-2.6 2.9 0 .5 1.2.8 2.6.8 1.8 0 4 1.5 7.4 5.1 4.3 4.6 5.2 5.1 9.3 5.1 3.2.1 5.4.8 7.4 2.4 3.2 2.5 2.7 4-.8 2.5-1.3-.5-5.2-1.5-8.6-2.2-3.4-.7-6-1.6-5.8-2 .5-.8-3-1.9-6.2-1.9-1.3 0-2.3.4-2.3 1 0 .5 1.1 1 2.4 1 1.3 0 2.9.6 3.5 1.4.6.8 2.4 1.6 3.9 1.9 6.7 1.2 22.5 6.2 20.9 6.5-1.9.4-13.1-2-20.3-4.3-3.1-1.1-6.4-1.2-13.9-.5-5.3.6-10.2.7-10.8.3-.6-.4-2.4-.8-3.9-1-4.4-.5-9.8-3-9.8-4.7 0-1.7 2.6-1.1 10.2 2.3 3.8 1.7 5.4 2 8 1.2 3-.8 3.1-.9.7-1-1.4-.1-2.9-.4-3.3-.8-.4-.4-1.3-.8-1.9-.9-4.1-.3-7.9-2-10.1-4.5-3.2-3.5-3.2-4.2-.3-3.4 1.7.5 1.8.4.7-.4-.8-.5-1.1-1.3-.7-1.7.3-.4-.3-1.5-1.4-2.5-1.2-1-1.6-2-1-2.3 1.5-1 .3-3.3-2-3.9-2.5-.7-2.4-2.7.2-2.7 1.6 0 1.9-.4 1.4-1.9-.4-1.4 0-2.1 1.5-2.6 2.7-.9 2.6-2.5-.2-2.2-1.7.1-2.3-.4-2.4-1.9-.1-1.2-.4-2.6-.8-3.2-.3-.5.1-1.2.9-1.6.8-.3 1.5-1 1.5-1.7 0-.6-.7-.9-1.5-.5-1.7.6-2.1-.9-.5-1.9.6-.3 1-1.1 1-1.7 0-.6-.7-.5-1.7.3-1.5 1.2-1.6 1.2-1-.4.7-1.9-.1-4.7-1.4-4.7-.4 0-.6 1.7-.3 3.7.3 2.2 0 3.9-.8 4.4-.9.6-.9 1.1.1 2.3.8.9 1 1.6.5 1.6s-.1.7.9 1.4c1.4 1.1 1.5 1.6.6 2.2-.7.4-1.5.2-1.7-.4-.6-2-3.8-1.4-3.8.8 0 1.1.4 2 .8 2s.6.9.5 2c-.1 1.1-.5 2-.9 2-1.9 0-.6 2 1.7 2.6 2.5.6 3 3.2.6 2.6-1.9-.4-4.7 2.8-3.2 3.7.9.6.8 1.1-.4 2.1-2.1 1.8-1.9 2.5 1.3 4.1 2.5 1.3 7.2 5.5 7.2 6.5 0 1.7-8.2-.8-10.8-3.3-.7-.7-2-1.3-2.7-1.3-.8 0-1.7-.5-2.1-1.1-.5-.9.4-1 3.2-.5 3 .6 3.6.5 2.7-.4-1.2-1.3-16-1.6-20-.4-3.2.9-2.9 2.8.3 2 4.7-1.2 12.4-1.7 12.4-.8 0 2.5-16.5 5-18.7 2.9-1.1-1.1-4.3-.8-4.3.4 0 .8-1.8 1-5.5.7-6.1-.5-7.7.8-1.7 1.5l3.7.4-3.7.1c-2.1.1-3.8.5-3.8.9 0 .5 6.2.9 13.7 1 8.6.2 14.1.7 14.7 1.4.8.9-2.7 1-13.6.6-9.3-.4-14.8-.3-14.8.3s2.2 1 4.9 1c5.9 0 8.1 2 2.4 2.1-2.1 0-4.7.4-5.8.9-1.4.6.1.9 4.8.8 4.6-.1 6.7-.5 6.7-1.3 0-1.3 16.1-2.7 18.8-1.7 3.6 1.3-16.2 6.2-24.9 6.2-3.9 0-6.9.4-6.9 1 0 .5.7 1 1.5 1 1 0 1.4.9 1.3 2.5-.1 1.4-.8 2.5-1.5 2.5s-1.3.9-1.3 2c0 1.6.7 2 3.4 2 4.7 0 10.2 2 8.4 3.1-.9.6-.7.9 1 .9 1.2 0 2.2-.5 2.2-1 0-.6 4.2-1 10.6-1 9.4 0 10.5.2 9.4 1.5-1 1.2-1 1.5.3 1.5.8 0 1.7.4 1.9.9.1.4 3.2 1.1 6.8 1.4 3.6.3 7.8 1 9.3 1.6 6.2 2.4 7.1 1 1.2-1.8-5.3-2.5-5.7-2.8-3.7-3.5 1.3-.4 4.4-.2 7 .4 3.5.9 5.4.9 7.6.1 3.8-1.5 2.6-2.6-1.4-1.2-2.5.8-3.9.7-6.8-.5-2.1-.9-5.9-2.3-8.7-3.1-6.3-1.9-7-2.4-5.4-3.4 1.9-1.2 8.9-1.1 12.5.1 1.6.5 7.9 1.4 13.9 1.9 6.1.6 12.4 1.3 14 1.6 2.8.5 2.8.4-.5-.9-4.7-1.9-3.3-1.9 5.1 0 3.8.8 6.9 2 6.9 2.6 0 .6-.7.8-1.5.5-.8-.4-1.7-.2-2 .3-.3.4 0 1 .7 1.2.7.3-.2 1.1-1.9 1.8-2.8 1.3-2.9 1.5-1.5 2.6 1.6 1.2 1.6 1.3 0 1.9-.9.4-3.1.2-5-.3-1.8-.5-7.4-.9-12.3-.9l-9-.1 9.5 1.1c8.2.9 9 1.1 6 1.8-1.9.4-9.6 1.1-17 1.4-7.4.3-14.2.6-15 .7-.8.1-3.1 0-5-.1-3.3-.2-3.4-.3-1.1-1.2 3.2-1.2 2.1-2.1-3.1-2.5-10-.9-11.6-1.1-12.6-1.8-.7-.4-3.1-.9-5.4-1-2.4-.2-7.6-.7-11.5-1.1-6.4-.7-7.3-.6-7.3.8 0 1.3.7 1.5 3.3 1.2l3.2-.5-3.3 1.2c-4.2 1.4-4.5 4.8-.4 4.8 3.9 0 7.3 1.1 6.6 2.1-.7 1.2.3 1.1 2.7-.1 1.5-.9 1.9-.7 1.9.7 0 1.3.3 1.4 1.2.5.7-.7 2-1.2 2.9-1.2 1 0 1.9-.4 2.1-.9.2-.5 4.1-1.3 8.7-1.7 6.2-.5 8.2-.4 7.7.5-.4.6-1.2.9-1.7.5-1.7-1-5.9.5-5.9 2.1 0 1.2 1 1.4 4.7 1.1 2.6-.2 5 0 5.4.5.4.6 2.2.6 5 0 5.6-1.3 8.2-1.4 7.4-.1-.3.5.7.9 2.2.8 1.5 0 6 .4 10 1 7 1.1 10.3.9 10.3-.9 0-1.1-6.5-2.3-8.5-1.6-.8.4-1.7.2-2-.3-.3-.6 2.3-1 6.2-1 10.9 0 19.5-.6 23.3-1.4 2.8-.7 3.3-.6 2.3.4-1.1 1.2-2.4 1.5-6.7 1.9-.6.1-.2.7.8 1.4 1.7 1.2 1.3 1.5-3.5 3.4-3.3 1.2-5.6 1.7-6 1.1-.4-.6-.9-.6-1.4.2-.4.6-1.3.9-2.1.6-1.8-.7-4.4.3-4.4 1.6 0 .7 2.7.8 7.3.4 9-.7 8-.7 15.5 0 3.9.4 6.2.3 6.2-.4 0-.5.9-1.2 2.1-1.5 1.6-.4 1.8-.3.8.9s-.4 1.4 3.4 1.4c3.7 0 4.5-.3 4.1-1.5-.8-1.9.4-1.9 3.6 0 1.4.8 4.8 1.4 7.5 1.4 4.6 0 4.9-.1 3.1-1.4-1.1-.8-2.8-1.3-3.7-1-1.9.6-10.5-3.2-9.5-4.2.3-.3 2.6 0 5.2.6 2.5.7 4.9.9 5.3.5.3-.4 0-.9-.6-1.1-.7-.3-1.3-.9-1.3-1.4 0-1.2 2.8.2 5.8 3.1 1.8 1.7 2.6 1.9 3.8 1 .9-.8 3.1-1.1 5.9-.8 4.2.5 6.1-.4 3.3-1.5-2.5-1 9.6.4 12.7 1.5.6.1 1.1-.2 1.3-.7.2-.6-.5-1.2-1.5-1.3-1-.2-2.2-.8-2.8-1.4-.6-.6 1-.7 4.5-.3 4.1.5 5.1.4 4-.4-1.7-1.3-9.1-3.6-10.4-3.2-.4.1-1.4-.4-2.2-1-1.1-.9-1.8-.9-2.9.1-.8.6-2 1-2.7.7-.8-.3-.6-.6.5-.6 1-.1 1.5-.6 1.2-1.1-.4-.6-1.2-1-1.8-.9-.7.1-1.9.1-2.7 0-1.3-.1-1.2-.3.1-1.1 1.6-.9 9.8.8 13.9 2.8.8.4 3.1.7 5 .7 2.7 0 3.4-.4 3.2-1.6-.3-2.1 1.7-3.7 8.4-7 4.1-1.9 5.4-2.2 5.4-1.2 0 1 1.1 1.4 3.8 1.2 4.2-.3 8.2.8 8.2 2.1 0 .8 4.3 3.5 6.7 4.3.4.1.8-2.2.9-5 0-2.9.3-5.5.5-5.7.2-.3 3.8-.8 7.9-1.1 4.1-.4 10-1.3 13.1-2.1 6.7-1.7 6.9-1.7 6.9-.5 0 .5-1.3 1.2-3 1.6-3.1.7-3.9 2-1.7 2.8.9.4.8.8-.3 1.6-1.3 1-1.3 1.3.3 2.5 2.9 2.2 1.3 5.3-2.9 6.1-2 .3-3.9.4-4.2.1-.3-.3.2-.6 1.1-.6 1 0 1.7-.4 1.7-.9 0-1.5-2.1-2.5-2.9-1.4-.6 1-11.4 2.9-13.8 2.4-.7-.1-1.3.5-1.3 1.4 0 1.1.6 1.5 1.7 1.1 1-.2 2.8-.7 4-1.1 1.3-.3 3.1-.2 4 .4 1.6.9 1.4 1-.9 1.1-1.5 0-3.2.8-3.7 1.8-.6 1-1.1 1.2-1.1.4 0-.7-.5-1-1-.7-.6.4-2.3-.1-3.8-1.1s-3.5-1.7-4.6-1.5c-1 .1-2.2-.1-2.5-.6-.3-.5-2.1-1.9-3.9-3.2-2.5-1.8-3.6-2-4.6-1.2-1.7 1.5-7 3.1-11.4 3.6-1.9.2-3.6.6-3.9.9-1.5 1.5 3.8 1.8 11.8.8 6.7-.9 9.4-.9 11.4 0 2.8 1.2 2.9 3.5.1 3-.9-.2-3 .7-4.6 1.8-1.7 1.2-3.4 1.9-3.9 1.5-.5-.3-1.2-.1-1.6.5-.3.5-1.6 1-2.9 1-1.2 0-2.8.6-3.5 1.2-1.1 1-1.3 1-.7 0 .9-1.5.4-1.5-2.9 0-1.4.6-2.4 1.6-2.2 2.2.6 1.8 5.4 1.8 8 .2 1.3-.9 2.6-1.3 3-1 .3.3 3.3-.8 6.7-2.5 6.5-3.3 12.4-4.1 13.3-1.7.3.8-.1 2-1 2.8-1.3 1-1.7 1-2 0-.5-1.3-5.3-1.7-5.3-.5 0 .5.7 1.6 1.4 2.5 2 2.7 6.2 2.3 8.2-.7.9-1.4 2-2.5 2.5-2.5s2.8-.9 5.2-1.9c6.2-2.9 11-3.9 13.5-3 2.8 1.1 3.9 3.6 2.2 5.2-1 .9-1.4.9-1.7-.1-.7-1.7-6.2-1.5-6.9.3-.4 1-2 1.5-4.4 1.5-2.1 0-4.3.6-4.9 1.4-.9 1.1.6 1.3 9.4 1.2 7.5-.1 10.5-.4 10.5-1.3 0-.7.8-1.6 1.8-2.1 2.3-1.2 8.4-1.3 7.7-.1-.4.5-1.6.9-2.8.9-1.2 0-3.1.8-4.2 1.6-1.9 1.5-1.8 1.5 2 1.3 4.9-.4 10.8-2.3 11.3-3.7.3-1.1-.9-1.6-6.5-2.7-1.8-.4-3.3-1-3.3-1.5 0-.4 2-1.8 4.5-3s5-3.1 5.6-4.1c1.3-2.5-.4-2.5-4 .1-2.8 1.9-10.1 3.4-10.1 2 0-.4 1.4-1 3-1.4 1.7-.3 3-1 3-1.5 0-1.5-3.2-2.2-4.7-1-1.7 1.5-2 1.1-2.7-2.5-.3-1.5-1-3.4-1.6-4.1-.8-.9-.8-1.5 0-2 .5-.3 1 .1 1 .9 0 .9.5 1.6 1 1.6.6 0 1-.6 1-1.4 0-1.4 2.9-3.1 3.8-2.1.3.2-.1 1.1-.8 2-1.1 1.3-.8 1.5 2.3 1.5 4.1 0 6-1.9 2.8-2.7-2.7-.7-2.7-1.9.2-3.4 2.2-1.2 2.2-1.3-1.1-2.6-3.8-1.5-3.7-2.8 0-5.6 2.1-1.5 3-1.7 4.7-.8 2.7 1.5 2.8 0 0-1.7l-2-1.3 2.3-1.9c2.5-2.1 1.8-2.6-1.2-1-2.6 1.4-10 2.2-10 1 0-.6.7-1 1.5-1 2 0 7.9-3 7.2-3.6-1.2-1.2-8.9 1.8-9.4 3.7-.3 1-1.2 1.9-2 1.9-1.3 0-1.3-.3-.3-1.5s1-1.5 0-1.5c-.8 0-1-.8-.6-2.5.6-2.2.4-2.4-2.1-1.9-1.6.3-4.7.8-7.1 1.2-4.2.7-4.2.7-2.6 3 1.1 1.6 2.2 2.1 3.5 1.7 1.3-.4 2.1-.1 2.5 1 .5 1.3.8 1.4 1.5.3.7-1 1-1.1 2.1 0s1 1.5-.5 2.3c-1.4.8-1.6 1.4-.6 2.5.9 1.1.8 1.4-.4 1.4-.9 0-1.9-.5-2.2-1-1-1.7-5-1.1-7.3 1-1.2 1.1-3 2-4 2-3.1 0-8.6-2.6-7.3-3.4.6-.4.9-1.2.6-1.7-.7-1.1 2.8.1 3.6 1.3.7 1.1 8.9-.2 8.9-1.4 0-.5-.9-.6-2-.3-2.5.8-8-.3-8-1.6 0-.5 1.2-1.4 2.8-2l2.7-1.1-3-1.4c-1.6-.7-3.7-1.3-4.5-1.4-1.1 0-1-.4.5-1.6 1.2-.9 3-1.2 4.3-.9 2.7.7 2.6-1.2-.1-2.9-1.2-.8-2.3-.7-3.7.2-2.6 1.6-4.6.6-2.9-1.4.6-.8 1.7-1.4 2.5-1.4.7 0 1.6-.5 1.9-1 .9-1.5-2.1-4.1-3.9-3.4-1.2.4-1.6 0-1.6-1.5 0-1.2.6-2.1 1.4-2.1 1.8 0 2.9-1.7 2.1-3-.5-.8-1.1-.7-2.1.1-1.1.9-1.4.8-1.4-.4 0-.9.3-1.8.8-2 1.1-.7.7-6-.6-8.2-1.1-1.9-1.1-1.9-1.2.2 0 1.2-.8 2.6-1.7 3.2-1.5.8-1.6 1.2-.5 2.2 1.9 2 1.5 5-.5 4.2-1.6-.6-1.6-.4.1 1.5 1.1 1.2 1.7 2.3 1.5 2.5-.2.2-2.1 1.2-4.1 2.2-4.5 2.3-5 3.8-.8 2.2 1.6-.6 3.3-.7 3.7-.3.4.5.2 1.1-.4 1.3-.7.3-1.3.9-1.3 1.4 0 .4.7.6 1.6.2 1.2-.4 1.5-.2 1.2.8-.3.8-1.3 1.3-2.2 1.3-1.3-.2-1.4.1-.5 1.2.6.8 1.8 1.4 2.5 1.4.8 0 1.4.7 1.4 1.5 0 1.9-.5 1.9-3.6-.1-3.2-2.2-4.6-.8-1.5 1.5 1.3 1 2.1 2.3 1.7 3-.5.7.1 1.1 1.5 1.1 3.3 0 1.1 1.8-2.6 2.2-3.5.4-4 2.2-.8 2.6 1.7.3 2.1 1 2.1 3.3-.1 1.7-.4 2.5-.8 1.9-.4-.6-2.4-1.3-4.6-1.5-2.1-.2-3.1-.2-2.1.1.9.3 1.7 1 1.7 1.5s.8.9 1.8.9 2.3.5 2.9 1.1c1.4 1.4 7.5 1.6 11.8.5 2.6-.6 2.8-.6 1.5.7-2 1.9-9.8 3.8-10.6 2.6-.9-1.5-2.4 0-1.7 1.8.5 1.3.3 1.5-1.3.9-5.4-2.3-9.7-1.8-7.5.8.9 1.1.5 1.5-2 2-4.9 1-5.6.7-3.1-1.4 2.9-2.4 2.1-4-1.8-3.7-2.1.1-3 .7-3 1.9 0 1.7-2.4 2.8-7.4 3.3-1.1.1-2.2.4-2.3.5-.2.1-.7.3-1.3.4-.5 0-1 .5-.9 1.1.3 3.7-14-.8-18.8-5.9-1.3-1.4-3.2-2.6-4.1-2.6-1.3.1-.9.8 1.6 3 1.7 1.6 3.2 3.2 3.2 3.4 0 1.4-5.2-.3-9.7-3.2-3.5-2.2-5.9-3.1-7.2-2.7-2.5.8-3.6-1.1-1.4-2.4 1.5-.9 1.4-1-1.1-1.1-2.5 0-2.7-.2-1.5-1.6 2.6-3.2 15.5-.2 20.1 4.6.9 1 1.4 2.1 1.1 2.4-.4.3.3.6 1.4.6 1.1 0 2.3.3 2.7.7.6.7 7.5 3.3 8.7 3.3 1.2 0 1.8-4.4.7-5.1-.6-.4-.7-1.2-.2-2 .5-.8.7-2.3.6-3.4-.1-1.1.2-2.6.7-3.4.8-1.2 1.2-1.2 2.5-.2.9.7 3.8 1.4 6.6 1.4 4.3.1 5 .4 5 2s-.5 1.8-2.8 1.4c-1.5-.3-3.5-.9-4.4-1.2-1.1-.4-1.8-.3-1.8.4 0 .6 1.1 1.1 2.5 1.1 3 0 3.4 2.6.5 3.5-1.1.3-2 1.1-2 1.6 0 1.3.7 1.2 6.4-1.7 2.8-1.4 6.9-2.7 9-2.7 2.2-.1 4.1-.8 4.4-1.5.3-1-.8-1.2-4.7-.9-4.4.4-5.1.1-5.7-1.6-.4-1.4 0-2.5 1.2-3.4 1.7-1.2 1.7-1.3-.3-1.3-1.2 0-2.3.5-2.5 1.2-.2.6-1.2.9-2.1.5-2.2-.8-1.1-3.7 1.4-3.7 1 0 1.9-.5 1.9-1 0-1.3-2.7-1.3-3.5 0-.3.5-1.2.7-2 .4-.8-.4-1.2-1-.9-1.5.3-.5-.2-1.2-1-1.5-2.4-.9-1.9-2.1 1.4-3.3 1.6-.5 3-1.5 3-2 0-1.4-1.6-1.4-4-.1-1.5.8-1.7.6-1.3-.9.3-1.1 1.9-2.7 3.6-3.6 2.3-1.2 2.5-1.5 1-1.2-2.4.5-4-.7-2.3-1.8 1.8-1.1 1.1-2.7-.9-2-1.6.5-2 .2-1.8-1.9.3-3.1-1.7-3.9-2.1-.8-.2 1.2-.8 2-1.3 1.7-.5-.4-.6.7-.3 2.5.5 2.4.3 3-1 3-1.2 0-1.5.6-1 2.4.5 2.1.1 2.5-2.5 3.1l-3.1.7 2.2 2 2.3 1.9-2.7-.5c-3-.7-4 1-1.3 2.1 1.4.5 1.4.8 0 2.9-1.3 2.1-1.4 2.5-.1 3 .8.3 1.6 1.5 1.9 2.6.5 1.9.2 2-3.1 1.5l-3.7-.6 2.8 2.3c3.9 3.1 2.9 5.9-1.6 4.3-1.8-.6-3.8-1.6-4.5-2.4-2.8-2.8-16.4-8.4-19.8-8.1-3.8.3-5.5-.9-3.4-2.2 1.3-.8 1.2-1-.2-1-2.5 0-2.2-1.3 1-4.5 2.5-2.6 2.6-2.7.5-2.1-1.5.5-2.3.3-2.3-.5s1.9-1 7-.7c5 .4 7 .2 6.7-.6-.2-.6-3-1.2-6.3-1.4-8.1-.4-9.2-.8-7.1-2.9 1.1-1.1 3-1.6 5.3-1.5 2.6.2 3.5-.1 3.2-1-.3-.9-2.7-1.3-7.4-1.3-3.8-.1-7.6-.4-8.4-.7-.8-.3-2.4-.9-3.5-1.4-1.8-.6-1.8-.8-.2-1.1.9-.3 1.7-.9 1.7-1.5s-1-.8-2.4-.4c-1.5.4-2.8 0-3.7-1-.8-1-2.5-1.4-4.8-1.2-2.9.2-3.6 0-3.5-1.5.1-.9-.2-1.7-.7-1.7-.5 0-.9.4-.9 1 0 1.9-1.6 1-1.7-1-.1-1.1.1-1.8.5-1.6.4.2 1.6-.2 2.6-1 1.8-1.3 1.8-1.4.1-2-1.7-.7-1.7-.8.1-2.2 1.8-1.3 1.7-1.4-1.3-.8-2.5.4-3.3.2-3.3-.9 0-.8.4-1.5 1-1.5.5 0 .7-.7.4-1.5-.4-.8-.1-1.5.5-1.5s1.1-.6 1.1-1.4c0-.9-.7-1.2-1.9-.9-1.2.3-2-.2-2.3-1.5-.4-1.4 0-2.2 1.3-2.5 1.1-.3 1.9-1.1 1.9-1.7 0-.7-.7-1-1.5-.6-1.8.7-2-1.5-.3-3.2.9-.9.9-1.2 0-1.2-.7 0-1.2-.7-1.2-1.6 0-1.8-.8-1.8 22 0 4.7.4 4.9.4 1.5-.3-2.2-.5-3.7-.9-3.4-1 .3 0 7.7-1.2 16.5-2.6 20.2-3.2 26.7-3.2 36.7 0 14.9 4.8 23.4 5.8 49.2 6 22.1.1 24.5.3 29.9 2.3 3.3 1.2 9.8 2.7 14.5 3.2 4.7.6 10.7 1.7 13.3 2.5 11.9 3.6 23.1 2.7 38.5-3.1 9.3-3.5 17.4-3.3 24.4.6 14.2 7.9 15.8 8.4 21.7 7.2 2.9-.6 7.3-2.1 9.7-3.3 5.8-2.9 11.7-2.3 22.3 2.5l8.3 3.7 4.6-3.1c8.6-5.6 19.8-7.5 27.9-4.6 6.5 2.2 14.4 2.7 26.2 1.6 12.3-1.1 28.8 0 55.8 4 7.2 1.1 14.7 2.1 16.5 2.2 1.9.1 5.4 1.4 7.9 2.8 2.5 1.5 5.8 3 7.4 3.4 1.6.4 3.8 1.4 4.9 2.1 2 1.4 2 1.4-.4 2.3-1.3.5-4.2 1.7-6.4 2.7-9.4 4-28.1 8.4-44.9 10.5-8.3 1-14.6 2.8-14.6 4.2 0 .4 3.1 2.3 6.9 4.3 3.8 1.9 7.2 3.9 7.5 4.4.9 1.3-3 2.6-24.4 8-10.7 2.7-20.8 5.5-22.5 6.1-1.6.6-9.5 2.7-17.5 4.6-8 1.9-17.2 4.1-20.5 4.9-3.3.8-13.2 2.4-22 3.5s-20.3 2.9-25.5 3.9c-5.2 1.1-13.5 2.4-18.5 3.1-16.8 2.1-28 4-32.5 5.5-5.1 1.7-3.3 1.6 10-.8 4.7-.9 14.1-2.3 21-3.2 6.9-.9 15.6-2.2 19.4-3 3.8-.8 15.5-2.6 26-4 18.9-2.4 51.5-9.4 63.1-13.5 3.3-1.2 14-4.1 23.8-6.5 24.1-5.9 27-8.1 17.7-13.2-8.2-4.5-8.5-4.3 16.5-8.9 8.3-1.5 17.9-3.5 21.5-4.5 8.1-2.3 20.3-7.4 20.8-8.7.7-2.2-21.3-13.2-23.6-11.8-.5.3-6.7-.3-13.8-1.4-29.7-4.3-41.2-5.2-59.9-4.5-19.9.7-22.8.2-28.7-4.6-3.5-2.7-5.5-3.3-18.6-5.5-8.1-1.3-18.7-3.5-23.7-4.9-4.9-1.4-11.4-2.5-14.3-2.5-5.1 0-5.3-.1-4.7-2.2 1.3-4.1 4-5.8 14.4-8.8 10.5-3 19.3-4.2 59.6-8.1 12.7-1.2 23.4-2.6 23.9-3 .5-.5.4-1.5-.4-2.4-1.6-1.9-1.7-1.9 4.8-3.6 3-.8 5.4-1.8 5.5-2.4.1-.5-2.5-1.7-5.8-2.6-3.3-.9-8.2-2.7-11-3.9-3.8-1.8-7.8-2.5-17.6-3.1-12.1-.8-20.9-2.9-20.9-5 0-1.3-1.5-1.2 45.5-1.3 29.9-.1 45.3-.5 50.4-1.4 4.1-.7 7.7-1.5 8-1.7 1.1-1.1-.7-1.3-4.4-.5-9.6 2.1-37.8 3.2-67.2 2.5-24.2-.6-30.6-.5-31.9.6-1.3 1-2 1-4.3-.4-3.8-2.3-13.6-4.7-18.8-4.7-6.5 0-13.9-1.9-17.5-4.6-9-6.6-12.2-8.2-18-9.3-3.5-.7-8.7-2-11.5-2.8-4.5-1.4-6-1.5-10-.4-2.7.7-10.9 1.7-18.3 2.1-8.3.6-16.2 1.7-20.5 2.9-9.2 2.8-10.8 2.7-16.1-1-6.4-4.4-17.9-9.6-25.4-11.5-10.1-2.5-23.5-1.5-38.7 3-14.1 4.1-16.5 4.3-25.1 1.6-7.6-2.4-11.9-2.5-23.2-.5-10.7 1.9-16.8 1.9-24.8 0-3.5-.8-11.2-1.9-17.2-2.5-12-1-16.5-2.4-38-11.6-15-6.5-11.5-6.1-41.5-5.3-8.4.2-11-.1-16-2.1-4.7-1.8-8.7-2.4-18.7-2.8-9.1-.3-12.8-.1-12.8.7zm255.2 21c4.1 1.1 11.4 3.8 16.2 6.2 7.3 3.5 9.7 5.4 15.4 11.7 7.7 8.6 18 16.2 25.8 19.2 5.5 2 19 4 27.5 4 6.4 0 13.9 2.4 19.6 6.4 2.6 1.8 7.1 4.3 9.8 5.5 5.9 2.6 5.3 3.3-4.6 5.5-13 2.9-16.3 2.6-27-2.7-7.7-3.8-11.8-5.2-20.8-6.8-12.7-2.2-20.9-5-25-8.5-1.6-1.3-7.7-8.4-13.5-15.7-11.5-14.4-14.6-17.1-22.1-18.7-5.1-1.1-17.2-5.7-18.9-7.2-1.9-1.5 10.1-.8 17.6 1.1zm99.3 9.6c9.2 2 11.6 3 17.4 7.9 4.9 4.1 10.7 5.9 23.9 7.4 7 .8 10.5 1.8 14 3.8 11.1 6.5 11.9 6.7 25.2 7.5 11.1.6 13.7 1.2 19.8 3.8 3.9 1.7 8.4 3.1 10.1 3.1 3.9 0 4.9 1.8 1.4 2.6-1.5.3-3.5.8-4.3 1-6.5 1.7-29 3.6-52.5 4.5-15.4.5-29.4 1.4-31.1 2-3.8 1.2-9.1-.9-18-6.9-7.8-5.2-10.5-6-26.1-7.2-19.9-1.4-29.7-5.6-42.2-18l-6.6-6.4 5-.7c2.8-.4 7.6-1.4 10.8-2.3 3.5-.9 10.8-1.6 19.2-1.7l13.5-.2 7.7 8c7.5 7.6 8.2 8.1 17.3 11.1 5.2 1.8 10 3.2 10.5 3.2.6-.1-3.1-1.6-8.2-3.4-11.2-3.9-16.4-7.4-21.5-14.3-2.1-2.9-4.6-5.3-5.6-5.3-1.5 0-1.5-.2-.2-1 1.9-1.3 10.1-.7 20.5 1.5zm104.3 41.7c-.3.9-6.4 1.8-18.4 3-39.5 3.7-50.4 5.1-61.9 7.7-9.7 2.3-13.6 2.7-20.2 2.4-4.6-.3-8.3-1-8.3-1.5 0-.6.7-.8 1.5-.5 3.2 1.3 19.4-2.1 24.7-5l5.3-3 30.5-1.2c16.8-.7 32.8-1.6 35.5-2 8-1.3 11.7-1.3 11.3.1zm-369.6 47c-.7.7-1.2.8-1.2.2 0-1.4 1.2-2.6 1.9-1.9.2.3-.1 1.1-.7 1.7zm-40.1 9.1c-.1 1.2-1.5.9-1.9-.4-.3-.6.1-1 .8-.8.6.3 1.1.8 1.1 1.2zm146.3 14.8c-.3.5-1 .7-1.5.3-.5-.3-.7-1-.3-1.5.3-.5 1-.7 1.5-.3.5.3.7 1 .3 1.5zm-94.4 2.8c0 2-2.7 4.8-3.7 3.7-.9-.8 1.4-5.6 2.7-5.6.5 0 1 .8 1 1.9zm16.4-.9c-.9.8-5.3.7-4.8-.2.3-.4 1.6-.7 2.9-.6 1.3.1 2.2.5 1.9.8zm42.8 5.7c-.8 2.3-2.5 1.4-1.8-1 .3-1.2.6-2.9.7-3.7 0-.8.4-.4.8 1s.6 3.1.3 3.7zM95 521.8c0 1.3-1.2 2.2-2.2 1.6-1-.6-.1-2.4 1.3-2.4.5 0 .9.4.9.8zm16.7 2.1c.1 1.1-.6 2.2-1.5 2.6-1.5.6-1.4.8.6 1.6 2.7 1 2.9 3.9.3 3.9-2.2 0-3-2.3-2.3-6.8.5-3.5 2.7-4.4 2.9-1.3zM41.5 526c19.2 8.5 25 10.4 35.4 11.4 3.5.3 7 1.1 7.7 1.7.7.6 3.3 1.1 5.8 1.1s4.8.4 5.2.9c.3.5 0 .9-.7.9-.8 0-.8.4.1 1.5 1.7 2 .3 2-14-.5-6.3-1.1-12.8-2-14.5-2-1.6 0-3.7-.5-4.5-1-1.3-.9-1.3-1.1 0-2 1.3-.8 1.2-1-.2-1-1 0-1.8.5-1.8 1.1 0 .7-.7.8-1.7.4-1-.3-6-1.3-11.1-2.1-9.5-1.4-16.8-3.9-8.7-2.9 2.2.2 6 .7 8.5.9 2.5.2 5.8.9 7.4 1.6 1.6.6 3.1.8 3.4.6.8-.9-4.3-2.5-15-4.6-5.6-1.1-10.7-2.5-11.3-3.2-.7-.8.2-.9 3.3-.4 2.9.4 4.1.3 3.7-.4-.3-.5-3.5-1-7.1-1-3.6 0-6.4-.4-6.4-1 0-.9 2-1.4 4.7-1.1.6.1 1.4-.3 1.8-.9.7-1.2 4.4-.5 10 2zm119.4 5.2c.5 1.3.7 2.6.4 3-.8 1.4-4.6.8-5.8-.9-1.1-1.4-1-2 .4-3 2.4-1.9 4.1-1.6 5 .9zm36.5-.6c.8 2.1.8 2.4-.3 2.4-.5 0-1.1-.9-1.4-2-.6-2.4.8-2.7 1.7-.4zM89 534c1.2.8 1 1-1 .9-1.4-.1-3.6-.5-5-.9-2.3-.7-2.2-.8 1-.9 1.9 0 4.2.4 5 .9zm-42.9 3.9c7.4 1.5 15.2 3.6 17.4 4.6 2.2 1 5.1 1.7 6.4 1.6 1.4-.2 2.1.1 1.7.8-.9 1.4-5.3 1.5-5.8.1-.6-2-28.2-6.3-40.2-6.3h-4l4.5-1.7c2.4-1 4.9-1.8 5.5-1.9.6-.1 7.1 1.2 14.5 2.8zm52.9-.3c4.1.8 8.7 1.8 10.3 2.1 1.5.3 2.7.9 2.7 1.4 0 1.2-1.4 1.1-8.5-.5-3.3-.8-8.4-1.7-11.3-2.1-2.8-.4-4.9-1.1-4.6-1.6.7-1.2 2.5-1.1 11.4.7zm19 0c0 1.9-1.2 2.3-3.1 1.1-2.6-1.6-2.4-2.5.6-2.3 1.4 0 2.5.6 2.5 1.2zm107.5.4c-.3.5-1.5 1-2.6 1-1 0-1.9-.5-1.9-1 0-.6 1.2-1 2.6-1 1.4 0 2.3.4 1.9 1zm-182.9 3.6c7.6 1.9-7.7 3.3-19 1.8-6.6-1-5.7-2.5 1.2-1.9 4.2.4 5.2.3 3.7-.5-1.5-.7-.1-.9 4.9-.5 3.8.3 7.9.8 9.2 1.1zm72.4-.6c0 .5-.5 1-1.1 1-.5 0-.7-.5-.4-1 .3-.6.8-1 1.1-1 .2 0 .4.4.4 1zm105-.5c0 1.8-12.8 4.9-14.9 3.6-2.1-1.3.4-2.5 6.9-3.2 3-.3 6.1-.7 6.8-.8.6 0 1.2.1 1.2.4zM9.3 542.9c-.2.6 1 1.1 2.9 1.1 2.4 0 2.9.3 2 1.2-1.7 1.7-6.7 1.4-8.6-.5-2-2-2-2.4.2-3 2.4-.6 3.7-.2 3.5 1.2zm7.7-.3c0 .2-1.4.4-3.1.4-1.6 0-2.8-.4-2.5-.9.5-.8 5.6-.3 5.6.5zm210 .2c0 1-2.2 3.2-3.2 3.2-1.3 0-.9-2.8.5-3.3 1.9-.8 2.7-.8 2.7.1zm-121.2.9c-1 .2-2.8.2-4 0-1.3-.2-.5-.4 1.7-.4 2.2-.1 3.2.1 2.3.4zm7.2.3c0 .6-1.1 1-2.5 1s-2.5-.4-2.5-.8 1.1-.9 2.5-1c1.4-.1 2.5.3 2.5.8zm-69.2 4.3c3.4 1 6.2 2.1 6.2 2.3 0 .6-12.4.2-13.5-.5-.5-.3-2.3-.6-4-.7-20.1-.4-20.1-.4-18-2 2.9-2.2 20.9-1.7 29.3.9zm57.6-1.4c.3.4-.6.6-1.9.3-1.4-.2-2.5-.6-2.5-.8 0-.8 3.9-.4 4.4.5zm29.7 3.2c2.7 1.2 4.9 2.4 4.9 2.8 0 .3 2.1.7 4.8.7 2.7.1 7.2 1.3 10.7 2.9 6.8 3.1 5.8 4.7-1.3 1.9-2.6-1-5.1-1.7-5.6-1.6-.5.2-2.1-.1-3.6-.6-1.6-.6-3.3-.6-4.3-.1-1.2.7-2.2.4-3.7-1.1-1.1-1.1-2.8-2-3.8-2-2.1 0-5.6-3.3-4.5-4.3.9-.9.8-1 6.4 1.4zm56-.1c.5 0 .9.4.9 1 0 .5-1.1 1-2.5 1-1.6 0-2.5-.6-2.5-1.6 0-1.1.5-1.4 1.6-1 .9.3 2 .6 2.5.6zm-80.8 2.4c.5.8 1 .6 1.7-.4.6-1 2.8-1.5 7.3-1.5 5.8 0 6.7.3 10.1 3.3 2.1 1.8 5.4 4.1 7.2 5 4.3 2 4.3 3.4 0 2.9-3.4-.4-9.6-4.1-9.6-5.7 0-1.4-8-3.2-10.9-2.5-3.8.9-4.4.9-6.8.1-1.8-.6-2.2-.4-1.7.8.3.9.1 1.6-.5 1.6s-1.1-.6-1.1-1.4c0-.8-.7-1.7-1.6-2-.8-.3-1.3-1-1-1.5.7-1.1 5.9-.1 6.9 1.3zm-7.3 1.5c0 .5-.7 1.2-1.6 1.5-2.5 1-5.4.7-5.4-.5 0-.6.7-.9 1.5-.6.8.4 1.7.2 2-.3.8-1.3 3.5-1.3 3.5-.1zm91 .7c0 .8-.4 1.2-1 .9-.5-.3-1-1-1-1.6 0-.5.5-.9 1-.9.6 0 1 .7 1 1.6zm-72 2.9c2.2 1.4 4 2.9 4 3.4 0 1.3 5.7 3.1 9.9 3.1 5 0 7.4 1.6 3.8 2.5-4.1 1.1-12.7-1.6-18.2-5.7-2.7-2.1-5.3-3.8-5.7-3.8-.5 0-.8-.5-.8-1 0-1.7 2.9-1.1 7 1.5zm-105-.6c0 .5-1.1 1.1-2.5 1.3-2.8.6-3.5-.8-.7-1.5 2.8-.8 3.2-.7 3.2.2zm81.4.7c2.5.9 1.9 2.4-.9 2.4-2.4 0-3.2-1-1.8-2.3.8-.8.8-.8 2.7-.1zM20 558.9c0 .5-1.8 1.1-4 1.3-4 .4-5.5-.7-2.2-1.5 3.1-.8 6.2-.7 6.2.2zm5 .1c0 .5-.4 1-1 1-.5 0-1-.5-1-1 0-.6.5-1 1-1 .6 0 1 .4 1 1zm91 4c2.2 1.1 4 2.3 4 2.5 0 .8-7.7-.3-12.3-1.7-3.2-1-3.6-1.3-2.1-1.9 3.3-1.3 6.4-1 10.4 1.1zm101.7-1.4c-.3.3-1.2.4-1.9.1-.8-.3-.5-.6.6-.6 1.1-.1 1.7.2 1.3.5zm-117.3 3.9c.6.9 2.6 1.6 4.3 1.8 1.8.1 3.3.6 3.3 1 0 .5-2.2.6-5 .2-3.2-.4-5-.3-5 .3s.6 1.2 1.3 1.5c1.9.7.1 1.9-3.2 2.1-3.7.3-3.9-.6-.8-2.7 1.8-1.3 1.9-1.6.5-1.6-2.5-.1-2.2-1.6.5-2.9 2.9-1.4 2.8-1.4 4.1.3zm125.4-.3c-.6 1.8-4.8 1.9-4.8.2 0-.8 1.1-1.4 2.6-1.4 1.6 0 2.4.5 2.2 1.2zm-116.1 5.4c-.3.3-1.2.4-1.9.1-.8-.3-.5-.6.6-.6 1.1-.1 1.7.2 1.3.5z"/><path d="M355.1 409.4c.9.9 11.2 3.7 11.7 3.1.2-.2-1.6-.9-3.9-1.5-2.4-.6-5.3-1.4-6.4-1.7-1.1-.3-1.7-.2-1.4.1zM336.8 420.7c.7.3 1.6.2 1.9-.1.4-.3-.2-.6-1.3-.5-1.1 0-1.4.3-.6.6zM345 423.4c3 1.2 7.5 3.3 9.8 4.5 2.4 1.2 4.6 2.1 4.8 1.8.6-.5-17.1-8.7-18.8-8.7-.7.1 1.2 1.1 4.2 2.4zM327.8 423.7c.7.3 1.6.2 1.9-.1.4-.3-.2-.6-1.3-.5-1.1 0-1.4.3-.6.6zM371.8 428.7c.7.3 1.6.2 1.9-.1.4-.3-.2-.6-1.3-.5-1.1 0-1.4.3-.6.6zM376.3 429.7c.9.2 2.3.2 3 0 .6-.3-.1-.5-1.8-.5-1.6 0-2.2.2-1.2.5zM372.8 433.7c.7.3 1.6.2 1.9-.1.4-.3-.2-.6-1.3-.5-1.1 0-1.4.3-.6.6zM377.8 434.7c.6.2 1.8.2 2.5 0 .6-.3.1-.5-1.3-.5-1.4 0-1.9.2-1.2.5zM383.3 435.7c.9.2 2.3.2 3 0 .6-.3-.1-.5-1.8-.5-1.6 0-2.2.2-1.2.5zM396.3 436.7c.9.2 2.5.2 3.5 0 .9-.3.1-.5-1.8-.5-1.9 0-2.7.2-1.7.5zM369 438c.8.5 2 1 2.5 1 .6 0 .3-.5-.5-1s-1.9-1-2.5-1c-.5 0-.3.5.5 1zM392.3 446.7c.9.2 2.3.2 3 0 .6-.3-.1-.5-1.8-.5-1.6 0-2.2.2-1.2.5zM377.5 456c-.3.5-.2 1 .4 1 .5 0 1.3-.5 1.6-1 .3-.6.2-1-.4-1-.5 0-1.3.4-1.6 1zM64.8 537.7c.6.2 1.8.2 2.5 0 .6-.3.1-.5-1.3-.5-1.4 0-1.9.2-1.2.5zM435.8 374.7c.6.2 1.8.2 2.5 0 .6-.3.1-.5-1.3-.5-1.4 0-1.9.2-1.2.5zM744.3 374.7c.9.2 2.5.2 3.5 0 .9-.3.1-.5-1.8-.5-1.9 0-2.7.2-1.7.5zM863.3 374.7c.9.2 2.3.2 3 0 .6-.3-.1-.5-1.8-.5-1.6 0-2.2.2-1.2.5zM634.5 376c1.1.5 2.7.9 3.5.9.9 0 .8-.4-.5-.9-1.1-.5-2.7-.9-3.5-.9-.9 0-.8.4.5.9zM752.3 375.7c.9.2 2.3.2 3 0 .6-.3-.1-.5-1.8-.5-1.6 0-2.2.2-1.2.5zM880 378.1c6.9 1.6 13.2 2.8 14 2.6 1.7-.3-22.7-5.7-25-5.6-.8 0 4.1 1.4 11 3zM511.7 377.1c.7.7 1.5 1 1.8.7.3-.3-.2-.9-1.2-1.2-1.4-.6-1.5-.5-.6.5zM758.3 376.7c.9.2 2.3.2 3 0 .6-.3-.1-.5-1.8-.5-1.6 0-2.2.2-1.2.5zM537.8 377.7c.7.3 1.6.2 1.9-.1.4-.3-.2-.6-1.3-.5-1.1 0-1.4.3-.6.6zM764.3 377.7c.9.2 2.3.2 3 0 .6-.3-.1-.5-1.8-.5-1.6 0-2.2.2-1.2.5zM949.8 377.7c-1 .3-1.8.8-1.8 1.3 0 1.3 3.3 2.1 4.4 1 1.3-1.3-.3-2.8-2.6-2.3zM643.8 378.7c.7.3 1.6.2 1.9-.1.4-.3-.2-.6-1.3-.5-1.1 0-1.4.3-.6.6zM770.3 378.7c.9.2 2.5.2 3.5 0 .9-.3.1-.5-1.8-.5-1.9 0-2.7.2-1.7.5zM940.2 379.1c.2.7 1 1.5 1.7 1.7.8.3 1.2-.1.9-.9-.2-.7-1-1.5-1.7-1.7-.8-.3-1.2.1-.9.9zM521.3 379.7c.9.2 2.5.2 3.5 0 .9-.3.1-.5-1.8-.5-1.9 0-2.7.2-1.7.5zM578 379.4c0 .3 1.4 1.2 3 2.1 1.7.9 3 1.3 3 1.1 0-.3-1.3-1.2-3-2.1-1.6-.9-3-1.3-3-1.1zM778.8 379.7c1.2.2 3 .2 4 0 .9-.3-.1-.5-2.3-.4-2.2 0-3 .2-1.7.4zM1020.8 380.9c-.6 1-1.7 1.7-2.4 1.4-2.2-.8-5.4 1.6-5.4 4.2 0 1.3.5 2.7 1 3 .6.4 1-.7 1-2.4 0-2.4.4-3.1 2-3.1 2.1 0 2.7 1.5 1 2.5-.5.3-1 1.4-1 2.3.1 1.3.6 1.1 2.4-.9 1.2-1.4 2.9-2.9 3.7-3.2.9-.4 1-.6.2-.6-1.5-.1-1.8-3.1-.3-3.1.6 0 1-.5 1-1 0-1.7-1.9-1.1-3.2.9zM650.8 380.7c.7.3 1.6.2 1.9-.1.4-.3-.2-.6-1.3-.5-1.1 0-1.4.3-.6.6zM788.8 380.7c1.2.2 3 .2 4 0 .9-.3-.1-.5-2.3-.4-2.2 0-3 .2-1.7.4zM798.8 381.7c1.2.2 3 .2 4 0 .9-.3-.1-.5-2.3-.4-2.2 0-3 .2-1.7.4zM896.8 381.7c.6.2 1.8.2 2.5 0 .6-.3.1-.5-1.3-.5-1.4 0-1.9.2-1.2.5zM182 382.4c0 .3.9 1 2 1.6 1.1.6 2 .8 2 .6 0-.3-.9-1-2-1.6-1.1-.6-2-.8-2-.6zM609.1 382.5c.8.8 26.9 10.5 28.1 10.5 1.2-.1-26.8-11-28-11-.3 0-.3.2-.1.5zM657.8 382.7c.7.3 1.6.2 1.9-.1.4-.3-.2-.6-1.3-.5-1.1 0-1.4.3-.6.6zM806.3 382.7c.9.2 2.3.2 3 0 .6-.3-.1-.5-1.8-.5-1.6 0-2.2.2-1.2.5zM902.3 382.7c.9.2 2.3.2 3 0 .6-.3-.1-.5-1.8-.5-1.6 0-2.2.2-1.2.5zM812.3 383.7c.9.2 2.3.2 3 0 .6-.3-.1-.5-1.8-.5-1.6 0-2.2.2-1.2.5zM908.8 383.7c1.2.2 3.2.2 4.5 0 1.2-.2.2-.4-2.3-.4s-3.5.2-2.2.4zM920 384c-3.4.7-3.4.7 1.2.9 2.6 0 5-.4 5.3-.9.7-1.1-1.2-1.1-6.5 0zM152.8 384.7c.7.3 1.6.2 1.9-.1.4-.3-.2-.6-1.3-.5-1.1 0-1.4.3-.6.6zM160.7 385c-11.6 1.1-10.3 1.8 2.2 1.2 8.1-.3 11.5-.1 12.6.8 1.1.9 1.5.9 1.5.1 0-1.3-4.3-3.2-6.8-3-.9.1-5.2.5-9.5.9zM818.3 384.7c.9.2 2.3.2 3 0 .6-.3-.1-.5-1.8-.5-1.6 0-2.2.2-1.2.5zM409.5 386.5c2.2.8 5.1 1.3 6.5 1.3 1.4 0 0-.6-3-1.3-6.9-1.8-8.8-1.7-3.5 0zM671.5 387c2.8 1 5.7 1.8 6.5 1.8.8 0-.7-.8-3.5-1.8-2.7-1-5.7-1.8-6.5-1.8-.8 0 .8.8 3.5 1.8zM823.8 385.7c.6.2 1.8.2 2.5 0 .6-.3.1-.5-1.3-.5-1.4 0-1.9.2-1.2.5zM190.1 386.9c.9.6 4.9 1.5 8.8 2.1 4 .5 9 1.9 11.1 3 2.2 1.1 4.3 2 4.7 2 .4-.1-1.4-1.3-4.1-2.7-2.8-1.4-7.9-2.9-11.6-3.4-3.6-.4-7.4-1.1-8.5-1.4-1.7-.6-1.8-.5-.4.4zM828.8 386.7c.6.2 1.8.2 2.5 0 .6-.3.1-.5-1.3-.5-1.4 0-1.9.2-1.2.5zM147.8 387.7c.6.2 1.8.2 2.5 0 .6-.3.1-.5-1.3-.5-1.4 0-1.9.2-1.2.5zM452.8 387.7c1.2.2 3.2.2 4.5 0 1.2-.2.2-.4-2.3-.4s-3.5.2-2.2.4zM465.3 387.7c.9.2 2.3.2 3 0 .6-.3-.1-.5-1.8-.5-1.6 0-2.2.2-1.2.5zM833.8 387.7c.6.2 1.8.2 2.5 0 .6-.3.1-.5-1.3-.5-1.4 0-1.9.2-1.2.5zM420.3 388.7c.9.2 2.5.2 3.5 0 .9-.3.1-.5-1.8-.5-1.9 0-2.7.2-1.7.5zM443.8 388.7c1.2.2 3 .2 4 0 .9-.3-.1-.5-2.3-.4-2.2 0-3 .2-1.7.4zM470.8 388.7c.7.3 1.6.2 1.9-.1.4-.3-.2-.6-1.3-.5-1.1 0-1.4.3-.6.6zM564.5 391.7c7.1 3.7 24.6 9.3 28.9 9.3 1.2 0 5.8-.9 10.1-2s10-2 12.7-2c4.4 0 10.4 2.1 11.8 4 .9 1.3 21.8 9 24.2 8.9 1.3 0-3.1-2.2-9.7-4.8-6.6-2.6-13.9-5.8-16.2-6.9-5.5-2.8-16-2.9-26.2-.2l-7.3 2-10.7-2.9c-5.8-1.6-13.4-4.2-16.8-6-3.4-1.7-6.6-3.1-7-3.1-.4.1 2.4 1.7 6.2 3.7zM838.8 388.7c.7.3 1.6.2 1.9-.1.4-.3-.2-.6-1.3-.5-1.1 0-1.4.3-.6.6zM430.3 389.7c1.5.2 3.9.2 5.5 0 1.5-.2.2-.4-2.8-.4s-4.3.2-2.7.4zM475.3 389.7c.9.2 2.5.2 3.5 0 .9-.3.1-.5-1.8-.5-1.9 0-2.7.2-1.7.5zM842.8 389.7c.7.3 1.6.2 1.9-.1.4-.3-.2-.6-1.3-.5-1.1 0-1.4.3-.6.6zM850.5 392c1.1.5 2.7.9 3.5.9.9 0 .8-.4-.5-.9-1.1-.5-2.7-.9-3.5-.9-.9 0-.8.4.5.9zM482 393.4c-4.1.8-10.1 1.1-13.5.9-3.9-.3-10.1.4-18 2.1-6.6 1.3-11 2.4-9.9 2.5 1.2.1 5.9-.6 10.5-1.5s12.7-1.7 17.9-1.9c5.2-.1 14-.6 19.6-1 9.2-.7 11.1-.5 23 2.3 12.3 2.9 14.1 3.1 37.9 3.4 13.8.2 23 0 20.5-.4s-14.6-1-27-1.3c-18.9-.6-24-1.1-31.9-3.1-12.1-3.1-19.8-3.6-29.1-2zM770.8 392.7c.7.3 1.6.2 1.9-.1.4-.3-.2-.6-1.3-.5-1.1 0-1.4.3-.6.6zM968.1 394.3c.8 1.8 1.7 2.3 3.5 1.9 2.5-.4 2.4-2.2-.2-2.2-.8 0-1.4-.5-1.4-1 0-.6-.7-1-1.5-1-1.2 0-1.2.5-.4 2.3zM1013.8 393.8c7.1 5.3 6.8 4.9 5.4 7.2-.8 1.2-.9 1.9-.3 1.5.7-.4 1.1.4 1.1 2.1v2.8l2.1-2.3c2-2.1 2-2.3.4-4.1-1.2-1.3-1.5-2.7-1.1-4.5.6-2.3.4-2.5-2.8-2.5-1.9 0-3.8-.5-4.1-1-.3-.6-1.2-1-1.8-1-.7.1-.2.9 1.1 1.8zM640.3 393.7c.9.2 2.3.2 3 0 .6-.3-.1-.5-1.8-.5-1.6 0-2.2.2-1.2.5zM775.8 393.7c.7.3 1.6.2 1.9-.1.4-.3-.2-.6-1.3-.5-1.1 0-1.4.3-.6.6zM798 395.5c-2.5 1.4-8.3 4.5-13 6.8-8.2 4.1-8.9 4.2-19.6 4.6-9.8.3-12.3 0-20-2.3-7.3-2.1-9.5-2.4-12.4-1.6-1.9.6-10.9 1-20 .9-12.6-.1-19.5.3-28.9 1.9-6.8 1.1-12.6 2.4-13 2.8-.3.3.8.4 2.4.1 15-2.9 26.1-3.9 38.4-3.4 8.7.3 15.5 0 19.4-.8 5.5-1.1 6.5-1 13.6 1.3 6.3 2.1 9.4 2.5 18.3 2.4 12.6-.1 17.9-1.7 30.1-8.9 7.9-4.6 8.5-4.8 15.7-4.7 6.6 0 8.3.4 14.7 3.7 5.3 2.7 8.3 3.7 11.5 3.6l4.3-.2-4-.6c-2.2-.4-7.4-2.3-11.5-4.1-10.4-4.7-19.5-5.2-26-1.5zM649.8 394.7c1.8.2 4.5.2 6 0s0-.4-3.3-.4-4.5.2-2.7.4zM662.8 395.7c1.2.2 3.2.2 4.5 0 1.2-.2.2-.4-2.3-.4s-3.5.2-2.2.4zM22.8 397.6c-3.8 2-3.6 2.8.2.9 1.7-.9 3-1.8 3-2 0-.7-.1-.6-3.2 1.1z"/><path d="M811.3 397.7c.9.2 2.5.2 3.5 0 .9-.3.1-.5-1.8-.5-1.9 0-2.7.2-1.7.5zM60 399.5c-1.4.8-2 1.4-1.4 1.5.5 0 1.9-.7 3-1.5 2.4-1.8 1.6-1.9-1.6 0zM801.5 399.7c-1.6.9-5 3.3-7.5 5.3-5.7 4.7-19 13.6-23.2 15.6l-3.3 1.5 3-.6c3.3-.6 15.6-8.6 25.3-16.4 3.5-2.8 7.5-5.4 9-5.7 4.3-.9 4.9-1.2 2.2-1.3-1.4 0-3.8.7-5.5 1.6zM873.8 398.7c1.2.2 3.2.2 4.5 0 1.2-.2.2-.4-2.3-.4s-3.5.2-2.2.4zM12.8 403.1c-2.1 1.1-3.8 2.2-3.8 2.4 0 .3 1.8-.4 4-1.5s4-2.3 4-2.5c0-.7 0-.7-4.2 1.6zM576.3 401.7c.9.2 2.5.2 3.5 0 .9-.3.1-.5-1.8-.5-1.9 0-2.7.2-1.7.5zM582.8 402.7c.7.3 1.6.2 1.9-.1.4-.3-.2-.6-1.3-.5-1.1 0-1.4.3-.6.6zM840.5 403c.5.8-1.8.9-7.2.6-7.6-.5-7.6-.5-1.8.4 3.9.6 8.8.5 13.7-.2 6.9-.9 8.8-.8 16.8 1.2 9.7 2.4 14.9 2.3 27-.3 4.4-1 5.5-1.5 3.5-1.6-1.6-.1-6.3.6-10.3 1.6-7.1 1.6-7.5 1.6-17-.5-10.3-2.3-25.8-3-24.7-1.2zM896.8 402.7c.7.3 1.6.2 1.9-.1.4-.3-.2-.6-1.3-.5-1.1 0-1.4.3-.6.6zM32 404c-.8.5-1 1-.5 1 .6 0 1.7-.5 2.5-1s1.1-1 .5-1c-.5 0-1.7.5-2.5 1zM587.8 403.7c.7.3 1.6.2 1.9-.1.4-.3-.2-.6-1.3-.5-1.1 0-1.4.3-.6.6zM818.5 405.7c-3.8 1.9-8.1 5.9-10.7 9.8-1.1 1.6.2.7 2.8-2.2 4.9-5.1 7.4-6.9 12.3-8.4 2-.6 2.2-.7.6-.8-1.1 0-3.3.7-5 1.6zM43 407.5c-1.4.8-2 1.4-1.5 1.4.6 0 2.1-.6 3.5-1.4 1.4-.8 2.1-1.4 1.5-1.4-.5 0-2.1.6-3.5 1.4zM611.8 406.7c.7.3 1.6.2 1.9-.1.4-.3-.2-.6-1.3-.5-1.1 0-1.4.3-.6.6zM.3 409.6c0 2 .2 2.2 1.3 1.3 1.5-1.3 2-1 8.7 4.8 4 3.5 8.9 4.3 12.9 2.2 3.1-1.7 10.9-1.5 14.3.3 1.7.9 6.3 4.5 10.3 8.1 3.9 3.6 8.9 7.3 10.9 8.3 5.5 2.6 15.2 3 22.9.9 9-2.4 12.9-1.6 23.8 4.8 5.1 3.1 10.4 5.9 11.8 6.2 3.2.8 15.7-2.6 24-6.5 8.8-4.2 17.5-5.5 26.8-4.1 12.2 1.9 19.3 4.8 31 12.6 8.2 5.5 12.4 7.6 16.6 8.5 6.9 1.5 9.9.9 20.4-3.6 15-6.5 23.1-5.7 38.5 3.7 8.3 5 18.2 9.1 26.1 10.9 7.2 1.6 19.2 1.4 26.4-.5 12.8-3.4 23.5-.7 32.6 8.1 2.5 2.5 5 4.4 5.6 4.2 1.8-.6-6.7-8.3-12.9-11.6-8.5-4.5-13.6-4.9-27.2-2.2-9.5 1.9-12.3 2.1-17.9 1.2-7.5-1.1-23.4-7-22.6-8.3.3-.5-.4-.9-1.6-.9-1.1 0-6.3-2.2-11.5-4.9-14.5-7.7-19.7-7.7-37.7-.4-7.9 3.1-9.7 3.5-14.7 3-5.8-.6-12.5-2.9-13.6-4.6-.3-.6 2.2-1.1 6.2-1.4l6.8-.3-7.9-.2c-7.7-.2-8.2-.4-14.9-4.8-9.8-6.6-18.9-9.5-31.2-10.1-10.8-.5-9.3-.8-32 7.1-5.5 2-11.3 3.6-13 3.6-3.5 0-13.9-5.6-13-7 .4-.6 0-1-.8-1s-3.9-1.1-6.9-2.5c-6.5-3-8.7-3.1-18.5-.4-13 3.6-20 1.3-33.7-11-5.9-5.4-8.8-7.3-11.7-7.7-2.1-.4-3.6-1-3.3-1.5.3-.5-.7-.4-2.3.2-8.6 3.2-18.2 2.8-16.9-.8.3-.8.1-1.1-.4-.8-.5.3-2.5-.5-4.2-1.8-1.8-1.3-4.3-2.7-5.4-2.9-1.7-.4-2.1-.1-2.1 1.8zM615.8 407.7c.7.3 1.6.2 1.9-.1.4-.3-.2-.6-1.3-.5-1.1 0-1.4.3-.6.6zM20 409c-.8.5-1 1-.5 1 .6 0 1.7-.5 2.5-1s1.1-1 .5-1c-.5 0-1.7.5-2.5 1zM619.8 408.7c.7.3 1.6.2 1.9-.1.4-.3-.2-.6-1.3-.5-1.1 0-1.4.3-.6.6zM1011.8 410.5c-1.2 2.2-1.2 3.5 0 8.5 1.7 6.9 1 11.5-1.6 10.6-8.4-2.7-10.1-3-12.5-1.7-2.1 1.1-3 1-6.6-.8-3.4-1.8-4.1-2.6-4.1-5.1 0-1.7-.4-3-.9-3s-1.8-.3-2.8-.6c-1.5-.6-1.6-.4-.5.7.6.7 1.2 2.7 1.2 4.5 0 2.9.5 3.4 4.5 4.9 2.5 1 5.5 3.2 7 5.1 3 3.9 9.7 6.3 12.1 4.3 1.1-.9 1.4-.8 1.4.4 0 1.7-6.4 7.7-8.3 7.7-.7 0-2.2.3-3.5.6-1.7.5-2.1.3-1.7-.8.7-1.9-4.8-6.8-7.6-6.8-1 0-2.8.9-3.8 1.9-1.6 1.6-1.8 2.6-1.1 5.2.5 1.8 1.9 4.2 3 5.4 1.1 1.2 2 2.4 2 2.8 0 1.2-4 .7-7.1-.9-5.2-2.6-10.1.7-8.9 6.1.7 3 1 2.8 2.5-2 .5-1.7 3.2-3.1 4.1-2.2.4.3-.2 2.6-1.1 5.1-2.5 6.4-1.4 7.7 1.5 1.7 2.5-5.4 4.2-6.2 7.6-3.6 1 .8 3.6 1.9 5.7 2.5 2 .6 4.4 2.2 5.3 3.5 1.5 2.3 1.4 2.7-.9 7-2.8 4.9-2.1 6 1.2 1.8 5-6.3 3.9-10.6-3.5-14-4.8-2.2-5.3-2.7-4.8-4.9.3-1.3.2-2.4-.3-2.4-1.3 0-4.3-5.5-4.3-7.8 0-1.1.8-2.3 1.7-2.6 2.2-.9 6.8 2.5 6.8 4.9 0 4.1 8 2.9 13.5-2.1 2.2-2 4.3-3.3 4.9-3 .5.3 3.3 3.8 6.2 7.6l5.4 7.1.3-4.2c.3-3.3-.1-4.4-1.7-5.6-2.6-1.8-2.7-3-.1-3.8 1.1-.3 2-1 2-1.5 0-.6-1.1-.5-2.6 0-1.8.7-3.1.7-3.9 0-1.9-1.6-4.6-7.6-4-9.2 1.3-3.7 1.3-12.3-.1-14.9-1.8-3.6-1.8-3.9.3-3.9 2.5 0 10.3-3.1 10.3-4.1 0-1.2-.4-1.1-4.6.8-3.4 1.7-3.6 1.7-4.9-.1-1.3-1.7-1.4-1.6-2.7.9zm-6.3 19.9c3.7 1.6 4.2 2.5 2.3 4.4-2 2-6.3 1.4-8.7-1.2-4-4.3-.4-6 6.4-3.2zM174.8 409.7c.7.3 1.6.2 1.9-.1.4-.3-.2-.6-1.3-.5-1.1 0-1.4.3-.6.6zM625.8 409.7c.6.2 1.8.2 2.5 0 .6-.3.1-.5-1.3-.5-1.4 0-1.9.2-1.2.5zM892 411c0 .5.4 1 .9 1 .6 0 1.3-.5 1.6-1 .3-.6-.1-1-.9-1-.9 0-1.6.4-1.6 1zM167.8 411.7c.7.3 1.6.2 1.9-.1.4-.3-.2-.6-1.3-.5-1.1 0-1.4.3-.6.6zM675.5 413.1c1.1.6 3 2.3 4.2 3.8 1.3 1.4 2.3 2.1 2.3 1.6 0-1.7-5-6.5-6.8-6.5-1.4.1-1.4.2.3 1.1z"/><path d="M45 417c9 2.3 49 4.4 50.8 2.6.3-.4-5.5-.6-12.9-.6-11.8 0-17.3-.4-36.9-2.5-4.2-.4-4.3-.4-1 .5zM145.8 416.7c.7.3 1.6.2 1.9-.1.4-.3-.2-.6-1.3-.5-1.1 0-1.4.3-.6.6zM139.8 417.7c.6.2 1.8.2 2.5 0 .6-.3.1-.5-1.3-.5-1.4 0-1.9.2-1.2.5zM134.3 418.7c.9.2 2.3.2 3 0 .6-.3-.1-.5-1.8-.5-1.6 0-2.2.2-1.2.5zM721.8 418.7c.6.2 1.8.2 2.5 0 .6-.3.1-.5-1.3-.5-1.4 0-1.9.2-1.2.5zM730.8 418.7c.6.2 1.8.2 2.5 0 .6-.3.1-.5-1.3-.5-1.4 0-1.9.2-1.2.5zM928.9 419.7c-1.3 1.6-1.2 1.7.4.4 1.6-1.3 2.1-2.1 1.3-2.1-.2 0-1 .8-1.7 1.7zM125.8 419.7c1.2.2 3 .2 4 0 .9-.3-.1-.5-2.3-.4-2.2 0-3 .2-1.7.4zM739.3 419.7c1.5.2 3.9.2 5.5 0 1.5-.2.2-.4-2.8-.4s-4.3.2-2.7.4zM751.3 419.7c.9.2 2.3.2 3 0 .6-.3-.1-.5-1.8-.5-1.6 0-2.2.2-1.2.5zM106.3 420.7c2.6.2 6.8.2 9.5 0 2.6-.2.4-.3-4.8-.3s-7.4.1-4.7.3zM147 421.5c-1.9.7-2.8 1.4-2 1.4.8 0 2.9-.6 4.5-1.4 3.9-1.7 2.1-1.8-2.5 0zM709.5 422c-1.3.5-1.4.9-.5.9.8 0 2.4-.4 3.5-.9 1.3-.5 1.4-.9.5-.9-.8 0-2.4.4-3.5.9zM139.3 423.7c.9.2 2.3.2 3 0 .6-.3-.1-.5-1.8-.5-1.6 0-2.2.2-1.2.5zM704.8 423.7c.7.3 1.6.2 1.9-.1.4-.3-.2-.6-1.3-.5-1.1 0-1.4.3-.6.6zM891.9 425.7l-2.4 2.8 2.8-2.4c1.5-1.4 2.7-2.6 2.7-2.8 0-.8-.8-.1-3.1 2.4zM133.3 424.7c.9.2 2.3.2 3 0 .6-.3-.1-.5-1.8-.5-1.6 0-2.2.2-1.2.5zM208.4 425.6c-1.8 1.4-1.8 1.5.4.4 1.2-.6 2.2-1.3 2.2-1.5 0-.8-.5-.6-2.6 1.1zM697.8 424.7c.6.2 1.8.2 2.5 0 .6-.3.1-.5-1.3-.5-1.4 0-1.9.2-1.2.5zM126.8 425.7c.6.2 1.8.2 2.5 0 .6-.3.1-.5-1.3-.5-1.4 0-1.9.2-1.2.5zM916 432.2c-6.3 6-6.6 6.3-1.5 2 5.6-4.7 10.3-9.3 9.4-9.2-.2.1-3.8 3.3-7.9 7.2zM119.8 426.7c.7.3 1.6.2 1.9-.1.4-.3-.2-.6-1.3-.5-1.1 0-1.4.3-.6.6zM950.6 427.2c-2.1 6.4-3.6 13-3.1 13.8 1.1 1.8 2.2 1 1.8-1.3-.3-1.2.5-4.6 1.6-7.4 1.2-3.2 1.7-5.5 1.1-5.8-.6-.4-1.2 0-1.4.7zM204 428c-.9.6-1 1-.3 1 .6 0 1.5-.5 1.8-1 .8-1.2.4-1.2-1.5 0zM4.4 429.6c-1.8 1.4-1.8 1.5.4.4 1.2-.6 2.2-1.3 2.2-1.5 0-.8-.5-.6-2.6 1.1zM780.8 428.7c.7.3 1.6.2 1.9-.1.4-.3-.2-.6-1.3-.5-1.1 0-1.4.3-.6.6zM154.8 429.7c.7.3 1.6.2 1.9-.1.4-.3-.2-.6-1.3-.5-1.1 0-1.4.3-.6.6zM199 430c-.8.5-1 1-.5 1 .6 0 1.7-.5 2.5-1s1.1-1 .5-1c-.5 0-1.7.5-2.5 1zM148.5 431c-1.3.5-1.4.9-.5.9.8 0 2.4-.4 3.5-.9 1.3-.5 1.4-.9.5-.9-.8 0-2.4.4-3.5.9zM899.9 433.7l-3.4 3.8 3.8-3.4c3.4-3.3 4.2-4.1 3.4-4.1-.2 0-1.9 1.7-3.8 3.7zM1021.2 431.5c-3.1 1.6-4.7 3.3-4 4 .8.9 6.8-2.9 6.8-4.3 0-.6-.1-1.2-.2-1.1-.2.1-1.4.7-2.6 1.4zM188 432l-6.5.7 6 .1c3.3 0 6.9-.3 8-.8 2.2-.9 1.9-.9-7.5 0zM140 433.1c-1.9.5-9.8 1.8-17.5 2.8-7.7 1.1-12.7 1.9-11.2 2 4.7.2 26.2-2.9 30.9-4.3 4.8-1.6 3.2-1.9-2.2-.5zM682.8 432.7c.7.3 1.6.2 1.9-.1.4-.3-.2-.6-1.3-.5-1.1 0-1.4.3-.6.6zM882.9 433.7c-1.3 1.6-1.2 1.7.4.4 1.6-1.3 2.1-2.1 1.3-2.1-.2 0-1 .8-1.7 1.7zM623.8 433.7c.7.3 1.6.2 1.9-.1.4-.3-.2-.6-1.3-.5-1.1 0-1.4.3-.6.6zM676.8 433.7c.6.2 1.8.2 2.5 0 .6-.3.1-.5-1.3-.5-1.4 0-1.9.2-1.2.5zM687.8 433.7c.6.2 1.8.2 2.5 0 .6-.3.1-.5-1.3-.5-1.4 0-1.9.2-1.2.5zM711 434c-3.4.7-3.4.7-.5.8 1.7 0 5-.3 7.5-.7l4.5-.8h-4c-2.2 0-5.6.3-7.5.7zM7 438c-4.1 2.1-7.2 3.9-6.7 4 1 0 14.7-6.9 14.7-7.5 0-.7.3-.8-8 3.5zM671.8 434.7c.6.2 1.8.2 2.5 0 .6-.3.1-.5-1.3-.5-1.4 0-1.9.2-1.2.5zM692.8 434.7c.6.2 1.8.2 2.5 0 .6-.3.1-.5-1.3-.5-1.4 0-1.9.2-1.2.5z"/><path d="M939.6 436.5c.3 1.3-.1 4.3-1.1 6.8-.9 2.4-1.5 4.7-1.3 5.3.4 1.6-2 7.2-4.1 9.3-2.9 2.9-4.8 2.6-7-1-1.6-2.5-1.7-3.7-.9-6.1 1.2-3.3-.3-5.2-3.2-4.4-4.4 1.3-8.9 3.3-11.1 4.9-1.3 1-1.9 1.5-1.2 1.2.7-.3 1.4 1 1.8 3.4.4 2.6 1.5 4.5 3.1 5.6l2.5 1.6-3 3.5c-2.6 3-3.1 4.2-3 8.7 0 5.5.7 4.9 2.8-2.8 2.1-7.5 9.6-12.9 13.9-10 2.3 1.7 3.4 1 7.6-4.8 3.1-4.2 5.4-4.7 8.4-1.5 3 3.3 4.4 7.8 3.7 11.5-.7 3.9.6 4.3 2.9.8 1.2-1.8 2.5-2.5 4.8-2.5 2.5 0 4.2 1.2 8.9 6 5.6 5.8 8.3 7.3 9.1 4.8.3-.7-1.3-2.1-3.4-3.1-2.1-1.1-3.8-2.3-3.8-2.7 0-.5-1.5-2.5-3.4-4.5-3.2-3.3-3.9-3.6-8.2-3.4-4.5.3-4.8.2-5.6-2.6-.8-3 .4-5.5 2.7-5.5.9 0 1.4-2.1 1.7-7 .2-5.1 0-7-.9-7s-1.3 1.7-1.3 5.3c0 4.1-.5 5.8-2 7.2-1.9 1.7-2.1 1.7-4 0-3.4-3.1-5.3-8-4.1-10.4 1.7-3.1 1.4-9.1-.4-9.1-1.1 0-1.4.7-.9 2.5zm-16.8 14.8c-.1 1.8.4 4.3 1.1 5.5 1.1 2 .9 2.3-1.4 3.2-3.4 1.3-8.2-1.1-9.1-4.5-.8-3.1.1-4.4 4-6.1 4.7-2 5.6-1.8 5.4 1.9zM642.8 435.7c1.2.2 3.2.2 4.5 0 1.2-.2.2-.4-2.3-.4s-3.5.2-2.2.4zM657.3 435.7c.9.2 2.5.2 3.5 0 .9-.3.1-.5-1.8-.5-1.9 0-2.7.2-1.7.5zM664.8 435.7c1.2.2 3 .2 4 0 .9-.3-.1-.5-2.3-.4-2.2 0-3 .2-1.7.4zM703.3 435.7c.9.2 2.3.2 3 0 .6-.3-.1-.5-1.8-.5-1.6 0-2.2.2-1.2.5zM877.4 438.2l-1.9 2.3 2.3-1.9c1.2-1.1 2.2-2.1 2.2-2.3 0-.8-.8-.2-2.6 1.9zM38 445.5c-6.9 3.5-12 6.4-11.5 6.4.6 0 6.6-2.9 13.5-6.4 6.9-3.5 12.1-6.4 11.5-6.4-.5 0-6.6 2.9-13.5 6.4zM891.9 440.7c-1.3 1.6-1.2 1.7.4.4 1.6-1.3 2.1-2.1 1.3-2.1-.2 0-1 .8-1.7 1.7zM905.4 441.2l-1.9 2.3 2.3-1.9c1.2-1.1 2.2-2.1 2.2-2.3 0-.8-.8-.2-2.6 1.9zM166.8 440.7c.7.3 1.6.2 1.9-.1.4-.3-.2-.6-1.3-.5-1.1 0-1.4.3-.6.6zM162.8 441.7c.7.3 1.6.2 1.9-.1.4-.3-.2-.6-1.3-.5-1.1 0-1.4.3-.6.6zM871.9 442.7c-1.3 1.6-1.2 1.7.4.4 1.6-1.3 2.1-2.1 1.3-2.1-.2 0-1 .8-1.7 1.7zM151.2 444c-6.4 1.9-22.5 9-21.9 9.7.2.2 3.8-1.2 7.9-3.2 4.1-1.9 11.1-4.4 15.4-5.6 4.3-1.2 8.1-2.3 8.3-2.5 1-.9-3.9-.1-9.7 1.6zM886.9 444.7c-1.3 1.6-1.2 1.7.4.4 1.6-1.3 2.1-2.1 1.3-2.1-.2 0-1 .8-1.7 1.7zM900.9 444.7c-1.3 1.6-1.2 1.7.4.4 1.6-1.3 2.1-2.1 1.3-2.1-.2 0-1 .8-1.7 1.7zM14 446.5c-1.4.8-2 1.4-1.5 1.4.6 0 2.1-.6 3.5-1.4 1.4-.8 2.1-1.4 1.5-1.4-.5 0-2.1.6-3.5 1.4zM223 447.5c-2.5.7-3.6 1.3-2.5 1.3s3.8-.5 6-1.3c5.2-1.7 2.4-1.7-3.5 0z"/><path d="M890.5 451.6c-4.4 3-8.8 5.4-9.8 5.4-.9 0-5.2 1-9.4 2.2-6.6 2-8 2.8-10.5 6.2-1.5 2.1-2.8 4.6-2.8 5.5 0 1-1.1.2-3-2.1l-3-3.6-4.1 2c-3.3 1.6-4.3 1.7-5 .7-.9-1.5 1.7-3.8 4.2-3.9.9 0 2.4-.9 3.4-2s2.5-2 3.4-2c1.1 0 1.2-.3.4-.8-.7-.5-.9-1.3-.3-2.1.5-.9.2-2.3-.7-3.8-1.4-2.1-2.2-2.3-6.5-2-2.8.3-5.4 1-5.8 1.8-1.2 1.8 0 7.1 1.9 8.6 1.4 1.2 1.4 1.4-.3 2.8-1.1.8-3.2 1.5-4.7 1.5s-4 .5-5.4 1c-2.3.9-2.7 1.5-2.3 4.2.4 2.4.1 3.2-1.4 3.6-1.9.4-2.1 1-2.2 5.2-.1 2.2-.7 2.6-4.6 3.1l-4.5.6 5.3.1c4 .2 5.2.6 5.2 1.8 0 .9.9 1.8 1.9 2.1 1.2.3 1.7 1.1 1.4 1.9-.7 1.8.2 1.8 3.2-.2 3.2-2.1 9.4-2.3 10.5-.4.5.8 1.8 2.6 2.9 3.9 2.6 3 2.7 5.8.2 6.6-3.3 1-8.6.8-10.9-.4-1.3-.7-2.2-.8-2.2-.2 0 1.9 3.8 3.1 9.4 3.1 3.1 0 5.6.2 5.6.4 0 .1-.5 1.7-1.1 3.3-1.2 3.5-4.4 4.6-9 3.3-3.2-.9-3.8 0-1.4 2 1 .8 3 1.1 5.7.7 2.3-.3 5-.1 6 .4 2 1.1 2.4 3.9.7 5.6-.7.7-.7 1.3 0 1.7.5.4 1.7-.4 2.6-1.8 1.1-1.6 2.3-2.3 3.8-2 1.7.3 1.5.1-.5-.8-1.6-.7-2.8-1.5-2.8-1.9 0-1.1 4.8-2 7.5-1.3 2.1.5 2.5 1.2 2.5 4.6 0 3.1-.7 4.9-3.2 7.7-1.7 2-4 4.1-5.2 4.8-1.8 1-2.3.7-3.9-1.9-1-1.7-2.4-2.8-3.1-2.5-.7.3-2.8-.3-4.6-1.4-3-1.9-3.1-2.1-1.6-3.8 1.7-1.9 2.1-4.1.7-4.1-.5 0-1.4 1.2-2 2.8-1.4 3.4-4.3 5.3-8.7 5.7-2.9.3-3.7-.2-5.1-2.6-1.8-3-3.5-3.9-3-1.7.4 2.3-5.3.8-10.9-2.8-8.2-5.3-18.9-9.1-31.5-11.4-16.4-2.9-48.4-6.7-62.4-7.5-11.9-.6-18.2-1.3-19.8-2.2-.5-.3 1-1.6 3.3-3 5-3 4.9-5.1-.2-7.5-5-2.4-24-5.4-45.3-7.3-26.7-2.3-34.8-3.4-35.9-4.5-1.5-1.5-.2-2.1 8.3-4.5 3.9-1 7.1-2.3 7.1-2.8 0-.4-.8-.6-1.7-.3-1 .3-4.9 1.6-8.8 2.8-7.5 2.5-8.9 4.4-4.5 6.5 1.4.6 13.1 2.1 26 3.3 36.8 3.3 57 6.9 57 10.1 0 .5-1.8 2-4.1 3.4-7.2 4.6-4.3 6 15.6 7.5 29.2 2.2 70 8.1 79.8 11.5 3.7 1.3 10 4.2 14 6.5l7.2 4.1v5.9l.1 6-12.6 6.5c-7 3.6-16.9 9-22.1 12.1-10.1 6.1-20 10.1-31.7 12.9-4 .9-7.1 1.9-6.9 2.2.3.2 5.2-.7 10.8-2.2 10.5-2.6 19.8-6.7 34.4-15.1 12.7-7.3 30.1-16.4 31.3-16.4.8 0 1.2 1.8 1.2 4.9 0 4.6.3 5.1 3.5 7.1 1.9 1.2 3.5 2.7 3.5 3.3 0 .6.7 1.9 1.6 2.8 1.3 1.4 2.1 1.6 3.6.8 1.1-.6 2.6-.8 3.3-.5 2.1.8 2.6-.6.8-1.9-1.2-.9-2.2-1-3.4-.2-2.1 1.3-5.3-.8-4.5-3 .3-.7-.7-1.9-2.4-2.8-3.1-1.6-3.2-1.8-3.5-7.3-.1-2.6.6-3.9 2.8-5.8 3.6-3.1 2.8-4.4-.9-1.5-3.5 2.7-6.2 2.7-7.3-.2-1.3-3.3-.2-8 1.6-7.3.8.3 2.1.6 2.9.6.8 0 1.9 1.2 2.5 2.7.7 2 1.3 2.3 2.1 1.5.7-.7 2.2-1.2 3.3-1.2 1.8 0 2.5 1.1 4 5.9 1.1 3.6 1.6 7.5 1.3 9.9-.5 3.5-.4 3.9 1.3 3.5 2-.6 6.4 2.3 11.7 7.7 1.7 1.6 3.8 3 4.6 3 4.4 0-.9 5.1-6.2 6-4.8.8-9.7-.7-13.3-4.1-1.9-1.7-2.9-2.2-2.9-1.3 0 1.6 7.4 7.2 10.7 8 1.3.4 2.3 1.2 2.3 2 0 1.6-2.2 1.8-4.8.5-.9-.5-3.5-1.4-5.7-2.1-8.9-2.8-8.7-2.7-7-5.3 1.9-3 1.2-3.7-3-3-3.8.6-5.8-1.7-5-5.7.6-3.2-1.1-1.2-1.9 2.2-.3 1.5-.2 2.9.3 3.2.4.3.6 1.8.3 3.2-.5 2.6-.6 2.6-1.8.9-1.5-2-1.5-2-1.8 4.2-.1 3.3.3 4.3 1.7 4.7 1.4.3 1.6 1 1.1 3-.4 1.6-.2 2.6.5 2.6.6 0 1.1-.5 1.1-1 0-1.4 2.8-1.2 3.3.2.2.7.8 1 1.2.6.5-.5.3-1.9-.3-3.2-2.3-5 3.2-8.2 9.4-5.4 2.3 1.1 2.6 1.6 2.1 5-.5 3.5-.3 3.8 1.9 3.8 1.5 0 2.4-.6 2.4-1.5 0-.8-.4-1.5-1-1.5-.5 0-1-.9-1-2 0-2.5 1.7-2.6 4.3-.2 1.5 1.2 2.1 1.4 2.4.4.8-2.3 4.4-1.3 6.1 1.8 1.8 3.3 3.5 3.4 9.9.9 2.8-1.1 3.5-1.1 5.1.4 2.3 2.1 3.3 2.2 2.5.2-.3-.9-2.2-2.4-4.2-3.5-2.8-1.4-3.2-2-2-2.5 1.9-.7 9.9 1.2 9.9 2.3 0 .4.9 1.8 1.8 3l1.9 2.4 3.6-3.5c2-1.9 3.7-3.9 3.7-4.6 0-.6 1.1-1.1 2.4-1.1 2.2 0 2.4.3 1.9 4-.4 3.1-.2 4.1 1.1 4.6 2.4.9 3-.1 1.5-2.4-1.1-1.8-1-2.4.6-4.2 3.3-3.7 7.4-5.3 11.9-4.7 4.8.7 6.6 2.8 6.6 7.9 0 2.1.5 3.8 1 3.8 1.7 0 2.3-2.7 1.6-6.6-1.3-6.8-11.1-9.6-18.9-5.4-2.1 1.1-4.3 1.7-5 1.3-.7-.4-2.7-.8-4.6-.9-3.9-.1-8-4-8.2-7.7 0-1.8-.3-1.6-1.5 1.1-1.4 3.1-3.7 4.2-4.9 2.2-.8-1.3-2.5-1.3-2.5 0 0 .6 1.2 1.5 2.8 2.1 2.6 1 2.6 1.1.8 2.5-2.5 1.8-4.2 1.8-5-.1-.7-1.9-2.6-2-2.6-.2 0 .8-.9 2.2-2 3.2s-1.9 2.5-1.8 3.3c.6 3-2.3 2.4-3.5-.7-1.3-3.6-2.8-4.2-2-.8l.6 2.2-2.7-2.4c-3.2-3-3.3-4.1-.1-4.1 1.4 0 3.7-1.4 5.7-3.4 1.9-1.9 4.6-3.6 6-3.8 1.5-.2 3.7-1.6 4.8-3.1 1.8-2.3 2.9-2.7 6.3-2.5 2.3.1 6.6-.2 9.5-.6 4.1-.6 5.2-.5 5.2.6 0 2.5-3 5.7-4.6 5.1-1.2-.4-1.5-.1-1.2 1.3.6 3.4 3.3 2.6 5.7-1.6 3.3-6 2.4-7.2-5.2-6.9-9.3.3-10.1-.4-9.4-8.4.6-6.5.6-6.6-2.6-9-1.8-1.3-4.5-2.7-6.1-3.1-2.7-.7-2.8-.8-1.1-2.6 2.3-2.5 4.7-2.5 6.2-.1 1.7 2.7 7.6 4.5 10.3 3.1 2.9-1.6 2.5-3.2-.6-2-3.6 1.4-3.9 1.3-7.9-2.1-2.9-2.6-3.5-3.8-3.5-7 0-5.9 2.4-10.7 6.1-12.3 3.7-1.6 6.1-1.1 8.5 1.5 1.7 1.9 1.5 2.9-2.5 12.3-.2.5.2.7 1 .4 1.5-.5 3.7-6.2 3.8-10 .1-2.9 4.7-7.4 8.5-8.4 3.2-.8 9.6 2.1 9.6 4.3 0 1.6.1 1.6 1.7.1 1.3-1.4 1.4-2 .4-3.2-.7-.8-2.1-1.8-3.1-2.1-1.4-.5-1.8-1.4-1.5-4.6.6-8.6 7.8-12.8 13.1-7.8 2.3 2.1 2.4 2.1 6 .4 4-1.9 10.1-1.5 11.6.7.4.7.8 3.2.8 5.6 0 5-1.8 6.2-5.4 3.8-2.2-1.4-2.5-1.4-3 .1-.8 1.9-.9 1.8 2.9 3 3.2 1 4.2 3.3 4.4 9.9.1 3.6-.5 4.7-4.5 8.8-4.3 4.4-4.9 4.7-8.3 4.2-3.4-.6-3.5-.5-1.7.9 3.3 2.5 6.2 1.8 10.5-2.6 4.2-4.5 6.6-4.7 7.4-.7.4 1.9.5 1.8.6-.7l.1-2.9 1.6 2.2c3.9 5.6 12.4-.5 12.4-8.9 0-3.8-3.7-6.3-7.3-5-4.1 1.6-3.9 2.8.6 2.7 4.1-.1 4.2 0 4.5 3.5.3 3-.2 4.1-2.4 5.8-3.6 2.9-4.9 2.7-7.9-1.3-3.3-4.3-4.6-12.1-3.3-20.2 1.1-7.5 0-11.1-3.9-11.9-1.5-.4-3.8-.8-5.1-1.1-1.3-.3-3.6.3-5.2 1.3-2.7 1.5-3.1 1.6-4.7.1-1-.9-3.5-1.9-5.5-2.3-3.4-.6-4-.4-6.8 2.6-2.5 2.8-3 4.2-3 8.1 0 4.6-.1 4.8-2.9 4.8-5.6 0-12.9-9.2-10-12.6 1.3-1.6 5.5-1.5 9.3.1 1.7.7 1.8.4 1.4-3.1-.4-3.2-.1-4.4 1.9-6.5l2.4-2.6-2.1-5.2c-1.1-2.9-1.8-5.6-1.6-6 .3-.4-2-1.8-4.9-3.1-3-1.4-5.5-2.7-5.5-3 0-.3 2-1.6 4.4-2.8 3.6-2 10.1-7.4 8.5-7.1-.2 0-4 2.5-8.4 5.5zm-39.1 3c.9 2.3-1.6 6.9-3.8 6.9-1 0-2.8-1.3-4-2.8-2.1-2.8-2.1-2.9-.2-4.3 2.7-1.9 7.2-1.8 8 .2zm24.6 6.3c-2.6 2.2-3.8 2.7-4.8 1.9-1.5-1.3-1-2 3.1-3.5 5.1-1.8 5.5-1.5 1.7 1.6zm15.7 0c1.2.9 2.3 2.3 2.3 3.1 0 .8.9 3.4 1.9 5.7 1.5 3.3 1.7 4.5.7 5.8-1 1.4-1.7 1.5-5.6.4-3.4-.9-6-.9-10.5-.1-5.5 1-6.1.9-7.7-1-2.6-3-2.2-6.3 1.2-10.1 5.7-6.5 12.1-7.9 17.7-3.8zm-21.9 2.8c1.8 3.5-2.3 8.6-4.2 5.4-.3-.5-1.5-.7-2.6-.4-2.7.7-2.6-2 .2-4.7 2.7-2.5 5.4-2.6 6.6-.3zm-27.8 7.1c0 2.3-6 8.2-8.4 8.2-1.5 0-1.7.3-.8.8 1.2.8.7 7.2-.7 7.2-1 0-3.1-5.2-2.4-6.3.3-.5 0-1.3-.7-1.7-2.1-1.3 0-3.2 2.6-2.6 2.5.7 2.5.7.9-2.5-1.9-3.7-1.2-4.8 3.7-5.8 3.6-.8 5.8.2 5.8 2.7zm12.8.9l2 2.8 3.9-2.2c3.6-2 4.2-2.1 6.1-.8 2.3 1.7 5.2 6.9 5.2 9.6 0 2.4-4.1 8.5-6.5 9.7-4.7 2.4-7.1 2.3-8.5-.3-.7-1.4-1.7-2.5-2.2-2.5-.4 0-.8-1.7-.8-3.8 0-2-.5-4.4-1.1-5.2-.7-1.1-1-.5-.8 2.5.5 11-.7 13-4.1 6.8-1.6-3-1.9-3.1-7.3-2.9-3.2.2-5.7 0-5.7-.3 0-1.6 4.2-7.2 6.9-9.2 1.7-1.3 3.1-3 3.1-3.9 0-2.4.9-3 4.6-3 2.4 0 3.8.7 5.2 2.7zm29.8 6.8c-1.6 6.3-2.5 7.7-4.9 7-2.6-.8-4.7-3.2-4.7-5.5 0-1.5 4-3.1 9.4-3.9.4 0 .5 1 .2 2.4zm7.2.1c1.2.8 2.2 2.4 2.2 3.4 0 1.7-.4 1.8-2.9.9-1.5-.5-3.4-.9-4.2-.7-.8.2-1.4-.3-1.3-1 .1-.6.2-1.9.3-2.7.1-1.9 3.1-1.9 5.9.1zm-15.4 9.7c1.3 2 .2 4.3-3.1 6.4-1.9 1.3-2.3 1.2-3.2-.5-.8-1.4-.5-2.6 1.2-5 2.4-3.4 3.4-3.6 5.1-.9zm8 2.9c.9 1.7 1.4 3.3 1.2 3.5-.7.7-7.6-2.6-7.6-3.6s2.8-3 4.2-3.1c.3 0 1.4 1.4 2.2 3.2zm-29 1.4c.3.9.4 2 .1 2.4-.3.5-.1 1.1.5 1.5.5.3 1 1.7 1 3.1 0 2.1-.2 2.3-1.9 1.2-1.4-.9-1.9-2.3-1.8-5.5 0-4.4 1-5.6 2.1-2.7zm13.1 2.6c-.4 1.3-1.4 3.4-2.3 4.7-1 1.8-1.2 2.6-.4 2.9 1.5.5 1.6 4.9.1 5.8-1.2.7-4.9-2.5-5.3-4.7-.2-.8-.8-2.5-1.3-3.9-1.3-2.9-.5-4 4-5.7 5-1.8 5.9-1.6 5.2.9zm16 1c2.5.7 4.5 1.7 4.4 2.3 0 .5-1.3 2-2.9 3.3-2.8 2.2-3 2.2-5.5.6-1.8-1.2-3.5-1.4-6.1-.9-3.9.7-3.9 0-.1-4.3 2.3-2.5 3.9-2.7 10.2-1zm-14.9 4c-1.8 2.6-2.2 1.7-.5-1.4.6-1.1 1.3-1.7 1.6-1.5.3.3-.2 1.6-1.1 2.9zm-13.2 4.4c2.2 2.1 2 4.1-.4 5.4-2.6 1.4-6 .4-6-1.7 0-1.7 2.8-5.3 4.1-5.3.4 0 1.5.7 2.3 1.6zm-14 19.7c1.7 1.3 1.7 1.5-.9 3.6-1.6 1.2-3.3 2-3.9 1.8-1.9-.6-1.9-4 0-5.4 2.2-1.6 2.6-1.6 4.8 0zm8 4.9c1.9 9.1.7 17.8-2.4 17.8-.6 0-2.8-1.7-5-3.9-5.2-5.1-5.5-9.6-.9-13.5 3.9-3.3 7.7-3.5 8.3-.4zm15.7 1.5c1.7 1 3.2 2.7 3.5 3.8.8 3.4-.2 11.7-1.6 12.5-.8.5-1.5 1.6-1.6 2.5-.3 2.3-.7 2.6-5 3.5-4.6 1.1-9.4.2-10.1-1.7-.7-1.7 1.6-9.1 3-10 .5-.3 2.2.4 3.8 1.6 3.3 2.5 3.6 2.1 1.3-1.4-.9-1.4-2.5-2.5-3.5-2.5-2.3 0-2.8-.9-2.2-4.3.6-2.8 4.3-5.6 7.6-5.7 1.1 0 3.2.8 4.8 1.7zm-42.7 26.9c2 .8 2.1 3.3.1 4-.8.4-1.5 1.4-1.5 2.3 0 .9-.4 2.2-.9 3-1.4 2.1-3.4-2.3-2.2-4.6.5-1 1.2-2.6 1.5-3.6.6-1.9.8-2 3-1.1zm52.6 4.9c.7.8 1.9 1.5 2.6 1.5 2.2 0 1.7 1.4-1.6 4.5-1.6 1.6-3 2.3-3 1.7 0-.7-.9-2.1-2.1-3.3-2-2-2-2.2-.3-4 2.1-2.3 2.8-2.4 4.4-.4z"/><path d="M863.3 476.7c-.7.2-1.3 1-1.3 1.7 0 1 .8 1.1 3.5.2 1.9-.6 3.5-1.4 3.5-1.8 0-.9-3.8-.9-5.7-.1zM103 450c-1.9 1.1-3 1.9-2.5 1.9.6 0 2.6-.8 4.5-1.9 1.9-1.1 3.1-1.9 2.5-1.9-.5 0-2.6.8-4.5 1.9zM96 453c-.8.5-1 1-.5 1 .6 0 1.7-.5 2.5-1s1.1-1 .5-1c-.5 0-1.7.5-2.5 1zM20 454c-.8.5-1 1-.5 1 .6 0 1.7-.5 2.5-1s1.1-1 .5-1c-.5 0-1.7.5-2.5 1zM149 454c-.8.5-1 1-.5 1 .6 0 1.7-.5 2.5-1s1.1-1 .5-1c-.5 0-1.7.5-2.5 1zM957.7 455.1c-.9.5-2.2.7-2.7.4-.6-.3-1 .1-1 .9 0 1.8 2.7 2.1 6.5.6 2.1-.8 3.5-.7 5.8.5 3.7 1.8 3.7 1.8 3.7 0 0-3.1-8.3-4.7-12.3-2.4zM15 456c-.8.5-1 1-.5 1 .6 0 1.7-.5 2.5-1s1.1-1 .5-1c-.5 0-1.7.5-2.5 1zM118.5 458c-11.6 5.3-21.7 8.2-29.9 8.6-6.8.4-22.3 4.1-21.2 5.1.2.2 3.7-.5 7.7-1.7 4.1-1.1 10.6-2.2 14.4-2.4 7.7-.4 18.9-3.8 30-9.1 3.9-1.8 6.6-3.3 6-3.3-.5 0-3.7 1.2-7 2.8zM141 457c-.8.5-1 1-.5 1 .6 0 1.7-.5 2.5-1s1.1-1 .5-1c-.5 0-1.7.5-2.5 1zM10 458c-.8.5-1 1-.5 1 .6 0 1.7-.5 2.5-1s1.1-1 .5-1c-.5 0-1.7.5-2.5 1zM5 460c-.8.5-1 1-.5 1 .6 0 1.7-.5 2.5-1s1.1-1 .5-1c-.5 0-1.7.5-2.5 1zM131.5 460.5c-2.5 1.2-2.6 1.4-.5.9 2.8-.7 6-2.3 4.5-2.3-.5 0-2.3.6-4 1.4zM37 462.5c-1.4.8-2 1.4-1.5 1.4.6 0 2.1-.6 3.5-1.4 1.4-.8 2.1-1.4 1.5-1.4-.5 0-2.1.6-3.5 1.4zM116.8 465.7c.7.3 1.6.2 1.9-.1.4-.3-.2-.6-1.3-.5-1.1 0-1.4.3-.6.6zM26 467.5c-1.4.8-2 1.4-1.5 1.4.6 0 2.1-.6 3.5-1.4 1.4-.8 2.1-1.4 1.5-1.4-.5 0-2.1.6-3.5 1.4zM110.5 467c-1.3.5-1.4.9-.5.9.8 0 2.4-.4 3.5-.9 1.3-.5 1.4-.9.5-.9-.8 0-2.4.4-3.5.9zM189.8 466.7c.7.3 1.6.2 1.9-.1.4-.3-.2-.6-1.3-.5-1.1 0-1.4.3-.6.6zM638.8 466.7c.6.2 1.8.2 2.5 0 .6-.3.1-.5-1.3-.5-1.4 0-1.9.2-1.2.5zM763 467.1c0 .5.9.9 2 .9s2-.2 2-.4-.9-.6-2-.9c-1.1-.3-2-.1-2 .4zM61 468c-.8.5-1 1-.5 1 .6 0 1.7-.5 2.5-1s1.1-1 .5-1c-.5 0-1.7.5-2.5 1zM185.8 467.7c.7.3 1.6.2 1.9-.1.4-.3-.2-.6-1.3-.5-1.1 0-1.4.3-.6.6zM662.8 468.7c.7.3 1.6.2 1.9-.1.4-.3-.2-.6-1.3-.5-1.1 0-1.4.3-.6.6zM56.8 469.7c.7.3 1.6.2 1.9-.1.4-.3-.2-.6-1.3-.5-1.1 0-1.4.3-.6.6zM178.8 469.7c.7.3 1.6.2 1.9-.1.4-.3-.2-.6-1.3-.5-1.1 0-1.4.3-.6.6zM672.3 469.7c.9.2 2.5.2 3.5 0 .9-.3.1-.5-1.8-.5-1.9 0-2.7.2-1.7.5zM98.8 470.7c.7.3 1.6.2 1.9-.1.4-.3-.2-.6-1.3-.5-1.1 0-1.4.3-.6.6zM682.3 470.7c.9.2 2.5.2 3.5 0 .9-.3.1-.5-1.8-.5-1.9 0-2.7.2-1.7.5zM25 472c0 .7-3.9.9-11.2.5-7.2-.3-11.8-.2-12.8.5-1.1.8-.5 1 2.5.8l4-.3.3 5.3c.2 3.6 0 5.2-.7 4.7-1.4-.8-1.4.1.1 2.5 1.1 1.6.9 2.2-.7 3.5-1.6 1.1-1.7 1.7-.7 2.3.7.5 1.4 2.6 1.6 4.8.1 2.2.9 5.1 1.6 6.4l1.3 2.5 1-2.8c.5-1.6 1.5-2.6 2.4-2.5.9.2 1.7-.5 1.8-1.5.4-2-1.5-2.3-3.3-.5-1 1-1.5 1-2.2-.2-.6-1-.2-1.9 1.6-3 1.3-.9 2.1-2 1.7-2.3-.3-.4-.1-.7.6-.7s.9-.5.6-1.1c-.5-.7-1.4-.5-2.9.4-2.1 1.4-2.1 1.3-2.1-2.5 0-2.3.6-4.2 1.5-4.8.8-.5 1-1 .4-1-1.3 0-2.4-5.7-1.6-7.8.3-.9 2.5-1.2 8.1-1 7.5.3 7.6.3 7.2 2.8-.1 1.4-.8 2.8-1.5 3.2-.7.5-.5.8.7.8.9 0 1.7.7 1.7 1.6 0 1.1-.6 1.3-1.9.9-1.8-.6-1.9-.3-.9 2.7.6 1.8 1.3 4.8 1.5 6.6.3 1.8.9 3.5 1.4 3.8.5.3.9 1.4.9 2.6 0 1.7-.4 1.9-2.5 1.4-1.4-.4-2.5-.2-2.5.4 0 .5.6 1 1.4 1 .7 0 1.9.7 2.6 1.5 1.6 1.9 5.8 1.9 10.3 0 1.9-.8 3.7-1.2 4-.8.4.3 1.3.3 2.2-.1 1.3-.4 1.3-.8.4-1.9-1.3-1.3-3.2-1.7-8.2-1.8-2.2 0-2.7-.3-2.3-1.5.4-1 0-1.5-1.2-1.3-3.5.3-3.6-.2-.7-2.5 1.7-1.3 2.7-2.8 2.2-3.2-.4-.4-1.3-.2-1.9.4-1.8 1.8-2.8 1.5-2.8-.8 0-1.8 1-2.5 3.3-2.1.4 0 .7-.4.7-1.1 0-.7 1.2-2.6 2.8-4.2 1.5-1.7 1.8-2.3.6-1.3-1.1.9-2.6 1.7-3.2 1.7-.6 0-1.5.8-2.1 1.7-.5 1-1.3 1.4-1.7 1-.5-.4-.2-1.8.5-3 1-1.5 1-2.2.2-2.5-1.5-.5-1.4-5.9.2-6.5.7-.3.5-.6-.5-.6-1-.1-1.8-.6-1.8-1.1 0-.6-.4-1-1-1-.5 0-1 .5-1 1zm5 27c0 .5-.5 1-1.1 1-.5 0-.7-.5-.4-1 .3-.6.8-1 1.1-1 .2 0 .4.4.4 1zm1.6 4.8c-1 .2-2.2 0-2.8-.6-.6-.6 0-.7 1.9-.4 2.1.5 2.3.7.9 1zM692.3 471.7c.9.2 2.5.2 3.5 0 .9-.3.1-.5-1.8-.5-1.9 0-2.7.2-1.7.5zM63.8 472.7c.7.3 1.6.2 1.9-.1.4-.3-.2-.6-1.3-.5-1.1 0-1.4.3-.6.6zM117.8 472.7c.6.2 1.8.2 2.5 0 .6-.3.1-.5-1.3-.5-1.4 0-1.9.2-1.2.5zM703.8 472.7c1.2.2 3.2.2 4.5 0 1.2-.2.2-.4-2.3-.4s-3.5.2-2.2.4zM722.8 473.7c.6.2 1.8.2 2.5 0 .6-.3.1-.5-1.3-.5-1.4 0-1.9.2-1.2.5zM33.7 474.7c1.8.2 5 .2 7 0 2.1-.2.7-.4-3.2-.4-3.8 0-5.5.2-3.8.4zM730 475c3.4 1.1 6 1.1 3.5 0-1.1-.5-2.9-.8-4-.8-1.6 0-1.5.2.5.8zM336.8 476.7c.7.3 1.6.2 1.9-.1.4-.3-.2-.6-1.3-.5-1.1 0-1.4.3-.6.6zM340 477.3c0 .3 1.5 1 3.2 1.6 1.8.6 2.8.7 2.3.2-1.2-1-5.5-2.5-5.5-1.8zM985 477.9c0 1.2 6.3 5.1 8.2 5.1 1.8 0 4.4-2.8 3.5-3.7-.4-.3-1.3 0-2.2.7-1.2 1-2.1.8-5-.9-4.1-2.4-4.5-2.5-4.5-1.2zM713 478.4c0 .5 10.9 5.6 11.9 5.6.8-.1-10.1-5.9-11.1-6-.5 0-.8.2-.8.4zM119.3 479.7c.9.2 2.3.2 3 0 .6-.3-.1-.5-1.8-.5-1.6 0-2.2.2-1.2.5zM66.5 481.6c-.4 1-1.1 2.7-1.6 3.6-.5 1-.6 1.8-.1 1.8 1.1 0 1.4 8.8.3 9.4-.5.3-1.1-.4-1.4-1.5-.3-1.2-1-1.8-1.7-1.4-.8.5-.8 1 0 2s.8 1.5 0 2c-.6.4-.8 1.6-.5 2.6.4 1.1.1 2.6-.5 3.4-1 1.3-.8 1.5 1.6 1.6 1.6.1 2.2.3 1.3.6-.8.2-2.3 1.8-3.3 3.4-1.7 2.8-1.7 3.2-.3 4.7 1.3 1.2 1.9 1.3 3.1.3 1.1-1 1.6-.9 2.3.2.8 1.5 3.4 2 8.1 1.8 2.4-.1 3.1-3.1.7-3.1-1.8 0-2-1.6-.2-2.3 1.2-.5-2.6-1.1-5-.8-.6.1-1.4-.3-1.8-.8-.3-.6-1.2-.8-2-.4-.8.3-1.5 0-1.5-.6s1-1.2 2.3-1.3c1.2 0 2.7-.2 3.2-.3.6-.2 1.8-.3 2.7-.4 1.3-.1 1.7-.9 1.6-3.5-.1-3.2-.3-3.4-2.5-2.5-2.7 1-2.9.3-.5-2.4 1.6-1.9 1.6-2 0-1.4-2.6.9-3.2-1.1-1.1-3.5 1.6-1.9 1.6-2.1.1-1.5-1.7.6-3.4-1.8-1.9-2.7.8-.5.4-7.6-.4-8.5-.3-.2-.7.5-1 1.5zm0 17.4c.3.5-.1 1-.9 1-.9 0-1.6-.5-1.6-1 0-.6.4-1 .9-1 .6 0 1.3.4 1.6 1zm5.8 4.7c-.7.2-1.9.2-2.5 0-.7-.3-.2-.5 1.2-.5s1.9.2 1.3.5zM126.8 480.7c.6.2 1.8.2 2.5 0 .6-.3.1-.5-1.3-.5-1.4 0-1.9.2-1.2.5zM737.1 480.4c1 .9 6.9 3.6 6.9 3.2 0-.6-5.5-3.6-6.6-3.6-.4 0-.5.2-.3.4zM107.7 481.6c-.3.3-.1 1.5.6 2.5.9 1.5.8 2.2-.5 3.5-1.5 1.6-1.5 1.8.5 3.5 2.4 1.9 2 2.9-1.2 3.2-2 .1-3.1 1.7-1.1 1.7 1.5 0 0 2.8-1.8 3.3-1 .3-.3.5 1.4.6 1.9.1 4 1.1 5.4 2.6 3.1 3.3 1.9 4.3-1.8 1.6-5.5-3.9-5.9-1.7-.7 3.7 1.9 2 3.5 4.2 3.5 4.9 0 1.2 5.8 2.9 6.7 1.9.4-.3-.2-1.3-1.3-2-2.6-1.9-1-3.3 2-1.7 1.3.8 3 1 3.7.5.9-.5.1-1.3-2.6-2.4l-3.8-1.6 3.6-1.7c5-2.4 5.7-3.9 1.6-3.5-1.9.2-3.3.7-3.2 1.3.2 1.4-2.5 2.8-3.8 2-.6-.4-.8-1.4-.4-2.3.3-.8 0-1.9-.7-2.4-1-.7-.9-1.1.5-2.2 2.1-1.7 2.2-3 .1-2.2-1 .4-1.4.1-1.1-.6.2-.7 1.6-1.2 3.1-1 1.4.1 2.6-.1 2.6-.7 0-1.1-4.7-2.4-6.1-1.6-1.5 1-2.3-2.4-.9-4 .8-.9.8-1.5.2-1.5-.6 0-1.3-1.4-1.7-3-.6-2.9-1.5-3.7-2.8-2.4zM133.3 481.7c.9.2 2.3.2 3 0 .6-.3-.1-.5-1.8-.5-1.6 0-2.2.2-1.2.5zM141.8 482.7c1.2.2 3.2.2 4.5 0 1.2-.2.2-.4-2.3-.4s-3.5.2-2.2.4zM783.8 482.7c1.2.2 3.2.2 4.5 0 1.2-.2.2-.4-2.3-.4s-3.5.2-2.2.4zM804.3 482.7c2 .2 5.4.2 7.5 0 2-.2.3-.4-3.8-.4s-5.8.2-3.7.4zM963.5 484.2c-2.3 1.8-2.6 2.6-2.1 5.6.7 4.5 3.2 7.2 6.6 7.2 3.1 0 4.5-1.3 5.5-5.3s-.1-7.2-3-8.5c-3.5-1.6-3.8-1.5-7 1zm6.9 1.4c1.9.7 2.2 6.4.4 8.2-2.6 2.6-7.8-.2-7.8-4.3 0-3.7 3.3-5.5 7.4-3.9zM154.3 483.7c2 .2 5.4.2 7.5 0 2-.2.3-.4-3.8-.4s-5.8.2-3.7.4zM774.8 483.7c.7.3 1.6.2 1.9-.1.4-.3-.2-.6-1.3-.5-1.1 0-1.4.3-.6.6zM168.8 484.7c1.2.2 3.2.2 4.5 0 1.2-.2.2-.4-2.3-.4s-3.5.2-2.2.4zM727 485c.8.5 2 1 2.5 1 .6 0 .3-.5-.5-1s-1.9-1-2.5-1c-.5 0-.3.5.5 1zM767.8 484.7c.7.3 1.6.2 1.9-.1.4-.3-.2-.6-1.3-.5-1.1 0-1.4.3-.6.6z"/><path d="M10.7 485.7c-.4.3-.7 1.1-.7 1.7 0 .6.5.5 1.2-.2.6-.6.9-1.4.7-1.7-.3-.3-.9-.2-1.2.2zM177.3 485.7c.9.2 2.5.2 3.5 0 .9-.3.1-.5-1.8-.5-1.9 0-2.7.2-1.7.5zM761.8 485.7c.7.3 1.6.2 1.9-.1.4-.3-.2-.6-1.3-.5-1.1 0-1.4.3-.6.6zM185 487c1.4.4 3.6.8 5 .8 2.2 0 2.2-.1-.5-.8-1.6-.4-3.9-.8-5-.8-1.6 0-1.5.2.5.8zM732 487c.8.5 2 1 2.5 1 .6 0 .3-.5-.5-1s-1.9-1-2.5-1c-.5 0-.3.5.5 1zM820.1 490.1c-.7 1.6-1.1 4.1-.8 5.5.3 1.9-.1 2.8-1.7 3.4-1.5.6-.4.9 4.1.9 3.4.1 6.5-.4 6.8-1 .5-.6 1.2-.4 2 .8 1.7 2.3 3 1.1 1.6-1.5-.6-1.2-1.1-2.8-1.1-3.8 0-2.3-2.9-4.3-6.4-4.4-2.1 0-2.7-.4-2.2-1.5 1.1-2.9-.9-1.5-2.3 1.6zm7.4 3.3c2.1 1.5 1.3 5.1-1 4.2-.8-.3-1.7-.1-2 .4-.4.6-1 1-1.5 1-1.4 0-3.2-4-2.6-5.6.7-1.8 4.6-1.8 7.1 0zM196.7 488.7c1.8.2 5 .2 7 0 2.1-.2.7-.4-3.2-.4-3.8 0-5.5.2-3.8.4zM211.5 489.7c7.2.9 7.7 1.2 7 4.1-.4 1.5-.7 3.5-.7 4.4 0 1-.6 1.8-1.5 1.8-1 0-1.3.6-.9 1.6.3.9.6 1.8.6 2 0 .2.7.4 1.6.4 1.9 0 1.4 2-.9 3.4-1.3.8-2 .7-2.7-.4-.8-1.2-1-1.1-1 .7 0 1.7.6 2.3 2.1 2.3s1.9.5 1.5 1.5c-.3.9 0 1.5.8 1.5 1.5 0 2.8 2.4 1.9 3.4-.4.3-1.7-.1-3-1-1.8-1.1-2.8-1.2-3.7-.4-.8.5-2.1.8-3 .4-.9-.3-1.6-.1-1.6.6 0 .6 1 1.1 2.3 1 3.4-.3 4.4.1 1.9.8-2.7.8-2.8 2.8-.1 2.4 2.4-.4 10.9 3.3 10.9 4.8 0 .8.6.8 2 0 1.1-.6 2-1.5 2-1.9 0-.5-.9-1.1-2-1.4-2.7-.7-2.5-2.2.3-2.5 1.2-.1 4-.8 6.2-1.7l4-1.5-4.2.4c-2.6.2-4.4 0-4.6-.8-.3-.7-1.1-.5-2.4.6-2 1.8-4.3 2.4-4.3 1 .1-1.3 2.4-3.8 4.3-4.5.9-.3 1.7-1.1 1.7-1.7 0-1.4-3.7-1.2-4.3.2-.2.7-.8.9-1.3.5s-.4-1.1.1-1.5c.6-.4 1.7-1.6 2.5-2.6 1.4-1.8 1.3-1.8-.8-1.2-1.8.6-2.2.4-2.2-1.3 0-1.2.6-2.1 1.4-2.1.8 0 1.8-.5 2.2-1.2.5-.7.2-.9-.9-.5-1.7.7-2.9-1.5-2.1-3.8.4-.8.2-1.5-.4-1.5-1.3 0-.2-5 1.2-5.1 2.4-.3-5.2-1.7-8.9-1.6-3 0-3.2.1-1 .4zM20.5 492c.3.5 1 1 1.6 1 .5 0 .9-.5.9-1 0-.6-.7-1-1.6-1-.8 0-1.2.4-.9 1zM224.8 491.7c.7.3 1.6.2 1.9-.1.4-.3-.2-.6-1.3-.5-1.1 0-1.4.3-.6.6zM304.3 491.7c.9.2 2.3.2 3 0 .6-.3-.1-.5-1.8-.5-1.6 0-2.2.2-1.2.5zM745.8 491.7c.7.3 1.6.2 1.9-.1.4-.3-.2-.6-1.3-.5-1.1 0-1.4.3-.6.6zM228.8 492.7c.6.2 1.8.2 2.5 0 .6-.3.1-.5-1.3-.5-1.4 0-1.9.2-1.2.5zM310.8 492.7c.6.2 1.8.2 2.5 0 .6-.3.1-.5-1.3-.5-1.4 0-1.9.2-1.2.5zM33 494.1c0 .5.5.7 1 .4.6-.3 1-.8 1-1.1 0-.2-.4-.4-1-.4-.5 0-1 .5-1 1.1zM233.8 493.7c.7.3 1.6.2 1.9-.1.4-.3-.2-.6-1.3-.5-1.1 0-1.4.3-.6.6zM315.8 493.7c.6.2 1.8.2 2.5 0 .6-.3.1-.5-1.3-.5-1.4 0-1.9.2-1.2.5zM21 495c0 .5.4 1 .9 1 .6 0 1.3-.5 1.6-1 .3-.6-.1-1-.9-1-.9 0-1.6.4-1.6 1zM237.8 494.7c.6.2 1.8.2 2.5 0 .6-.3.1-.5-1.3-.5-1.4 0-1.9.2-1.2.5zM320.8 494.7c.7.3 1.6.2 1.9-.1.4-.3-.2-.6-1.3-.5-1.1 0-1.4.3-.6.6zM243.3 495.7c.9.2 2.3.2 3 0 .6-.3-.1-.5-1.8-.5-1.6 0-2.2.2-1.2.5zM273 495.9c19.6 1.5 39.1 6.3 54.2 13.2 7.5 3.5 9.4 3.9 13.1 3.4 3.4-.5 4.6-.3 5.7 1 2.3 2.8 6.3 4.3 15.8 6 5 .8 12.3 2.9 16.3 4.6 4 1.7 12.2 4.2 18.3 5.6 6.1 1.3 14.3 3.3 18.3 4.4 3.9 1.1 9.3 1.9 12 1.8 2.6-.1 6.6.2 8.8.6 3.2.5 4.4.3 5.4-.9 1.1-1.4 1.1-1.6-.2-1.6-.9 0-1.8.4-2.1.9-.7 1.1-4.3.3-7.3-1.6-1.9-1.2-2.6-1.2-5.3.2-3 1.6-3.7 1.5-12.8-.9-5.4-1.4-13.1-3.2-17.2-4.1-4.1-.9-11.7-3.3-17-5.4-5.2-2.1-13.1-4.3-17.5-5-8.7-1.4-12-2.8-14.8-6.1-1-1.2-2.5-1.9-3.5-1.6-6.3 1.9-7.3 1.8-14.4-1.7-15.4-7.4-37-12.6-54.8-13.2l-11.5-.4 10.5.8zM333.4 499c5.4 2.2 10.1 3.9 10.2 3.7.5-.5-17.2-7.7-18.8-7.7-.7 0 3.2 1.8 8.6 4zM251.7 496.7c1.8.2 5 .2 7 0 2.1-.2.7-.4-3.2-.4-3.8 0-5.5.2-3.8.4zM83.2 498.6c.4 2.1 2.2 2.3 2.6.1.2-1-.3-1.7-1.3-1.7s-1.5.6-1.3 1.6zM776.3 497.7c.9.2 2.3.2 3 0 .6-.3-.1-.5-1.8-.5-1.6 0-2.2.2-1.2.5zM3 500c0 .5.5 1 1 1 .6 0 1-.5 1-1 0-.6-.4-1-1-1-.5 0-1 .4-1 1zM525.2 502.7c-.9 1.5-1.4 1.5-3.7.5-2.6-1.2-2.7-1.1-2.2.8.3 1.1 0 2.6-.7 3.3-1.1 1-1 1.5.1 2.5s1.3.9 1.3-.8c0-1.1.5-2 1-2 .6 0 1 .4 1 1 0 .5.5 1 1.1 1 .5 0 .7-.5.4-1-.3-.6.6-1.5 2.1-2 2.2-.9 2.9-.7 4.5 1.1 1.1 1.2 2.2 1.9 2.7 1.5.4-.4-.3-1.6-1.5-2.6-2.8-2.2-2.8-2.7-.5-3.4 1.3-.4 1.3-.4-.3-.3-1.1.1-2.5-.2-3.2-.6-.7-.4-1.6 0-2.1 1zM386 505.1c-4.7 1.7-11 3.4-14 3.8-5.3.8-5.4.8-1.3 1 2.4 0 7.5-1.1 12.3-2.9 8.5-3.1 15.6-3.8 22-2 1.9.5 9.3 1.6 16.4 2.5 7.1.9 18.3 2.9 25 4.5 6.6 1.7 13.3 3 14.8 3s3 .5 3.4 1.2c.5.7 1 .4 1.5-1 1-2.6 3.6-2.9 4.2-.5.4 1.6.5 1.6.6 0 .1-2.5-3.8-5.6-7.1-5.7-2.3 0-2.8.4-2.7 2.2.1 1.7.2 1.9.6.5.5-1.9 3.8-2.3 4.9-.6.9 1.5-1.5 2.9-5.1 2.9-1.7 0-8.6-1.3-15.3-3-6.7-1.6-17.5-3.6-24-4.4-6.4-.8-15-2.2-19-3.1-4-.8-7.6-1.5-8-1.5-.4 0-4.5 1.4-9.2 3.1zM346.5 504c1.1.5 2.7.9 3.5.9.9 0 .8-.4-.5-.9-1.1-.5-2.7-.9-3.5-.9-.9 0-.8.4.5.9zM16 504.9c0 .5-.3 1.8-.6 2.8-.6 1.5-.4 1.6.7.5.7-.6 2.2-1.2 3.4-1.2 2-.1 2-.1.1-1.5-2.3-1.7-3.6-1.9-3.6-.6zM100 505c0 .5.7 1 1.5 1s1.5-.5 1.5-1c0-.6-.7-1-1.5-1s-1.5.4-1.5 1zM54.6 505.9c-.4.7-.5 1.5-.2 1.8.9.9 1.9-.4 1.4-1.8-.4-1.1-.6-1.1-1.2 0z"/><path d="M9.3 507.7c-.9 1.5-1.3 1.6-2.4.5-2-1.9-2.6-1.5-2.6 1.7 0 2.7.3 2.9 3.6 2.6 2-.2 4.2.1 4.9.7.9.8 1.7.6 3-.6 1-.9 2.4-1.6 3-1.6.6 0 1.3-.4 1.6-.9.4-.5-1.4-.7-3.9-.4-4 .4-4.5.2-4.5-1.6 0-2.6-1.1-2.7-2.7-.4zM35.9 507.6c2.6 1.9 7.1 2.8 7.1 1.4 0-.4-1.2-1.1-2.7-1.4-1.6-.4-3.7-.9-4.8-1.2-1.7-.5-1.6-.3.4 1.2zM25.3 508.7c-2 1.3-2.1 1.7-.7 3 1.1 1.2 1.8 1.3 2.7.4.6-.6 2.1-1.1 3.4-1.1 2.8 0 3-1.6.4-3-2.5-1.3-3.1-1.2-5.8.7zM358.8 507.7c.7.3 1.6.2 1.9-.1.4-.3-.2-.6-1.3-.5-1.1 0-1.4.3-.6.6zM140.9 509.2c-.1.7-.1 1.9 0 2.5.1.7-.5 1.3-1.4 1.3-1 0-1.3.5-.9 1.2s.9 2.8 1.1 4.7c.3 3 .2 3.3-1.2 2.1-2-1.6-2 .3 0 2.4 2.1 2 1.9 2.5-.7 1.9-2.1-.4-2.1-.3.5 1.7 3 2.4 3.4 4.4 1.3 6.6-2.2 2.1 1 7.6 3.9 6.8 2.8-.9 2.9-1.1 1.1-2.9-2.3-2.3-2-4.2.3-2.1 2 1.8 3.1 1.1 2.7-1.7-.3-2.4-1.6-3.3-2.5-1.8-.5.7-1.4 1-2 .7-1.2-.8-.5-1.9 3.7-6.1l2.4-2.4-3.6-1.5c-4-1.6-4.7-4.1-1.6-5.1 1.1-.3 2-1.1 2-1.6 0-.6-.9-.8-2-.4-1.7.5-1.9.2-1.4-3.4.3-2.5.1-4.1-.6-4.1-.5 0-1.1.6-1.1 1.2zm3.1 16.3c0 .8-.4 1.5-1 1.5-.5 0-1-.7-1-1.5s.5-1.5 1-1.5c.6 0 1 .7 1 1.5zM362.8 508.7c.6.2 1.8.2 2.5 0 .6-.3.1-.5-1.3-.5-1.4 0-1.9.2-1.2.5zM478.6 510.6c-.9.8-1.6 1.8-1.6 2.2 0 .3.5.1 1.2-.6 1.5-1.5 4.8-1.6 4.8 0 0 .6.3.8.6.5.8-.7-1.4-3.7-2.7-3.7-.4 0-1.5.7-2.3 1.6zM498 511c0 .5.5 1 1 1 .6 0 1-.5 1-1 0-.6-.4-1-1-1-.5 0-1 .4-1 1zM525 511c0 .5.5 1 1.1 1 .5 0 .7-.5.4-1-.3-.6-.8-1-1.1-1-.2 0-.4.4-.4 1zM55.5 513c-.3.5-.1 1 .4 1 .6 0 1.1-.5 1.1-1 0-.6-.2-1-.4-1-.3 0-.8.4-1.1 1zM491.1 513.6c0 1.1.3 1.4.6.6.3-.7.2-1.6-.1-1.9-.3-.4-.6.2-.5 1.3zM500.8 513.7c.7.3 1.6.2 1.9-.1.4-.3-.2-.6-1.3-.5-1.1 0-1.4.3-.6.6zM508.8 513.7c.7.3 1.6.2 1.9-.1.4-.3-.2-.6-1.3-.5-1.1 0-1.4.3-.6.6zM476 514.9c0 .5.7 1.5 1.7 2.2 1.5 1.3 1.5 1.2.4-.9-1.2-2.3-2.1-2.8-2.1-1.3zM6.6 516.3c-1.8 1.3-1.8 1.4-.1 2.1 2.2.8 4.4-.9 2.9-2.4-.7-.7-1.6-.6-2.8.3zM13.5 516c-.9 1.5.4 3 2.6 3 2.5 0 2.5-1.6 0-3-1.3-.7-2.2-.7-2.6 0zM61.5 517c-.3.5.3 1 1.4 1 1.2 0 2.1-.5 2.1-1 0-.6-.6-1-1.4-1-.8 0-1.8.4-2.1 1zM179.8 516.7c.6.2 1.8.2 2.5 0 .6-.3.1-.5-1.3-.5-1.4 0-1.9.2-1.2.5zM202.2 516.9c.4 1.3 1.8 1.6 1.9.4 0-.4-.5-.9-1.1-1.2-.7-.2-1.1.2-.8.8zM1 517.9c0 .5.7 1.2 1.6 1.5 2.2.9 2.4.8 1.8-.9-.7-1.6-3.4-2.1-3.4-.6zM173.8 517.7c.6.2 1.8.2 2.5 0 .6-.3.1-.5-1.3-.5-1.4 0-1.9.2-1.2.5zM898 518.9c0 3.1 4.7 6.1 9.5 6.1 4.1 0 4.2.1 4.7 3.7.7 5.1 3 9.9 7.7 15.6 4 5.1 8.4 12.7 7.7 13.4-.2.2-3.1-.9-6.5-2.6-4.6-2.4-7.4-3.1-11.6-3.1-6.5 0-8.5-.9-13.9-5.9-3.2-3-3.7-3.2-2.6-1.1 3.2 6.3 7.5 8.9 17.1 10.1 9.7 1.2 21.9 7.7 21.9 11.6 0 2.3 4.3 7.3 6.2 7.3 2 0 2.4-2 .6-3.8-.8-.8-.8-1.5.2-2.7 1-1.2 1-1.5-.3-1.5-2.2 0-4.2-3.9-2.8-5.3.6-.6 1.1-3.1 1.1-5.4 0-3.9.4-4.6 3.5-6.4 4.2-2.5 4.5-3.2.9-1.8-1.5.5-2.9.7-3.2.5-.4-.4-2-13-2.1-17.4-.1-.6-.4-1.2-.8-1.2-.5 0-.8 5.7-.8 12.8 0 7.7-.4 13.5-1.1 14.6-1.1 1.8-1.5 1.4-5-4.3-2.2-3.5-5.4-8.2-7.2-10.5-3.3-4.3-8.2-15.5-8.2-18.7 0-1 .6-1.9 1.3-2.2.8-.3.9-.8.1-1.6s-1.4-.5-2.4 1.4c-2.1 3.8-10.6 2.8-11.7-1.5-.7-2.6-2.3-2.6-2.3-.1zM1018.8 531.1c.3 9 .1 14.8-.5 15.2-.5.3-2.5-.6-4.4-2.2-1.9-1.5-6.3-4.5-9.8-6.6-3.5-2.1-7.9-5.2-9.8-6.8-3-2.7-4-2.5-3.4.7.1.5-.3 1.3-1 1.7-1.1.7 8.4 5.9 10.8 5.9 2.2 0 13.1 8.9 15.3 12.5 2.1 3.4 2.2 4.5 1.7 13.1l-.6 9.4h6.9v-11.8c0-10.5-2.8-34.6-4.9-42.7-.5-1.7-.6 3.5-.3 11.6zM79 519.1c0 .6-.7.8-1.6.5-1.1-.4-1.5-.2-1.1.7.7 1.9-7.1 2.5-13.8 1.2-5.7-1.2 0 2.1 7.8 4.5 4 1.2 8.2 2.6 9.5 3.1 3 1.2 4.5 1.1 3.7 0-.3-.5-3.1-1.5-6.3-2.2-4-.9-5-1.4-3.2-1.6 3.1-.5 10-3.5 10-4.5 0-.7-3.3-2.8-4.4-2.8-.3 0-.6.5-.6 1.1zM240 518.8c-3.5.5.5.7 11 .8 17.6.1 17.3 0 35.5 6.9 6.4 2.5 8.4 2.7 24 3 12.5.2 19.7.8 27.1 2.3 5.5 1.2 18.9 3 29.6 4.2 10.7 1.1 24.6 2.9 30.8 4 6.2 1.2 11.5 1.8 11.8 1.5.3-.3.1-.5-.4-.5s-5.8-.9-11.8-2c-6-1.1-19.6-2.9-30.4-4-10.7-1.2-24.1-3-29.6-4.2-7.1-1.4-15.1-2.2-27-2.4-15.1-.4-17.7-.7-24-3-16.2-5.8-19-6.5-30.1-6.9-6-.2-13.5 0-16.5.3zM465 520.9c0 .5.6 1.6 1.3 2.3.8.7 2 2.7 2.8 4.3 1.6 3.4 4.1 4 4.5 1.1.3-2.2-.5-4.6-1.7-4.6-.4 0-.6.7-.3 1.5.4.8.1 1.5-.5 1.5s-1.1-.6-1.1-1.4c0-.8-.7-1.6-1.5-2-.8-.3-1.5-1.2-1.5-2.1 0-.8-.4-1.5-1-1.5-.5 0-1 .4-1 .9zM474.2 521.5c1 2.9 3.2 6.5 4 6.5.5 0 .4-.8-.1-1.8-1.2-2.2-4.3-6-3.9-4.7zM43.5 523c.3.5.8 1 1.1 1 .2 0 .4-.5.4-1 0-.6-.5-1-1.1-1-.5 0-.7.4-.4 1zM959.8 523.2c1.2.6 2.2 1.7 2.2 2.5 0 .7.5 1.3 1.1 1.3 1.9 0-1.6-4.5-3.7-4.7-1.5-.2-1.5-.1.4.9zM168.3 525.7c-.4 1-1.1 2.1-1.6 2.4-.5.4-.5.9.1 1.3.6.3 2-.7 3.2-2.4 1.8-2.5 1.9-3 .5-3-.8 0-1.9.8-2.2 1.7zM177 527.9c0 1 9 3.5 9.7 2.7.6-.6-6.4-3.6-8.3-3.6-.8 0-1.4.4-1.4.9zM478.6 530.6c-.6 1.6.2 1.8 2.2.5 1.1-.7 1.1-.9-.1-1.4-.9-.3-1.8.1-2.1.9z"/><path d="M899.6 530.3c-1.8 1.3-1.8 1.6-.2 6.3 2.5 7.4 2.9 7.8 7 7 2-.4 3.6-1.2 3.6-1.8 0-.6-1.1-.8-3-.5-3.3.7-5.2-1.2-6.4-6.6-.8-3.4 1.4-4.5 5.7-2.9 4.4 1.7 4.7.5.4-1.3-4.4-1.8-4.8-1.8-7.1-.2zM962.5 531.4c-3.8 1.6-2.1 2.6 3.3 1.9 2.6-.4 4.2-1.1 4.2-1.9 0-1.7-3.5-1.7-7.5 0zM474.5 531.9c-.6 1.1.9 2.3 1.9 1.4.9-.9.7-2.3-.3-2.3-.6 0-1.2.4-1.6.9zM131.4 533.4c-.9 2.3-.1 2.8 3 2 2.4-.6 3.7-2.4 1.7-2.4-.5 0-1.6-.3-2.5-.6-1-.4-1.8 0-2.2 1zM211.5 533c-.3.5.1 1 .9 1 .9 0 1.6-.5 1.6-1 0-.6-.4-1-.9-1-.6 0-1.3.4-1.6 1zM470.5 534.1c-.4.6-.5 1.2-.2 1.5.2.3.7-.2 1-1.1.7-1.7.1-2-.8-.4zM444 536c0 .5.7 1 1.6 1 .8 0 1.2-.5.9-1-.3-.6-1-1-1.6-1-.5 0-.9.4-.9 1zM725.8 537.2c0 1.3-.1 2.9-.1 3.5.1.7-.4 1.3-1 1.3s-.7.3-.4.7c.4.3.2 1.2-.5 2-.8 1-.7 1.7.7 2.7 1.3.9 1.5 1.5.7 2-.7.4-1.2.4-1.2-.1 0-.4-.4-.2-.9.6-.8 1.2-1.2 1.3-2.5.1-.9-.7-1.9-1-2.2-.7-.9.8 2 4.8 3.1 4.3 1.9-.7 4.4 1.9 3.5 3.5-.8 1.2-1.4 1.1-4.5-.5-3.5-1.9-5.3-1.7-4 .3.3.6 2.2 1.8 4.1 2.6 1.9.8 3.4 1.9 3.4 2.6 0 .8.4.8 1.5-.1 1.3-1.1 1.5-.8 1.5 1.4 0 2.8-.9 3.3-2.8 1.4-.7-.7-1.2-.9-1.2-.5s-1.8-.2-4-1.3-4-2.5-4-3c0-.6-.5-1-1-1-.7 0-.7.7 0 2 1.2 2.3.6 4-1.6 4-.8 0-1.4.3-1.4.7 0 1.2 6.7 6.3 8.2 6.3.8 0 1.9.5 2.4 1 .6.6 4.4 1 9 .8 7.3-.3 7.9-.5 8.2-2.5.3-2 0-2.1-3.5-1.6-2.1.3-5.1 1.2-6.7 1.9-2.6 1.2-3.3 1.2-5.9-.3-3.4-2-6.6-6.3-4.8-6.3.7 0 2.3 1.1 3.6 2.4 1.3 1.3 2.6 2.1 2.9 1.9.3-.3 1.2 0 2.1.7 1.2 1 1.5 1 1.5-.3 0-1.1 1.5-2 4.3-2.7 6.2-1.6 6.7-1.8 6.7-3.1 0-.7-1.4-.9-4.2-.5-4.2.6-4.2.6-2-1 3.1-2.3 2.8-3.8-.8-3.1-4.6 1-4.8-1.2-.5-4.8 3.9-3.3 4.1-5.7.4-4.8-1.2.4-2.2 1.7-2.6 3.4-.3 1.6-.9 2.9-1.4 2.9-1.1 0-1.1-3.4 0-8.3.6-2.3.5-3.7-.1-3.7-.5 0-.7-1.9-.4-4.5.2-2.5 0-4.5-.5-4.5s-1 1-1.1 2.2zM439 538.4c0 .2.7.6 1.5 1 .8.3 1.5.1 1.5-.4 0-.6-.7-1-1.5-1s-1.5.2-1.5.4zM448.5 539c.4.6 1.1.8 1.6.5 1.4-.9 1.1-1.5-.7-1.5-.8 0-1.2.5-.9 1zM948.7 540.3c-2.4 3.6-2.3 4.8.5 10.2l2.6 5-4.3 4.9c-4.3 4.8-4.3 4.9-3.1 9 .8 2.7 1.8 4.2 3.1 4.4 1.6.3 1.8.1.8-.9-2.3-2.4-1.6-8.4 1.4-11.4 2.4-2.3 3.4-2.6 7.1-2.2 5 .5 5.4-1.2.6-2.5-2.2-.6-3.6-1.9-5.2-5.1-2.3-4.6-2.9-10.2-1.2-11.2.6-.3 1-1 1-1.6 0-1.7-1.7-.9-3.3 1.4zM246.8 540.2c-.3.8-.4 2.7-.1 4.3.5 2.1.3 2.6-.7 2-.9-.6-1-.4-.3 1 1.2 2.1.6 5.5-1 5.5-.6 0-.3.6.8 1.3 1.2.9 1.4 1.6.7 2.1-.6.4-.8 1.4-.5 2.3.5 1.2.3 1.4-.8.8-1.1-.6-1.2-.5-.1.6 1.9 2.1 1.6 5.2-.5 4.5-1.2-.4-1 0 .5 1 2.6 1.9 2.9 3.6.5 2.7-1.5-.6-1.6-.4-.5.9.7.9 1.1 2.2 1 2.9-.2.9.8 1.5 2.6 1.7 2.6.3 2.8.2 1.7-1.1-.8-1-.9-1.7-.1-2.2 1.6-1 1.2-2.8-.5-2.1-.9.3-1.5 0-1.5-.8s1-1.6 2.1-1.9c1.5-.4 2-1.1 1.5-2.2-.3-.9-.6-2.4-.6-3.2 0-1.1-.3-1.3-1.2-.5-1 .8-1.3-.9-1.2-8.1.1-9.4-.7-14.4-1.8-11.5zM435 539.8c0 .5.7 1.5 1.5 2.2.8.7 1.5.8 1.5.2 0-.5-.7-1.5-1.5-2.2-.8-.7-1.5-.8-1.5-.2zM452 539.9c0 .6.5 1.3 1 1.6.6.3 1-.1 1-.9 0-.9-.4-1.6-1-1.6-.5 0-1 .4-1 .9zM976.4 542.6c.3.8.1 2.4-.4 3.5-1.5 2.8.5 2.3 2.4-.6 1.8-2.8 2.1-3.9.6-3-.5.3-1 .1-1-.4 0-.6-.5-1.1-1.1-1.1-.6 0-.8.7-.5 1.6zM411.8 542.7c.6.2 1.8.2 2.5 0 .6-.3.1-.5-1.3-.5-1.4 0-1.9.2-1.2.5zM432 543c0 .5.5 1 1.1 1 .5 0 .7-.5.4-1-.3-.6-.8-1-1.1-1-.2 0-.4.4-.4 1zM960.6 542.9c-.9 1.4.4 4.1 1.9 4.1.7 0 1.3-1.1 1.3-2.5 0-2.4-2.1-3.4-3.2-1.6zM416.8 543.7c.7.3 1.6.2 1.9-.1.4-.3-.2-.6-1.3-.5-1.1 0-1.4.3-.6.6zM420.8 544.7c.7.3 1.6.2 1.9-.1.4-.3-.2-.6-1.3-.5-1.1 0-1.4.3-.6.6zM209.5 548.3c-.3.7-2.3 1.3-4.4 1.3-6.3.2-11.1 1.4-11.1 2.8 0 .8 1.2 1.3 3 1.4 1.7 0 3-.4 3-.9s.7-.9 1.6-.9c.8 0 1.2.5.9 1-1.2 1.9 2.4 2.2 4.2.4 1.7-1.6 1.8-1.6 2.1-.1.2.9.7 1.7 1.2 1.7 1.5 0 3.1-4 2.5-6-.7-2.3-2.3-2.6-3-.7zM288.6 549.5c-.4 1.4-1.3 2.5-2.1 2.5-1.9 0-1.9 1.4 0 3 1.5 1.2 2.1 4 .9 4-.3 0-1.8-.8-3.2-1.9-1.7-1.1-3.4-1.6-4.6-1.2-1.4.6-.9 1.1 2.9 2.6 4.4 1.9 7.4 4.9 6.1 6.3-.3.3-.6 0-.6-.6s-.7-.9-1.5-.6c-.8.4-1.5.1-1.5-.5 0-1.3-2-1.4-4-.1-1.3.8-1.2 1.1.5 2.4 2 1.4 2 1.4 0 3.7-1.9 2.1-1.9 2.2-.1 1.6 1.5-.6 1.7-.3 1.3 1.3-.3 1.1-.1 2 .4 2s.9-.7.9-1.5.8-1.5 1.8-1.5c.9 0 2.5-.7 3.5-1.5 1.2-.8 3.5-1.2 6.2-.9 3.9.3 4.6 0 6.3-2.4 1-1.5 2.2-3.5 2.5-4.5.4-1 1-1.6 1.4-1.4.5.3 1.4-.1 2.1-.9 1-1.1 1-1.4-.1-1.4-.8 0-2.2.9-3.2 2-2.6 2.8-3.8 2.1-4-2.6-.3-5.2-.3-5.4-1.6-5.4-.6 0-.9 1.8-.8 4.5.2 2.4.1 4.7-.2 5-.3.3-2 0-3.7-.6-2.5-.9-3.2-1.7-3.2-3.8 0-1.5.6-3.3 1.3-4 1-1.1 1-1.4 0-1.8-.7-.3-1.3-1.3-1.3-2.4 0-2.7-1.7-2.3-2.4.6zm11.8 14.3c1.2 1.9-1.1 3.3-3.8 2.3-1.5-.6-3-1-3.4-1-1.6.3-2.3-.2-1.7-1.1.7-1.2 8.2-1.4 8.9-.2zM286 567c0 .5-.5 1-1.1 1-.5 0-.7-.5-.4-1 .3-.6.8-1 1.1-1 .2 0 .4.4.4 1zM376 551.5l-2.5 1.4 3-.3c1.6-.2 3.1-.8 3.3-1.5.5-1.5-.7-1.4-3.8.4zM383.6 551.4c1 .8 2.1 1.2 2.4 1 .5-.6-2.1-2.4-3.4-2.4-.6 0-.1.6 1 1.4zM803.7 551.7c-.4.3-.7 1.7-.7 2.9 0 1.7-.4 2.2-1.6 1.7-1.3-.5-1.5-.2-.9 1.5.4 1.4.2 2.2-.5 2.2s-1 .7-.6 1.5c.3.8.1 1.5-.4 1.5s-1.4.9-2 2c-1.1 2-1 2 2.2.1 2.2-1.2 3.2-2.4 3-3.6-.3-1.2.1-1.6 1.2-1.2 1.3.5 1.5-.3 1.3-4.3-.1-2.8-.2-5-.3-5 0 0-.4.3-.7.7zM810.6 551.7c-.3.3-.6 1.6-.6 2.9 0 1.2-.6 2.4-1.2 2.7-.8.2-.9.8-.4 1.3s1.1.4 1.3-.4c.3-.6 1.3-1.2 2.4-1.2 1 0 1.9-.5 1.9-1 0-.6-.5-1-1.1-1-.6 0-.9-.7-.6-1.5.7-1.5-.6-2.9-1.7-1.8zM360.6 552.8c-.3.5.4 1.3 1.5 2 1.5 1 1.9 1 1.9-.2 0-1.5-2.7-2.9-3.4-1.8zM398.1 553.6c0 1.1.3 1.4.6.6.3-.7.2-1.6-.1-1.9-.3-.4-.6.2-.5 1.3zM339.5 554c-.3.6.1.7 1 .4.9-.4 2.6.2 3.8 1.2l2.2 1.9-1.9-2.3c-2-2.3-4.1-2.8-5.1-1.2zM357 555c0 1.1.2 2 .4 2s.6-.9.9-2c.3-1.1.1-2-.4-2s-.9.9-.9 2zM370 553.9c-2.4.7-2.4.7-.3 1.3 1.4.4 2.4.1 2.7-.8.3-.8.4-1.4.3-1.3-.1.1-1.3.4-2.7.8zM348.5 556c-.3.5-.1 1 .4 1 .6 0 1.1-.5 1.1-1 0-.6-.2-1-.4-1-.3 0-.8.4-1.1 1zM322.7 559c1 1.1 2.1 2 2.5 2 .5 0 .3-.9-.4-2s-1.8-2-2.5-2c-.9 0-.7.6.4 2zM45 560c0 .5.5 1 1.1 1 .5 0 .7-.5.4-1-.3-.6-.8-1-1.1-1-.2 0-.4.4-.4 1zM979.6 563.4c.4 2.3.2 5.2-.4 6.3-.8 1.5-.7 2.1.9 3.1 2.3 1.5 5.9 1.6 5.9.2 0-.6-.9-3-2-5.2-1.1-2.3-2-5.2-2-6.5 0-1.4-.6-2.3-1.5-2.3-1.2 0-1.3.9-.9 4.4zM310.5 561c.3.5.8 1 1.1 1 .2 0 .4-.5.4-1 0-.6-.5-1-1.1-1-.5 0-.7.4-.4 1zM329.5 561c.3.5.8 1 1.1 1 .2 0 .4-.5.4-1 0-.6-.5-1-1.1-1-.5 0-.7.4-.4 1zM804.4 562.2c-.5.7-.9 3.2-1 5.5-.1 3.3.2 4.1 1.1 3.3 1.3-1.1 4 1.1 2.8 2.3-.3.4-.1.7.5.7.7 0 1.2-.4 1.2-.9s.7-.8 1.6-.7c.9 0 1.9-.5 2.2-1.3.3-1 0-1.2-1.2-.8-2 .8-7.2-3.5-6.2-5.1.3-.5 2.4-1.2 4.7-1.6 4.9-.8 4.8-1.1-.8-2-2.8-.4-4.4-.2-4.9.6zM3.2 564c-2.9 1.2-2.8 1.8.3 1.2 1.4-.2 2.5-.8 2.5-1.3s-.1-.9-.2-.8c-.2 0-1.3.4-2.6.9zM165 564c0 .5.5 1 1.1 1 .5 0 .7-.5.4-1-.3-.6-.8-1-1.1-1-.2 0-.4.4-.4 1zM272 564.5c0 .8.5 1.5 1.1 1.5.5 0 .7.5.4 1-.4.6-1.1.7-1.7.4-.6-.4-.8.1-.4 1.4.5 1.3.1 2.2-1.1 2.7-1.6.6-1.5.8.6 1.6 1.3.5 2.6.7 2.9.5.8-.8 1.2-6.9.6-8.8-.7-2.2-2.4-2.4-2.4-.3zM699.9 566.5c-.1 1.1-.3 3.2-.5 4.7-.2 2.2.1 2.8 1.6 2.8 2.2 0 2.3-3.1.3-7-1.1-2.2-1.3-2.3-1.4-.5zM7 567.1c0 .5-.8.9-1.7.8-4.5-.4-5.2.1-5 3.1.2 2.5.6 3 2.9 3 1.9 0 2.6-.4 2.2-1.4-.5-1.4-.3-1.4 16.4-1.6 6.2-.1 7.3-.4 7-1.8-.3-1.3-1.7-1.6-8.6-1.6-4.5.1-8.5.4-8.9.8-1.3 1.2-3.5.6-2.9-.9.3-.8.1-1.5-.4-1.5-.6 0-1 .5-1 1.1zM44.5 568c-.3.5-.2 1 .4 1 .5 0 1.3-.5 1.6-1 .3-.6.2-1-.4-1-.5 0-1.3.4-1.6 1zM752.7 569.7c-.6 3.1.7 5.3 2.2 3.8 1.1-1.1.3-6.5-.9-6.5-.4 0-1 1.2-1.3 2.7zM764.9 568.1c-.7 4.7-.6 5.9.7 5.9 1.1 0 1.3-.7.8-2.8-.6-2.6-1.3-4-1.5-3.1zM829 568.9c0 .5.5 1.3 1 1.6.6.3 1 .2 1-.4 0-.5-.4-1.3-1-1.6-.5-.3-1-.2-1 .4zM774 569.9c0 .5-.3 1.6-.6 2.5-.4 1.1-.1 1.6 1 1.6 1.8 0 2.2-3.5.6-4.5-.5-.3-1-.2-1 .4zM780 569.7c.1 1.4 2.7 4.3 3.8 4.3.5 0 .9-.8.7-1.8-.1-.9-.8-1.6-1.4-1.4-.6.1-1.1-.2-1.1-.8 0-.6-.4-1-1-1-.5 0-1 .3-1 .7zM796 571.5c0 1.6.6 2.5 1.6 2.5 1.1 0 1.4-.5 1-1.6-.3-.9-.6-2-.6-2.5s-.4-.9-1-.9c-.5 0-1 1.1-1 2.5zM58.6 570.9c-.9 1.4-6.8 2.2-8.2 1-.9-.7-2.4-.7-4.9 0-2 .5-4.3.7-5 .5-.8-.3-2.2-.1-3.1.4-1.3.7 1.9 1 10.9 1.1 7 .1 12.7-.2 12.7-.7 0-.5 1-1.4 2.3-2 2.1-1 2-1.1-1-1.1-1.7-.1-3.4.3-3.7.8zM147 570.9c.8.6 2.3 1.1 3.2 1.1.9 0 1.8.5 2 1.1.2.6 1.1 1 2.1.8 3.1-.7.2-3-4.4-3.6-3.3-.3-4-.2-2.9.6z"/><path d="M292.5 571c.3.5.8 1 1.1 1 .2 0 .4-.5.4-1 0-.6-.5-1-1.1-1-.5 0-.7.4-.4 1zM139.7 571.7c-2.7.7-1 2.3 2.5 2.3 2.6 0 2.9-.2 1.8-1.5-.7-.8-1.5-1.4-1.9-1.4-.3.1-1.4.3-2.4.6zM62.4 573.1c-.3.5 1.1.9 3.1.9s3.4-.4 3.1-.9c-.3-.5-1.7-.9-3.1-.9-1.4 0-2.8.4-3.1.9zM712.9 573.3c.5.5 2.4.7 4.2.5 3.3-.3 3.3-.4-.8-.8-2.3-.3-3.9-.2-3.4.3zM146.8 573.7c.7.3 1.6.2 1.9-.1.4-.3-.2-.6-1.3-.5-1.1 0-1.4.3-.6.6z"/></svg>