<svg xmlns="http://www.w3.org/2000/svg" width="550" height="211" fill="none" viewBox="0 0 550 211"><path fill="#d69b65" d="m188.249-185.727 6.055.196a138 138 0 0 1-10.688 11.562c-8.091 7.994-14.757 17.175-21.312 26.438a139 139 0 0 0 9.949 7.426l2.822 1.916 2.916 1.97c7.145 4.84 14.258 9.717 21.313 14.688l2.421-3.043c6.036-7.53 12.126-14.894 18.882-21.794 1.891-1.971 3.52-3.821 4.775-6.257.099-2.095.099-2.095-1.703-3.984l-2.375-2.172c-2.905-2.748-5.716-5.459-8.313-8.5-3.797-4.436-7.78-8.691-11.777-12.947-3.91-4.195-3.91-4.195-3.91-5.303 4.072-.36 6.253-.543 9.625 1.906l2.375 2.594 2.589 2.781 2.411 2.719 1.878 2.093a343 343 0 0 1 3.317 3.813c3.529 4.095 7.18 8.083 10.805 12.094 2.704-1.267 4.954-2.632 7.25-4.539l1.827-1.499 1.923-1.587a205 205 0 0 1 20-14.375l-2-6c2.875-.125 2.875-.125 6 0l2 2 3-2a96 96 0 0 1 7.687-.125l2.127.027q2.593.038 5.186.098c.807 3.928 1.094 6.914.125 10.812l-.555 2.332c-.57 1.856-.57 1.856-1.57 2.856q2.842.506 5.687 1l3.199.562c2.763.388 5.331.52 8.114.438l1 4c3.689-4.642 5.53-8.971 5-15-.873-2.412-1.911-4.672-3-7 4.249-.087 8.499-.141 12.75-.188l3.656-.076 3.515-.029 3.238-.048c3.172.38 4.513 1.212 6.841 3.341 2.69-1.22 2.69-1.22 5-3q3-.063 6 0l-1 3 1.941.261c6.319 1.027 10.123 2.661 15.059 6.739 4.052-4.635 4.052-4.635 7-10h5l-1 5 2.23-.84 2.957-1.098 2.918-1.09c6.676-2.243 13.101-2.19 20.082-2.222l3.291-.063c7.021-.033 12.935.858 19.522 3.313v-3h5v6l1.937.75c2.063 1.25 2.063 1.25 2.813 3.375l.25 1.875-2.938.375-3.062.625-1 2 2.414.113c5.971.37 10.297.903 15.586 3.887 4.182-1.395 4.911-3.665 6.925-7.434 1.627-3.886 1.875-7.373 2.075-11.566h5l1 8 3.937-3.438 2.215-1.933c.969-.855 1.934-1.716 2.848-2.629 2.67-.141 5.324-.043 8 0-3.888 4.98-8.149 8.965-13 13l-1.638 1.371c-16.201 13.535-33.139 25.352-51.189 36.289-2.775 1.71-5.48 3.504-8.173 5.34 28.5-9.817 56.994-25.486 73.625-51.625 1.668-2.5 1.668-2.5 3.375-4.375 3.937-.625 3.937-.625 7 0-2.737 5.098-5.753 9.405-9.563 13.75l-1.6 1.835c-9.377 10.651-19.21 19.303-30.837 27.415 2.529 0 4.622-.815 7.002-1.603 8.496-2.808 16.983-4.767 25.766-6.422 17.042-3.24 32.943-6.544 47.232-16.975l-1.618.656c-7.935 2.965-15.674 3.797-23.629.391-4.484-2.677-7.409-7.036-8.753-12.047a97 97 0 0 1 0-7h5l.296 1.828c.909 4.858 1.536 8.107 5.704 11.172 3.578 2.279 6.563 2.208 10.75 2.125l3.546-.055 2.704-.07.371-2.696c.579-3.045 1.381-5.39 2.691-8.179l1.098-2.367.84-1.758h6l-3 9 2.437-2.813 1.371-1.582c1.4-1.712 1.4-1.712 2.192-4.605h16l-1 13 7-13h17v2h-12c1.363 8.679 1.363 8.679 6 16 3.1 1.885 3.1 1.885 6 3v5h-3c-1.224 4.433-1.224 4.433-.159 8.719l1.127 1.781c2.84 5.365 2.475 10.561 2.282 16.5l-.055 3.215q-.07 3.893-.195 7.785c-3.898-4.868-3.898-4.868-5.571-7.028-6.51-7.998-15.191-13.3-25.429-14.972-12.924-1.076-23.728.426-33.938 9.031-9.248 8.828-13.779 19.516-16.062 31.969l5.957-.196c2.043.196 2.043.196 5.043 2.196l-1 4-2.782-.14c-10.287-.343-10.287-.343-19.218 4.14-5.109 4.882-7.757 10.438-8.133 17.484.333 6.305 2.138 11.588 6.133 16.516 7.379 6.243 14.104 8.472 23.699 8.32 5.962-.578 10.391-2.643 14.863-6.57l1.438-1.75-1.5-2.75c-1.5-3.25-1.5-3.25-1.5-7.25 2.3.16 2.3.16 5 1 1.668 2.37 1.668 2.37 3.187 5.437 6.784 12.35 16.857 20.394 30.125 24.875 6.53 1.874 12.927 2.411 19.688 2.688.234 3.999.375 7.996.5 12l.203 3.41c.194 8.306.194 8.306-2.52 12.187-1.972 1.973-3.95 3.736-6.183 5.403l2.312 2.937 1.301 1.653c1.443 1.681 1.443 1.681 4.387 2.41 1.023 4.114 1.229 7.927-1.001 11.686-3.278 4.448-7.105 8.406-10.999 12.314l-2.649 2.66c-19.409 18.364-44.454 36.805-72.164 36.652l-2.936-.004c-6.755-.09-12.926-.766-19.251-3.308l-.262 1.941c-1.026 6.315-2.582 10.175-6.738 15.059l-2 1 3 2c.864 4.239.275 8.205-1.125 12.25-2.85 4.179-5.981 7.118-10.875 8.75-4.84.389-9.762.649-14-2-.813-2.125-.813-2.125-1-4 3.01-.934 3.866-1.045 7 0 4.977.368 8.044.164 12-3 1.762-2.91 2.327-5.38 2.625-8.75l.226-2.422.149-1.828-2.938 1.062c-4.889 1.417-10.465 1.236-15.062-1.062l-.262 2.379c-1.098 8.21-2.611 13.422-9.238 18.558-7.008 2.128-14.661 2.394-21.313-.937l-3.187-2c8.986 15.276 20.184 25.232 37.539 30.211 9.404 2.144 18.236 3.129 27.898 3.101l3.447.049c8.851.005 18.323-.732 26.116-5.361l1-2c-6.655.35-12.459 1.986-18.682 4.272-3.571 1.281-6.52 2.01-10.318 1.728.505-11.368 8.164-20.379 16-28 11.545-10.466 24.042-11.164 38.937-11.063l3.807.014q4.627.018 9.256.049a450 450 0 0 0-.84-5.29l-.473-2.974c-.997-3.967-2.933-5.77-5.687-8.736-.813-2.875-.813-2.875-1-5 2.3-.227 2.3-.227 5 0 4.064 3.614 6.875 8.715 8 14a98 98 0 0 1 0 7v2c3.489 1.173 6.347 1.601 10 1 3.103-2.401 5.635-5.143 8.242-8.051 3.67-4.077 8.073-7.125 12.758-9.95h1c.359 2.65.359 2.65 0 6-1.887 2.166-3.566 3.827-5.75 5.626l-3.235 2.789-3.015 2.586-4 4 16 7v6l-1.965-.779c-17.161-6.75-31.773-11.398-50.285-11.596l-3.303-.043c-12.381.076-22.642 2.77-31.643 11.562-4.012 4.345-6.962 8.692-9.804 13.856l2.55-.735c19.31-5.213 39.976-8.473 60.012-8.453l2.593.003c5.76.054 11.435.393 17.157 1.06l2.043.237c4.381.574 8.437 1.592 12.645 2.888v5l-1.655-.276c-30.539-5.356-30.539-5.356-60.345.276l2.375 2.562c3.804 4.626 4.905 9.135 4.375 15.063-.477 3.361-1.262 6.298-2.75 9.375l10 1 .187-3.125c.939-4.479 2.307-7.041 5.813-9.875 11.827-7.337 28.241-10.698 42-11v5l-1.674.272c-12.398 2.062-23.724 4.906-35.326 9.728l-3 1c-1.219 2.504-1.219 2.504-2 5l1.793.445c5.956 1.691 8.716 3.428 12.207 8.555 1.515 3.03 1.17 5.651 1 9-1 2.937-1 2.937-2 5 7.505.721 13.456-1.312 20-5 2.396-2.016 4.49-4.092 6.574-6.426l1.426-1.574h1c.496 3.147.752 4.973 0 8-4.947 5.962-12.563 9.374-20 11-1.955.091-3.911.18-5.868.214-5.881-.07-5.881-.07-11.093 2.196-1.468 2.166-2.259 4.09-3.039 6.59l-.942 2.953c-1.533 5.472-2.304 10.388-2.058 16.047l-1 2c-2.823-.303-3.939-.941-6-2.938-6.947-10.637-8.184-22.645-7-35.062.987-4.174 2.301-8.065 4-12-4.796-1.566-8.924-2.802-14-2-8.763 5.271-11.593 13.569-14 23-2.25.062-2.25.062-5-1-5.133-6.33-4.937-15.235-4.293-22.972.936-6.49 3.681-12.611 7.293-18.028l-1.724.428c-7.201 1.632-14.1 1.876-21.464 1.822l-3.644.003c-6.152-.039-11.791-.391-17.793-1.691-10.059-1.674-19.81 2.626-29.322 5.542-15.271 4.478-31.28 6.199-47.053 7.896l-2.622.296c-7.89.819-15.764.905-23.691.891l-2.131-.003c-58.874-.169-114.675-18.331-158.556-58.184l-1.258 1.066c-12.429 9.959-27.644 16.25-43.742 14.934-3.125-.5-3.125-.5-5-1l1 2c1.106 11.305-1.72 20.845-8.313 30.058-6.175 7.105-14.205 8.452-23.187 9.254l-2.5-.312-2-3c2.394-2.491 4.876-4.713 7.562-6.875 3.167-2.665 4.868-5.247 6.438-9.125l-1.75-.688c-3.632-2.118-5.73-4.569-6.946-8.64-.495-2.218-.933-4.43-1.304-6.672l-3.5-.063c-5.577-.663-8.698-4.075-12.5-7.937-.572-.529-1.143-1.057-1.73-1.602-1.27-1.398-1.27-1.398-1.27-3.398-6.442.959-10.455 2.238-15 7-2.875 4.661-3.39 8.513-3.188 13.875l.041 2.086c.035 1.68.089 3.359.147 5.039-4.46 1.562-7.334.159-11.524-1.633-4.872-2.69-7.564-6.377-9.851-11.367-.956-4.587-1.113-8.538.375-13-7.22.842-12.19 2.369-17 8-2.55 4.133-3.789 8.339-5 13-2.467-.34-3.75-.759-5.563-2.5-3.779-6.572-4.994-13.31-4.937-20.813 0-.822.002-1.644.004-2.492.178-7.151 2.024-12.923 5.496-19.195l1-2-1.61 1.242-2.14 1.633-2.11 1.617c-1.988 1.4-3.939 2.486-6.14 3.508-2.73-4.093-2.485-7.2-2-12 1.813-8.803 7.764-14.748 15.062-19.563C25.2 50.982 34.62 45.365 46.304 45.22l3.687-.078c10.365.444 19.442 4.472 28.563 9.078q3.284 1.616 6.57 3.226l3.192 1.572a337 337 0 0 0 12.113 5.577l3.57 1.57c7.851 3.1 16.947 5.807 25.199 2.56 5.105-2.498 9.889-5.54 14.383-9.017 1.723-1.238 1.723-1.238 3.723-1.238l-1.688-2.867c-21.312-36.708-21.312-36.708-21.312-53.133l-1.727-.23c-6.76-2.289-11.508-10.694-14.648-16.708-6.541-14.335-8.376-29.963-2.946-45.039 4.201-9.62 9.944-19.858 19.403-25.199 3.132-2.98 3.739-6.875 4.918-10.95 9.122-29.156 25.337-55.216 45.925-77.616 2.61-2.841 5.138-5.75 7.664-8.665 3.158-3.568 3.158-3.568 5.356-3.789m86.14 3.602-2.304 1.504-2.406 1.59-2.43 1.59a1560 1560 0 0 0-5.945 3.91 69 69 0 0 0 7 4.125l2.062 1.07c2.05.997 2.05.997 4.938.805 3.241-3.34 4.981-6.464 6-11-.294-3.272-.294-3.272-1-6-2.64 0-3.714.961-5.915 2.406m266.915-2.406 1 3zm-230 2 .07 1.871c.128 6.008-.502 11.331-2.07 17.129l1.941.48c6.01 1.621 10.208 3.618 15.059 7.52 4.041-4.758 7.118-8.477 7-15-1.725-5.882-4.196-8.524-9-12-2.367-1.183-3.868-1.134-6.5-1.125l-2.407-.008c-2.153 0-2.153 0-4.093 1.133m28 27-3.219 2.519c-4.328 3.388-8.65 6.783-12.949 10.207-9.277 7.388-18.426 14.521-28.832 20.274l-2.375 1.367c-6.04 3.127-11.919 3.426-18.625 2.633-4.343-1.524-6.609-3.105-9-7-1.446-8.323.443-14.152 5-21a142 142 0 0 0 2-4c-11.083 5.117-20.873 17.086-28.75 26.25-15.336 17.835-33.153 29.524-57.061 31.39-5.01.347-10.021.656-15.034.941-15.17.886-30.563 2.031-43.155 11.419l-2.102 1.52c-9.118 7.234-15.793 18.032-17.898 29.48-1.563 14.922 1.169 27.646 10 40 1.586 1.835 3.176 3.39 5 5 2.74-1.307 5.189-2.782 7.687-4.5 7.211-4.535 15.556-5.572 23.881-4.022 8.07 1.888 15.205 4.928 22.682 8.46 12.487 5.719 23.842 10.366 37.75 10.062l-3-2c-5.653-4.217-9.639-7.904-11-15-.947-6.725.363-12.264 4-18 5.442-6.656 13.06-9.223 21.328-10.524 12.641-.754 24.702 2.881 36.826 6.044 11.835 3.08 22.963 4.853 35.221 4.792l3.602-.017c14.004-.194 26.411-3.169 39.023-9.295l1-2-2.93-.043c-9.646-.354-17.553-1.33-24.633-8.582-3.29-5.436-3.002-11.206-2.437-17.375 2.486-8.148 8.423-14.145 15.5-18.563l1.842-1.164c5.911-3.62 12.047-6.187 18.658-8.273l2.214-.707c22.01-5.872 42.276.435 62.977 7.799 9.572 3.095 19.524 2.93 28.809-1.092a72 72 0 0 0 4-3l-3.149.14c-9.017.284-17.033.312-24.531-5.425-3.259-3.305-4.26-6.875-4.516-11.356.74-8.932 7.308-17.04 13.883-22.672l1.699-1.363c1.647-1.352 3.13-2.796 4.614-4.324-3.932 1.228-7.658 2.696-11.402 4.411-18.86 8.615-37.404 12.774-58.161 13.026l-3.316.068c-7.321-.021-14.137-.856-19.741-5.988-3.65-4.176-4.761-7.753-4.65-13.275.996-8.289 5.983-14.149 12.27-19.242 13.514-9.809 27.714-16.351 44-20l2.441-.567c3.442-.583 6.891-.793 10.371-.996l2.1-.131q2.543-.157 5.088-.306v-1c-26.594-5.91-52.93 9.023-73 25m201-26c-2.662 4.546-3.488 7.738-3 13a65 65 0 0 0 2 4q.506-2.843 1-5.688l.562-3.199c.388-2.762.52-5.331.438-8.113zm-204 6 .035 2.738.027 3.574.035 3.551c-.097 3.137-.097 3.137-1.097 6.137a61 61 0 0 0 7.671-4.383l2.012-1.348 2.067-1.394 2.113-1.418q2.57-1.726 5.137-3.457c-.725-3.324-.725-3.324-4.188-4.688-5.137-2-8.96-1.921-13.812.688m60 2v2l1.941.078c4.54.298 8.059.602 11.934 3.109 2.856 2.117 2.856 2.117 5.312 1.375 2.29-1.974 4.051-4.109 5.813-6.562v-1c-12.746-1.75-12.746-1.75-25 1m157-1a2014 2014 0 0 0-4 7.375l-1.157 2.117c-2.101 3.551-2.101 3.551-2.843 7.508 4.759 1.309 7.855.799 12.296-1.031 2.215-1.26 3.03-2.527 3.704-4.969l-2.375-2.688c-2.197-2.619-3.563-5.029-4.625-8.312zm-168 3 2 2 1-2zm159 1 1 2zm-166 1c-8.974 3.344-8.974 3.344-15.821 9.621-1.233 3.147-2.179 5.983-2.179 9.379l2.046.332 2.704.48 2.671.457c2.779.787 4.34 1.954 6.579 3.731h2v2c4.833-2.045 6.913-5.288 9-10 .78-3.94.396-7.108-1.25-10.813-1.747-2.183-3.497-3.562-5.75-5.187m154 1c-3.908 3.96-4.545 6.826-4.75 12.312l-.172 3.801-.078 2.887h7l-1-19zm-282 3 .253 2.343c.599 6.121.796 11.594-.253 17.657 2.847.557 4.235.735 7 0 2.74-2.069 5.133-4.321 7.57-6.739 2.347-2.184 4.629-3.722 7.43-5.261-.295-3.535-.749-4.762-3.375-7.25-6.068-4.046-12.218-3.575-18.625-.75m140 0c-.988 2.963-1.048 4.682-.938 7.75.06 4.508-.586 8.006-2.062 12.25l2.414.515c6.002 1.373 10.763 2.6 15.586 6.485 5.135-5.039 8.919-9.54 9-17-1.156-4.407-2.307-6.402-5.75-9.375-6.494-3.247-11.581-2.925-18.25-.625m28 3c-1.472 2.944-.85 5.374-.563 8.625l.309 3.601.254 2.774c5.262-1.666 9.391-4.931 13.812-8.125l2.389-1.707q2.904-2.077 5.799-4.168c-6.88-5.607-14.272-4.42-22-1m-185 11c-1.838 1.935-3.406 3.856-5 6q2.654.755 5.312 1.5l2.988.843c2.722.775 2.722.775 5.7.657 3.986-4.573 5.057-8.964 5-15l-1-3c-4.75 0-9.587 5.975-13 9m59-9c-2.706 1.325-2.706 1.325-5.5 3.25l-2.907 1.89c-4.937 3.54-6.121 5.856-7.593 11.86l2.414.515c6.002 1.373 10.763 2.6 15.586 6.485 3.683-4.828 5.792-8.71 5.429-14.883-.684-3.372-2.192-5.56-4.429-8.117zm225 3c-1.408 2.559-2.434 5.131-3 8l1 3 7-2 1-12c-2.507 0-4.096 1.549-6 3m-214 0 .035 2.886.027 3.801.035 3.762c-.083 3.013-.389 5.634-1.097 8.551 4.506 1.251 4.506 1.251 8.89.051 1.933-1.417 3.743-2.91 5.547-4.489l1.928-1.603a329 329 0 0 0 4.635-3.959c-1.575-4.383-3.113-6.346-7-9-4.121-1.374-8.998-2.002-13 0m53 0-7 5 1 3c3.367-1.394 4.986-2.979 7-6zm144.375 6.5-7.375 2.5 2 16a841 841 0 0 0 5.05-4.371c1.95-1.629 1.95-1.629 3.68-2.789 3.779-2.604 4.774-4.824 5.645-9.153.232-1.559.448-3.121.625-4.687-3.366 0-6.466 1.422-9.625 2.5m55.625-2.5c-2.395.069-4.792.084-7.188.062l-3.855-.027-2.957-.035-1 5 2.527.883c7.204 2.624 13.311 5.569 19.473 10.117l3 2 2-4-2.375-2.438c-3.197-3.776-3.911-7.765-4.625-12.562-2.211-.106-2.211-.106-5 1m-212 6c-3.18 4.868-4.872 8.007-4 14 1.864 3.383 1.864 3.383 4 6 3.296-.729 3.296-.729 4.75-4.063 1.695-4.336 1.285-7.427.25-11.937-1.271-2.48-1.271-2.48-3-4zm10 3 .187 3.312c.03 5.484-1.582 10.488-3.187 15.688l2.046.402 2.704.535 2.671.528a75 75 0 0 1 4.653 1.105c3.423.764 6.604.556 9.926-.57 2.786-3.463 3-5.568 3-10-.803-4.421-2.664-6.948-6-10-5.842-3.018-9.86-3.655-16-1m71.824 20.015c-4.858 5.284-8.969 11.62-8.824 18.985 1.813 4.586 4.789 6.594 9 9 8.849 2.784 17.887 1.116 26-3 5.841-3.693 5.841-3.693 10-9 2.062-.625 2.062-.625 4-1-1.147 7.589-5.95 13.87-11.891 18.59-10.547 7.05-21.417 10.707-34.109 9.41-8.284-1.674-16.211-4.39-24.188-7.125-19.134-6.53-38.455-6.725-57.07 1.75-10.567 5.298-20.247 11.197-24.235 22.926-.831 4.007-.587 6.893 1.493 10.449 3.973 4.39 7.635 7.562 13.644 8.343 12.523.618 22.201-4.902 31.488-12.96 1.976-1.464 3.465-1.967 5.868-2.383-.704 7.27-6.798 12.346-12 17-10.369 8.164-22.301 13.611-35 17v1c19.652 2.858 38.664-1.448 55-13 7.184-5.813 13.858-12.288 19-20h3c-.613 5.026-1.663 9.755-3.102 14.613l-1.234 4.28q-.971 3.334-1.95 6.669-.946 3.241-1.879 6.489l-.602 2.023c-1.176 3.511-1.176 3.511-.233 6.926 3.972-3.302 7.786-6.61 11.125-10.563 3.414-4.035 7.118-7.724 10.875-11.437 5.415-5.345 5.415-5.345 10.5-11 3.848-4.556 8.14-8.666 12.375-12.857 3.655-3.631 7.132-7.339 10.476-11.26 2.048-2.34 4.173-4.587 6.336-6.82l2.199-2.278c2.114-1.785 2.114-1.785 6.114-2.785l-2 16c2.061-2.061 2.575-3.157 3.537-5.838l.873-2.407.933-2.626.987-2.733q1.591-4.415 3.17-8.834 1.628-4.524 3.259-9.047l2.167-6.015a1424 1424 0 0 1 6.355-17.321l.723-1.932q1.616-4.31 3.251-8.614l1.12-2.981.96-2.531c.814-2.228.814-2.228.665-5.121-19.55 0-43.775 8.812-58.176 22.015M158.304-142.53c-9.669 11.91-25 36.329-25 52l3.812-.875q2.593-.57 5.188-1.125l2.367-.51c8.002-1.589 16-2.101 24.133-2.553q4.016-.23 8.031-.472l3.549-.2c2.981-.158 2.981-.158 5.92-1.265 2.053-2.768 3.601-5.853 5.25-8.875l1.429-2.512 1.336-2.418 1.228-2.218c1.057-2.135 1.057-2.135-.243-4.977-1.501-1.343-1.501-1.343-3.403-2.544l-2.174-1.455-2.361-1.544-2.41-1.602a1422 1422 0 0 0-5.054-3.335 2002 2002 0 0 1-7.763-5.135l-4.898-3.241-2.361-1.562-2.174-1.427-1.922-1.264c-1.335-.977-1.335-.977-2.48-.891m330 0a5978 5978 0 0 0-6.891 18.689q-1.17 3.182-2.349 6.361a2776 2776 0 0 0-3.358 9.129l-1.076 2.886-.971 2.669-.868 2.355c-.726 1.978-.726 1.978.513 3.91l1.609-.804c6.391-3.195 6.391-3.195 8.594-3.953 2.087-1.152 2.087-1.152 2.484-3.93l.313-3.312c.533-4.458 1.257-8.012 3.187-12.063 3.161-7.165 1.366-14.524-.187-21.937zm-271 7 .937 2.312c1.613 4.081 2.296 7.507 2.625 11.875l.254 3.293.184 2.52c10.128-1.318 14.899-7.519 21-15-1.616-4.395-2.914-6.513-7-9-7.32-2.109-11.622.223-18 4m163-3 .035 1.793c.048 4.209.025 8.099-1.035 12.207 5.179-1.469 9.343-3.815 13.875-6.625l2.085-1.274q2.524-1.544 5.04-3.101c-3.612-3.777-6.834-5.104-12.063-5.25-3.573.227-4.963.58-7.937 2.25m-133-1-2 3h3l2-3zm24 3 3 14c5.937 1.187 9.504.298 15-2 2.572-1.977 2.572-1.977 4-4-3.191-5.333-3.191-5.333-8-9-5.6-1.263-8.517-1.194-14 1m28 3-2 1v2l5-2zm-32 1 1 2zm-54 2c-5.61 6.201-10.216 12.553-14 20h15c2.308-4.618 3.671-8.297 2.39-13.453a116 116 0 0 0-2.39-6.547zm55 1 1 2zm-75 29v2c6.484-.48 12.191-2 18-5l1-2c-7.19-3.595-13.56.138-19 5m257 25a109 109 0 0 0-3.313 3.687l-1.898 2.2a232 232 0 0 0-5.789 7.113h3c-.327 5.955-2.886 8.755-6.75 12.937-4.079 4.514-7.793 9.05-11.25 14.063 4.485-1.57 8.186-3.905 12.125-6.5l1.878-1.223c6.452-3.745 6.452-3.745 9.383-10.11l.655-2.92.646-3.06.682-3.025c.982-4.481 1.761-8.557 1.631-13.162zm13 3a935 935 0 0 0-1.938 4.25l-1.09 2.39a36.7 36.7 0 0 0-1.972 6.36c4.082-1.797 4.082-1.797 7-5-.055-2.764-.507-5.263-1-8zm-8 2 1 3zm-20 11-1.295 1.386a5060 5060 0 0 1-6.018 6.426c-.727.776-1.454 1.55-2.202 2.35a446 446 0 0 1-12.673 12.963c-3.78 3.728-6.938 7.414-9.812 11.875 5.821-1.336 8.516-4.12 12.312-8.438l1.709-1.892c4.845-5.408 9.451-10.994 13.979-16.67a1002 1002 0 0 1 5-6zm22.437 7.5-3.066 2.531-2.371 1.969c1.414 3.187 1.414 3.187 4.125 5.312 3.924.939 6.903.36 10.875-.312l-.938-2.5c-1.181-3.892-1.645-7.462-2.062-11.5-2.259 0-4.969 3.18-6.563 4.5m11.563-4.5c-.459 5.732.343 8.553 4 13 4.582 4.037 6.88 5.11 13.027 5.133 2.186-.064 2.186-.064 4.973-1.133-.169-2.947-.169-2.947-2-6-2.643-1.198-5.323-1.999-8.094-2.856-3.91-1.54-6.462-3.855-9.446-6.754-1.245-1.505-1.245-1.505-2.46-1.39m49 4c-1.142 3.424-.95 3.847.562 6.937 2.128 3.978 4.343 6.016 8.438 8.063 3.132.969 3.132.969 6 1l2-2-2.012-1.54c-8.102-6.315-8.102-6.315-10.988-9.96l-2-2.5zm-11.188 5.437c-3.965 1.36-7.651 2.12-11.812 2.563 3.986 5.437 3.986 5.437 10 8 3.805-.133 7.562-.281 11-2l-3-10c-2.362 0-3.966.638-6.188 1.437M384.741-40.53l-1.941 1.687-1.496 1.313 1.875.937 4.125 2.063 2-9c-1.879 0-3.216 1.824-4.563 3m61.563-2c-2.495 3.742-2.537 7.662-2 12 2.043 5.485 5.264 9.373 10.312 12.375 3.81.886 6.839.277 10.688-.375l-1-3.375c-1.245-4.89-1.185-9.611-1-14.625l-2.012-.551c-4.764-1.356-8.814-2.71-12.988-5.45zm24 4c-2.775 5.328-3.761 9.147-2 15 2.778 5.078 5.489 8.163 11 10 3.683.131 6.49.17 10-1l-.497-2.57c-.513-3.495-.602-6.777-.566-10.305l.027-3.492.036-2.633-2.415-.332c-5.733-.858-10.611-1.629-15.585-4.668m-37.563 4.5-3.066 1.968-2.371 1.532c1.421 3.38 1.89 3.94 5.312 5.812 3.863 1.575 3.863 1.575 8.688.188l-2-13c-2.238 0-4.783 2.354-6.563 3.5m-219.437 2.5-2 3 2.414.55c5.561 1.32 10.633 2.56 15.586 5.45l2.062-2.813c4.461-5.328 10.235-6.503 16.938-7.187-9.66-5.367-25.673-4.985-35 1m281-4c-2.635 4.573-2.654 8.84-2 14 2.684 5.575 6.619 8.786 12.437 10.875 3.548.173 6.263-.606 9.563-1.875 1.325-2.929 1.325-2.929.062-5.5-1.473-4.853-1.224-9.466-1.062-14.5l-1.723.105c-5.669.199-9.188-.662-14.277-3.105zm26 0c-2.758 4.595-4.053 8.69-3 14 1.789 4.275 4.012 7.242 7.687 10.062 4.621 1.308 8.668 1.146 13.313-.062 2.614-1.854 2.614-1.854 4-4l-1.5-2.875c-2.03-4.641-1.771-9.15-1.5-14.125l-2.633-.149-3.492-.226-3.446-.211c-3.383-.409-6.246-1.224-9.429-2.414m-135 2 1 2zm159 0c-1.555 4.662-1.545 8.487.125 13.125 2.201 3.375 4.235 6.086 7.875 7.875 5.163.98 9.529.6 14.125-2l2.875-2-1.438-3.125c-1.486-3.23-2.05-6.363-2.562-9.875l-3.579-.621-4.671-.817-2.356-.408-2.285-.4-2.095-.365c-2.027-.392-4.016-.87-6.014-1.39m-160 2a80 80 0 0 0-2.688 3.43l-1.617 2.16-1.695 2.285-1.696 2.261c-2.892 3.781-2.892 3.781-5.304 7.864l10-2c1.908-5.393 3.395-10.315 4-16zm-149.063 8.5c-2.244 2.368-2.244 2.368-1.937 5.5l2.195-.035c5.052-.048 9.838-.039 14.805 1.035l1.125-2.75c2.136-3.704 4.255-5.079 7.875-7.25v-1c-8.776-2.128-16.983-1.28-24.063 4.5m186.063-3.5c-3.108 4.723-3.335 8.184-2.571 13.601 1.157 4.864 3.616 7.574 7.321 10.774 4.148 2.074 6.667 1.94 11.25 1.625l-.5-2.063c-.929-5.453-.555-10.531.5-15.937l-2.047-.735c-4.861-1.826-8.501-3.237-11.953-7.265zM257.679-19.97c-2.564 2.277-2.564 2.277-3.375 5.438a342 342 0 0 0 7.812-1.125l2.236-.281c2.469-.346 2.469-.346 5.952-1.594 1.983-2.842 1.983-2.842 3-6l2-3c-6.16 0-12.828 2.71-17.625 6.562m18.625-.562 1 2 7-3-1-4c-2.408 0-5.246 3.507-7 5m97.187-11.813c-6.093 3.95-12.318 6.52-19.187 8.813l-2.11.715c-12.561 3.677-27.848 3.084-40.336-.782-4.275-1.123-8.1-1.156-12.492-1.058l-2.361.027c-1.901.023-3.801.06-5.701.098 6.864 9.758 20.328 12.493 31.5 14.687l3.5.313 2.203.37c12.575 1.255 26.343-7.575 35.886-15.058 1.989-1.366 3.552-1.89 5.911-2.312v5c3.924-3.7 7.022-7.49 10-12v-2c-2.942 0-4.401 1.531-6.813 3.187M205.304-21.53c-1.814 3.628-1.443 7.262-.457 11.133 1.385 3.525 2.446 5.392 5.949 7.039a69 69 0 0 0 7.508 1.828l.687-3.188c1.122-3.995 3.23-6.038 6.313-8.812l2-3c-3.872-4.678-8.753-6.623-14.688-7.313-2.716.367-4.862 1.088-7.312 2.313m201.937 1-3.348 1.687-2.589 1.313c2.238 3.953 3.784 6.093 8 8h5v-14c-2.333 0-5.064 1.99-7.063 3m-45.937 3.375-1.946 1.25c-2.552 1.655-4.898 3.218-7.054 5.375 6.286.252 6.286.252 12-2 2.207-2.181 4.242-4.44 6-7v-2c-3.475 0-6.167 2.52-9 4.375m83-2.375c-3.155 3.154-3.782 6.323-4.129 10.62.293 5.41 2.875 9.216 6.754 12.817 3.342 2.2 5.035 2.682 9 2.625l2.476-.027 1.899-.035 1-2-1-3a82 82 0 0 1-.125-4.938l-.008-2.59c.123-2.3.488-4.269 1.133-6.472l-2.196-.516c-5.709-1.431-10.158-2.842-14.804-6.484M272.636-8.867c-3.672 4.371-4.455 6.682-4.332 12.336l2.265-1.242 2.985-1.633 2.953-1.617c2.797-1.508 2.797-1.508 5.113-2.461l1.684-1.047a78 78 0 0 0 1-8c.301-1.341.615-2.68 1-4-4.61 0-9.523 4.526-12.668 7.664m18.668-7.664c-.7 1.264-1.385 2.536-2.063 3.812l-1.16 2.145c-1.08 2.19-1.08 2.19.223 5.043 1.541-1.375 1.541-1.375 3-3v-2l4-2-1-3zm104 2c-3.265 3.558-3.793 6.64-4.125 11.332.209 4.472 1.624 7.98 4.125 11.668 4.129 3.68 6.608 4.173 12 4l.183-2.414c.832-10.525.832-10.525 1.817-15.586l-3.188-1.125c-4.197-1.759-6.056-4.331-8.812-7.875zm73 0c-3.527 4.297-4.602 7.245-4.321 12.824.683 4.638 2.447 7.388 5.883 10.488 3.473 2.404 5.25 2.825 9.438 2.813l2.687.008c2.339.018 2.339.018 4.313-1.133l-.497-2.043c-.591-3.47-.599-6.75-.566-10.27l.027-3.8.036-2.887-1.942-.297c-5.843-1.01-10.09-2.463-15.058-5.703M225.366-7.656c-1.92 2.91-2.76 4.697-3.062 8.125 5.55-.744 5.55-.744 11-2v4l8 2 .75-3.625c1.242-5.004 3.601-8.727 7.25-12.375-7.9-3.95-17.919-2.836-23.938 3.875m21.938 5.125c-1.479 2.956-1.061 5.742-1 9l1.578-.403a598 598 0 0 1 9.172-2.16l3.546-.816 2.704-.621L263.6.71c1.022-5.339 2.387-8.931 5.704-13.242-9.028-.874-16.03 3.68-22 10m133.375-8.5-3.04.844-2.335.656c1.617 4.393 3.316 7.002 7 10 2.711.42 2.711.42 5 0l-.063-3.125c.055-3.427.408-6.521 1.063-9.875-2.71 0-5.018.772-7.625 1.5m111.625.5c-3.092 5.024-3.902 9.24-3 15 1.34 3.739 3.227 6.39 6.375 8.875 5.717 2.45 9.793 2.412 15.625.125 1.333-3 1.333-3 0-6-.07-2.395-.085-4.792-.063-7.188l.027-3.855.036-2.957-2.739-.367-3.574-.508-3.551-.492c-3.136-.633-3.136-.633-6.136-2.633zm53 0c-3.108 5.54-4.775 10.161-3.063 16.437l1.063 2.563c4.524-2.401 7.772-5.503 11.312-9.125l1.666-1.668c2.757-2.239 2.757-2.239 4.022-5.207l-1.758-.149c-4.682-.448-8.817-1.15-13.242-2.851m-417 8v3c10.344-2.287 20.682-4.594 31-7-9.351-6.234-22.964-3.3-31 4m166.625-4c-5.597 5.818-8.073 11.01-8.059 19.117.3 2.29.3 2.29 3.434 3.883l2.125-3.25c2.544-3.595 5.088-5.549 8.875-7.75l-.5-1.875c-.701-4.38-.578-8.7-.5-13.125-2.773 0-3.416 1.083-5.375 3m10.375-3c-1.185 3.553-1.267 6.27-1 10 1.442 1.714 1.442 1.714 3 3l1.023-1.645 1.352-2.168 1.335-2.144a237 237 0 0 1 3.29-5.043zm213 0c-3.31 5.24-3.894 9.963-3 16 1.981 3.892 4.103 6.943 8 9 6.432 1.5 10.009.674 16-2l-.497-2.54c-.533-3.665-.601-7.133-.566-10.835l.027-3.774.036-2.851-1.836.105c-6.586.213-11.976-.893-18.164-3.105m-150 3c-4.183 5.881-5.054 10.835-4 18 1.511 4.256 3.916 7.896 8 10 2.667.251 2.667.251 5 0l.113-1.758c.428-5.093 1.348-8.717 3.887-13.242v-2l-2.75-1.688c-3.931-2.797-5.122-5.055-7.25-9.312zm-43 1c.165 6.285.165 6.285 3.062 11.562l1.938 1.438c2.951-1.476 3.069-3.501 4.125-6.563l1.07-3.066.805-2.371zm29.312-.5-2.449.281-1.863.219c-1.442 3.154-1.442 3.154.75 6.562 1.597 2.772 2.446 3.569 5.25 5.438h3l.402-2.082.535-2.73.527-2.708c.536-2.48.536-2.48 1.536-5.48-2.629 0-5.082.198-7.688.5m-37.75 2.82c-5.255 6.07-7.074 11.202-6.965 19.266.655 3.93 2.559 5.712 5.403 8.414 2.001-2.001 2.73-3.398 3.875-5.938 1.567-3.246 2.913-5.227 6.125-7.062l-.875-2.188-1.125-2.812-1.063-2.438c-1.039-2.84-1.52-5.573-1.937-8.562-2.08-.226-2.08-.226-3.438 1.32m99.438-1.32c-3.275 4.33-4.904 7.395-5 13 1.195 5.545 3.482 9.45 8 13 2.431 1.237 2.431 1.237 5 1 2.912-1.125 2.912-1.125 5-4 .776-2.81 1.248-5.555 1.64-8.442.36-2.558.36-2.558 1.36-5.558l-1.977-.7c-5.586-2.084-9.691-4.196-14.023-8.3m-260.805 2.75-2.194.538c-2.294.564-4.585 1.138-6.876 1.712l-4.688 1.156q-5.72 1.411-11.437 2.844c.501 3.896 1.013 7.577 2.347 11.277l.822 2.28.893 2.38.94 2.517c4.269 11.164 9.738 21.604 15.748 31.92l1.105 1.931c2.039 3.403 3.537 5.117 7.145 6.695l1.338-1.035c8.255-6.372 16.507-12.722 25.105-18.629 3.589-2.502 6.557-5.181 9.557-8.336l-1.723-2.5c-6.422-9.53-11.533-19.412-15.234-30.32-1.249-2.609-2.205-3.274-4.793-4.493l-1.985-.988c-5.452-1.683-10.691-.312-16.07 1.05m186.805-1.75c-1.327 1.453-1.327 1.453-2.563 3.312l-1.316 1.864c-2.822 4.59-2.706 9.614-2.121 14.824 1.486 4.032 3.378 6.585 7 9h3l.769-2.23 1.043-2.958 1.02-2.918c1.147-2.844 2.521-5.313 4.168-7.894l-2.25-1.438c-3.612-3.365-5.01-7.012-6.75-11.562zM272.393 7.234c-4.45 4.643-6.197 7.752-6.089 14.235.787 2.423.787 2.423 2 4 2.5-1.155 4.65-2.443 6.937-4 3.063-2 3.063-2 8.063-4v-16c-4.769 0-7.55 2.659-10.911 5.765m282.25-2.168a2227 2227 0 0 0-3.402 3.465c-4.811 4.863-9.676 9.56-14.937 13.938l-1.817 1.527a721 721 0 0 1-4.183 3.473c1.363 2.992 2.949 5.29 5.125 7.75l1.632 1.86 1.243 1.39c3.901-1.616 6.715-4.274 9.75-7.125l1.599-1.492c1.555-1.455 3.103-2.919 4.651-4.383l2.421-2.258c4.116-3.945 7.026-7.636 9.579-12.742a1436 1436 0 0 0-3.938-4l-2.215-2.25c-2.882-2.73-2.43-2.158-5.508.847M439.304 3.47c-3.543 4.228-5.142 7.03-5.188 12.562l-.043 2.38c.039 2.282.039 2.282 2.231 4.058l2.23-1.934 2.957-2.504 2.918-2.496c2.817-2.01 4.501-2.725 7.895-3.066l-.551 1.617c-1.943 5.759-3.733 11.553-5.449 17.383 4.14.21 4.14.21 8-1l-.071-2.38c-.102-5.968.025-10.994 2.071-16.62l-1.758-.297c-6.241-1.195-10.661-3.122-15.242-7.703m-255 1 1 5h1v-5zm203 2c-4.013 4.204-5.391 7.157-5.625 13 .216 4.802.976 8.002 4.128 11.664 3.695 3.299 6.593 4.336 11.497 4.336l.332-2.414c.857-5.733 1.628-10.612 4.668-15.586l-1.61-.7c-5.326-2.458-8.694-4.907-11.39-10.3zm-196 1c-1.588 3.174-1.285 6.536-1 10 .882 2.882.882 2.882 2 5l1.835-.07c6.313-.137 12.029.608 18.165 2.07l.148-1.793.227-2.395.21-2.355c.454-2.693 1.324-4.96 2.415-7.457q-4.875-.756-9.75-1.5l-2.79-.434-2.695-.41-2.475-.38c-2.568-.356-2.568-.356-6.29-.276m27 7c-.924 2.77-1.164 4.567-1.188 7.437l-.043 2.309c.254 2.487.99 4.102 2.231 6.254l3.312-1c5.216-1.33 10.34-1.177 15.688-1l.113-2.16c.408-5.94 1.173-10.532 3.887-15.84-8.555-5.008-17.495-3.596-24 4m27.562.375c-2.464 3.164-3.648 5.51-3.562 9.625.806 2.49 1.822 4.644 3 7l3.437-1.875c4.391-2.215 8.741-3.277 13.563-4.125l-.125-3.938c-.016-4.898.875-9.344 2.125-14.062-7.672-.64-13.179 1.7-18.438 7.375m52.438-1.375c-3.984 4.074-6.012 7.364-7 13 .182 5.285 1.24 8.24 5 12h2c1.149-1.664 1.149-1.664 2.25-3.75 2.408-4.054 4.661-5.968 8.75-8.25l-1.438-2.875c-1.99-4.572-2.275-9.194-2.562-14.125-2.516 0-5.06 2.493-7 4m165-3c-3.993 4.476-5.393 7.803-5.27 13.875.569 4.488 2.448 7.694 6 10.484 5.209 3.036 9.485 2.873 15.27 1.64 1.429-4.289 1.019-8.38.937-12.87.052-2.615.284-4.655 1.063-7.13l-2.231-.296c-5.703-.874-9.493-1.565-13.769-5.703zm-104 2c-5.413 3.996-5.413 3.996-8 10-.537 4.998-.583 8.79 1.625 13.375 2.58 2.852 5.011 4.764 8.375 6.625h3l.296-1.758c1.028-5.366 2.413-8.89 5.704-13.242l1-2-2.75-1.625c-3.372-2.235-5.177-4.895-7.25-8.375zm-34.278 5.23c-3.561 3.659-4.856 7.841-5.16 12.832.597 5.371 2.554 8.276 6.563 11.813 1.796 1.296 1.796 1.296 3.875 1.125l.953-2.012c2.3-4.745 4.488-9.034 8.047-12.988l-2.313-2.438c-3.17-3.755-4.408-7.881-5.687-12.562-2.367 0-4.597 2.757-6.278 4.23m164.278-3.23c-3.728 3.975-5.498 7.62-6 13 .847 5.557 2.654 8.463 7 12 4.008 2.215 7.466 2.324 12 2a109 109 0 0 0 5-2l-.254-2.598c-.535-6.002-.985-11.487.254-17.402l-1.907-.078c-6.324-.42-10.599-1.768-16.093-4.922m26 2c-4.13 6.843-5.657 11.099-4 19 6.729-3.44 12.249-8.133 18-13l-1-2c-1.924-.513-3.85-1.022-5.797-1.438-2.508-.64-4.819-1.562-7.203-2.562m-107 2c-3.705 4.066-5.759 6.54-6.313 12.187.383 4.673 1.986 7.814 4.313 11.813h3a78 78 0 0 0 4.562-6.313l1.209-1.803a640 640 0 0 0 3.229-4.884l2-3-3.313-1.75c-3.023-1.707-4.723-3.356-6.687-6.25zM272.901 29.043c-2.957 4.514-3.564 9.145-2.597 14.426 1.615 3.553 1.615 3.553 4 6h3a387 387 0 0 0 3.46-4.399c2.659-2.766 6.046-4.128 9.54-5.601l-.657-1.942c-1.684-5.232-2.702-9.565-2.343-15.058-5.793-.905-10.66 2.373-14.403 6.574m165.778-2.262c-5.676 5.747-11.21 12.502-12.375 20.688l-4 1c.579-6.014 1.223-12.01 2-18-9.942 8.737-17.517 23.084-20 36l2.125.375c2.875.625 2.875.625 5.687 1.75 5.462 1.499 9.521.755 14.5-1.875 4.124-3.453 5.687-6.292 6.375-11.563l.313-3.687h4c-.173 6.764-1.485 11.829-6 17-4.58 3.941-10.031 5.268-16 5-4.867-1.009-8.639-2.237-12-6v3l-4 1-3-12-2 1c-3.674 11.632-3.31 25.575 1 37l2 2v-2c6 2 6 2 8.121 2.871 4.708 1.836 8.198 2.643 13.089 1.055 4.115-2.13 6.178-5.581 8.04-9.676 1.012-4.387 1.413-8.766 1.75-13.25 2.768.488 5.192 1.077 7.812 2.125 4.059 1.114 7.159 1.089 11.188-.125 5.189-3.133 6.824-6.08 8.554-11.817.579-2.465.579-2.465.446-6.183-2.009-1.748-2.009-1.748-4.625-3.25-5.409-3.619-10.45-7.295-11.84-13.989-.302-7.368 1.743-14.65 3.465-21.761-1.945 0-3.314 2.05-4.625 3.312M195.304 28.47c7.714 10.233 7.714 10.233 16 20h1l.148-1.758c.448-4.681 1.15-8.817 2.852-13.242-4.677-4.239-9.606-6.631-15.875-7.313-2.339.128-2.339.128-4.125 2.313m176 4c-2.598 4.25-2.694 9.153-2 14 2.207 4.333 4.825 7.475 9 10 3.709.334 3.709.334 7 0l.296-1.942c1.011-5.843 2.463-10.09 5.704-15.058l-1.575-.848c-5.305-3.05-8.111-6.03-11.425-11.152-2.594 0-5.194 3.223-7 5m-122.75 3.187c-2.778 3.473-4.064 6.354-4.25 10.813 1.418 4.73 3.265 7.78 7 11l1.722-1.242c4.712-3.288 8.648-5.56 14.278-6.758l-.5-2.078c-.563-3.286-.561-6.341-.5-9.672.037-2.083.047-4.168 0-6.25-1.201-1.42-1.201-1.42-4.688-1.25-5.457.087-8.827 2.068-13.062 5.437m57.367-.89c-3.334 3.51-4.764 6.927-5.055 11.703.209 5.21 2.777 8.44 6.5 11.937l1.938 1.063c3.746-1.249 4.044-2.8 5.816-6.145 1.898-2.975 4.376-4.75 7.184-6.855L321.28 45c-3.196-4.803-4.865-8.871-5.976-14.531-4.9 0-5.937 1.131-9.383 4.297m219.383-3.297-2.282 1.8c-7.009 5.484-14.149 10.658-21.599 15.531-4.011 2.547-4.011 2.547-6.119 6.669 1.871 3.183 1.871 3.183 4 6 12.928-2.704 25.108-10.455 35-19l-1.688-2.688-.949-1.511c-1.895-2.503-4.118-4.615-6.363-6.801m-306.672 6.84c-2.357 3.833-1.942 7.813-1.328 12.16 1.033 2.816 2.172 4.546 4 7 3.728 1.243 5.215.198 8.726-1.23 3.678-1.246 7.418-1.511 11.274-1.77l-.036-3.14-.027-4.11-.025-2.067c-.017-3.377.031-6.456 1.088-9.683-8.686-4.343-16.614-4.928-23.672 2.84m120.672-2.84c-3.676 4.836-4.655 8.564-4.387 14.633.776 4.753 3.134 7.427 6.887 10.242 2.651 1.398 2.651 1.398 6.5 1.125l.515-1.793c1.82-5.935 4.065-9.788 8.485-14.207l-2.688-1.375c-4.538-2.954-6.235-7.81-8.312-12.625-2.604 0-5.08 2.386-7 4m106 0c-1.144 2.287-1.104 3.592-1.063 6.125l.063 3.875c1.991-2.987 2.941-5.597 4-9zm11 0c-4.424 4.424-6.005 7.826-7 14 .072 2.086.072 2.086 1 4 5.237 4.176 11.599 7.124 18 9 2.171-.378 2.171-.378 4-1l-.071-2.633-.054-3.492-.071-3.446c.199-3.487.943-6.185 2.196-9.43l-2.231-.515c-5.518-1.37-9.525-2.513-13.769-6.484zm-259 5-2.176 1.695c-9.166 7.1-18.48 13.987-27.832 20.838a721 721 0 0 0-5.992 4.467c6.224 13.783 20.904 26.017 32.562 35.25l1.731 1.375c3.096 2.378 6.001 4.133 9.707 5.375 8.48-12.236 16.769-24.595 25-37-3.629-3.682-7.368-7.206-11.188-10.688-5.766-5.287-11.324-10.737-16.812-16.312a4911 4911 0 0 0-5-5m285 0c-4.905 6.174-6.755 10.08-6 18 4.639-1.64 8.638-4.069 12.812-6.625l2.1-1.274q2.546-1.546 5.088-3.101c-3.718-3.718-9.17-5.072-14-7m-89 4c-3.138 4.003-3.296 6.984-3 12a57 57 0 0 0 4-7h3l3 9c2.86-2.86 3.897-4.233 5-8-.138-4.25-3.278-7.005-6-10-2.324 0-4.396 2.586-6 4m-102.813.125c-5.173 2.07-8.032 5.103-11.062 9.75-1.417 3.936-1.204 6.096-.125 10.125 2.532 4.878 4.929 6.925 10 9l1.687-2.75c3.147-4.423 6.484-6.918 11.313-9.25l-1.059-1.942c-2.72-5.17-4.326-9.277-4.941-15.058-2.236-1.402-2.236-1.402-5.813.125m67.813 6.875c-4.157 4.718-5.355 7.492-5.286 13.68.541 4.396 3.064 7.055 6.036 10.132 3.351 1.77 6.483 1.874 10.25 2.188l.48-1.942c1.621-6.01 3.618-10.207 7.52-15.058l-1.61-.813c-5.785-3.209-7.904-6.075-10.39-12.187-2.489 0-5.127 2.64-7 4m-38 2c-3.196 3.7-4.787 7.083-5.157 11.914.295 3.932 1.745 6.997 4.157 10.086 3.119 2.518 5.905 4 10 4 .302-.676.605-1.351.918-2.047 2.418-5.15 4.281-8.661 9.082-11.953v-2l-2.313-1.75c-3.936-3.296-5.725-7.247-6.687-12.25-4.07 0-6.8 1.652-10 4m-284-1 1.937 1.937c2.418 3.59 2.607 5.945 2.79 10.172l.273 1.89c2.415 1.208 3.375.951 6.015.579 15.814-1.956 31.367-.237 46.985 2.422l-1 4-3.348-.656c-19.277-3.545-42.2-5.475-60.652 2.656l1.207 1.215c6.458 6.929 8.198 13.542 7.898 22.914l-.105 1.871h3c1.453-1.765 1.453-1.765 2.75-4.063 6-9.414 14.148-16.483 25.085-19.43 10.537-1.69 23.824-2.45 33.165 3.493l1 3c-4.298-.663-8.465-1.595-12.688-2.625-11.115-2.356-20.37-1.064-30.312 4.625-6.1 4.614-10.866 8.94-14 16l2.011.586c8.77 2.586 8.77 2.586 12.989 4.414l2.687-2.375c4.557-3.741 8.964-5.411 14.902-5.352 4.35 1.311 6.65 4.87 9.368 8.344 4.03 4.7 8.165 4.795 14.043 5.383l.296 1.758c1.132 5.911 2.58 10.847 7.579 14.679 3.077.815 5.062.42 8.125-.437 3.713-2.217 3.713-2.217 7-5 .556-5.355.654-9.715-1.813-14.563-2.135-2.582-2.135-2.582-5.187-4.437-.688-2.625-.688-2.625-1-5 3.389 1.395 6.549 2.727 9.687 4.625 6.365 3.785 14.587 3.149 21.602 1.691 9.998-2.875 19.022-7.251 26.711-14.316-3.97-4.682-3.97-4.682-8.086-9.235-6.044-6.489-11.028-13.396-15.914-20.765-3.019.615-5.204 1.581-7.786 3.25l-2.107 1.344-2.17 1.406q-2.14 1.38-4.285 2.75l-1.907 1.234c-6.588 3.833-15.378 2.723-22.558 1.215-12.328-3.411-23.81-9.36-35.117-15.23-10.48-5.435-27.847-13.452-39.07-5.97m219.125 8.062c-3.1 4.286-3.453 6.323-2.836 11.477 1.269 4.395 4.283 7.527 7.711 10.46l3 1 2.187-2.312c4.246-4.057 8.214-5.995 13.813-7.687l-1.938-2.813c-2.44-4.184-2.659-8.16-2.887-12.93.073-2.225.073-2.225-1.175-3.257-7.136-.492-12.986.332-17.875 6.062M27.886 55.473a302 302 0 0 0-8.582 4.996l-2.29 1.386c-5.46 3.68-9.197 8.503-11.71 14.614l1 3 1.992-1.137c8.988-4.835 18.152-7.388 28.008-9.863 1.092-5.354 1.092-5.354-.75-10.375-2.61-3.045-3.814-4.222-7.668-2.621m456.168 4.308-2.141 1.364-1.609 1.324v2l13-1-1-5c-3.602-1.339-5.091-.765-8.25 1.312m-256.75 2.688c3.532 3.949 7.666 6.54 12.125 9.312l2.207 1.416 2.113 1.322c.634.4 1.269.798 1.922 1.209l1.633.74 2-1-1-3a119 119 0 0 1-.063-5.687l.027-3.012.036-2.3c-6.86-2.889-14.895-3.885-21 1m151 4c-2.797 3.368-4.249 6.678-4.5 11.062.748 5.89 2.901 8.672 7.5 12.313 3.017 1.942 3.017 1.942 7 1.625.058-4.271.093-8.542.125-12.813l.05-3.681.02-3.526.032-3.253c-.024-2.947-.024-2.947-2.227-5.727-3.447 0-5.346 1.93-8 4m-81 3c-2.996 3.384-4.746 6.614-5.563 11.062 1.062 5.545 3.234 8.886 7.563 12.313 2.492 1.35 4.293 2.03 7 2.625l1.066-1.828c3.388-5.485 6.062-8.471 11.934-11.172v-2l-2.25-1.438c-4.05-3.773-5.146-8.363-6.75-13.562-5.243-.219-8.751.932-13 4m42 2c-3.102 3.1-4.772 5.215-6 9.437 0 4.4.754 6.773 3 10.563 4.202 4.203 8.147 5.641 14 6l.664-1.942c2.255-6.152 4.807-10.324 9.336-15.058l-3.188-1.438c-4.737-2.648-6.594-6.777-8.812-11.562-4.122 0-5.74 1.522-9 4m-105 3-2.168 3.27-3.02 4.542-1.604 2.42a601 601 0 0 1-8.935 13.088l-1.816 2.595a596 596 0 0 1-3.53 4.977l-1.603 2.291-1.435 2.018c-1.229 1.954-1.229 1.954.111 4.799 1.775 1.398 1.775 1.398 4.023 2.636l2.568 1.489 2.784 1.562 2.844 1.611c8.969 4.981 18.215 9.023 27.781 12.702l2.212.878c3.064 1.196 5.469 2.122 8.788 2.122a11079 11079 0 0 0 5.554-17.78q.943-3.025 1.891-6.05 1.36-4.343 2.711-8.69l.862-2.737.788-2.547.7-2.241c.616-2.104.616-2.104.494-4.955l-2.938-1.031c-9.413-3.377-18.295-7.367-27.16-11.986-3.283-1.697-6.594-3.336-9.902-4.983m-211 4c-6.637 7.374-11.179 15.71-10.93 25.875.341 4.143.835 8.11 1.93 12.125h2a79 79 0 0 0 2.5-4.188c2.476-3.923 4.509-5.637 8.75-7.5 3.914-1.677 3.914-1.677 6.437-5.062.52-5.402.875-9.877-2.215-14.57-3.58-4.26-3.58-4.26-8.472-6.68m248 3a99 99 0 0 0-3 4c11.14 5.003 11.14 5.003 23 7l-.622-1.793c-1.378-4.044-2.696-7.976-3.378-12.207-6.044-.323-10.808-.546-16 3m89 6c-3.202 3.285-4.242 5.548-5 10 3.251-.279 6.5-.575 9.75-.875l2.789-.238 2.695-.254 2.476-.223c2.407-.431 4.169-1.214 6.29-2.41l-2.25-1.063c-3.608-2.542-4.76-5.03-6.75-8.937-4.058 0-6.765 1.73-10 4m-44.149 1.945c-3.227 3.147-3.227 3.147-4.851 7.055 5.364.905 10.503 1.123 15.937 1.062l2.361-.013q2.851-.019 5.702-.05l-1.059-1.574c-4.52-6.926-4.52-6.926-4.941-11.425-4.908 0-9.522 1.661-13.149 4.945m-36.851 5.055c-5.091 14.893-9.827 29.824-14 45 11.962 3.044 23.905 6.057 36.125 7.875l2.415.362c4.53.63 8.887.872 13.46.763 1.253-11.572 2.204-23.118 2.687-34.75l.146-3.336.116-3.086.104-2.753c.185-2.066.185-2.066-1.053-3.075a128 128 0 0 0-5.547-.867l-3.504-.497q-3.629-.502-7.258-1c-8.015-1.137-15.834-2.686-23.691-4.636m100.375 4.5-2.43.433q-2.973.531-5.945 1.067c.511 15.773 2.882 31.38 5 47 11.861-1.811 23.663-3.719 35.312-6.625l2.528-.624c3.49-.901 6.137-1.736 9.16-3.751-1.46-3.772-3.248-5.022-6.75-6.938-12.901-7.474-20.161-18.593-26.25-32.062-3.585 0-7.105.865-10.625 1.5m-38.938 3-4.502.144q-5.468.176-10.935.356a9104 9104 0 0 0-1.282 15.741q-.216 2.672-.437 5.344-.317 3.862-.625 7.723l-.199 2.378c-.418 5.287-.513 10.51-.457 15.814q6.61.075 13.22.11 2.236.014 4.473.041a193.4 193.4 0 0 0 31.307-2.151c-.614-10.36-1.731-20.588-3.063-30.875l-.564-4.434q-.681-5.346-1.373-10.691c-8.528-.077-17.041.219-25.563.5m-295.437 5.5c-1.555 3.109-1.287 5.562-1 9 2.509 4.825 5.733 7.776 10 11h1l.183-2.231.254-2.957.246-2.918c.293-2.681.744-5.261 1.317-7.894-3.956-2.757-7.225-3.532-12-4m455 22c-8.832 8.935-15.552 23.464-16 36 .414 2.74.414 2.74 1 5h2l1.562-3.563c3.266-6.451 7.362-10.833 14.188-13.375 2.515-1.008 3.913-1.603 5.523-3.801 1.996-4.715 2.382-9.387.727-14.261-1.456-2.544-2.799-3.952-5-6zm-387 6c-1.452 1.787-1.452 1.787-2.688 3.937l-1.324 2.153c-1.142 1.847-1.142 1.847-.988 3.91 4.311-.484 6.059-1.62 8.812-4.938l1.832-2.152c1.548-1.792 1.548-1.792 1.356-3.91-3.895-.211-3.895-.211-7 1m410.812 23.812-1.812 3.188-1.129 1.965c-4.455 9.08-4.53 21.046-1.371 30.597l1.5 3.438c1.647-3.154 2.951-6.377 4.25-9.688 2.527-6.116 5.504-12.231 10.367-16.847 2.441-2.586 2.383-5.024 2.383-8.465-2.531-3.639-4.34-4.792-8.563-6.125-3.469-.224-3.469-.224-5.625 1.937"/></svg>