<svg width="830" height="77" viewBox="0 0 830 77" fill="none" xmlns="http://www.w3.org/2000/svg">
<path d="M815.942 1.55307C815.354 5.78405 813.333 9.44181 811.099 13.0554C811.841 13.6569 812.266 13.1623 812.61 12.749C813.648 11.5028 814.712 10.268 815.632 8.93389C817.476 6.25701 819.229 3.51536 821.024 0.80404C821.226 0.501754 821.46 0.220031 822.067 0C822.079 0.447774 822.2 0.927936 822.082 1.33613C821.726 2.56892 821.371 3.81919 820.837 4.97744C820.265 6.21486 819.539 7.3875 818.791 8.52724C817.942 9.8207 816.992 11.0458 815.994 12.4292C817.11 12.7464 817.726 12.1752 818.279 11.5856C820.454 9.26805 822.601 6.92276 824.761 4.59084C825.22 4.09423 825.692 3.60995 826.343 3.27065C825.826 7.62656 822.592 10.3368 820.174 13.5042C821.179 14.3205 821.812 13.7741 822.436 13.3294C824.124 12.1305 825.791 10.9023 827.484 9.71017C828.104 9.27319 828.774 8.90716 829.475 8.47584C830.378 9.93894 828.394 10.0536 828.54 10.7183C828.867 12.1999 827.515 12.3634 826.994 13.1412C826.47 13.9216 825.727 14.5509 825.015 15.3169C826.448 16.6417 827.85 14.6455 829.161 15.614C828.988 17.0576 827.839 17.7896 826.994 18.7186C826.182 19.6095 825.329 20.4614 824.407 21.4217C825.627 22.3275 826.861 20.4912 827.973 21.8232C827.974 23.0128 826.99 23.8883 826.384 25.0702C826.865 25.5766 827.338 26.0742 827.925 26.6927C827.407 27.6484 826.864 28.6483 826.239 29.7999C827.539 31.3097 826.557 32.5991 825.415 33.7877C826.094 36.0687 826.25 36.078 824.059 37.6989C824.281 38.1389 824.511 38.5913 824.746 39.0587C824.692 39.2535 824.667 39.4483 824.587 39.6154C824.127 40.5824 823.33 41.4261 823.802 42.6912C823.915 42.9909 823.545 43.5426 823.291 43.9029C822.339 45.2545 821.171 46.4837 820.415 47.937C819.793 49.1318 818.715 50.0479 818.24 51.1203C817.469 52.8667 815.584 53.2039 814.776 54.7215C814.646 54.9662 814.243 55.0675 813.959 55.2212C812.237 56.1507 812.076 56.7522 813.327 58.1402C815.819 60.9071 818.639 63.276 821.822 65.1997C823.705 66.3395 825.605 67.4633 827.384 68.7572C828.934 69.8852 829.961 71.3827 829.999 73.4977C830.048 76.2352 828.778 77.1986 826.15 76.9668C824.202 76.7946 822.625 75.806 820.84 75.3284C819.952 75.0914 819.126 74.4164 818.407 73.7845C815.862 71.5472 813.67 68.9783 811.815 66.1292C811.259 65.2748 810.612 64.6008 809.627 64.3129C808.54 63.9942 807.638 63.9351 806.731 65.0064C805.835 66.067 804.659 67.0119 803.419 67.6082C802.513 68.0427 801.288 67.9861 800.235 67.874C797.704 67.6031 795.211 67.1594 792.816 66.1513C791.771 65.7118 790.569 65.6855 789.67 64.8208C789.481 64.6378 789 64.5643 788.753 64.6723C787.579 65.1894 786.813 64.5381 785.976 63.8708C785.548 63.531 784.952 63.1901 784.446 63.2086C783.022 63.2611 782.14 62.6257 781.539 61.3949C781.403 61.1147 781.168 60.758 780.911 60.6855C779.166 60.192 777.824 58.9576 776.248 58.1705C774.988 57.5418 773.624 57.1336 772.334 56.5599C771.879 56.3584 771.432 56.0191 771.133 55.6253C770.958 55.395 770.966 54.8778 771.097 54.5858C771.349 54.0306 771.748 53.5432 772.198 52.8564C772.485 53.3432 772.721 53.6892 772.901 54.0645C773.442 55.1739 774.099 55.5528 775.194 55.0988C776.074 54.7344 776.969 54.2609 777.666 53.6234C779.185 52.2364 780.805 51.1666 782.858 50.7717C783.644 50.619 784.368 50.1358 785.283 49.7322C784.136 48.2635 783.087 46.9746 782.101 45.6365C781.484 44.8021 780.879 43.9374 780.422 43.0084C779.732 41.6106 778.703 40.5824 777.461 39.7141C776.905 39.326 776.392 38.8715 775.778 38.3821C776.834 37.3832 777.779 37.94 778.671 38.0505C779.81 38.1914 780.94 38.5507 782.075 38.5466C783.735 38.5415 785.213 38.9229 786.688 39.6982C787.936 40.3552 789.304 40.8143 790.664 41.2014C792.274 41.6579 793.041 41.3237 793.939 39.8997C795.96 36.6974 797.758 33.3954 798.741 29.6724C799.099 28.3141 799.637 26.885 800.484 25.8018C802.054 23.7963 802.747 21.4207 803.722 19.1623C804.753 16.7697 805.677 14.3308 806.677 11.9249C806.829 11.5594 807.135 11.2591 807.679 11.071C807.216 12.6225 806.754 14.174 806.268 15.8022C807.647 15.8561 807.994 14.9087 808.415 14.1494C810.275 10.7851 812.093 7.39624 813.925 4.0166C814.413 3.11643 814.902 2.21779 815.39 1.31762C815.574 1.39627 815.758 1.4739 815.942 1.55307Z" fill="white"/>
<path d="M0.35141 56.7599C1.24149 56.8023 1.8585 56.8312 2.98135 56.8842C1.82343 58.3479 0.910969 59.5007 0 60.6527C2.27257 60.068 4.41533 59.5553 6.30068 58.2023C8.81648 56.3989 11.4367 54.7092 14.5919 54.2147C15.902 54.0084 17.2084 53.762 18.4977 53.4533C21.9796 52.6183 24.667 54.2959 27.1769 56.3443C28.0632 57.0685 28.7929 57.7359 30.0418 57.7382C30.7424 57.7382 31.4437 58.2873 32.4196 58.7089C30.059 62.4152 26.7964 64.5296 23.3532 66.7638C23.821 67.1483 24.153 67.4918 24.5484 67.7307C25.431 68.2669 26.3099 68.8433 27.2589 69.2301C28.1147 69.5774 29.0503 69.7814 29.9695 69.8936C31.2758 70.0552 32.5972 70.109 33.9133 70.1439C34.9428 70.1735 35.9777 70.156 37.0035 70.0726C38.7986 69.9247 39.0679 69.8474 39.1463 67.9385C39.2918 64.3665 41.1906 62.064 43.8429 60.0831C46.4482 58.1379 48.4313 58.3093 50.9501 60.3243C54.1873 62.9119 55.7884 66.4149 57.0642 70.3206C58.0804 70.4685 59.1764 70.5496 59.5375 71.9656C59.6464 72.394 60.4447 72.6413 60.97 73C62.2555 71.0259 61.3885 68.7075 63.012 66.7683C63.4761 67.849 63.8499 68.731 64.3833 69.9771C64.6086 69.2862 64.8108 68.9366 64.8205 68.5816C64.8623 67.2317 64.834 65.881 64.8452 64.5296C64.8526 63.4284 64.6355 62.2931 65.7755 61.4831C66.0426 61.295 66.024 60.526 65.9591 60.0482C65.4167 56.0819 64.1021 52.3218 62.4368 48.7475C61.7586 47.2929 60.2612 46.1068 58.8936 45.1671C58.1796 44.6757 56.8844 44.7576 55.9429 44.9768C54.5201 45.309 53.1809 45.9983 51.7999 46.5148C51.1814 46.7454 50.5569 47.0176 49.9153 47.1086C49.0229 47.233 48.3186 46.9243 48.1366 45.8778C47.9307 44.6916 47.7912 43.4122 46.343 43.0778C44.6972 42.6994 43.108 42.76 41.7919 44.0569C41.0451 44.7925 40.2699 45.6601 39.1276 45.2968C38.1092 44.973 37.0438 44.5202 36.2455 43.8316C35.248 42.9693 34.3982 41.878 33.6767 40.7602C32.5651 39.0401 31.0752 38.8399 29.2472 39.0864C25.299 39.6203 21.7297 41.1287 18.3089 43.1172C15.4954 44.7516 12.6148 46.2736 9.82294 47.9474C8.84483 48.5314 7.40116 48.8673 7.67572 50.6268C7.71227 50.8596 7.08034 51.2206 6.73416 51.4944C4.87044 52.9619 2.99479 54.4142 1.13256 55.8862C0.908736 56.0644 0.740866 56.3192 0.35141 56.7599Z" fill="white"/>
</svg>
