<svg width="364" height="47" viewBox="0 0 364 47" fill="none" xmlns="http://www.w3.org/2000/svg">
<path d="M3 2H362V44H3V2Z" fill="url(#paint0_linear_338_3840)"/>
<path d="M27.5966 42.064C25.7847 41.8476 31.8335 41.9895 27.8169 41.6662C28.6545 41.6444 29.4973 41.6218 30.3348 41.6C30.5472 41.7197 30.7648 41.8391 30.9772 41.9589C29.8525 41.9941 28.7271 42.0294 27.5966 42.0646C27.5966 42.0644 27.5966 42.0642 27.5966 42.064ZM26.0608 43.5634C27.0917 43.2219 30.3667 43.1309 26.8287 42.8158C26.5474 42.9329 26.2595 43.0501 25.9782 43.1673C24.7498 43.0764 23.5139 42.9855 22.2855 42.8951C21.8438 42.9398 21.4026 42.9846 20.9608 43.0287C20.3983 42.8251 19.8407 42.6209 19.2782 42.4168C19.7776 42.4466 20.2839 42.4769 20.7834 42.5067C22.758 42.3413 24.515 42.2961 27.1959 42.2653C26.9604 42.2171 26.7246 42.1694 26.4891 42.1212C27.8496 42.2031 29.2095 42.2853 30.5642 42.3672C29.3876 42.4477 28.0721 42.5372 26.9817 42.6122C28.7267 42.9315 31.8044 42.7538 33.4064 42.6872C35.5879 42.5962 35.0949 42.7481 36.7136 42.6845C36.9719 42.6746 37.0013 42.5556 37.5121 42.5536C40.0899 42.5441 45.0964 42.6072 42.1685 42.8849C37.9258 42.8491 34.3074 43.0721 30.1451 42.9907C31.2462 43.3117 29.0533 43.421 26.0608 43.5634ZM104.002 42.541C102.716 42.6969 100.097 42.634 98.3234 42.5257C98.3214 42.5257 98.3194 42.5257 98.3173 42.5257C97.927 42.5019 97.0428 42.2946 98.3173 42.3031C100.395 42.3176 101.4 42.6438 102.49 42.4223C102.978 42.4636 103.491 42.5002 104.002 42.541ZM108.517 42.5216C109.792 42.6016 109.214 42.8474 107.618 42.7809C107.618 42.7811 107.618 42.7813 107.618 42.7815C106.952 42.7537 108.259 42.5594 105.871 42.7566C105.383 42.6032 104.903 42.4636 104.421 42.3151C105.006 42.3126 105.539 42.3086 106.152 42.3066C105.74 42.5588 107.243 42.4423 108.517 42.5216ZM44.3223 42.746C44.5228 42.5192 43.6834 42.5206 42.2541 42.3631C43.6031 42.3706 44.9524 42.3785 46.2956 42.386C45.6356 42.5062 44.9823 42.6259 44.3223 42.746ZM12.6301 42.7109C12.6281 42.7109 12.6261 42.7109 12.624 42.7109C12.182 42.7466 11.7386 42.7825 11.3024 42.8178C11.0382 42.7368 10.7772 42.6562 10.513 42.5752C8.95147 42.6512 7.38151 42.7272 5.81994 42.8037C6.00969 42.5564 8.81271 42.5967 10.357 42.4238C12.6533 42.4983 13.7596 42.6419 13.909 42.8515C13.4843 42.8048 13.0605 42.7576 12.6301 42.7109ZM361.697 17.8185C361.628 17.2962 361.56 16.7804 361.491 16.2582C361.46 16.9526 361.436 17.6415 361.4 18.3416C361.698 20.1728 361.434 20.3449 361.453 22.7441C361.509 30.0982 361.972 28.1471 361.294 34.7888C361.326 29.4563 361.008 31.5056 360.762 28.2907C360.949 27.6248 361.37 30.8104 361.458 28.6517C361.26 24.9321 361.076 21.3552 360.948 17.228C360.916 17.3485 360.884 17.4685 360.852 17.589C360.872 18.2435 360.892 18.8925 360.913 19.547C360.826 18.8408 360.741 18.1506 360.653 17.433C360.849 18.34 360.74 16.0284 360.965 16.3377C361.066 16.4755 361.205 17.4971 361.301 18.0999C361.353 16.5444 361.401 14.949 361.451 13.3762C361.531 14.1911 361.611 15.0054 361.691 15.8146C361.694 16.4801 361.695 17.1407 361.698 17.8062C361.698 17.8103 361.697 17.8144 361.697 17.8185ZM43.0119 3.34624C44.9869 3.11276 48.5757 3.07413 50.4646 3.33394C47.9787 3.33791 45.4978 3.34227 43.0119 3.34624ZM14.0589 43.0243C13.8352 42.9846 13.6186 42.9454 13.395 42.9057C14.3822 42.8322 15.3753 42.7592 16.3626 42.6857C16.552 42.8004 16.7457 42.9151 16.9408 43.0293C15.9823 43.0278 15.0173 43.0258 14.0589 43.0243ZM77.2229 42.8966C76.5006 42.9036 76.4367 42.8998 75.5371 42.8834C75.5382 42.8835 75.5392 42.8836 75.5402 42.8837C75.1837 42.8776 72.2003 42.8106 72.5328 42.7223C74.014 42.7208 75.594 42.7223 77.1097 42.7223C77.1556 42.7804 77.1655 42.838 77.2229 42.8966ZM59.7875 42.8451C59.7854 42.8449 59.7834 42.8447 59.7813 42.8445C59.2421 42.8311 58.7316 42.8037 58.1751 42.7988C60.1782 42.6598 60.4948 42.9091 62.3145 42.8386C64.134 42.7676 65.2586 42.63 66.8026 42.9716C66.2285 43.0228 65.6103 43.096 65.019 43.1556C62.4358 43.019 61.7401 43.1475 59.6681 43.2821C59.7084 43.1361 59.7472 42.9911 59.7875 42.8451ZM355.44 43.0059C354.946 43.1748 354.396 43.0091 354.339 43.0071C354.34 43.0069 354.341 43.0067 354.342 43.0065C349.969 43.1629 354.911 42.913 350.784 42.8867C351.398 42.8444 352.002 42.7999 352.61 42.7572C353.551 42.8386 354.522 42.9309 355.44 43.0059ZM213.353 42.9901C213.313 42.9409 213.265 42.8916 213.225 42.8424C215.705 42.8538 216.337 42.6602 218.398 42.8366C216.716 42.8882 215.035 42.9395 213.353 42.9907C213.353 42.9905 213.353 42.9903 213.353 42.9901ZM89.7235 43.2543C86.9735 43.3482 84.9393 43.3896 82.2984 43.2405C82.2964 43.2403 82.2943 43.2402 82.2923 43.24C82.14 43.2308 82.8765 43.1279 82.6777 43.102C82.1329 43.1174 81.5702 43.141 81.0196 43.1594C80.945 43.077 80.8739 42.9946 80.7993 42.9127C82.3492 42.9361 83.9 42.9594 85.4557 42.9827C85.226 42.9346 84.9909 42.8868 84.7612 42.8386C86.0814 42.8138 87.3968 42.789 88.717 42.7642C88.2578 42.8993 87.7997 43.0344 87.3464 43.1699C88.1383 43.1982 88.9316 43.2255 89.7235 43.2543ZM254.643 43.5282C254.206 43.4746 255.014 43.3846 254.337 43.3384C253.659 43.2928 252.41 43.3929 252.703 43.2414C253.615 43.2211 254.573 43.1977 255.502 43.1764C252.511 42.9032 249.527 43.1504 249.481 42.8131C252.352 42.9006 254.712 42.8599 257.491 42.7665C257.376 43.0343 254.597 43.2658 256.347 43.5171C255.784 43.5206 255.194 43.5257 254.649 43.5276C254.647 43.5278 254.645 43.528 254.643 43.5282ZM0.618401 14.8831C0.638768 13.1837 0.529504 9.29003 0.685488 7.14282C0.723928 6.61455 1.22187 4.85465 1.28751 4.86358C1.50856 4.91525 1.53865 7.06453 1.6827 4.76262C1.6842 5.53699 1.6925 6.28849 1.69647 7.05716C1.84501 6.91939 1.99314 6.78229 2.14118 6.65026C2.11882 5.71447 2.09636 4.77754 2.0735 3.84175C2.12268 3.79581 2.17197 3.75001 2.22115 3.70408C2.22215 7.06839 2.41196 5.08238 2.58881 6.8277C2.67821 5.22053 2.76717 3.60145 2.85657 2C2.84564 2.92417 2.83755 4.01474 2.82464 4.82993C3.07647 4.939 3.01643 2.99411 3.0631 2.66083C3.32687 0.783607 3.19374 10.341 3.56025 11.1231C3.60097 9.5963 3.64072 7.99429 3.68094 6.43304C3.72615 6.88081 3.77138 7.33447 3.81658 7.78223C3.5638 11.3241 3.47425 15.2959 3.3168 19.4232C3.32723 19.796 3.33793 20.1697 3.34786 20.5368C3.46157 20.4278 3.57485 20.3246 3.68856 20.2156C3.70197 20.7782 3.71528 21.3478 3.7287 21.9105C3.35417 20.2516 3.35928 22.5488 3.13078 25.3217C2.99916 23.8465 3.07895 22.0266 2.83372 22.1521C3.0224 27.2153 2.75575 33.1447 2.96877 38.0701C3.02142 39.2928 3.33778 39.2888 3.3086 42.1636C3.27383 42.066 3.21105 42.0493 3.16535 41.9861C3.18689 42.693 3.2072 43.3604 3.22575 44L3 43.7743C6.85914 43.6623 9.7091 43.6145 14.1415 43.7471C13.843 43.6334 13.5496 43.5192 13.2512 43.4055C12.1546 43.4621 11.0562 43.5196 9.96541 43.5763C9.2192 43.3885 10.3221 43.3056 7.0498 43.3076C4.36875 43.3091 5.96473 43.392 5.23561 43.4477C4.46695 43.5068 3.77147 43.4293 3 43.4322L3.56783 44C3.56702 43.7806 3.55971 43.5551 3.54091 43.32C3.47584 42.4991 3.32092 43.3872 3.36016 41.2458C3.56085 42.1069 3.76809 42.9854 3.97126 43.8523C3.967 43.9016 3.96273 43.9508 3.95846 44L3 43.0415C3.4726 43.0826 3.94247 43.1242 4.41567 43.1655C3.94097 43.2138 3.4733 43.2614 3 43.3095L3.69045 44C3.68504 43.9468 3.67963 43.8935 3.67421 43.8401C3.67697 43.8935 3.67973 43.9468 3.68249 44L3 43.3175C4.8011 43.2242 6.51275 43.1357 8.38065 43.0387C7.75492 43.3288 9.74266 43.22 10.822 43.1858C12.5034 43.1322 11.063 43.3318 12.1651 43.2985C13.2674 43.2648 14.4561 43.0417 16.4482 43.0894C15.3805 43.2185 16.833 43.3343 16.5523 43.4535C16.271 43.5727 14.1638 43.5991 16.1882 43.7292C20.0806 43.6303 15.8569 43.1764 18.4858 43.1029C21.6431 43.0144 22.3945 43.7544 21.4534 43.9135C20.7128 44.0386 18.1644 44.0135 17.4181 44.1382C21.9822 44.3632 22.0217 43.919 22.8026 43.832C25.6385 43.5156 23.7335 44.3601 27.0918 44.0547C27.0287 44.2126 26.9775 44.3546 26.9144 44.5061C27.4939 44.4773 27.8785 44.439 28.5787 44.4162C26.5141 44.1085 28.204 44.1216 29.0713 44.1212C30.4376 44.1202 28.3271 43.9701 28.6889 43.9313C29.6648 43.8276 31.2083 43.8747 30.2614 43.7392C30.6862 43.8022 31.1467 43.8655 31.583 43.9281C33.1794 43.8495 36.9311 43.1903 33.3605 43.3234C33.6935 43.0785 34.8485 43.1963 35.7499 43.2335C36.651 43.2707 36.6342 43.1148 37.4264 43.1436C40.5779 43.2588 38.5163 43.5256 38.0169 43.7348C42.1789 43.5907 38.1043 43.4954 44.102 43.399C44.6818 43.2286 41.9105 43.0468 44.2183 42.9485C44.6434 43.2445 46.3426 43.4571 49.6548 43.5555C49.9763 43.4874 50.297 43.4188 50.6185 43.3507C52.4269 43.6239 51.5025 43.908 54.8496 43.5692C53.0527 44.1927 54.2881 43.7938 57.2849 44.0476C57.8935 44.0988 56.4872 44.2281 57.3369 44.2937C57.722 44.3233 58.6571 44.2257 59.5978 44.301C60.057 44.3383 62.2043 44.5787 63.6912 44.4645C62.6004 44.1625 65.4256 43.9055 63.0029 43.6557C67.481 43.7173 70.615 43.5722 65.5972 43.9841C66.7339 44.0755 67.8717 44.1665 69.0084 44.2574C69.8007 44.1854 70.5998 44.1139 71.3978 44.0424C71.5182 44.2906 71.3972 44.3602 74.5184 44.3166C73.1642 44.3752 71.8155 44.4347 70.4555 44.4938C70.4096 44.5439 70.2204 44.596 70.2658 44.6447C71.9316 44.5493 76.6216 44.5083 77.7583 44.4422C78.8949 44.3762 76.6998 44.3581 77.0271 44.294C79.7534 43.7656 79.5374 44.1553 81.4938 44.0646C82.6419 44.011 79.9004 43.9527 80.5148 43.9299C82.7924 43.8461 83.8491 44.127 85.8687 44.1305C85.1513 43.9711 84.4395 43.8092 83.7394 43.6483C85.8578 43.6568 88.2193 43.6582 90.1885 43.607C90.9616 43.5871 90.3774 43.4685 90.5036 43.4606C91.13 43.4198 93.6787 43.3553 93.9485 43.3548C95.9797 43.3539 96.0376 43.5181 98.0114 43.5271C97.2366 43.541 96.508 43.5535 95.7505 43.5669C95.4061 43.8331 95.0547 44.0993 94.7103 44.3661C96.6447 44.3854 98.58 44.4044 100.52 44.4238C99.1022 44.3349 97.6792 44.2464 96.2614 44.1575C98.4774 43.9424 100.693 43.7268 102.909 43.5112C104.063 43.6434 105.213 43.7755 106.367 43.9076C109.5 43.8727 108.869 43.3364 110.356 43.8062C111.28 43.7665 112.204 43.7268 113.128 43.6876C112.996 43.7546 112.865 43.8218 112.733 43.8889C113.847 43.8476 114.96 43.8067 116.074 43.7649C114.903 43.5275 113.755 43.2777 112.595 43.0472C114.787 42.9956 114.829 43.197 115.156 43.2473C116.023 43.3804 117.744 43.2008 118.433 43.324C118.666 43.3663 116.518 43.4989 117.258 43.6519C117.403 43.6815 120.278 44.2436 122.113 44.1138C122.079 44.012 121.937 43.8871 121.862 43.7764C124.33 43.7145 125.588 44.2461 125.261 44.3951C126.576 44.2908 128.498 44.282 128.767 44.1191C129.439 44.1151 130.106 44.1114 130.777 44.1074C130.077 44.5042 132.879 44.4317 133.063 44.0904C131.909 44.082 130.753 44.0731 129.599 44.0646C130.472 43.6464 126.965 43.3939 134.262 43.7813C135.657 43.9989 131.782 43.7517 132.919 43.9146C134.894 44.0095 136.747 43.9301 138.625 44.0816C140.96 44.2709 138.087 44.4529 143.529 44.212C131.524 43.6084 145.175 43.8043 150.813 43.617C152.363 44.2131 157.125 44.4019 163.681 44.2246C162.998 44.0587 160.935 44.1441 159.747 44.0895C158.558 44.0349 159.844 43.9365 158.364 43.859C156.883 43.7815 153.738 43.6762 152.239 43.559C153.508 43.4651 159.775 43.2431 155.632 43.5098C158.725 43.6742 160.178 43.8431 164.011 43.8739C165.16 43.6151 165.075 43.454 168.812 43.4465C166.601 43.8061 170.848 44.0561 169.913 44.4276C167.263 44.3411 168.744 43.98 167.212 43.8071C167.054 43.7898 164.585 43.8804 164.011 43.8739C166.503 44.1983 167.365 44.319 165.832 44.705C167.594 44.6712 168.691 44.7197 168.851 44.5354C169.219 44.6154 169.588 44.6954 169.95 44.7753C170.523 44.7733 171.04 44.7659 171.648 44.7674C170.81 44.4894 172.433 44.6606 173.587 44.5345C174.741 44.4083 173.193 44.1889 176.362 44.1859C175.306 44.1208 174.34 44.065 173.318 44.0034C175.362 43.9319 177.412 43.8599 179.455 43.7884C178.02 43.6185 174.91 43.3662 174.995 43.1427C175.936 43.2271 179.16 43.0788 179.513 43.0727C180.88 43.0498 180.135 43.1908 180.238 43.1943C182.385 43.2628 184.153 43.2148 184.968 43.4283C186.581 43.332 187.798 43.3869 189.508 43.3815C190.45 43.3785 190.267 43.2216 190.818 43.2514C194.48 43.4501 190.991 43.6528 198.056 43.2669C197.201 43.1576 196.357 43.0458 195.502 42.9356C196.3 42.8943 197.093 42.8529 197.891 42.8117C198.425 42.8315 198.954 42.8516 199.488 42.8714C199.477 43.1084 199.463 43.3458 199.451 43.5827C200.037 43.5956 200.625 43.6082 201.21 43.6211C200.206 43.6444 199.199 43.6678 198.194 43.6911C198.102 43.7328 198.016 43.7745 197.925 43.8162C199.417 43.8808 200.905 43.9459 202.397 44.011C202.426 43.9286 202.454 43.8456 202.483 43.7632C205.847 43.8779 205.927 43.9477 209.125 43.7207C211.588 43.7232 213.594 43.3786 215.017 43.2335C215.528 43.2797 216.04 43.3265 216.556 43.3727C216.884 43.3041 217.214 43.2359 217.541 43.1673C218.19 43.2627 218.848 43.3581 219.496 43.4529C219.858 43.2365 220.045 43.1689 217.514 43.0929C218.381 42.8237 222.837 42.9424 224.651 43.0328C226.028 43.1014 224.501 43.326 224.673 43.3533C225.248 43.4461 227.516 43.3661 227.992 43.3815C230.007 43.4455 231.419 43.4343 233.239 43.484C233.593 43.4939 234.584 43.6363 234.668 43.6407C235.322 43.6651 236.938 43.7342 237.121 43.7362C246.598 43.8425 236.472 43.225 245.284 43.2901C245.02 43.2086 244.777 43.1277 244.519 43.0463C245.185 43.0414 245.857 43.0366 246.523 43.0317C247.367 43.0997 246.346 43.2235 248.022 43.1237C247.913 43.224 247.803 43.3244 247.689 43.4242C248.418 43.3701 249.121 43.3164 249.867 43.2622C251.038 43.6104 255.314 43.6895 255.01 44.0983C254.906 44.2374 251.875 44.3801 253.477 44.5287C254.778 44.5579 253.897 44.3918 254.428 44.3831C258.263 44.3225 258.041 44.5553 259.608 44.4932C259.855 44.3934 260.114 44.2917 260.367 44.1909C260.958 44.2202 261.55 44.2495 262.147 44.2788C262.285 44.2117 262.429 44.1446 262.566 44.0775C262.009 44.073 261.382 44.0685 260.871 44.064C261.584 43.8043 268.127 43.6876 265.632 43.9091C264.616 43.999 262.755 43.9608 263.931 44.2676C265.682 44.2234 267.668 44.1783 269.511 44.1341C269.569 44.2001 269.622 44.2663 269.679 44.3324C272.163 44.2896 269.904 44.0255 269.909 43.8839C270.477 43.8799 271.051 43.8764 271.619 43.8724C271.86 43.9365 272.089 44.0035 272.341 44.0655C272.364 43.9636 272.682 43.7268 274.376 43.8147C275.464 43.8719 273.75 44.129 275.826 44.0933C275.671 43.9344 274.921 43.7408 277.233 43.6896C277.463 43.8555 277.78 44.0075 277.958 44.1818C280.834 44.0224 282.142 44.2786 285.518 44.0933C287.659 43.9761 290.593 43.5599 291.976 44.2011C293.543 44.218 293.045 44.0583 293.509 44.0224C295.696 43.8525 297.323 44.1566 297.731 44.1745C300.331 44.2891 301.496 44.1839 303.614 44.3274C303.499 44.2087 303.437 44.0963 303.345 43.9805C301.404 44.1584 300.422 44.15 297.7 44.1118C298.613 44.088 299.526 44.0636 300.438 44.0397C300.289 43.9434 300.141 43.847 299.998 43.7512C291.581 44.1307 293.545 43.5311 300.601 43.3999C301.209 43.5782 301.84 43.756 302.442 43.9348C306.518 43.6646 308.436 43.8992 313.046 43.9554C313.594 43.9618 315.59 43.8591 316.448 43.854C316.434 43.8533 316.42 43.8526 316.405 43.8519C316.939 43.6836 316.216 43.6061 316.13 43.4556C316.595 43.4367 317.06 43.4179 317.525 43.399C318.563 43.5138 318.198 43.608 320.242 43.5807C319.966 43.4664 319.694 43.3521 319.419 43.2379C321.658 43.2339 323.123 43.3581 325.207 43.3044C324.857 43.3476 324.511 43.391 324.161 43.4342C328.696 43.5445 325.087 44.2161 328.514 43.8818C328.732 43.9404 328.945 43.9996 329.163 44.0582C327.751 44.0726 326.338 44.0865 324.932 44.1009C324.903 44.1839 324.872 44.2664 324.849 44.3494C326.359 44.3245 327.876 44.2989 329.386 44.2741C328.284 44.3297 327.175 44.3854 326.073 44.4411C327.824 44.4808 329.575 44.5206 331.326 44.5603C329.467 44.2554 331.877 44.2181 331.424 43.9161C334.524 44.1675 336.959 44.4988 341.765 44.2867C342.717 44.2444 342.2 44.0334 344.904 44.2902C344.249 43.9544 347.636 43.7969 347.201 43.4775C346.26 43.4929 345.284 43.5026 344.371 43.5215C345.41 43.6323 345.583 43.937 344.004 44.0274C341.989 44.1427 339.05 43.9315 339.17 44.2697C338.367 44.2538 337.619 44.2444 336.839 44.231C337.16 44.1471 337.475 44.0627 337.79 43.9788C335.57 44.1103 334.174 44.0676 333.107 43.856C335.753 43.8074 338.393 43.7592 341.039 43.711C340.65 43.6966 340.255 43.6821 339.865 43.6683C341.868 43.4522 339.802 43.2475 343.539 43.2013C343.516 43.3001 343.498 43.399 343.475 43.4983C344.835 43.2341 348.561 43.2355 347.372 42.9315C348.498 43.0249 348.727 43.0839 349.364 42.9201C352.332 43.151 354.239 43.4432 353.182 43.7919C354.284 43.7358 355.387 43.6796 356.483 43.6234C355.846 43.5281 355.208 43.4332 354.571 43.3378C356.489 43.3438 358.42 43.3496 360.332 43.3551C360.516 43.6372 356.641 43.4407 357.759 43.6929C357.983 43.7435 359.015 43.6351 359.286 43.6636C362.144 43.972 357.657 43.7492 358.499 43.9855C361.494 44.0369 360.699 44.2477 362 44.253L362.254 44.2515L362.253 44C362.255 43.4501 362.221 42.5256 362.122 40.7822C362.203 40.6272 362.286 40.4607 362.367 40.3172C362.372 38.2803 362.188 38.4455 362.153 36.6948C362.132 35.5985 362.455 34.2223 362.235 33.0113C362.194 32.7955 361.799 34.8324 361.817 30.5516C361.83 27.2292 362.109 28.612 362.208 26.8161C362.307 25.0191 361.92 20.9083 362.359 19.6969C362.301 20.6381 362.269 21.8371 362.222 22.8817C362.307 23.3065 362.392 23.7201 362.477 24.1391C362.366 21.7509 362.496 19.2822 362.293 17.6747C362.604 14.4883 362.315 10.9249 361.963 11.8894C362.014 12.9381 362.167 11.7972 362.07 13.2539C361.988 13.4031 361.906 13.5604 361.824 13.7097C361.834 11.2295 361.832 9.50707 362.082 10.6381C362.088 10.2534 362.094 9.8724 362.099 9.48776C361.919 9.41887 361.737 9.35778 361.556 9.2889C361.536 8.82963 361.516 8.36838 361.495 7.90912C361.535 7.39846 361.575 6.88664 361.616 6.37025C361.902 7.06492 361.911 8.24816 362.071 4.3327C361.972 4.32122 361.874 4.3044 361.775 4.29293C361.813 3.30438 361.861 2.60608 361.91 2L362 2.0903C360.596 1.97759 359.687 1.86265 356.813 1.86888C359.97 1.52566 361.698 2.13406 361.686 1.44556C361.791 1.45152 361.895 1.45749 362 1.46347L362.533 1.46027L362.537 2C362.497 2.6891 362.457 3.38176 362.418 4.06959C362.518 4.19015 362.618 4.30966 362.718 4.42448C362.709 3.68839 362.682 2.86809 362.645 2L362.641 1.35106L362 1.3549C357.851 1.52932 352.612 1.91607 350.256 1.556C349.912 1.60914 349.566 1.65533 349.216 1.71244C346.426 1.44965 345.221 2.03963 342.391 1.69984C342.099 1.66418 342.71 1.10989 339.025 1.12975C339.117 1.20179 339.165 1.32304 339.24 1.41392C338.442 1.36972 337.648 1.32347 336.856 1.27828C336.713 1.34482 336.562 1.41133 336.419 1.47837C337.78 1.5042 339.136 1.53046 340.497 1.55629C339.366 1.57914 338.229 1.602 337.098 1.62484C338.573 1.7336 339.238 1.73475 338.349 1.90901C337.069 1.91944 335.787 1.93051 334.507 1.94094C334.375 1.98559 334.244 2.03076 334.112 2.07541C334.732 2.20853 335.358 2.33872 335.978 2.47383C332.643 2.36504 329.743 2.35913 327.183 2.09738C326.746 2.05317 328.289 1.87974 325.316 2.03615C325.27 1.9443 325.191 1.86971 325.139 1.7848C321.499 2.04212 320.303 1.96531 316.508 1.77952C318.966 1.9529 316.773 1.84014 316.147 1.93303C315.719 1.99703 317.392 1.98758 317.203 2.05461C317.013 2.12117 314.839 2.38994 316.698 2.42227C321.257 1.87135 322.498 2.53002 328.354 2.26524C327.453 2.33628 326.545 2.40748 325.644 2.47851C326.068 2.52666 326.448 2.57034 326.907 2.62147C323.641 2.5137 325.23 2.58372 323.888 2.66864C322.544 2.75359 320.103 2.82575 318.466 2.8491C317.951 2.85644 318.495 2.73287 317.331 2.72137C316.539 2.71343 314.374 2.8966 313.874 2.68065C313.547 2.54008 317.025 2.153 312.216 2.15392C311.311 2.01611 313.617 2.05891 313.666 2.0423C314.085 1.87837 311.129 1.75512 309.763 1.8803C309.652 1.8911 310.731 2.01884 309.558 2.06896C306.773 2.18868 305.165 2.04218 303.362 1.84397C303.167 2.07646 300.824 2.35411 297.907 2.26817C297.758 2.3347 297.616 2.40182 297.467 2.46885C297.92 2.43363 298.372 2.39889 298.825 2.36368C299.319 2.4054 299.842 2.43578 300.324 2.48496C297.391 2.54213 296.976 2.86253 295.57 2.97976C290.757 3.38021 293.674 2.53312 294.542 2.38711C295.168 2.44623 295.773 2.51221 296.393 2.57431C296.324 2.49334 296.254 2.41175 296.191 2.33028C288.986 2.33275 295.094 1.80466 291.437 1.65414C290.495 2.05252 287.809 2.09092 284.388 1.83812C284.009 1.8401 283.629 1.84061 283.25 1.8431C283.187 1.90118 283.188 1.98997 283.085 2.02824C278.963 2.0958 278.228 1.48229 277.838 1.42417C276.104 1.16639 274.754 1.52306 274.243 1.52612C272.09 1.53854 271.465 1.38017 269.415 1.44819C267.211 1.5217 268.718 1.64321 268.048 1.75199C267.51 1.83837 265.771 1.85375 265.053 1.94329C265.338 1.87006 265.655 1.79825 265.94 1.72474C263.655 1.62491 261.788 1.52761 259.194 1.50327C256.266 2.03908 253.775 1.13523 254.785 1.86829C257.243 1.91846 258.617 2.002 259.931 2.18878C258.318 2.21262 256.704 2.23584 255.091 2.25968C254.621 2.17922 254.287 2.10081 253.73 2.01887C252.525 2.18972 249.73 2.1164 248.633 2.16652C243.495 2.40148 245.084 2.69291 240.394 2.20314C243.775 2.15541 243.769 1.91754 247.122 1.95032C246.398 1.78043 244.695 1.81563 245.797 1.61195C242.554 1.66212 243.602 1.84396 242.34 2.00539C241.251 2.14456 239.059 2.15235 239.183 2.33321C238.958 2.23377 238.785 2.13751 238.562 2.0382C236.461 2.0392 234.36 2.03926 232.259 2.04025C233.155 1.93645 234.05 1.83245 234.945 1.72914C234.268 1.68993 233.591 1.65087 232.914 1.61166C227.747 1.93455 218.837 1.34278 220.26 2.15392C217.769 2.17975 217.457 2.07801 216.103 1.92454C215.953 1.98612 215.808 2.03734 215.659 2.10588C214.052 2.04141 212.818 2.27261 211.4 2.21251C209.983 2.15287 209.631 1.93449 209.424 2.30157C208.505 2.19628 207.592 2.10881 206.68 2.01096C206.129 2.09435 205.579 2.17678 205.034 2.25968C204.173 2.21597 203.31 2.17244 202.449 2.12873C201.988 2.30395 198.603 2.22842 197.11 2.3461C195.693 2.15722 195.732 1.56251 192.398 1.66908C192.485 1.81658 192.569 1.96365 192.655 2.11115C191.892 2.08036 191.127 2.04966 190.358 2.01887C190.312 1.97073 190.272 1.92258 190.226 1.87444C190.617 1.88934 191.002 1.90416 191.392 1.91956C191.053 1.83809 190.721 1.757 190.388 1.67553C189.223 1.79622 188.056 1.91692 186.885 2.03762C188.464 2.129 190.043 2.22044 191.621 2.31182C189.641 2.42012 188.262 2.3121 186.54 2.43281C185.042 2.22917 185.595 2.11183 186.203 1.89085C185.647 1.90972 185.083 1.92793 184.527 1.9468C184.894 1.72578 183.952 1.59409 187.207 1.61195C186.983 1.54892 186.755 1.48881 186.537 1.42329C186.003 1.43323 185.657 1.37994 185.071 1.40425C183.475 1.47082 182.252 1.85903 182.361 1.99514C182.419 2.06644 183.993 1.93008 183.93 2.03088C183.774 2.27668 180.164 2.16632 185.371 2.41318C183.643 2.56966 183.257 2.45165 181.351 2.40645C181.5 2.48835 181.645 2.56974 181.789 2.65165C180.905 2.61391 180.02 2.57631 179.136 2.53857C180.365 2.11783 173.848 1.9598 179.714 1.59174C177.981 1.57287 176.253 1.55389 174.526 1.53403C174.881 1.49082 175.237 1.44805 175.593 1.40484C176.374 1.42768 177.15 1.45016 177.931 1.47251C177.012 1.39355 176.092 1.31505 175.174 1.23609C173.004 1.33396 172.154 1.48447 171.16 1.67025C173.686 1.80583 172.861 1.62064 174.828 1.58383C174.76 1.70149 174.851 1.80971 174.679 1.93333C173.662 1.68962 170.345 1.86692 169.575 1.87884C167.235 1.91504 169.07 1.67558 167.504 1.67055C165.937 1.66558 164.088 1.8081 162.808 1.57065C162.831 1.70374 162.934 1.84144 163.025 1.96262C160.585 2.00634 161.072 1.84911 160.82 1.82874C156.789 1.49393 154.602 1.77659 149.992 1.81087C150.578 1.85209 151.169 1.88931 151.761 1.92805C148.283 2.21063 150.626 2.12411 153.645 2.21749C150.815 2.18918 149.194 2.42983 147.196 2.50136C145.198 2.57278 141.773 2.44918 140.521 2.35284C143.385 2.19785 146.475 2.30005 149.656 2.25733C149.294 2.12175 148.943 2.00701 148.57 1.85804C146.635 2.1426 145.514 1.95233 144.877 1.91458C143.006 1.80385 143.065 2.04809 141.934 1.78538C141.98 1.87576 142.014 1.95174 142.059 2.03615C138.196 1.9984 134.028 1.83863 131.514 2.17238C131.284 1.95531 131.111 1.74619 130.847 1.52465C129.211 1.68805 127.81 1.52073 126.432 1.55893C125.06 1.59718 125.582 1.7726 123.969 1.84017C123.671 1.85259 123.049 1.74279 122.314 1.82376C121.572 1.90516 118.836 2.5104 118.508 1.98166C117.125 1.97918 115.816 1.95984 114.461 1.9509C115.781 1.9211 117.102 1.89223 118.417 1.86243C117.291 1.73428 116.173 1.60652 115.048 1.47837C114.905 1.59262 114.761 1.70894 114.623 1.82171C111.592 1.9608 109.392 1.77399 106.332 1.81819C105.821 1.82565 107.026 2.05154 104.759 1.99397C102.492 1.93635 100.809 1.51473 96.9458 1.67758C96.7506 1.68602 95.6065 2.00893 94.2229 1.78538C93.9081 1.73472 95.2332 1.65975 94.5105 1.59321C93.7871 1.52664 90.5595 1.4719 90.3069 1.31343C90.3413 1.36955 90.5427 1.4277 90.6404 1.48481C90.0894 1.51163 89.5328 1.53847 88.9761 1.56479C88.9244 1.46595 88.8686 1.36696 88.817 1.26861C85.648 1.4986 84.0103 1.87378 79.3145 1.74964C80.6349 1.89319 81.9557 2.03732 83.2703 2.18087C83.632 2.08003 83.9943 1.97851 84.3503 1.87766C86.5143 1.9179 88.6844 1.95784 90.8484 1.99807C91.2044 1.88332 91.5541 1.76889 91.91 1.65414C92.484 1.66904 93.0524 1.68348 93.6263 1.69838C93.4828 1.78133 93.3381 1.86385 93.1888 1.9468C94.3253 1.92644 95.4632 1.90564 96.5939 1.88528C94.2919 2.37494 90.1653 1.84363 90.4629 2.25323C89.9523 2.18968 89.4408 2.12569 88.9302 2.06164C88.7062 2.26025 87.6677 2.20309 85.8371 2.17179C86.2563 2.26965 86.7191 2.36618 87.1037 2.46504C85.324 2.32695 82.167 2.34036 80.3241 2.28721C79.5148 2.26387 80.3232 2.11987 80.0824 2.10295C78.8481 2.01452 76.4888 2.26578 75.9951 2.24591C73.0443 2.12766 71.1268 1.65131 67.9061 1.96526C71.2302 2.04275 69.4218 2.01002 70.6045 2.18439C70.9747 2.23906 75.2691 2.3531 69.8916 2.30245C69.2612 2.29611 59.5039 1.96699 62.7113 1.71478C61.1325 1.79526 59.8963 1.88831 58.4496 1.97375C54.913 1.30908 56.1369 1.93349 57.1646 2.27725C56.5848 2.27874 56.0331 2.28223 55.4361 2.28223C56.7049 1.92109 50.2408 1.89866 48.0477 2.08097C47.3129 2.14158 49.3676 2.25718 47.6683 2.31182C46.8591 2.2865 45.9412 2.2537 45.0862 2.2254C46.3262 2.4539 43.8926 2.54195 43.9267 2.7744C42.371 2.56727 41.181 2.12823 42.036 1.89026C40.7502 1.98661 39.4577 2.08285 38.172 2.1797C38.769 2.23484 39.3738 2.28949 39.9709 2.34463C35.7684 2.19858 30.3648 2.53092 29.4864 2.0426C28.9295 2.04607 28.3667 2.04908 27.8098 2.05256C27.6376 2.13502 27.4712 2.21764 27.2989 2.3001C24.7792 2.22859 22.2651 2.15659 19.7453 2.08508C21.9889 2.0339 22.523 1.91653 24.8759 2.01184C23.9692 1.917 23.0456 1.82163 22.1561 1.72679C18.6139 1.98212 18.1307 2.14994 12.7975 2.07394C12.5563 2.07047 8.52667 1.85634 8.38889 1.83548C7.75763 1.74011 8.71586 1.60156 8.43478 1.55336C7.65398 1.41824 2.90946 1.07897 3.00132 1.0278C4.16104 0.399895 20.1241 0.391572 24.4415 0.359282C69.2219 0.024482 113.016 0.472403 157.515 0.395902C157.973 0.394718 157.773 0.302025 157.968 0.298055C159.179 0.274775 160.369 0.419237 160.816 0.425197C161.773 0.43748 161.246 0.304009 161.945 0.303914C169.168 0.305404 175.983 0.38389 183.211 0.36104C183.682 0.35955 183.201 0.466339 184.028 0.447462C184.455 0.437126 185.791 0.273291 186.754 0.27081C190.118 0.262369 192.944 0.314894 196.492 0.31241C198.432 0.310927 201.344 0.324854 203.513 0.32237C204.471 0.321315 205.47 0.246363 206.417 0.243859C207.76 0.240381 207.486 0.392322 207.692 0.401761C208.599 0.442983 208.725 0.276216 209.586 0.280185C211.188 0.288133 211.274 0.399476 213.306 0.390043C214.759 0.383088 218.083 0.295177 219.915 0.269346C224.197 0.398492 229.594 0.347221 233.59 0.3045C235.955 0.279175 236.174 0.435068 237.139 0.434572C240.537 0.431552 243.116 0.232446 246.308 0.225988C250.544 0.217576 254.298 0.349231 258.402 0.358697C259.067 0.360186 258.914 0.217349 259.567 0.213684C261.984 0.200272 265.075 0.174275 267.228 0.194642C269.627 0.217025 270.512 0.424354 272.86 0.382133C273.549 0.369596 273.75 0.187807 274.904 0.164468C276.747 0.127765 278.767 0.288072 280.053 0.305965C281.815 0.329809 280.283 0.14461 282.659 0.169448C282.757 0.17052 283.113 0.302907 283.623 0.29659C285.11 0.278707 284.962 0.174453 287.138 0.184389C287.347 0.185761 290.232 0.311904 290.519 0.31241C292.207 0.314397 295.605 0.358561 296.604 0.331745C300.175 0.236366 297.364 0.0372483 300.401 0.469433C301.738 0.363651 303.064 0.256431 304.482 0.153629C303.536 0.249503 307.376 0.387851 307.645 0.37891C309.877 0.306863 308.548 0.138704 311.378 0.166519C307.64 0.554988 315.029 0.216589 316.677 0.206653C324.611 0.158482 331.822 0.255424 339.796 0.25294C342.466 0.251922 346.043 0.169805 348.868 0.171792C349.526 0.17191 349.028 0.263844 349.608 0.26583C350.186 0.267192 349.545 0.163987 350.204 0.169448C354.309 0.205228 357.525 0.399962 361.286 0.156558C361.469 0.191751 361.463 0.219559 361.766 0.258213C361.842 0.252805 361.92 0.247711 362 0.24292L363.746 0.232468L363.757 2C363.945 5.13485 363.666 10.8246 363.626 12.9969C363.564 16.4808 363.711 17.3708 363.681 19.9019C363.642 23.2489 363.354 28.2741 363.829 26.0298C363.844 28.3259 363.848 30.5363 363.804 32.8553C363.799 33.1135 363.678 32.9356 363.676 33.0389C363.658 33.6931 363.766 33.9063 363.771 34.3483C363.785 35.5467 363.655 33.5909 363.691 35.2998C363.711 36.2011 363.805 36.7129 363.807 39.2158C363.808 40.7972 363.809 42.3928 363.809 44L363.82 45.7981L362 45.809C348.273 45.8107 333.696 45.7821 319.85 45.7679C318.788 45.7669 319.487 45.8837 318.155 45.8763C313.528 45.8504 305.245 45.6538 301.255 45.6806C297.265 45.7074 298.166 45.8782 295.669 45.9498C295.187 45.9637 295.582 45.8663 295.146 45.8648C292.212 45.8559 288.715 45.704 286.338 45.6811C284.766 45.6658 284.892 45.819 283.802 45.83C282.177 45.8459 280.505 45.6911 279.638 45.6861C275.562 45.6643 272.76 45.789 268.954 45.7254C269.103 45.7591 269.202 45.7903 269.328 45.8235C264.821 45.8181 260.321 45.8126 255.814 45.8071C256.027 45.8379 256.232 45.869 256.445 45.9003C251.157 45.8834 251.761 45.5496 252.226 46.2545C251.841 46.2793 251.433 46.3081 251.066 46.3309C251.215 45.9678 248.017 45.7021 243.947 45.6097C243.648 45.6027 241.645 45.9568 241.864 45.5385C241.341 45.6408 241.03 45.7113 240.588 45.8013C239.727 45.6746 238.854 45.5495 237.993 45.4233C237.529 45.4422 237.057 45.4604 236.592 45.4793C236.523 45.5613 236.576 45.6464 236.427 45.7268C234.269 45.7393 229.842 45.6379 228.136 45.6483C223.899 45.6747 219.586 45.8963 216.29 45.6568C214.685 45.6812 216.279 45.8421 213.892 45.8218C213.622 45.7403 213.368 45.6622 213.087 45.5783C211.136 45.9422 210.728 45.7209 208.054 45.6448C206.246 45.5932 205.062 45.6821 203.34 45.6647C202.903 45.6603 202.965 45.5535 202.667 45.5569C201.667 45.5679 198.814 45.715 198.108 45.7189C191.713 45.7577 186.219 45.7412 180.128 45.7019C179.474 45.698 180.322 45.8034 179.645 45.7989C178.555 45.7919 179.196 45.6299 178.565 45.622C176.804 45.6007 176.79 45.7715 174.334 45.7805C166.245 45.8097 156.945 45.6814 148.494 45.67C148.23 45.67 148.246 45.7701 147.959 45.7711C146.088 45.776 144.194 45.6407 142.495 45.6422C139.676 45.6442 137.557 45.7848 134.773 45.7843C129.33 45.7838 124.468 45.7118 118.87 45.7078C114.289 45.7043 110.31 45.7177 105.287 45.7172C83.3439 45.7152 60.9532 46.0328 38.8613 45.8639C38.2991 45.8595 38.5279 45.7711 38.3565 45.7749C36.7261 45.8131 36.5805 45.9324 36.0008 45.6826C33.9237 45.7318 33.2683 45.9195 30.76 45.9061C29.4231 45.8991 30.4213 45.6082 28.1595 45.7582C26.1174 45.8938 28.371 46.0532 22.2978 45.8903C22.1371 45.8858 21.3456 45.7085 20.0828 45.7547C18.814 45.8004 20.2826 45.9274 17.2284 45.9656C12.9725 46.0187 8.04534 45.9862 3 45.961L1.05083 45.9726L1.03902 44C1.05633 40.5449 1.07027 37.0344 1.05109 33.6462C1.04811 33.1238 0.953313 28.0924 0.909598 27.0992C0.824655 25.1771 0.692882 25.5787 0.660587 23.0822C0.635748 21.1532 0.785017 19.5616 0.755211 17.2939C0.751588 17.0297 0.598048 16.5873 0.618401 14.8831ZM361.399 9.49387C361.249 9.02307 360.694 8.17349 360.863 5.327C360.879 5.0572 361.26 6.51375 361.321 4.94151C361.361 6.48005 361.374 7.97831 361.4 9.49387C361.4 9.49387 361.4 9.49387 361.399 9.49387ZM4.15407 2.54457C4.12625 4.67452 4.09869 6.81178 4.07087 8.94174C4.00381 7.47204 3.93687 6.00019 3.86931 4.53623C3.96418 3.87038 4.0592 3.21042 4.15407 2.54457ZM226.689 43.1093C226.687 43.1093 226.685 43.1093 226.683 43.1093C228.922 43.0378 231.162 42.9661 233.401 42.8946C233.166 42.9472 232.93 43.0001 232.695 43.0528C230.927 43.1357 229.158 43.2185 227.396 43.3015C227.16 43.2374 226.924 43.1734 226.689 43.1093ZM209 43.6668C207.57 43.6042 207.92 43.4986 207.133 43.3958C207.133 43.396 207.133 43.3962 207.133 43.3964C206.926 43.3696 205.959 43.3462 205.585 43.3422C205.723 43.4083 205.901 43.4735 206.05 43.5391C202.715 43.699 196.192 43.1306 204.637 42.9016C204.511 42.985 204.39 43.068 204.264 43.1515C208.46 43.1281 213.139 43.3091 209 43.6668ZM335.749 2.8409C332.166 3.11412 331.018 3.17172 326.672 2.98445C327.286 2.907 327.9 2.82957 328.513 2.75213C329.231 2.83112 329.943 2.90956 330.661 2.98855C330.663 2.98855 330.665 2.98855 330.667 2.98855C330.811 2.90559 330.955 2.82249 331.092 2.73954C332.642 2.77331 334.199 2.80712 335.749 2.8409ZM71.8659 43.4693C70.8674 42.9237 71.1554 43.2408 74.0075 43.1178C74.9949 43.0751 74.0326 42.9796 74.6469 42.9637C77.9641 42.8769 78.2294 43.2425 77.4891 43.4327C75.6117 43.4456 73.7149 43.4574 71.872 43.4693C71.87 43.4693 71.868 43.4693 71.8659 43.4693ZM3.41729 26.7963C3.41729 26.7943 3.41729 26.7922 3.41729 26.7902C3.55038 26.7041 3.58619 28.0414 3.71229 26.5332C3.71179 27.6806 3.71074 28.828 3.71024 29.9811C3.69784 29.6429 3.68602 29.2975 3.67362 28.9593C3.62792 29.2578 3.58163 29.5571 3.53593 29.8557C3.68892 30.2632 3.59999 30.642 3.54882 31.8473C3.71225 31.5143 3.8758 31.183 4.03923 30.85C3.99056 32.2505 3.94171 33.6561 3.89304 35.0566C3.85186 35.0738 3.8106 35.0914 3.76942 35.1086C3.82205 35.6366 3.87527 36.1593 3.92791 36.6873C3.87874 36.8308 3.83001 36.969 3.78084 37.1125C3.81809 37.7495 3.8553 38.3876 3.89304 39.0246C3.77394 39.2185 3.72246 37.8145 3.75272 40.3035C3.63053 39.54 3.50871 38.7781 3.38653 38.0089C3.39646 34.2716 3.40685 30.5337 3.41729 26.7963ZM97.8125 43.3015C93.6963 43.3243 94.8556 43.238 95.8086 42.9678C96.4744 43.079 97.1468 43.1902 97.8125 43.3015ZM309.883 43.542C311.077 43.3577 312.276 43.1752 313.499 42.9974C315.933 42.8946 318.368 43.2305 316.537 43.3621C314.332 43.5201 312.03 43.3433 309.883 43.542ZM361.46 40.6751C361.375 43.6533 361.156 40.8511 361.028 40.1795C361.233 39.3556 361.215 38.2067 361.239 36.3614C361.252 38.0941 361.474 40.1826 361.461 40.6751C361.46 40.6751 361.46 40.6751 361.46 40.6751ZM261.954 43.3349C260.761 43.3404 259.574 43.3919 258.507 43.3293C258.829 43.1531 260.963 43.3134 259.437 43.0522C260.2 43.0477 260.964 43.0434 261.722 43.0384C261.24 43.1466 261.888 43.2275 261.951 43.3343C261.952 43.3345 261.953 43.3347 261.954 43.3349ZM137.695 43.0938C140.037 43.3024 140.481 43.2131 142.84 43.0686C143.173 43.2385 140.36 43.523 138.597 43.5856C138.299 43.4217 137.999 43.2577 137.695 43.0938ZM74.2604 2.81922C74.8229 2.60269 78.9723 2.57445 81.0339 2.63847C80.7884 2.67058 80.5421 2.70312 80.2966 2.73573C78.2872 2.76355 76.2699 2.7914 74.2604 2.81922ZM361.253 35.4833C361.247 35.7922 361.242 36.085 361.239 36.3614C361.236 36.0541 361.24 35.7574 361.253 35.4833ZM270.771 1.80677C271.752 1.60262 268.835 1.53404 272.377 1.61401C272.377 1.61381 272.377 1.61361 272.377 1.61342C274.719 1.66608 275.236 1.68014 277.406 1.69603C276.625 1.95828 272.223 2.05202 278.291 2.10617C278.371 2.10641 278.211 1.95036 279.181 1.9717C279.48 1.97834 280.438 2.10641 281.895 2.14367C282.365 2.15559 285.903 2.19509 281.081 2.19757C281.224 2.38038 280.965 2.56541 280.977 2.74276C279.094 2.7943 277.648 2.43633 275.656 2.44512C272.7 2.45903 271.195 2.821 270.627 2.3461C273.113 2.22942 277.382 2.22661 277.939 2.5122C280.344 2.51568 281.035 2.2817 279.095 2.16593C270.788 2.31297 276.815 1.81861 269.541 2.00539C269.455 2.07144 269.156 2.14252 269.201 2.2046C266.981 1.97217 270.421 1.87979 270.771 1.80677ZM288.142 2.31182C286.707 2.45141 285.276 2.59212 283.846 2.73221C283.847 2.5047 284.635 2.30054 286.897 2.17238C287.31 2.21903 287.729 2.26566 288.142 2.31182ZM167.406 2.37158C167.2 2.49527 166.649 2.60862 166.247 2.72635C165.811 2.62204 155.476 2.52196 160.734 2.41963C161.497 2.40473 166.155 2.62344 167.406 2.37158ZM121.431 43.2801C122.648 43.3631 123.86 43.4461 125.072 43.5291C123.207 43.5817 121.341 43.6357 119.476 43.6894C120.129 43.553 120.778 43.4165 121.431 43.2801ZM329.695 43.7591C329.181 43.7544 330.889 43.5843 328.863 43.6111C330.373 43.5023 331.787 43.4103 333.263 43.3079C333.705 43.3884 334.151 43.4685 334.593 43.549C334.938 43.4974 335.289 43.446 335.634 43.3943C335.427 43.5116 335.243 43.6261 335.025 43.7453C332.539 43.4939 331.969 43.7789 329.695 43.7591ZM255.778 44.2175C255.331 43.9628 258.93 43.8112 255.389 43.7705C256.061 43.6031 257.141 43.5153 259.213 43.5004C259.546 43.5644 259.878 43.628 260.211 43.692C260.257 43.5207 260.79 43.457 261.954 43.3349C261.955 43.3351 261.957 43.3353 261.958 43.3355C265.108 43.3231 264.92 43.3802 265.678 43.6618C262.342 43.5028 262.242 43.7602 259.969 43.9132C258.407 44.0184 256.369 43.9707 255.778 44.2175ZM178.417 2.36866C176.058 2.58373 178.175 2.78435 173.99 2.55585C174.26 2.50121 174.531 2.44703 174.801 2.39238C176.006 2.38394 177.212 2.37611 178.417 2.36866ZM244.137 43.3442C244.406 43.7387 246.627 44.0457 247.006 43.404C244.842 43.2734 245.899 43.6368 244.137 43.3442ZM362.078 41.6908C362.073 42.7697 362.039 43.5161 361.988 44L362 43.9885C360.875 43.8703 361.169 43.6583 362 43.4946L361.495 44C361.457 43.8097 361.422 43.5912 361.391 43.3551C361.472 43.091 361.553 42.8272 361.634 42.5689C361.597 41.8397 361.56 41.1105 361.524 40.3814C361.708 40.8177 361.893 41.2545 362.078 41.6908ZM170.763 43.7775C173.944 43.4959 167.33 43.6209 169.552 43.445C171.326 43.3045 173.664 43.5883 172.78 43.7661C172.165 43.7711 171.481 43.7745 170.77 43.7775C170.768 43.7775 170.766 43.7775 170.763 43.7775ZM189.169 43.697C188.646 43.396 189.399 43.4837 186.886 43.5379C186.169 43.5533 180.466 43.4403 182.86 43.6896C184.898 43.6896 187.051 43.694 189.169 43.697ZM353.582 2.3628C353.544 2.23174 357.935 1.94397 358.498 2.01594C358.498 2.01574 358.498 2.01555 358.498 2.01535C360.02 2.21157 355.388 2.23945 357.397 2.50869C352.948 2.27177 351.617 2.84483 351.927 2.08976C354.548 2.05664 353.307 2.21229 353.582 2.3628ZM19.779 2.20226C19.7769 2.20226 19.7749 2.20226 19.7728 2.20226C20.0677 2.20842 22.4975 2.40076 22.202 2.46738C19.2801 2.41026 19.8008 2.28365 17.0806 2.4917C16.9315 2.42469 16.8037 2.3597 16.6431 2.29219C17.7224 2.25245 18.3207 2.17195 19.779 2.20226ZM156.234 2.10734C157.307 2.07306 159.266 2.2151 160.489 2.20665C156.597 2.75209 151.945 2.24346 156.234 2.10734ZM26.0516 43.564C26.0546 43.5638 26.0578 43.5636 26.0608 43.5634C26.0599 43.5637 26.0587 43.564 26.0578 43.5643C26.0558 43.5642 26.0536 43.5641 26.0516 43.564ZM239.427 2.43457C239.289 2.39916 239.211 2.36841 239.183 2.34141C239.183 2.33887 239.183 2.33633 239.183 2.33379C239.257 2.36695 239.337 2.40048 239.427 2.43457ZM344.456 2.40235C342.627 2.21957 348.721 1.929 350.691 1.99836C350.553 2.08178 350.532 2.15741 350.211 2.25323C348.62 2.0372 344.76 2.43314 344.456 2.40235ZM282.618 43.6647C287.434 43.6697 281.166 44.3914 280.907 43.8156C280.917 43.8045 282.493 43.6657 282.618 43.6647ZM361.673 22.4412C361.892 23.6684 361.95 21.2022 361.912 25.1457C361.855 25.3752 361.799 25.6045 361.742 25.834C361.719 24.7034 361.696 23.5719 361.673 22.4412ZM314.172 44.6122C320.234 44.4905 326.032 44.2757 322.084 43.6732C321.625 43.6926 321.16 43.7113 320.701 43.7307C320.632 44.0246 318.939 43.8641 316.46 43.8546C316.107 43.9713 314.733 43.9983 314.475 44.0974C313.976 44.2891 315.555 44.4239 314.172 44.6122ZM58.2272 44.1338C58.3247 44.0836 58.4202 44.0332 58.5178 43.9835C59.4765 43.9268 60.4379 43.8705 61.3967 43.8139C61.2418 43.9101 61.0865 44.0064 60.9317 44.1027C60.0307 44.1131 59.1342 44.1236 58.2333 44.1341C58.2313 44.134 58.2292 44.1339 58.2272 44.1338ZM294.049 1.69164C293.499 2.24389 295.423 2.14218 299.327 1.86302C297.57 1.80589 295.806 1.74876 294.049 1.69164ZM216.755 44.3883C216.629 44.2314 216.505 44.075 216.373 43.9181C214.3 44.0816 214.685 44.2613 215.678 44.4689C216.04 44.4421 216.394 44.4151 216.755 44.3883ZM186.902 44.4551C187.761 44.4879 187.323 44.3612 187.413 44.3637C189.589 44.4303 189.895 44.4884 192.565 44.393C192.892 44.3597 193.213 44.3248 193.541 44.2905C192.306 43.9617 191.41 44.1409 188.799 43.9477C189.269 44.0605 189.738 44.1734 190.209 44.2867C188.757 44.2628 187.311 44.2393 185.858 44.2155C185.686 44.2503 185.514 44.2847 185.341 44.3195C185.858 44.3642 186.391 44.4144 186.902 44.4551ZM47.14 43.9911C45.7277 43.9782 44.3088 43.9648 42.8966 43.9518C42.8449 44.0328 42.7953 44.1143 42.7436 44.1953C44.2073 44.1272 45.6763 44.0591 47.14 43.9911ZM265.053 1.94329C264.941 1.97201 264.832 2.0009 264.735 2.03029C264.744 1.99448 264.866 1.96652 265.053 1.94329ZM16.0526 1.75814C14.4511 1.70152 12.1433 1.7387 10.3867 1.72679C10.5248 1.92991 14.9896 1.87377 16.5574 1.9969C16.8094 1.96045 16.7296 1.78197 16.0526 1.75814ZM358.551 44.0596C358.15 44.161 357.748 44.2618 357.352 44.3631C356.382 44.3522 355.409 44.3407 354.433 44.3297C354.405 44.4127 354.377 44.4964 354.348 44.5793C358.647 44.4716 357.656 44.7108 359.784 44.9467C359.371 44.6512 358.965 44.3557 358.551 44.0596ZM2.48276 43.2038C2.48786 43.4859 2.49336 43.7516 2.49934 44L2.50235 44.5036L3 44.5007C5.48626 44.4409 6.25227 44.3337 4.66043 44.1074C4.10811 44.1362 3.55399 44.165 3 44.1938L2.80741 44.1949L2.80624 44C2.7779 43.4546 2.74956 42.9093 2.72123 42.3655C2.64176 42.6467 2.56222 42.9283 2.48276 43.2038ZM208.488 1.7558C205.889 1.84879 205.846 1.51479 203.305 1.70131C204.666 1.76289 206.026 1.82516 207.38 1.88675C207.746 1.8432 208.122 1.79934 208.488 1.7558ZM335.96 0.838556C334.863 0.722366 332.814 1.27468 329.731 0.866972C328.996 0.988654 328.536 1.10488 327.905 1.22408C327.537 1.09443 327.12 0.963116 326.77 0.834454C326.768 0.834454 326.766 0.834454 326.763 0.834454C323.968 0.87817 325.78 1.04078 325.717 1.17838C325.688 1.23543 323.612 1.14007 324.261 1.26422C325.38 1.47733 329.564 1.35478 329.575 1.61459C328.105 1.52968 325.235 1.60063 326.084 1.77396C327.014 1.9642 329.719 1.64538 331.441 1.80325C328.973 1.38801 334.071 1.51627 334.651 1.83519C337.642 1.59029 334.892 1.49038 331.827 1.5018C333.698 1.2574 330.944 1.38945 330.49 1.18629C332.42 1.06366 339.043 1.16588 335.96 0.838556ZM288.923 44.7112C290.99 44.6954 294.22 44.8351 295.635 44.6289C296.46 44.5087 293.222 44.4156 295.455 44.2269C293.441 44.2453 292.981 44.319 293.325 44.4844C292.866 44.5043 292.402 44.5237 291.943 44.543C291.73 44.5107 291.512 44.4789 291.3 44.4466C291.059 44.5147 290.816 44.5822 290.581 44.6502C290.094 44.6368 289.6 44.6234 289.113 44.6095C289.055 44.6437 288.958 44.6735 288.923 44.7112ZM133.86 1.76605C134.434 1.76406 135.003 1.76209 135.577 1.7596C135.513 1.71932 135.438 1.67738 135.365 1.63598C135.313 1.60326 135.261 1.57055 135.209 1.53784C135.542 1.65471 138.276 1.84897 139.428 1.72416C140.007 1.66154 138.69 1.43924 141.145 1.40044C139.365 1.41187 137.717 1.44221 135.99 1.46108C136.145 1.39501 136.294 1.32824 136.449 1.26217C136.447 1.26207 136.446 1.26197 136.445 1.26187C135.872 1.24698 135.291 1.23136 134.717 1.21647C134.43 1.39977 134.147 1.58274 133.86 1.76605ZM218.438 44.6986C220.396 44.5689 221.051 44.5016 220.127 44.292C220.125 44.2919 220.122 44.2918 220.12 44.2917C219.392 44.3845 218.662 44.4774 217.933 44.5703C218.1 44.613 218.266 44.6559 218.438 44.6986ZM248.189 1.25133C244.027 2.04761 253.401 1.55948 251.616 1.28824C251.536 1.27582 248.58 1.33926 248.189 1.25133ZM362.322 40.926C362.328 41.9485 362.333 42.973 362.339 44L362.341 44.3371L362 44.3392C361.879 44.3398 361.759 44.3405 361.638 44.3412C361.758 44.3855 361.879 44.4298 362 44.4741L362.477 44.4712L362.474 44C362.527 43.8539 362.581 43.7076 362.634 43.5632C362.531 42.6848 362.426 41.8044 362.322 40.926ZM15.7262 44.8787C16.9287 45.0973 20.0154 45.1765 21.5238 44.9388C20.7315 44.911 19.9389 44.8831 19.1466 44.8553C20.6444 44.828 22.1254 44.7979 23.6347 44.7721C23.7151 44.4676 21.9757 44.6443 19.3577 44.5603C18.9523 44.5468 16.361 44.1688 15.4662 44.4537C15.2861 44.5122 18.0428 44.552 16.127 44.7223C16.9648 44.7357 17.6878 44.7327 18.4797 44.7402C18.5371 44.8127 18.594 44.8853 18.6571 44.9578C17.6779 44.9316 16.7054 44.905 15.7262 44.8787ZM300.959 44.6874C303.798 44.7043 304.149 44.5826 304.74 44.3675C303.419 44.3919 302.098 44.4158 300.778 44.4402C300.841 44.5224 300.896 44.6047 300.959 44.6874ZM41.1069 44.9485C42.6614 44.9836 41.9957 44.8086 42.6212 44.7753C44.9863 44.6502 46.5995 44.7753 48.9358 44.6968C48.7808 44.7306 48.6385 44.7622 48.4891 44.795C48.4912 44.795 48.4932 44.795 48.4953 44.795C59.5579 44.9425 53.7472 44.5455 47.1277 44.6101C46.9727 44.545 46.8238 44.4799 46.6688 44.4153C43.7065 44.529 40.9749 44.6385 41.1069 44.9485ZM285.168 1.22408C285.042 1.18335 286.115 0.924488 284.1 1.04567C282.505 1.42362 285.122 1.23603 285.777 1.3814C285.232 1.41766 284.674 1.45294 284.134 1.48921C287.395 1.59601 287.871 1.50614 286.683 1.22994C286.598 1.21138 285.295 1.26469 285.168 1.22408ZM263.737 1.03776C263.289 1.59464 267.405 1.34423 267.255 1.17135C266.687 1.16446 266.246 1.25875 265.643 1.21705C265.035 1.17533 264.879 1.04526 263.737 1.03776ZM362.826 21.6427C362.828 21.5221 363.063 20.3109 362.879 20.4312C362.446 21.9296 362.725 24.9488 362.876 24.4206C362.868 23.422 362.803 22.7561 362.827 21.6427C362.826 21.6427 362.826 21.6427 362.826 21.6427ZM1.99001 37.9967C1.97448 38.0541 1.8804 41.076 1.96775 41.466C2.06609 41.7874 2.17149 41.947 2.2733 42.188C2.17891 40.5231 2.25081 37.1531 1.99001 38.0028C1.99001 38.0008 1.99001 37.9987 1.99001 37.9967Z" fill="#EDDDD1"/>
<defs>
<linearGradient id="paint0_linear_338_3840" x1="182.5" y1="2" x2="182.5" y2="44" gradientUnits="userSpaceOnUse">
<stop stop-color="#A90700"/>
<stop offset="0.158654" stop-color="#9A0501"/>
<stop offset="0.533654" stop-color="#3D0201"/>
<stop offset="0.826923" stop-color="#5E0401"/>
<stop offset="1" stop-color="#7F0601"/>
</linearGradient>
</defs>
</svg>
