<svg width="29" height="27" viewBox="0 0 29 27" fill="none" xmlns="http://www.w3.org/2000/svg">
<path d="M14.7066 12.4537L7.94812 9.13781L0 22.7053L11.1375 18.8831L14.7066 12.4537Z" fill="url(#paint0_linear_3237_11)"/>
<path d="M7.94812 9.13781L14.7066 12.4537L15.7191 10.0997L17.8706 6.2775L4.78406 0L7.94812 9.13781Z" fill="url(#paint1_linear_3237_11)"/>
<path d="M17.8706 6.2775L15.7191 10.0997L14.7066 12.4537L21.6928 16.6303L28.9069 3.61969L17.8706 6.2775Z" fill="url(#paint2_linear_3237_11)"/>
<path d="M14.7066 12.4537L11.1375 18.8831L25.3884 26.9578L21.6928 16.6303L14.7066 12.4537Z" fill="url(#paint3_linear_3237_11)"/>
<circle cx="14.1516" cy="12.8928" r="2.8" fill="black"/>
<defs>
<linearGradient id="paint0_linear_3237_11" x1="8.85156" y1="4.09277" x2="18.8516" y2="19.5928" gradientUnits="userSpaceOnUse">
<stop stop-color="white"/>
<stop offset="1" stop-color="#969696"/>
</linearGradient>
<linearGradient id="paint1_linear_3237_11" x1="8.85156" y1="4.09277" x2="18.8516" y2="19.5928" gradientUnits="userSpaceOnUse">
<stop stop-color="white"/>
<stop offset="1" stop-color="#969696"/>
</linearGradient>
<linearGradient id="paint2_linear_3237_11" x1="8.85156" y1="4.09277" x2="18.8516" y2="19.5928" gradientUnits="userSpaceOnUse">
<stop stop-color="white"/>
<stop offset="1" stop-color="#969696"/>
</linearGradient>
<linearGradient id="paint3_linear_3237_11" x1="8.85156" y1="4.09277" x2="18.8516" y2="19.5928" gradientUnits="userSpaceOnUse">
<stop stop-color="white"/>
<stop offset="1" stop-color="#969696"/>
</linearGradient>
</defs>
</svg>
