<svg width="338" height="82" viewBox="0 0 338 82" fill="none" xmlns="http://www.w3.org/2000/svg">
<g filter="url(#filter0_d_4052_18)">
<path d="M7 21.5436V26.1167L7.57164 31.8331L8.71493 36.4063L15.003 58.1287L17.8612 66.7034L62.4494 68.9899H136.763H317.974L327.692 38.6928L330.55 24.9734V21.5436L329.978 20.4003L328.263 20.9719L323.119 23.2585L319.689 24.4018L315.687 25.5451L303.111 27.8316L295.108 28.4033H36.7254L28.7224 27.26L20.1478 24.9734L12.1448 22.1152L7 20.4003V21.5436Z" fill="url(#paint0_linear_4052_18)"/>
<path d="M7 21.5436V26.1167L7.57164 31.8331L8.71493 36.4063L15.003 58.1287L17.8612 66.7034L62.4494 68.9899H136.763H317.974L327.692 38.6928L330.55 24.9734V21.5436L329.978 20.4003L328.263 20.9719L323.119 23.2585L319.689 24.4018L315.687 25.5451L303.111 27.8316L295.108 28.4033H36.7254L28.7224 27.26L20.1478 24.9734L12.1448 22.1152L7 20.4003V21.5436Z" stroke="#E2DCCB" stroke-width="1.5"/>
</g>
<mask id="path-2-inside-1_4052_18" fill="white">
<path d="M199.205 13.7386C199.22 13.7366 199.234 13.7338 199.248 13.7304C202.951 13.5294 204.949 12.5492 205.037 12.5056L204.465 12.0373C204.314 12.1059 204.157 12.1691 203.995 12.2269V12.0512C203.99 11.9748 203.938 11.9026 203.852 11.8497C203.765 11.7968 203.65 11.7673 203.53 11.7673C203.411 11.7673 203.295 11.7968 203.209 11.8497C203.122 11.9026 203.071 11.9748 203.065 12.0512V12.5246C202.887 12.5739 202.694 12.6245 202.484 12.6737V12.3767C202.487 12.3365 202.477 12.2964 202.455 12.2587C202.433 12.221 202.399 12.1865 202.356 12.1574C202.312 12.1283 202.26 12.1052 202.202 12.0893C202.144 12.0735 202.082 12.0653 202.019 12.0653C201.956 12.0653 201.894 12.0735 201.836 12.0893C201.778 12.1052 201.726 12.1283 201.682 12.1574C201.639 12.1865 201.605 12.221 201.583 12.2587C201.561 12.2964 201.551 12.3365 201.554 12.3767V12.8646C201.391 12.8937 201.222 12.9213 201.046 12.9474V12.6245C201.041 12.548 200.989 12.4758 200.903 12.4229C200.816 12.37 200.701 12.3405 200.581 12.3405C200.461 12.3405 200.346 12.37 200.26 12.4229C200.173 12.4758 200.122 12.548 200.116 12.6245V13.0624C199.943 13.0795 199.766 13.0953 199.583 13.1092V12.7761C199.583 12.6974 199.534 12.6218 199.447 12.5661C199.36 12.5104 199.242 12.4791 199.119 12.4791C198.996 12.4791 198.877 12.5104 198.79 12.5661C198.703 12.6218 198.654 12.6974 198.654 12.7761V13.1553H198.57C195.677 13.2356 193.907 11.6632 193.292 11.0015C193.238 10.9225 193.185 10.8416 193.133 10.7582H193.539V10.4176H192.483V10.015H193.539V9.67437H188.25V8.82182H187.723C188.292 8.66037 188.844 8.47544 189.376 8.26821L191.494 7.44031V6.57323C191.494 6.57323 189.031 7.23555 186.316 7.0864C186.33 7.08476 186.345 7.08222 186.359 7.07882C190.061 6.87785 192.06 5.89765 192.148 5.85404L191.576 5.38511C191.425 5.45535 191.268 5.51992 191.106 5.5785V5.4047C191.101 5.32821 191.049 5.25602 190.963 5.20314C190.876 5.15026 190.761 5.12075 190.641 5.12075C190.521 5.12075 190.406 5.15026 190.32 5.20314C190.233 5.25602 190.182 5.32821 190.176 5.4047V5.87806C189.998 5.92735 189.805 5.97791 189.595 6.0272V5.73017C189.598 5.68997 189.588 5.64981 189.566 5.61212C189.544 5.57443 189.51 5.53999 189.467 5.51089C189.423 5.48178 189.371 5.45861 189.313 5.44278C189.255 5.42696 189.193 5.4188 189.13 5.4188C189.067 5.4188 189.005 5.42696 188.947 5.44278C188.889 5.45861 188.837 5.48178 188.793 5.51089C188.75 5.53999 188.716 5.57443 188.694 5.61212C188.672 5.64981 188.662 5.68997 188.665 5.73017V6.21806C188.502 6.24713 188.332 6.27473 188.157 6.30085V5.97348C188.16 5.93328 188.15 5.89312 188.128 5.85543C188.106 5.81774 188.072 5.7833 188.029 5.7542C187.985 5.72509 187.933 5.70193 187.875 5.6861C187.817 5.67027 187.755 5.66211 187.692 5.66211C187.629 5.66211 187.567 5.67027 187.509 5.6861C187.451 5.70193 187.399 5.72509 187.355 5.7542C187.312 5.7833 187.278 5.81774 187.256 5.85543C187.234 5.89312 187.224 5.93328 187.227 5.97348V6.41587C187.054 6.43357 186.877 6.44937 186.694 6.46327V6.13021C186.694 6.05144 186.645 5.97589 186.558 5.92018C186.471 5.86448 186.353 5.83319 186.23 5.83319C186.106 5.83319 185.988 5.86448 185.901 5.92018C185.814 5.97589 185.765 6.05144 185.765 6.13021V6.5094H185.681C182.791 6.58903 181.022 5.02172 180.405 4.36067C180.35 4.28041 180.296 4.19888 180.244 4.11483H180.649V3.77419H179.594V3.37162H180.649V3.03098H178.486V2.48937H176.246V1.36002H175.202V0.345063H172.569V1.57869H174.377V0.777968H173.243V1.00106H174.028V1.3556H172.916V0.567521H174.854V1.75249H172.231V0.345063H169.418V1.07437H169.211V0.222459H172.222V0H165.762V0.222459H168.863V1.07247H168.556V0.345063H165.742V1.75249H163.119V0.567521H165.056V1.3556H163.945V1.00106H164.73V0.777968H163.597V1.57869H165.406V0.345063H162.777V1.36002H161.728V2.48748H159.488V3.02908H157.348V3.36972H158.329V3.77229H157.352V4.11293H157.757C157.705 4.19699 157.651 4.27914 157.596 4.35877C156.979 5.02235 155.21 6.5903 152.319 6.50751H152.236V6.12832C152.236 6.04954 152.187 5.97399 152.1 5.91829C152.013 5.86258 151.895 5.83129 151.771 5.83129C151.648 5.83129 151.53 5.86258 151.443 5.91829C151.356 5.97399 151.307 6.04954 151.307 6.12832V6.46137C151.124 6.44747 150.947 6.43167 150.774 6.41397V5.97348C150.777 5.93328 150.767 5.89312 150.745 5.85543C150.723 5.81774 150.689 5.7833 150.646 5.7542C150.602 5.72509 150.55 5.70193 150.492 5.6861C150.434 5.67027 150.372 5.66211 150.309 5.66211C150.246 5.66211 150.184 5.67027 150.126 5.6861C150.068 5.70193 150.016 5.72509 149.973 5.7542C149.929 5.7833 149.895 5.81774 149.873 5.85543C149.851 5.89312 149.841 5.93328 149.844 5.97348V6.29643C149.668 6.27073 149.499 6.24313 149.335 6.21364V5.72575C149.335 5.64697 149.286 5.57142 149.199 5.51572C149.112 5.46001 148.994 5.42872 148.871 5.42872C148.747 5.42872 148.629 5.46001 148.542 5.51572C148.455 5.57142 148.406 5.64697 148.406 5.72575V6.02278C148.196 5.97349 148.002 5.92292 147.825 5.87363V5.4047C147.819 5.32821 147.768 5.25602 147.681 5.20314C147.595 5.15026 147.48 5.12075 147.36 5.12075C147.24 5.12075 147.125 5.15026 147.038 5.20314C146.952 5.25602 146.9 5.32821 146.895 5.4047V5.58039C146.733 5.52272 146.577 5.45943 146.426 5.3908L145.853 5.8591C145.94 5.9027 147.939 6.88291 151.642 7.08388C151.656 7.08728 151.671 7.08982 151.685 7.09146C148.97 7.24061 146.507 6.57829 146.507 6.57829V7.44537L148.626 8.27326C149.157 8.4805 149.709 8.66543 150.278 8.82688H149.829V9.68764H144.542V10.0283H145.596V10.4308H144.537V10.7715H144.941C144.89 10.8549 144.836 10.9358 144.782 11.0148C144.167 11.6765 142.397 13.2488 139.504 13.1686H139.421V12.7894C139.415 12.7129 139.364 12.6407 139.277 12.5878C139.191 12.535 139.076 12.5054 138.956 12.5054C138.836 12.5054 138.721 12.535 138.634 12.5878C138.548 12.6407 138.496 12.7129 138.491 12.7894V13.1149C138.308 13.101 138.131 13.0852 137.958 13.0681V12.6301C137.953 12.5536 137.901 12.4815 137.815 12.4286C137.728 12.3757 137.613 12.3462 137.493 12.3462C137.373 12.3462 137.258 12.3757 137.172 12.4286C137.085 12.4815 137.034 12.5536 137.028 12.6301V12.9531C136.852 12.9274 136.683 12.8998 136.52 12.8703V12.3824C136.523 12.3422 136.513 12.302 136.491 12.2644C136.469 12.2267 136.435 12.1922 136.392 12.1631C136.348 12.134 136.296 12.1108 136.238 12.095C136.18 12.0792 136.118 12.071 136.055 12.071C135.992 12.071 135.93 12.0792 135.872 12.095C135.814 12.1108 135.762 12.134 135.718 12.1631C135.675 12.1922 135.641 12.2267 135.619 12.2644C135.597 12.302 135.587 12.3422 135.59 12.3824V12.6794C135.381 12.6301 135.187 12.5796 135.009 12.5303V12.0569C135.009 11.9782 134.96 11.9026 134.873 11.8469C134.786 11.7912 134.668 11.7599 134.544 11.7599C134.421 11.7599 134.303 11.7912 134.216 11.8469C134.129 11.9026 134.08 11.9782 134.08 12.0569V12.2301C133.918 12.1722 133.761 12.1089 133.609 12.0405L133.037 12.5088C133.125 12.5524 135.124 13.5326 138.826 13.7336C138.84 13.7369 138.855 13.7396 138.869 13.7418C136.154 13.8903 133.692 13.228 133.692 13.228V14.0951L135.809 14.923C138.073 15.807 140.674 16.2747 143.326 16.2748H141.291V16.6148H142.202V26.6304H141.853V27.2712H141.35V28.7444H145.493V27.2712H144.991V26.626H144.642V17.4547H155.013V26.6816H154.664V27.3269H154.162V28.7994H158.306V27.3269H157.802V26.6816H157.455V15.1164H157.871V15.5796H160.059V13.8935H161.591V14.5558H160.709V14.303H160.98V14.4022H161.329V14.0805H160.36V14.7801H161.942V14.3377H176.062V14.7801H177.644V14.0793H176.675V14.4009H177.023V14.3017H177.295V14.5545H176.413V13.8935H177.943V15.5796H180.132V15.117H180.549V26.6822H180.2V27.3275H179.698V28.8H183.841V27.3275H183.335V26.6822H182.986V17.4553H193.435V26.6285H193.086V27.2712H192.584V28.7444H196.727V27.2712H196.224V26.626H195.876V16.6123H196.786V16.2748H194.751C197.402 16.274 200.001 15.806 202.263 14.9223L204.381 14.0944V13.2248C204.381 13.2248 201.916 13.8871 199.205 13.7386ZM178.647 12.7692V12.2111H179.45V12.4007H179.228V12.3091H178.879V12.6251H179.799V12.4702H180.545V12.7717L178.647 12.7692ZM157.457 12.7692V12.4677H158.247V12.6226H159.166V12.3066H158.823V12.3982H158.601V12.2086H159.406V12.7666L157.457 12.7692ZM154.887 10.0232V10.4258H154.079V10.0232H154.887ZM160.648 3.37162V3.77419H159.834V3.37162H160.648ZM178.431 10.4605V9.95876H179.245V10.4605H178.431ZM179.797 11.5602V11.3276H180.543V12.2427H179.797V11.9868H179.216V11.5602H179.797ZM178.867 11.9868H178.294V12.2427H177.509V11.3295H178.294V11.5621H178.865L178.867 11.9868ZM159.178 11.9868V11.5602H159.75V11.3276H160.486V12.2427H159.75V11.9868H159.178ZM158.249 11.9868V12.2427H157.458V11.3295H158.249V11.5621H158.83V11.9887L158.249 11.9868ZM177.269 10.4605V9.95876H178.083V10.4605H177.269ZM176.92 10.4605H176.107V9.95876H176.92V10.4605ZM175.758 10.4605H174.945V9.95876H175.758V10.4605ZM174.597 10.4605H173.782V9.95876H174.597V10.4605ZM173.434 10.4605H172.621V9.95876H173.434V10.4605ZM172.272 10.4605H171.459V9.95876H172.272V10.4605ZM171.11 10.4605H170.296V9.95876H171.11V10.4605ZM169.947 10.4605H169.134V9.95876H169.947V10.4605ZM168.785 10.4605H167.972V9.95876H168.785V10.4605ZM167.62 10.4605H166.806V9.95876H167.62V10.4605ZM166.457 10.4605H165.643V9.95876H166.457L166.457 10.4605ZM165.296 10.4605H164.483V9.95876H165.296V10.4605ZM164.134 10.4605H163.32V9.95876H164.134V10.4605ZM162.975 10.4605H162.161V9.95876H162.975V10.4605ZM161.812 10.4605H160.998V9.95876H161.811L161.812 10.4605ZM160.65 10.4605H159.836V9.95876H160.65V10.4605ZM159.488 10.4605H158.674V9.95876H159.488V10.4605ZM158.329 10.4605H157.458V9.95876H158.329V10.4605ZM159.406 10.8012V11.3377H158.601V11.1481H158.823V11.2398H159.172V10.9238H158.253V11.102H157.462V10.7987L159.406 10.8012ZM160.493 11.1045H159.756V10.8012H160.493V11.1045ZM178.303 11.1045H177.518V10.8012H178.294L178.303 11.1045ZM167.972 4.51361V8.40282C167.968 8.43095 167.949 8.45725 167.916 8.47643C167.884 8.49562 167.841 8.50628 167.797 8.50628C167.753 8.50628 167.711 8.49562 167.678 8.47643C167.646 8.45725 167.626 8.43095 167.623 8.40282V4.51361C167.626 4.48548 167.646 4.45918 167.678 4.44C167.711 4.42081 167.753 4.41015 167.797 4.41015C167.841 4.41015 167.884 4.42081 167.916 4.44C167.949 4.45918 167.968 4.48548 167.972 4.51361ZM166.809 4.51361V8.40282C166.806 8.43095 166.786 8.45725 166.754 8.47643C166.722 8.49562 166.679 8.50628 166.635 8.50628C166.591 8.50628 166.548 8.49562 166.516 8.47643C166.484 8.45725 166.464 8.43095 166.46 8.40282V4.51361C166.464 4.48548 166.484 4.45918 166.516 4.44C166.548 4.42081 166.591 4.41015 166.635 4.41015C166.679 4.41015 166.722 4.42081 166.754 4.44C166.786 4.45918 166.806 4.48548 166.809 4.51361ZM165.647 4.51361V8.40282C165.647 8.43232 165.629 8.46061 165.596 8.48147C165.563 8.50233 165.519 8.51405 165.473 8.51405C165.427 8.51405 165.383 8.50233 165.35 8.48147C165.317 8.46061 165.299 8.43232 165.299 8.40282V4.51361C165.299 4.48411 165.317 4.45582 165.35 4.43496C165.383 4.4141 165.427 4.40238 165.473 4.40238C165.519 4.40238 165.563 4.4141 165.596 4.43496C165.629 4.45582 165.647 4.48411 165.647 4.51361ZM164.486 4.51361V8.40282C164.482 8.43095 164.463 8.45725 164.43 8.47643C164.398 8.49562 164.355 8.50628 164.311 8.50628C164.267 8.50628 164.225 8.49562 164.192 8.47643C164.16 8.45725 164.14 8.43095 164.137 8.40282V4.51361C164.14 4.48548 164.16 4.45918 164.192 4.44C164.225 4.42081 164.267 4.41015 164.311 4.41015C164.355 4.41015 164.398 4.42081 164.43 4.44C164.463 4.45918 164.482 4.48548 164.486 4.51361ZM163.323 4.51361V8.40282C163.32 8.43095 163.3 8.45725 163.268 8.47643C163.236 8.49562 163.193 8.50628 163.149 8.50628C163.105 8.50628 163.062 8.49562 163.03 8.47643C162.998 8.45725 162.978 8.43095 162.975 8.40282V4.51361C162.978 4.48548 162.998 4.45918 163.03 4.44C163.062 4.42081 163.105 4.41015 163.149 4.41015C163.193 4.41015 163.236 4.42081 163.268 4.44C163.3 4.45918 163.32 4.48548 163.323 4.51361ZM162.161 4.51361V8.40282C162.158 8.43095 162.138 8.45725 162.106 8.47643C162.073 8.49562 162.031 8.50628 161.987 8.50628C161.943 8.50628 161.9 8.49562 161.868 8.47643C161.835 8.45725 161.816 8.43095 161.812 8.40282V4.51361C161.816 4.48548 161.835 4.45918 161.868 4.44C161.9 4.42081 161.943 4.41015 161.987 4.41015C162.031 4.41015 162.073 4.42081 162.106 4.44C162.138 4.45918 162.158 4.48548 162.161 4.51361ZM160.999 4.51361V8.40282C160.995 8.43095 160.976 8.45725 160.943 8.47643C160.911 8.49562 160.868 8.50628 160.824 8.50628C160.78 8.50628 160.738 8.49562 160.705 8.47643C160.673 8.45725 160.653 8.43095 160.65 8.40282V4.51361C160.653 4.48548 160.673 4.45918 160.705 4.44C160.738 4.42081 160.78 4.41015 160.824 4.41015C160.868 4.41015 160.911 4.42081 160.943 4.44C160.976 4.45918 160.995 4.48548 160.999 4.51361ZM159.836 4.51361V8.40282C159.833 8.43095 159.813 8.45725 159.781 8.47643C159.749 8.49562 159.706 8.50628 159.662 8.50628C159.618 8.50628 159.575 8.49562 159.543 8.47643C159.511 8.45725 159.491 8.43095 159.488 8.40282V4.51361C159.491 4.48548 159.511 4.45918 159.543 4.44C159.575 4.42081 159.618 4.41015 159.662 4.41015C159.706 4.41015 159.749 4.42081 159.781 4.44C159.813 4.45918 159.833 4.48548 159.836 4.51361ZM179.419 4.97559C179.465 4.97559 179.51 4.98737 179.543 5.00835C179.575 5.02933 179.594 5.05778 179.594 5.08745V8.40282C179.59 8.43095 179.571 8.45725 179.538 8.47643C179.506 8.49562 179.463 8.50628 179.419 8.50628C179.375 8.50628 179.333 8.49562 179.3 8.47643C179.268 8.45725 179.248 8.43095 179.245 8.40282V5.08871C179.244 5.07395 179.249 5.05928 179.257 5.04556C179.266 5.03185 179.279 5.01936 179.295 5.00883C179.311 4.9983 179.33 4.98994 179.352 4.98423C179.373 4.97852 179.396 4.97559 179.419 4.97559ZM178.43 4.51361V8.40282C178.427 8.43095 178.407 8.45725 178.375 8.47643C178.343 8.49562 178.3 8.50628 178.256 8.50628C178.212 8.50628 178.169 8.49562 178.137 8.47643C178.105 8.45725 178.085 8.43095 178.082 8.40282V4.51361C178.085 4.48548 178.105 4.45918 178.137 4.44C178.169 4.42081 178.212 4.41015 178.256 4.41015C178.3 4.41015 178.343 4.42081 178.375 4.44C178.407 4.45918 178.427 4.48548 178.43 4.51361ZM177.268 4.51361V8.40282C177.265 8.43095 177.245 8.45725 177.213 8.47643C177.18 8.49562 177.138 8.50628 177.094 8.50628C177.05 8.50628 177.007 8.49562 176.975 8.47643C176.942 8.45725 176.923 8.43095 176.919 8.40282V4.51361C176.923 4.48548 176.942 4.45918 176.975 4.44C177.007 4.42081 177.05 4.41015 177.094 4.41015C177.138 4.41015 177.18 4.42081 177.213 4.44C177.245 4.45918 177.265 4.48548 177.268 4.51361ZM176.106 4.51361V8.40282C176.103 8.43095 176.083 8.45725 176.05 8.47643C176.018 8.49562 175.976 8.50628 175.931 8.50628C175.887 8.50628 175.845 8.49562 175.812 8.47643C175.78 8.45725 175.76 8.43095 175.757 8.40282V4.51361C175.76 4.48548 175.78 4.45918 175.812 4.44C175.845 4.42081 175.887 4.41015 175.931 4.41015C175.976 4.41015 176.018 4.42081 176.05 4.44C176.083 4.45918 176.103 4.48548 176.106 4.51361ZM174.944 4.51361V8.40282C174.944 8.43232 174.925 8.46061 174.893 8.48147C174.86 8.50233 174.816 8.51405 174.77 8.51405C174.723 8.51405 174.679 8.50233 174.647 8.48147C174.614 8.46061 174.596 8.43232 174.596 8.40282V4.51361C174.596 4.48411 174.614 4.45582 174.647 4.43496C174.679 4.4141 174.723 4.40238 174.77 4.40238C174.816 4.40238 174.86 4.4141 174.893 4.43496C174.925 4.45582 174.944 4.48411 174.944 4.51361ZM173.781 4.51361V8.40282C173.781 8.43232 173.763 8.46061 173.73 8.48147C173.698 8.50233 173.653 8.51405 173.607 8.51405C173.561 8.51405 173.517 8.50233 173.484 8.48147C173.452 8.46061 173.433 8.43232 173.433 8.40282V4.51361C173.433 4.48411 173.452 4.45582 173.484 4.43496C173.517 4.4141 173.561 4.40238 173.607 4.40238C173.653 4.40238 173.698 4.4141 173.73 4.43496C173.763 4.45582 173.781 4.48411 173.781 4.51361ZM172.62 4.51361V8.40282C172.617 8.43095 172.597 8.45725 172.564 8.47643C172.532 8.49562 172.49 8.50628 172.445 8.50628C172.401 8.50628 172.359 8.49562 172.327 8.47643C172.294 8.45725 172.274 8.43095 172.271 8.40282V4.51361C172.274 4.48548 172.294 4.45918 172.327 4.44C172.359 4.42081 172.401 4.41015 172.445 4.41015C172.49 4.41015 172.532 4.42081 172.564 4.44C172.597 4.45918 172.617 4.48548 172.62 4.51361ZM171.458 4.51361V8.40282C171.454 8.43095 171.434 8.45725 171.402 8.47643C171.37 8.49562 171.327 8.50628 171.283 8.50628C171.239 8.50628 171.197 8.49562 171.164 8.47643C171.132 8.45725 171.112 8.43095 171.109 8.40282V4.51361C171.112 4.48548 171.132 4.45918 171.164 4.44C171.197 4.42081 171.239 4.41015 171.283 4.41015C171.327 4.41015 171.37 4.42081 171.402 4.44C171.434 4.45918 171.454 4.48548 171.458 4.51361ZM170.295 4.51361V8.40282C170.292 8.43095 170.272 8.45725 170.24 8.47643C170.207 8.49562 170.165 8.50628 170.121 8.50628C170.077 8.50628 170.034 8.49562 170.002 8.47643C169.97 8.45725 169.95 8.43095 169.946 8.40282V4.51361C169.95 4.48548 169.97 4.45918 170.002 4.44C170.034 4.42081 170.077 4.41015 170.121 4.41015C170.165 4.41015 170.207 4.42081 170.24 4.44C170.272 4.45918 170.292 4.48548 170.295 4.51361ZM168.784 4.51361C168.787 4.48548 168.807 4.45918 168.84 4.44C168.872 4.42081 168.914 4.41015 168.959 4.41015C169.003 4.41015 169.045 4.42081 169.078 4.44C169.11 4.45918 169.13 4.48548 169.133 4.51361V8.40282C169.13 8.43095 169.11 8.45725 169.078 8.47643C169.045 8.49562 169.003 8.50628 168.959 8.50628C168.914 8.50628 168.872 8.49562 168.84 8.47643C168.807 8.45725 168.787 8.43095 168.784 8.40282V4.51361ZM180.406 8.40282V5.78389C180.41 5.75576 180.429 5.72946 180.462 5.71028C180.494 5.69109 180.537 5.68043 180.581 5.68043C180.625 5.68043 180.667 5.69109 180.7 5.71028C180.732 5.72946 180.752 5.75576 180.755 5.78389V8.40598C180.752 8.43411 180.732 8.46041 180.7 8.47959C180.667 8.49878 180.625 8.50944 180.581 8.50944C180.537 8.50944 180.494 8.49878 180.462 8.47959C180.429 8.46041 180.41 8.43411 180.406 8.40598V8.40282ZM164.136 3.37162V3.77419H163.322V3.37162H164.136ZM164.485 3.37162H165.298V3.77419H164.485V3.37162ZM165.646 3.37162H166.459V3.77419H165.643L165.646 3.37162ZM166.808 3.37162H167.62V3.77419H166.806L166.808 3.37162ZM167.971 3.37162H168.784V3.77419H167.971V3.37162ZM173.781 3.77419V3.37162H174.596V3.77419H173.781ZM173.433 3.77419H172.62V3.37162H173.433V3.77419ZM172.271 3.77419H171.458V3.37162H172.271V3.77419ZM171.109 3.77419H170.295V3.37162H171.109V3.77419ZM169.946 3.77419H169.133V3.37162H169.946V3.77419ZM177.268 3.77419V3.37162H178.082V3.77419H177.268ZM176.919 3.77419H176.106V3.37162H176.919V3.77419ZM175.757 3.77419H174.944V3.37162H175.757V3.77419ZM162.974 3.77419H162.16V3.37162H162.975L162.974 3.77419ZM161.811 3.77419H160.998V3.37162H161.811V3.77419ZM158.674 5.08871V8.40408C158.671 8.43222 158.651 8.45851 158.619 8.47769C158.586 8.49688 158.544 8.50754 158.5 8.50754C158.456 8.50754 158.413 8.49688 158.381 8.47769C158.348 8.45851 158.329 8.43222 158.325 8.40408V5.08871C158.323 5.07336 158.327 5.05793 158.335 5.0434C158.343 5.02886 158.355 5.01553 158.371 5.00424C158.388 4.99295 158.408 4.98395 158.43 4.97779C158.452 4.97163 158.476 4.96845 158.5 4.96845C158.524 4.96845 158.548 4.97163 158.57 4.97779C158.592 4.98395 158.612 4.99295 158.628 5.00424C158.644 5.01553 158.657 5.02886 158.665 5.0434C158.673 5.05793 158.676 5.07336 158.674 5.08871ZM157.512 5.78389V8.40598C157.512 8.43548 157.494 8.46377 157.461 8.48463C157.428 8.50549 157.384 8.51721 157.338 8.51721C157.292 8.51721 157.248 8.50549 157.215 8.48463C157.182 8.46377 157.164 8.43548 157.164 8.40598V5.78389C157.164 5.75439 157.182 5.7261 157.215 5.70524C157.248 5.68438 157.292 5.67266 157.338 5.67266C157.384 5.67266 157.428 5.68438 157.461 5.70524C157.494 5.7261 157.512 5.75439 157.512 5.78389ZM159.75 12.4709H160.486V12.7723H159.75V12.4709ZM177.511 12.4709H178.294V12.7723H177.509L177.511 12.4709ZM180.543 11.1096H179.797V10.9282H178.877V11.2442H179.226V11.1526H179.448V11.3422H178.645V10.8056H180.543V11.1096ZM180.543 10.4656H179.594V9.96381H180.543V10.4656ZM179.245 3.77419H178.431V3.37162H179.245V3.77419ZM175.202 1.97557V1.58438H175.894V2.71246H178.135V3.02846H175.358V2.17022H173.795V1.97557H175.202ZM169.418 1.29683V1.97494H171.309V0.765961H169.971V1.40679H170.32V0.989052H170.961V1.75249H169.767V0.567521H171.883V1.97557H173.451V2.17022H169.211V1.29683H169.418ZM166.091 1.97494V0.567521H168.213V1.75249H167.018V0.989052H167.659V1.40679H168.007V0.765961H166.669V1.97557H168.561V1.29683H168.868V2.16959H164.53V1.97494H166.091ZM159.836 2.71246H162.077V1.58438H162.769V1.97557H164.173V2.17022H162.711V3.03098H159.836V2.71246ZM158.674 3.37162H159.488V3.77419H158.674V3.37162ZM153.726 10.0232V10.4258H152.913V10.0232H153.726ZM152.564 10.0232V10.4258H151.751V10.0232H152.564ZM151.403 10.0232V10.4258H150.589V10.0232H151.403ZM149.426 10.0232H150.24V10.4258H149.426V10.0232ZM148.264 10.0232H149.077V10.4258H148.264V10.0232ZM147.101 10.0232H147.915V10.4258H147.101V10.0232ZM145.939 10.0232H146.753V10.4258H145.939V10.0232ZM144.603 15.1656C144.58 15.1657 144.557 15.1629 144.536 15.1574C144.515 15.1518 144.496 15.1436 144.479 15.1333C144.463 15.123 144.45 15.1107 144.441 15.0971C144.432 15.0836 144.428 15.0691 144.428 15.0544V12.4323C144.431 12.4042 144.451 12.3779 144.483 12.3587C144.516 12.3395 144.558 12.3289 144.602 12.3289C144.647 12.3289 144.689 12.3395 144.721 12.3587C144.754 12.3779 144.774 12.4042 144.777 12.4323V15.0544C144.777 15.0838 144.759 15.112 144.726 15.1328C144.694 15.1537 144.65 15.1655 144.604 15.1656H144.603ZM145.591 17.114H144.642V16.6123H145.591V17.114ZM145.94 15.0544C145.937 15.0826 145.917 15.1088 145.885 15.128C145.852 15.1472 145.81 15.1579 145.766 15.1579C145.722 15.1579 145.679 15.1472 145.647 15.128C145.614 15.1088 145.595 15.0826 145.591 15.0544V11.739C145.589 11.7237 145.593 11.7083 145.601 11.6937C145.609 11.6792 145.621 11.6659 145.637 11.6546C145.654 11.6433 145.674 11.6343 145.696 11.6281C145.718 11.622 145.742 11.6188 145.766 11.6188C145.79 11.6188 145.814 11.622 145.836 11.6281C145.858 11.6343 145.878 11.6433 145.894 11.6546C145.91 11.6659 145.923 11.6792 145.931 11.6937C145.939 11.7083 145.942 11.7237 145.94 11.739V15.0544ZM146.754 17.114H145.94V16.6123H146.754V17.114ZM147.102 15.0544C147.099 15.0826 147.079 15.1088 147.047 15.128C147.015 15.1472 146.972 15.1579 146.928 15.1579C146.884 15.1579 146.841 15.1472 146.809 15.128C146.777 15.1088 146.757 15.0826 146.754 15.0544V11.1652C146.757 11.1371 146.777 11.1108 146.809 11.0916C146.841 11.0724 146.884 11.0617 146.928 11.0617C146.972 11.0617 147.015 11.0724 147.047 11.0916C147.079 11.1108 147.099 11.1371 147.102 11.1652V15.0544ZM147.916 17.114H147.102V16.6123H147.916V17.114ZM148.265 15.0544C148.261 15.0826 148.242 15.1088 148.209 15.128C148.177 15.1472 148.134 15.1579 148.09 15.1579C148.046 15.1579 148.004 15.1472 147.971 15.128C147.939 15.1088 147.919 15.0826 147.916 15.0544V11.1652C147.919 11.1371 147.939 11.1108 147.971 11.0916C148.004 11.0724 148.046 11.0617 148.09 11.0617C148.134 11.0617 148.177 11.0724 148.209 11.0916C148.242 11.1108 148.261 11.1371 148.265 11.1652V15.0544ZM149.078 17.114H148.265V16.6123H149.078V17.114ZM149.427 15.0544C149.424 15.0826 149.404 15.1088 149.372 15.128C149.339 15.1472 149.297 15.1579 149.253 15.1579C149.209 15.1579 149.166 15.1472 149.134 15.128C149.101 15.1088 149.082 15.0826 149.078 15.0544V11.1652C149.082 11.1371 149.101 11.1108 149.134 11.0916C149.166 11.0724 149.209 11.0617 149.253 11.0617C149.297 11.0617 149.339 11.0724 149.372 11.0916C149.404 11.1108 149.424 11.1371 149.427 11.1652V15.0544ZM150.24 17.114H149.427V16.6123H150.24V17.114ZM150.589 15.0544C150.586 15.0826 150.566 15.1088 150.534 15.128C150.502 15.1472 150.459 15.1579 150.415 15.1579C150.371 15.1579 150.328 15.1472 150.296 15.128C150.264 15.1088 150.244 15.0826 150.24 15.0544V11.1652C150.244 11.1371 150.264 11.1108 150.296 11.0916C150.328 11.0724 150.371 11.0617 150.415 11.0617C150.459 11.0617 150.502 11.0724 150.534 11.0916C150.566 11.1108 150.586 11.1371 150.589 11.1652V15.0544ZM151.403 17.114H150.589V16.6123H151.403V17.114ZM151.751 15.0544C151.751 15.0839 151.732 15.1122 151.7 15.1331C151.667 15.1539 151.623 15.1656 151.577 15.1656C151.531 15.1656 151.486 15.1539 151.454 15.1331C151.421 15.1122 151.403 15.0839 151.403 15.0544V11.1652C151.403 11.1357 151.421 11.1074 151.454 11.0866C151.486 11.0657 151.531 11.054 151.577 11.054C151.623 11.054 151.667 11.0657 151.7 11.0866C151.732 11.1074 151.751 11.1357 151.751 11.1652V15.0544ZM152.564 17.114H151.751V16.6123H152.564V17.114ZM152.913 15.0544C152.91 15.0826 152.89 15.1088 152.858 15.128C152.825 15.1472 152.783 15.1579 152.739 15.1579C152.694 15.1579 152.652 15.1472 152.62 15.128C152.587 15.1088 152.567 15.0826 152.564 15.0544V11.1652C152.567 11.1371 152.587 11.1108 152.62 11.0916C152.652 11.0724 152.694 11.0617 152.739 11.0617C152.783 11.0617 152.825 11.0724 152.858 11.0916C152.89 11.1108 152.91 11.1371 152.913 11.1652V15.0544ZM153.726 17.114H152.913V16.6123H153.726V17.114ZM154.079 15.0544C154.076 15.0826 154.056 15.1088 154.024 15.128C153.991 15.1472 153.949 15.1579 153.905 15.1579C153.861 15.1579 153.818 15.1472 153.786 15.128C153.754 15.1088 153.734 15.0826 153.73 15.0544V11.1652C153.734 11.1371 153.754 11.1108 153.786 11.0916C153.818 11.0724 153.861 11.0617 153.905 11.0617C153.949 11.0617 153.991 11.0724 154.024 11.0916C154.056 11.1108 154.076 11.1371 154.079 11.1652V15.0544ZM154.893 17.114H154.079V16.6123H154.893V17.114ZM154.893 15.0544V11.1652C154.893 11.1413 154.905 11.1181 154.927 11.0989C154.95 11.0798 154.981 11.0658 155.017 11.059V15.1606C154.981 15.1543 154.948 15.1405 154.925 15.1213C154.902 15.1021 154.889 15.0786 154.889 15.0544H154.893ZM157.462 14.892V13.1098H158.55V14.4073H157.881V14.892H157.462ZM159.713 13.6704V15.3546H158.22V14.6316H159.197V14.9659H158.888V14.7928H158.539V15.189H159.546V14.4073H158.888V13.1098H160.486V13.4663H160.684V13.6704H159.713ZM161.94 13.8935H162.876V14.1121H161.936L161.94 13.8935ZM174.502 13.8935V14.1121H173.688V13.8935H174.502ZM173.339 14.1121H172.526V13.8935H173.339V14.1121ZM172.177 14.1121H171.364V13.8935H172.177V14.1121ZM171.015 14.1121H170.201V13.8935H171.015V14.1121ZM169.853 14.1121H169.039V13.8935H169.853V14.1121ZM168.69 14.1121H167.877V13.8935H168.69V14.1121ZM167.528 14.1121H166.714V13.8935H167.528V14.1121ZM166.367 14.1121H165.552V13.8935H166.367V14.1121ZM165.204 14.1121H164.391V13.8935H165.204V14.1121ZM164.042 14.1121H163.229V13.8935H164.042V14.1121ZM174.85 14.1121V13.8935H176.06V14.1121H174.85ZM176.233 13.6698H161.037V13.4656H176.96V13.6698H176.233ZM179.777 15.3546H178.285V13.6704H177.306V13.4663H177.509V13.1098H179.108V14.4073H178.449V15.1878H179.456V14.7915H179.108V14.9647H178.797V14.6316H179.776L179.777 15.3546ZM180.126 14.892V14.4073H179.457V13.1098H180.545V14.892H180.126ZM183.011 15.1656C183.001 15.1663 182.991 15.1663 182.982 15.1656V11.0578C182.991 11.0572 183.001 11.0572 183.011 11.0578C183.057 11.0578 183.101 11.0695 183.134 11.0904C183.166 11.1112 183.184 11.1395 183.184 11.169V15.0582C183.183 15.0869 183.164 15.1142 183.132 15.1342C183.1 15.1542 183.056 15.1655 183.012 15.1656H183.011ZM183.999 17.114H183.185V16.6123H183.999V17.114ZM183.999 10.4258H183.185V10.0232H183.999V10.4258ZM184.173 15.1656C184.127 15.1656 184.082 15.1539 184.05 15.1331C184.017 15.1122 183.999 15.0839 183.999 15.0544V11.1652C184.002 11.1371 184.022 11.1108 184.054 11.0916C184.087 11.0724 184.129 11.0617 184.173 11.0617C184.217 11.0617 184.26 11.0724 184.292 11.0916C184.325 11.1108 184.344 11.1371 184.348 11.1652V15.0544C184.348 15.0691 184.343 15.0836 184.334 15.0971C184.326 15.1107 184.313 15.123 184.296 15.1333C184.28 15.1436 184.261 15.1518 184.24 15.1574C184.219 15.1629 184.196 15.1657 184.173 15.1656ZM185.161 17.114H184.348V16.6123H185.161V17.114ZM185.161 10.4258H184.348V10.0232H185.161V10.4258ZM185.335 15.1656C185.289 15.1656 185.245 15.1539 185.212 15.1331C185.18 15.1122 185.161 15.0839 185.161 15.0544V11.1652C185.165 11.1371 185.184 11.1108 185.217 11.0916C185.249 11.0724 185.292 11.0617 185.336 11.0617C185.38 11.0617 185.422 11.0724 185.455 11.0916C185.487 11.1108 185.507 11.1371 185.51 11.1652V15.0544C185.51 15.0691 185.506 15.0836 185.497 15.0971C185.488 15.1107 185.475 15.123 185.459 15.1333C185.443 15.1436 185.423 15.1518 185.402 15.1574C185.381 15.1629 185.358 15.1657 185.335 15.1656ZM186.324 17.114H185.509V16.6123H186.323L186.324 17.114ZM186.324 10.4258H185.509V10.0232H186.323L186.324 10.4258ZM186.497 15.1656C186.451 15.1656 186.407 15.1539 186.374 15.1331C186.342 15.1122 186.324 15.0839 186.324 15.0544V11.1652C186.327 11.1371 186.347 11.1108 186.379 11.0916C186.411 11.0724 186.454 11.0617 186.498 11.0617C186.542 11.0617 186.585 11.0724 186.617 11.0916C186.649 11.1108 186.669 11.1371 186.672 11.1652V15.0544C186.672 15.0691 186.668 15.0836 186.659 15.0971C186.65 15.1107 186.637 15.123 186.621 15.1333C186.605 15.1436 186.586 15.1518 186.564 15.1574C186.543 15.1629 186.52 15.1657 186.497 15.1656ZM187.486 17.114H186.672V16.6123H187.486V17.114ZM187.486 10.4258H186.672V10.0232H187.486V10.4258ZM187.66 15.1656C187.614 15.1656 187.569 15.1539 187.537 15.1331C187.504 15.1122 187.486 15.0839 187.486 15.0544V11.1652C187.486 11.1357 187.504 11.1074 187.537 11.0866C187.569 11.0657 187.614 11.054 187.66 11.054C187.706 11.054 187.75 11.0657 187.783 11.0866C187.815 11.1074 187.834 11.1357 187.834 11.1652V15.0544C187.834 15.0839 187.815 15.1122 187.783 15.1331C187.75 15.1539 187.706 15.1656 187.66 15.1656ZM188.648 17.114H187.835V16.6123H188.648V17.114ZM188.648 10.4258H187.835V10.0232H188.648V10.4258ZM188.823 15.1656C188.8 15.1657 188.777 15.1629 188.756 15.1574C188.735 15.1518 188.716 15.1436 188.699 15.1333C188.683 15.123 188.67 15.1107 188.661 15.0971C188.653 15.0836 188.648 15.0691 188.648 15.0544V11.1652C188.651 11.1371 188.671 11.1108 188.704 11.0916C188.736 11.0724 188.778 11.0617 188.823 11.0617C188.867 11.0617 188.909 11.0724 188.942 11.0916C188.974 11.1108 188.994 11.1371 188.997 11.1652V15.0544C188.997 15.0691 188.992 15.0836 188.984 15.0971C188.975 15.1107 188.962 15.123 188.946 15.1333C188.929 15.1436 188.91 15.1518 188.889 15.1574C188.868 15.1629 188.845 15.1657 188.822 15.1656H188.823ZM189.811 17.114H188.998V16.6123H189.811V17.114ZM189.811 10.4258H188.998V10.0232H189.811V10.4258ZM189.986 15.1656C189.963 15.1657 189.941 15.1629 189.92 15.1574C189.898 15.1518 189.879 15.1436 189.863 15.1333C189.846 15.123 189.834 15.1107 189.825 15.0971C189.816 15.0836 189.811 15.0691 189.811 15.0544V11.1652C189.815 11.1371 189.835 11.1108 189.867 11.0916C189.899 11.0724 189.942 11.0617 189.986 11.0617C190.03 11.0617 190.072 11.0724 190.105 11.0916C190.137 11.1108 190.157 11.1371 190.16 11.1652V15.0544C190.16 15.0691 190.156 15.0837 190.147 15.0973C190.138 15.1109 190.125 15.1232 190.109 15.1335C190.092 15.1439 190.073 15.152 190.052 15.1575C190.03 15.1631 190.007 15.1658 189.984 15.1656H189.986ZM190.975 17.114H190.154V16.6123H190.968L190.975 17.114ZM190.975 10.4258H190.154V10.0232H190.968L190.975 10.4258ZM191.15 15.1656C191.127 15.1657 191.104 15.1629 191.083 15.1574C191.062 15.1518 191.042 15.1436 191.026 15.1333C191.01 15.123 190.997 15.1107 190.988 15.0971C190.979 15.0836 190.975 15.0691 190.975 15.0544V11.1652C190.978 11.1371 190.998 11.1108 191.03 11.0916C191.063 11.0724 191.105 11.0617 191.149 11.0617C191.193 11.0617 191.236 11.0724 191.268 11.0916C191.3 11.1108 191.32 11.1371 191.324 11.1652V15.0544C191.324 15.0694 191.319 15.0842 191.31 15.098C191.301 15.1118 191.287 15.1243 191.27 15.1347C191.253 15.1451 191.233 15.1532 191.211 15.1585C191.19 15.1638 191.166 15.1662 191.143 15.1656H191.15ZM192.138 17.114H191.325V16.6123H192.131L192.138 17.114ZM192.138 10.4258H191.325V10.0232H192.131L192.138 10.4258ZM192.312 15.1656C192.266 15.1656 192.222 15.1539 192.189 15.1331C192.156 15.1122 192.138 15.0839 192.138 15.0544V11.739C192.136 11.7237 192.139 11.7083 192.147 11.6937C192.155 11.6792 192.168 11.6659 192.184 11.6546C192.201 11.6433 192.22 11.6343 192.243 11.6281C192.265 11.622 192.288 11.6188 192.312 11.6188C192.337 11.6188 192.36 11.622 192.382 11.6281C192.405 11.6343 192.424 11.6433 192.441 11.6546C192.457 11.6659 192.47 11.6792 192.478 11.6937C192.486 11.7083 192.489 11.7237 192.487 11.739V15.0544C192.487 15.0693 192.482 15.084 192.473 15.0977C192.464 15.1114 192.451 15.1238 192.434 15.1342C192.418 15.1446 192.398 15.1527 192.376 15.1581C192.354 15.1635 192.331 15.1661 192.308 15.1656H192.312ZM193.436 17.114H192.487V16.6123H193.436V17.114ZM193.649 15.0544C193.646 15.0826 193.626 15.1088 193.594 15.128C193.561 15.1472 193.519 15.1579 193.475 15.1579C193.431 15.1579 193.388 15.1472 193.356 15.128C193.323 15.1088 193.304 15.0826 193.3 15.0544V12.4323C193.304 12.4042 193.323 12.3779 193.356 12.3587C193.388 12.3395 193.431 12.3289 193.475 12.3289C193.519 12.3289 193.561 12.3395 193.594 12.3587C193.626 12.3779 193.646 12.4042 193.649 12.4323V15.0544Z"/>
</mask>
<path d="M199.205 13.7386C199.22 13.7366 199.234 13.7338 199.248 13.7304C202.951 13.5294 204.949 12.5492 205.037 12.5056L204.465 12.0373C204.314 12.1059 204.157 12.1691 203.995 12.2269V12.0512C203.99 11.9748 203.938 11.9026 203.852 11.8497C203.765 11.7968 203.65 11.7673 203.53 11.7673C203.411 11.7673 203.295 11.7968 203.209 11.8497C203.122 11.9026 203.071 11.9748 203.065 12.0512V12.5246C202.887 12.5739 202.694 12.6245 202.484 12.6737V12.3767C202.487 12.3365 202.477 12.2964 202.455 12.2587C202.433 12.221 202.399 12.1865 202.356 12.1574C202.312 12.1283 202.26 12.1052 202.202 12.0893C202.144 12.0735 202.082 12.0653 202.019 12.0653C201.956 12.0653 201.894 12.0735 201.836 12.0893C201.778 12.1052 201.726 12.1283 201.682 12.1574C201.639 12.1865 201.605 12.221 201.583 12.2587C201.561 12.2964 201.551 12.3365 201.554 12.3767V12.8646C201.391 12.8937 201.222 12.9213 201.046 12.9474V12.6245C201.041 12.548 200.989 12.4758 200.903 12.4229C200.816 12.37 200.701 12.3405 200.581 12.3405C200.461 12.3405 200.346 12.37 200.26 12.4229C200.173 12.4758 200.122 12.548 200.116 12.6245V13.0624C199.943 13.0795 199.766 13.0953 199.583 13.1092V12.7761C199.583 12.6974 199.534 12.6218 199.447 12.5661C199.36 12.5104 199.242 12.4791 199.119 12.4791C198.996 12.4791 198.877 12.5104 198.79 12.5661C198.703 12.6218 198.654 12.6974 198.654 12.7761V13.1553H198.57C195.677 13.2356 193.907 11.6632 193.292 11.0015C193.238 10.9225 193.185 10.8416 193.133 10.7582H193.539V10.4176H192.483V10.015H193.539V9.67437H188.25V8.82182H187.723C188.292 8.66037 188.844 8.47544 189.376 8.26821L191.494 7.44031V6.57323C191.494 6.57323 189.031 7.23555 186.316 7.0864C186.33 7.08476 186.345 7.08222 186.359 7.07882C190.061 6.87785 192.06 5.89765 192.148 5.85404L191.576 5.38511C191.425 5.45535 191.268 5.51992 191.106 5.5785V5.4047C191.101 5.32821 191.049 5.25602 190.963 5.20314C190.876 5.15026 190.761 5.12075 190.641 5.12075C190.521 5.12075 190.406 5.15026 190.32 5.20314C190.233 5.25602 190.182 5.32821 190.176 5.4047V5.87806C189.998 5.92735 189.805 5.97791 189.595 6.0272V5.73017C189.598 5.68997 189.588 5.64981 189.566 5.61212C189.544 5.57443 189.51 5.53999 189.467 5.51089C189.423 5.48178 189.371 5.45861 189.313 5.44278C189.255 5.42696 189.193 5.4188 189.13 5.4188C189.067 5.4188 189.005 5.42696 188.947 5.44278C188.889 5.45861 188.837 5.48178 188.793 5.51089C188.75 5.53999 188.716 5.57443 188.694 5.61212C188.672 5.64981 188.662 5.68997 188.665 5.73017V6.21806C188.502 6.24713 188.332 6.27473 188.157 6.30085V5.97348C188.16 5.93328 188.15 5.89312 188.128 5.85543C188.106 5.81774 188.072 5.7833 188.029 5.7542C187.985 5.72509 187.933 5.70193 187.875 5.6861C187.817 5.67027 187.755 5.66211 187.692 5.66211C187.629 5.66211 187.567 5.67027 187.509 5.6861C187.451 5.70193 187.399 5.72509 187.355 5.7542C187.312 5.7833 187.278 5.81774 187.256 5.85543C187.234 5.89312 187.224 5.93328 187.227 5.97348V6.41587C187.054 6.43357 186.877 6.44937 186.694 6.46327V6.13021C186.694 6.05144 186.645 5.97589 186.558 5.92018C186.471 5.86448 186.353 5.83319 186.23 5.83319C186.106 5.83319 185.988 5.86448 185.901 5.92018C185.814 5.97589 185.765 6.05144 185.765 6.13021V6.5094H185.681C182.791 6.58903 181.022 5.02172 180.405 4.36067C180.35 4.28041 180.296 4.19888 180.244 4.11483H180.649V3.77419H179.594V3.37162H180.649V3.03098H178.486V2.48937H176.246V1.36002H175.202V0.345063H172.569V1.57869H174.377V0.777968H173.243V1.00106H174.028V1.3556H172.916V0.567521H174.854V1.75249H172.231V0.345063H169.418V1.07437H169.211V0.222459H172.222V0H165.762V0.222459H168.863V1.07247H168.556V0.345063H165.742V1.75249H163.119V0.567521H165.056V1.3556H163.945V1.00106H164.73V0.777968H163.597V1.57869H165.406V0.345063H162.777V1.36002H161.728V2.48748H159.488V3.02908H157.348V3.36972H158.329V3.77229H157.352V4.11293H157.757C157.705 4.19699 157.651 4.27914 157.596 4.35877C156.979 5.02235 155.21 6.5903 152.319 6.50751H152.236V6.12832C152.236 6.04954 152.187 5.97399 152.1 5.91829C152.013 5.86258 151.895 5.83129 151.771 5.83129C151.648 5.83129 151.53 5.86258 151.443 5.91829C151.356 5.97399 151.307 6.04954 151.307 6.12832V6.46137C151.124 6.44747 150.947 6.43167 150.774 6.41397V5.97348C150.777 5.93328 150.767 5.89312 150.745 5.85543C150.723 5.81774 150.689 5.7833 150.646 5.7542C150.602 5.72509 150.55 5.70193 150.492 5.6861C150.434 5.67027 150.372 5.66211 150.309 5.66211C150.246 5.66211 150.184 5.67027 150.126 5.6861C150.068 5.70193 150.016 5.72509 149.973 5.7542C149.929 5.7833 149.895 5.81774 149.873 5.85543C149.851 5.89312 149.841 5.93328 149.844 5.97348V6.29643C149.668 6.27073 149.499 6.24313 149.335 6.21364V5.72575C149.335 5.64697 149.286 5.57142 149.199 5.51572C149.112 5.46001 148.994 5.42872 148.871 5.42872C148.747 5.42872 148.629 5.46001 148.542 5.51572C148.455 5.57142 148.406 5.64697 148.406 5.72575V6.02278C148.196 5.97349 148.002 5.92292 147.825 5.87363V5.4047C147.819 5.32821 147.768 5.25602 147.681 5.20314C147.595 5.15026 147.48 5.12075 147.36 5.12075C147.24 5.12075 147.125 5.15026 147.038 5.20314C146.952 5.25602 146.9 5.32821 146.895 5.4047V5.58039C146.733 5.52272 146.577 5.45943 146.426 5.3908L145.853 5.8591C145.94 5.9027 147.939 6.88291 151.642 7.08388C151.656 7.08728 151.671 7.08982 151.685 7.09146C148.97 7.24061 146.507 6.57829 146.507 6.57829V7.44537L148.626 8.27326C149.157 8.4805 149.709 8.66543 150.278 8.82688H149.829V9.68764H144.542V10.0283H145.596V10.4308H144.537V10.7715H144.941C144.89 10.8549 144.836 10.9358 144.782 11.0148C144.167 11.6765 142.397 13.2488 139.504 13.1686H139.421V12.7894C139.415 12.7129 139.364 12.6407 139.277 12.5878C139.191 12.535 139.076 12.5054 138.956 12.5054C138.836 12.5054 138.721 12.535 138.634 12.5878C138.548 12.6407 138.496 12.7129 138.491 12.7894V13.1149C138.308 13.101 138.131 13.0852 137.958 13.0681V12.6301C137.953 12.5536 137.901 12.4815 137.815 12.4286C137.728 12.3757 137.613 12.3462 137.493 12.3462C137.373 12.3462 137.258 12.3757 137.172 12.4286C137.085 12.4815 137.034 12.5536 137.028 12.6301V12.9531C136.852 12.9274 136.683 12.8998 136.52 12.8703V12.3824C136.523 12.3422 136.513 12.302 136.491 12.2644C136.469 12.2267 136.435 12.1922 136.392 12.1631C136.348 12.134 136.296 12.1108 136.238 12.095C136.18 12.0792 136.118 12.071 136.055 12.071C135.992 12.071 135.93 12.0792 135.872 12.095C135.814 12.1108 135.762 12.134 135.718 12.1631C135.675 12.1922 135.641 12.2267 135.619 12.2644C135.597 12.302 135.587 12.3422 135.59 12.3824V12.6794C135.381 12.6301 135.187 12.5796 135.009 12.5303V12.0569C135.009 11.9782 134.96 11.9026 134.873 11.8469C134.786 11.7912 134.668 11.7599 134.544 11.7599C134.421 11.7599 134.303 11.7912 134.216 11.8469C134.129 11.9026 134.08 11.9782 134.08 12.0569V12.2301C133.918 12.1722 133.761 12.1089 133.609 12.0405L133.037 12.5088C133.125 12.5524 135.124 13.5326 138.826 13.7336C138.84 13.7369 138.855 13.7396 138.869 13.7418C136.154 13.8903 133.692 13.228 133.692 13.228V14.0951L135.809 14.923C138.073 15.807 140.674 16.2747 143.326 16.2748H141.291V16.6148H142.202V26.6304H141.853V27.2712H141.35V28.7444H145.493V27.2712H144.991V26.626H144.642V17.4547H155.013V26.6816H154.664V27.3269H154.162V28.7994H158.306V27.3269H157.802V26.6816H157.455V15.1164H157.871V15.5796H160.059V13.8935H161.591V14.5558H160.709V14.303H160.98V14.4022H161.329V14.0805H160.36V14.7801H161.942V14.3377H176.062V14.7801H177.644V14.0793H176.675V14.4009H177.023V14.3017H177.295V14.5545H176.413V13.8935H177.943V15.5796H180.132V15.117H180.549V26.6822H180.2V27.3275H179.698V28.8H183.841V27.3275H183.335V26.6822H182.986V17.4553H193.435V26.6285H193.086V27.2712H192.584V28.7444H196.727V27.2712H196.224V26.626H195.876V16.6123H196.786V16.2748H194.751C197.402 16.274 200.001 15.806 202.263 14.9223L204.381 14.0944V13.2248C204.381 13.2248 201.916 13.8871 199.205 13.7386ZM178.647 12.7692V12.2111H179.45V12.4007H179.228V12.3091H178.879V12.6251H179.799V12.4702H180.545V12.7717L178.647 12.7692ZM157.457 12.7692V12.4677H158.247V12.6226H159.166V12.3066H158.823V12.3982H158.601V12.2086H159.406V12.7666L157.457 12.7692ZM154.887 10.0232V10.4258H154.079V10.0232H154.887ZM160.648 3.37162V3.77419H159.834V3.37162H160.648ZM178.431 10.4605V9.95876H179.245V10.4605H178.431ZM179.797 11.5602V11.3276H180.543V12.2427H179.797V11.9868H179.216V11.5602H179.797ZM178.867 11.9868H178.294V12.2427H177.509V11.3295H178.294V11.5621H178.865L178.867 11.9868ZM159.178 11.9868V11.5602H159.75V11.3276H160.486V12.2427H159.75V11.9868H159.178ZM158.249 11.9868V12.2427H157.458V11.3295H158.249V11.5621H158.83V11.9887L158.249 11.9868ZM177.269 10.4605V9.95876H178.083V10.4605H177.269ZM176.92 10.4605H176.107V9.95876H176.92V10.4605ZM175.758 10.4605H174.945V9.95876H175.758V10.4605ZM174.597 10.4605H173.782V9.95876H174.597V10.4605ZM173.434 10.4605H172.621V9.95876H173.434V10.4605ZM172.272 10.4605H171.459V9.95876H172.272V10.4605ZM171.11 10.4605H170.296V9.95876H171.11V10.4605ZM169.947 10.4605H169.134V9.95876H169.947V10.4605ZM168.785 10.4605H167.972V9.95876H168.785V10.4605ZM167.62 10.4605H166.806V9.95876H167.62V10.4605ZM166.457 10.4605H165.643V9.95876H166.457L166.457 10.4605ZM165.296 10.4605H164.483V9.95876H165.296V10.4605ZM164.134 10.4605H163.32V9.95876H164.134V10.4605ZM162.975 10.4605H162.161V9.95876H162.975V10.4605ZM161.812 10.4605H160.998V9.95876H161.811L161.812 10.4605ZM160.65 10.4605H159.836V9.95876H160.65V10.4605ZM159.488 10.4605H158.674V9.95876H159.488V10.4605ZM158.329 10.4605H157.458V9.95876H158.329V10.4605ZM159.406 10.8012V11.3377H158.601V11.1481H158.823V11.2398H159.172V10.9238H158.253V11.102H157.462V10.7987L159.406 10.8012ZM160.493 11.1045H159.756V10.8012H160.493V11.1045ZM178.303 11.1045H177.518V10.8012H178.294L178.303 11.1045ZM167.972 4.51361V8.40282C167.968 8.43095 167.949 8.45725 167.916 8.47643C167.884 8.49562 167.841 8.50628 167.797 8.50628C167.753 8.50628 167.711 8.49562 167.678 8.47643C167.646 8.45725 167.626 8.43095 167.623 8.40282V4.51361C167.626 4.48548 167.646 4.45918 167.678 4.44C167.711 4.42081 167.753 4.41015 167.797 4.41015C167.841 4.41015 167.884 4.42081 167.916 4.44C167.949 4.45918 167.968 4.48548 167.972 4.51361ZM166.809 4.51361V8.40282C166.806 8.43095 166.786 8.45725 166.754 8.47643C166.722 8.49562 166.679 8.50628 166.635 8.50628C166.591 8.50628 166.548 8.49562 166.516 8.47643C166.484 8.45725 166.464 8.43095 166.46 8.40282V4.51361C166.464 4.48548 166.484 4.45918 166.516 4.44C166.548 4.42081 166.591 4.41015 166.635 4.41015C166.679 4.41015 166.722 4.42081 166.754 4.44C166.786 4.45918 166.806 4.48548 166.809 4.51361ZM165.647 4.51361V8.40282C165.647 8.43232 165.629 8.46061 165.596 8.48147C165.563 8.50233 165.519 8.51405 165.473 8.51405C165.427 8.51405 165.383 8.50233 165.35 8.48147C165.317 8.46061 165.299 8.43232 165.299 8.40282V4.51361C165.299 4.48411 165.317 4.45582 165.35 4.43496C165.383 4.4141 165.427 4.40238 165.473 4.40238C165.519 4.40238 165.563 4.4141 165.596 4.43496C165.629 4.45582 165.647 4.48411 165.647 4.51361ZM164.486 4.51361V8.40282C164.482 8.43095 164.463 8.45725 164.43 8.47643C164.398 8.49562 164.355 8.50628 164.311 8.50628C164.267 8.50628 164.225 8.49562 164.192 8.47643C164.16 8.45725 164.14 8.43095 164.137 8.40282V4.51361C164.14 4.48548 164.16 4.45918 164.192 4.44C164.225 4.42081 164.267 4.41015 164.311 4.41015C164.355 4.41015 164.398 4.42081 164.43 4.44C164.463 4.45918 164.482 4.48548 164.486 4.51361ZM163.323 4.51361V8.40282C163.32 8.43095 163.3 8.45725 163.268 8.47643C163.236 8.49562 163.193 8.50628 163.149 8.50628C163.105 8.50628 163.062 8.49562 163.03 8.47643C162.998 8.45725 162.978 8.43095 162.975 8.40282V4.51361C162.978 4.48548 162.998 4.45918 163.03 4.44C163.062 4.42081 163.105 4.41015 163.149 4.41015C163.193 4.41015 163.236 4.42081 163.268 4.44C163.3 4.45918 163.32 4.48548 163.323 4.51361ZM162.161 4.51361V8.40282C162.158 8.43095 162.138 8.45725 162.106 8.47643C162.073 8.49562 162.031 8.50628 161.987 8.50628C161.943 8.50628 161.9 8.49562 161.868 8.47643C161.835 8.45725 161.816 8.43095 161.812 8.40282V4.51361C161.816 4.48548 161.835 4.45918 161.868 4.44C161.9 4.42081 161.943 4.41015 161.987 4.41015C162.031 4.41015 162.073 4.42081 162.106 4.44C162.138 4.45918 162.158 4.48548 162.161 4.51361ZM160.999 4.51361V8.40282C160.995 8.43095 160.976 8.45725 160.943 8.47643C160.911 8.49562 160.868 8.50628 160.824 8.50628C160.78 8.50628 160.738 8.49562 160.705 8.47643C160.673 8.45725 160.653 8.43095 160.65 8.40282V4.51361C160.653 4.48548 160.673 4.45918 160.705 4.44C160.738 4.42081 160.78 4.41015 160.824 4.41015C160.868 4.41015 160.911 4.42081 160.943 4.44C160.976 4.45918 160.995 4.48548 160.999 4.51361ZM159.836 4.51361V8.40282C159.833 8.43095 159.813 8.45725 159.781 8.47643C159.749 8.49562 159.706 8.50628 159.662 8.50628C159.618 8.50628 159.575 8.49562 159.543 8.47643C159.511 8.45725 159.491 8.43095 159.488 8.40282V4.51361C159.491 4.48548 159.511 4.45918 159.543 4.44C159.575 4.42081 159.618 4.41015 159.662 4.41015C159.706 4.41015 159.749 4.42081 159.781 4.44C159.813 4.45918 159.833 4.48548 159.836 4.51361ZM179.419 4.97559C179.465 4.97559 179.51 4.98737 179.543 5.00835C179.575 5.02933 179.594 5.05778 179.594 5.08745V8.40282C179.59 8.43095 179.571 8.45725 179.538 8.47643C179.506 8.49562 179.463 8.50628 179.419 8.50628C179.375 8.50628 179.333 8.49562 179.3 8.47643C179.268 8.45725 179.248 8.43095 179.245 8.40282V5.08871C179.244 5.07395 179.249 5.05928 179.257 5.04556C179.266 5.03185 179.279 5.01936 179.295 5.00883C179.311 4.9983 179.33 4.98994 179.352 4.98423C179.373 4.97852 179.396 4.97559 179.419 4.97559ZM178.43 4.51361V8.40282C178.427 8.43095 178.407 8.45725 178.375 8.47643C178.343 8.49562 178.3 8.50628 178.256 8.50628C178.212 8.50628 178.169 8.49562 178.137 8.47643C178.105 8.45725 178.085 8.43095 178.082 8.40282V4.51361C178.085 4.48548 178.105 4.45918 178.137 4.44C178.169 4.42081 178.212 4.41015 178.256 4.41015C178.3 4.41015 178.343 4.42081 178.375 4.44C178.407 4.45918 178.427 4.48548 178.43 4.51361ZM177.268 4.51361V8.40282C177.265 8.43095 177.245 8.45725 177.213 8.47643C177.18 8.49562 177.138 8.50628 177.094 8.50628C177.05 8.50628 177.007 8.49562 176.975 8.47643C176.942 8.45725 176.923 8.43095 176.919 8.40282V4.51361C176.923 4.48548 176.942 4.45918 176.975 4.44C177.007 4.42081 177.05 4.41015 177.094 4.41015C177.138 4.41015 177.18 4.42081 177.213 4.44C177.245 4.45918 177.265 4.48548 177.268 4.51361ZM176.106 4.51361V8.40282C176.103 8.43095 176.083 8.45725 176.05 8.47643C176.018 8.49562 175.976 8.50628 175.931 8.50628C175.887 8.50628 175.845 8.49562 175.812 8.47643C175.78 8.45725 175.76 8.43095 175.757 8.40282V4.51361C175.76 4.48548 175.78 4.45918 175.812 4.44C175.845 4.42081 175.887 4.41015 175.931 4.41015C175.976 4.41015 176.018 4.42081 176.05 4.44C176.083 4.45918 176.103 4.48548 176.106 4.51361ZM174.944 4.51361V8.40282C174.944 8.43232 174.925 8.46061 174.893 8.48147C174.86 8.50233 174.816 8.51405 174.77 8.51405C174.723 8.51405 174.679 8.50233 174.647 8.48147C174.614 8.46061 174.596 8.43232 174.596 8.40282V4.51361C174.596 4.48411 174.614 4.45582 174.647 4.43496C174.679 4.4141 174.723 4.40238 174.77 4.40238C174.816 4.40238 174.86 4.4141 174.893 4.43496C174.925 4.45582 174.944 4.48411 174.944 4.51361ZM173.781 4.51361V8.40282C173.781 8.43232 173.763 8.46061 173.73 8.48147C173.698 8.50233 173.653 8.51405 173.607 8.51405C173.561 8.51405 173.517 8.50233 173.484 8.48147C173.452 8.46061 173.433 8.43232 173.433 8.40282V4.51361C173.433 4.48411 173.452 4.45582 173.484 4.43496C173.517 4.4141 173.561 4.40238 173.607 4.40238C173.653 4.40238 173.698 4.4141 173.73 4.43496C173.763 4.45582 173.781 4.48411 173.781 4.51361ZM172.62 4.51361V8.40282C172.617 8.43095 172.597 8.45725 172.564 8.47643C172.532 8.49562 172.49 8.50628 172.445 8.50628C172.401 8.50628 172.359 8.49562 172.327 8.47643C172.294 8.45725 172.274 8.43095 172.271 8.40282V4.51361C172.274 4.48548 172.294 4.45918 172.327 4.44C172.359 4.42081 172.401 4.41015 172.445 4.41015C172.49 4.41015 172.532 4.42081 172.564 4.44C172.597 4.45918 172.617 4.48548 172.62 4.51361ZM171.458 4.51361V8.40282C171.454 8.43095 171.434 8.45725 171.402 8.47643C171.37 8.49562 171.327 8.50628 171.283 8.50628C171.239 8.50628 171.197 8.49562 171.164 8.47643C171.132 8.45725 171.112 8.43095 171.109 8.40282V4.51361C171.112 4.48548 171.132 4.45918 171.164 4.44C171.197 4.42081 171.239 4.41015 171.283 4.41015C171.327 4.41015 171.37 4.42081 171.402 4.44C171.434 4.45918 171.454 4.48548 171.458 4.51361ZM170.295 4.51361V8.40282C170.292 8.43095 170.272 8.45725 170.24 8.47643C170.207 8.49562 170.165 8.50628 170.121 8.50628C170.077 8.50628 170.034 8.49562 170.002 8.47643C169.97 8.45725 169.95 8.43095 169.946 8.40282V4.51361C169.95 4.48548 169.97 4.45918 170.002 4.44C170.034 4.42081 170.077 4.41015 170.121 4.41015C170.165 4.41015 170.207 4.42081 170.24 4.44C170.272 4.45918 170.292 4.48548 170.295 4.51361ZM168.784 4.51361C168.787 4.48548 168.807 4.45918 168.84 4.44C168.872 4.42081 168.914 4.41015 168.959 4.41015C169.003 4.41015 169.045 4.42081 169.078 4.44C169.11 4.45918 169.13 4.48548 169.133 4.51361V8.40282C169.13 8.43095 169.11 8.45725 169.078 8.47643C169.045 8.49562 169.003 8.50628 168.959 8.50628C168.914 8.50628 168.872 8.49562 168.84 8.47643C168.807 8.45725 168.787 8.43095 168.784 8.40282V4.51361ZM180.406 8.40282V5.78389C180.41 5.75576 180.429 5.72946 180.462 5.71028C180.494 5.69109 180.537 5.68043 180.581 5.68043C180.625 5.68043 180.667 5.69109 180.7 5.71028C180.732 5.72946 180.752 5.75576 180.755 5.78389V8.40598C180.752 8.43411 180.732 8.46041 180.7 8.47959C180.667 8.49878 180.625 8.50944 180.581 8.50944C180.537 8.50944 180.494 8.49878 180.462 8.47959C180.429 8.46041 180.41 8.43411 180.406 8.40598V8.40282ZM164.136 3.37162V3.77419H163.322V3.37162H164.136ZM164.485 3.37162H165.298V3.77419H164.485V3.37162ZM165.646 3.37162H166.459V3.77419H165.643L165.646 3.37162ZM166.808 3.37162H167.62V3.77419H166.806L166.808 3.37162ZM167.971 3.37162H168.784V3.77419H167.971V3.37162ZM173.781 3.77419V3.37162H174.596V3.77419H173.781ZM173.433 3.77419H172.62V3.37162H173.433V3.77419ZM172.271 3.77419H171.458V3.37162H172.271V3.77419ZM171.109 3.77419H170.295V3.37162H171.109V3.77419ZM169.946 3.77419H169.133V3.37162H169.946V3.77419ZM177.268 3.77419V3.37162H178.082V3.77419H177.268ZM176.919 3.77419H176.106V3.37162H176.919V3.77419ZM175.757 3.77419H174.944V3.37162H175.757V3.77419ZM162.974 3.77419H162.16V3.37162H162.975L162.974 3.77419ZM161.811 3.77419H160.998V3.37162H161.811V3.77419ZM158.674 5.08871V8.40408C158.671 8.43222 158.651 8.45851 158.619 8.47769C158.586 8.49688 158.544 8.50754 158.5 8.50754C158.456 8.50754 158.413 8.49688 158.381 8.47769C158.348 8.45851 158.329 8.43222 158.325 8.40408V5.08871C158.323 5.07336 158.327 5.05793 158.335 5.0434C158.343 5.02886 158.355 5.01553 158.371 5.00424C158.388 4.99295 158.408 4.98395 158.43 4.97779C158.452 4.97163 158.476 4.96845 158.5 4.96845C158.524 4.96845 158.548 4.97163 158.57 4.97779C158.592 4.98395 158.612 4.99295 158.628 5.00424C158.644 5.01553 158.657 5.02886 158.665 5.0434C158.673 5.05793 158.676 5.07336 158.674 5.08871ZM157.512 5.78389V8.40598C157.512 8.43548 157.494 8.46377 157.461 8.48463C157.428 8.50549 157.384 8.51721 157.338 8.51721C157.292 8.51721 157.248 8.50549 157.215 8.48463C157.182 8.46377 157.164 8.43548 157.164 8.40598V5.78389C157.164 5.75439 157.182 5.7261 157.215 5.70524C157.248 5.68438 157.292 5.67266 157.338 5.67266C157.384 5.67266 157.428 5.68438 157.461 5.70524C157.494 5.7261 157.512 5.75439 157.512 5.78389ZM159.75 12.4709H160.486V12.7723H159.75V12.4709ZM177.511 12.4709H178.294V12.7723H177.509L177.511 12.4709ZM180.543 11.1096H179.797V10.9282H178.877V11.2442H179.226V11.1526H179.448V11.3422H178.645V10.8056H180.543V11.1096ZM180.543 10.4656H179.594V9.96381H180.543V10.4656ZM179.245 3.77419H178.431V3.37162H179.245V3.77419ZM175.202 1.97557V1.58438H175.894V2.71246H178.135V3.02846H175.358V2.17022H173.795V1.97557H175.202ZM169.418 1.29683V1.97494H171.309V0.765961H169.971V1.40679H170.32V0.989052H170.961V1.75249H169.767V0.567521H171.883V1.97557H173.451V2.17022H169.211V1.29683H169.418ZM166.091 1.97494V0.567521H168.213V1.75249H167.018V0.989052H167.659V1.40679H168.007V0.765961H166.669V1.97557H168.561V1.29683H168.868V2.16959H164.53V1.97494H166.091ZM159.836 2.71246H162.077V1.58438H162.769V1.97557H164.173V2.17022H162.711V3.03098H159.836V2.71246ZM158.674 3.37162H159.488V3.77419H158.674V3.37162ZM153.726 10.0232V10.4258H152.913V10.0232H153.726ZM152.564 10.0232V10.4258H151.751V10.0232H152.564ZM151.403 10.0232V10.4258H150.589V10.0232H151.403ZM149.426 10.0232H150.24V10.4258H149.426V10.0232ZM148.264 10.0232H149.077V10.4258H148.264V10.0232ZM147.101 10.0232H147.915V10.4258H147.101V10.0232ZM145.939 10.0232H146.753V10.4258H145.939V10.0232ZM144.603 15.1656C144.58 15.1657 144.557 15.1629 144.536 15.1574C144.515 15.1518 144.496 15.1436 144.479 15.1333C144.463 15.123 144.45 15.1107 144.441 15.0971C144.432 15.0836 144.428 15.0691 144.428 15.0544V12.4323C144.431 12.4042 144.451 12.3779 144.483 12.3587C144.516 12.3395 144.558 12.3289 144.602 12.3289C144.647 12.3289 144.689 12.3395 144.721 12.3587C144.754 12.3779 144.774 12.4042 144.777 12.4323V15.0544C144.777 15.0838 144.759 15.112 144.726 15.1328C144.694 15.1537 144.65 15.1655 144.604 15.1656H144.603ZM145.591 17.114H144.642V16.6123H145.591V17.114ZM145.94 15.0544C145.937 15.0826 145.917 15.1088 145.885 15.128C145.852 15.1472 145.81 15.1579 145.766 15.1579C145.722 15.1579 145.679 15.1472 145.647 15.128C145.614 15.1088 145.595 15.0826 145.591 15.0544V11.739C145.589 11.7237 145.593 11.7083 145.601 11.6937C145.609 11.6792 145.621 11.6659 145.637 11.6546C145.654 11.6433 145.674 11.6343 145.696 11.6281C145.718 11.622 145.742 11.6188 145.766 11.6188C145.79 11.6188 145.814 11.622 145.836 11.6281C145.858 11.6343 145.878 11.6433 145.894 11.6546C145.91 11.6659 145.923 11.6792 145.931 11.6937C145.939 11.7083 145.942 11.7237 145.94 11.739V15.0544ZM146.754 17.114H145.94V16.6123H146.754V17.114ZM147.102 15.0544C147.099 15.0826 147.079 15.1088 147.047 15.128C147.015 15.1472 146.972 15.1579 146.928 15.1579C146.884 15.1579 146.841 15.1472 146.809 15.128C146.777 15.1088 146.757 15.0826 146.754 15.0544V11.1652C146.757 11.1371 146.777 11.1108 146.809 11.0916C146.841 11.0724 146.884 11.0617 146.928 11.0617C146.972 11.0617 147.015 11.0724 147.047 11.0916C147.079 11.1108 147.099 11.1371 147.102 11.1652V15.0544ZM147.916 17.114H147.102V16.6123H147.916V17.114ZM148.265 15.0544C148.261 15.0826 148.242 15.1088 148.209 15.128C148.177 15.1472 148.134 15.1579 148.09 15.1579C148.046 15.1579 148.004 15.1472 147.971 15.128C147.939 15.1088 147.919 15.0826 147.916 15.0544V11.1652C147.919 11.1371 147.939 11.1108 147.971 11.0916C148.004 11.0724 148.046 11.0617 148.09 11.0617C148.134 11.0617 148.177 11.0724 148.209 11.0916C148.242 11.1108 148.261 11.1371 148.265 11.1652V15.0544ZM149.078 17.114H148.265V16.6123H149.078V17.114ZM149.427 15.0544C149.424 15.0826 149.404 15.1088 149.372 15.128C149.339 15.1472 149.297 15.1579 149.253 15.1579C149.209 15.1579 149.166 15.1472 149.134 15.128C149.101 15.1088 149.082 15.0826 149.078 15.0544V11.1652C149.082 11.1371 149.101 11.1108 149.134 11.0916C149.166 11.0724 149.209 11.0617 149.253 11.0617C149.297 11.0617 149.339 11.0724 149.372 11.0916C149.404 11.1108 149.424 11.1371 149.427 11.1652V15.0544ZM150.24 17.114H149.427V16.6123H150.24V17.114ZM150.589 15.0544C150.586 15.0826 150.566 15.1088 150.534 15.128C150.502 15.1472 150.459 15.1579 150.415 15.1579C150.371 15.1579 150.328 15.1472 150.296 15.128C150.264 15.1088 150.244 15.0826 150.24 15.0544V11.1652C150.244 11.1371 150.264 11.1108 150.296 11.0916C150.328 11.0724 150.371 11.0617 150.415 11.0617C150.459 11.0617 150.502 11.0724 150.534 11.0916C150.566 11.1108 150.586 11.1371 150.589 11.1652V15.0544ZM151.403 17.114H150.589V16.6123H151.403V17.114ZM151.751 15.0544C151.751 15.0839 151.732 15.1122 151.7 15.1331C151.667 15.1539 151.623 15.1656 151.577 15.1656C151.531 15.1656 151.486 15.1539 151.454 15.1331C151.421 15.1122 151.403 15.0839 151.403 15.0544V11.1652C151.403 11.1357 151.421 11.1074 151.454 11.0866C151.486 11.0657 151.531 11.054 151.577 11.054C151.623 11.054 151.667 11.0657 151.7 11.0866C151.732 11.1074 151.751 11.1357 151.751 11.1652V15.0544ZM152.564 17.114H151.751V16.6123H152.564V17.114ZM152.913 15.0544C152.91 15.0826 152.89 15.1088 152.858 15.128C152.825 15.1472 152.783 15.1579 152.739 15.1579C152.694 15.1579 152.652 15.1472 152.62 15.128C152.587 15.1088 152.567 15.0826 152.564 15.0544V11.1652C152.567 11.1371 152.587 11.1108 152.62 11.0916C152.652 11.0724 152.694 11.0617 152.739 11.0617C152.783 11.0617 152.825 11.0724 152.858 11.0916C152.89 11.1108 152.91 11.1371 152.913 11.1652V15.0544ZM153.726 17.114H152.913V16.6123H153.726V17.114ZM154.079 15.0544C154.076 15.0826 154.056 15.1088 154.024 15.128C153.991 15.1472 153.949 15.1579 153.905 15.1579C153.861 15.1579 153.818 15.1472 153.786 15.128C153.754 15.1088 153.734 15.0826 153.73 15.0544V11.1652C153.734 11.1371 153.754 11.1108 153.786 11.0916C153.818 11.0724 153.861 11.0617 153.905 11.0617C153.949 11.0617 153.991 11.0724 154.024 11.0916C154.056 11.1108 154.076 11.1371 154.079 11.1652V15.0544ZM154.893 17.114H154.079V16.6123H154.893V17.114ZM154.893 15.0544V11.1652C154.893 11.1413 154.905 11.1181 154.927 11.0989C154.95 11.0798 154.981 11.0658 155.017 11.059V15.1606C154.981 15.1543 154.948 15.1405 154.925 15.1213C154.902 15.1021 154.889 15.0786 154.889 15.0544H154.893ZM157.462 14.892V13.1098H158.55V14.4073H157.881V14.892H157.462ZM159.713 13.6704V15.3546H158.22V14.6316H159.197V14.9659H158.888V14.7928H158.539V15.189H159.546V14.4073H158.888V13.1098H160.486V13.4663H160.684V13.6704H159.713ZM161.94 13.8935H162.876V14.1121H161.936L161.94 13.8935ZM174.502 13.8935V14.1121H173.688V13.8935H174.502ZM173.339 14.1121H172.526V13.8935H173.339V14.1121ZM172.177 14.1121H171.364V13.8935H172.177V14.1121ZM171.015 14.1121H170.201V13.8935H171.015V14.1121ZM169.853 14.1121H169.039V13.8935H169.853V14.1121ZM168.69 14.1121H167.877V13.8935H168.69V14.1121ZM167.528 14.1121H166.714V13.8935H167.528V14.1121ZM166.367 14.1121H165.552V13.8935H166.367V14.1121ZM165.204 14.1121H164.391V13.8935H165.204V14.1121ZM164.042 14.1121H163.229V13.8935H164.042V14.1121ZM174.85 14.1121V13.8935H176.06V14.1121H174.85ZM176.233 13.6698H161.037V13.4656H176.96V13.6698H176.233ZM179.777 15.3546H178.285V13.6704H177.306V13.4663H177.509V13.1098H179.108V14.4073H178.449V15.1878H179.456V14.7915H179.108V14.9647H178.797V14.6316H179.776L179.777 15.3546ZM180.126 14.892V14.4073H179.457V13.1098H180.545V14.892H180.126ZM183.011 15.1656C183.001 15.1663 182.991 15.1663 182.982 15.1656V11.0578C182.991 11.0572 183.001 11.0572 183.011 11.0578C183.057 11.0578 183.101 11.0695 183.134 11.0904C183.166 11.1112 183.184 11.1395 183.184 11.169V15.0582C183.183 15.0869 183.164 15.1142 183.132 15.1342C183.1 15.1542 183.056 15.1655 183.012 15.1656H183.011ZM183.999 17.114H183.185V16.6123H183.999V17.114ZM183.999 10.4258H183.185V10.0232H183.999V10.4258ZM184.173 15.1656C184.127 15.1656 184.082 15.1539 184.05 15.1331C184.017 15.1122 183.999 15.0839 183.999 15.0544V11.1652C184.002 11.1371 184.022 11.1108 184.054 11.0916C184.087 11.0724 184.129 11.0617 184.173 11.0617C184.217 11.0617 184.26 11.0724 184.292 11.0916C184.325 11.1108 184.344 11.1371 184.348 11.1652V15.0544C184.348 15.0691 184.343 15.0836 184.334 15.0971C184.326 15.1107 184.313 15.123 184.296 15.1333C184.28 15.1436 184.261 15.1518 184.24 15.1574C184.219 15.1629 184.196 15.1657 184.173 15.1656ZM185.161 17.114H184.348V16.6123H185.161V17.114ZM185.161 10.4258H184.348V10.0232H185.161V10.4258ZM185.335 15.1656C185.289 15.1656 185.245 15.1539 185.212 15.1331C185.18 15.1122 185.161 15.0839 185.161 15.0544V11.1652C185.165 11.1371 185.184 11.1108 185.217 11.0916C185.249 11.0724 185.292 11.0617 185.336 11.0617C185.38 11.0617 185.422 11.0724 185.455 11.0916C185.487 11.1108 185.507 11.1371 185.51 11.1652V15.0544C185.51 15.0691 185.506 15.0836 185.497 15.0971C185.488 15.1107 185.475 15.123 185.459 15.1333C185.443 15.1436 185.423 15.1518 185.402 15.1574C185.381 15.1629 185.358 15.1657 185.335 15.1656ZM186.324 17.114H185.509V16.6123H186.323L186.324 17.114ZM186.324 10.4258H185.509V10.0232H186.323L186.324 10.4258ZM186.497 15.1656C186.451 15.1656 186.407 15.1539 186.374 15.1331C186.342 15.1122 186.324 15.0839 186.324 15.0544V11.1652C186.327 11.1371 186.347 11.1108 186.379 11.0916C186.411 11.0724 186.454 11.0617 186.498 11.0617C186.542 11.0617 186.585 11.0724 186.617 11.0916C186.649 11.1108 186.669 11.1371 186.672 11.1652V15.0544C186.672 15.0691 186.668 15.0836 186.659 15.0971C186.65 15.1107 186.637 15.123 186.621 15.1333C186.605 15.1436 186.586 15.1518 186.564 15.1574C186.543 15.1629 186.52 15.1657 186.497 15.1656ZM187.486 17.114H186.672V16.6123H187.486V17.114ZM187.486 10.4258H186.672V10.0232H187.486V10.4258ZM187.66 15.1656C187.614 15.1656 187.569 15.1539 187.537 15.1331C187.504 15.1122 187.486 15.0839 187.486 15.0544V11.1652C187.486 11.1357 187.504 11.1074 187.537 11.0866C187.569 11.0657 187.614 11.054 187.66 11.054C187.706 11.054 187.75 11.0657 187.783 11.0866C187.815 11.1074 187.834 11.1357 187.834 11.1652V15.0544C187.834 15.0839 187.815 15.1122 187.783 15.1331C187.75 15.1539 187.706 15.1656 187.66 15.1656ZM188.648 17.114H187.835V16.6123H188.648V17.114ZM188.648 10.4258H187.835V10.0232H188.648V10.4258ZM188.823 15.1656C188.8 15.1657 188.777 15.1629 188.756 15.1574C188.735 15.1518 188.716 15.1436 188.699 15.1333C188.683 15.123 188.67 15.1107 188.661 15.0971C188.653 15.0836 188.648 15.0691 188.648 15.0544V11.1652C188.651 11.1371 188.671 11.1108 188.704 11.0916C188.736 11.0724 188.778 11.0617 188.823 11.0617C188.867 11.0617 188.909 11.0724 188.942 11.0916C188.974 11.1108 188.994 11.1371 188.997 11.1652V15.0544C188.997 15.0691 188.992 15.0836 188.984 15.0971C188.975 15.1107 188.962 15.123 188.946 15.1333C188.929 15.1436 188.91 15.1518 188.889 15.1574C188.868 15.1629 188.845 15.1657 188.822 15.1656H188.823ZM189.811 17.114H188.998V16.6123H189.811V17.114ZM189.811 10.4258H188.998V10.0232H189.811V10.4258ZM189.986 15.1656C189.963 15.1657 189.941 15.1629 189.92 15.1574C189.898 15.1518 189.879 15.1436 189.863 15.1333C189.846 15.123 189.834 15.1107 189.825 15.0971C189.816 15.0836 189.811 15.0691 189.811 15.0544V11.1652C189.815 11.1371 189.835 11.1108 189.867 11.0916C189.899 11.0724 189.942 11.0617 189.986 11.0617C190.03 11.0617 190.072 11.0724 190.105 11.0916C190.137 11.1108 190.157 11.1371 190.16 11.1652V15.0544C190.16 15.0691 190.156 15.0837 190.147 15.0973C190.138 15.1109 190.125 15.1232 190.109 15.1335C190.092 15.1439 190.073 15.152 190.052 15.1575C190.03 15.1631 190.007 15.1658 189.984 15.1656H189.986ZM190.975 17.114H190.154V16.6123H190.968L190.975 17.114ZM190.975 10.4258H190.154V10.0232H190.968L190.975 10.4258ZM191.15 15.1656C191.127 15.1657 191.104 15.1629 191.083 15.1574C191.062 15.1518 191.042 15.1436 191.026 15.1333C191.01 15.123 190.997 15.1107 190.988 15.0971C190.979 15.0836 190.975 15.0691 190.975 15.0544V11.1652C190.978 11.1371 190.998 11.1108 191.03 11.0916C191.063 11.0724 191.105 11.0617 191.149 11.0617C191.193 11.0617 191.236 11.0724 191.268 11.0916C191.3 11.1108 191.32 11.1371 191.324 11.1652V15.0544C191.324 15.0694 191.319 15.0842 191.31 15.098C191.301 15.1118 191.287 15.1243 191.27 15.1347C191.253 15.1451 191.233 15.1532 191.211 15.1585C191.19 15.1638 191.166 15.1662 191.143 15.1656H191.15ZM192.138 17.114H191.325V16.6123H192.131L192.138 17.114ZM192.138 10.4258H191.325V10.0232H192.131L192.138 10.4258ZM192.312 15.1656C192.266 15.1656 192.222 15.1539 192.189 15.1331C192.156 15.1122 192.138 15.0839 192.138 15.0544V11.739C192.136 11.7237 192.139 11.7083 192.147 11.6937C192.155 11.6792 192.168 11.6659 192.184 11.6546C192.201 11.6433 192.22 11.6343 192.243 11.6281C192.265 11.622 192.288 11.6188 192.312 11.6188C192.337 11.6188 192.36 11.622 192.382 11.6281C192.405 11.6343 192.424 11.6433 192.441 11.6546C192.457 11.6659 192.47 11.6792 192.478 11.6937C192.486 11.7083 192.489 11.7237 192.487 11.739V15.0544C192.487 15.0693 192.482 15.084 192.473 15.0977C192.464 15.1114 192.451 15.1238 192.434 15.1342C192.418 15.1446 192.398 15.1527 192.376 15.1581C192.354 15.1635 192.331 15.1661 192.308 15.1656H192.312ZM193.436 17.114H192.487V16.6123H193.436V17.114ZM193.649 15.0544C193.646 15.0826 193.626 15.1088 193.594 15.128C193.561 15.1472 193.519 15.1579 193.475 15.1579C193.431 15.1579 193.388 15.1472 193.356 15.128C193.323 15.1088 193.304 15.0826 193.3 15.0544V12.4323C193.304 12.4042 193.323 12.3779 193.356 12.3587C193.388 12.3395 193.431 12.3289 193.475 12.3289C193.519 12.3289 193.561 12.3395 193.594 12.3587C193.626 12.3779 193.646 12.4042 193.649 12.4323V15.0544Z" stroke="#E2DCCB" stroke-width="9.6" mask="url(#path-2-inside-1_4052_18)"/>
<path d="M65.4904 57.7991C62.5654 56.5491 60.2654 54.7491 58.5904 52.4991H54.1154C53.4654 55.2241 52.1404 57.1491 49.6904 57.7991L47.9404 54.1491C48.6154 53.7991 49.1404 53.2241 49.5404 52.4991H47.9404V48.1491H50.5404L50.5654 47.1241C50.5654 46.1741 50.4904 45.1991 50.3904 44.2491H47.9404V39.9991H67.0904C67.0904 41.2491 67.1654 42.4991 67.1654 43.7241C67.1654 46.6741 66.7404 49.3991 63.7404 51.3491L63.3654 51.5741C64.4404 52.5741 65.6904 53.3741 67.1654 53.9241L65.4904 57.7991ZM59.8154 48.1991C62.3404 48.1991 62.7904 46.1741 62.7904 44.2741C60.6904 44.2741 57.6154 44.2741 54.6154 44.2491C54.6404 45.0991 54.6654 45.9241 54.6654 46.7241L54.6404 48.1741C56.6154 48.1991 58.5404 48.1991 59.8154 48.1991ZM87.518 57.6491H80.243C76.243 57.6491 72.968 54.3741 72.968 50.3741V43.9991H70.668V39.7241H89.693V45.1741H85.443V44.0241H80.118V44.0491H77.268V46.6491H85.168V50.7491H77.293C77.468 52.1741 78.668 53.2991 80.118 53.3491V53.3991H87.518V57.6491ZM112.3 57.6741H102.8C98.8002 57.6741 95.5252 54.3991 95.5252 50.3991V44.0241H93.2002V39.7241H95.5252V39.7741L112.15 39.7491V45.1991H107.9V44.0241L99.8002 44.0491V50.3991C99.8002 52.0241 101.175 53.3741 102.8 53.3741H108.025V50.7741H102.375V46.6741H112.3V57.6741ZM123.256 57.7241H115.806V53.5741H117.381L117.406 48.7491L117.381 43.7991H115.806V39.7741H123.256V43.7991H121.706V53.5741H123.256V57.7241ZM138.516 57.7991H128.541V53.5491H138.641V53.4991C140.091 53.4491 141.291 52.3241 141.466 50.8991H128.916V44.0991H126.766V39.9991H133.766L133.541 37.6741H139.041L138.791 39.9991H145.816V44.0991H133.016V46.7991H145.766V48.0991H145.791V50.5241C145.791 54.5241 142.516 57.7991 138.516 57.7991ZM161.022 57.7991C158.422 56.6741 156.597 54.0991 156.597 51.0991V43.8741H153.572V45.3241H149.322V39.7741H168.347V45.3241H164.097V43.8741H160.922L160.872 51.0991C160.872 52.4991 161.872 53.6991 163.197 54.0241L161.022 57.7991ZM189.404 57.7991C186.479 56.5491 184.179 54.7491 182.504 52.4991H178.029C177.379 55.2241 176.054 57.1491 173.604 57.7991L171.854 54.1491C172.529 53.7991 173.054 53.2241 173.454 52.4991H171.854V48.1491H174.454L174.479 47.1241C174.479 46.1741 174.404 45.1991 174.304 44.2491H171.854V39.9991H191.004C191.004 41.2491 191.079 42.4991 191.079 43.7241C191.079 46.6741 190.654 49.3991 187.654 51.3491L187.279 51.5741C188.354 52.5741 189.604 53.3741 191.079 53.9241L189.404 57.7991ZM183.729 48.1991C186.254 48.1991 186.704 46.1741 186.704 44.2741C184.604 44.2741 181.529 44.2741 178.529 44.2491C178.554 45.0991 178.579 45.9241 178.579 46.7241L178.554 48.1741C180.529 48.1991 182.454 48.1991 183.729 48.1991ZM211.857 57.7241C208.932 56.9491 207.607 54.3741 207.107 50.7741H201.057C200.557 54.3741 199.232 56.9491 196.332 57.7241L194.582 54.0741C196.457 53.1241 197.182 50.1991 197.182 47.0491C197.182 45.9741 197.107 44.8491 196.957 43.7991H194.582V39.7241H201.557L201.332 37.6491H206.832L206.632 39.7241H213.607V43.7991H211.207C211.057 44.8491 210.982 45.9491 210.982 47.0241C210.982 50.1991 211.707 53.1241 213.607 54.0741L211.857 57.7241ZM206.882 46.6741C206.882 45.7491 206.907 44.7991 206.957 43.7991H201.207C201.257 44.7991 201.282 45.7491 201.282 46.6741H206.882ZM228.814 57.7991C226.214 56.6741 224.389 54.0991 224.389 51.0991V43.8741H221.364V45.3241H217.114V39.7741H236.139V45.3241H231.889V43.8741H228.714L228.664 51.0991C228.664 52.4991 229.664 53.6991 230.989 54.0241L228.814 57.7991ZM247.096 57.7241H239.646V53.5741H241.221L241.246 48.7491L241.221 43.7991H239.646V39.7741H247.096V43.7991H245.546V53.5741H247.096V57.7241ZM269.631 57.7991H258.381C257.031 57.7991 255.931 57.6991 254.631 56.4241C253.256 55.0491 252.281 53.1741 252.281 51.0741V43.8741C251.756 43.8991 251.181 43.8991 250.606 43.8991V39.7741C258.581 39.6991 255.381 39.6741 262.306 39.6741C263.656 39.6741 264.756 39.7741 266.056 41.0491C267.456 42.4241 268.406 44.2991 268.406 46.3991V53.6991H269.631V57.7991ZM264.056 53.6991L264.081 46.3991C264.081 45.7991 263.881 45.2491 263.581 44.7491C263.106 43.8991 262.531 43.7741 261.456 43.7741L256.631 43.8491L256.606 51.0741C256.606 51.6741 256.831 52.2241 257.131 52.7241C257.606 53.5491 258.156 53.6991 259.231 53.6991H264.056ZM286.114 57.6741L283.914 53.8741C284.664 53.6991 285.289 53.2491 285.714 52.6491V52.5741C285.714 51.5491 285.164 50.5491 284.189 50.0491C281.964 48.8991 279.564 47.6991 277.239 46.5241V57.6741H273.139V39.6991H277.239V41.9241L286.039 46.4491L286.239 46.5741L286.189 39.6741H290.564V50.9491C290.564 53.9491 288.739 56.5491 286.114 57.6741Z" fill="white"/>
<path d="M329.939 21.8093C329.924 21.6326 329.871 21.4617 329.783 21.3099C329.696 21.1581 329.576 21.0293 329.433 20.9334C329.29 20.8375 329.128 20.7771 328.96 20.7568C328.791 20.7365 328.621 20.7568 328.461 20.8162C327.959 21.071 327.55 21.4899 327.296 22.0095C327.181 22.1461 327.079 22.2936 326.99 22.45C326.698 23.059 326.374 23.6499 326.017 24.2199C325.634 24.7645 325.251 25.3091 324.876 25.8777C324.738 25.9898 324.608 26.1099 324.47 26.206C323.704 26.7506 323.344 27.5195 322.647 28.0961C322.024 28.5382 321.471 29.0785 321.007 29.6979C319.963 30.0219 318.993 30.5671 318.158 31.2996C317.658 31.7757 317.017 32.0584 316.342 32.1005C315.804 32.1083 315.267 32.1484 314.734 32.2206C313.876 32.2767 313.049 31.652 312.26 31.3396C311.709 31.0849 311.147 30.8604 310.574 30.6669C310.045 30.5802 309.508 30.5533 308.973 30.5868C308.315 30.5868 307.786 30.2344 307.15 30.1784C306.223 30.1063 305.565 30.8671 304.852 31.3637C304.347 31.708 303.757 31.8041 303.251 32.1645C302.769 32.6089 302.24 32.9932 301.673 33.3098C301.581 33.3098 301.612 33.526 301.719 33.502C302.554 33.3338 303.075 32.4689 303.849 32.1245C304.284 31.9648 304.703 31.7581 305.097 31.5078C305.528 31.1174 306.014 30.7986 306.537 30.5628C307.071 30.458 307.623 30.5396 308.108 30.795C308.646 30.9003 309.192 30.9619 309.739 30.9792C311.019 31.1554 312.321 32.0044 313.47 32.581C314.412 33.0615 315.377 32.8933 316.365 33.1496C316.771 33.2216 317.187 33.2002 317.584 33.0867C317.981 32.9733 318.349 32.7706 318.663 32.4929C319.33 32.0444 319.889 31.5318 320.548 31.1394C320.48 31.7336 320.493 32.3349 320.586 32.9254C320.821 34.0122 320.669 35.1513 320.157 36.1289C319.613 37.21 319.138 38.3313 318.571 39.3964C318.314 39.8158 318.027 40.2146 317.714 40.5897C317.507 40.9708 317.372 41.3893 317.315 41.8231C317.315 41.9592 317.231 42.1033 317.185 42.2395C316.899 42.7259 316.66 43.241 316.473 43.7772L316.427 43.9213C316.304 44.0894 316.14 44.2208 315.954 44.3023C315.767 44.3838 315.563 44.4126 315.362 44.3858C313.841 44.3532 312.327 44.6251 310.904 45.1867C310.796 45.1306 310.682 45.0826 310.574 45.0185C309.235 44.3542 307.781 43.9783 306.3 43.9133C304.868 43.7451 304.27 44.4259 303.504 45.6112C303.41 45.8274 303.274 46.021 303.105 46.1798C302.936 46.3387 302.737 46.4595 302.522 46.5346C302.306 46.6098 302.078 46.6377 301.852 46.6166C301.625 46.5955 301.406 46.5259 301.206 46.412C300.541 46.1975 299.855 46.0658 299.161 46.0196C299.136 46.0264 299.115 46.0415 299.099 46.0625C299.084 46.0835 299.075 46.1092 299.075 46.1357C299.075 46.1622 299.084 46.188 299.099 46.209C299.115 46.23 299.136 46.2451 299.161 46.2519C299.799 46.4188 300.424 46.6384 301.03 46.9086C301.428 47.1464 301.874 47.2835 302.332 47.309C303.244 47.261 303.78 46.5081 304.239 45.7073C304.396 45.3611 304.646 45.0709 304.96 44.8729C305.273 44.6748 305.635 44.5779 306.001 44.5941C306.656 44.6626 307.306 44.7749 307.947 44.9304C308.642 44.9956 309.323 45.1683 309.969 45.443L310.061 45.4991L309.441 45.7233C308.685 45.8908 307.995 46.2894 307.457 46.8685C307.294 47.1204 307.155 47.3887 307.043 47.6694C306.754 48.1914 306.384 48.6596 305.948 49.0549C305.22 49.8558 305.228 50.977 304.109 51.4095C302.991 51.842 301.811 51.4095 300.716 51.3294C299.678 51.2263 298.632 51.2721 297.606 51.4655C297.082 51.6481 296.57 51.8675 296.074 52.1223C295.645 52.2985 295.185 52.2424 294.749 52.3785C294.128 52.5707 293.569 52.851 292.918 52.9872C292.461 53.0583 292.019 53.2071 291.608 53.4277C290.669 53.928 289.788 54.5379 288.98 55.2457C289.749 54.6622 290.567 54.1529 291.424 53.724C292.374 53.1634 293.523 53.1234 294.542 52.7469C295.001 52.5707 295.453 52.6108 295.921 52.4827C296.301 52.3316 296.675 52.1606 297.039 51.9701C298.214 51.6197 299.446 51.535 300.654 51.7218C302.186 51.8019 304.132 52.5707 305.319 51.1132C305.529 50.8266 305.694 50.5078 305.81 50.1681C306.082 49.6684 306.447 49.2302 306.882 48.8787C307.48 48.2941 307.84 47.3811 308.583 47.0127C309.486 46.6264 310.426 46.3418 311.386 46.1638H311.432C312.627 46.5319 313.874 46.6756 315.117 46.5882C315.469 46.6069 315.82 46.5242 316.13 46.3491C316.441 46.174 316.7 45.9132 316.879 45.5952C316.879 45.6832 316.833 45.7553 316.817 45.8434C316.588 47.1008 316.817 48.9508 315.959 49.9439C315.59 50.3313 315.254 50.7521 314.956 51.2013C314.61 51.723 314.137 52.1379 313.585 52.4026C312.767 52.9321 312.125 53.7123 311.746 54.637C311.737 54.6611 311.736 54.6877 311.744 54.7125C311.751 54.7372 311.767 54.7584 311.787 54.7726C311.808 54.7868 311.833 54.793 311.858 54.7901C311.882 54.7873 311.905 54.7757 311.923 54.7571C312.27 54.2543 312.649 53.7754 313.056 53.3236C313.451 52.9686 313.892 52.6746 314.366 52.4506C314.784 52.1695 315.129 51.7842 315.37 51.3294C315.691 50.8008 316.174 50.4484 316.496 49.9359C317.116 48.9428 317.001 47.4772 317.147 46.34C317.292 45.2027 317.913 44.1936 318.166 43.1365C318.425 42.7819 318.748 42.4828 319.115 42.2555C319.682 41.9191 320.188 41.4947 320.747 41.1423C321.169 40.9101 321.512 40.5462 321.727 40.1012C322.187 39.036 321.727 37.9708 321.727 36.8977C321.72 36.8071 321.72 36.716 321.727 36.6254C321.791 36.6879 321.869 36.7326 321.953 36.7551C322.038 36.7775 322.126 36.7772 322.21 36.7539C322.295 36.7307 322.372 36.6853 322.435 36.6222C322.498 36.5591 322.544 36.4803 322.57 36.3931C322.792 35.7685 322.685 35.1278 322.938 34.5351C323.203 33.8969 323.537 33.2923 323.934 32.7331C324.784 31.4867 325.495 30.1433 326.055 28.7288C326.76 27.3414 327.551 26.0037 328.422 24.7244C328.631 24.2233 328.93 23.7691 329.303 23.387C329.523 23.197 329.696 22.9543 329.806 22.6796C329.917 22.4049 329.963 22.1063 329.939 21.8093ZM313.087 45.7633L312.911 45.7633C313.642 45.5313 314.408 45.4444 315.17 45.5071C315.347 45.5071 315.507 45.5551 315.653 45.5631C314.956 45.9956 313.738 45.8594 313.087 45.7633ZM319.537 40.2533C319.606 40.1492 319.667 40.0451 319.728 39.941C320.165 39.1882 320.532 38.3953 320.931 37.6185C320.918 38.014 320.875 38.4077 320.801 38.7958C320.594 39.5886 320.073 39.8849 319.498 40.2533H319.537ZM321.973 31.5639C321.983 31.2664 322.057 30.9753 322.19 30.7119C322.322 30.4485 322.51 30.2196 322.739 30.0422C322.869 29.9942 322.907 29.9301 322.899 30.1063C322.585 30.6269 322.279 31.0753 321.934 31.5639H321.973Z" fill="#730000"/>
<path d="M8.00623 21.8093C8.021 21.6326 8.0743 21.4617 8.16203 21.3099C8.24976 21.1581 8.36959 21.0293 8.51233 20.9334C8.65507 20.8375 8.81692 20.7771 8.98546 20.7568C9.154 20.7365 9.32476 20.7568 9.48462 20.8162C9.98649 21.071 10.3953 21.4899 10.649 22.0095C10.7639 22.1461 10.8664 22.2936 10.9554 22.45C11.2469 23.059 11.5717 23.6499 11.9282 24.2199C12.3112 24.7645 12.6942 25.3091 13.0695 25.8777C13.2074 25.9898 13.3377 26.1099 13.4756 26.206C14.2416 26.7506 14.6016 27.5195 15.2986 28.0961C15.921 28.5382 16.474 29.0785 16.9379 29.6979C17.9827 30.0219 18.9527 30.5671 19.7875 31.2996C20.2872 31.7757 20.928 32.0584 21.6029 32.1005C22.1409 32.1083 22.678 32.1484 23.2116 32.2206C24.0695 32.2767 24.8968 31.652 25.6858 31.3396C26.2359 31.0849 26.7984 30.8604 27.371 30.6669C27.9003 30.5802 28.4371 30.5533 28.9719 30.5868C29.6307 30.5868 30.1593 30.2344 30.7951 30.1784C31.7219 30.1063 32.3807 30.8671 33.0931 31.3637C33.5987 31.708 34.1885 31.8041 34.6941 32.1645C35.1759 32.6089 35.7054 32.9932 36.272 33.3098C36.364 33.3098 36.3333 33.526 36.2261 33.502C35.3911 33.3338 34.8702 32.4689 34.0966 32.1245C33.661 31.9648 33.2426 31.7581 32.848 31.5078C32.4172 31.1174 31.9314 30.7986 31.4079 30.5628C30.8742 30.458 30.3224 30.5396 29.8375 30.795C29.299 30.9003 28.7535 30.9619 28.2059 30.9792C26.9267 31.1554 25.6245 32.0044 24.4755 32.581C23.5333 33.0615 22.5681 32.8933 21.5799 33.1496C21.1743 33.2216 20.7584 33.2002 20.3615 33.0867C19.9646 32.9733 19.5961 32.7706 19.2819 32.4929C18.6155 32.0444 18.0563 31.5318 17.3975 31.1394C17.4652 31.7336 17.4523 32.3349 17.3592 32.9254C17.1241 34.0122 17.2767 35.1513 17.7882 36.1289C18.332 37.21 18.807 38.3313 19.3738 39.3964C19.6313 39.8158 19.918 40.2146 20.2318 40.5897C20.438 40.9708 20.5732 41.3893 20.6301 41.8231C20.6301 41.9592 20.7143 42.1033 20.7603 42.2395C21.0464 42.7259 21.285 43.241 21.4727 43.7772L21.5187 43.9213C21.6417 44.0894 21.8049 44.2208 21.9917 44.3023C22.1786 44.3838 22.3826 44.4126 22.5834 44.3858C24.1047 44.3532 25.618 44.6251 27.0416 45.1867C27.1488 45.1306 27.2637 45.0826 27.371 45.0185C28.7105 44.3542 30.1641 43.9783 31.6453 43.9133C33.0778 43.7451 33.6753 44.4259 34.4413 45.6112C34.5356 45.8274 34.6714 46.021 34.8404 46.1798C35.0094 46.3387 35.2079 46.4595 35.4235 46.5346C35.6391 46.6098 35.8672 46.6377 36.0936 46.6166C36.32 46.5955 36.5398 46.5259 36.7393 46.412C37.4039 46.1975 38.0904 46.0658 38.7845 46.0196C38.8091 46.0264 38.8307 46.0415 38.8462 46.0625C38.8617 46.0835 38.87 46.1092 38.87 46.1357C38.87 46.1622 38.8617 46.188 38.8462 46.209C38.8307 46.23 38.8091 46.2451 38.7845 46.2519C38.1459 46.4188 37.5209 46.6384 36.9155 46.9086C36.5172 47.1464 36.0713 47.2835 35.6133 47.309C34.7017 47.261 34.1655 46.5081 33.7059 45.7073C33.5495 45.3611 33.299 45.0709 32.9856 44.8729C32.6722 44.6748 32.3099 44.5779 31.9441 44.5941C31.2893 44.6626 30.6394 44.7749 29.9984 44.9304C29.3037 44.9956 28.6222 45.1683 27.9761 45.443L27.8842 45.4991L28.5047 45.7233C29.26 45.8908 29.9507 46.2894 30.4887 46.8685C30.6517 47.1204 30.7903 47.3887 30.9023 47.6694C31.1916 48.1914 31.5618 48.6596 31.9977 49.0549C32.7254 49.8558 32.7177 50.977 33.8361 51.4095C34.9545 51.842 36.1342 51.4095 37.2295 51.3294C38.2673 51.2263 39.3137 51.2721 40.3396 51.4655C40.8638 51.6481 41.3756 51.8675 41.8716 52.1223C42.3005 52.2985 42.7602 52.2424 43.1968 52.3785C43.8172 52.5707 44.3764 52.851 45.0275 52.9872C45.4842 53.0583 45.9267 53.2071 46.3374 53.4277C47.2761 53.928 48.1575 54.5379 48.9648 55.2457C48.196 54.6622 47.3781 54.1529 46.5213 53.724C45.5714 53.1634 44.4224 53.1234 43.4036 52.7469C42.944 52.5707 42.4921 52.6108 42.0248 52.4827C41.644 52.3316 41.2707 52.1606 40.9064 51.9701C39.7318 51.6197 38.4992 51.535 37.2908 51.7218C35.7588 51.8019 33.8132 52.5707 32.6258 51.1132C32.4166 50.8266 32.2512 50.5078 32.1356 50.1681C31.8632 49.6684 31.4987 49.2302 31.0632 48.8787C30.4657 48.2941 30.1057 47.3811 29.3626 47.0127C28.4596 46.6264 27.5197 46.3418 26.559 46.1638H26.5131C25.3185 46.5319 24.0711 46.6756 22.8285 46.5882C22.4761 46.6069 22.1255 46.5242 21.8149 46.3491C21.5043 46.174 21.2455 45.9132 21.0667 45.5952C21.0667 45.6832 21.1127 45.7553 21.128 45.8434C21.3578 47.1008 21.128 48.9508 21.9859 49.9439C22.3552 50.3313 22.691 50.7521 22.9894 51.2013C23.3352 51.723 23.8088 52.1379 24.3606 52.4026C25.1785 52.9321 25.8204 53.7123 26.199 54.637C26.2082 54.6611 26.2092 54.6877 26.2017 54.7125C26.1942 54.7372 26.1788 54.7584 26.158 54.7726C26.1372 54.7868 26.1124 54.793 26.0878 54.7901C26.0631 54.7873 26.0402 54.7757 26.0228 54.7571C25.6748 54.2543 25.2961 53.7754 24.8891 53.3236C24.4947 52.9686 24.0535 52.6746 23.5792 52.4506C23.1611 52.1695 22.8163 51.7842 22.5757 51.3294C22.254 50.8008 21.7714 50.4484 21.4497 49.9359C20.8292 48.9428 20.9442 47.4772 20.7986 46.34C20.6531 45.2027 20.0326 44.1936 19.7798 43.1365C19.5201 42.7819 19.1977 42.4828 18.83 42.2555C18.2631 41.9191 17.7575 41.4947 17.1984 41.1423C16.7761 40.9101 16.4334 40.5462 16.2179 40.1012C15.7583 39.036 16.2179 37.9708 16.2179 36.8977C16.2253 36.8071 16.2253 36.716 16.2179 36.6254C16.1544 36.6879 16.0768 36.7326 15.9923 36.7551C15.9078 36.7775 15.8192 36.7772 15.7349 36.7539C15.6506 36.7307 15.5733 36.6853 15.5104 36.6222C15.4474 36.5591 15.4009 36.4803 15.3753 36.3931C15.1531 35.7685 15.2604 35.1278 15.0076 34.5351C14.7421 33.8969 14.408 33.2923 14.0117 32.7331C13.1617 31.4867 12.4498 30.1433 11.8899 28.7288C11.1854 27.3414 10.3947 26.0037 9.52294 24.7244C9.3147 24.2233 9.01553 23.7691 8.64201 23.387C8.42229 23.197 8.24975 22.9543 8.13905 22.6796C8.02835 22.4049 7.98279 22.1063 8.00623 21.8093ZM24.8585 45.7633L25.0347 45.7633C24.3033 45.5313 23.5369 45.4444 22.7749 45.5071C22.5987 45.5071 22.4379 45.5551 22.2923 45.5631C22.9894 45.9956 24.2074 45.8594 24.8585 45.7633ZM18.4086 40.2533C18.3397 40.1492 18.2784 40.0451 18.2171 39.941C17.7805 39.1882 17.4128 38.3953 17.0145 37.6185C17.0272 38.014 17.0707 38.4077 17.1447 38.7958C17.3516 39.5886 17.8725 39.8849 18.447 40.2533H18.4086ZM15.9727 31.5639C15.9623 31.2664 15.888 30.9753 15.7554 30.7119C15.6228 30.4485 15.4353 30.2196 15.2067 30.0422C15.0765 29.9942 15.0382 29.9301 15.0459 30.1063C15.3599 30.6269 15.6663 31.0753 16.0111 31.5639H15.9727Z" fill="#730000"/>
<defs>
<filter id="filter0_d_4052_18" x="0.49" y="19.3597" width="336.571" height="61.9002" filterUnits="userSpaceOnUse" color-interpolation-filters="sRGB">
<feFlood flood-opacity="0" result="BackgroundImageFix"/>
<feColorMatrix in="SourceAlpha" type="matrix" values="0 0 0 0 0 0 0 0 0 0 0 0 0 0 0 0 0 0 127 0" result="hardAlpha"/>
<feOffset dy="5.76"/>
<feGaussianBlur stdDeviation="2.88"/>
<feComposite in2="hardAlpha" operator="out"/>
<feColorMatrix type="matrix" values="0 0 0 0 0 0 0 0 0 0 0 0 0 0 0 0 0 0 0.7 0"/>
<feBlend mode="normal" in2="BackgroundImageFix" result="effect1_dropShadow_4052_18"/>
<feBlend mode="normal" in="SourceGraphic" in2="effect1_dropShadow_4052_18" result="shape"/>
</filter>
<linearGradient id="paint0_linear_4052_18" x1="7" y1="44.6951" x2="330.55" y2="44.6951" gradientUnits="userSpaceOnUse">
<stop/>
<stop offset="0.538462" stop-color="#842728"/>
<stop offset="0.975962"/>
</linearGradient>
</defs>
</svg>
